<?xml version="1.0" encoding="UTF-8" standalone="no"?>
<!DOCTYPE svg PUBLIC "-//W3C//DTD SVG 1.1//EN" "http://www.w3.org/Graphics/SVG/1.1/DTD/svg11.dtd">
<!-- Created with Vectornator (http://vectornator.io/) -->
<svg height="100%" stroke-miterlimit="10" style="fill-rule:nonzero;clip-rule:evenodd;stroke-linecap:round;stroke-linejoin:round;" version="1.1" viewBox="0 0 2384.24 1683.99" width="100%" xml:space="preserve" xmlns="http://www.w3.org/2000/svg" xmlns:vectornator="http://vectornator.io" xmlns:xlink="http://www.w3.org/1999/xlink">
<defs/>
<clipPath id="ArtboardFrame">
<rect height="1683.99" width="2384.24" x="0" y="0"/>
</clipPath>
<g clip-path="url(#ArtboardFrame)" id="Ebene-1" vectornator:layerName="Ebene 1">
<path d="M-37.6562-51.9992L2424.8-51.9992L2424.8 1710.28L-37.6562 1710.28L-37.6562-51.9992Z" fill="#e3d1b7" fill-rule="nonzero" opacity="1" stroke="#ba8234" stroke-linecap="butt" stroke-linejoin="round" stroke-width="10"/>
<path d="M370.75-116.219L370.75 225.75L2017.16 225.75L2017.16-116.219L370.75-116.219Z" fill="#e1d8cb" fill-rule="nonzero" opacity="1" stroke="#e1d8cb" stroke-linecap="butt" stroke-linejoin="round" stroke-width="10"/>
<path d="M-36.9353 1739L370.741 1287.57" fill="none" opacity="1" stroke="#ba8234" stroke-linecap="butt" stroke-linejoin="round" stroke-width="10"/>
<path d="M2011.49 1287.57L2411.07 1710.28" fill="none" opacity="1" stroke="#ba8234" stroke-linecap="butt" stroke-linejoin="round" stroke-width="10"/>
<path d="M2011.49 225.735L2424.8-51.9992" fill="none" opacity="1" stroke="#ba8234" stroke-linecap="butt" stroke-linejoin="round" stroke-width="10"/>
<g fill="#e3d1b7" opacity="1" stroke="none">
<path d="M330.459 562.769L330.459 564.82L324.658 564.82L324.658 579.984L322.291 579.984L322.291 564.82L316.49 564.82L316.49 562.769L330.459 562.769Z"/>
<path d="M334.877 567.152C335.767 567.152 336.631 567.361 337.467 567.779C338.302 568.197 338.939 568.738 339.377 569.402C339.799 570.034 340.08 570.773 340.22 571.616C340.345 572.195 340.408 573.116 340.408 574.382L331.209 574.382C331.248 575.655 331.549 576.677 332.111 577.447C332.674 578.216 333.545 578.601 334.724 578.601C335.826 578.601 336.705 578.238 337.361 577.511C337.736 577.089 338.002 576.601 338.158 576.046L340.232 576.046C340.177 576.507 339.996 577.021 339.687 577.587C339.379 578.154 339.033 578.616 338.65 578.976C338.009 579.601 337.217 580.023 336.271 580.241C335.763 580.366 335.189 580.429 334.549 580.429C332.986 580.429 331.662 579.861 330.576 578.724C329.49 577.587 328.947 575.995 328.947 573.948C328.947 571.933 329.494 570.296 330.588 569.038C331.681 567.78 333.111 567.152 334.877 567.152ZM338.24 572.706C338.154 571.792 337.955 571.062 337.642 570.515C337.064 569.499 336.099 568.991 334.748 568.991C333.779 568.991 332.967 569.341 332.31 570.04C331.654 570.739 331.306 571.628 331.267 572.706L338.24 572.706Z"/>
<path d="M341.802 567.433L344.533 567.433L347.416 571.851L350.334 567.433L352.9 567.491L348.67 573.55L353.088 579.984L350.392 579.984L347.275 575.273L344.252 579.984L341.58 579.984L345.998 573.55L341.802 567.433Z"/>
<path d="M355.42 563.929L357.552 563.929L357.552 567.433L359.556 567.433L359.556 569.155L357.552 569.155L357.552 577.347C357.552 577.784 357.701 578.077 357.998 578.226C358.162 578.312 358.435 578.355 358.818 578.355C358.92 578.355 359.029 578.353 359.146 578.349C359.263 578.345 359.4 578.335 359.556 578.32L359.556 579.984C359.314 580.054 359.062 580.105 358.801 580.136C358.539 580.167 358.256 580.183 357.951 580.183C356.967 580.183 356.299 579.931 355.947 579.427C355.595 578.923 355.42 578.269 355.42 577.464L355.42 569.155L353.72 569.155L353.72 567.433L355.42 567.433L355.42 563.929Z"/>
</g>
<path d="M370.741 225.735L2011.49 225.735L2011.49 1287.57L370.741 1287.57L370.741 225.735Z" fill="#e3d1b7" fill-rule="nonzero" opacity="1" stroke="#ba8234" stroke-linecap="butt" stroke-linejoin="round" stroke-width="10"/>
<path d="M370.741 225.735L2011.49 225.735L2011.49 1287.57L370.741 1287.57L370.741 225.735Z" fill="#e3d1b7" fill-rule="nonzero" opacity="1" stroke="#ba8234" stroke-linecap="butt" stroke-linejoin="round" stroke-width="10"/>
<path d="M846.928 417.581" fill="none" opacity="1" stroke="#ba8234" stroke-linecap="butt" stroke-linejoin="round" stroke-width="10"/>
<path d="M2384.24-261.69L2384.24-260.19" fill="none" opacity="1" stroke="#ffffff" stroke-linecap="butt" stroke-linejoin="round" stroke-width="10"/>
<path d="M1383.39 627.634L1764.31 627.634L1764.31 1287.57L1383.39 1287.57L1383.39 627.634Z" fill="#757a7e" fill-rule="nonzero" opacity="1" stroke="#393636" stroke-linecap="butt" stroke-linejoin="round" stroke-width="10"/>
<path d="M1679.88 940.244C1679.88 939.34 1680.43 938.608 1681.11 938.608C1681.78 938.608 1682.33 939.34 1682.33 940.244C1682.33 941.147 1681.78 941.88 1681.11 941.88C1680.43 941.88 1679.88 941.147 1679.88 940.244Z" fill="#757a7e" fill-rule="nonzero" opacity="1" stroke="#393636" stroke-linecap="butt" stroke-linejoin="round" stroke-width="10"/>
<path d="M1682.33 938.199C1682.33 937.07 1683.41 936.154 1684.73 936.154C1686.05 936.154 1687.12 937.07 1687.12 938.199C1687.12 939.328 1686.05 940.244 1684.73 940.244C1683.41 940.244 1682.33 939.328 1682.33 938.199Z" fill="#757a7e" fill-rule="nonzero" opacity="1" stroke="#393636" stroke-linecap="butt" stroke-linejoin="round" stroke-width="10"/>
<path d="M1684.73 937.148C1684.73 935.438 1686.21 934.051 1688.03 934.051C1689.85 934.051 1691.33 935.438 1691.33 937.148C1691.33 938.858 1689.85 940.244 1688.03 940.244C1686.21 940.244 1684.73 938.858 1684.73 937.148Z" fill="#757a7e" fill-rule="nonzero" opacity="1" stroke="#000000" stroke-linecap="butt" stroke-linejoin="round" stroke-width="10"/>
<path d="M1681.11 939.017C1681.11 937.436 1682.45 936.154 1684.12 936.154C1685.78 936.154 1687.12 937.436 1687.12 939.017C1687.12 940.598 1685.78 941.88 1684.12 941.88C1682.45 941.88 1681.11 940.598 1681.11 939.017Z" fill="#757a7e" fill-rule="nonzero" opacity="1" stroke="#000000" stroke-linecap="butt" stroke-linejoin="round" stroke-width="10"/>
<path d="M1679.88 953.68L1733.39 953.68L1733.39 1022.15L1679.88 1022.15L1679.88 953.68Z" fill="#000000" fill-rule="nonzero" opacity="1" stroke="#393636" stroke-linecap="butt" stroke-linejoin="round" stroke-width="10"/>
<g opacity="1">
<path d="M1469.75 641.875C1469.22 641.967 1468.7 642.159 1468.22 642.469C1464.01 645.186 1460.09 648.258 1456.44 651.688C1448.16 659.459 1441.25 668.579 1433.56 676.906C1424.05 687.209 1413.91 696.938 1404.78 707.594C1400.44 712.653 1396.41 717.93 1392.66 723.438C1391.43 725.23 1391.9 727.685 1393.69 728.906C1395.48 730.128 1397.93 729.667 1399.16 727.875C1404.3 720.33 1410.1 713.31 1416.28 706.594C1424.17 698.022 1432.57 689.969 1440.47 681.406C1444.25 677.308 1447.92 673.103 1451.59 668.906C1456.06 663.803 1460.61 658.735 1465.84 654.406C1468.02 652.605 1470.34 650.996 1472.72 649.469C1474.64 648.228 1475.18 645.645 1473.94 643.719C1473.01 642.274 1471.34 641.598 1469.75 641.875Z" fill="#d3d9e0" fill-opacity="0.241572" stroke="none"/>
</g>
<g opacity="1">
<path d="M1434.22 639.562C1433.16 639.662 1432.14 640.18 1431.41 641.062C1430.17 642.561 1428.96 643.989 1427.56 645.344C1424.53 648.287 1421.11 650.877 1418.38 654.125C1416.9 655.88 1415.63 657.776 1414.47 659.75C1412.65 662.845 1411.14 666.196 1408.78 668.938C1406.06 672.092 1402.85 674.785 1399.97 677.781C1397.38 680.47 1395.14 683.403 1393.16 686.562C1392 688.398 1392.54 690.814 1394.38 691.969C1396.21 693.124 1398.66 692.586 1399.81 690.75C1401.37 688.282 1403.09 685.965 1405.09 683.844C1408.23 680.53 1411.79 677.637 1414.81 674.219C1418.77 669.751 1420.79 663.963 1424.66 659.438C1427.22 656.43 1430.47 654.048 1433.31 651.312C1434.93 649.75 1436.38 648.074 1437.81 646.344C1439.27 644.579 1439.02 641.96 1437.25 640.5C1436.37 639.77 1435.28 639.463 1434.22 639.562Z" fill="#d3d9e0" fill-opacity="0.241572" stroke="none"/>
</g>
<g opacity="1">
<path d="M1512.44 636.688C1511.9 636.704 1511.36 636.823 1510.84 637.062C1503.7 640.348 1497.61 645.235 1492.09 650.781C1485.38 657.532 1479.58 665.14 1472.66 671.688C1470.42 673.798 1468.09 675.812 1465.84 677.906C1460.63 682.77 1455.56 687.786 1450.56 692.875C1438.96 704.694 1427.87 716.999 1416.62 729.156C1413.82 732.185 1411.03 735.227 1408.09 738.125C1404.4 741.769 1400.55 745.246 1397.09 749.125C1394.55 751.985 1392.29 755.054 1390.28 758.312C1389.14 760.158 1389.72 762.58 1391.56 763.719C1393.41 764.858 1395.83 764.283 1396.97 762.438C1398.74 759.57 1400.73 756.86 1402.97 754.344C1406.31 750.596 1410.05 747.266 1413.62 743.75C1416.65 740.774 1419.52 737.642 1422.41 734.531C1433.62 722.459 1444.71 710.268 1456.31 698.562C1461.25 693.58 1466.29 688.672 1471.44 683.906C1473.71 681.806 1476.03 679.772 1478.28 677.656C1490.1 666.55 1499.12 651.587 1514.31 644.625C1516.39 643.669 1517.3 641.207 1516.34 639.125C1515.63 637.564 1514.05 636.638 1512.44 636.688Z" fill="#d3d9e0" fill-opacity="0.241572" stroke="none"/>
</g>
<path d="M370.741 1287.57L2011.49 1287.57L2011.49 1683.99L370.741 1683.99L370.741 1287.57Z" fill="#a5a4a2" fill-rule="nonzero" opacity="1" stroke="#d3d9e0" stroke-linecap="butt" stroke-linejoin="round" stroke-opacity="0.241572" stroke-width="7.81201"/>
<path d="M2006.41 1288.12L1742.53 1534L1963.97 1771.66C1966.11 1771.8 1968.48 1772.06 1970.59 1772.19C1986.97 1771.21 2005.02 1769.81 2027.91 1767.66C2030.79 1767.39 2033.01 1767.16 2038.34 1766.66C2080.08 1762.7 2098.99 1761.16 2123.09 1760.06C2143.63 1759.13 2161.97 1759.05 2184.03 1759.81C2193.87 1757.57 2204.83 1754.94 2218.19 1751.66C2224.86 1750.02 2227.71 1749.33 2231.38 1748.44C2259.46 1741.6 2278.64 1737.44 2298.66 1734.28C2312.36 1732.12 2326.57 1731.06 2342.03 1730.88C2347.18 1730.81 2352.49 1730.84 2357.94 1730.97C2370.21 1731.25 2381.6 1731.9 2399.53 1733.16L2411.03 1722.44L2006.41 1288.12Z" fill="#a5a4a2" fill-rule="nonzero" opacity="1" stroke="#a5a4a2" stroke-linecap="butt" stroke-linejoin="round" stroke-width="7.81201"/>
<path d="M380.469 1288.12L-37.6562 1754.44L-9.65625 1779.53C-6.50195 1778.88-3.70054 1778.4-0.25 1777.62C3.78396 1776.71 6.59079 1776.08 14.7812 1774.16C36.5254 1769.04 47.2039 1766.72 60.8438 1764.56C73.4994 1762.56 86.0346 1761.91 99.2188 1762.38C112.403 1762.84 126.234 1764.45 141.531 1767.03C149.502 1768.38 155.917 1769.59 169.281 1772.25C195.235 1777.41 205.924 1779.21 218.188 1780.03C232.615 1780.99 244.935 1780.65 273.625 1778.97C277.423 1778.75 279.092 1778.65 281.219 1778.53C296.649 1777.66 307.359 1777.25 318.531 1777.25C345.827 1777.25 373.85 1779.21 402.25 1783C402.896 1783.09 404.347 1783.22 405.188 1783.31L640.312 1521.12L380.469 1288.12Z" fill="#a5a4a2" fill-rule="nonzero" opacity="1" stroke="#a5a4a2" stroke-linecap="butt" stroke-linejoin="round" stroke-width="7.81201"/>
<path d="M240.906-196.438C234.76-192.335 228.694-188.405 222.531-184.562C191.832-165.42 162.593-150.836 132.719-140.594C116.525-135.042 98.4573-131.838 82.625-132.438C69.8481-132.921 57.9699-135.652 46.75-142.5C46.106-142.893 45.563-143.398 44.9375-143.812C32.2645-136.368 20.0045-129.386 7.09375-122.5C-10.2755-113.236-29.0406-106.078-50.5312-99.9375C-51.08-99.7807-51.2723-99.7185-54.3438-98.7188C-56.8234-97.9117-58.6384-97.3733-60.625-96.8125L368.469 212.906L519.031 4.3125L240.906-196.438Z" fill="#e1d8cb" fill-rule="nonzero" opacity="1" stroke="#e1d8cb" stroke-linecap="butt" stroke-linejoin="round" stroke-width="10"/>
<path d="M2319.56-288.686L2320.1-288.686L2320.1-288.686L2319.56-288.686L2319.56-288.686Z" fill="#e3d1b7" fill-rule="nonzero" opacity="1" stroke="#ba8234" stroke-linecap="butt" stroke-linejoin="round" stroke-width="10"/>
<path d="M2356.9-26.337L2016.64 206.267L1893.63 26.337L2233.89-206.267L2356.9-26.337Z" fill="#e1d8cb" fill-rule="nonzero" opacity="1" stroke="#e1d8cb" stroke-linecap="butt" stroke-linejoin="round" stroke-width="10"/>
<path d="M1670.88 931.044L1742.52 931.044L1742.52 1031.75L1670.88 1031.75L1670.88 931.044Z" fill="#bca17b" fill-rule="nonzero" opacity="1" stroke="#bca17b" stroke-linecap="butt" stroke-linejoin="round" stroke-width="10"/>
<path d="M1671.23 931.542L1742.17 931.542L1742.17 1031.25L1671.23 1031.25L1671.23 931.542Z" fill="#bca17b" fill-rule="nonzero" opacity="1" stroke="#bca17b" stroke-linecap="butt" stroke-linejoin="round" stroke-width="9.90094"/>
<path d="M1679.88 961.859L1733.39 961.859L1733.39 1022.15L1679.88 1022.15L1679.88 961.859Z" fill="#000000" fill-rule="nonzero" opacity="1" stroke="#000000" stroke-linecap="butt" stroke-linejoin="round" stroke-width="10"/>
<path d="M1679.88 937.965C1679.88 935.804 1681.7 934.051 1683.95 934.051C1686.2 934.051 1688.03 935.804 1688.03 937.965C1688.03 940.127 1686.2 941.88 1683.95 941.88C1681.7 941.88 1679.88 940.127 1679.88 937.965Z" fill="#757a7e" fill-rule="nonzero" opacity="1" stroke="#000000" stroke-linecap="butt" stroke-linejoin="round" stroke-width="10"/>
<path d="M1683.79 939.134C1683.13 939.98 1685.98 937.089 1684.44 937.089C1683.82 937.089 1683.89 939.103 1684.32 938.959C1685.81 938.463 1683.04 935.943 1683.62 938.842C1683.65 939.003 1683.87 939.035 1683.79 939.134Z" fill="none" opacity="1" stroke="#000000" stroke-linecap="round" stroke-linejoin="round" stroke-width="10"/>
<path d="M1684.14 938.959C1683.89 939.173 1684.69 938.211 1684.9 937.556C1685.1 936.955 1684.55 938.792 1684.55 939.426C1684.55 939.426 1685.29 937.974 1684.14 938.959Z" fill="#ed0b0b" fill-rule="nonzero" opacity="1" stroke="#000000" stroke-linecap="round" stroke-linejoin="round" stroke-width="10"/>
<path d="M1684.09 938.433C1684.01 937.22 1684.23 938.868 1684.67 938.141C1685.11 937.404 1683.36 936.431 1682.8 937.44C1681.79 939.263 1684.26 941.153 1684.09 938.433Z" fill="#ed0b0b" fill-rule="nonzero" opacity="1" stroke="#000000" stroke-linecap="round" stroke-linejoin="round" stroke-width="10"/>
<path d="M1684.1 937.148C1684.04 937.148 1683.98 937.148 1683.93 937.148" fill="#ed0b0b" fill-opacity="0" fill-rule="nonzero" opacity="1" stroke="#ff0000" stroke-linecap="round" stroke-linejoin="round" stroke-width="10"/>
<path d="M1687.12 971.651L1691.33 971.651L1691.33 977.769L1687.12 977.769L1687.12 971.651Z" fill="#538cb9" fill-rule="nonzero" opacity="1" stroke="#000000" stroke-linecap="butt" stroke-linejoin="round" stroke-width="10"/>
<path d="M1651.97 940.244L1652.04 940.244L1652.04 941.88L1651.97 941.88L1651.97 940.244Z" fill="#868a8c" fill-rule="nonzero" opacity="1" stroke="#ff0707" stroke-linecap="butt" stroke-linejoin="round" stroke-opacity="0" stroke-width="10"/>
<path d="M1682.44 963.612L1693.62 963.612L1693.62 974.71L1682.44 974.71L1682.44 963.612Z" fill="#868a8c" fill-rule="nonzero" opacity="1" stroke="#ff0707" stroke-linecap="butt" stroke-linejoin="round" stroke-opacity="0" stroke-width="10"/>
<path d="M1701.11 963.612L1712.29 963.612L1712.29 974.71L1701.11 974.71L1701.11 963.612Z" fill="#868a8c" fill-rule="nonzero" opacity="1" stroke="#ff0707" stroke-linecap="butt" stroke-linejoin="round" stroke-opacity="0" stroke-width="10"/>
<path d="M1682.33 980.906L1693.52 980.906L1693.52 992.003L1682.33 992.003L1682.33 980.906Z" fill="#868a8c" fill-rule="nonzero" opacity="1" stroke="#ff0707" stroke-linecap="butt" stroke-linejoin="round" stroke-opacity="0" stroke-width="10"/>
<path d="M1701.11 980.906L1712.29 980.906L1712.29 992.003L1701.11 992.003L1701.11 980.906Z" fill="#868a8c" fill-rule="nonzero" opacity="1" stroke="#ff0707" stroke-linecap="butt" stroke-linejoin="round" stroke-opacity="0" stroke-width="10"/>
<path d="M1719.58 980.906L1730.77 980.906L1730.77 992.003L1719.58 992.003L1719.58 980.906Z" fill="#868a8c" fill-rule="nonzero" opacity="1" stroke="#ff0707" stroke-linecap="butt" stroke-linejoin="round" stroke-opacity="0" stroke-width="10"/>
<path d="M1682.33 997.119L1693.52 997.119L1693.52 1008.22L1682.33 1008.22L1682.33 997.119Z" fill="#868a8c" fill-rule="nonzero" opacity="1" stroke="#ff0707" stroke-linecap="butt" stroke-linejoin="round" stroke-opacity="0" stroke-width="10"/>
<path d="M1701.11 997.119L1712.29 997.119L1712.29 1008.22L1701.11 1008.22L1701.11 997.119Z" fill="#868a8c" fill-rule="nonzero" opacity="1" stroke="#ff0707" stroke-linecap="butt" stroke-linejoin="round" stroke-opacity="0" stroke-width="10"/>
<path d="M1719.58 997.119L1730.77 997.119L1730.77 1008.22L1719.58 1008.22L1719.58 997.119Z" fill="#868a8c" fill-rule="nonzero" opacity="1" stroke="#ff0707" stroke-linecap="butt" stroke-linejoin="round" stroke-opacity="0" stroke-width="10"/>
<path d="M1701.11 1011.05L1712.29 1011.05L1712.29 1022.15L1701.11 1022.15L1701.11 1011.05Z" fill="#868a8c" fill-rule="nonzero" opacity="1" stroke="#ff0707" stroke-linecap="butt" stroke-linejoin="round" stroke-opacity="0" stroke-width="10"/>
<path d="M1719.58 1011.05L1730.77 1011.05L1730.77 1022.15L1719.58 1022.15L1719.58 1011.05Z" fill="#868a8c" fill-rule="nonzero" opacity="1" stroke="#ff0707" stroke-linecap="butt" stroke-linejoin="round" stroke-opacity="0" stroke-width="10"/>
<path d="M1719.58 963.612L1730.77 963.612L1730.77 974.71L1719.58 974.71L1719.58 963.612Z" fill="#868a8c" fill-rule="nonzero" opacity="1" stroke="#ff0707" stroke-linecap="butt" stroke-linejoin="round" stroke-opacity="0" stroke-width="10"/>
<path d="M1642.14 958.363C1642.17 957.423 1641.71 956.329 1642.23 955.544C1642.79 954.684 1644.24 953.346 1644.95 954.09C1646.34 955.533 1646.05 957.942 1646.41 959.908C1646.78 961.931 1646.57 964.292 1646.68 966.364" fill="#757a7e" fill-rule="nonzero" opacity="1" stroke="#393636" stroke-linecap="butt" stroke-linejoin="round" stroke-opacity="0" stroke-width="10"/>
<path d="M1647.68 971.819C1647.77 970.758 1647.52 969.61 1647.95 968.637C1648.28 967.909 1649.29 966.462 1649.77 967.091C1650.67 968.245 1650.07 969.997 1650.14 971.455C1650.33 975.614 1649.92 979.842 1649.77 984.002" fill="#757a7e" fill-rule="nonzero" opacity="1" stroke="#393636" stroke-linecap="butt" stroke-linejoin="round" stroke-opacity="0" stroke-width="10"/>
<g opacity="1">
<path d="M1685.41 969.728C1686.71 968.915 1687.22 967.722 1688.14 966.545C1688.32 966.309 1688.49 965.836 1688.78 965.909C1689.05 965.978 1688.57 968.385 1688.59 968.637C1688.74 970.138 1688.87 971.57 1688.87 973.092" fill="#393636" fill-opacity="0" fill-rule="nonzero" stroke="none"/>
<path d="M1688.5 965.469C1687.81 965.744 1687.2 967.017 1686.91 967.438C1686.78 967.622 1686.63 967.787 1686.5 967.969C1686.26 968.308 1686 968.632 1685.69 968.906C1685.61 968.976 1685.38 969.037 1685.44 969.125C1685.97 969.885 1685.42 969.114 1685.12 969.312C1684.9 969.468 1684.84 969.77 1685 970C1685.16 970.23 1685.46 970.312 1685.69 970.156C1687.01 971.637 1687.34 971.881 1687 971.625C1686.47 971.233 1686.25 970.558 1686.03 969.938C1685.99 969.812 1686.24 969.775 1686.34 969.688C1686.44 969.604 1686.53 969.496 1686.62 969.406C1686.81 969.225 1686.93 969.044 1687.09 968.844C1687.49 968.35 1687.86 967.816 1688.22 967.281C1688.15 967.729 1688.04 968.211 1688.06 968.656C1688.09 969.155 1688.18 969.658 1688.22 970.156C1688.26 970.641 1688.62 971.248 1688.31 971.625C1688.31 971.632 1688.32 971.65 1688.31 971.656C1688.68 971.746 1689.03 971.736 1689.34 971.562C1689.78 971.319 1689.29 970.59 1689.25 970.094C1689.21 969.601 1689.16 969.087 1689.12 968.594C1689.09 968.111 1689.7 966.008 1689.19 965.594C1688.95 965.401 1688.73 965.377 1688.5 965.469ZM1688.31 971.656C1687.94 971.567 1687.55 971.375 1687.25 971.188C1686.86 970.946 1687.96 971.842 1688.31 972.125C1688.31 972.072 1688.23 971.754 1688.31 971.656ZM1688.31 972.125C1688.32 972.236 1688.32 972.113 1688.34 973.094C1688.35 973.387 1688.58 973.632 1688.88 973.625C1689.17 973.618 1689.41 973.387 1689.41 973.094C1688.32 972.138 1688.67 972.417 1688.31 972.125Z" fill="#ff0000" stroke="none"/>
</g>
<g opacity="1">
<path d="M1705.32 968.455C1704.13 965.677 1706.71 965.777 1707.32 968.364C1707.63 969.632 1707.22 971.366 1706.78 972.546C1706.67 972.838 1706.62 973.273 1706.32 973.364C1706.05 973.448 1705.48 973.171 1705.6 972.91C1706.07 971.846 1708.99 973.429 1709.69 973.637" fill="#393636" fill-opacity="0" fill-rule="nonzero" stroke="none"/>
<path d="M1705.88 965.906C1704.64 965.684 1704.38 967.018 1704.62 967.938C1704.66 968.053 1704.64 968.194 1704.72 968.281C1705.56 969.184 1704.71 968.275 1704.84 968.625C1704.95 968.883 1705.24 969.039 1705.5 968.938C1705.76 968.836 1705.88 968.54 1705.78 968.281C1706.82 969.915 1706.58 969.49 1706.84 969.906C1706.45 969.264 1706.04 968.62 1705.66 967.969C1705.6 967.868 1705.38 966.897 1705.66 966.906C1706.07 966.92 1706.4 967.429 1706.56 967.75C1706.91 968.421 1706.92 969.162 1706.84 969.906C1706.85 969.912 1706.84 969.932 1706.84 969.938C1706.8 970.331 1706.78 970.72 1706.69 971.094C1706.63 971.317 1706.57 971.531 1706.5 971.75C1706.46 971.872 1706.42 972.004 1706.38 972.125C1705.62 972.121 1704.86 972.282 1705.09 973.188C1705.31 974.024 1706.56 974.112 1707 973.469C1707.05 973.401 1707.05 973.277 1707.09 973.188C1707.51 973.311 1707.91 973.501 1708.22 973.625C1708.5 973.741 1708.69 973.819 1708.97 973.938C1709.07 973.981 1709.33 974.162 1709.28 974.062C1708.8 973.078 1709.27 974.043 1709.5 974.125C1709.78 974.224 1710.09 974.089 1710.19 973.812C1710.29 973.536 1710.15 973.224 1709.88 973.125C1707.65 971.127 1707.22 970.7 1707.66 971.125C1708.33 971.764 1709 972.398 1709.66 973.062C1709.73 973.135 1709.47 972.977 1709.38 972.938C1709.26 972.888 1709.15 972.862 1709.03 972.812C1708.75 972.695 1708.47 972.574 1708.19 972.469C1707.96 972.385 1707.69 972.291 1707.44 972.219C1707.45 972.171 1707.49 972.103 1707.5 972.062C1707.58 971.794 1707.56 971.477 1707.62 971.188C1707.63 971.166 1707.65 971.147 1707.66 971.125C1708.01 969.543 1708.09 967.789 1706.94 966.562C1706.65 966.26 1706.29 965.981 1705.88 965.906Z" fill="#ff0000" stroke="none"/>
</g>
<g opacity="1">
<path d="M1723.42 966.909C1724.26 965.217 1726.12 966.098 1726.05 967.546C1726.03 967.911 1725.82 968.255 1725.6 968.546C1725.41 968.786 1724.69 968.849 1724.87 969.091C1724.94 969.19 1726.98 968.372 1726.87 970.455C1726.82 971.51 1725.27 972.743 1724.23 972.546C1723.64 972.433 1722.98 971.66 1722.6 971.273" fill="#393636" fill-opacity="0" fill-rule="nonzero" stroke="none"/>
<path d="M1724.84 965.5C1722.78 965.326 1724.83 965.477 1722.97 966.656C1722.83 966.899 1722.94 967.209 1723.19 967.344C1723.43 967.479 1723.71 967.399 1723.84 967.156C1723.41 969.031 1723.28 969.722 1723.41 969.031C1723.53 968.336 1723.77 967.648 1723.97 966.969C1724 966.859 1724.13 966.727 1724.22 966.656C1724.66 966.292 1725.27 966.571 1725.47 967.062C1726.04 968.446 1724.25 968.126 1724.34 969.094C1724.34 969.097 1724.35 969.115 1724.34 969.125C1724.34 969.158 1724.35 969.222 1724.38 969.219C1724.38 969.216 1724.4 969.221 1724.41 969.219C1724.44 969.294 1724.46 969.369 1724.47 969.375C1724.6 969.553 1724.79 969.606 1725 969.594C1725.77 969.547 1726.43 969.337 1726.34 970.406C1726.26 971.485 1724.71 972.451 1723.81 971.719C1723.7 971.624 1723.19 971.263 1723.19 971.125C1723.18 970.423 1723.18 971.126 1722.97 970.906C1722.84 970.775 1722.67 970.876 1722.5 970.906C1722.49 971.229 1722.43 971.553 1722.44 971.875C1722.44 971.998 1722.6 972.038 1722.69 972.125C1722.78 972.219 1722.87 972.316 1722.97 972.406C1723.4 972.797 1723.9 973.108 1724.5 973.094C1725.94 973.06 1727.46 971.646 1727.41 970.188C1727.38 969.39 1726.91 968.779 1726.12 968.594C1726.16 968.549 1726.22 968.549 1726.25 968.5C1726.8 967.568 1726.59 966.332 1725.62 965.75C1725.4 965.614 1725.11 965.522 1724.84 965.5ZM1722.5 970.906C1722.52 970.324 1722.52 969.733 1722.59 969.156C1722.72 968.215 1722.52 969.745 1722.34 970.906C1722.39 970.878 1722.44 970.916 1722.5 970.906ZM1722.34 970.906C1722.3 970.929 1722.25 970.872 1722.22 970.906C1722.01 971.111 1722.01 971.446 1722.22 971.656C1722.33 970.908 1722.27 971.406 1722.34 970.906Z" fill="#ff0000" stroke="none"/>
</g>
<g opacity="1">
<path d="M1685.41 983.911C1685.41 986.68 1684.96 988.073 1688.23 987.093" fill="#393636" fill-opacity="0" fill-rule="nonzero" stroke="none"/>
<path d="M1685.41 983.406C1685.13 983.403 1684.91 983.629 1684.91 983.906C1685.9 984.968 1685.67 984.724 1685.91 984.969C1685.87 984.798 1685.78 984.586 1685.91 984.594C1686.33 984.619 1685.9 984.573 1685.91 983.906C1685.91 983.629 1685.68 983.409 1685.41 983.406ZM1685.91 984.969C1685.93 985.068 1685.91 985.114 1685.91 985.188C1685.91 985.201 1685.91 985.235 1685.91 985.25C1686.15 985.434 1686.45 985.536 1686.66 985.75C1686.89 985.991 1686.08 985.15 1685.91 984.969ZM1685.91 985.25C1685.58 985.002 1685.29 984.689 1684.91 984.562C1684.72 984.499 1684.88 984.986 1684.88 985.188C1684.87 985.372 1684.87 985.535 1684.88 985.719C1684.89 986.521 1685 987.473 1685.84 987.812C1686.39 988.033 1687.04 987.934 1687.59 987.812C1687.72 987.785 1688.02 987.835 1687.97 987.719C1687.63 987.002 1687.98 987.706 1688.38 987.594C1688.66 987.514 1688.83 987.22 1688.75 986.938C1688.67 986.655 1688.38 986.514 1688.09 986.594C1687.01 985.261 1686.72 984.926 1687 985.25C1687.35 985.657 1687.59 986.168 1687.72 986.688C1687.75 986.798 1687.49 986.757 1687.38 986.781C1687.04 986.856 1686.52 987.002 1686.19 986.812C1685.79 986.581 1685.9 985.645 1685.91 985.25Z" fill="#ff0000" stroke="none"/>
</g>
<g opacity="1">
<path d="M1687.9 984.1C1687.79 986.091 1687.9 988.051 1687.9 990.046" fill="#393636" fill-opacity="0" fill-rule="nonzero" stroke="none"/>
<path d="M1687.94 983.594C1687.66 983.582 1687.42 983.816 1687.41 984.094C1687.39 987.079 1687.38 987.727 1687.38 987.062C1687.37 986.737 1687.35 986.419 1687.34 986.094C1687.34 986.747 1687.34 987.409 1687.34 988.062C1687.35 988.392 1687.36 989.392 1687.38 989.062C1687.4 988.398 1687.37 989.07 1687.38 990.062C1687.38 990.356 1687.61 990.565 1687.91 990.562C1688.2 990.56 1688.44 990.325 1688.44 990.031C1688.43 989.024 1688.44 989.544 1688.44 989.031C1688.44 988.704 1688.41 988.39 1688.41 988.062C1688.39 987.462 1688.35 986.695 1688.34 986.094C1688.34 985.768 1688.36 984.769 1688.38 985.094C1688.41 985.751 1688.37 985.111 1688.41 984.125C1688.42 983.848 1688.21 983.606 1687.94 983.594Z" fill="#ff0000" stroke="none"/>
</g>
<g opacity="1">
<path d="M1703.87 984.216C1703.87 984.761 1703.57 985.396 1703.87 985.849C1704.31 986.503 1705.62 986.035 1706.09 986.665C1707.53 988.579 1706.07 989.306 1704.34 989.113" fill="#393636" fill-opacity="0" fill-rule="nonzero" stroke="none"/>
<path d="M1703.91 983.719C1703.63 983.699 1703.39 983.911 1703.38 984.188C1703.88 986.389 1704.13 987.134 1703.88 986.375C1704.38 986.672 1705.01 986.6 1705.56 986.875C1705.82 987.001 1706 987.435 1706.09 987.688C1706.33 988.347 1705.7 988.549 1705.12 988.594C1705.01 988.603 1704.84 988.727 1704.78 988.625C1704.56 988.229 1704.57 988.26 1704.56 988.375C1704.62 988.811 1704.62 989.27 1704.75 989.688C1704.8 989.834 1705.07 989.669 1705.22 989.656C1705.49 989.634 1705.81 989.593 1706.06 989.5C1706.79 989.235 1707.28 988.6 1707.19 987.812C1707.11 987.138 1706.65 986.283 1706.03 985.969C1705.8 985.85 1704.43 985.791 1704.31 985.594C1704.19 985.378 1704.28 985.104 1704.31 984.875C1704.33 984.772 1704.34 984.459 1704.34 984.562C1704.36 985.36 1704.35 984.551 1704.38 984.25C1704.39 983.973 1704.18 983.739 1703.91 983.719ZM1704.56 988.375C1704.5 987.897 1704.38 987.417 1704.34 986.938C1704.31 986.444 1704.31 987.819 1704.31 988.625C1704.34 988.623 1704.35 988.592 1704.38 988.594C1704.55 988.607 1704.56 988.463 1704.56 988.375ZM1704.31 988.625C1704.06 988.646 1703.83 988.797 1703.81 989.062C1703.79 989.355 1704.02 989.636 1704.31 989.656C1704.33 988.634 1704.31 989.118 1704.31 988.625ZM1703.88 986.375C1703.66 985.739 1703.56 985.074 1703.34 984.438C1703.32 984.353 1703.33 984.599 1703.31 984.688C1703.3 984.79 1703.26 984.897 1703.25 985C1703.2 985.393 1703.22 985.777 1703.44 986.125C1703.55 986.305 1703.73 986.291 1703.88 986.375Z" fill="#ff0000" stroke="none"/>
</g>
<g opacity="1">
<path d="M1703.87 983.867C1705.02 983.753 1706.11 983.634 1707.26 983.634" fill="#393636" fill-opacity="0" fill-rule="nonzero" stroke="none"/>
<path d="M1707.25 983.094C1705.54 983.226 1705.34 983.268 1705.53 983.25C1705.72 983.233 1706.28 983.152 1706.09 983.156C1705.71 983.165 1705.34 983.189 1704.97 983.25C1704.78 983.281 1704.95 983.256 1703.81 983.375C1703.54 983.402 1703.35 983.63 1703.38 983.906C1703.4 984.183 1703.66 984.402 1703.94 984.375C1705.61 984.274 1705.78 984.238 1705.59 984.25C1705.41 984.262 1704.88 984.274 1705.06 984.25C1705.43 984.201 1705.79 984.185 1706.16 984.188C1706.34 984.189 1706.16 984.183 1707.28 984.156C1707.57 984.148 1707.79 983.918 1707.78 983.625C1707.77 983.332 1707.54 983.085 1707.25 983.094Z" fill="#ff0000" stroke="none"/>
</g>
<g opacity="1">
<path d="M1725.44 983.75C1722.49 982.765 1722.02 989.346 1724.74 989.346C1727.91 989.346 1725.51 984.455 1723.11 987.248" fill="#393636" fill-opacity="0" fill-rule="nonzero" stroke="none"/>
<path d="M1724.72 983.156C1724.58 983.166 1724.45 983.18 1724.31 983.219C1723.79 983.37 1723.39 983.742 1723.09 984.188C1721.83 986.115 1722.39 990.775 1725.59 989.75C1727.23 989.229 1727.03 987.131 1725.84 986.25C1725.42 985.935 1724.91 985.876 1724.41 985.938C1724.4 985.946 1724.41 985.96 1724.41 985.969C1724.22 986.436 1723.94 986.835 1723.78 987.312C1723.75 987.408 1723.92 987.181 1724 987.125C1724.12 987.043 1724.27 986.976 1724.41 986.938C1725.15 986.735 1725.99 987.697 1725.69 988.406C1725.43 989.008 1724.41 988.902 1724.03 988.5C1723.74 988.196 1723.73 987.74 1723.66 987.312C1724.2 986.283 1724.58 985.53 1724.41 985.969C1724.2 985.995 1723.98 985.97 1723.78 986.062C1723.71 986.096 1723.63 986.117 1723.56 986.156C1723.62 985.579 1723.72 984.965 1724.09 984.531C1724.22 984.388 1724.39 984.349 1724.56 984.281C1724.78 983.914 1725.03 983.564 1725.16 983.156C1725.2 983.017 1724.86 983.146 1724.72 983.156ZM1724.56 984.281C1724.41 984.536 1724.31 984.813 1724.16 985.062C1723.99 985.324 1724.65 984.455 1724.88 984.156C1724.83 984.164 1724.81 984.154 1724.78 984.156C1724.69 984.163 1724.64 984.249 1724.56 984.281ZM1724.88 984.156C1724.93 984.146 1725.01 984.115 1725 984.156C1724.87 984.765 1725 984.172 1725.31 984.25C1725.58 984.316 1725.87 984.145 1725.94 983.875C1726 983.605 1725.83 983.316 1725.56 983.25C1724.86 984.147 1725.09 983.863 1724.88 984.156Z" fill="#ff0000" stroke="none"/>
</g>
<g opacity="1">
<path d="M1685.34 999.723C1686.67 999.575 1687.62 1000.14 1688.95 1000.07C1689.3 1000.05 1689.77 999.691 1690 999.956C1690.18 1000.16 1689.31 1002.14 1689.3 1002.17C1688.97 1003.21 1688.84 1004.35 1688.72 1005.44" fill="#393636" fill-opacity="0" fill-rule="nonzero" stroke="none"/>
<path d="M1685.66 999.188C1686.1 1000.29 1685.66 999.194 1685.31 999.219C1685.04 999.239 1684.82 999.473 1684.84 999.75C1684.86 1000.03 1685.1 1000.24 1685.38 1000.22C1686.78 1002.79 1687.19 1003.54 1686.78 1002.81C1686.32 1001.99 1685.97 1001.08 1685.69 1000.19C1685.66 1000.1 1685.85 1000.21 1685.94 1000.22C1686.31 1000.23 1686.67 1000.3 1687.03 1000.38C1687.56 1000.48 1688.73 1000.67 1689.41 1000.44C1689.4 1000.45 1689.41 1000.46 1689.41 1000.47C1689.36 1000.61 1689.3 1000.8 1689.25 1000.94C1688.97 1001.67 1688.66 1002.35 1688.5 1003.12C1688.46 1003.32 1688.44 1003.56 1688.41 1003.78C1688.71 1004.17 1688.96 1004.62 1689.31 1004.97C1689.44 1005.1 1689.35 1004.59 1689.38 1004.41C1689.4 1004.23 1689.44 1004.05 1689.47 1003.88C1689.53 1003.52 1689.57 1003.19 1689.66 1002.84C1689.83 1002.14 1690.9 1000.23 1690.38 999.594C1689.91 999.029 1689.44 999.553 1688.94 999.562C1688.35 999.573 1687.83 999.487 1687.25 999.375C1686.84 999.295 1686.42 999.205 1686 999.188C1685.88 999.183 1685.61 999.08 1685.66 999.188ZM1688.41 1003.78C1688.03 1003.31 1687.61 1002.85 1687.28 1002.34C1686.94 1001.8 1687.93 1003.4 1688.34 1004.06C1688.36 1003.97 1688.39 1003.88 1688.41 1003.78ZM1688.34 1004.06C1688.33 1004.13 1688.32 1004.21 1688.31 1004.28C1688.29 1004.47 1688.39 1004.94 1688.25 1004.81C1687.65 1004.24 1688.25 1004.83 1688.19 1005.38C1688.15 1005.67 1688.37 1005.94 1688.66 1005.97C1688.95 1006 1689.22 1005.79 1689.25 1005.5C1688.35 1004.07 1688.69 1004.62 1688.34 1004.06Z" fill="#ff0000" stroke="none"/>
</g>
<g opacity="1">
<path d="M1687.67 1002.87C1688.49 1002.87 1689.3 1002.87 1690.12 1002.87" fill="#393636" fill-opacity="0" fill-rule="nonzero" stroke="none"/>
<path d="M1690.12 1002.34C1689.31 1002.35 1688.47 1002.37 1687.66 1002.38C1687.38 1002.38 1687.16 1002.6 1687.16 1002.88C1687.16 1003.15 1687.38 1003.37 1687.66 1003.38C1688.47 1003.38 1689.31 1003.4 1690.12 1003.41C1690.42 1003.41 1690.66 1003.17 1690.66 1002.88C1690.66 1002.58 1690.42 1002.34 1690.12 1002.34Z" fill="#ff0000" stroke="none"/>
</g>
<g opacity="1">
<path d="M1707.08 999.956C1706.61 998.195 1703.77 999.759 1704.46 1001.47C1705.05 1002.95 1707.59 1002.35 1708.31 1003.69C1709.1 1005.17 1705.35 1007.14 1704.69 1004.62C1704.2 1002.76 1707.53 1001.64 1707.08 999.956Z" fill="#393636" fill-opacity="0" fill-rule="nonzero" stroke="none"/>
<path d="M1707.09 999.438C1706.8 999.423 1706.58 999.645 1706.56 999.938C1706.56 1000 1706.56 999.951 1706.56 1000C1703.97 1000.55 1703.69 999.293 1703.84 1001.09C1703.91 1001.86 1704.37 1002.28 1704.94 1002.59C1704.74 1002.83 1704.48 1003.03 1704.34 1003.31C1703.71 1004.63 1704.56 1006.27 1706.06 1006.34C1707.87 1006.43 1710.22 1004.24 1708.12 1002.75C1707.54 1002.33 1707.62 1002.16 1707.06 1001.03C1707.2 1000.71 1707.07 1001.03 1707.62 999.969C1707.63 999.917 1707.54 999.923 1707.53 999.875C1707.53 999.839 1707.57 999.817 1707.56 999.781C1707.52 999.796 1707.51 999.799 1707.47 999.812C1707.39 999.635 1707.3 999.448 1707.09 999.438ZM1705.88 1003C1705.99 1003.04 1706.1 1003.09 1706.22 1003.12C1706.52 1003.21 1707.24 1003.35 1707.53 1003.56C1707.69 1003.67 1707.79 1003.85 1707.91 1004C1708.1 1004.24 1707.52 1004.77 1707.38 1004.88C1706.62 1005.43 1705.47 1005.52 1705.19 1004.47C1705.03 1003.89 1705.46 1003.42 1705.88 1003Z" fill="#ff0000" stroke="none"/>
</g>
<g opacity="1">
<path d="M1726.26 999.723C1722.26 996.293 1722.71 1003.37 1725.09 1001.35C1725.74 1000.81 1725.57 999.256 1725.68 999.256C1725.86 999.256 1725.79 1002.42 1725.79 1002.64C1725.79 1004.92 1725.39 1006.65 1722.88 1005.09" fill="#393636" fill-opacity="0" fill-rule="nonzero" stroke="none"/>
<path d="M1724.72 998.281C1723.04 997.977 1722.41 999.999 1722.97 1001.28C1723.35 1002.16 1724.2 1002.19 1724.94 1001.84C1725.05 1001.64 1725.14 1001.42 1725.25 1001.22C1725.25 1001.28 1725.25 1001.34 1725.25 1001.41C1725.26 1001.38 1724.91 1001.97 1724.97 1001.84C1725.07 1001.8 1725.16 1001.76 1725.25 1001.69C1725.26 1002.51 1725.29 1003.34 1725.16 1004.12C1725.1 1004.45 1725.03 1005.06 1724.62 1005.16C1724.43 1005.2 1723.39 1004.94 1723.44 1004.81C1723.63 1004.32 1723.65 1004.31 1723.56 1004.41C1723.82 1003.88 1724.03 1003.34 1724.28 1002.81C1724.59 1002.16 1723.75 1003.6 1723.16 1004.62C1723.29 1004.71 1723.44 1004.51 1723.53 1004.41C1723.32 1004.84 1723.09 1005.26 1722.94 1005.72C1722.92 1005.77 1723.73 1006.1 1723.81 1006.12C1724.4 1006.3 1725.07 1006.26 1725.53 1005.81C1726.6 1004.79 1726.32 1002.24 1726.31 1000.88C1726.31 1000.62 1726.32 1000.34 1726.31 1000.06C1726.43 1000.05 1726.57 1000.13 1726.66 1000.03C1726.83 999.817 1726.81 999.52 1726.59 999.344C1726.31 999.783 1726.53 999.437 1726.31 999.781C1726.3 999.644 1726.22 999.535 1726.19 999.406C1726.23 999.312 1726.27 999.221 1726.31 999.125C1726.32 999.113 1726.18 999.004 1726.03 998.906C1726.02 998.887 1726.02 998.862 1726 998.844C1725.98 998.814 1725.93 998.831 1725.91 998.812C1725.89 998.804 1725.85 998.782 1725.84 998.781C1725.5 998.563 1725.12 998.354 1724.72 998.281ZM1723.16 1004.62C1722.9 1004.48 1722.59 1004.56 1722.44 1004.81C1722.29 1005.06 1722.34 1005.38 1722.59 1005.53C1723.15 1004.63 1722.86 1005.14 1723.16 1004.62ZM1724.22 999.281C1724.49 999.181 1724.8 999.417 1725.09 999.594C1725.06 999.991 1725.09 1000.41 1724.91 1000.78C1724.68 1001.25 1724.12 1001.38 1723.91 1000.88C1723.83 1000.69 1723.79 1000.45 1723.78 1000.25C1723.77 999.88 1723.83 999.426 1724.22 999.281ZM1726.09 1000.09C1725.99 1000.26 1726.02 1000.24 1725.94 1000.38C1725.95 1000.28 1725.99 1000.22 1726 1000.12C1726.03 1000.14 1726.06 1000.08 1726.09 1000.09Z" fill="#ff0000" stroke="none"/>
</g>
<g opacity="1">
<path d="M1705.21 1013.55C1704.21 1014.73 1704.12 1020.19 1707.19 1019.54C1707.56 1019.47 1707.92 1019.27 1708.18 1018.99C1709.82 1017.23 1707.78 1010.54 1705.21 1013.55Z" fill="#393636" fill-opacity="0" fill-rule="nonzero" stroke="none"/>
<path d="M1705.5 1013.16C1705.29 1013.01 1705.05 1013.07 1704.88 1013.25C1704.86 1013.23 1704.86 1013.21 1704.84 1013.19C1704.83 1013.21 1704.86 1013.23 1704.84 1013.25C1704.84 1013.26 1704.82 1013.24 1704.81 1013.25C1704.85 1019.1 1703.75 1017.54 1704.84 1019.09C1705.79 1020.44 1707.91 1020.45 1708.81 1019.03C1709.4 1018.11 1709.16 1018.15 1708.12 1017.19C1708.1 1017.73 1708.11 1018.31 1707.81 1018.62C1707.16 1019.31 1707.51 1018.39 1705.88 1014.53C1705.71 1014.32 1705.58 1014.15 1705.41 1013.91C1705.47 1013.88 1705.54 1013.96 1705.59 1013.91C1705.63 1013.92 1705.62 1013.89 1705.66 1013.91C1705.64 1013.87 1705.64 1013.88 1705.62 1013.84C1705.79 1013.62 1705.73 1013.32 1705.5 1013.16ZM1705.66 1013.91C1705.81 1014.24 1705.75 1014.24 1705.88 1014.53C1706.87 1015.83 1707.61 1016.71 1708.12 1017.19C1708.16 1016.26 1708.03 1015.29 1707.78 1014.69C1707.28 1013.48 1707.71 1014.59 1705.66 1013.91Z" fill="#ff0000" stroke="none"/>
</g>
<g opacity="1">
<path d="M1721.05 1016.13C1722.44 1016.91 1723.62 1016.36 1725.12 1016.02C1725.13 1016.02 1727.04 1015.35 1727.1 1015.47C1727.42 1016.12 1725.84 1016.84 1726.22 1017.45C1726.78 1018.36 1728.69 1017.71 1728.97 1016.9C1729.65 1014.98 1727.52 1012.78 1726.66 1015.36" fill="#393636" fill-opacity="0" fill-rule="nonzero" stroke="none"/>
<path d="M1728.06 1013.69C1727.49 1013.55 1726.97 1013.83 1726.62 1014.28C1726.49 1014.45 1726.48 1014.75 1726.28 1014.84C1725.45 1015.22 1726.1 1014.96 1726.12 1015.16C1726.07 1015.18 1725.98 1015.2 1725.94 1015.22C1725.49 1015.36 1725.04 1015.47 1724.59 1015.59C1725.15 1015.54 1725.7 1015.47 1726.25 1015.41C1726.26 1015.48 1726.3 1015.53 1726.34 1015.59C1725.18 1015.63 1724.1 1015.66 1724.47 1015.62C1724.15 1015.72 1723.83 1015.81 1723.5 1015.88C1723.51 1015.87 1723.46 1015.88 1723.47 1015.88C1722.71 1016.16 1721.9 1016.4 1721.19 1016.78C1721.06 1016.85 1721.46 1016.87 1721.59 1016.91C1721.72 1016.94 1721.84 1016.98 1721.97 1017C1722.34 1017.06 1722.72 1017.05 1723.09 1017C1724.13 1016.87 1725.19 1016.52 1726.22 1016.19C1726.01 1016.42 1725.71 1016.72 1725.66 1017.03C1725.52 1017.9 1726.36 1018.38 1727.09 1018.41C1727.88 1018.43 1728.86 1018.07 1729.31 1017.41C1730.09 1016.26 1729.48 1014.02 1728.06 1013.69ZM1724.47 1015.62C1724.51 1015.61 1724.55 1015.61 1724.59 1015.59C1724.47 1015.61 1724.34 1015.61 1724.22 1015.62C1724.14 1015.63 1724.52 1015.62 1724.47 1015.62ZM1727.84 1014.75C1727.98 1014.78 1728.1 1014.88 1728.22 1015.03C1728.54 1015.45 1728.8 1016.47 1728.34 1016.91C1728.03 1017.2 1727.55 1017.38 1727.12 1017.38C1727.11 1017.37 1726.66 1017.3 1726.69 1017.25C1726.99 1016.65 1727.9 1016.16 1727.59 1015.38C1727.54 1015.23 1727.38 1015.28 1727.28 1015.22C1727.35 1015.15 1727.4 1015.03 1727.47 1014.94C1727.6 1014.77 1727.71 1014.72 1727.84 1014.75ZM1721.28 1015.69C1721.03 1015.57 1720.72 1015.66 1720.59 1015.91C1720.47 1016.16 1720.59 1016.47 1720.84 1016.59C1723.29 1015.95 1723.85 1015.72 1723.28 1015.94C1722.91 1016.01 1722.54 1016.06 1722.16 1016C1722.06 1015.99 1721.97 1015.96 1721.88 1015.94C1721.78 1015.91 1721.5 1015.86 1721.59 1015.84C1722.46 1015.73 1721.6 1015.84 1721.28 1015.69Z" fill="#ff0000" stroke="none"/>
</g>
<g opacity="1">
<path d="M1720.72 1016.57C1720.79 1017.23 1720.87 1017.89 1720.94 1018.55" fill="#393636" fill-opacity="0" fill-rule="nonzero" stroke="none"/>
<path d="M1720.66 1016.06C1720.38 1016.09 1720.19 1016.35 1720.22 1016.62C1720.28 1017.28 1720.27 1017.2 1720.28 1017.28C1720.27 1017.17 1720.3 1017.51 1720.31 1017.62C1720.32 1017.73 1720.33 1017.83 1720.34 1017.94C1720.35 1018.05 1720.34 1017.96 1720.41 1018.62C1720.44 1018.92 1720.71 1019.13 1721 1019.09C1721.29 1019.06 1721.5 1018.79 1721.47 1018.5C1721.39 1017.85 1721.38 1017.92 1721.38 1017.84C1721.39 1017.95 1721.36 1017.61 1721.34 1017.5C1721.33 1017.4 1721.33 1017.29 1721.31 1017.19C1721.3 1017.08 1721.3 1017.19 1721.22 1016.53C1721.19 1016.26 1720.93 1016.03 1720.66 1016.06Z" fill="#ff0000" stroke="none"/>
</g>
<g opacity="1">
<path d="M1722.15 1016.9C1722.15 1017.23 1722.15 1017.56 1722.15 1017.89" fill="#393636" fill-opacity="0" fill-rule="nonzero" stroke="none"/>
<path d="M1722.16 1016.41C1721.88 1016.41 1721.66 1016.63 1721.66 1016.91C1721.65 1017.24 1721.63 1017.58 1721.62 1017.91C1721.62 1018.2 1721.86 1018.44 1722.16 1018.44C1722.45 1018.44 1722.69 1018.2 1722.69 1017.91C1722.68 1017.58 1722.67 1017.24 1722.66 1016.91C1722.66 1016.63 1722.43 1016.41 1722.16 1016.41Z" fill="#ff0000" stroke="none"/>
</g>
<path d="M951.962 362.225" fill="none" opacity="1" stroke="#ba8234" stroke-linecap="butt" stroke-linejoin="round" stroke-width="10"/>
<path d="M1045.64 362.225" fill="none" opacity="1" stroke="#ba8234" stroke-linecap="butt" stroke-linejoin="round" stroke-width="10"/>
<path d="M67.6888 467.259" fill="none" opacity="1" stroke="#ba8234" stroke-linecap="butt" stroke-linejoin="round" stroke-width="10"/>
</g>
</svg>
