<?xml version="1.0" encoding="UTF-8" standalone="no"?>
<!DOCTYPE svg PUBLIC "-//W3C//DTD SVG 1.1//EN" "http://www.w3.org/Graphics/SVG/1.1/DTD/svg11.dtd">
<!-- Created with Vectornator (http://vectornator.io/) -->
<svg height="100%" stroke-miterlimit="10" style="fill-rule:nonzero;clip-rule:evenodd;stroke-linecap:round;stroke-linejoin:round;" version="1.1" viewBox="0 0 1920 1080" width="100%" xml:space="preserve" xmlns="http://www.w3.org/2000/svg" xmlns:vectornator="http://vectornator.io" xmlns:xlink="http://www.w3.org/1999/xlink">
<defs/>
<clipPath id="ArtboardFrame">
<rect height="1080" width="1920" x="0" y="0"/>
</clipPath>
<g clip-path="url(#ArtboardFrame)" id="Ebene-1" vectornator:layerName="Ebene 1">
<path d="M-63.9375-11.625L-63.9375 1121.19L1965.44 1121.19L1965.44-11.625L-63.9375-11.625ZM1132.66 340.5C1142.28 340.751 1151.95 343.762 1160.38 349.781C1163.9 352.3 1166.84 355.295 1169.5 358.469C1173.3 355.741 1177.46 353.345 1182.03 351.344C1209.55 339.304 1237.94 343.583 1258.62 361.875C1274.02 356.15 1291.84 357.96 1306.19 368.281C1311.34 371.988 1315.1 375.953 1318.25 380.281C1319.53 382.043 1320.49 383.808 1321.5 385.562C1324.09 384.805 1326.82 384.155 1329.88 383.719C1345.19 381.531 1358.72 386.056 1369.28 394.094C1370.74 395.204 1371.85 396.425 1373.12 397.594C1374.48 396.628 1376.09 395.636 1379.56 393.594C1387.49 389.96 1387.51 389.977 1399.03 388.156C1411.99 388.367 1411.96 388.355 1424.25 393C1434.54 399.151 1434.56 399.139 1440.75 405.781C1445.29 411.843 1445.28 411.845 1447.69 416.594C1449.47 420.709 1449.46 420.712 1450.44 423.812C1451.71 428.851 1451.71 428.862 1452.12 431.938C1452.38 434.443 1452.39 434.443 1452.47 436.156C1452.47 440.723 1452.47 440.713 1452.31 442.438C1452.18 443.745 1452.19 443.743 1452.09 444.5C1452.01 445.139 1451.93 445.685 1451.84 446.219C1451.77 446.687 1450.81 451.83 1450.66 452.688C1450.53 453.89 1450.28 457.158 1450.28 457.188C1449.92 461.974 1449.71 464.319 1449.28 467.656C1449.15 468.684 1448.12 478.148 1447.69 481.719C1447.42 483.897 1447.1 485.893 1446.81 487.969C1451.68 492.984 1451.7 492.977 1454.25 496.594C1457.63 502.187 1457.62 502.186 1458.94 505.25C1459.94 507.634 1460.58 509.538 1461.12 511.5C1461.54 513.011 1461.8 514.217 1462.06 515.531C1466.05 535.495 1466.94 556.517 1465.41 579.562C1464.28 596.436 1462.12 612.371 1458.34 635.031C1458.36 634.929 1458.29 635.43 1458.25 635.75C1458.15 636.488 1457.54 641.836 1456.81 648.188C1455.49 659.786 1454.64 666.871 1453.59 674.844C1452.35 684.348 1451.1 692.218 1449.81 699.375C1452.26 699.389 1454.77 699.495 1457.59 699.906C1461.43 700.466 1465.3 701.413 1469.41 703.031C1475.8 705.554 1481.94 709.392 1487.38 714.969C1500.7 728.644 1504.35 746.866 1500.28 763.125C1495.19 783.495 1480.87 796.785 1463.66 802.906C1463.56 802.94 1463.47 802.966 1463.38 803C1461.19 809.54 1457.48 814.31 1452.16 820.031C1450.48 821.828 1448.99 823.191 1447.41 824.531C1445.89 825.82 1444.38 826.98 1442.72 828.188C1440.37 829.893 1437.59 831.799 1434.78 833.594C1431.63 835.604 1428.51 837.442 1425.59 839C1423.32 840.214 1421.13 841.293 1418.72 842.281C1416.61 843.146 1414.45 843.923 1411.97 844.594C1406.62 846.039 1401.2 846.8 1394.22 846.219C1385.12 845.46 1377.29 842.519 1370.47 838.312C1368.37 837.973 1366.5 837.849 1364.44 837.562C1359.24 838.04 1354.03 838.479 1346.56 838.906C1342.66 839.13 1341.5 839.197 1339.66 839.312C1328.95 839.981 1317.87 840.303 1306.03 840.469C1297.8 843.71 1288.75 845.062 1278.19 845.062C1266.07 845.063 1254.68 843.28 1241.81 840.062C1233.92 839.955 1225.56 839.827 1219.69 839.812C1218.52 839.921 1217.37 840.082 1216.16 840.125C1215.84 840.136 1215.4 840.144 1214.91 840.156C1214.52 840.209 1214.12 840.265 1214 840.281C1212.21 840.519 1210.68 840.685 1209 840.844C1203.85 841.331 1199.11 841.439 1193.72 840.844C1191.05 840.549 1188.39 840.06 1185.69 839.375C1177.07 839.125 1169.03 838.74 1161.09 838.188C1157.89 838.848 1154.27 839.674 1151.53 840.188C1148.03 840.843 1145.03 841.331 1142.53 841.688C1140.57 841.968 1138.8 842.181 1136.88 842.312C1131.91 842.652 1128.48 842.772 1125.09 842.844C1116.44 844.708 1107.46 844.329 1099 841.594C1090.24 838.761 1083.87 834.339 1078.59 829.062C1073.4 823.868 1069.1 817.826 1066 810.844C1059.8 796.88 1059.67 781.805 1064.53 768.219C1055.99 739.422 1052.93 706.903 1054.69 673.594C1056.86 632.276 1056.87 589.488 1054.69 548C1054.5 544.48 1054.16 541.286 1053.28 533.406C1052.42 525.719 1052.07 522.043 1051.72 517.219C1050.89 505.807 1050.98 495.614 1052.41 485.188C1053.49 477.263 1055.57 469.94 1058.53 462.719C1060.4 458.158 1061.93 455.057 1064.97 449.25C1065.14 448.92 1065.15 448.941 1065.31 448.625C1066.53 446.297 1066.92 445.468 1067.25 444.719C1067.72 441.16 1068 438.336 1068.47 430.688C1069.2 418.652 1069.85 412.344 1071.69 403.781C1074.91 388.782 1080.96 374.941 1090.62 361.406C1100.66 347.362 1116.61 340.081 1132.66 340.5Z" fill="#e3d1b7" fill-rule="nonzero" opacity="1" stroke="#ba8234" stroke-linecap="butt" stroke-linejoin="round" stroke-width="10"/>
<path d="M272.645-52.9151L272.645 166.906L1629.49 166.906L1629.49-52.9151L272.645-52.9151Z" fill="#e1d8cb" fill-rule="nonzero" opacity="1" stroke="#e1d8cb" stroke-linecap="butt" stroke-linejoin="round" stroke-width="10"/>
<path d="M-63.3379 1139.64L272.637 849.456" fill="none" opacity="1" stroke="#ba8234" stroke-linecap="butt" stroke-linejoin="round" stroke-width="10"/>
<path d="M1624.81 849.456L1954.12 1121.18" fill="none" opacity="1" stroke="#ba8234" stroke-linecap="butt" stroke-linejoin="round" stroke-width="10"/>
<path d="M1624.81 166.897L1965.43-11.6342" fill="none" opacity="1" stroke="#ba8234" stroke-linecap="butt" stroke-linejoin="round" stroke-width="10"/>
<g fill="#e3d1b7" opacity="1" stroke="none">
<path d="M242.228 385.283L242.228 387.334L236.428 387.334L236.428 402.498L234.06 402.498L234.06 387.334L228.26 387.334L228.26 385.283L242.228 385.283Z"/>
<path d="M246.646 389.666C247.537 389.666 248.4 389.875 249.236 390.293C250.072 390.711 250.709 391.252 251.146 391.916C251.568 392.549 251.85 393.287 251.99 394.131C252.115 394.709 252.178 395.631 252.178 396.896L242.978 396.896C243.018 398.17 243.318 399.191 243.881 399.961C244.443 400.73 245.314 401.115 246.494 401.115C247.596 401.115 248.475 400.752 249.131 400.025C249.506 399.603 249.771 399.115 249.928 398.56L252.002 398.56C251.947 399.021 251.766 399.535 251.457 400.101C251.148 400.668 250.803 401.131 250.42 401.49C249.779 402.115 248.986 402.537 248.041 402.756C247.533 402.881 246.959 402.943 246.318 402.943C244.756 402.943 243.432 402.375 242.346 401.238C241.26 400.101 240.717 398.51 240.717 396.463C240.717 394.447 241.264 392.81 242.357 391.553C243.451 390.295 244.881 389.666 246.646 389.666ZM250.01 395.221C249.924 394.307 249.725 393.576 249.412 393.029C248.834 392.014 247.869 391.506 246.518 391.506C245.549 391.506 244.736 391.855 244.08 392.555C243.424 393.254 243.076 394.143 243.037 395.221L250.01 395.221Z"/>
<path d="M253.572 389.947L256.303 389.947L259.185 394.365L262.103 389.947L264.67 390.006L260.439 396.064L264.857 402.498L262.162 402.498L259.045 397.787L256.021 402.498L253.35 402.498L257.768 396.064L253.572 389.947Z"/>
<path d="M267.189 386.443L269.322 386.443L269.322 389.947L271.326 389.947L271.326 391.67L269.322 391.67L269.322 399.861C269.322 400.299 269.471 400.592 269.768 400.74C269.932 400.826 270.205 400.869 270.588 400.869C270.689 400.869 270.799 400.867 270.916 400.863C271.033 400.859 271.17 400.85 271.326 400.834L271.326 402.498C271.084 402.568 270.832 402.619 270.57 402.65C270.309 402.682 270.025 402.697 269.721 402.697C268.736 402.697 268.068 402.445 267.717 401.941C267.365 401.437 267.189 400.783 267.189 399.978L267.189 391.67L265.49 391.67L265.49 389.947L267.189 389.947L267.189 386.443Z"/>
</g>
<path d="M272.625 166.906L272.625 849.469L1624.81 849.469L1624.81 166.906L272.625 166.906ZM1132.66 340.5C1142.28 340.751 1151.95 343.762 1160.38 349.781C1163.9 352.3 1166.84 355.295 1169.5 358.469C1173.3 355.741 1177.46 353.345 1182.03 351.344C1209.55 339.304 1237.94 343.583 1258.62 361.875C1274.02 356.15 1291.84 357.96 1306.19 368.281C1311.34 371.988 1315.1 375.953 1318.25 380.281C1319.53 382.043 1320.49 383.808 1321.5 385.562C1324.09 384.805 1326.82 384.155 1329.88 383.719C1345.19 381.531 1358.72 386.056 1369.28 394.094C1370.74 395.204 1371.85 396.425 1373.12 397.594C1374.48 396.628 1376.09 395.636 1379.56 393.594C1387.49 389.96 1387.51 389.977 1399.03 388.156C1411.99 388.367 1411.96 388.355 1424.25 393C1434.54 399.151 1434.56 399.139 1440.75 405.781C1445.29 411.843 1445.28 411.845 1447.69 416.594C1449.47 420.709 1449.46 420.712 1450.44 423.812C1451.71 428.851 1451.71 428.862 1452.12 431.938C1452.38 434.443 1452.39 434.443 1452.47 436.156C1452.47 440.723 1452.47 440.713 1452.31 442.438C1452.18 443.745 1452.19 443.743 1452.09 444.5C1452.01 445.139 1451.93 445.685 1451.84 446.219C1451.77 446.687 1450.81 451.83 1450.66 452.688C1450.53 453.89 1450.28 457.158 1450.28 457.188C1449.92 461.974 1449.71 464.319 1449.28 467.656C1449.15 468.684 1448.12 478.148 1447.69 481.719C1447.42 483.897 1447.1 485.893 1446.81 487.969C1451.68 492.984 1451.7 492.977 1454.25 496.594C1457.63 502.187 1457.62 502.186 1458.94 505.25C1459.94 507.634 1460.58 509.538 1461.12 511.5C1461.54 513.011 1461.8 514.217 1462.06 515.531C1466.05 535.495 1466.94 556.517 1465.41 579.562C1464.28 596.436 1462.12 612.371 1458.34 635.031C1458.36 634.929 1458.29 635.43 1458.25 635.75C1458.15 636.488 1457.54 641.836 1456.81 648.188C1455.49 659.786 1454.64 666.871 1453.59 674.844C1452.35 684.348 1451.1 692.218 1449.81 699.375C1452.26 699.389 1454.77 699.495 1457.59 699.906C1461.43 700.466 1465.3 701.413 1469.41 703.031C1475.8 705.554 1481.94 709.392 1487.38 714.969C1500.7 728.644 1504.35 746.866 1500.28 763.125C1495.19 783.495 1480.87 796.785 1463.66 802.906C1463.56 802.94 1463.47 802.966 1463.38 803C1461.19 809.54 1457.48 814.31 1452.16 820.031C1450.48 821.828 1448.99 823.191 1447.41 824.531C1445.89 825.82 1444.38 826.98 1442.72 828.188C1440.37 829.893 1437.59 831.799 1434.78 833.594C1431.63 835.604 1428.51 837.442 1425.59 839C1423.32 840.214 1421.13 841.293 1418.72 842.281C1416.61 843.146 1414.45 843.923 1411.97 844.594C1406.62 846.039 1401.2 846.8 1394.22 846.219C1385.12 845.46 1377.29 842.519 1370.47 838.312C1368.37 837.973 1366.5 837.849 1364.44 837.562C1359.24 838.04 1354.03 838.479 1346.56 838.906C1342.66 839.13 1341.5 839.197 1339.66 839.312C1328.95 839.981 1317.87 840.303 1306.03 840.469C1297.8 843.71 1288.75 845.062 1278.19 845.062C1266.07 845.063 1254.68 843.28 1241.81 840.062C1233.92 839.955 1225.56 839.827 1219.69 839.812C1218.52 839.921 1217.37 840.082 1216.16 840.125C1215.84 840.136 1215.4 840.144 1214.91 840.156C1214.52 840.209 1214.12 840.265 1214 840.281C1212.21 840.519 1210.68 840.685 1209 840.844C1203.85 841.331 1199.11 841.439 1193.72 840.844C1191.05 840.549 1188.39 840.06 1185.69 839.375C1177.07 839.125 1169.03 838.74 1161.09 838.188C1157.89 838.848 1154.27 839.674 1151.53 840.188C1148.03 840.843 1145.03 841.331 1142.53 841.688C1140.57 841.968 1138.8 842.181 1136.88 842.312C1131.91 842.652 1128.48 842.772 1125.09 842.844C1116.44 844.708 1107.46 844.329 1099 841.594C1090.24 838.761 1083.87 834.339 1078.59 829.062C1073.4 823.868 1069.1 817.826 1066 810.844C1059.8 796.88 1059.67 781.805 1064.53 768.219C1055.99 739.422 1052.93 706.903 1054.69 673.594C1056.86 632.276 1056.87 589.488 1054.69 548C1054.5 544.48 1054.16 541.286 1053.28 533.406C1052.42 525.719 1052.07 522.043 1051.72 517.219C1050.89 505.807 1050.98 495.614 1052.41 485.188C1053.49 477.263 1055.57 469.94 1058.53 462.719C1060.4 458.158 1061.93 455.057 1064.97 449.25C1065.14 448.92 1065.15 448.941 1065.31 448.625C1066.53 446.297 1066.92 445.468 1067.25 444.719C1067.72 441.16 1068 438.336 1068.47 430.688C1069.2 418.652 1069.85 412.344 1071.69 403.781C1074.91 388.782 1080.96 374.941 1090.62 361.406C1100.66 347.362 1116.61 340.081 1132.66 340.5Z" fill="#e3d1b7" fill-rule="nonzero" opacity="1" stroke="#ba8234" stroke-linecap="butt" stroke-linejoin="round" stroke-width="10"/>
<path d="M272.625 168.188L272.625 850.75L1624.81 850.75L1624.81 168.188L490.969 168.188L272.625 168.188ZM1132.66 340.5C1142.28 340.751 1151.95 343.762 1160.38 349.781C1163.9 352.3 1166.84 355.295 1169.5 358.469C1173.3 355.741 1177.46 353.345 1182.03 351.344C1209.55 339.304 1237.94 343.583 1258.62 361.875C1274.02 356.15 1291.84 357.96 1306.19 368.281C1311.34 371.988 1315.1 375.953 1318.25 380.281C1319.53 382.043 1320.49 383.808 1321.5 385.562C1324.09 384.805 1326.82 384.155 1329.88 383.719C1345.19 381.531 1358.72 386.056 1369.28 394.094C1370.74 395.204 1371.85 396.425 1373.12 397.594C1374.48 396.628 1376.09 395.636 1379.56 393.594C1387.49 389.96 1387.51 389.977 1399.03 388.156C1411.99 388.367 1411.96 388.355 1424.25 393C1434.54 399.151 1434.56 399.139 1440.75 405.781C1445.29 411.843 1445.28 411.845 1447.69 416.594C1449.47 420.709 1449.46 420.712 1450.44 423.812C1451.71 428.851 1451.71 428.862 1452.12 431.938C1452.38 434.443 1452.39 434.443 1452.47 436.156C1452.47 440.723 1452.47 440.713 1452.31 442.438C1452.18 443.745 1452.19 443.743 1452.09 444.5C1452.01 445.139 1451.93 445.685 1451.84 446.219C1451.77 446.687 1450.81 451.83 1450.66 452.688C1450.53 453.89 1450.28 457.158 1450.28 457.188C1449.92 461.974 1449.71 464.319 1449.28 467.656C1449.15 468.684 1448.12 478.148 1447.69 481.719C1447.42 483.897 1447.1 485.893 1446.81 487.969C1451.68 492.984 1451.7 492.977 1454.25 496.594C1457.63 502.187 1457.62 502.186 1458.94 505.25C1459.94 507.634 1460.58 509.538 1461.12 511.5C1461.54 513.011 1461.8 514.217 1462.06 515.531C1466.05 535.495 1466.94 556.517 1465.41 579.562C1464.28 596.436 1462.12 612.371 1458.34 635.031C1458.36 634.929 1458.29 635.43 1458.25 635.75C1458.15 636.488 1457.54 641.836 1456.81 648.188C1455.49 659.786 1454.64 666.871 1453.59 674.844C1452.35 684.348 1451.1 692.218 1449.81 699.375C1452.26 699.389 1454.77 699.495 1457.59 699.906C1461.43 700.466 1465.3 701.413 1469.41 703.031C1475.8 705.554 1481.94 709.392 1487.38 714.969C1500.7 728.644 1504.35 746.866 1500.28 763.125C1495.19 783.495 1480.87 796.785 1463.66 802.906C1463.56 802.94 1463.47 802.966 1463.38 803C1461.19 809.54 1457.48 814.31 1452.16 820.031C1450.48 821.828 1448.99 823.191 1447.41 824.531C1445.89 825.82 1444.38 826.98 1442.72 828.188C1440.37 829.893 1437.59 831.799 1434.78 833.594C1431.63 835.604 1428.51 837.442 1425.59 839C1423.32 840.214 1421.13 841.293 1418.72 842.281C1416.61 843.146 1414.45 843.923 1411.97 844.594C1406.62 846.039 1401.2 846.8 1394.22 846.219C1385.12 845.46 1377.29 842.519 1370.47 838.312C1368.37 837.973 1366.5 837.849 1364.44 837.562C1359.24 838.04 1354.03 838.479 1346.56 838.906C1342.66 839.13 1341.5 839.197 1339.66 839.312C1328.95 839.981 1317.87 840.303 1306.03 840.469C1297.8 843.71 1288.75 845.062 1278.19 845.062C1266.07 845.063 1254.68 843.28 1241.81 840.062C1233.92 839.955 1225.56 839.827 1219.69 839.812C1218.52 839.921 1217.37 840.082 1216.16 840.125C1215.84 840.136 1215.4 840.144 1214.91 840.156C1214.52 840.209 1214.12 840.265 1214 840.281C1212.21 840.519 1210.68 840.685 1209 840.844C1203.85 841.331 1199.11 841.439 1193.72 840.844C1191.05 840.549 1188.39 840.06 1185.69 839.375C1177.07 839.125 1169.03 838.74 1161.09 838.188C1157.89 838.848 1154.27 839.674 1151.53 840.188C1148.03 840.843 1145.03 841.331 1142.53 841.688C1140.57 841.968 1138.8 842.181 1136.88 842.312C1131.91 842.652 1128.48 842.772 1125.09 842.844C1116.44 844.708 1107.46 844.329 1099 841.594C1090.24 838.761 1083.87 834.339 1078.59 829.062C1073.4 823.868 1069.1 817.826 1066 810.844C1059.8 796.88 1059.67 781.805 1064.53 768.219C1055.99 739.422 1052.93 706.903 1054.69 673.594C1056.86 632.276 1056.87 589.488 1054.69 548C1054.5 544.48 1054.16 541.286 1053.28 533.406C1052.42 525.719 1052.07 522.043 1051.72 517.219C1050.89 505.807 1050.98 495.614 1052.41 485.188C1053.49 477.263 1055.57 469.94 1058.53 462.719C1060.4 458.158 1061.93 455.057 1064.97 449.25C1065.14 448.92 1065.15 448.941 1065.31 448.625C1066.53 446.297 1066.92 445.468 1067.25 444.719C1067.72 441.16 1068 438.336 1068.47 430.688C1069.2 418.652 1069.85 412.344 1071.69 403.781C1074.91 388.782 1080.96 374.941 1090.62 361.406C1100.66 347.362 1116.61 340.081 1132.66 340.5Z" fill="#e3d1b7" fill-rule="nonzero" opacity="1" stroke="#ba8234" stroke-linecap="butt" stroke-linejoin="round" stroke-width="10"/>
<path d="M1932.5-120.198L1932.5-119.253" fill="none" opacity="1" stroke="#ffffff" stroke-linecap="butt" stroke-linejoin="round" stroke-width="10"/>
<path d="M1364.44 837.562C1359.24 838.04 1354.03 838.479 1346.56 838.906C1342.66 839.13 1341.5 839.197 1339.66 839.312C1328.95 839.981 1317.87 840.303 1306.03 840.469C1297.8 843.71 1288.75 845.062 1278.19 845.062C1266.07 845.063 1254.68 843.28 1241.81 840.062C1233.92 839.955 1225.56 839.827 1219.69 839.812C1218.52 839.921 1217.37 840.082 1216.16 840.125C1215.84 840.136 1215.4 840.144 1214.91 840.156C1214.52 840.209 1214.12 840.265 1214 840.281C1212.21 840.519 1210.68 840.685 1209 840.844C1203.85 841.331 1199.11 841.439 1193.72 840.844C1191.05 840.549 1188.39 840.06 1185.69 839.375C1177.07 839.125 1169.03 838.74 1161.09 838.188C1157.89 838.848 1154.27 839.674 1151.53 840.188C1148.03 840.843 1145.03 841.331 1142.53 841.688C1140.57 841.968 1138.8 842.181 1136.88 842.312C1131.91 842.652 1128.48 842.772 1125.09 842.844C1119.18 844.117 1113.13 844.262 1107.19 843.406L1107.19 849.469L1421.09 849.469L1421.09 841.156C1420.3 841.521 1419.55 841.94 1418.72 842.281C1416.61 843.146 1414.45 843.923 1411.97 844.594C1406.62 846.039 1401.2 846.8 1394.22 846.219C1385.12 845.46 1377.29 842.519 1370.47 838.312C1368.37 837.973 1366.5 837.849 1364.44 837.562Z" fill="#757a7e" fill-rule="nonzero" opacity="1" stroke="#393636" stroke-linecap="butt" stroke-linejoin="round" stroke-width="10"/>
<path d="M272.637 849.456L1624.81 849.456L1624.81 1104.28L272.637 1104.28L272.637 849.456Z" fill="#a5a4a2" fill-rule="nonzero" opacity="1" stroke="#d3d9e0" stroke-linecap="butt" stroke-linejoin="round" stroke-opacity="0.241572" stroke-width="7.81201"/>
<path d="M1620.63 849.812L1403.16 1007.86L1585.65 1160.63C1587.42 1160.72 1589.37 1160.89 1591.11 1160.97C1604.6 1160.34 1619.48 1159.44 1638.35 1158.06C1640.72 1157.89 1642.55 1157.74 1646.95 1157.42C1681.34 1154.88 1696.93 1153.88 1716.79 1153.18C1733.72 1152.58 1748.83 1152.53 1767.01 1153.02C1775.12 1151.57 1784.15 1149.89 1795.16 1147.77C1800.66 1146.72 1803 1146.28 1806.03 1145.71C1829.17 1141.31 1844.98 1138.64 1861.48 1136.61C1872.77 1135.22 1884.48 1134.54 1897.22 1134.42C1901.47 1134.38 1905.84 1134.4 1910.33 1134.48C1920.44 1134.66 1929.83 1135.07 1944.61 1135.88L1954.09 1128.99L1620.63 849.812Z" fill="#a5a4a2" fill-rule="nonzero" opacity="1" stroke="#a5a4a2" stroke-linecap="butt" stroke-linejoin="round" stroke-width="7.81201"/>
<path d="M280.654 849.812L-63.9321 1149.56L-40.8567 1165.69C-38.2571 1165.28-35.9484 1164.97-33.1047 1164.47C-29.7803 1163.88-27.4671 1163.48-20.7172 1162.24C-2.79733 1158.95 6.0031 1157.46 17.244 1156.07C27.6738 1154.79 38.0044 1154.36 48.8697 1154.66C59.7351 1154.96 71.1336 1156 83.7404 1157.66C90.309 1158.52 95.5956 1159.3 106.61 1161.01C127.999 1164.33 136.808 1165.49 146.915 1166.01C158.805 1166.63 168.958 1166.41 192.602 1165.33C195.732 1165.19 197.107 1165.13 198.86 1165.05C211.576 1164.49 220.403 1164.23 229.61 1164.23C252.106 1164.23 275.2 1165.49 298.605 1167.92C299.137 1167.98 300.333 1168.06 301.026 1168.12L494.797 999.587L280.654 849.812Z" fill="#a5a4a2" fill-rule="nonzero" opacity="1" stroke="#a5a4a2" stroke-linecap="butt" stroke-linejoin="round" stroke-width="7.81201"/>
<path d="M165.638-104.481C160.573-101.844 155.573-99.3172 150.494-96.8472C125.194-84.5425 101.098-75.1677 76.4778-68.5836C63.1325-65.0147 48.2422-62.9553 35.1944-63.3407C24.6647-63.6517 14.8756-65.4069 5.62903-69.809C5.09828-70.0617 4.6508-70.3864 4.1353-70.6527C-6.30882-65.867-16.4125-61.379-27.0526-56.9528C-41.367-50.9981-56.8317-46.3964-74.5427-42.4494C-74.9949-42.3486-75.1534-42.3086-77.6846-41.6659C-79.7282-41.1472-81.224-40.8011-82.8612-40.4406L270.765 158.65L394.847 24.5636L165.638-104.481Z" fill="#e1d8cb" fill-rule="nonzero" opacity="1" stroke="#e1d8cb" stroke-linecap="butt" stroke-linejoin="round" stroke-width="10"/>
<path d="M1874.44-137.204L1874.92-137.204L1874.92-137.204L1874.44-137.204L1874.44-137.204Z" fill="#e3d1b7" fill-rule="nonzero" opacity="1" stroke="#ba8234" stroke-linecap="butt" stroke-linejoin="round" stroke-width="10"/>
<path d="M1909.47 4.86181L1629.06 154.382L1527.69 38.7212L1808.1-110.799L1909.47 4.86181Z" fill="#e1d8cb" fill-rule="nonzero" opacity="1" stroke="#e1d8cb" stroke-linecap="butt" stroke-linejoin="round" stroke-width="10"/>
<path d="M4507.46-1114.79L4508-1114.79L4508-1114.79L4507.46-1114.79L4507.46-1114.79Z" fill="#e3d1b7" fill-rule="nonzero" opacity="1" stroke="#ba8234" stroke-linecap="butt" stroke-linejoin="round" stroke-width="10"/>
<path d="M952.458 345.198L1309.7 345.198L1309.7 581.157L952.458 581.157L952.458 345.198Z" fill="#e3d1b7" fill-rule="nonzero" opacity="1" stroke="#e3d1b7" stroke-linecap="butt" stroke-linejoin="round" stroke-width="10"/>
<path d="M1062.72 265.811L1508.17 265.811L1508.17 769.703L1062.72 769.703L1062.72 265.811Z" fill="#e3d1b7" fill-rule="nonzero" opacity="1" stroke="#e3d1b7" stroke-linecap="butt" stroke-linejoin="round" stroke-width="10"/>
<path d="M806.913 405.842L1499.35 405.842L1499.35 836.962L806.913 836.962L806.913 405.842Z" fill="#e3d1b7" fill-rule="nonzero" opacity="1" stroke="#e3d1b7" stroke-linecap="butt" stroke-linejoin="round" stroke-width="10"/>
<path d="M917.874 707.714L1455.44 707.714L1455.44 840.138L917.874 840.138L917.874 707.714Z" fill="#e3d1b7" fill-rule="nonzero" opacity="1" stroke="#e3d1b7" stroke-linecap="butt" stroke-linejoin="round" stroke-width="10"/>
</g>
</svg>
