<?xml version="1.0" encoding="UTF-8" standalone="no"?>
<!DOCTYPE svg PUBLIC "-//W3C//DTD SVG 1.1//EN" "http://www.w3.org/Graphics/SVG/1.1/DTD/svg11.dtd">
<!-- Created with Vectornator (http://vectornator.io/) -->
<svg height="100%" stroke-miterlimit="10" style="fill-rule:nonzero;clip-rule:evenodd;stroke-linecap:round;stroke-linejoin:round;" version="1.1" viewBox="0 0 1270.08 1289.92" width="100%" xml:space="preserve" xmlns="http://www.w3.org/2000/svg" xmlns:vectornator="http://vectornator.io" xmlns:xlink="http://www.w3.org/1999/xlink">
<defs>
<filter color-interpolation-filters="sRGB" filterUnits="userSpaceOnUse" height="1297.96" id="Filter" width="1297.71" x="-48.631" y="6.03464">
<feDropShadow dx="-31.5581" dy="34.5794" flood-color="#000000" flood-opacity="0.333" in="SourceGraphic" result="Shadow" stdDeviation="13.7329"/>
</filter>
<filter color-interpolation-filters="sRGB" filterUnits="userSpaceOnUse" height="181.738" id="Filter_2" width="384.775" x="135.383" y="-20.3671">
<feGaussianBlur in="SourceGraphic" result="Blur" stdDeviation="30.7171"/>
</filter>
<filter color-interpolation-filters="sRGB" filterUnits="userSpaceOnUse" height="193.521" id="Filter_3" width="499.432" x="200.485" y="-8.82982">
<feGaussianBlur in="SourceGraphic" result="Blur" stdDeviation="30.7171"/>
</filter>
<filter color-interpolation-filters="sRGB" filterUnits="userSpaceOnUse" height="123.596" id="Filter_4" width="144.001" x="3.62037" y="-10.222">
<feGaussianBlur in="SourceGraphic" result="Blur" stdDeviation="16.1822"/>
</filter>
<filter color-interpolation-filters="sRGB" filterUnits="userSpaceOnUse" height="120.054" id="Filter_5" width="273.104" x="29.9852" y="-14.2959">
<feGaussianBlur in="SourceGraphic" result="Blur" stdDeviation="16.1822"/>
</filter>
<filter color-interpolation-filters="sRGB" filterUnits="userSpaceOnUse" height="104.428" id="Filter_6" width="434.687" x="88.0009" y="-8.37689">
<feGaussianBlur in="SourceGraphic" result="Blur" stdDeviation="16.1822"/>
</filter>
<filter color-interpolation-filters="sRGB" filterUnits="userSpaceOnUse" height="96.5362" id="Filter_7" width="352.911" x="229.049" y="-12.3129">
<feGaussianBlur in="SourceGraphic" result="Blur" stdDeviation="16.1822"/>
</filter>
<filter color-interpolation-filters="sRGB" filterUnits="userSpaceOnUse" height="246.635" id="Filter_8" width="176.199" x="121.958" y="101.513">
<feGaussianBlur in="SourceGraphic" result="Blur" stdDeviation="16.1822"/>
</filter>
<filter color-interpolation-filters="sRGB" filterUnits="userSpaceOnUse" height="219.394" id="Filter_9" width="282.228" x="128.717" y="86.9455">
<feGaussianBlur in="SourceGraphic" result="Blur" stdDeviation="16.1822"/>
</filter>
<filter color-interpolation-filters="sRGB" filterUnits="userSpaceOnUse" height="119.85" id="Filter_10" width="372.097" x="216.664" y="94.3981">
<feGaussianBlur in="SourceGraphic" result="Blur" stdDeviation="16.1822"/>
</filter>
<filter color-interpolation-filters="sRGB" filterUnits="userSpaceOnUse" height="224.483" id="Filter_11" width="160.661" x="932.602" y="136.769">
<feGaussianBlur in="SourceGraphic" result="Blur" stdDeviation="16.1822"/>
</filter>
<filter color-interpolation-filters="sRGB" filterUnits="userSpaceOnUse" height="217.086" id="Filter_12" width="224.804" x="178.352" y="837.548">
<feGaussianBlur in="SourceGraphic" result="Blur" stdDeviation="16.1822"/>
</filter>
<filter color-interpolation-filters="sRGB" filterUnits="userSpaceOnUse" height="111.418" id="Filter_13" width="336.178" x="216.084" y="938.972">
<feGaussianBlur in="SourceGraphic" result="Blur" stdDeviation="16.1822"/>
</filter>
<filter color-interpolation-filters="sRGB" filterUnits="userSpaceOnUse" height="108.884" id="Filter_14" width="216.569" x="864.046" y="939.929">
<feGaussianBlur in="SourceGraphic" result="Blur" stdDeviation="16.1822"/>
</filter>
<filter color-interpolation-filters="sRGB" filterUnits="userSpaceOnUse" height="244.482" id="Filter_15" width="115.918" x="943.418" y="954.344">
<feGaussianBlur in="SourceGraphic" result="Blur" stdDeviation="16.1822"/>
</filter>
<filter color-interpolation-filters="sRGB" filterUnits="userSpaceOnUse" height="297.287" id="Filter_16" width="164.946" x="181.053" y="140.496">
<feGaussianBlur in="SourceGraphic" result="Blur" stdDeviation="16.1822"/>
</filter>
<filter color-interpolation-filters="sRGB" filterUnits="userSpaceOnUse" height="180.245" id="Filter_17" width="214.383" x="188.428" y="138.761">
<feGaussianBlur in="SourceGraphic" result="Blur" stdDeviation="16.1822"/>
</filter>
<filter color-interpolation-filters="sRGB" filterUnits="userSpaceOnUse" height="295.809" id="Filter_18" width="166.62" x="-18.5988" y="-37.689">
<feGaussianBlur in="SourceGraphic" result="Blur" stdDeviation="16.1822"/>
</filter>
<filter color-interpolation-filters="sRGB" filterUnits="userSpaceOnUse" height="356.194" id="Filter_19" width="101.638" x="0.819723" y="652.428">
<feGaussianBlur in="SourceGraphic" result="Blur" stdDeviation="16.1822"/>
</filter>
<filter color-interpolation-filters="sRGB" filterUnits="userSpaceOnUse" height="361.164" id="Filter_20" width="112.749" x="-16.5038" y="858.692">
<feGaussianBlur in="SourceGraphic" result="Blur" stdDeviation="16.1822"/>
</filter>
<filter color-interpolation-filters="sRGB" filterUnits="userSpaceOnUse" height="108.286" id="Filter_21" width="141.232" x="1077.88" y="131.289">
<feGaussianBlur in="SourceGraphic" result="Blur" stdDeviation="16.1822"/>
</filter>
<filter color-interpolation-filters="sRGB" filterUnits="userSpaceOnUse" height="131.292" id="Filter_22" width="299.037" x="931.659" y="1127.08">
<feGaussianBlur in="SourceGraphic" result="Blur" stdDeviation="16.1822"/>
</filter>
<filter color-interpolation-filters="sRGB" filterUnits="userSpaceOnUse" height="109.528" id="Filter_23" width="286.499" x="919.789" y="1130.23">
<feGaussianBlur in="SourceGraphic" result="Blur" stdDeviation="16.1822"/>
</filter>
<filter color-interpolation-filters="sRGB" filterUnits="userSpaceOnUse" height="96.2886" id="Filter_24" width="670.56" x="297.957" y="1120.87">
<feGaussianBlur in="SourceGraphic" result="Blur" stdDeviation="16.1822"/>
</filter>
<filter color-interpolation-filters="sRGB" filterUnits="userSpaceOnUse" height="100.25" id="Filter_25" width="490.39" x="394.876" y="1109.67">
<feGaussianBlur in="SourceGraphic" result="Blur" stdDeviation="16.1822"/>
</filter>
<filter color-interpolation-filters="sRGB" filterUnits="userSpaceOnUse" height="119.166" id="Filter_26" width="880.571" x="142.619" y="1118.39">
<feGaussianBlur in="SourceGraphic" result="Blur" stdDeviation="16.1822"/>
</filter>
<filter color-interpolation-filters="sRGB" filterUnits="userSpaceOnUse" height="119.737" id="Filter_27" width="891.735" x="264.408" y="1115.03">
<feGaussianBlur in="SourceGraphic" result="Blur" stdDeviation="16.1822"/>
</filter>
<filter color-interpolation-filters="sRGB" filterUnits="userSpaceOnUse" height="97.3929" id="Filter_28" width="569.913" x="580.017" y="1115.01">
<feGaussianBlur in="SourceGraphic" result="Blur" stdDeviation="16.1822"/>
</filter>
<filter color-interpolation-filters="sRGB" filterUnits="userSpaceOnUse" height="109.012" id="Filter_29" width="742.628" x="396.119" y="1112.09">
<feGaussianBlur in="SourceGraphic" result="Blur" stdDeviation="16.1822"/>
</filter>
<filter color-interpolation-filters="sRGB" filterUnits="userSpaceOnUse" height="115.888" id="Filter_30" width="572.398" x="99.1487" y="1110.18">
<feGaussianBlur in="SourceGraphic" result="Blur" stdDeviation="16.1822"/>
</filter>
<filter color-interpolation-filters="sRGB" filterUnits="userSpaceOnUse" height="108.061" id="Filter_31" width="663.105" x="102.876" y="1114.28">
<feGaussianBlur in="SourceGraphic" result="Blur" stdDeviation="16.1822"/>
</filter>
<filter color-interpolation-filters="sRGB" filterUnits="userSpaceOnUse" height="107.709" id="Filter_32" width="400.926" x="201.038" y="1125.82">
<feGaussianBlur in="SourceGraphic" result="Blur" stdDeviation="16.1822"/>
</filter>
<filter color-interpolation-filters="sRGB" filterUnits="userSpaceOnUse" height="107.288" id="Filter_33" width="966.994" x="168.732" y="1132.95">
<feGaussianBlur in="SourceGraphic" result="Blur" stdDeviation="16.1822"/>
</filter>
<filter color-interpolation-filters="sRGB" filterUnits="userSpaceOnUse" height="96.5005" id="Filter_34" width="135.02" x="584.987" y="1120.87">
<feGaussianBlur in="SourceGraphic" result="Blur" stdDeviation="16.1822"/>
</filter>
<filter color-interpolation-filters="sRGB" filterUnits="userSpaceOnUse" height="96.793" id="Filter_35" width="402.169" x="530.315" y="1055.02">
<feGaussianBlur in="SourceGraphic" result="Blur" stdDeviation="16.1822"/>
</filter>
<filter color-interpolation-filters="sRGB" filterUnits="userSpaceOnUse" height="136.262" id="Filter_36" width="802.271" x="227.132" y="1018.98">
<feGaussianBlur in="SourceGraphic" result="Blur" stdDeviation="16.1822"/>
</filter>
</defs>
<clipPath id="ArtboardFrame">
<rect height="1289.92" width="1270.08" x="0" y="0"/>
</clipPath>
<g clip-path="url(#ArtboardFrame)" id="Ebene-1" vectornator:layerName="Ebene 1">
<path d="M88.7268 11.0346L1174.84 11.0346C1211.55 11.0346 1241.31 41.4825 1241.31 79.0418L1241.31 1162.08C1241.31 1199.64 1211.55 1230.08 1174.84 1230.08L88.7268 1230.08C52.0179 1230.08 22.2594 1199.64 22.2594 1162.08L22.2594 79.0418C22.2594 41.4825 52.0179 11.0346 88.7268 11.0346Z" fill="#9b9088" fill-rule="nonzero" filter="url(#Filter)" stroke="#7e7e75" stroke-linecap="butt" stroke-linejoin="round" stroke-width="10" vectornator:shadowAngle="2.31054" vectornator:shadowColor="#000000" vectornator:shadowOffset="46.8151" vectornator:shadowOpacity="0.333" vectornator:shadowRadius="27.4658"/>
<path d="M269.474 167.975L994.095 167.975C1028.86 167.975 1057.03 198.773 1057.03 236.765L1057.03 949.684C1057.03 987.676 1028.86 1018.47 994.095 1018.47L269.474 1018.47C234.713 1018.47 206.534 987.676 206.534 949.684L206.534 236.765C206.534 198.773 234.713 167.975 269.474 167.975Z" fill="#887e76" fill-rule="nonzero" opacity="1" stroke="#b0b19e" stroke-linecap="butt" stroke-linejoin="round" stroke-opacity="0.362613" stroke-width="10"/>
<g filter="url(#Filter_2)" opacity="0.274647" vectornator:blur="61.4341">
<path d="M385.531 56.4688C381.72 56.4459 377.902 56.5742 374.094 56.6875C367.582 56.8811 361.07 57.1662 354.562 57.4688C346.766 57.8312 338.979 58.2535 331.188 58.7188C326.835 58.9787 322.471 59.2011 318.125 59.5625C313.899 59.914 309.82 61.2634 305.594 61.5312C291.623 62.4166 277.602 61.5709 263.625 62.3438C258.803 62.6104 253.952 63.0333 249.188 63.8438C237.66 65.8045 226.983 70.8829 215.938 74.5C213.299 75.3633 211.855 78.205 212.719 80.8438C213.582 83.4825 216.424 84.8946 219.062 84.0312C223.383 82.6188 227.617 81.0576 231.875 79.4688C238.058 77.1619 244.343 74.877 250.875 73.7812C255.992 72.9228 261.196 72.5635 266.375 72.3438C279.649 71.7806 292.954 72.5646 306.219 71.75C310.521 71.4858 314.68 70.1796 318.969 69.8438C323.236 69.5097 327.508 69.2986 331.781 69.0625C339.531 68.6345 347.277 68.2406 355.031 67.9062C361.481 67.6281 367.952 67.3893 374.406 67.2188C378.093 67.1213 381.78 67.0041 385.469 67.0312C402.895 67.1597 420.162 69.9105 437.438 71.9062C440.351 72.2412 443.009 70.1633 443.344 67.25C443.679 64.3367 441.569 61.71 438.656 61.375C420.998 59.354 403.342 56.5757 385.531 56.4688Z" fill="#ededdb" fill-opacity="0.362613" stroke="none"/>
</g>
<g filter="url(#Filter_3)" opacity="0.274647" vectornator:blur="61.4341">
<path d="M548.156 68.0938C541.256 68.1911 534.346 68.4719 527.438 68.7188C512.06 69.2682 496.688 69.7923 481.312 70.4062C444.239 71.8866 407.192 74.0418 370.188 76.75C355.586 77.8186 341.005 79.1898 326.5 81.1875C322.342 81.7602 318.202 82.4311 314.062 83.125C310.885 83.6576 307.669 84.1419 304.594 85.125C295.75 87.9521 288.456 93.9313 280.281 98.125C277.811 99.3924 276.858 102.405 278.125 104.875C279.392 107.345 282.405 108.33 284.875 107.062C289.169 104.859 293.212 102.233 297.344 99.75C300.624 97.7789 303.995 95.8894 307.656 94.7188C310.59 93.7806 313.719 93.3819 316.75 92.875C320.792 92.199 324.846 91.5853 328.906 91.0312C342.856 89.1279 356.898 87.8526 370.938 86.8438C408.294 84.1595 445.699 82.1678 483.125 80.7812C498.489 80.2121 513.853 79.7033 529.219 79.1875C542.199 78.7518 555.118 78.1969 568.094 79.125C584.485 80.2975 600.561 83.5143 616.281 88.25C619.089 89.0949 622.061 87.4956 622.906 84.6875C623.751 81.8794 622.152 78.9074 619.344 78.0625C602.871 73.1128 586.047 69.7788 568.875 68.5625C561.969 68.0733 555.057 67.9964 548.156 68.0938Z" fill="#ededdb" fill-opacity="0.362613" stroke="none"/>
</g>
<g filter="url(#Filter_4)" opacity="0.441314" vectornator:blur="32.3643">
<path d="M101.406 30.25C96.0426 30.7377 90.5184 29.7313 85.3438 31.6562C83.082 32.4976 81.1025 33.8956 79.125 35.25C76.3135 37.1756 73.6253 39.2672 71 41.4375C62.4099 48.5386 54.6208 56.5692 46.125 63.7812C44.0068 65.5761 43.7676 68.7256 45.5625 70.8438C47.3574 72.9619 50.5068 73.2324 52.625 71.4375C61.0774 64.2877 68.8848 56.3909 77.5312 49.4688C79.9502 47.5322 82.4224 45.6598 85 43.9375C86.2663 43.0914 87.5505 42.0889 89 41.5625C91.2152 40.7581 93.7945 40.9613 96.0938 41C98.1786 41.035 100.234 41.0191 102.312 40.8438C105.234 40.5887 107.411 38.0151 107.156 35.0938C106.901 32.1724 104.328 29.9949 101.406 30.25Z" fill="#ededdb" fill-opacity="0.362613" stroke="none"/>
</g>
<g filter="url(#Filter_5)" opacity="0.441314" vectornator:blur="32.3643">
<path d="M148.969 26.3125C146.957 26.3288 144.946 26.4486 142.938 26.6875C139.681 27.0748 136.534 27.8631 133.375 28.7188C129.647 29.7283 125.936 30.8776 122.281 32.125C109.54 36.4735 97.3687 42.1388 85.4375 48.3438C84.1616 49.0073 82.891 49.6616 81.625 50.3438C80.3638 51.0233 79.096 51.7103 77.8438 52.4062C77.0233 52.8622 76.1955 53.3252 75.375 53.7812C73.8445 54.6319 72.0184 55.5242 71.2812 57.25C71.023 57.8546 70.7749 58.4993 70.75 59.1562C70.7186 59.9866 70.8253 60.8187 71.125 61.5938C71.3951 62.2922 71.8979 62.8876 72.4062 63.4375C72.7301 63.7879 73.1501 64.0413 73.5625 64.2812C74.7089 64.9481 76.174 65.0303 77.4688 65.0312C82.3971 65.0349 87.2628 63.9179 92.1875 63.875C94.9638 63.8498 97.1814 61.5888 97.1562 58.8125C97.1411 57.1386 96.2665 55.746 95 54.8438C97.0963 53.7884 99.1602 52.6609 101.281 51.6562C110.828 47.1345 120.659 43.1389 130.781 40.0938C134.694 38.9167 138.672 37.7062 142.719 37.0938C145.099 36.7336 147.532 36.5968 149.938 36.625C156.833 36.7059 163.629 37.9807 170.438 38.9375C174.659 39.5308 178.938 39.7862 183.094 40.7812C188.923 42.177 194.533 44.3362 200.312 45.9062C205.468 47.3066 210.854 47.8052 215.969 49.3438C217.736 49.8755 219.4 50.7119 221.062 51.5C223.194 52.5107 225.306 53.484 227.562 54.1875C232.723 55.796 238.095 56.7944 243.406 57.75C247.703 58.5231 252.001 59.3266 256.281 60.1875C259.156 60.7641 261.955 58.9065 262.531 56.0312C263.108 53.156 261.25 50.3578 258.375 49.7812C254.023 48.9111 249.65 48.0933 245.281 47.3125C240.401 46.4404 235.462 45.5636 230.719 44.0938C226.672 42.8398 223.093 40.4543 219.031 39.2188C213.811 37.6307 208.328 37.1288 203.062 35.7188C196.775 34.0351 190.689 31.7037 184.312 30.3438C181.244 29.6892 178.141 29.3996 175.031 29.0312C172.352 28.7139 169.702 28.3204 167.031 27.9375C161.064 27.0821 155.004 26.2636 148.969 26.3125Z" fill="#ededdb" fill-opacity="0.362613" stroke="none"/>
</g>
<g filter="url(#Filter_6)" opacity="0.441314" vectornator:blur="32.3643">
<path d="M332.156 32.1875C319.706 32.0534 307.257 32.1733 294.812 32.375C280.677 32.6041 266.542 33.0983 252.406 33.2812C240.23 33.4389 228.049 32.636 215.875 32.9688C211.164 33.0975 206.525 33.5207 201.844 34.0312C199.683 34.2669 197.497 34.4556 195.344 34.75C192.66 35.1169 189.985 35.6222 187.312 36.0625C184.984 36.4461 182.668 36.926 180.344 37.3438C177.156 37.3712 173.963 37.4207 170.781 37.6562C166.538 37.9705 162.291 38.5982 158.062 39.0625C149.477 40.0052 140.814 40.974 132.844 44.5312C131.711 45.0366 130.293 45.8109 129.656 46.9062C129.293 47.5307 128.892 48.1883 128.812 48.9062C128.701 49.9172 128.743 50.9828 129.094 51.9375C129.394 52.7553 130.07 53.4165 130.688 54.0312C131.035 54.3775 131.497 54.5651 131.938 54.7812C133.44 55.5183 135.377 55.3941 137 55.3125C142.413 55.0402 147.824 54.2015 153.188 53.4688C155.352 53.173 157.492 52.8278 159.625 52.3438C163.73 51.4121 167.747 50.1185 171.875 49.2812C175.247 48.5974 178.643 48.0385 182.031 47.4375C183.512 47.4339 184.99 47.401 186.469 47.4062C192.432 47.4274 198.384 47.5209 204.344 47.7188C221.183 48.2777 237.96 49.694 254.625 52.1875C257.371 52.5987 259.933 50.6833 260.344 47.9375C260.605 46.1903 259.887 44.5907 258.656 43.5C267.229 43.3484 275.803 43.1541 284.375 43C310.782 42.5254 337.208 42.3183 363.594 43.6875C372.602 44.155 381.604 44.7391 390.562 45.8125C401.986 47.1812 413.365 49.1041 424.781 50.5312C436.254 51.9656 447.798 52.5939 459.312 53.5938C464.99 54.0867 470.654 54.7349 476.312 55.4062C479.225 55.751 481.843 53.6621 482.188 50.75C482.532 47.8379 480.443 45.1885 477.531 44.8438C471.762 44.1622 466.007 43.5309 460.219 43.0312C448.837 42.0488 437.434 41.4132 426.094 40C414.659 38.5751 403.286 36.6776 391.844 35.3125C384.416 34.4264 376.935 33.8784 369.469 33.4375C357.04 32.7035 344.606 32.3216 332.156 32.1875Z" fill="#ededdb" fill-opacity="0.362613" stroke="none"/>
</g>
<g filter="url(#Filter_7)" opacity="0.441314" vectornator:blur="32.3643">
<path d="M483.719 28.1875C477.977 28.1374 472.266 28.3348 466.531 28.5938C455.217 29.1046 443.903 29.9509 432.594 30.5625C418.921 31.3019 405.253 31.4833 391.562 31.5625C367.708 31.7006 343.854 31.3808 320 31.3125C312.026 31.2897 304.037 31.3119 296.062 31.375C293.406 31.396 290.751 31.4394 288.094 31.4688C286.45 31.4869 284.794 31.4506 283.156 31.625C279.998 31.9613 276.953 32.9279 273.844 33.5312C271.118 34.0604 269.346 36.6808 269.875 39.4062C270.404 42.1317 273.056 43.9354 275.781 43.4062C278.594 42.86 281.366 41.924 284.219 41.625C285.971 41.4414 287.772 41.5187 289.531 41.5C292.172 41.472 294.828 41.4489 297.469 41.4375C305.411 41.4033 313.339 41.3699 321.281 41.4062C344.719 41.5136 368.155 41.8902 391.594 41.8438C405.452 41.8163 419.314 41.6985 433.156 41C444.438 40.4308 455.714 39.634 467 39.1562C472.549 38.9214 478.069 38.6965 483.625 38.75C500.995 38.9171 518.232 41.0691 535.375 43.7188C538.273 44.1654 540.991 42.1795 541.438 39.2812C541.884 36.383 539.898 33.6654 537 33.2188C519.352 30.5074 501.598 28.3433 483.719 28.1875Z" fill="#ededdb" fill-opacity="0.362613" stroke="none"/>
</g>
<g filter="url(#Filter_8)" opacity="0.441314" vectornator:blur="32.3643">
<path d="M252.031 141.969C251.015 141.929 249.961 142.092 249 142.344C245.87 143.165 242.89 144.672 240.031 146.156C233.6 149.495 227.808 153.885 222.344 158.625C215.051 164.952 208.336 172.013 202.062 179.344C180.945 204.02 165.156 234.313 162.812 267.125C162.402 272.867 162.449 278.631 162.812 284.375C163.071 288.466 163.467 292.53 164.219 296.562C164.4 297.536 164.586 298.443 164.812 299.406C165.25 301.27 165.665 303.37 166.688 305.031C167.048 305.617 167.602 306.081 168.094 306.562C168.192 306.659 168.317 306.714 168.438 306.781C169.126 307.166 169.805 307.413 170.594 307.5C171.181 307.565 171.801 307.54 172.375 307.406C172.622 307.349 172.875 307.245 172.938 307.219C172.945 307.216 173 307.188 173 307.188C173.144 307.128 173.3 307.074 173.438 307C173.709 306.854 173.968 306.71 174.219 306.531C174.875 306.064 175.406 305.427 175.781 304.719C176.606 303.164 176.463 301.326 176.375 299.625C176.296 298.11 176.187 296.576 176.094 295.062C175.921 292.25 176.028 289.44 175.906 286.625C175.755 283.116 175.459 279.635 175.312 276.125C175.167 272.652 175.179 269.112 175.844 265.688C176.352 263.072 177.355 260.575 178.219 258.062C179.434 254.528 180.67 251.005 181.969 247.5C187.301 233.112 193.444 218.966 201.281 205.75C202.879 203.056 204.57 200.415 206.312 197.812C207.14 196.576 207.935 195.273 208.844 194.094C210.109 192.453 211.607 190.938 212.969 189.375C213.729 188.503 214.454 187.527 215.281 186.719C215.819 186.194 216.422 185.762 217 185.281C218.021 184.433 219.042 183.598 220.062 182.75C221.035 181.941 222 181.086 223 180.312C224.368 179.254 225.814 178.261 227.219 177.25C231.623 174.079 236.118 171.014 240.406 167.688C243.841 165.023 242.154 166.019 254.406 153.375C255.225 152.95 255.978 152.372 256.5 151.531C257.653 148.584 257.539 149.686 257.656 148.594C257.91 146.231 256.912 144.144 254.906 142.844C254.03 142.276 253.047 142.008 252.031 141.969Z" fill="#ededdb" fill-opacity="0.362613" stroke="none"/>
</g>
<g filter="url(#Filter_9)" opacity="0.441314" vectornator:blur="32.3643">
<path d="M279.406 127.719C278.76 127.627 278.077 127.666 277.406 127.844C268.86 130.107 259.802 130.548 251.656 134.219C248.485 135.648 245.563 137.601 242.656 139.5C238.503 142.213 234.389 145.01 230.406 147.969C218.776 156.61 207.799 166.475 198.875 177.938C192.432 186.214 187.187 195.31 182.406 204.625C180.055 209.207 177.818 213.855 175.594 218.5C174.281 221.241 172.718 223.962 171.906 226.906C170.923 230.473 171.002 234.182 170.812 237.844C170.682 240.377 170.305 242.882 170.062 245.406C169.708 249.099 169.51 252.824 169.406 256.531C169.366 257.977 169.225 259.528 169.438 260.969C169.618 262.188 170.023 263.356 170.969 264.219C171.27 264.494 171.627 264.745 171.969 264.969C172.18 265.108 172.398 265.2 172.625 265.312C172.621 265.324 172.652 265.324 172.656 265.312C172.684 265.326 172.906 265.412 173.094 265.469C173.465 265.581 173.831 265.661 174.219 265.688C175.685 265.786 177.137 265.245 178.188 264.219C179.716 262.725 179.884 260.47 180.188 258.469C180.537 256.164 180.822 253.846 181.094 251.531C182.223 241.896 182.806 232.088 185.75 222.781C189.864 209.776 198.66 198.644 208.156 189.094C211.297 185.935 214.571 182.915 217.938 180C221.817 176.64 225.82 173.458 230.125 170.656C235.266 167.311 240.751 164.5 246.469 162.281C264.248 155.383 283.584 154.661 302.406 155.906C314.597 156.713 326.716 158.287 338.844 159.719C347.475 160.737 356.116 161.617 364.781 162.281C367.705 162.504 370.246 160.33 370.469 157.406C370.692 154.482 368.518 151.942 365.594 151.719C357.073 151.07 348.581 150.184 340.094 149.188C309.946 145.646 278.478 140.919 248.875 150.281C245.627 151.308 242.502 152.649 239.375 154C242.276 151.93 245.172 149.889 248.156 147.938C250.619 146.327 253.123 144.587 255.812 143.375C259.532 141.699 263.574 140.874 267.562 140.125C271.726 139.343 275.901 138.647 280 137.562C282.684 136.852 284.273 134.121 283.562 131.438C283.03 129.425 281.346 127.995 279.406 127.719Z" fill="#ededdb" fill-opacity="0.362613" stroke="none"/>
</g>
<g filter="url(#Filter_10)" opacity="0.441314" vectornator:blur="32.3643">
<path d="M350.562 134.906C337.56 135.1 324.575 136.478 311.812 138.969C305.447 140.211 298.987 141.086 292.75 142.906C289.785 143.771 286.867 144.851 284.125 146.281C282.719 147.014 281.296 147.785 280.156 148.906C278.833 150.207 277.953 152.031 277.344 153.969C274.996 154.007 272.649 153.99 270.344 154.531C267.464 155.208 264.85 156.767 262.438 158.438C260.743 159.611 258.937 160.952 258 162.844C257.598 163.656 257.351 164.62 257.406 165.531C257.47 166.587 257.697 167.417 258.281 168.312C260.19 171.237 263.356 170.795 266.344 170.75C267.384 170.734 268.428 170.703 269.469 170.688C270.509 170.672 271.553 170.672 272.594 170.656C276.325 170.6 280.027 170.305 283.75 170.062C294.881 169.336 305.981 168.111 317.094 167.156C322.524 167.155 327.945 167.139 333.375 167.156C344.136 167.191 354.897 167.422 365.656 167.531C370.23 167.981 374.797 168.465 379.375 168.812C380.669 168.911 381.862 168.487 382.812 167.75C399.936 167.97 417.064 168.082 434.188 168.375C448.062 168.612 461.938 168.764 475.812 169.031C490.326 169.311 504.829 169.921 519.312 170.906C523.2 171.171 527.08 171.621 530.969 171.875C532.283 171.961 533.57 172.34 534.844 172.656C538.258 173.505 542.341 174.539 545.438 172.25C545.898 171.91 546.295 171.538 546.656 171.094C547.19 170.438 547.591 169.712 547.844 168.906C548.083 168.146 548.193 167.296 548.156 166.5C548.088 164.999 547.652 163.609 546.719 162.406C543.891 158.763 539.162 159.607 535.25 160.25C534.303 160.406 533.025 160.766 532.031 160.625C528.071 160.063 524.173 159.076 520.188 158.688C514.778 158.16 509.332 158.054 503.906 157.781C496.284 157.399 488.654 156.955 481.031 156.594C447.431 155 413.817 154.217 380.188 153.562C357.695 153.125 335.186 152.556 312.688 152.688C307.063 152.72 301.437 152.873 295.812 153.062C297.56 152.558 299.318 152.123 301.094 151.75C304.178 151.103 307.278 150.61 310.375 150.031C314.033 149.348 317.698 148.612 321.375 148.031C326.771 147.179 332.179 146.522 337.625 146.094C344.155 145.58 350.732 145.381 357.281 145.5C360.431 145.557 363.581 145.611 366.719 145.906C371.321 146.339 375.844 147.382 380.375 148.25C383.607 148.869 386.854 149.418 390.125 149.781C407.904 151.756 425.738 152.63 443.594 153.562C446.522 153.715 449.035 151.46 449.188 148.531C449.34 145.603 447.085 143.121 444.156 142.969C426.139 142.033 408.043 141.312 390.125 139.094C384.417 138.387 378.826 137.031 373.156 136.094C365.711 134.863 358.093 134.794 350.562 134.906Z" fill="#ededdb" fill-opacity="0.362613" stroke="none"/>
</g>
<g filter="url(#Filter_11)" opacity="0.441314" vectornator:blur="32.3643">
<path d="M987.75 177.594C986.482 177.813 985.3 178.491 984.5 179.625C984.433 179.72 984.434 179.84 984.375 179.938C982.108 180.223 979.895 180.724 977.969 181.969C976.927 182.642 975.97 183.478 975.219 184.469C974.548 185.354 974.047 186.357 973.688 187.406C971.879 192.679 975.481 197.091 979.469 200.062C981.157 201.32 982.953 202.39 984.719 203.531C986.676 204.796 988.593 206.001 990.75 206.906C994.137 208.328 997.733 209.241 1001.09 210.719C1003.43 211.746 1005.61 213.148 1007.75 214.531C1009.65 215.764 1011.52 217.053 1013.34 218.406C1014.16 219.011 1014.89 219.69 1015.69 220.312C1016.04 222.583 1016.62 224.821 1017.53 226.875C1019.08 230.36 1021.36 233.441 1023 236.875C1023.93 238.825 1024.65 240.876 1025.47 242.875C1027.42 247.655 1029.23 252.512 1030.78 257.438C1031.06 258.315 1031.27 259.212 1031.53 260.094C1031.37 262.6 1031.29 265.106 1031.56 267.625C1031.65 268.48 1031.79 269.44 1031.97 270.281C1032.47 272.581 1033.48 275.708 1035.38 277.562C1035.48 278.477 1035.64 279.376 1035.66 280.312C1035.81 291.88 1031.13 302.994 1027.12 313.625C1026.09 316.369 1027.47 319.436 1030.22 320.469C1032.96 321.502 1036.03 320.088 1037.06 317.344C1041.72 304.958 1046.89 292.078 1046.22 278.594C1047.26 278.395 1048.31 277.938 1049.28 277.219C1050.1 276.611 1050.67 276.028 1051.25 275.188C1054.82 269.98 1051.14 263.955 1049.72 258.75C1048.82 255.472 1048.08 252.177 1047.03 248.938C1046.7 247.896 1046.27 246.879 1045.91 245.844C1045.87 245.615 1045.85 245.385 1045.81 245.156C1044.98 239.652 1043.79 234.219 1042.28 228.875C1042.22 225.661 1041.95 222.457 1041.06 219.344C1039.38 213.467 1035.29 208.709 1030.81 204.594C1028.33 201.134 1025.64 197.807 1022.5 194.875C1018.35 190.999 1013.72 187.828 1008.81 185C1005.84 183.286 1002.8 181.558 999.469 180.625C997.584 180.097 995.678 180.023 993.75 179.906C993.007 179.408 992.231 178.953 991.5 178.438C990.366 177.637 989.018 177.375 987.75 177.594ZM985.938 190C987.597 189.853 989.267 189.992 990.938 190.062C994.854 192.58 998.819 194.987 1002.84 197.344C1007.79 200.241 1012.7 203.277 1017.34 206.656C1017.09 207.104 1016.88 207.552 1016.69 208.031C1014.57 206.554 1012.41 205.162 1010.19 203.844C1007.56 202.287 1004.84 201.038 1001.97 200C999.368 199.058 996.708 198.309 994.188 197.156C992.37 196.325 990.746 195.159 989.062 194.094C987.462 193.081 985.448 191.87 984.094 190.375C984.116 190.367 984.133 190.351 984.156 190.344C984.725 190.162 985.344 190.053 985.938 190Z" fill="#ededdb" fill-opacity="0.362613" stroke="none"/>
</g>
<g filter="url(#Filter_12)" opacity="0.441314" vectornator:blur="32.3643">
<path d="M225.5 878.312C224.639 878.443 223.807 878.733 223.031 879.219C218.151 882.275 219.511 888.571 219.406 893.375C219.353 895.807 219.026 898.249 219 900.688C218.981 902.439 219.05 904.188 219.125 905.938C219.42 912.767 220.229 919.578 221.562 926.281C223.018 933.595 225.056 940.781 226.906 948C228.633 954.736 230.291 961.495 232.438 968.094C232.797 969.697 233.198 971.292 233.5 972.906C234.075 975.979 234.537 979.076 235.375 982.094C236.482 986.08 238.508 989.94 241.844 992.5C243.421 993.711 245.271 994.448 247.219 994.281C249.319 996.974 250.866 1000.13 253.562 1002.31C255.884 1004.19 258.861 1005.02 261.75 1004C262.219 1003.84 262.564 1003.44 263 1003.19C265.779 1005.26 268.702 1007.15 271.812 1008.75C275.224 1010.51 278.869 1012.08 282.594 1013.03C286.391 1014.01 290.379 1014.17 294.281 1014.16C300.967 1014.14 307.589 1013.3 314.25 1012.88C328.625 1011.96 343.005 1011.7 357.406 1011.66C360.339 1011.65 362.697 1009.28 362.688 1006.34C362.678 1003.41 360.307 1001.02 357.375 1001.03C342.759 1001.08 328.151 1001.37 313.562 1002.31C307.117 1002.73 300.718 1003.54 294.25 1003.56C291.251 1003.57 288.142 1003.49 285.219 1002.75C282.794 1002.13 280.413 1001.13 278.156 1000.06C274.558 998.362 271.282 996.111 268.156 993.656C268.166 990.593 267.45 987.381 267.031 984.5C266.748 982.548 266.569 980.604 266.25 978.656C264.371 967.164 259.687 956.597 254.031 946.5C253.301 945.197 252.524 943.922 251.781 942.625C249.69 934.676 247.334 926.8 245.156 918.875C245.197 918.784 245.277 918.72 245.312 918.625C246.093 916.527 245.325 914.284 243.656 912.969C243.257 911.389 242.815 909.813 242.5 908.219C241.756 904.445 241.226 900.601 240.125 896.906C239.549 894.973 238.808 893.118 238.219 891.188C237.079 887.458 235.853 883.36 232.812 880.688C230.873 878.982 228.084 877.921 225.5 878.312ZM229.344 896.906C229.939 898.648 230.582 900.382 231 902.188C231.37 903.785 231.679 905.387 231.969 907C231.174 906.846 230.391 906.867 229.562 907C229.439 904.926 229.2 902.857 229.219 900.781C229.231 899.485 229.272 898.196 229.344 896.906ZM240.781 944.531C241.427 945.636 242.079 946.736 242.719 947.844C243.007 949.006 243.391 950.144 243.656 951.312C244.409 954.631 244.84 957.985 245.312 961.344C243.941 957.742 242.78 954.043 241.844 950.344C241.358 948.425 241.136 946.466 240.781 944.531Z" fill="#ededdb" fill-opacity="0.362613" stroke="none"/>
</g>
<g filter="url(#Filter_13)" opacity="0.441314" vectornator:blur="32.3643">
<path d="M447.531 979.656C440.865 979.769 434.261 980.732 427.688 981.875C416.17 982.498 404.686 983.214 393.156 983.562C383.63 983.85 374.069 983.852 364.562 983.125C355.288 982.416 346.052 981.309 336.75 981C331.648 980.831 326.59 981.033 321.5 981.344C317.134 981.611 312.747 981.709 308.438 982.531C304.808 983.224 301.256 984.421 298.156 986.469C297.425 986.952 296.667 987.48 296.062 988.125C296.056 988.132 296.069 988.149 296.062 988.156C294.939 988.248 293.809 988.238 292.688 988.344C285.385 989.035 278.074 989.944 270.969 991.812C268.259 992.525 265.545 993.323 262.969 994.438C260.056 995.698 256.915 997.723 256.812 1001.28C256.799 1001.75 256.84 1002.23 256.938 1002.69C257.032 1003.13 257.213 1003.56 257.406 1003.97C257.586 1004.35 257.809 1004.72 258.062 1005.06C259.119 1006.48 260.777 1007.24 262.375 1007.84C264.392 1008.61 266.517 1009.1 268.656 1009.38C277.606 1010.52 286.423 1007.79 295.344 1007.66C298.12 1007.61 300.325 1005.31 300.281 1002.53C300.249 1000.49 299.01 998.791 297.25 998.031C297.77 997.99 298.292 997.976 298.812 997.938C299.802 998.257 300.831 998.484 301.844 998.594C304.278 998.856 306.743 998.848 309.188 998.906C312.947 998.997 316.639 999.542 320.375 999.938C324.475 1000.37 328.573 1000.69 332.688 1000.94C345.625 1001.73 358.638 1001.66 371.594 1001.56C384.893 1001.46 398.183 1001.18 411.469 1000.56C420.493 1000.15 429.489 999.508 438.5 998.875C441.881 998.638 445.286 998.457 448.656 998.094C450.613 997.883 452.559 997.601 454.531 997.594C460.1 997.574 465.9 998.455 471.219 996.312C473.075 995.565 475.036 994.212 476.5 992.562C486.324 993.306 496.117 994.384 505.906 995.469C508.821 995.791 511.459 993.696 511.781 990.781C512.104 987.867 510.008 985.228 507.094 984.906C496.096 983.692 485.071 982.56 474.031 981.812C473.298 981.528 472.571 981.213 471.812 981.062C468.68 980.442 465.431 980.486 462.25 980.406C457.326 980.283 452.466 979.573 447.531 979.656Z" fill="#ededdb" fill-opacity="0.362613" stroke="none"/>
</g>
<g filter="url(#Filter_14)" opacity="0.441314" vectornator:blur="32.3643">
<path d="M1032.88 980.562C1028.65 980.489 1024.56 981.959 1020.41 982.5C1018.35 982.768 1016.23 982.75 1014.16 982.844C1011.18 982.979 1008.22 983.144 1005.25 983.344C996.754 983.915 988.253 984.543 979.75 985C965.043 985.79 950.296 986.507 935.719 988.719C929.427 989.673 923.23 991.307 917.156 993.188C916.133 993.504 915.14 993.902 914.125 994.25C913.235 994.214 912.335 994.106 911.469 994.281C911.004 994.376 910.371 994.559 909.969 994.781C909.538 995.019 909.087 995.235 908.75 995.594C908.346 996.024 908.027 996.527 907.719 997.031C907.58 997.125 907.414 997.18 907.281 997.281C906.817 997.636 906.274 998.089 905.938 998.562C905.651 998.966 905.346 999.375 905.188 999.844C904.948 1000.55 904.749 1001.29 904.781 1002.03C904.817 1002.86 905.05 1003.69 905.406 1004.44C905.698 1005.05 906.197 1005.56 906.688 1006.03C907.848 1007.14 909.588 1007.49 911.125 1007.62C922.689 1008.67 934.355 1007.74 945.844 1006.31C948.923 1005.93 951.986 1005.53 955.062 1005.12C968.251 1004.84 981.438 1004.14 994.5 1002.28C1000.39 1001.44 1006.28 1000.37 1012.09 999.125C1014.16 998.682 1016.22 998.171 1018.28 997.719C1019.9 997.365 1021.51 997.258 1023.16 997.156C1029.02 996.794 1035.6 996.267 1038.88 990.594C1039.55 989.427 1040.03 988.116 1040 986.75C1039.99 986.467 1039.88 986.263 1039.84 986C1039.84 985.935 1039.85 985.877 1039.84 985.812C1039.81 985.573 1039.68 985.383 1039.62 985.156C1039.5 984.702 1039.41 984.229 1039.19 983.844C1039.18 983.837 1039.19 983.82 1039.19 983.812C1039.07 983.605 1038.86 983.469 1038.72 983.281C1037.41 981.564 1035.28 980.604 1032.88 980.562Z" fill="#ededdb" fill-opacity="0.362613" stroke="none"/>
</g>
<g filter="url(#Filter_15)" opacity="0.441314" vectornator:blur="32.3643">
<path d="M992.156 994.875C990.894 994.976 989.642 995.328 988.531 995.938C981.834 999.611 984.189 1008.23 985.156 1014.25C985.287 1015.06 985.392 1015.87 985.438 1016.69C985.58 1019.27 985.712 1021.83 985.969 1024.41C986.226 1026.98 986.535 1029.54 986.906 1032.09C987.992 1039.57 989.499 1047 990.656 1054.47C991.429 1059.45 991.989 1064.45 992.469 1069.47C993.535 1080.64 993.999 1091.87 993.812 1103.09C993.811 1103.11 993.814 1103.14 993.812 1103.16C993.529 1106.55 993.378 1109.96 993 1113.34C992.729 1115.77 991.971 1118.14 991.625 1120.56C991.321 1122.69 991.234 1124.84 991.75 1126.94C991.826 1127.25 992.026 1127.46 992.125 1127.75C991.127 1135.86 989.78 1143.92 988 1151.91C987.363 1154.77 989.169 1157.61 992.031 1158.25C994.894 1158.89 997.738 1157.08 998.375 1154.22C999.808 1147.77 1000.91 1141.27 1001.88 1134.75C1002.28 1134.77 1002.65 1134.89 1003.06 1134.88C1004.92 1134.82 1006.77 1134.43 1008.5 1133.75C1009.98 1133.17 1011.39 1132.36 1012.59 1131.31C1014.35 1129.79 1015.46 1127.85 1016.19 1125.66C1018.07 1120.01 1016.95 1114.1 1016.19 1108.38C1016.04 1107.28 1015.88 1106.05 1015.81 1104.94C1015.68 1102.7 1015.75 1100.4 1015.78 1098.16C1015.83 1094.97 1015.91 1091.81 1015.97 1088.62C1016.16 1078.48 1016.3 1068.3 1015.31 1058.19C1015.31 1058.17 1015.31 1058.15 1015.31 1058.12C1017.01 1049.97 1018.41 1041.75 1018.59 1033.41C1018.77 1025.7 1018.01 1017.82 1015.09 1010.62C1013.98 1007.88 1012.7 1004.88 1009.38 1004.34C1008.88 1004.26 1008.38 1004.23 1007.88 1004.28C1006.05 1004.47 1004.86 1005.57 1003.88 1006.91C1003.22 1004.81 1002.52 1002.72 1001.47 1000.78C999.585 997.304 996.31 994.544 992.156 994.875ZM995.969 1016.84C996.395 1018.1 996.873 1019.34 997.156 1020.66C997.767 1023.5 998.12 1026.39 998.625 1029.25C998.627 1029.26 998.623 1029.27 998.625 1029.28C998.537 1030.39 998.424 1031.48 998.375 1032.59C998.319 1033.85 998.359 1035.11 998.344 1036.38C998.02 1034.45 997.657 1032.53 997.375 1030.59C996.852 1027 996.412 1023.37 996.156 1019.75C996.087 1018.78 996.016 1017.82 995.969 1016.84ZM1005.5 1105.19C1005.54 1106.03 1005.57 1106.85 1005.66 1107.69C1005.79 1108.96 1006.01 1110.45 1006.19 1111.72C1006.65 1114.98 1007.26 1118.53 1006.44 1121.78C1005.85 1116.26 1005.18 1110.71 1005.5 1105.19Z" fill="#ededdb" fill-opacity="0.362613" stroke="none"/>
</g>
<g filter="url(#Filter_16)" opacity="0.441314" vectornator:blur="32.3643">
<path d="M299.188 181.062C285.001 183.943 270.763 187.079 257.25 192.375C254.325 193.521 251.445 194.77 248.625 196.156C247.298 196.809 246.04 197.539 244.781 198.281C243.424 197.384 241.733 196.968 239.875 197.312C238.342 197.597 236.833 198.311 235.594 199.25C230.827 202.861 229.649 209.022 228.656 214.562C228.475 215.573 228.289 216.586 228.094 217.594C227.724 219.502 227.503 221.443 227.312 223.375C225.453 226.646 224.149 230.25 223.344 233.906C222.399 238.196 221.99 242.585 221.844 246.969C221.633 253.299 221.959 259.639 222.594 265.938C223.293 272.871 224.392 279.742 225.469 286.625C225.187 296.75 224.768 306.871 224.531 317C224.364 324.162 224.221 331.34 223.969 338.5C223.721 345.548 223.405 352.607 223.188 359.656C222.984 366.232 223.109 372.809 222.688 379.375C222.59 380.894 222.48 382.416 222.438 383.938C222.407 385.054 222.395 386.07 222.438 387.188C222.459 387.746 222.485 388.286 222.531 388.844C222.708 390.969 222.891 393.451 224.25 395.219C224.46 395.492 224.671 395.795 224.969 395.969C225.817 396.463 226.765 396.808 227.656 397.219C227.992 397.373 228.619 397.284 228.969 397.25C229.704 397.179 230.82 396.917 231.375 396.375C231.862 395.899 232.383 395.47 232.844 394.969C233.058 394.735 233.372 393.986 233.469 393.75C233.911 392.67 234.017 391.432 234.125 390.281C234.266 388.776 234.33 387.26 234.406 385.75C234.457 384.735 234.52 383.703 234.562 382.688C234.617 381.384 234.685 380.086 234.719 378.781C234.857 373.467 234.512 368.158 234.656 362.844C234.864 355.204 235.382 347.573 235.812 339.938C236.243 339.936 236.673 339.9 237.094 339.812C240.234 339.162 242.41 335.339 243.5 332.656C246.079 326.311 245.092 319.465 245.469 312.812C245.646 309.685 246.075 306.562 246.312 303.438C246.736 297.858 246.995 292.281 247.125 286.688C247.453 272.593 247.029 258.501 246.938 244.406C246.896 238.083 247.026 231.761 247.062 225.438C247.073 223.643 247.054 221.826 247.031 220.031C249.144 219.147 251.295 218.341 253.5 217.719C263.601 214.868 274.116 213.84 284.219 210.969C286.889 210.21 288.446 207.452 287.688 204.781C286.929 202.111 284.139 200.554 281.469 201.312C270.413 204.453 258.807 205.451 247.875 209.031C249.538 207.696 251.389 206.632 253.312 205.688C256.196 204.271 259.155 202.99 262.156 201.844C274.793 197.016 288.056 194.15 301.281 191.469C304.155 190.886 306.021 188.093 305.438 185.219C304.854 182.345 302.061 180.479 299.188 181.062Z" fill="#ededdb" fill-opacity="0.362613" stroke="none"/>
</g>
<g filter="url(#Filter_17)" opacity="0.441314" vectornator:blur="32.3643">
<path d="M337.094 179.469C335.16 179.437 333.211 179.474 331.281 179.594C330.625 179.635 329.996 179.755 329.344 179.812C326.906 179.784 324.484 179.931 322.062 180.281C308.724 182.213 295.732 186.269 283.219 191.25C273.333 192.37 263.588 194.511 254.531 198.75C247.9 201.854 241.873 205.891 237 211.406C235.213 213.429 233.51 215.617 232.281 218.031C230.323 221.878 229.525 226.212 229.094 230.469C228.565 235.687 229.113 240.921 230.219 246.031C231.336 251.197 232.92 256.29 234.812 261.219C236.627 265.944 238.734 270.568 240.656 275.25C241.771 277.962 244.881 279.271 247.594 278.156C250.306 277.042 251.583 273.931 250.469 271.219C249.399 268.618 248.32 266.025 247.219 263.438C245.118 258.5 243.204 253.544 241.75 248.375C239.621 240.804 238.451 232.709 240.844 225.031C241.163 224.007 241.66 223.11 242.188 222.219C242.353 222.721 242.464 223.23 242.719 223.719C245.496 229.036 252.777 231.774 258.531 231.188C260.554 230.981 262.488 230.388 264.312 229.5C268.064 227.674 270.984 224.666 274.469 222.438C276.045 221.429 277.729 220.601 279.344 219.656C282.643 217.725 285.897 215.716 289.156 213.719C293.579 211.008 298.046 208.276 302.625 205.781C303.792 205.916 304.949 206.113 306.125 206.188C308.896 206.363 311.294 204.271 311.469 201.5C311.47 201.479 311.468 201.459 311.469 201.438C312.585 200.953 313.738 200.529 314.875 200.094C316.364 200.017 317.858 200.035 319.344 199.906C323.075 199.584 326.814 198.998 330.562 198.938C335.292 198.862 339.996 199.706 344.719 199.062C347.728 198.653 352.763 197.409 354.188 194.312C354.265 194.144 354.273 193.955 354.344 193.781C354.449 193.786 354.549 193.809 354.656 193.812C356.079 193.865 358.193 193.944 359.438 193.094C360.053 192.673 360.755 192.272 361.125 191.625C361.69 190.636 362.091 189.513 362.125 188.375C362.153 187.453 361.675 186.584 361.281 185.75C361.083 185.329 360.703 185.018 360.375 184.688C359.936 184.245 359.342 183.89 358.781 183.625C356.628 182.609 354.207 182.097 351.906 181.531C348.464 180.685 345.006 179.978 341.469 179.688C340.013 179.568 338.554 179.493 337.094 179.469ZM281.312 206.344C279.859 207.238 278.359 208.093 276.906 208.969C273.759 210.867 270.4 212.522 267.406 214.656C264.988 216.38 262.81 218.511 260.188 219.938C258.307 220.96 256.435 221.112 254.406 220.438C253.751 220.22 253.127 219.932 252.562 219.531C252.521 219.502 252.478 219.468 252.438 219.438C253.68 218.316 255.111 217.429 256.562 216.562C258.414 215.833 260.276 215.142 262.125 214.406C268.577 211.84 274.974 209.173 281.312 206.344Z" fill="#ededdb" fill-opacity="0.362613" stroke="none"/>
</g>
<g filter="url(#Filter_18)" opacity="0.441314" vectornator:blur="32.3643">
<path d="M88.375 2.90625C84.5255 3.09224 80.5565 4.63786 77.4062 6.75C71.985 10.3848 67.6043 15.3125 63.875 20.625C59.7567 26.4916 56.4871 32.8473 53.6562 39.4062C46.2074 42.2103 38.9675 45.9991 33.625 52.0312C31.9299 53.9451 30.4777 56.0271 29.2188 58.25C26.9092 62.3281 25.2264 66.7695 24.0938 71.3125C22.7168 76.8353 22.159 82.5352 22.125 88.2188C22.073 96.913 23.3851 105.528 25.0312 114.062C24.9458 129.056 25.8643 144.118 28.5312 158.875C31.9906 178.017 38.1776 196.42 45.5625 214.375C46.6785 217.087 49.7882 218.366 52.5 217.25C55.2118 216.134 56.491 213.056 55.375 210.344C49.5822 196.275 44.5122 181.931 41.0625 167.094C39.4591 160.198 38.3218 153.182 37.4375 146.156C39.2173 148.316 41.076 150.419 43 152.438C46.7556 156.378 50.6712 160.165 54.0938 164.406C54.4712 164.874 54.8427 165.344 55.2188 165.812C55.3468 165.972 55.4952 166.158 55.625 166.344C55.6182 166.351 55.7766 166.546 55.8125 166.594C55.8739 166.667 55.9306 166.753 56 166.812C56.4406 167.191 56.8475 168.286 57.3125 167.938C59.947 165.966 61.8797 163.184 64.0938 160.75C64.1023 160.741 63.9461 160.553 63.9062 160.5C63.8977 160.489 63.8835 160.48 63.875 160.469C63.8504 160.439 63.8337 160.405 63.8125 160.375C63.8039 160.364 63.7898 160.355 63.7812 160.344C63.7677 160.326 63.7635 160.299 63.75 160.281C63.7268 160.261 63.7106 160.211 63.6875 160.188C63.6703 160.165 63.6422 160.148 63.625 160.125C63.6019 160.099 63.5855 160.06 63.5625 160.031C63.5574 160.025 63.5379 160.009 63.5312 160C63.4675 159.916 63.4075 159.834 63.3438 159.75C63.2519 159.63 63.1475 159.497 63.125 159.469C63.1157 159.457 63.103 159.449 63.0938 159.438C62.8568 159.124 62.6427 158.814 62.4062 158.5C60.4799 155.939 58.5666 153.346 56.6875 150.75C53.2775 146.039 50.1776 141.156 47.9688 135.75C45.965 130.846 44.7054 125.653 44.25 120.375C43.495 111.626 44.8169 102.48 46.4688 93.875C48.8607 81.4148 53.0281 69.5091 57.4688 57.6562C58.3807 55.222 59.3451 52.8033 60.2812 50.375C61.6176 50.0237 62.9487 49.6608 64.3125 49.5C66.7059 49.2179 69.1423 49.4025 71.5312 49.625C72.7205 49.7357 73.9226 49.8486 75.0938 50.0938C77.5494 50.6078 79.907 51.5181 82.375 52C85.1321 52.5383 87.962 52.3131 90.75 52.2188C95.0995 52.0715 99.7053 51.5749 103.281 48.8438C105.662 47.0252 107.327 44.4209 107.469 41.375C107.584 38.9036 106.823 36.5574 105.875 34.3125C105.284 32.9133 104.362 31.4242 104.062 29.9062C102.555 22.2596 103.815 13.7493 98.625 7.25C95.9456 3.89476 92.2245 2.72026 88.375 2.90625ZM89.2812 13.2812C89.5138 13.2806 89.7408 13.2972 89.9688 13.3438C90.0419 13.3587 90.1892 13.4236 90.1875 13.4062C90.2865 13.5199 90.3746 13.6323 90.4688 13.75C90.5649 13.8703 90.6645 13.9969 90.75 14.125C91.1479 14.7211 91.4566 15.3858 91.6875 16.0625C92.3437 17.9857 92.5447 20.0515 92.7188 22.0625C92.8731 23.8451 92.9558 25.6466 93.125 27.4375C91.9388 27.0306 90.6017 27.0539 89.375 27.625C82.246 30.9449 74.6446 32.9894 67.0938 35.125C67.5966 34.1995 68.0517 33.2504 68.5938 32.3438C72.1129 26.4575 76.2575 20.583 81.7812 16.4062C83.4714 15.1283 85.296 14.0677 87.375 13.5625C88.0043 13.4096 88.6322 13.2832 89.2812 13.2812ZM95.125 35.6562C95.3632 36.2194 95.5353 36.8171 95.7812 37.375C96.226 38.3836 96.6102 39.398 96.8438 40.4688C96.6746 40.6134 96.5272 40.7782 96.3125 40.875C94.884 41.519 93.1892 41.6044 91.6562 41.6875C90.3263 41.7596 89.0185 41.776 87.6875 41.8125C86.6745 41.8403 85.7186 41.9038 84.7188 41.75C83.8261 41.6127 82.9631 41.3074 82.0938 41.0625C85.9962 39.8153 89.8557 38.4896 93.5938 36.75C94.182 36.4761 94.7032 36.0995 95.125 35.6562ZM44.4062 63.5C41.6794 71.3911 39.2907 79.3919 37.4688 87.5312C38.7407 79.4905 40.7517 71.4933 44.0938 64.0938C44.1799 63.903 44.3161 63.6941 44.4062 63.5Z" fill="#ededdb" fill-opacity="0.362613" stroke="none"/>
</g>
<g filter="url(#Filter_19)" opacity="0.441314" vectornator:blur="32.3643">
<path d="M46.6562 693.156C43.8803 693.205 41.6704 695.505 41.7188 698.281C42.2239 727.634 43.211 757.015 42.875 786.375C42.5455 815.16 40.5685 843.96 41.625 872.75C42.4518 895.279 45.9181 917.576 48.7812 939.906C49.7835 947.723 50.6333 955.534 51.4062 963.375C51.6952 966.293 54.3006 968.445 57.2188 968.156C60.137 967.867 62.2577 965.262 61.9688 962.344C61.1786 954.4 60.3037 946.449 59.2812 938.531C56.4391 916.521 53.0018 894.549 52.125 872.344C51.9499 867.909 51.9357 863.468 51.875 859.031C51.5437 834.833 52.8764 810.663 53.0625 786.469C53.289 757.016 52.3009 727.539 51.7812 698.094C51.7329 695.318 49.4322 693.108 46.6562 693.156Z" fill="#000000" fill-opacity="0.362613" stroke="none"/>
</g>
<g filter="url(#Filter_20)" opacity="0.441314" vectornator:blur="32.3643">
<path d="M32.1562 899.156C29.2286 898.988 26.6998 901.229 26.5312 904.156C25.7183 918.382 24.0118 932.582 23.9688 946.844C23.9541 951.704 24.1906 956.551 24.375 961.406C24.6486 968.609 24.9451 975.8 25.2812 983C26.212 1002.94 27.328 1022.87 28.625 1042.78C29.7064 1059.39 30.9822 1075.99 32.4375 1092.56C33.3325 1102.76 34.0916 1112.99 35.5625 1123.12C38.0937 1140.56 42.3047 1157.69 45.5312 1175C46.0394 1177.73 48.6768 1179.54 51.4062 1179.03C54.1357 1178.52 55.9457 1175.89 55.4375 1173.16C52.2436 1155.98 48.0451 1138.99 45.5625 1121.69C44.0579 1111.2 43.3249 1100.58 42.4375 1090.03C41.0495 1073.53 39.8594 1057 38.8438 1040.47C37.6238 1020.61 36.6237 1000.75 35.75 980.875C35.459 974.255 35.1833 967.622 34.9375 961C34.7627 956.289 34.5441 951.59 34.5625 946.875C34.6173 932.807 36.342 918.782 37.1562 904.75C37.3248 901.822 35.0839 899.325 32.1562 899.156Z" fill="#000000" fill-opacity="0.362613" stroke="none"/>
</g>
<g filter="url(#Filter_21)" opacity="0.441314" vectornator:blur="32.3643">
<path d="M1140.72 172C1138.05 172.189 1135.35 172.7 1132.94 173.906C1127.39 176.684 1124.55 182.33 1120.19 186.438C1118.17 188.342 1118.1 191.511 1120 193.531C1121.9 195.552 1125.07 195.654 1127.09 193.75C1129.55 191.433 1131.52 188.715 1133.75 186.188C1134.82 184.969 1135.99 183.697 1137.47 182.969C1138.44 182.489 1139.56 182.35 1140.62 182.25C1142.97 182.031 1145.36 182.296 1147.66 182.781C1150.5 183.381 1153.24 184.336 1155.91 185.469C1157.11 185.979 1158.28 186.47 1159.34 187.219C1161.54 188.765 1163.31 190.857 1165.09 192.844C1166.58 194.499 1168.08 196.119 1169.69 197.656C1171.81 199.677 1175.17 199.594 1177.19 197.469C1179.21 195.344 1179.13 191.989 1177 189.969C1173.28 186.449 1170.26 182.208 1166.12 179.125C1163.66 177.288 1160.87 176.101 1158 175.031C1152.51 172.981 1146.61 171.583 1140.72 172Z" fill="#000000" fill-opacity="0.362613" stroke="none"/>
</g>
<g filter="url(#Filter_22)" opacity="0.441314" vectornator:blur="32.3643">
<path d="M1185.56 1167.56C1184.88 1167.48 1184.17 1167.55 1183.47 1167.75C1180.82 1168.52 1178.18 1169.38 1175.53 1170.16C1173.93 1170.62 1172.28 1171.11 1170.62 1171.31C1167.73 1171.67 1164.81 1171.17 1161.91 1171.19C1159.44 1171.2 1156.94 1171.57 1154.5 1171.94C1147.31 1173.02 1140.27 1174.88 1133.09 1176C1128.15 1176.77 1123.13 1177.3 1118.16 1177.88C1109.64 1178.85 1101.13 1179.73 1092.62 1180.81C1085.46 1181.73 1078.32 1182.87 1071.19 1184C1063.54 1185.21 1055.88 1186.46 1048.25 1187.78C1038.66 1189.44 1029.09 1191.22 1019.59 1193.31C1015.68 1194.17 1011.77 1195.03 1007.91 1196.09C996.876 1199.14 986.413 1203.95 975.688 1207.88C973.08 1208.83 971.765 1211.74 972.719 1214.34C973.673 1216.95 976.549 1218.3 979.156 1217.34C989.618 1213.52 999.799 1208.76 1010.56 1205.81C1014.72 1204.67 1018.98 1203.79 1023.19 1202.88C1032.54 1200.83 1041.94 1199.15 1051.38 1197.56C1058.49 1196.37 1065.65 1195.28 1072.78 1194.19C1079.82 1193.11 1086.84 1192.03 1093.91 1191.16C1102.73 1190.07 1111.57 1189.17 1120.41 1188.19C1125.17 1187.66 1129.95 1187.13 1134.69 1186.41C1141.85 1185.31 1148.89 1183.48 1156.06 1182.41C1158 1182.12 1160.01 1181.79 1161.97 1181.78C1165.3 1181.77 1168.56 1182.25 1171.91 1181.84C1176.86 1181.25 1181.64 1179.32 1186.41 1177.94C1189.22 1177.12 1190.85 1174.19 1190.03 1171.38C1189.42 1169.26 1187.62 1167.81 1185.56 1167.56Z" fill="#000000" fill-opacity="0.362613" stroke="none"/>
</g>
<g filter="url(#Filter_23)" opacity="0.441314" vectornator:blur="32.3643">
<path d="M1116.72 1170.72C1086.86 1170.62 1057.67 1178.26 1028.34 1182.91C1017.47 1182.09 1006.58 1181.65 995.656 1181.97C992.669 1182.06 989.67 1182.18 986.688 1182.38C984.812 1182.5 982.974 1182.7 981.094 1182.69C978.159 1182.66 975.216 1182.49 972.281 1182.47C970.448 1182.46 968.595 1182.45 966.781 1182.75C963.717 1183.25 960.896 1184.92 960.438 1188.31C960.375 1188.78 960.36 1189.25 960.406 1189.72C960.825 1193.96 965.881 1196.87 969.531 1197.88C970.345 1198.1 971.134 1198.25 971.969 1198.38C976.963 1199.13 981.946 1198.2 986.938 1197.97C988.975 1197.88 991.025 1197.92 993.062 1197.81C997.353 1197.58 1001.62 1197.02 1005.88 1196.47C1012.62 1195.59 1019.39 1194.9 1026.12 1193.91C1027.42 1193.72 1028.71 1193.45 1030 1193.25C1034.16 1193.57 1038.32 1193.92 1042.47 1194.34C1049.15 1195.02 1055.85 1195.62 1062.5 1196.5C1066.84 1197.07 1071.04 1198.42 1075.41 1198.88C1077.94 1199.14 1080.46 1198.99 1083 1198.88C1085.74 1198.75 1088.45 1198.62 1091.19 1198.5C1100.86 1198.08 1110.55 1197.65 1120.22 1197.06C1127.67 1196.61 1135.11 1196.05 1142.53 1195.22C1147.7 1194.64 1152.99 1194.06 1158 1192.59C1161.61 1191.54 1165.65 1189.54 1165.56 1185.12C1165.55 1184.67 1165.45 1184.22 1165.34 1183.78C1165.19 1183.16 1164.15 1182.58 1160.47 1179.78C1160.46 1179.77 1160.44 1179.76 1160.44 1179.75C1159.83 1178.55 1158.78 1177.58 1157.41 1177.12C1144.01 1173.43 1148.51 1174.39 1144 1173.44C1135.03 1171.55 1125.88 1170.75 1116.72 1170.72ZM1111.09 1181.38C1114.37 1181.28 1117.65 1181.27 1120.94 1181.38C1128.41 1181.62 1135.89 1182.45 1143.19 1184.09C1143.53 1184.17 1145.06 1184.64 1145.25 1184.69C1143.25 1184.95 1141.25 1185.26 1139.25 1185.47C1127.96 1186.63 1116.61 1187.23 1105.28 1187.78C1099.01 1188.09 1092.74 1188.33 1086.47 1188.59C1084.56 1188.67 1082.65 1188.76 1080.75 1188.84C1079.68 1188.89 1078.61 1188.96 1077.53 1188.91C1073.87 1188.72 1070.33 1187.56 1066.75 1186.91C1071.75 1186.03 1076.73 1185.08 1081.75 1184.31C1091.47 1182.82 1101.26 1181.67 1111.09 1181.38Z" fill="#000000" fill-opacity="0.362613" stroke="none"/>
</g>
<g filter="url(#Filter_24)" opacity="0.441314" vectornator:blur="32.3643">
<path d="M343.875 1161.62C341.1 1161.54 338.772 1163.69 338.688 1166.47C338.603 1169.24 340.787 1171.57 343.562 1171.66C432.041 1174.37 520.543 1175.96 609.062 1176.44C713.657 1177 818.262 1176.05 922.844 1174.44C925.776 1174.39 928.108 1171.96 928.062 1169.03C928.017 1166.1 925.588 1163.77 922.656 1163.81C794.038 1165.85 665.413 1166.94 536.781 1165.62C472.466 1164.97 408.163 1163.58 343.875 1161.62Z" fill="#000000" fill-opacity="0.362613" stroke="none"/>
</g>
<g filter="url(#Filter_25)" opacity="0.441314" vectornator:blur="32.3643">
<path d="M766.031 1150.44C750.838 1150.25 735.661 1150.51 720.469 1150.72C698.334 1151.02 676.194 1151.43 654.062 1151.94C582.837 1153.57 511.632 1156.22 440.438 1158.84C437.507 1158.95 435.235 1161.41 435.344 1164.34C435.452 1167.27 437.913 1169.58 440.844 1169.47C511.451 1166.83 582.053 1164.08 652.688 1162.28C675.862 1161.69 699.039 1161.19 722.219 1160.84C736.783 1160.62 751.371 1160.37 765.938 1160.53C790.422 1160.81 814.872 1162.22 839.344 1162.97C842.119 1163.05 844.446 1160.87 844.531 1158.09C844.617 1155.32 842.431 1152.99 839.656 1152.91C815.121 1152.15 790.579 1150.74 766.031 1150.44Z" fill="#000000" fill-opacity="0.362613" stroke="none"/>
</g>
<g filter="url(#Filter_26)" opacity="0.441314" vectornator:blur="32.3643">
<path d="M977.25 1158.84C962.281 1159.35 947.315 1159.93 932.344 1160.38C917.381 1160.82 902.403 1161.17 887.438 1161.5C827.507 1162.83 767.545 1163.34 707.625 1165.12C662.003 1166.49 616.466 1169.33 570.875 1171.41C529.085 1173.31 487.246 1173.86 445.438 1175.22C418.369 1176.1 391.336 1177.43 364.312 1179.22C334.572 1181.19 304.859 1183.59 275.094 1185.19C255.996 1186.21 236.785 1187.19 217.656 1186.59C216.162 1186.55 214.682 1186.36 213.188 1186.28C213.317 1185.65 213.348 1184.98 213.219 1184.31C212.692 1181.59 210.07 1179.82 207.344 1180.34C205.324 1180.73 203.258 1180.99 201.219 1181.25C199.935 1181.42 198.659 1181.59 197.375 1181.75C196.116 1181.91 194.851 1182.04 193.594 1182.22C191.42 1182.52 188.519 1182.74 186.5 1183.75C186.245 1183.88 185.979 1184.02 185.75 1184.19C185.366 1184.47 184.922 1184.73 184.656 1185.12C184.138 1185.9 183.547 1186.7 183.438 1187.62C183.304 1188.75 183.559 1189.92 183.969 1190.97C184.235 1191.65 184.869 1192.16 185.406 1192.66C186.152 1193.35 187.304 1193.68 188.281 1193.88C191.963 1194.63 195.767 1195 199.5 1195.41C215.34 1197.12 231.317 1197 247.219 1196.47C286.53 1195.15 325.729 1191.89 364.969 1189.31C391.091 1187.59 417.243 1186.33 443.406 1185.47C479.064 1184.29 514.752 1183.89 550.406 1182.59C576.392 1181.65 602.343 1180.21 628.312 1178.91C654.847 1177.57 681.38 1176.39 707.938 1175.62C767.833 1173.89 827.782 1173.41 887.688 1172.09C902.679 1171.77 917.668 1171.41 932.656 1170.97C947.644 1170.53 962.608 1169.98 977.594 1169.47C980.525 1169.37 982.818 1166.9 982.719 1163.97C982.619 1161.04 980.181 1158.74 977.25 1158.84Z" fill="#000000" fill-opacity="0.362613" stroke="none"/>
</g>
<g filter="url(#Filter_27)" opacity="0.441314" vectornator:blur="32.3643">
<path d="M1010.09 1155.78C974.341 1156 938.603 1157.48 902.906 1159.44C886.244 1160.35 869.592 1161.39 852.938 1162.44C841.948 1163.13 830.952 1163.78 819.969 1164.56C801.337 1165.89 782.742 1167.74 764.125 1169.25C750.003 1170.39 735.874 1171.34 721.719 1171.94C643.191 1175.26 564.614 1171.09 486.062 1172.34C470.916 1172.59 455.783 1173.07 440.656 1173.88C396.97 1176.19 353.403 1180.49 309.781 1183.72C306.857 1183.94 304.658 1186.48 304.875 1189.41C305.092 1192.33 307.638 1194.53 310.562 1194.31C354.11 1191.08 397.607 1186.76 441.219 1184.44C456.215 1183.64 471.203 1183.15 486.219 1182.91C564.86 1181.63 643.541 1185.67 722.156 1182.25C736.443 1181.63 750.717 1180.67 764.969 1179.5C783.552 1177.97 802.121 1176.1 820.719 1174.75C830.696 1174.02 840.674 1173.43 850.656 1172.78C868.747 1171.61 886.836 1170.47 904.938 1169.47C951.791 1166.87 998.725 1165.18 1045.66 1166.09C1067.13 1166.51 1088.59 1167.53 1110 1169.16C1112.77 1169.37 1115.16 1167.3 1115.38 1164.53C1115.59 1161.76 1113.52 1159.34 1110.75 1159.12C1089.15 1157.48 1067.54 1156.46 1045.88 1156.03C1033.96 1155.8 1022.01 1155.71 1010.09 1155.78Z" fill="#000000" fill-opacity="0.362613" stroke="none"/>
</g>
<g filter="url(#Filter_28)" opacity="0.441314" vectornator:blur="32.3643">
<path d="M904.812 1155.56C811.705 1155.71 718.63 1158.09 625.594 1161.62C622.819 1161.73 620.645 1164.04 620.75 1166.81C620.855 1169.59 623.194 1171.76 625.969 1171.66C698.982 1168.9 772.03 1166.9 845.094 1166.25C931.412 1165.48 1017.73 1166.53 1104 1169.47C1106.93 1169.57 1109.37 1167.27 1109.47 1164.34C1109.57 1161.41 1107.27 1158.94 1104.34 1158.84C1037.85 1156.61 971.34 1155.46 904.812 1155.56Z" fill="#000000" fill-opacity="0.362613" stroke="none"/>
</g>
<g filter="url(#Filter_29)" opacity="0.441314" vectornator:blur="32.3643">
<path d="M843.469 1152.75C822.397 1152.76 801.351 1152.91 780.281 1153.16C767.438 1153.31 754.593 1153.51 741.75 1153.72C730.291 1153.91 718.826 1154.07 707.375 1154.56C667.605 1156.27 628.007 1160.76 588.281 1163.16C570.652 1164.22 553.022 1164.91 535.375 1165.59C504.161 1166.81 472.938 1167.74 441.719 1168.78C438.788 1168.88 436.464 1171.35 436.562 1174.28C436.661 1177.21 439.132 1179.5 442.062 1179.41C473.3 1178.35 504.549 1177.38 535.781 1176.16C553.504 1175.46 571.233 1174.79 588.938 1173.72C628.605 1171.31 668.102 1166.77 707.812 1165C719.171 1164.49 730.54 1164.3 741.906 1164.09C755.246 1163.85 768.597 1163.65 781.938 1163.47C802.454 1163.2 822.981 1163.01 843.5 1162.97C853.743 1162.95 863.977 1162.9 874.219 1163.03C886.678 1163.19 899.082 1164.29 911.5 1165.22C924.986 1166.23 938.483 1167.17 951.969 1168.19C998.856 1171.72 1045.71 1175.74 1092.5 1180.34C1095.26 1180.62 1097.73 1178.58 1098 1175.81C1098.27 1173.05 1096.23 1170.62 1093.47 1170.34C1045.98 1165.66 998.453 1161.59 950.875 1157.97C937.438 1156.95 924 1155.99 910.562 1154.97C898.503 1154.05 886.475 1153.01 874.375 1152.84C864.085 1152.7 853.76 1152.75 843.469 1152.75Z" fill="#000000" fill-opacity="0.362613" stroke="none"/>
</g>
<g filter="url(#Filter_30)" opacity="0.441314" vectornator:blur="32.3643">
<path d="M298.219 1150.69C286.987 1150.74 275.805 1151.59 264.625 1152.59C252.924 1153.64 241.237 1154.88 229.562 1156.19C208.643 1158.53 187.767 1161.11 166.812 1163.12C159.37 1163.84 151.886 1164.41 144.438 1165.06C141.516 1165.32 139.369 1167.89 139.625 1170.81C139.881 1173.73 142.454 1175.91 145.375 1175.66C152.854 1175 160.339 1174.41 167.812 1173.69C189.286 1171.61 210.718 1168.97 232.156 1166.56C243.289 1165.31 254.437 1164.14 265.594 1163.12C276.478 1162.14 287.345 1161.29 298.281 1161.22C313.926 1161.12 329.576 1162.17 345.188 1163.06C367.647 1164.34 390.089 1165.78 412.531 1167.34C483.546 1172.28 554.446 1178.59 625.312 1185.31C628.076 1185.57 630.519 1183.55 630.781 1180.78C631.044 1178.02 629.014 1175.57 626.25 1175.31C555.306 1168.57 484.335 1162.18 413.25 1157.09C390.768 1155.48 368.282 1153.95 345.781 1152.62C329.948 1151.69 314.087 1150.61 298.219 1150.69Z" fill="#000000" fill-opacity="0.362613" stroke="none"/>
</g>
<g filter="url(#Filter_31)" opacity="0.441314" vectornator:blur="32.3643">
<path d="M581.469 1154.84C536.405 1154.44 491.34 1155.92 446.281 1156.41C399.392 1156.92 352.468 1155.03 305.594 1156.84C252.826 1158.89 200.344 1164.85 148 1171.59C145.246 1171.95 143.302 1174.47 143.656 1177.22C144.011 1179.97 146.528 1181.92 149.281 1181.56C201.329 1174.87 253.529 1168.96 306 1166.97C352.779 1165.19 399.581 1167.21 446.375 1166.78C506.262 1166.23 566.194 1163.9 626.062 1166.56C638.269 1167.11 650.459 1167.92 662.625 1169.06C681.645 1170.84 700.61 1173.25 719.562 1175.62C722.472 1175.99 725.136 1173.94 725.5 1171.03C725.864 1168.12 723.785 1165.46 720.875 1165.09C701.812 1162.71 682.756 1160.28 663.625 1158.5C651.288 1157.35 638.91 1156.55 626.531 1156C611.515 1155.34 596.49 1154.98 581.469 1154.84Z" fill="#000000" fill-opacity="0.362613" stroke="none"/>
</g>
<g filter="url(#Filter_32)" opacity="0.441314" vectornator:blur="32.3643">
<path d="M479.125 1166.53C454.785 1166.73 430.421 1167.8 406.125 1169.22C352.753 1172.33 299.544 1177.6 246.312 1182.47C243.392 1182.74 241.263 1185.33 241.531 1188.25C241.799 1191.17 244.361 1193.3 247.281 1193.03C293.972 1188.73 340.662 1184.12 387.438 1180.81C417.975 1178.66 448.6 1176.95 479.219 1176.66C504.847 1176.41 530.369 1179 555.938 1180.34C558.71 1180.49 561.072 1178.37 561.219 1175.59C561.365 1172.82 559.241 1170.46 556.469 1170.31C530.694 1168.95 504.96 1166.32 479.125 1166.53Z" fill="#000000" fill-opacity="0.362613" stroke="none"/>
</g>
<g filter="url(#Filter_33)" opacity="0.441314" vectornator:blur="32.3643">
<path d="M613.781 1173.59C552.967 1173.74 492.171 1176.08 431.375 1177.34C405.593 1177.88 379.819 1178.08 354.031 1178.12C328.589 1178.17 303.116 1178.05 277.688 1179C256.425 1179.79 235.289 1182.26 214.094 1184C211.327 1184.23 209.274 1186.64 209.5 1189.41C209.726 1192.17 212.139 1194.23 214.906 1194C235.952 1192.28 256.95 1189.85 278.062 1189.06C301.525 1188.19 325.024 1188.22 348.5 1188.19C374.475 1188.15 400.435 1188.09 426.406 1187.56C495.131 1186.17 563.877 1183.52 632.625 1183.88C685.981 1184.15 739.304 1185.84 792.625 1187.69C825.137 1188.82 857.644 1189.95 890.156 1191.06C920.807 1192.11 951.474 1193.13 982.125 1194.16C1004.02 1194.89 1025.91 1195.48 1047.78 1196.84C1053.18 1197.18 1058.58 1197.55 1063.97 1198C1066.99 1198.25 1070.01 1198.63 1073.03 1198.91C1076.91 1199.27 1080.8 1199.47 1084.69 1199.66C1086.69 1199.75 1088.99 1200.06 1090.97 1199.56C1091.19 1199.51 1091.98 1199.29 1092.22 1199.12C1092.79 1198.74 1093.32 1198.29 1093.88 1197.88C1094.56 1197.36 1094.99 1196.17 1095.16 1195.38C1095.23 1195 1095.4 1194.29 1095.25 1193.91C1094.87 1192.93 1094.57 1191.91 1094.09 1190.97C1093.94 1190.67 1093.63 1190.44 1093.38 1190.22C1093.08 1189.97 1092.76 1189.76 1092.44 1189.56C1091.42 1188.93 1089.95 1188.66 1088.84 1188.41C1088.23 1188.26 1087.62 1188.12 1087 1188C1086.39 1187.89 1085.77 1187.78 1085.16 1187.69C1084.56 1187.6 1083.95 1187.54 1083.34 1187.47C1082.75 1187.4 1082.16 1187.31 1081.56 1187.25C1080.21 1187.12 1079.48 1187.07 1078.12 1186.97C1077.02 1186.88 1075.89 1186.81 1074.78 1186.72C1071.32 1186.45 1067.91 1185.93 1064.47 1185.5C1058.85 1184.79 1053.2 1184.2 1047.56 1183.66C1032.63 1182.22 1017.67 1181.19 1002.72 1179.97C1000.07 1179.75 997.778 1181.58 997.188 1184.09C995.188 1184.03 993.187 1183.94 991.188 1183.88C926.686 1181.77 862.186 1179.58 797.688 1177.41C736.403 1175.34 675.107 1173.44 613.781 1173.59Z" fill="#000000" fill-opacity="0.362613" stroke="none"/>
</g>
<g filter="url(#Filter_34)" opacity="0.441314" vectornator:blur="32.3643">
<path d="M631.344 1161.38C628.43 1161.04 625.802 1163.12 625.469 1166.03C625.136 1168.94 627.243 1171.57 630.156 1171.91C644.658 1173.52 659.157 1174.96 673.656 1176.59C676.415 1176.91 678.935 1174.95 679.25 1172.19C679.565 1169.43 677.571 1166.94 674.812 1166.62C660.318 1164.95 645.836 1163.07 631.344 1161.38Z" fill="#000000" fill-opacity="0.362613" stroke="none"/>
</g>
<g filter="url(#Filter_35)" opacity="0.441314" vectornator:blur="32.3643">
<path d="M576.344 1095.75C573.572 1095.6 571.216 1097.73 571.062 1100.5C570.909 1103.27 573.04 1105.66 575.812 1105.81C604.709 1107.42 633.564 1109.86 662.5 1110.66C685.067 1111.27 707.677 1111.24 730.25 1111.12C782.495 1110.87 834.698 1109.2 886.906 1107.34C889.837 1107.24 892.136 1104.77 892.031 1101.84C891.926 1098.91 889.462 1096.61 886.531 1096.72C837.049 1098.51 787.546 1100.17 738.031 1100.72C722.667 1100.89 707.303 1100.94 691.938 1100.88C682.215 1100.83 672.501 1100.78 662.781 1100.53C633.94 1099.79 605.144 1097.34 576.344 1095.75Z" fill="#000000" fill-opacity="0.362613" stroke="none"/>
</g>
<g filter="url(#Filter_36)" opacity="0.441314" vectornator:blur="32.3643">
<path d="M983.625 1059.44C938.718 1059.51 893.822 1060.21 848.969 1062.53C834.899 1063.26 820.828 1064.22 806.781 1065.31C789.438 1066.66 772.122 1068.17 754.75 1069.09C745.751 1069.57 736.722 1069.87 727.719 1070.25C711.603 1070.92 695.494 1071.57 679.375 1072.19C628.378 1074.13 577.359 1075.89 526.375 1078.16C512.776 1078.76 499.196 1079.5 485.594 1080.03C471.224 1080.59 456.835 1080.85 442.469 1081.5C435.443 1081.82 428.429 1082.28 421.406 1082.66C409.859 1083.28 398.3 1083.78 386.75 1084.34C368.272 1085.25 349.79 1086.28 331.375 1088.09C325.793 1088.64 320.221 1089.27 314.656 1089.97C310.759 1090.46 306.852 1090.91 303.031 1091.84C291.802 1094.6 281.768 1100.62 271.062 1104.78C268.475 1105.79 267.213 1108.72 268.219 1111.31C269.225 1113.9 272.131 1115.16 274.719 1114.16C279.346 1112.36 283.842 1110.28 288.344 1108.19C293.872 1105.62 299.466 1103.08 305.406 1101.62C309.258 1100.68 313.258 1100.27 317.188 1099.78C322.665 1099.1 328.163 1098.51 333.656 1097.97C351.905 1096.17 370.22 1095.23 388.531 1094.34C399.669 1093.8 410.803 1093.34 421.938 1092.75C428.932 1092.38 435.94 1091.9 442.938 1091.59C457.283 1090.96 471.62 1090.7 485.969 1090.16C500.025 1089.63 514.103 1088.89 528.156 1088.28C578.686 1086.1 629.239 1084.45 679.781 1082.59C696.349 1081.98 712.903 1081.36 729.469 1080.69C738.078 1080.34 746.676 1080.01 755.281 1079.56C772.74 1078.65 790.165 1077.15 807.594 1075.81C821.552 1074.74 835.519 1073.81 849.5 1073.09C894.177 1070.79 938.926 1070.12 983.656 1070.06C986.589 1070.06 988.942 1067.68 988.938 1064.75C988.933 1061.82 986.557 1059.43 983.625 1059.44Z" fill="#000000" fill-opacity="0.362613" stroke="none"/>
</g>
</g>
</svg>
