<?xml version="1.0" encoding="UTF-8" standalone="no"?>
<!DOCTYPE svg PUBLIC "-//W3C//DTD SVG 1.1//EN" "http://www.w3.org/Graphics/SVG/1.1/DTD/svg11.dtd">
<!-- Created with Vectornator (http://vectornator.io/) -->
<svg height="100%" stroke-miterlimit="10" style="fill-rule:nonzero;clip-rule:evenodd;stroke-linecap:round;stroke-linejoin:round;" version="1.1" viewBox="0 0 1275.75 1289.92" width="100%" xml:space="preserve" xmlns="http://www.w3.org/2000/svg" xmlns:vectornator="http://vectornator.io" xmlns:xlink="http://www.w3.org/1999/xlink">
<defs>
<filter color-interpolation-filters="sRGB" filterUnits="userSpaceOnUse" height="1297.96" id="Filter" width="1297.71" x="-29.5261" y="8.46872">
<feDropShadow dx="-31.5581" dy="34.5794" flood-color="#000000" flood-opacity="0.333" in="SourceGraphic" result="Shadow" stdDeviation="13.7329"/>
</filter>
<filter color-interpolation-filters="sRGB" filterUnits="userSpaceOnUse" height="181.738" id="Filter_2" width="384.775" x="154.488" y="-17.933">
<feGaussianBlur in="SourceGraphic" result="Blur" stdDeviation="30.7171"/>
</filter>
<filter color-interpolation-filters="sRGB" filterUnits="userSpaceOnUse" height="193.521" id="Filter_3" width="499.432" x="219.59" y="-6.39574">
<feGaussianBlur in="SourceGraphic" result="Blur" stdDeviation="30.7171"/>
</filter>
<filter color-interpolation-filters="sRGB" filterUnits="userSpaceOnUse" height="123.596" id="Filter_4" width="144.001" x="22.7253" y="-7.78788">
<feGaussianBlur in="SourceGraphic" result="Blur" stdDeviation="16.1822"/>
</filter>
<filter color-interpolation-filters="sRGB" filterUnits="userSpaceOnUse" height="120.054" id="Filter_5" width="273.104" x="49.0901" y="-11.8618">
<feGaussianBlur in="SourceGraphic" result="Blur" stdDeviation="16.1822"/>
</filter>
<filter color-interpolation-filters="sRGB" filterUnits="userSpaceOnUse" height="104.428" id="Filter_6" width="434.687" x="107.106" y="-5.94281">
<feGaussianBlur in="SourceGraphic" result="Blur" stdDeviation="16.1822"/>
</filter>
<filter color-interpolation-filters="sRGB" filterUnits="userSpaceOnUse" height="96.5362" id="Filter_7" width="352.911" x="248.154" y="-9.8788">
<feGaussianBlur in="SourceGraphic" result="Blur" stdDeviation="16.1822"/>
</filter>
<filter color-interpolation-filters="sRGB" filterUnits="userSpaceOnUse" height="246.635" id="Filter_8" width="176.199" x="141.063" y="103.947">
<feGaussianBlur in="SourceGraphic" result="Blur" stdDeviation="16.1822"/>
</filter>
<filter color-interpolation-filters="sRGB" filterUnits="userSpaceOnUse" height="219.394" id="Filter_9" width="282.228" x="147.822" y="89.3796">
<feGaussianBlur in="SourceGraphic" result="Blur" stdDeviation="16.1822"/>
</filter>
<filter color-interpolation-filters="sRGB" filterUnits="userSpaceOnUse" height="119.85" id="Filter_10" width="372.097" x="235.769" y="96.8321">
<feGaussianBlur in="SourceGraphic" result="Blur" stdDeviation="16.1822"/>
</filter>
<filter color-interpolation-filters="sRGB" filterUnits="userSpaceOnUse" height="224.483" id="Filter_11" width="160.661" x="951.706" y="139.203">
<feGaussianBlur in="SourceGraphic" result="Blur" stdDeviation="16.1822"/>
</filter>
<filter color-interpolation-filters="sRGB" filterUnits="userSpaceOnUse" height="217.086" id="Filter_12" width="224.804" x="197.456" y="839.982">
<feGaussianBlur in="SourceGraphic" result="Blur" stdDeviation="16.1822"/>
</filter>
<filter color-interpolation-filters="sRGB" filterUnits="userSpaceOnUse" height="111.418" id="Filter_13" width="336.178" x="235.189" y="941.406">
<feGaussianBlur in="SourceGraphic" result="Blur" stdDeviation="16.1822"/>
</filter>
<filter color-interpolation-filters="sRGB" filterUnits="userSpaceOnUse" height="108.884" id="Filter_14" width="216.569" x="883.151" y="942.363">
<feGaussianBlur in="SourceGraphic" result="Blur" stdDeviation="16.1822"/>
</filter>
<filter color-interpolation-filters="sRGB" filterUnits="userSpaceOnUse" height="244.482" id="Filter_15" width="115.918" x="990.257" y="822.489">
<feGaussianBlur in="SourceGraphic" result="Blur" stdDeviation="16.1822"/>
</filter>
<filter color-interpolation-filters="sRGB" filterUnits="userSpaceOnUse" height="297.287" id="Filter_16" width="164.946" x="200.157" y="142.93">
<feGaussianBlur in="SourceGraphic" result="Blur" stdDeviation="16.1822"/>
</filter>
<filter color-interpolation-filters="sRGB" filterUnits="userSpaceOnUse" height="180.245" id="Filter_17" width="214.383" x="207.533" y="141.195">
<feGaussianBlur in="SourceGraphic" result="Blur" stdDeviation="16.1822"/>
</filter>
<filter color-interpolation-filters="sRGB" filterUnits="userSpaceOnUse" height="295.809" id="Filter_18" width="166.62" x="0.506041" y="-35.2549">
<feGaussianBlur in="SourceGraphic" result="Blur" stdDeviation="16.1822"/>
</filter>
<filter color-interpolation-filters="sRGB" filterUnits="userSpaceOnUse" height="356.194" id="Filter_19" width="101.638" x="19.9246" y="654.862">
<feGaussianBlur in="SourceGraphic" result="Blur" stdDeviation="16.1822"/>
</filter>
<filter color-interpolation-filters="sRGB" filterUnits="userSpaceOnUse" height="361.164" id="Filter_20" width="112.749" x="2.60108" y="861.126">
<feGaussianBlur in="SourceGraphic" result="Blur" stdDeviation="16.1822"/>
</filter>
<filter color-interpolation-filters="sRGB" filterUnits="userSpaceOnUse" height="92.7728" id="Filter_21" width="103.956" x="1149.88" y="151.129">
<feGaussianBlur in="SourceGraphic" result="Blur" stdDeviation="16.1822"/>
</filter>
<filter color-interpolation-filters="sRGB" filterUnits="userSpaceOnUse" height="108.286" id="Filter_22" width="141.232" x="1108.87" y="139.343">
<feGaussianBlur in="SourceGraphic" result="Blur" stdDeviation="16.1822"/>
</filter>
<filter color-interpolation-filters="sRGB" filterUnits="userSpaceOnUse" height="218.271" id="Filter_23" width="114.138" x="1144.91" y="158.584">
<feGaussianBlur in="SourceGraphic" result="Blur" stdDeviation="16.1822"/>
</filter>
<filter color-interpolation-filters="sRGB" filterUnits="userSpaceOnUse" height="342.526" id="Filter_24" width="104.428" x="1149.53" y="200.831">
<feGaussianBlur in="SourceGraphic" result="Blur" stdDeviation="16.1822"/>
</filter>
<filter color-interpolation-filters="sRGB" filterUnits="userSpaceOnUse" height="308.977" id="Filter_25" width="107.83" x="1153.46" y="440.644">
<feGaussianBlur in="SourceGraphic" result="Blur" stdDeviation="16.1822"/>
</filter>
<filter color-interpolation-filters="sRGB" filterUnits="userSpaceOnUse" height="131.292" id="Filter_26" width="299.037" x="950.764" y="1129.52">
<feGaussianBlur in="SourceGraphic" result="Blur" stdDeviation="16.1822"/>
</filter>
<filter color-interpolation-filters="sRGB" filterUnits="userSpaceOnUse" height="109.528" id="Filter_27" width="286.499" x="938.894" y="1132.66">
<feGaussianBlur in="SourceGraphic" result="Blur" stdDeviation="16.1822"/>
</filter>
<filter color-interpolation-filters="sRGB" filterUnits="userSpaceOnUse" height="96.2886" id="Filter_28" width="670.56" x="317.062" y="1123.3">
<feGaussianBlur in="SourceGraphic" result="Blur" stdDeviation="16.1822"/>
</filter>
<filter color-interpolation-filters="sRGB" filterUnits="userSpaceOnUse" height="100.25" id="Filter_29" width="490.39" x="413.981" y="1112.1">
<feGaussianBlur in="SourceGraphic" result="Blur" stdDeviation="16.1822"/>
</filter>
<filter color-interpolation-filters="sRGB" filterUnits="userSpaceOnUse" height="119.166" id="Filter_30" width="880.571" x="161.724" y="1120.82">
<feGaussianBlur in="SourceGraphic" result="Blur" stdDeviation="16.1822"/>
</filter>
<filter color-interpolation-filters="sRGB" filterUnits="userSpaceOnUse" height="119.737" id="Filter_31" width="891.735" x="283.513" y="1117.46">
<feGaussianBlur in="SourceGraphic" result="Blur" stdDeviation="16.1822"/>
</filter>
<filter color-interpolation-filters="sRGB" filterUnits="userSpaceOnUse" height="97.3929" id="Filter_32" width="569.913" x="599.122" y="1117.44">
<feGaussianBlur in="SourceGraphic" result="Blur" stdDeviation="16.1822"/>
</filter>
<filter color-interpolation-filters="sRGB" filterUnits="userSpaceOnUse" height="109.012" id="Filter_33" width="742.628" x="415.224" y="1114.52">
<feGaussianBlur in="SourceGraphic" result="Blur" stdDeviation="16.1822"/>
</filter>
<filter color-interpolation-filters="sRGB" filterUnits="userSpaceOnUse" height="115.888" id="Filter_34" width="572.398" x="118.254" y="1112.62">
<feGaussianBlur in="SourceGraphic" result="Blur" stdDeviation="16.1822"/>
</filter>
<filter color-interpolation-filters="sRGB" filterUnits="userSpaceOnUse" height="108.061" id="Filter_35" width="663.105" x="121.981" y="1116.71">
<feGaussianBlur in="SourceGraphic" result="Blur" stdDeviation="16.1822"/>
</filter>
<filter color-interpolation-filters="sRGB" filterUnits="userSpaceOnUse" height="107.709" id="Filter_36" width="400.926" x="220.143" y="1128.25">
<feGaussianBlur in="SourceGraphic" result="Blur" stdDeviation="16.1822"/>
</filter>
<filter color-interpolation-filters="sRGB" filterUnits="userSpaceOnUse" height="107.288" id="Filter_37" width="966.994" x="187.837" y="1135.38">
<feGaussianBlur in="SourceGraphic" result="Blur" stdDeviation="16.1822"/>
</filter>
<filter color-interpolation-filters="sRGB" filterUnits="userSpaceOnUse" height="96.5005" id="Filter_38" width="135.02" x="604.092" y="1123.3">
<feGaussianBlur in="SourceGraphic" result="Blur" stdDeviation="16.1822"/>
</filter>
<filter color-interpolation-filters="sRGB" filterUnits="userSpaceOnUse" height="96.793" id="Filter_39" width="402.169" x="549.42" y="1057.45">
<feGaussianBlur in="SourceGraphic" result="Blur" stdDeviation="16.1822"/>
</filter>
<filter color-interpolation-filters="sRGB" filterUnits="userSpaceOnUse" height="136.262" id="Filter_40" width="802.271" x="246.237" y="1021.42">
<feGaussianBlur in="SourceGraphic" result="Blur" stdDeviation="16.1822"/>
</filter>
</defs>
<clipPath id="ArtboardFrame">
<rect height="1289.92" width="1275.75" x="0" y="0"/>
</clipPath>
<g clip-path="url(#ArtboardFrame)" id="Ebene-1" vectornator:layerName="Ebene 1">
<path d="M107.832 13.4687L1193.95 13.4687C1230.66 13.4687 1260.41 43.9166 1260.41 81.4759L1260.41 1164.51C1260.41 1202.07 1230.66 1232.52 1193.95 1232.52L107.832 1232.52C71.1227 1232.52 41.3643 1202.07 41.3643 1164.51L41.3643 81.4759C41.3643 43.9166 71.1227 13.4687 107.832 13.4687Z" fill="#79726c" fill-rule="nonzero" filter="url(#Filter)" stroke="#7e7e75" stroke-linecap="butt" stroke-linejoin="round" stroke-width="10" vectornator:shadowAngle="2.31054" vectornator:shadowColor="#000000" vectornator:shadowOffset="46.8151" vectornator:shadowOpacity="0.333" vectornator:shadowRadius="27.4658"/>
<path d="M288.578 170.409L1013.2 170.409C1047.96 170.409 1076.14 201.207 1076.14 239.199L1076.14 952.118C1076.14 990.11 1047.96 1020.91 1013.2 1020.91L288.578 1020.91C253.818 1020.91 225.639 990.11 225.639 952.118L225.639 239.199C225.639 201.207 253.818 170.409 288.578 170.409Z" fill="#786d65" fill-rule="nonzero" opacity="1" stroke="#b0b19e" stroke-linecap="butt" stroke-linejoin="round" stroke-opacity="0.362613" stroke-width="10"/>
<g filter="url(#Filter_2)" opacity="0.274647" vectornator:blur="61.4341">
<path d="M404.625 58.875C400.814 58.8521 396.996 59.0117 393.188 59.125C386.676 59.3186 380.195 59.5725 373.688 59.875C365.891 60.2375 358.072 60.691 350.281 61.1562C345.928 61.4162 341.564 61.6386 337.219 62C332.993 62.3515 328.914 63.7009 324.688 63.9688C310.716 64.8541 296.695 64.0085 282.719 64.7812C277.896 65.0479 273.046 65.4708 268.281 66.2812C256.754 68.242 246.077 73.3204 235.031 76.9375C232.393 77.8008 230.949 80.6425 231.812 83.2812C232.676 85.92 235.518 87.3321 238.156 86.4688C242.477 85.0563 246.742 83.4951 251 81.9062C257.183 79.5994 263.437 77.3145 269.969 76.2188C275.086 75.3603 280.321 75.001 285.5 74.7812C298.774 74.2181 312.079 75.0021 325.344 74.1875C329.646 73.9233 333.773 72.5858 338.062 72.25C342.33 71.9159 346.601 71.7361 350.875 71.5C358.624 71.072 366.402 70.6781 374.156 70.3438C380.606 70.0656 387.046 69.8268 393.5 69.6562C397.187 69.5588 400.874 69.4416 404.562 69.4688C421.989 69.5972 439.287 72.348 456.562 74.3438C459.476 74.6787 462.103 72.6008 462.438 69.6875C462.772 66.7742 460.694 64.1162 457.781 63.7812C440.123 61.7603 422.436 58.9819 404.625 58.875Z" fill="#ededdb" fill-opacity="0.362613" stroke="none"/>
</g>
<g filter="url(#Filter_3)" opacity="0.274647" vectornator:blur="61.4341">
<path d="M567.25 70.5312C560.349 70.6286 553.471 70.9094 546.562 71.1562C531.185 71.7057 515.781 72.2298 500.406 72.8438C463.333 74.3241 426.317 76.4793 389.312 79.1875C374.711 80.2561 360.13 81.6273 345.625 83.625C341.467 84.1977 337.327 84.8686 333.188 85.5625C330.01 86.0951 326.794 86.5794 323.719 87.5625C314.875 90.3896 307.581 96.3688 299.406 100.562C296.936 101.83 295.951 104.842 297.219 107.312C298.486 109.783 301.53 110.767 304 109.5C308.294 107.297 312.306 104.67 316.438 102.188C319.718 100.216 323.12 98.2957 326.781 97.125C329.715 96.1868 332.844 95.8194 335.875 95.3125C339.917 94.6365 343.94 94.0228 348 93.4688C361.949 91.5654 375.991 90.2901 390.031 89.2812C427.387 86.597 464.793 84.6053 502.219 83.2188C517.582 82.6496 532.947 82.1408 548.312 81.625C561.293 81.1893 574.243 80.6344 587.219 81.5625C603.61 82.735 619.655 85.9518 635.375 90.6875C638.183 91.5324 641.155 89.9331 642 87.125C642.845 84.3169 641.246 81.3449 638.438 80.5C621.965 75.5503 605.141 72.2163 587.969 71C581.062 70.5108 574.151 70.4339 567.25 70.5312Z" fill="#ededdb" fill-opacity="0.362613" stroke="none"/>
</g>
<g filter="url(#Filter_4)" opacity="0.441314" vectornator:blur="32.3643">
<path d="M120.5 32.6875C115.136 33.1752 109.643 32.1688 104.469 34.0938C102.207 34.9351 100.196 36.3331 98.2188 37.6875C95.4072 39.6131 92.7191 41.7047 90.0938 43.875C81.5037 50.9761 73.7458 59.0067 65.25 66.2188C63.1318 68.0136 62.8614 71.1631 64.6562 73.2812C66.4511 75.3994 69.6318 75.6699 71.75 73.875C80.2024 66.7252 87.9786 58.8284 96.625 51.9062C99.044 49.9697 101.516 48.0973 104.094 46.375C105.36 45.5289 106.675 44.5264 108.125 44C110.34 43.1956 112.919 43.3989 115.219 43.4375C117.304 43.4725 119.359 43.4566 121.438 43.2812C124.359 43.0262 126.505 40.4214 126.25 37.5C125.995 34.5786 123.421 32.4324 120.5 32.6875Z" fill="#ededdb" fill-opacity="0.362613" stroke="none"/>
</g>
<g filter="url(#Filter_5)" opacity="0.441314" vectornator:blur="32.3643">
<path d="M168.094 28.75C166.082 28.7663 164.071 28.8861 162.062 29.125C158.806 29.5123 155.628 30.3006 152.469 31.1562C148.741 32.1658 145.061 33.3151 141.406 34.5625C128.665 38.911 116.462 44.5451 104.531 50.75C103.255 51.4135 101.985 52.0991 100.719 52.7812C99.4576 53.4608 98.1897 54.1478 96.9375 54.8438C96.117 55.2997 95.3205 55.7627 94.5 56.2188C92.9695 57.0694 91.1121 57.9617 90.375 59.6875C90.1168 60.2921 89.8686 60.9055 89.8438 61.5625C89.8123 62.3928 89.9191 63.2562 90.2188 64.0312C90.4888 64.7297 90.9916 65.3251 91.5 65.875C91.8239 66.2254 92.2751 66.4476 92.6875 66.6875C93.8339 67.3543 95.2677 67.4678 96.5625 67.4688C101.491 67.4724 106.357 66.3554 111.281 66.3125C114.058 66.2873 116.306 64.0263 116.281 61.25C116.266 59.5706 115.367 58.1827 114.094 57.2812C116.193 56.2241 118.25 55.1 120.375 54.0938C129.922 49.572 139.753 45.5764 149.875 42.5312C153.788 41.3542 157.797 40.1124 161.844 39.5C164.224 39.1398 166.626 39.0343 169.031 39.0625C175.927 39.1434 182.754 40.4182 189.562 41.375C193.784 41.9683 198.032 42.2237 202.188 43.2188C208.017 44.6145 213.658 46.7737 219.438 48.3438C224.593 49.7441 229.948 50.2427 235.062 51.7812C236.83 52.313 238.494 53.1494 240.156 53.9375C242.288 54.9482 244.431 55.9215 246.688 56.625C251.848 58.2335 257.22 59.2319 262.531 60.1875C266.828 60.9606 271.095 61.7641 275.375 62.625C278.25 63.2016 281.048 61.344 281.625 58.4688C282.202 55.5935 280.344 52.7953 277.469 52.2188C273.116 51.3486 268.744 50.5308 264.375 49.75C259.495 48.8779 254.556 48.0011 249.812 46.5312C245.766 45.2773 242.186 42.8918 238.125 41.6562C232.905 40.0682 227.422 39.5663 222.156 38.1562C215.869 36.4726 209.782 34.1412 203.406 32.7812C200.337 32.1267 197.266 31.8371 194.156 31.4688C191.477 31.1514 188.796 30.7578 186.125 30.375C180.158 29.5196 174.129 28.7011 168.094 28.75Z" fill="#ededdb" fill-opacity="0.362613" stroke="none"/>
</g>
<g filter="url(#Filter_6)" opacity="0.441314" vectornator:blur="32.3643">
<path d="M351.25 34.625C338.8 34.4909 326.351 34.6108 313.906 34.8125C299.771 35.0416 285.635 35.5358 271.5 35.7188C259.323 35.8764 247.143 35.0735 234.969 35.4062C230.258 35.535 225.618 35.9582 220.938 36.4688C218.777 36.7044 216.591 36.8931 214.438 37.1875C211.754 37.5544 209.11 38.0597 206.438 38.5C204.109 38.8836 201.793 39.3635 199.469 39.7812C199.459 39.7831 199.448 39.7794 199.438 39.7812C196.249 39.8087 193.056 39.8269 189.875 40.0625C185.631 40.3767 181.416 41.0357 177.188 41.5C168.602 42.4427 159.908 43.4115 151.938 46.9688C150.805 47.4741 149.387 48.2484 148.75 49.3438C148.387 49.9682 147.985 50.6258 147.906 51.3438C147.795 52.3547 147.868 53.4203 148.219 54.375C148.519 55.1928 149.164 55.854 149.781 56.4688C150.129 56.815 150.622 57.0026 151.062 57.2188C152.565 57.9558 154.502 57.8316 156.125 57.75C161.538 57.4777 166.917 56.6078 172.281 55.875C174.446 55.5793 176.586 55.2653 178.719 54.7812C182.824 53.8496 186.841 52.556 190.969 51.7188C194.34 51.0349 197.737 50.476 201.125 49.875C202.605 49.8714 204.084 49.8385 205.562 49.8438C211.526 49.8649 217.477 49.9584 223.438 50.1562C240.276 50.7152 257.085 52.1002 273.75 54.5938C276.496 55.0049 279.058 53.1208 279.469 50.375C279.73 48.6278 278.98 47.0282 277.75 45.9375C286.323 45.7859 294.896 45.5916 303.469 45.4375C329.876 44.9629 356.333 44.7558 382.719 46.125C391.727 46.5925 400.729 47.1766 409.688 48.25C421.111 49.6187 432.459 51.5104 443.875 52.9375C455.348 54.3718 466.892 55.0314 478.406 56.0312C484.084 56.5242 489.748 57.1412 495.406 57.8125C498.318 58.1573 500.968 56.0996 501.312 53.1875C501.657 50.2754 499.568 47.626 496.656 47.2812C490.887 46.5997 485.101 45.9684 479.312 45.4688C467.931 44.4863 456.528 43.8507 445.188 42.4375C433.753 41.0126 422.379 39.1151 410.938 37.75C403.51 36.8639 396.06 36.3159 388.594 35.875C376.165 35.141 363.7 34.7591 351.25 34.625Z" fill="#ededdb" fill-opacity="0.362613" stroke="none"/>
</g>
<g filter="url(#Filter_7)" opacity="0.441314" vectornator:blur="32.3643">
<path d="M502.844 30.625C497.102 30.5749 491.36 30.7723 485.625 31.0312C474.31 31.5421 463.028 32.3884 451.719 33C438.046 33.7394 424.347 33.9208 410.656 34C386.802 34.1381 362.948 33.8183 339.094 33.75C331.119 33.7272 323.162 33.7494 315.188 33.8125C312.531 33.8335 309.876 33.8456 307.219 33.875C305.575 33.8932 303.919 33.8881 302.281 34.0625C299.123 34.3988 296.078 35.3654 292.969 35.9688C290.243 36.4979 288.44 39.1183 288.969 41.8438C289.498 44.5692 292.149 46.3417 294.875 45.8125C297.687 45.2662 300.491 44.3615 303.344 44.0625C305.096 43.8789 306.866 43.9562 308.625 43.9375C311.266 43.9095 313.921 43.8864 316.562 43.875C324.504 43.8408 332.433 43.8074 340.375 43.8438C363.813 43.9511 387.249 44.3277 410.688 44.2812C424.546 44.2538 438.407 44.136 452.25 43.4375C463.531 42.8683 474.808 42.0402 486.094 41.5625C491.643 41.3276 497.194 41.134 502.75 41.1875C520.12 41.3546 537.357 43.4754 554.5 46.125C557.398 46.5716 560.116 44.5858 560.562 41.6875C561.009 38.7892 558.992 36.1029 556.094 35.6562C538.445 32.9449 520.723 30.7808 502.844 30.625Z" fill="#ededdb" fill-opacity="0.362613" stroke="none"/>
</g>
<g filter="url(#Filter_8)" opacity="0.441314" vectornator:blur="32.3643">
<path d="M271.125 144.406C270.109 144.367 269.086 144.529 268.125 144.781C264.995 145.603 262.015 147.11 259.156 148.594C252.725 151.933 246.902 156.322 241.438 161.062C234.145 167.389 227.43 174.451 221.156 181.781C200.039 206.458 184.281 236.719 181.938 269.531C181.527 275.273 181.543 281.068 181.906 286.812C182.165 290.904 182.592 294.968 183.344 299C183.525 299.973 183.711 300.88 183.938 301.844C184.375 303.707 184.759 305.807 185.781 307.469C186.142 308.055 186.696 308.518 187.188 309C187.286 309.097 187.411 309.151 187.531 309.219C188.22 309.603 188.93 309.851 189.719 309.938C190.306 310.002 190.895 309.977 191.469 309.844C191.729 309.783 192.024 309.675 192.062 309.656C192.075 309.651 192.081 309.63 192.094 309.625C192.238 309.565 192.394 309.512 192.531 309.438C192.802 309.291 193.093 309.147 193.344 308.969C194 308.502 194.5 307.864 194.875 307.156C195.699 305.601 195.588 303.763 195.5 302.062C195.421 300.548 195.312 299.014 195.219 297.5C195.046 294.687 195.153 291.878 195.031 289.062C194.88 285.553 194.553 282.041 194.406 278.531C194.261 275.058 194.304 271.549 194.969 268.125C195.477 265.509 196.449 263.013 197.312 260.5C198.528 256.965 199.764 253.442 201.062 249.938C206.395 235.549 212.569 221.403 220.406 208.188C222.004 205.493 223.664 202.822 225.406 200.219C226.234 198.982 227.029 197.71 227.938 196.531C229.203 194.89 230.701 193.375 232.062 191.812C232.823 190.94 233.547 189.964 234.375 189.156C234.913 188.631 235.547 188.199 236.125 187.719C237.146 186.87 238.167 186.005 239.188 185.156C240.16 184.348 241.093 183.493 242.094 182.719C243.462 181.66 244.939 180.698 246.344 179.688C250.748 176.517 255.211 173.452 259.5 170.125C262.942 167.455 261.222 168.483 273.562 155.75C274.354 155.325 275.086 154.787 275.594 153.969C276.746 151.021 276.633 152.123 276.75 151.031C277.004 148.668 276.037 146.55 274.031 145.25C273.155 144.682 272.141 144.446 271.125 144.406Z" fill="#ededdb" fill-opacity="0.362613" stroke="none"/>
</g>
<g filter="url(#Filter_9)" opacity="0.441314" vectornator:blur="32.3643">
<path d="M298.5 130.156C297.854 130.064 297.202 130.104 296.531 130.281C287.985 132.544 278.927 132.985 270.781 136.656C267.61 138.086 264.656 140.039 261.75 141.938C257.597 144.651 253.514 147.447 249.531 150.406C237.901 159.048 226.924 168.912 218 180.375C211.557 188.651 206.28 197.748 201.5 207.062C199.148 211.645 196.912 216.293 194.688 220.938C193.375 223.679 191.812 226.399 191 229.344C190.017 232.91 190.095 236.62 189.906 240.281C189.775 242.815 189.399 245.32 189.156 247.844C188.801 251.536 188.604 255.261 188.5 258.969C188.46 260.414 188.318 261.965 188.531 263.406C188.711 264.625 189.148 265.793 190.094 266.656C190.395 266.932 190.721 267.182 191.062 267.406C191.267 267.54 191.499 267.643 191.719 267.75C191.727 267.754 191.742 267.746 191.75 267.75C191.778 267.764 192 267.85 192.188 267.906C192.559 268.018 192.925 268.099 193.312 268.125C194.778 268.224 196.231 267.683 197.281 266.656C198.81 265.163 198.977 262.876 199.281 260.875C199.631 258.571 199.916 256.284 200.188 253.969C201.317 244.333 201.931 234.494 204.875 225.188C208.989 212.182 217.753 201.082 227.25 191.531C230.391 188.373 233.695 185.353 237.062 182.438C240.942 179.078 244.945 175.895 249.25 173.094C254.391 169.749 259.844 166.937 265.562 164.719C283.342 157.821 302.677 157.099 321.5 158.344C333.691 159.15 345.81 160.725 357.938 162.156C366.568 163.175 375.21 164.055 383.875 164.719C386.799 164.942 389.371 162.768 389.594 159.844C389.817 156.92 387.611 154.38 384.688 154.156C376.166 153.508 367.675 152.622 359.188 151.625C329.04 148.084 297.603 143.356 268 152.719C264.77 153.74 261.642 155.064 258.531 156.406C261.415 154.35 264.284 152.283 267.25 150.344C269.713 148.733 272.216 147.024 274.906 145.812C278.626 144.137 282.668 143.312 286.656 142.562C290.82 141.78 294.994 141.085 299.094 140C301.778 139.29 303.367 136.528 302.656 133.844C302.123 131.831 300.439 130.432 298.5 130.156Z" fill="#ededdb" fill-opacity="0.362613" stroke="none"/>
</g>
<g filter="url(#Filter_10)" opacity="0.441314" vectornator:blur="32.3643">
<path d="M369.688 137.312C356.685 137.506 343.7 138.916 330.938 141.406C324.572 142.649 318.08 143.524 311.844 145.344C308.879 146.209 305.96 147.289 303.219 148.719C301.813 149.452 300.39 150.223 299.25 151.344C297.927 152.644 297.078 154.469 296.469 156.406C294.12 156.444 291.775 156.427 289.469 156.969C286.589 157.645 283.975 159.205 281.562 160.875C279.868 162.049 278.031 163.389 277.094 165.281C276.692 166.093 276.445 167.058 276.5 167.969C276.564 169.025 276.791 169.855 277.375 170.75C279.283 173.675 282.481 173.201 285.469 173.156C286.509 173.141 287.522 173.141 288.562 173.125C289.603 173.109 290.647 173.078 291.688 173.062C295.419 173.006 299.152 172.743 302.875 172.5C314.099 171.768 325.263 170.52 336.469 169.562C341.805 169.561 347.132 169.577 352.469 169.594C363.23 169.628 373.99 169.86 384.75 169.969C389.323 170.418 393.891 170.902 398.469 171.25C399.761 171.348 400.956 170.923 401.906 170.188C419.029 170.407 436.158 170.52 453.281 170.812C467.156 171.05 481.032 171.202 494.906 171.469C509.42 171.748 523.954 172.359 538.438 173.344C542.325 173.608 546.174 174.058 550.062 174.312C551.377 174.399 552.664 174.777 553.938 175.094C557.352 175.942 561.466 176.977 564.562 174.688C565.023 174.347 565.388 173.976 565.75 173.531C566.284 172.875 566.684 172.118 566.938 171.312C567.176 170.552 567.286 169.734 567.25 168.938C567.182 167.436 566.746 166.046 565.812 164.844C562.985 161.2 558.255 162.044 554.344 162.688C553.397 162.843 552.119 163.203 551.125 163.062C547.164 162.501 543.267 161.514 539.281 161.125C533.872 160.598 528.425 160.491 523 160.219C515.378 159.836 507.779 159.393 500.156 159.031C466.556 157.438 432.911 156.654 399.281 156C376.789 155.562 354.279 154.994 331.781 155.125C326.157 155.158 320.53 155.31 314.906 155.5C316.654 154.995 318.412 154.56 320.188 154.188C323.271 153.54 326.403 153.016 329.5 152.438C333.158 151.754 336.792 151.049 340.469 150.469C345.865 149.617 351.304 148.959 356.75 148.531C363.28 148.018 369.826 147.819 376.375 147.938C379.525 147.994 382.706 148.048 385.844 148.344C390.446 148.777 394.937 149.819 399.469 150.688C402.7 151.307 405.948 151.856 409.219 152.219C426.997 154.193 444.863 155.068 462.719 156C465.647 156.152 468.129 153.897 468.281 150.969C468.434 148.04 466.21 145.527 463.281 145.375C445.264 144.439 427.137 143.75 409.219 141.531C403.51 140.824 397.92 139.468 392.25 138.531C384.805 137.301 377.218 137.2 369.688 137.312Z" fill="#ededdb" fill-opacity="0.362613" stroke="none"/>
</g>
<g filter="url(#Filter_11)" opacity="0.441314" vectornator:blur="32.3643">
<path d="M1006.84 180C1005.58 180.219 1004.39 180.928 1003.59 182.062C1003.53 182.158 1003.53 182.277 1003.47 182.375C1001.21 182.662 998.982 183.166 997.062 184.406C996.02 185.08 995.095 185.916 994.344 186.906C993.673 187.791 993.141 188.795 992.781 189.844C990.973 195.116 994.575 199.529 998.562 202.5C1000.25 203.758 1002.05 204.827 1003.81 205.969C1005.77 207.234 1007.72 208.438 1009.88 209.344C1013.26 210.765 1016.86 211.678 1020.22 213.156C1022.56 214.184 1024.74 215.554 1026.88 216.938C1028.78 218.17 1030.62 219.49 1032.44 220.844C1033.26 221.457 1034.01 222.15 1034.81 222.781C1035.17 225.041 1035.75 227.268 1036.66 229.312C1038.2 232.797 1040.46 235.878 1042.09 239.312C1043.02 241.263 1043.78 243.313 1044.59 245.312C1046.55 250.092 1048.32 254.949 1049.88 259.875C1050.16 260.783 1050.38 261.713 1050.66 262.625C1050.5 265.101 1050.39 267.574 1050.66 270.062C1050.75 270.918 1050.91 271.878 1051.09 272.719C1051.59 275.031 1052.59 278.15 1054.5 280C1054.6 280.91 1054.77 281.818 1054.78 282.75C1054.94 294.317 1050.22 305.432 1046.22 316.062C1045.19 318.807 1046.6 321.842 1049.34 322.875C1052.09 323.908 1055.12 322.526 1056.16 319.781C1060.82 307.395 1065.98 294.515 1065.31 281.031C1066.37 280.836 1067.4 280.383 1068.38 279.656C1069.19 279.049 1069.8 278.466 1070.38 277.625C1073.94 272.418 1070.23 266.392 1068.81 261.188C1067.92 257.91 1067.17 254.614 1066.12 251.375C1065.79 250.346 1065.39 249.335 1065.03 248.312C1064.99 248.063 1064.94 247.812 1064.91 247.562C1064.07 242.037 1062.9 236.614 1061.38 231.25C1061.31 228.057 1061.04 224.874 1060.16 221.781C1058.46 215.878 1054.38 211.097 1049.88 206.969C1047.4 203.53 1044.71 200.229 1041.59 197.312C1037.45 193.436 1032.85 190.265 1027.94 187.438C1024.96 185.724 1021.92 183.996 1018.59 183.062C1016.71 182.534 1014.8 182.429 1012.88 182.312C1012.14 181.816 1011.35 181.389 1010.62 180.875C1009.49 180.075 1008.11 179.781 1006.84 180ZM1005.03 192.438C1006.7 192.289 1008.38 192.428 1010.06 192.5C1013.97 195.014 1017.95 197.427 1021.97 199.781C1026.92 202.679 1031.8 205.714 1036.44 209.094C1036.19 209.538 1036 209.993 1035.81 210.469C1033.69 208.991 1031.53 207.599 1029.31 206.281C1026.69 204.724 1023.96 203.444 1021.09 202.406C1018.49 201.465 1015.8 200.716 1013.28 199.562C1011.46 198.731 1009.87 197.597 1008.19 196.531C1006.59 195.52 1004.57 194.305 1003.22 192.812C1003.24 192.805 1003.26 192.788 1003.28 192.781C1003.85 192.6 1004.44 192.49 1005.03 192.438Z" fill="#ededdb" fill-opacity="0.362613" stroke="none"/>
</g>
<g filter="url(#Filter_12)" opacity="0.441314" vectornator:blur="32.3643">
<path d="M244.625 880.75C243.764 880.88 242.9 881.171 242.125 881.656C237.244 884.713 238.604 891.009 238.5 895.812C238.447 898.244 238.151 900.655 238.125 903.094C238.106 904.845 238.143 906.625 238.219 908.375C238.513 915.204 239.354 921.984 240.688 928.688C242.143 936.001 244.15 943.187 246 950.406C247.724 957.134 249.42 963.909 251.562 970.5C251.925 972.113 252.29 973.721 252.594 975.344C253.168 978.417 253.662 981.513 254.5 984.531C255.607 988.518 257.602 992.346 260.938 994.906C262.501 996.106 264.352 996.836 266.281 996.688C266.29 996.699 266.303 996.707 266.312 996.719C268.413 999.412 269.959 1002.56 272.656 1004.75C274.977 1006.63 277.986 1007.45 280.875 1006.44C281.344 1006.27 281.689 1005.87 282.125 1005.62C284.903 1007.69 287.797 1009.59 290.906 1011.19C294.318 1012.94 297.963 1014.51 301.688 1015.47C305.484 1016.44 309.472 1016.61 313.375 1016.59C320.061 1016.57 326.682 1015.74 333.344 1015.31C347.719 1014.39 362.099 1014.14 376.5 1014.09C379.432 1014.08 381.822 1011.68 381.812 1008.75C381.803 1005.82 379.401 1003.46 376.469 1003.47C361.853 1003.52 347.245 1003.78 332.656 1004.72C326.211 1005.13 319.812 1005.98 313.344 1006C310.345 1006.01 307.235 1005.93 304.312 1005.19C301.888 1004.57 299.507 1003.57 297.25 1002.5C293.652 1000.8 290.376 998.549 287.25 996.094C287.26 993.031 286.544 989.819 286.125 986.938C285.841 984.986 285.694 983.041 285.375 981.094C283.496 969.602 278.781 959.035 273.125 948.938C272.401 947.645 271.643 946.38 270.906 945.094C268.81 937.124 266.464 929.226 264.281 921.281C264.315 921.203 264.376 921.144 264.406 921.062C265.19 918.957 264.43 916.719 262.75 915.406C262.351 913.828 261.908 912.25 261.594 910.656C260.849 906.883 260.351 903.039 259.25 899.344C258.674 897.411 257.902 895.555 257.312 893.625C256.173 889.896 254.978 885.798 251.938 883.125C249.998 881.42 247.209 880.359 244.625 880.75ZM248.469 899.344C249.064 901.086 249.707 902.82 250.125 904.625C250.494 906.221 250.773 907.825 251.062 909.438C250.277 909.289 249.475 909.306 248.656 909.438C248.533 907.364 248.325 905.295 248.344 903.219C248.356 901.922 248.397 900.634 248.469 899.344ZM259.875 946.938C260.508 948.021 261.153 949.101 261.781 950.188C262.077 951.382 262.478 952.55 262.75 953.75C263.5 957.059 263.935 960.401 264.406 963.75C263.034 960.149 261.873 956.481 260.938 952.781C260.45 950.852 260.231 948.882 259.875 946.938Z" fill="#ededdb" fill-opacity="0.362613" stroke="none"/>
</g>
<g filter="url(#Filter_13)" opacity="0.441314" vectornator:blur="32.3643">
<path d="M466.656 982.094C459.98 982.206 453.334 983.167 446.75 984.312C435.253 984.935 423.759 985.653 412.25 986C402.723 986.287 393.163 986.29 383.656 985.562C374.381 984.853 365.146 983.715 355.844 983.406C350.742 983.237 345.684 983.47 340.594 983.781C336.227 984.048 331.841 984.147 327.531 984.969C323.901 985.661 320.35 986.858 317.25 988.906C316.519 989.389 315.76 989.917 315.156 990.562C314.033 990.654 312.903 990.644 311.781 990.75C304.478 991.441 297.168 992.382 290.062 994.25C287.353 994.963 284.638 995.76 282.062 996.875C279.149 998.136 276.04 1000.16 275.938 1003.72C275.924 1004.19 275.965 1004.67 276.062 1005.12C276.157 1005.57 276.307 1005.99 276.5 1006.41C276.68 1006.79 276.903 1007.16 277.156 1007.5C278.213 1008.91 279.902 1009.67 281.5 1010.28C283.517 1011.05 285.611 1011.54 287.75 1011.81C296.7 1012.96 305.517 1010.23 314.438 1010.09C317.214 1010.05 319.45 1007.74 319.406 1004.97C319.374 1002.93 318.104 1001.23 316.344 1000.47C316.864 1000.43 317.386 1000.41 317.906 1000.38C318.896 1000.69 319.925 1000.92 320.938 1001.03C323.371 1001.29 325.837 1001.29 328.281 1001.34C332.041 1001.43 335.732 1001.98 339.469 1002.38C343.568 1002.81 347.698 1003.09 351.812 1003.34C364.75 1004.13 377.732 1004.1 390.688 1004C403.987 1003.9 417.308 1003.61 430.594 1003C439.618 1002.58 448.614 1001.95 457.625 1001.31C461.006 1001.08 464.379 1000.89 467.75 1000.53C469.707 1000.32 471.653 1000.04 473.625 1000.03C479.194 1000.01 484.994 1000.86 490.312 998.719C492.164 997.973 494.131 996.644 495.594 995C505.418 995.743 515.242 996.822 525.031 997.906C527.946 998.229 530.553 996.133 530.875 993.219C531.197 990.304 529.102 987.666 526.188 987.344C515.2 986.131 504.185 984.998 493.156 984.25C492.423 983.966 491.696 983.65 490.938 983.5C487.805 982.879 484.556 982.924 481.375 982.844C476.451 982.72 471.591 982.01 466.656 982.094Z" fill="#ededdb" fill-opacity="0.362613" stroke="none"/>
</g>
<g filter="url(#Filter_14)" opacity="0.441314" vectornator:blur="32.3643">
<path d="M1051.97 983C1047.75 982.927 1043.65 984.396 1039.5 984.938C1037.44 985.205 1035.32 985.156 1033.25 985.25C1030.28 985.385 1027.31 985.581 1024.34 985.781C1015.85 986.353 1007.38 986.95 998.875 987.406C984.168 988.196 969.421 988.944 954.844 991.156C948.552 992.111 942.355 993.714 936.281 995.594C935.264 995.909 934.259 996.311 933.25 996.656C932.35 996.619 931.439 996.541 930.562 996.719C930.097 996.813 929.496 996.996 929.094 997.219C928.663 997.457 928.18 997.673 927.844 998.031C927.444 998.457 927.151 998.97 926.844 999.469C926.708 999.561 926.536 999.588 926.406 999.688C925.942 1000.04 925.399 1000.53 925.062 1001C924.776 1001.4 924.471 1001.81 924.312 1002.28C924.073 1002.99 923.843 1003.72 923.875 1004.47C923.911 1005.3 924.144 1006.13 924.5 1006.88C924.792 1007.49 925.29 1008 925.781 1008.47C926.942 1009.58 928.713 1009.92 930.25 1010.06C941.814 1011.1 953.448 1010.18 964.938 1008.75C967.948 1008.38 970.961 1007.96 973.969 1007.56C987.222 1007.29 1000.5 1006.55 1013.62 1004.69C1019.52 1003.85 1025.37 1002.81 1031.19 1001.56C1033.26 1001.12 1035.31 1000.61 1037.38 1000.16C1038.99 999.803 1040.63 999.696 1042.28 999.594C1048.14 999.232 1054.69 998.705 1057.97 993.031C1058.64 991.864 1059.12 990.554 1059.09 989.188C1059.09 988.938 1058.97 988.765 1058.94 988.531C1058.93 988.434 1058.98 988.348 1058.97 988.25C1058.93 987.944 1058.77 987.692 1058.69 987.406C1058.56 987.019 1058.47 986.616 1058.28 986.281C1058.28 986.274 1058.29 986.257 1058.28 986.25C1058.18 986.066 1058 985.95 1057.88 985.781C1056.58 984.021 1054.4 983.042 1051.97 983Z" fill="#ededdb" fill-opacity="0.362613" stroke="none"/>
</g>
<g filter="url(#Filter_15)" opacity="0.441314" vectornator:blur="32.3643">
<path d="M1039 863.031C1037.74 863.132 1036.49 863.484 1035.38 864.094C1028.68 867.767 1031.03 876.36 1032 882.375C1032.13 883.187 1032.2 884.022 1032.25 884.844C1032.39 887.422 1032.56 889.991 1032.81 892.562C1033.07 895.134 1033.38 897.692 1033.75 900.25C1034.84 907.73 1036.34 915.126 1037.5 922.594C1038.27 927.577 1038.83 932.606 1039.31 937.625C1040.37 948.735 1040.83 959.906 1040.66 971.062C1040.65 971.146 1040.63 971.229 1040.62 971.312C1040.34 974.71 1040.22 978.112 1039.84 981.5C1039.57 983.929 1038.78 986.3 1038.44 988.719C1038.13 990.842 1038.08 992.964 1038.59 995.062C1038.67 995.358 1038.84 995.564 1038.94 995.844C1037.94 1003.97 1036.63 1012.06 1034.84 1020.06C1034.21 1022.92 1036.01 1025.74 1038.88 1026.38C1041.74 1027.01 1044.55 1025.24 1045.19 1022.38C1046.62 1015.93 1047.76 1009.43 1048.72 1002.91C1049.12 1002.93 1049.5 1003.04 1049.91 1003.03C1051.76 1002.97 1053.62 1002.59 1055.34 1001.91C1056.82 1001.32 1058.2 1000.51 1059.41 999.469C1061.17 997.945 1062.27 995.973 1063 993.781C1064.88 988.138 1063.76 982.258 1063 976.531C1062.85 975.434 1062.72 974.172 1062.66 973.062C1062.52 970.821 1062.59 968.557 1062.62 966.312C1062.67 963.131 1062.75 959.962 1062.81 956.781C1063.01 946.637 1063.14 936.455 1062.16 926.344C1062.15 926.323 1062.16 926.302 1062.16 926.281C1063.86 918.122 1065.25 909.91 1065.44 901.562C1065.61 893.856 1064.86 885.979 1061.94 878.781C1060.82 876.032 1059.54 873.003 1056.22 872.469C1055.72 872.389 1055.22 872.386 1054.72 872.438C1052.9 872.624 1051.67 873.703 1050.69 875.031C1050.03 872.938 1049.33 870.867 1048.28 868.938C1046.4 865.46 1043.15 862.7 1039 863.031ZM1042.81 885C1043.24 886.256 1043.72 887.502 1044 888.812C1044.61 891.652 1044.96 894.548 1045.47 897.406C1045.47 897.416 1045.47 897.427 1045.47 897.438C1045.38 898.54 1045.27 899.644 1045.22 900.75C1045.16 901.999 1045.2 903.25 1045.19 904.5C1044.86 902.575 1044.5 900.651 1044.22 898.719C1043.7 895.128 1043.26 891.526 1043 887.906C1042.93 886.94 1042.86 885.968 1042.81 885ZM1052.34 973.344C1052.39 974.175 1052.41 975.016 1052.5 975.844C1052.64 977.114 1052.85 978.576 1053.03 979.844C1053.5 983.126 1054.1 986.696 1053.25 989.969C1052.66 984.433 1052.02 978.88 1052.34 973.344Z" fill="#ededdb" fill-opacity="0.362613" stroke="none"/>
</g>
<g filter="url(#Filter_16)" opacity="0.441314" vectornator:blur="32.3643">
<path d="M318.281 183.5C304.095 186.381 289.888 189.517 276.375 194.812C273.45 195.959 270.57 197.207 267.75 198.594C266.429 199.243 265.16 199.98 263.906 200.719C262.547 199.817 260.863 199.404 259 199.75C257.467 200.034 255.927 200.748 254.688 201.688C249.921 205.299 248.742 211.459 247.75 217C247.569 218.01 247.382 219.024 247.188 220.031C246.817 221.948 246.597 223.872 246.406 225.812C244.55 229.08 243.242 232.691 242.438 236.344C241.493 240.634 241.114 245.023 240.969 249.406C240.758 255.736 241.084 262.046 241.719 268.344C242.419 275.286 243.484 282.201 244.562 289.094C244.281 299.209 243.893 309.319 243.656 319.438C243.489 326.6 243.346 333.778 243.094 340.938C242.846 347.985 242.499 355.013 242.281 362.062C242.078 368.638 242.203 375.247 241.781 381.812C241.684 383.332 241.573 384.853 241.531 386.375C241.5 387.492 241.52 388.508 241.562 389.625C241.584 390.184 241.61 390.724 241.656 391.281C241.833 393.407 242.016 395.888 243.375 397.656C243.585 397.929 243.796 398.233 244.094 398.406C244.942 398.9 245.859 399.215 246.75 399.625C247.086 399.78 247.713 399.721 248.062 399.688C248.797 399.616 249.914 399.355 250.469 398.812C250.955 398.337 251.477 397.907 251.938 397.406C252.152 397.173 252.497 396.424 252.594 396.188C253.036 395.108 253.111 393.838 253.219 392.688C253.36 391.182 253.455 389.697 253.531 388.188C253.582 387.173 253.614 386.14 253.656 385.125C253.711 383.821 253.779 382.523 253.812 381.219C253.951 375.905 253.636 370.595 253.781 365.281C253.989 357.641 254.476 350.01 254.906 342.375C255.347 342.377 255.788 342.339 256.219 342.25C259.359 341.599 261.504 337.776 262.594 335.094C265.173 328.749 264.217 321.902 264.594 315.25C264.771 312.123 265.2 308.999 265.438 305.875C265.861 300.295 266.088 294.719 266.219 289.125C266.547 275.031 266.154 260.907 266.062 246.812C266.021 240.489 266.12 234.198 266.156 227.875C266.167 226.07 266.18 224.243 266.156 222.438C268.262 221.558 270.397 220.776 272.594 220.156C282.695 217.305 293.209 216.278 303.312 213.406C305.983 212.647 307.54 209.858 306.781 207.188C306.022 204.517 303.233 202.991 300.562 203.75C289.507 206.89 277.9 207.889 266.969 211.469C268.636 210.127 270.476 209.042 272.406 208.094C275.29 206.677 278.249 205.428 281.25 204.281C293.887 199.453 307.181 196.587 320.406 193.906C323.28 193.323 325.114 190.499 324.531 187.625C323.948 184.751 321.155 182.917 318.281 183.5Z" fill="#ededdb" fill-opacity="0.362613" stroke="none"/>
</g>
<g filter="url(#Filter_17)" opacity="0.441314" vectornator:blur="32.3643">
<path d="M356.188 181.906C354.254 181.875 352.336 181.911 350.406 182.031C349.762 182.071 349.14 182.194 348.5 182.25C346.041 182.217 343.598 182.365 341.156 182.719C327.821 184.651 314.823 188.676 302.312 193.656C292.437 194.777 282.704 196.953 273.656 201.188C267.025 204.291 260.998 208.329 256.125 213.844C254.338 215.866 252.604 218.054 251.375 220.469C249.417 224.315 248.65 228.649 248.219 232.906C247.69 238.125 248.238 243.359 249.344 248.469C250.461 253.634 252.045 258.727 253.938 263.656C255.752 268.382 257.827 273.006 259.75 277.688C260.865 280.4 263.975 281.708 266.688 280.594C269.4 279.479 270.677 276.369 269.562 273.656C268.493 271.055 267.413 268.463 266.312 265.875C264.212 260.937 262.329 255.951 260.875 250.781C258.746 243.21 257.545 235.146 259.938 227.469C260.259 226.439 260.781 225.521 261.312 224.625C261.48 225.136 261.553 225.66 261.812 226.156C264.59 231.474 271.871 234.211 277.625 233.625C279.647 233.419 281.582 232.825 283.406 231.938C287.158 230.112 290.078 227.103 293.562 224.875C295.139 223.867 296.823 223.008 298.438 222.062C301.737 220.131 304.99 218.123 308.25 216.125C312.673 213.415 317.14 210.714 321.719 208.219C322.886 208.353 324.043 208.55 325.219 208.625C327.99 208.8 330.387 206.708 330.562 203.938C330.563 203.927 330.562 203.917 330.562 203.906C331.707 203.408 332.864 202.945 334.031 202.5C335.499 202.424 336.973 202.439 338.438 202.312C342.169 201.99 345.908 201.404 349.656 201.344C354.386 201.268 359.09 202.143 363.812 201.5C366.822 201.09 371.857 199.846 373.281 196.75C373.358 196.583 373.368 196.391 373.438 196.219C373.543 196.223 373.643 196.246 373.75 196.25C375.173 196.303 377.287 196.382 378.531 195.531C379.147 195.111 379.849 194.71 380.219 194.062C380.784 193.074 381.185 191.951 381.219 190.812C381.246 189.89 380.8 189.022 380.406 188.188C380.208 187.767 379.828 187.455 379.5 187.125C379.061 186.682 378.436 186.327 377.875 186.062C375.722 185.047 373.301 184.503 371 183.938C367.558 183.091 364.1 182.415 360.562 182.125C359.107 182.006 357.648 181.93 356.188 181.906ZM300.406 208.75C298.95 209.647 297.456 210.528 296 211.406C292.853 213.304 289.525 214.96 286.531 217.094C284.113 218.818 281.904 220.949 279.281 222.375C277.4 223.398 275.56 223.518 273.531 222.844C272.876 222.626 272.221 222.339 271.656 221.938C271.62 221.912 271.598 221.87 271.562 221.844C272.771 220.763 274.184 219.898 275.594 219.062C277.476 218.321 279.371 217.591 281.25 216.844C287.705 214.276 294.065 211.58 300.406 208.75Z" fill="#ededdb" fill-opacity="0.362613" stroke="none"/>
</g>
<g filter="url(#Filter_18)" opacity="0.441314" vectornator:blur="32.3643">
<path d="M107.469 5.3125C103.619 5.49849 99.6502 7.07536 96.5 9.1875C91.0788 12.8223 86.6981 17.75 82.9688 23.0625C78.8432 28.9394 75.5839 35.2724 72.75 41.8438C65.3107 44.6468 58.086 48.4439 52.75 54.4688C51.0549 56.3826 49.6027 58.4646 48.3438 60.6875C46.0342 64.7656 44.3514 69.1757 43.2188 73.7188C41.8418 79.2415 41.2528 84.9727 41.2188 90.6562C41.1667 99.3505 42.4789 107.965 44.125 116.5C44.0396 131.494 44.9893 146.524 47.6562 161.281C51.1156 180.423 57.3026 198.858 64.6875 216.812C65.8035 219.524 68.8819 220.803 71.5938 219.688C74.3056 218.571 75.616 215.493 74.5 212.781C68.7072 198.713 63.6059 184.368 60.1562 169.531C58.5551 162.645 57.4153 155.641 56.5312 148.625C58.3067 150.779 60.1751 152.862 62.0938 154.875C65.8493 158.815 69.765 162.603 73.1875 166.844C73.565 167.312 73.9365 167.781 74.3125 168.25C74.3293 168.271 74.3584 168.29 74.375 168.312C74.5313 168.518 74.6881 168.732 74.8438 168.938C74.873 168.977 74.8925 169.013 74.9062 169.031C74.9676 169.104 75.0244 169.19 75.0938 169.25C75.5343 169.628 75.9725 170.723 76.4375 170.375C79.072 168.403 80.9735 165.622 83.1875 163.188C83.1961 163.178 83.0398 162.991 83 162.938C82.9948 162.931 83.0052 162.913 83 162.906C82.9686 162.868 82.9358 162.819 82.9062 162.781C82.898 162.771 82.8832 162.761 82.875 162.75C82.8651 162.739 82.8559 162.729 82.8438 162.719C82.8296 162.707 82.8266 162.67 82.8125 162.656C82.7669 162.597 82.7018 162.528 82.6562 162.469C82.6532 162.465 82.6599 162.442 82.6562 162.438C82.5212 162.259 82.3849 162.085 82.25 161.906C82.2319 161.884 82.2057 161.866 82.1875 161.844C81.958 161.54 81.729 161.242 81.5 160.938C79.5737 158.376 77.6603 155.784 75.7812 153.188C72.3713 148.476 69.2714 143.594 67.0625 138.188C65.0587 133.283 63.8304 128.09 63.375 122.812C62.62 114.063 63.9419 104.917 65.5938 96.3125C67.9857 83.8523 72.1219 71.9466 76.5625 60.0938C77.4745 57.6595 78.4388 55.2408 79.375 52.8125C80.7141 52.4604 82.0707 52.0674 83.4375 51.9062C85.8309 51.6241 88.2361 51.8401 90.625 52.0625C91.8142 52.1732 93.0163 52.2861 94.1875 52.5312C96.6431 53.0453 99.0008 53.9556 101.469 54.4375C104.226 54.9758 107.056 54.7506 109.844 54.6562C114.193 54.509 118.799 54.0124 122.375 51.2812C124.756 49.4627 126.452 46.8584 126.594 43.8125C126.709 41.3411 125.917 38.9948 124.969 36.75C124.378 35.3508 123.487 33.8617 123.188 32.3438C121.68 24.6971 122.94 16.1868 117.75 9.6875C115.071 6.33226 111.318 5.12651 107.469 5.3125ZM108.375 15.7188C108.608 15.7181 108.835 15.7347 109.062 15.7812C109.136 15.7962 109.283 15.8611 109.281 15.8438C109.381 15.9578 109.499 16.0693 109.594 16.1875C109.69 16.3078 109.789 16.4344 109.875 16.5625C110.273 17.1586 110.55 17.792 110.781 18.4688C111.437 20.3919 111.638 22.489 111.812 24.5C111.967 26.2826 112.05 28.0841 112.219 29.875C111.033 29.4681 109.695 29.4914 108.469 30.0625C101.335 33.3847 93.7436 35.4253 86.1875 37.5625C86.6904 36.637 87.1455 35.6879 87.6875 34.7812C91.2067 28.895 95.3512 23.0205 100.875 18.8438C102.565 17.5658 104.39 16.5052 106.469 16C107.098 15.8471 107.726 15.7207 108.375 15.7188ZM114.219 38.0938C114.457 38.6569 114.629 39.2546 114.875 39.8125C115.324 40.8302 115.706 41.8557 115.938 42.9375C115.779 43.0733 115.638 43.2221 115.438 43.3125C114.009 43.9565 112.314 44.0419 110.781 44.125C109.451 44.1971 108.112 44.2135 106.781 44.25C105.768 44.2778 104.812 44.3413 103.812 44.1875C102.926 44.0512 102.082 43.7427 101.219 43.5C105.118 42.2535 108.983 40.9258 112.719 39.1875C113.306 38.9139 113.797 38.5365 114.219 38.0938ZM63.4688 66.0938C60.8283 73.7469 58.4503 81.4893 56.6562 89.375C57.9349 81.5326 59.9579 73.751 63.2188 66.5312C63.2836 66.3877 63.4017 66.2392 63.4688 66.0938Z" fill="#ededdb" fill-opacity="0.362613" stroke="none"/>
</g>
<g filter="url(#Filter_19)" opacity="0.441314" vectornator:blur="32.3643">
<path d="M65.7812 695.594C63.0053 695.642 60.7954 697.943 60.8438 700.719C61.3489 730.072 62.3048 759.453 61.9688 788.812C61.6393 817.598 59.6935 846.398 60.75 875.188C61.5768 897.716 65.0119 920.014 67.875 942.344C68.8772 950.16 69.7271 957.971 70.5 965.812C70.789 968.731 73.3943 970.851 76.3125 970.562C79.2307 970.274 81.3827 967.699 81.0938 964.781C80.3036 956.837 79.3974 948.887 78.375 940.969C75.5328 918.958 72.0956 896.987 71.2188 874.781C71.0437 870.347 71.0295 865.906 70.9688 861.469C70.6374 837.271 71.9702 813.101 72.1562 788.906C72.3828 759.454 71.3946 729.977 70.875 700.531C70.8266 697.755 68.5572 695.545 65.7812 695.594Z" fill="#000000" fill-opacity="0.362613" stroke="none"/>
</g>
<g filter="url(#Filter_20)" opacity="0.441314" vectornator:blur="32.3643">
<path d="M51.25 901.594C48.3224 901.425 45.8248 903.666 45.6562 906.594C44.8433 920.819 43.1056 935.02 43.0625 949.281C43.0478 954.141 43.3156 958.988 43.5 963.844C43.7736 971.046 44.0701 978.238 44.4062 985.438C45.337 1005.37 46.4217 1025.3 47.7188 1045.22C48.8002 1061.82 50.1072 1078.42 51.5625 1095C52.4575 1105.19 53.1854 1115.43 54.6562 1125.56C57.1874 1143 61.4297 1160.13 64.6562 1177.44C65.1644 1180.17 67.7705 1181.98 70.5 1181.47C73.2295 1180.96 75.0394 1178.32 74.5312 1175.59C71.3373 1158.42 67.1389 1141.43 64.6562 1124.12C63.1516 1113.64 62.4187 1103.02 61.5312 1092.47C60.1433 1075.96 58.9532 1059.44 57.9375 1042.91C56.7175 1023.05 55.7174 1003.19 54.8438 983.312C54.5527 976.692 54.3082 970.06 54.0625 963.438C53.8877 958.727 53.6379 954.028 53.6562 949.312C53.7111 935.244 55.4357 921.22 56.25 907.188C56.4186 904.26 54.1776 901.762 51.25 901.594Z" fill="#000000" fill-opacity="0.362613" stroke="none"/>
</g>
<g filter="url(#Filter_21)" opacity="0.441314" vectornator:blur="32.3643">
<path d="M1207.53 191.625C1203.39 192.079 1199.3 192.691 1195.16 193.125C1192.39 193.401 1190.38 195.862 1190.66 198.625C1190.93 201.388 1193.39 203.401 1196.16 203.125C1200.3 202.73 1204.45 202.563 1208.59 202.188C1211.51 201.896 1213.64 199.293 1213.34 196.375C1213.05 193.457 1210.45 191.333 1207.53 191.625Z" fill="#000000" fill-opacity="0.362613" stroke="none"/>
</g>
<g filter="url(#Filter_22)" opacity="0.441314" vectornator:blur="32.3643">
<path d="M1171.72 180.062C1169.05 180.251 1166.35 180.762 1163.94 181.969C1158.39 184.746 1155.55 190.362 1151.19 194.469C1149.17 196.373 1149.06 199.573 1150.97 201.594C1152.87 203.614 1156.07 203.685 1158.09 201.781C1160.55 199.464 1162.49 196.746 1164.72 194.219C1165.79 193 1166.96 191.76 1168.44 191.031C1169.41 190.552 1170.56 190.412 1171.62 190.312C1173.97 190.093 1176.33 190.327 1178.62 190.812C1181.47 191.412 1184.24 192.398 1186.91 193.531C1188.11 194.041 1189.25 194.532 1190.31 195.281C1192.51 196.828 1194.31 198.919 1196.09 200.906C1197.58 202.562 1199.08 204.182 1200.69 205.719C1202.81 207.739 1206.17 207.656 1208.19 205.531C1210.21 203.406 1210.13 200.052 1208 198.031C1204.28 194.512 1201.23 190.239 1197.09 187.156C1194.63 185.319 1191.87 184.133 1189 183.062C1183.51 181.013 1177.61 179.645 1171.72 180.062Z" fill="#000000" fill-opacity="0.362613" stroke="none"/>
</g>
<g filter="url(#Filter_23)" opacity="0.441314" vectornator:blur="32.3643">
<path d="M1190.56 199.312C1189.91 199.327 1189.26 199.465 1188.62 199.75C1186.09 200.89 1184.95 203.875 1186.09 206.406C1190.99 217.296 1197 227.73 1201.09 238.969C1203.24 244.875 1204.7 251.051 1205.88 257.219C1207.78 267.229 1208.69 277.581 1207.66 287.75C1206.78 296.331 1204.24 304.642 1201.69 312.844C1199.94 318.449 1198.22 324.073 1196.72 329.75C1195.97 332.586 1197.66 335.472 1200.5 336.219C1203.34 336.965 1206.25 335.273 1207 332.438C1210.8 317.944 1216.65 303.8 1218.09 288.781C1219.17 277.603 1218.11 266.266 1215.94 255.281C1214.49 247.965 1212.64 240.679 1209.94 233.719C1205.74 222.931 1200 212.822 1195.25 202.281C1194.4 200.382 1192.52 199.268 1190.56 199.312Z" fill="#000000" fill-opacity="0.362613" stroke="none"/>
</g>
<g filter="url(#Filter_24)" opacity="0.441314" vectornator:blur="32.3643">
<path d="M1204.81 241.594C1202.05 241.336 1199.6 243.361 1199.34 246.125C1197.88 261.783 1198.68 277.456 1200 293.094C1201.52 311.028 1203.65 329.033 1202.94 347.062C1201.84 374.568 1194.9 401.366 1191.66 428.625C1188.94 451.488 1190.26 474.665 1190.34 497.625C1190.36 500.557 1192.72 502.918 1195.66 502.906C1198.59 502.894 1200.95 500.495 1200.94 497.562C1200.89 487.111 1200.65 476.67 1200.59 466.219C1200.53 454.095 1200.73 441.931 1202.12 429.875C1205.32 402.331 1212.2 375.231 1213.19 347.438C1214.38 313.882 1206.22 280.622 1209.34 247.062C1209.6 244.298 1207.58 241.852 1204.81 241.594Z" fill="#000000" fill-opacity="0.362613" stroke="none"/>
</g>
<g filter="url(#Filter_25)" opacity="0.441314" vectornator:blur="32.3643">
<path d="M1199.03 481.406C1196.26 481.586 1194.16 483.979 1194.34 486.75C1195.92 511.138 1194.36 535.505 1194.16 559.906C1194.09 568.598 1194.24 577.287 1194.66 585.969C1196.56 625.96 1203.37 665.414 1210.28 704.781C1210.79 707.669 1213.55 709.602 1216.44 709.094C1219.33 708.585 1221.26 705.825 1220.75 702.938C1213.87 664.018 1207 624.97 1204.94 585.438C1204.49 576.948 1204.28 568.47 1204.31 559.969C1204.37 544.021 1205.15 528.074 1205.19 512.125C1205.21 503.434 1204.94 494.766 1204.38 486.094C1204.2 483.323 1201.8 481.226 1199.03 481.406Z" fill="#000000" fill-opacity="0.362613" stroke="none"/>
</g>
<g filter="url(#Filter_26)" opacity="0.441314" vectornator:blur="32.3643">
<path d="M1204.66 1170C1203.97 1169.92 1203.27 1169.98 1202.56 1170.19C1199.91 1170.96 1197.28 1171.82 1194.62 1172.59C1193.03 1173.06 1191.38 1173.54 1189.72 1173.75C1186.82 1174.11 1183.94 1173.61 1181.03 1173.62C1178.56 1173.64 1176.03 1174.01 1173.59 1174.38C1166.41 1175.46 1159.37 1177.29 1152.19 1178.41C1147.24 1179.18 1142.25 1179.74 1137.28 1180.31C1128.76 1181.29 1120.23 1182.16 1111.72 1183.25C1104.55 1184.17 1097.42 1185.31 1090.28 1186.44C1082.63 1187.65 1074.98 1188.87 1067.34 1190.19C1057.76 1191.85 1048.19 1193.66 1038.69 1195.75C1034.78 1196.61 1030.86 1197.46 1027 1198.53C1015.97 1201.58 1005.54 1206.39 994.812 1210.31C992.205 1211.27 990.859 1214.17 991.812 1216.78C992.766 1219.39 995.642 1220.7 998.25 1219.75C1008.71 1215.93 1018.92 1211.2 1029.69 1208.25C1033.84 1207.11 1038.07 1206.23 1042.28 1205.31C1051.63 1203.27 1061.06 1201.59 1070.5 1200C1077.62 1198.8 1084.74 1197.72 1091.88 1196.62C1098.91 1195.54 1105.93 1194.46 1113 1193.59C1121.82 1192.51 1130.7 1191.61 1139.53 1190.62C1144.3 1190.09 1149.07 1189.57 1153.81 1188.84C1160.98 1187.74 1168.02 1185.91 1175.19 1184.84C1177.12 1184.56 1179.1 1184.22 1181.06 1184.22C1184.4 1184.21 1187.66 1184.68 1191 1184.28C1195.96 1183.69 1200.73 1181.75 1205.5 1180.38C1208.32 1179.56 1209.94 1176.63 1209.12 1173.81C1208.51 1171.7 1206.71 1170.24 1204.66 1170Z" fill="#000000" fill-opacity="0.362613" stroke="none"/>
</g>
<g filter="url(#Filter_27)" opacity="0.441314" vectornator:blur="32.3643">
<path d="M1135.84 1173.12C1105.99 1173.02 1076.76 1180.69 1047.44 1185.34C1036.57 1184.53 1025.67 1184.06 1014.75 1184.38C1011.76 1184.46 1008.79 1184.62 1005.81 1184.81C1003.94 1184.94 1002.07 1185.14 1000.19 1185.12C997.253 1185.1 994.31 1184.92 991.375 1184.91C989.542 1184.89 987.689 1184.89 985.875 1185.19C982.811 1185.69 979.99 1187.36 979.531 1190.75C979.468 1191.22 979.485 1191.69 979.531 1192.16C979.95 1196.4 985.007 1199.3 988.656 1200.31C989.47 1200.54 990.228 1200.69 991.062 1200.81C996.057 1201.56 1001.04 1200.63 1006.03 1200.41C1008.07 1200.31 1010.12 1200.36 1012.16 1200.25C1016.45 1200.02 1020.71 1199.46 1024.97 1198.91C1031.72 1198.03 1038.49 1197.33 1045.22 1196.34C1046.55 1196.15 1047.86 1195.86 1049.19 1195.66C1053.32 1195.98 1057.44 1196.36 1061.56 1196.78C1068.24 1197.46 1074.94 1198.06 1081.59 1198.94C1085.94 1199.51 1090.14 1200.86 1094.5 1201.31C1097.03 1201.58 1099.56 1201.42 1102.09 1201.31C1104.83 1201.19 1107.58 1201.06 1110.31 1200.94C1119.99 1200.52 1129.65 1200.06 1139.31 1199.47C1146.76 1199.02 1154.24 1198.49 1161.66 1197.66C1166.83 1197.08 1172.12 1196.5 1177.12 1195.03C1180.73 1193.98 1184.75 1191.98 1184.66 1187.56C1184.65 1187.11 1184.58 1186.66 1184.47 1186.22C1184.31 1185.6 1183.27 1185.01 1179.59 1182.22C1178.99 1181 1177.89 1180.03 1176.5 1179.56C1163.11 1175.86 1167.63 1176.83 1163.12 1175.88C1154.16 1173.99 1145 1173.16 1135.84 1173.12ZM1130.22 1183.81C1133.5 1183.71 1136.78 1183.7 1140.06 1183.81C1147.53 1184.06 1154.99 1184.88 1162.28 1186.53C1162.62 1186.61 1164.12 1187.08 1164.31 1187.12C1162.33 1187.38 1160.36 1187.67 1158.38 1187.88C1147.09 1189.03 1135.74 1189.67 1124.41 1190.22C1118.14 1190.52 1111.87 1190.77 1105.59 1191.03C1103.69 1191.11 1101.78 1191.2 1099.88 1191.28C1098.8 1191.33 1097.73 1191.4 1096.66 1191.34C1093 1191.15 1089.46 1190 1085.88 1189.34C1090.86 1188.46 1095.84 1187.52 1100.84 1186.75C1110.57 1185.26 1120.38 1184.11 1130.22 1183.81Z" fill="#000000" fill-opacity="0.362613" stroke="none"/>
</g>
<g filter="url(#Filter_28)" opacity="0.441314" vectornator:blur="32.3643">
<path d="M362.969 1164.03C360.194 1163.95 357.897 1166.13 357.812 1168.91C357.728 1171.68 359.912 1174.01 362.688 1174.09C451.166 1176.81 539.668 1178.37 628.188 1178.84C732.782 1179.41 837.356 1178.49 941.938 1176.88C944.87 1176.83 947.202 1174.4 947.156 1171.47C947.111 1168.54 944.713 1166.2 941.781 1166.25C813.163 1168.28 684.507 1169.38 555.875 1168.06C491.56 1167.41 427.257 1165.99 362.969 1164.03Z" fill="#000000" fill-opacity="0.362613" stroke="none"/>
</g>
<g filter="url(#Filter_29)" opacity="0.441314" vectornator:blur="32.3643">
<path d="M785.156 1152.88C769.963 1152.69 754.755 1152.95 739.562 1153.16C717.428 1153.46 695.287 1153.87 673.156 1154.38C601.931 1156.01 530.757 1158.66 459.562 1161.28C456.632 1161.39 454.329 1163.85 454.438 1166.78C454.546 1169.71 457.007 1172.02 459.938 1171.91C530.545 1169.27 601.146 1166.51 671.781 1164.72C694.956 1164.13 718.133 1163.63 741.312 1163.28C755.877 1163.06 770.465 1162.81 785.031 1162.97C809.516 1163.24 833.966 1164.66 858.438 1165.41C861.213 1165.49 863.54 1163.31 863.625 1160.53C863.71 1157.76 861.525 1155.43 858.75 1155.34C834.215 1154.58 809.704 1153.18 785.156 1152.88Z" fill="#000000" fill-opacity="0.362613" stroke="none"/>
</g>
<g filter="url(#Filter_30)" opacity="0.441314" vectornator:blur="32.3643">
<path d="M996.344 1161.28C981.375 1161.79 966.409 1162.37 951.438 1162.81C936.475 1163.25 921.497 1163.61 906.531 1163.94C846.601 1165.27 786.67 1165.78 726.75 1167.56C681.128 1168.92 635.56 1171.77 589.969 1173.84C548.178 1175.74 506.371 1176.3 464.562 1177.66C437.494 1178.54 410.43 1179.83 383.406 1181.62C353.665 1183.6 323.953 1186 294.188 1187.59C275.09 1188.62 255.91 1189.63 236.781 1189.03C235.289 1188.98 233.804 1188.79 232.312 1188.72C232.442 1188.09 232.442 1187.42 232.312 1186.75C231.786 1184.02 229.163 1182.25 226.438 1182.78C224.418 1183.17 222.383 1183.42 220.344 1183.69C219.06 1183.85 217.753 1183.99 216.469 1184.16C215.21 1184.32 213.976 1184.48 212.719 1184.66C210.545 1184.96 207.613 1185.18 205.594 1186.19C205.339 1186.31 205.073 1186.46 204.844 1186.62C204.459 1186.91 204.016 1187.17 203.75 1187.56C203.231 1188.34 202.641 1189.14 202.531 1190.06C202.398 1191.18 202.653 1192.35 203.062 1193.41C203.329 1194.09 203.963 1194.59 204.5 1195.09C205.246 1195.79 206.429 1196.11 207.406 1196.31C211.088 1197.07 214.861 1197.44 218.594 1197.84C234.434 1199.56 250.411 1199.44 266.312 1198.91C305.624 1197.58 344.823 1194.33 384.062 1191.75C410.184 1190.03 436.336 1188.77 462.5 1187.91C498.158 1186.73 533.846 1186.32 569.5 1185.03C595.486 1184.09 621.437 1182.65 647.406 1181.34C673.94 1180.01 700.505 1178.8 727.062 1178.03C786.958 1176.3 846.876 1175.84 906.781 1174.53C921.772 1174.2 936.762 1173.84 951.75 1173.41C966.738 1172.97 981.733 1172.41 996.719 1171.91C999.65 1171.81 1001.94 1169.34 1001.84 1166.41C1001.74 1163.48 999.275 1161.18 996.344 1161.28Z" fill="#000000" fill-opacity="0.362613" stroke="none"/>
</g>
<g filter="url(#Filter_31)" opacity="0.441314" vectornator:blur="32.3643">
<path d="M1029.22 1158.22C993.466 1158.44 957.729 1159.92 922.031 1161.88C905.369 1162.79 888.686 1163.83 872.031 1164.88C861.042 1165.56 850.046 1166.21 839.062 1167C820.431 1168.33 801.867 1170.18 783.25 1171.69C769.128 1172.83 754.968 1173.75 740.812 1174.34C662.285 1177.66 583.707 1173.49 505.156 1174.75C490.01 1174.99 474.877 1175.51 459.75 1176.31C416.064 1178.63 372.497 1182.93 328.875 1186.16C325.951 1186.37 323.752 1188.92 323.969 1191.84C324.186 1194.77 326.732 1196.94 329.656 1196.72C373.204 1193.48 416.701 1189.2 460.312 1186.88C475.309 1186.08 490.328 1185.59 505.344 1185.34C583.985 1184.06 662.635 1188.11 741.25 1184.69C755.537 1184.07 769.811 1183.11 784.062 1181.94C802.646 1180.41 821.214 1178.54 839.812 1177.19C849.789 1176.46 859.768 1175.87 869.75 1175.22C887.841 1174.04 905.93 1172.91 924.031 1171.91C970.885 1169.31 1017.85 1167.58 1064.78 1168.5C1086.25 1168.92 1107.68 1169.97 1129.09 1171.59C1131.86 1171.8 1134.29 1169.74 1134.5 1166.97C1134.71 1164.2 1132.64 1161.77 1129.88 1161.56C1108.27 1159.92 1086.63 1158.86 1064.97 1158.44C1053.05 1158.2 1041.14 1158.15 1029.22 1158.22Z" fill="#000000" fill-opacity="0.362613" stroke="none"/>
</g>
<g filter="url(#Filter_32)" opacity="0.441314" vectornator:blur="32.3643">
<path d="M923.938 1158C830.83 1158.15 737.724 1160.49 644.688 1164.03C641.913 1164.14 639.77 1166.48 639.875 1169.25C639.98 1172.02 642.288 1174.2 645.062 1174.09C718.075 1171.33 791.123 1169.34 864.188 1168.69C950.506 1167.91 1036.82 1168.96 1123.09 1171.91C1126.02 1172.01 1128.46 1169.68 1128.56 1166.75C1128.66 1163.82 1126.37 1161.38 1123.44 1161.28C1056.95 1159.05 990.465 1157.89 923.938 1158Z" fill="#000000" fill-opacity="0.362613" stroke="none"/>
</g>
<g filter="url(#Filter_33)" opacity="0.441314" vectornator:blur="32.3643">
<path d="M862.594 1155.19C841.522 1155.19 820.445 1155.35 799.375 1155.59C786.531 1155.74 773.687 1155.94 760.844 1156.16C749.385 1156.34 737.92 1156.51 726.469 1157C686.698 1158.71 647.132 1163.2 607.406 1165.59C589.777 1166.66 572.116 1167.35 554.469 1168.03C523.255 1169.24 492.032 1170.17 460.812 1171.22C457.882 1171.32 455.589 1173.79 455.688 1176.72C455.786 1179.65 458.226 1181.94 461.156 1181.84C492.394 1180.79 523.643 1179.82 554.875 1178.59C572.598 1177.9 590.327 1177.23 608.031 1176.16C647.699 1173.75 687.228 1169.2 726.938 1167.44C738.296 1166.93 749.665 1166.74 761.031 1166.53C774.371 1166.29 787.691 1166.05 801.031 1165.88C821.548 1165.6 842.075 1165.44 862.594 1165.41C872.836 1165.39 883.102 1165.34 893.344 1165.47C905.803 1165.63 918.176 1166.72 930.594 1167.66C944.08 1168.67 957.577 1169.61 971.062 1170.62C1017.95 1174.16 1064.8 1178.18 1111.59 1182.78C1114.36 1183.05 1116.82 1181.01 1117.09 1178.25C1117.37 1175.49 1115.36 1173.02 1112.59 1172.75C1065.11 1168.07 1017.55 1164.02 969.969 1160.41C956.531 1159.38 943.094 1158.43 929.656 1157.41C917.597 1156.49 905.569 1155.45 893.469 1155.28C883.178 1155.14 872.885 1155.18 862.594 1155.19Z" fill="#000000" fill-opacity="0.362613" stroke="none"/>
</g>
<g filter="url(#Filter_34)" opacity="0.441314" vectornator:blur="32.3643">
<path d="M317.344 1153.12C306.112 1153.18 294.93 1154.03 283.75 1155.03C272.049 1156.08 260.362 1157.32 248.688 1158.62C227.768 1160.96 206.861 1163.55 185.906 1165.56C178.464 1166.28 171.011 1166.85 163.562 1167.5C160.641 1167.76 158.463 1170.33 158.719 1173.25C158.975 1176.17 161.547 1178.35 164.469 1178.09C171.948 1177.44 179.465 1176.85 186.938 1176.12C208.411 1174.05 229.812 1171.38 251.25 1168.97C262.383 1167.72 273.531 1166.58 284.688 1165.56C295.572 1164.57 306.439 1163.7 317.375 1163.62C333.02 1163.52 348.669 1164.58 364.281 1165.47C386.741 1166.75 409.183 1168.22 431.625 1169.78C502.64 1174.72 573.54 1181.03 644.406 1187.75C647.17 1188.01 649.644 1185.98 649.906 1183.22C650.169 1180.45 648.139 1177.98 645.375 1177.72C574.431 1170.98 503.428 1164.59 432.344 1159.5C409.862 1157.89 387.375 1156.39 364.875 1155.06C349.042 1154.13 333.212 1153.04 317.344 1153.12Z" fill="#000000" fill-opacity="0.362613" stroke="none"/>
</g>
<g filter="url(#Filter_35)" opacity="0.441314" vectornator:blur="32.3643">
<path d="M600.594 1157.28C555.53 1156.88 510.434 1158.35 465.375 1158.84C418.485 1159.35 371.593 1157.46 324.719 1159.28C271.951 1161.33 219.438 1167.29 167.094 1174.03C164.34 1174.39 162.395 1176.9 162.75 1179.66C163.105 1182.41 165.621 1184.35 168.375 1184C220.423 1177.3 272.623 1171.4 325.094 1169.41C371.873 1167.63 418.707 1169.65 465.5 1169.22C525.387 1168.67 585.319 1166.33 645.188 1169C657.394 1169.54 669.584 1170.36 681.75 1171.5C700.77 1173.28 719.704 1175.69 738.656 1178.06C741.566 1178.43 744.23 1176.38 744.594 1173.47C744.958 1170.56 742.878 1167.9 739.969 1167.53C720.906 1165.15 701.85 1162.72 682.719 1160.94C670.381 1159.79 658.035 1158.95 645.656 1158.41C630.64 1157.74 615.615 1157.42 600.594 1157.28Z" fill="#000000" fill-opacity="0.362613" stroke="none"/>
</g>
<g filter="url(#Filter_36)" opacity="0.441314" vectornator:blur="32.3643">
<path d="M498.219 1168.97C473.879 1169.16 449.546 1170.24 425.25 1171.66C371.878 1174.77 318.669 1180.04 265.438 1184.91C262.517 1185.17 260.357 1187.77 260.625 1190.69C260.893 1193.61 263.486 1195.74 266.406 1195.47C313.097 1191.16 359.756 1186.55 406.531 1183.25C437.069 1181.09 467.694 1179.38 498.312 1179.09C523.94 1178.85 549.463 1181.44 575.031 1182.78C577.804 1182.93 580.166 1180.8 580.312 1178.03C580.459 1175.26 578.335 1172.9 575.562 1172.75C549.787 1171.38 524.054 1168.76 498.219 1168.97Z" fill="#000000" fill-opacity="0.362613" stroke="none"/>
</g>
<g filter="url(#Filter_37)" opacity="0.441314" vectornator:blur="32.3643">
<path d="M632.875 1176.03C572.061 1176.18 511.265 1178.52 450.469 1179.78C424.686 1180.32 398.912 1180.49 373.125 1180.53C347.683 1180.57 322.21 1180.49 296.781 1181.44C275.519 1182.23 254.382 1184.7 233.188 1186.44C230.42 1186.66 228.367 1189.08 228.594 1191.84C228.82 1194.61 231.233 1196.66 234 1196.44C255.046 1194.72 276.044 1192.28 297.156 1191.5C320.619 1190.63 344.118 1190.66 367.594 1190.62C393.569 1190.59 419.561 1190.53 445.531 1190C514.256 1188.61 582.971 1185.96 651.719 1186.31C705.075 1186.59 758.398 1188.28 811.719 1190.12C844.23 1191.25 876.769 1192.36 909.281 1193.47C939.932 1194.51 970.568 1195.57 1001.22 1196.59C1023.12 1197.33 1045.04 1197.92 1066.91 1199.28C1072.3 1199.62 1077.68 1199.99 1083.06 1200.44C1086.09 1200.69 1089.1 1201.06 1092.12 1201.34C1096 1201.7 1099.92 1201.91 1103.81 1202.09C1105.81 1202.19 1108.12 1202.5 1110.09 1202C1110.32 1201.94 1111.07 1201.72 1111.31 1201.56C1111.88 1201.18 1112.42 1200.73 1112.97 1200.31C1113.65 1199.8 1114.09 1198.61 1114.25 1197.81C1114.33 1197.44 1114.49 1196.72 1114.34 1196.34C1113.96 1195.36 1113.66 1194.31 1113.19 1193.38C1113.03 1193.07 1112.76 1192.88 1112.5 1192.66C1112.21 1192.41 1111.89 1192.2 1111.56 1192C1110.55 1191.37 1109.07 1191.07 1107.97 1190.81C1107.35 1190.67 1106.72 1190.55 1106.09 1190.44C1105.49 1190.32 1104.89 1190.22 1104.28 1190.12C1103.68 1190.03 1103.07 1189.95 1102.47 1189.88C1101.88 1189.8 1101.28 1189.75 1100.69 1189.69C1099.33 1189.55 1098.57 1189.51 1097.22 1189.41C1096.11 1189.32 1095.02 1189.24 1093.91 1189.16C1090.45 1188.88 1087.01 1188.37 1083.56 1187.94C1077.94 1187.23 1072.29 1186.6 1066.66 1186.06C1051.72 1184.63 1036.76 1183.63 1021.81 1182.41C1019.16 1182.19 1016.9 1184.02 1016.31 1186.53C1014.3 1186.47 1012.29 1186.38 1010.28 1186.31C945.78 1184.21 881.311 1182.02 816.812 1179.84C755.528 1177.78 694.201 1175.88 632.875 1176.03Z" fill="#000000" fill-opacity="0.362613" stroke="none"/>
</g>
<g filter="url(#Filter_38)" opacity="0.441314" vectornator:blur="32.3643">
<path d="M650.469 1163.78C647.555 1163.45 644.927 1165.56 644.594 1168.47C644.261 1171.38 646.337 1174.01 649.25 1174.34C663.752 1175.96 678.282 1177.39 692.781 1179.03C695.54 1179.35 698.028 1177.38 698.344 1174.62C698.659 1171.87 696.665 1169.35 693.906 1169.03C679.411 1167.36 664.961 1165.48 650.469 1163.78Z" fill="#000000" fill-opacity="0.362613" stroke="none"/>
</g>
<g filter="url(#Filter_39)" opacity="0.441314" vectornator:blur="32.3643">
<path d="M595.469 1098.19C592.697 1098.03 590.31 1100.17 590.156 1102.94C590.003 1105.71 592.134 1108.07 594.906 1108.22C623.802 1109.82 652.657 1112.3 681.594 1113.09C704.16 1113.71 726.771 1113.67 749.344 1113.56C801.588 1113.3 853.792 1111.6 906 1109.75C908.931 1109.64 911.23 1107.21 911.125 1104.28C911.02 1101.35 908.555 1099.05 905.625 1099.16C856.142 1100.95 806.671 1102.61 757.156 1103.16C741.792 1103.33 726.397 1103.38 711.031 1103.31C701.308 1103.27 691.595 1103.22 681.875 1102.97C653.034 1102.22 624.269 1099.78 595.469 1098.19Z" fill="#000000" fill-opacity="0.362613" stroke="none"/>
</g>
<g filter="url(#Filter_40)" opacity="0.441314" vectornator:blur="32.3643">
<path d="M1002.72 1061.88C957.811 1061.95 912.916 1062.64 868.062 1064.97C853.992 1065.7 839.953 1066.66 825.906 1067.75C808.563 1069.1 791.216 1070.57 773.844 1071.5C764.845 1071.98 755.847 1072.31 746.844 1072.69C730.728 1073.36 714.587 1074.01 698.469 1074.62C647.471 1076.57 596.485 1078.29 545.5 1080.56C531.901 1081.17 518.289 1081.94 504.688 1082.47C490.318 1083.03 475.96 1083.29 461.594 1083.94C454.568 1084.25 447.554 1084.72 440.531 1085.09C428.984 1085.71 417.425 1086.21 405.875 1086.78C387.397 1087.69 368.915 1088.72 350.5 1090.53C344.918 1091.08 339.346 1091.71 333.781 1092.41C329.884 1092.89 325.945 1093.35 322.125 1094.28C310.896 1097.03 300.893 1103.06 290.188 1107.22C287.6 1108.22 286.306 1111.16 287.312 1113.75C288.319 1116.34 291.225 1117.6 293.812 1116.59C298.439 1114.79 302.936 1112.71 307.438 1110.62C312.965 1108.06 318.591 1105.49 324.531 1104.03C328.383 1103.09 332.383 1102.71 336.312 1102.22C341.79 1101.53 347.256 1100.95 352.75 1100.41C370.999 1098.61 389.345 1097.67 407.656 1096.78C418.794 1096.24 429.928 1095.75 441.062 1095.16C448.057 1094.78 455.034 1094.34 462.031 1094.03C476.377 1093.39 490.745 1093.13 505.094 1092.59C519.15 1092.06 533.196 1091.32 547.25 1090.72C597.78 1088.54 648.332 1086.89 698.875 1085.03C715.443 1084.42 731.997 1083.8 748.562 1083.12C757.172 1082.78 765.801 1082.45 774.406 1082C791.865 1081.09 809.29 1079.59 826.719 1078.25C840.677 1077.18 854.613 1076.25 868.594 1075.53C913.271 1073.23 958.02 1072.56 1002.75 1072.5C1005.68 1072.5 1008.07 1070.12 1008.06 1067.19C1008.06 1064.26 1005.65 1061.87 1002.72 1061.88Z" fill="#000000" fill-opacity="0.362613" stroke="none"/>
</g>
</g>
</svg>
