<?xml version="1.0" encoding="UTF-8" standalone="no"?>
<!DOCTYPE svg PUBLIC "-//W3C//DTD SVG 1.1//EN" "http://www.w3.org/Graphics/SVG/1.1/DTD/svg11.dtd">
<!-- Created with Vectornator (http://vectornator.io/) -->
<svg height="100%" stroke-miterlimit="10" style="fill-rule:nonzero;clip-rule:evenodd;stroke-linecap:round;stroke-linejoin:round;" version="1.1" viewBox="0 0 1275.75 1289.92" width="100%" xml:space="preserve" xmlns="http://www.w3.org/2000/svg" xmlns:vectornator="http://vectornator.io" xmlns:xlink="http://www.w3.org/1999/xlink">
<defs>
<filter color-interpolation-filters="sRGB" filterUnits="userSpaceOnUse" height="1297.96" id="Filter" width="1297.71" x="-26.2421" y="16.5465">
<feDropShadow dx="-31.5581" dy="34.5794" flood-color="#000000" flood-opacity="0.333" in="SourceGraphic" result="Shadow" stdDeviation="13.7329"/>
</filter>
<filter color-interpolation-filters="sRGB" filterUnits="userSpaceOnUse" height="181.738" id="Filter_2" width="384.775" x="157.772" y="-9.85523">
<feGaussianBlur in="SourceGraphic" result="Blur" stdDeviation="30.7171"/>
</filter>
<filter color-interpolation-filters="sRGB" filterUnits="userSpaceOnUse" height="193.521" id="Filter_3" width="499.432" x="222.874" y="1.68203">
<feGaussianBlur in="SourceGraphic" result="Blur" stdDeviation="30.7171"/>
</filter>
<filter color-interpolation-filters="sRGB" filterUnits="userSpaceOnUse" height="123.596" id="Filter_4" width="144.001" x="26.0092" y="0.289888">
<feGaussianBlur in="SourceGraphic" result="Blur" stdDeviation="16.1822"/>
</filter>
<filter color-interpolation-filters="sRGB" filterUnits="userSpaceOnUse" height="120.054" id="Filter_5" width="273.104" x="52.374" y="-3.78405">
<feGaussianBlur in="SourceGraphic" result="Blur" stdDeviation="16.1822"/>
</filter>
<filter color-interpolation-filters="sRGB" filterUnits="userSpaceOnUse" height="104.428" id="Filter_6" width="434.687" x="110.39" y="2.13496">
<feGaussianBlur in="SourceGraphic" result="Blur" stdDeviation="16.1822"/>
</filter>
<filter color-interpolation-filters="sRGB" filterUnits="userSpaceOnUse" height="96.5362" id="Filter_7" width="352.911" x="251.438" y="-1.80103">
<feGaussianBlur in="SourceGraphic" result="Blur" stdDeviation="16.1822"/>
</filter>
<filter color-interpolation-filters="sRGB" filterUnits="userSpaceOnUse" height="246.635" id="Filter_8" width="176.199" x="144.347" y="112.025">
<feGaussianBlur in="SourceGraphic" result="Blur" stdDeviation="16.1822"/>
</filter>
<filter color-interpolation-filters="sRGB" filterUnits="userSpaceOnUse" height="219.394" id="Filter_9" width="282.228" x="151.106" y="97.4573">
<feGaussianBlur in="SourceGraphic" result="Blur" stdDeviation="16.1822"/>
</filter>
<filter color-interpolation-filters="sRGB" filterUnits="userSpaceOnUse" height="119.85" id="Filter_10" width="372.097" x="239.053" y="104.91">
<feGaussianBlur in="SourceGraphic" result="Blur" stdDeviation="16.1822"/>
</filter>
<filter color-interpolation-filters="sRGB" filterUnits="userSpaceOnUse" height="224.483" id="Filter_11" width="160.661" x="954.99" y="147.28">
<feGaussianBlur in="SourceGraphic" result="Blur" stdDeviation="16.1822"/>
</filter>
<filter color-interpolation-filters="sRGB" filterUnits="userSpaceOnUse" height="217.086" id="Filter_12" width="224.804" x="200.74" y="848.06">
<feGaussianBlur in="SourceGraphic" result="Blur" stdDeviation="16.1822"/>
</filter>
<filter color-interpolation-filters="sRGB" filterUnits="userSpaceOnUse" height="111.418" id="Filter_13" width="336.178" x="238.473" y="949.484">
<feGaussianBlur in="SourceGraphic" result="Blur" stdDeviation="16.1822"/>
</filter>
<filter color-interpolation-filters="sRGB" filterUnits="userSpaceOnUse" height="108.884" id="Filter_14" width="216.569" x="886.435" y="950.441">
<feGaussianBlur in="SourceGraphic" result="Blur" stdDeviation="16.1822"/>
</filter>
<filter color-interpolation-filters="sRGB" filterUnits="userSpaceOnUse" height="244.482" id="Filter_15" width="115.918" x="993.541" y="830.567">
<feGaussianBlur in="SourceGraphic" result="Blur" stdDeviation="16.1822"/>
</filter>
<filter color-interpolation-filters="sRGB" filterUnits="userSpaceOnUse" height="297.287" id="Filter_16" width="164.946" x="203.441" y="151.008">
<feGaussianBlur in="SourceGraphic" result="Blur" stdDeviation="16.1822"/>
</filter>
<filter color-interpolation-filters="sRGB" filterUnits="userSpaceOnUse" height="180.245" id="Filter_17" width="214.383" x="210.817" y="149.273">
<feGaussianBlur in="SourceGraphic" result="Blur" stdDeviation="16.1822"/>
</filter>
<filter color-interpolation-filters="sRGB" filterUnits="userSpaceOnUse" height="295.809" id="Filter_18" width="166.62" x="3.78997" y="-27.1771">
<feGaussianBlur in="SourceGraphic" result="Blur" stdDeviation="16.1822"/>
</filter>
<filter color-interpolation-filters="sRGB" filterUnits="userSpaceOnUse" height="356.194" id="Filter_19" width="101.638" x="23.2085" y="662.94">
<feGaussianBlur in="SourceGraphic" result="Blur" stdDeviation="16.1822"/>
</filter>
<filter color-interpolation-filters="sRGB" filterUnits="userSpaceOnUse" height="361.164" id="Filter_20" width="112.749" x="5.885" y="869.204">
<feGaussianBlur in="SourceGraphic" result="Blur" stdDeviation="16.1822"/>
</filter>
<filter color-interpolation-filters="sRGB" filterUnits="userSpaceOnUse" height="92.7728" id="Filter_21" width="103.956" x="1169.01" y="19.2975">
<feGaussianBlur in="SourceGraphic" result="Blur" stdDeviation="16.1822"/>
</filter>
<filter color-interpolation-filters="sRGB" filterUnits="userSpaceOnUse" height="108.286" id="Filter_22" width="141.232" x="1128.01" y="7.51177">
<feGaussianBlur in="SourceGraphic" result="Blur" stdDeviation="16.1822"/>
</filter>
<filter color-interpolation-filters="sRGB" filterUnits="userSpaceOnUse" height="218.271" id="Filter_23" width="114.138" x="1164.04" y="26.7528">
<feGaussianBlur in="SourceGraphic" result="Blur" stdDeviation="16.1822"/>
</filter>
<filter color-interpolation-filters="sRGB" filterUnits="userSpaceOnUse" height="342.526" id="Filter_24" width="104.428" x="1168.66" y="68.9996">
<feGaussianBlur in="SourceGraphic" result="Blur" stdDeviation="16.1822"/>
</filter>
<filter color-interpolation-filters="sRGB" filterUnits="userSpaceOnUse" height="308.977" id="Filter_25" width="107.83" x="1172.59" y="308.812">
<feGaussianBlur in="SourceGraphic" result="Blur" stdDeviation="16.1822"/>
</filter>
<filter color-interpolation-filters="sRGB" filterUnits="userSpaceOnUse" height="131.292" id="Filter_26" width="299.037" x="954.048" y="1137.6">
<feGaussianBlur in="SourceGraphic" result="Blur" stdDeviation="16.1822"/>
</filter>
<filter color-interpolation-filters="sRGB" filterUnits="userSpaceOnUse" height="109.528" id="Filter_27" width="286.499" x="942.178" y="1140.74">
<feGaussianBlur in="SourceGraphic" result="Blur" stdDeviation="16.1822"/>
</filter>
<filter color-interpolation-filters="sRGB" filterUnits="userSpaceOnUse" height="96.2886" id="Filter_28" width="670.56" x="320.346" y="1131.38">
<feGaussianBlur in="SourceGraphic" result="Blur" stdDeviation="16.1822"/>
</filter>
<filter color-interpolation-filters="sRGB" filterUnits="userSpaceOnUse" height="100.25" id="Filter_29" width="490.39" x="417.265" y="1120.18">
<feGaussianBlur in="SourceGraphic" result="Blur" stdDeviation="16.1822"/>
</filter>
<filter color-interpolation-filters="sRGB" filterUnits="userSpaceOnUse" height="119.166" id="Filter_30" width="880.571" x="165.008" y="1128.9">
<feGaussianBlur in="SourceGraphic" result="Blur" stdDeviation="16.1822"/>
</filter>
<filter color-interpolation-filters="sRGB" filterUnits="userSpaceOnUse" height="119.737" id="Filter_31" width="891.735" x="286.797" y="1125.54">
<feGaussianBlur in="SourceGraphic" result="Blur" stdDeviation="16.1822"/>
</filter>
<filter color-interpolation-filters="sRGB" filterUnits="userSpaceOnUse" height="97.3929" id="Filter_32" width="569.913" x="602.406" y="1125.52">
<feGaussianBlur in="SourceGraphic" result="Blur" stdDeviation="16.1822"/>
</filter>
<filter color-interpolation-filters="sRGB" filterUnits="userSpaceOnUse" height="109.012" id="Filter_33" width="742.628" x="418.508" y="1122.6">
<feGaussianBlur in="SourceGraphic" result="Blur" stdDeviation="16.1822"/>
</filter>
<filter color-interpolation-filters="sRGB" filterUnits="userSpaceOnUse" height="115.888" id="Filter_34" width="572.398" x="121.537" y="1120.69">
<feGaussianBlur in="SourceGraphic" result="Blur" stdDeviation="16.1822"/>
</filter>
<filter color-interpolation-filters="sRGB" filterUnits="userSpaceOnUse" height="108.061" id="Filter_35" width="663.105" x="125.265" y="1124.79">
<feGaussianBlur in="SourceGraphic" result="Blur" stdDeviation="16.1822"/>
</filter>
<filter color-interpolation-filters="sRGB" filterUnits="userSpaceOnUse" height="107.709" id="Filter_36" width="400.926" x="223.427" y="1136.33">
<feGaussianBlur in="SourceGraphic" result="Blur" stdDeviation="16.1822"/>
</filter>
<filter color-interpolation-filters="sRGB" filterUnits="userSpaceOnUse" height="107.288" id="Filter_37" width="966.994" x="191.12" y="1143.46">
<feGaussianBlur in="SourceGraphic" result="Blur" stdDeviation="16.1822"/>
</filter>
<filter color-interpolation-filters="sRGB" filterUnits="userSpaceOnUse" height="96.5005" id="Filter_38" width="135.02" x="607.376" y="1131.38">
<feGaussianBlur in="SourceGraphic" result="Blur" stdDeviation="16.1822"/>
</filter>
<filter color-interpolation-filters="sRGB" filterUnits="userSpaceOnUse" height="96.793" id="Filter_39" width="402.169" x="552.703" y="1065.53">
<feGaussianBlur in="SourceGraphic" result="Blur" stdDeviation="16.1822"/>
</filter>
<filter color-interpolation-filters="sRGB" filterUnits="userSpaceOnUse" height="136.262" id="Filter_40" width="802.271" x="249.52" y="1029.49">
<feGaussianBlur in="SourceGraphic" result="Blur" stdDeviation="16.1822"/>
</filter>
</defs>
<clipPath id="ArtboardFrame">
<rect height="1289.92" width="1275.75" x="0" y="0"/>
</clipPath>
<g clip-path="url(#ArtboardFrame)" id="Ebene-1" vectornator:layerName="Ebene 1">
<path d="M111.116 21.5465L1197.23 21.5465C1233.94 21.5465 1263.7 51.9943 1263.7 89.5536L1263.7 1172.59C1263.7 1210.15 1233.94 1240.6 1197.23 1240.6L111.116 1240.6C74.4067 1240.6 44.6482 1210.15 44.6482 1172.59L44.6482 89.5536C44.6482 51.9943 74.4067 21.5465 111.116 21.5465Z" fill="#56504b" fill-rule="nonzero" filter="url(#Filter)" stroke="#7e7e75" stroke-linecap="butt" stroke-linejoin="round" stroke-width="10" vectornator:shadowAngle="2.31054" vectornator:shadowColor="#000000" vectornator:shadowOffset="46.8151" vectornator:shadowOpacity="0.333" vectornator:shadowRadius="27.4658"/>
<path d="M291.862 178.487L1016.48 178.487C1051.24 178.487 1079.42 209.285 1079.42 247.277L1079.42 960.196C1079.42 998.188 1051.24 1028.99 1016.48 1028.99L291.862 1028.99C257.102 1028.99 228.923 998.188 228.923 960.196L228.923 247.277C228.923 209.285 257.102 178.487 291.862 178.487Z" fill="#494039" fill-rule="nonzero" opacity="1" stroke="#b0b19e" stroke-linecap="butt" stroke-linejoin="round" stroke-opacity="0.362613" stroke-width="10"/>
<g filter="url(#Filter_2)" opacity="0.274647" vectornator:blur="61.4341">
<path d="M407.906 66.9688C404.095 66.9459 400.309 67.1055 396.5 67.2188C389.988 67.4124 383.476 67.6662 376.969 67.9688C369.172 68.3312 361.354 68.7535 353.562 69.2188C349.21 69.4787 344.846 69.701 340.5 70.0625C336.274 70.414 332.195 71.7634 327.969 72.0312C313.998 72.9166 299.976 72.1022 286 72.875C281.178 73.1416 276.327 73.5333 271.562 74.3438C260.035 76.3045 249.358 81.3829 238.312 85C235.674 85.8633 234.23 88.705 235.094 91.3438C235.957 93.9825 238.799 95.4258 241.438 94.5625C245.758 93.1501 250.023 91.5888 254.281 90C260.464 87.6932 266.718 85.377 273.25 84.2812C278.367 83.4228 283.602 83.0634 288.781 82.8438C302.055 82.2806 315.36 83.0646 328.625 82.25C332.927 81.9858 337.055 80.6796 341.344 80.3438C345.611 80.0097 349.882 79.8298 354.156 79.5938C361.906 79.1657 369.683 78.7718 377.438 78.4375C383.888 78.1594 390.327 77.9205 396.781 77.75C400.468 77.6526 404.155 77.5041 407.844 77.5312C425.27 77.6597 442.569 80.4418 459.844 82.4375C462.757 82.7725 465.384 80.6633 465.719 77.75C466.054 74.8367 463.976 72.21 461.062 71.875C443.404 69.854 425.717 67.0757 407.906 66.9688Z" fill="#ededdb" fill-opacity="0.362613" stroke="none"/>
</g>
<g filter="url(#Filter_3)" opacity="0.274647" vectornator:blur="61.4341">
<path d="M570.531 78.5938C563.631 78.6911 556.752 78.9719 549.844 79.2188C534.466 79.7682 519.063 80.2923 503.688 80.9062C466.614 82.3866 429.598 84.5418 392.594 87.25C377.993 88.3186 363.411 89.721 348.906 91.7188C344.748 92.2914 340.608 92.9311 336.469 93.625C333.291 94.1576 330.075 94.6419 327 95.625C318.156 98.4521 310.862 104.431 302.688 108.625C300.217 109.892 299.233 112.936 300.5 115.406C301.767 117.876 304.811 118.83 307.281 117.562C311.575 115.359 315.587 112.733 319.719 110.25C322.999 108.279 326.401 106.389 330.062 105.219C332.997 104.281 336.125 103.882 339.156 103.375C343.198 102.699 347.252 102.085 351.312 101.531C365.262 99.6279 379.273 98.3838 393.312 97.375C430.669 94.6907 468.074 92.699 505.5 91.3125C520.864 90.7433 536.228 90.2346 551.594 89.7188C564.574 89.283 577.525 88.6969 590.5 89.625C606.891 90.7975 622.967 94.0143 638.688 98.75C641.496 99.5949 644.436 97.9956 645.281 95.1875C646.126 92.3794 644.527 89.4386 641.719 88.5938C625.246 83.644 608.422 80.2788 591.25 79.0625C584.344 78.5733 577.432 78.4964 570.531 78.5938Z" fill="#ededdb" fill-opacity="0.362613" stroke="none"/>
</g>
<g filter="url(#Filter_4)" opacity="0.441314" vectornator:blur="32.3643">
<path d="M123.781 40.75C118.418 41.2377 112.925 40.2313 107.75 42.1562C105.488 42.9976 103.478 44.3956 101.5 45.75C98.6885 47.6756 96.0003 49.7672 93.375 51.9375C84.7849 59.0386 77.0271 67.0692 68.5312 74.2812C66.4131 76.0761 66.1426 79.2568 67.9375 81.375C69.7324 83.4932 72.9131 83.7636 75.0312 81.9688C83.4836 74.819 91.2911 66.9221 99.9375 60C102.356 58.0634 104.797 56.1911 107.375 54.4688C108.641 53.6226 109.957 52.5889 111.406 52.0625C113.621 51.2581 116.201 51.4614 118.5 51.5C120.585 51.535 122.64 51.5191 124.719 51.3438C127.64 51.0887 129.786 48.5151 129.531 45.5938C129.276 42.6724 126.703 40.4949 123.781 40.75Z" fill="#ededdb" fill-opacity="0.362613" stroke="none"/>
</g>
<g filter="url(#Filter_5)" opacity="0.441314" vectornator:blur="32.3643">
<path d="M171.375 36.8438C169.363 36.8601 167.353 36.9486 165.344 37.1875C162.087 37.5748 158.909 38.3944 155.75 39.25C152.022 40.2595 148.342 41.3776 144.688 42.625C131.946 46.9735 119.744 52.6388 107.812 58.8438C106.537 59.5073 105.266 60.1928 104 60.875C102.739 61.5546 101.471 62.2416 100.219 62.9375C99.3983 63.3935 98.6017 63.8252 97.7812 64.2812C96.2507 65.1319 94.3934 66.0242 93.6562 67.75C93.398 68.3546 93.1499 68.9993 93.125 69.6562C93.0936 70.4866 93.2003 71.35 93.5 72.125C93.7701 72.8235 94.2729 73.4189 94.7812 73.9688C95.1051 74.3191 95.5563 74.5413 95.9688 74.7812C97.1152 75.4481 98.549 75.5303 99.8438 75.5312C104.772 75.5349 109.638 74.4491 114.562 74.4062C117.339 74.3811 119.588 72.12 119.562 69.3438C119.547 67.6891 118.679 66.2798 117.438 65.375C119.526 64.3241 121.575 63.1881 123.688 62.1875C133.235 57.6658 143.034 53.6701 153.156 50.625C157.069 49.4479 161.078 48.2062 165.125 47.5938C167.505 47.2336 169.907 47.0968 172.312 47.125C179.208 47.2059 186.035 48.5119 192.844 49.4688C197.066 50.062 201.344 50.3174 205.5 51.3125C211.329 52.7083 216.939 54.8362 222.719 56.4062C227.874 57.8066 233.229 58.3053 238.344 59.8438C240.111 60.3755 241.775 61.2432 243.438 62.0312C245.569 63.0419 247.712 64.0152 249.969 64.7188C255.129 66.3272 260.501 67.3256 265.812 68.2812C270.11 69.0544 274.376 69.8266 278.656 70.6875C281.531 71.2641 284.33 69.4065 284.906 66.5312C285.483 63.656 283.625 60.8578 280.75 60.2812C276.398 59.4111 272.057 58.6246 267.688 57.8438C262.807 56.9716 257.837 56.0636 253.094 54.5938C249.047 53.3398 245.468 50.9855 241.406 49.75C236.186 48.1619 230.734 47.66 225.469 46.25C219.182 44.5663 213.063 42.2037 206.688 40.8438C203.619 40.1892 200.548 39.9308 197.438 39.5625C194.758 39.2452 192.077 38.8204 189.406 38.4375C183.439 37.5821 177.41 36.7948 171.375 36.8438Z" fill="#ededdb" fill-opacity="0.362613" stroke="none"/>
</g>
<g filter="url(#Filter_6)" opacity="0.441314" vectornator:blur="32.3643">
<path d="M354.531 42.7188C342.081 42.5847 329.632 42.6733 317.188 42.875C303.052 43.1041 288.917 43.5983 274.781 43.7812C262.605 43.9389 250.456 43.136 238.281 43.4688C233.57 43.5975 228.9 44.0519 224.219 44.5625C222.058 44.7982 219.903 44.9868 217.75 45.2812C215.067 45.6482 212.391 46.1535 209.719 46.5938C207.443 46.9687 205.179 47.4362 202.906 47.8438C202.854 47.8442 202.802 47.8433 202.75 47.8438C199.562 47.8712 196.337 47.9207 193.156 48.1562C188.913 48.4705 184.697 49.1295 180.469 49.5938C171.883 50.5364 163.189 51.4741 155.219 55.0312C154.086 55.5366 152.668 56.3421 152.031 57.4375C151.668 58.0619 151.267 58.7196 151.188 59.4375C151.076 60.4484 151.15 61.514 151.5 62.4688C151.8 63.2866 152.445 63.9165 153.062 64.5312C153.41 64.8775 153.903 65.0651 154.344 65.2812C155.846 66.0183 157.784 65.8941 159.406 65.8125C164.819 65.5402 170.199 64.7015 175.562 63.9688C177.727 63.673 179.867 63.3591 182 62.875C186.105 61.9433 190.122 60.6184 194.25 59.7812C197.631 59.0955 201.04 58.5712 204.438 57.9688C205.908 57.9654 207.376 57.9011 208.844 57.9062C214.807 57.9274 220.759 58.0209 226.719 58.2188C243.558 58.7777 260.366 60.194 277.031 62.6875C279.777 63.0987 282.339 61.2145 282.75 58.4688C283.011 56.7249 282.257 55.1221 281.031 54.0312C289.604 53.8797 298.177 53.6541 306.75 53.5C333.157 53.0254 359.615 52.8183 386 54.1875C395.009 54.655 404.01 55.2703 412.969 56.3438C424.392 57.7124 435.74 59.6041 447.156 61.0312C458.629 62.4656 470.173 63.0939 481.688 64.0938C487.365 64.5867 493.029 65.2349 498.688 65.9062C501.6 66.251 504.249 64.1621 504.594 61.25C504.939 58.3379 502.85 55.6885 499.938 55.3438C494.168 54.6622 488.413 54.0309 482.625 53.5312C471.244 52.5488 459.809 51.9445 448.469 50.5312C437.034 49.1063 425.661 47.2088 414.219 45.8438C406.791 44.9576 399.341 44.3784 391.875 43.9375C379.446 43.2035 366.981 42.8528 354.531 42.7188Z" fill="#ededdb" fill-opacity="0.362613" stroke="none"/>
</g>
<g filter="url(#Filter_7)" opacity="0.441314" vectornator:blur="32.3643">
<path d="M506.125 38.6875C500.383 38.6374 494.641 38.8661 488.906 39.125C477.592 39.6359 466.309 40.4509 455 41.0625C441.327 41.8019 427.628 41.9833 413.938 42.0625C390.083 42.2006 366.229 41.912 342.375 41.8438C334.401 41.8209 326.443 41.8119 318.469 41.875C315.812 41.896 313.157 41.9394 310.5 41.9688C308.856 41.9869 307.2 41.9506 305.562 42.125C302.404 42.4613 299.359 43.4279 296.25 44.0312C293.525 44.5604 291.752 47.212 292.281 49.9375C292.81 52.663 295.431 54.4354 298.156 53.9062C300.969 53.36 303.772 52.424 306.625 52.125C308.377 51.9414 310.179 52.0187 311.938 52C314.579 51.972 317.203 51.9489 319.844 51.9375C327.786 51.9033 335.714 51.9011 343.656 51.9375C367.094 52.0449 390.561 52.4215 414 52.375C427.858 52.3475 441.689 52.1985 455.531 51.5C466.813 50.9308 478.089 50.134 489.375 49.6562C494.924 49.4214 500.475 49.1965 506.031 49.25C523.401 49.4171 540.638 51.5691 557.781 54.2188C560.68 54.6654 563.397 52.6795 563.844 49.7812C564.29 46.883 562.304 44.1654 559.406 43.7188C541.758 41.0074 524.004 38.8433 506.125 38.6875Z" fill="#ededdb" fill-opacity="0.362613" stroke="none"/>
</g>
<g filter="url(#Filter_8)" opacity="0.441314" vectornator:blur="32.3643">
<path d="M274.406 152.5C273.39 152.461 272.367 152.623 271.406 152.875C268.276 153.697 265.296 155.203 262.438 156.688C256.006 160.026 250.183 164.384 244.719 169.125C237.426 175.452 230.711 182.513 224.438 189.844C203.32 214.52 187.562 244.813 185.219 277.625C184.809 283.367 184.824 289.131 185.188 294.875C185.446 298.966 185.873 303.061 186.625 307.094C186.806 308.067 186.993 308.974 187.219 309.938C187.656 311.801 188.04 313.901 189.062 315.562C189.423 316.149 189.977 316.581 190.469 317.062C190.567 317.159 190.692 317.214 190.812 317.281C191.501 317.666 192.212 317.944 193 318.031C193.587 318.096 194.176 318.04 194.75 317.906C195.014 317.845 195.314 317.734 195.344 317.719C195.353 317.715 195.366 317.723 195.375 317.719C195.388 317.713 195.394 317.693 195.406 317.688C195.542 317.632 195.684 317.601 195.812 317.531C196.084 317.385 196.374 317.21 196.625 317.031C197.281 316.564 197.812 315.927 198.188 315.219C199.012 313.664 198.87 311.826 198.781 310.125C198.703 308.61 198.593 307.107 198.5 305.594C198.327 302.781 198.434 299.972 198.312 297.156C198.161 293.647 197.834 290.135 197.688 286.625C197.542 283.152 197.585 279.612 198.25 276.188C198.758 273.572 199.73 271.075 200.594 268.562C201.809 265.028 203.045 261.505 204.344 258C209.676 243.612 215.85 229.466 223.688 216.25C225.285 213.556 226.945 210.915 228.688 208.312C229.515 207.076 230.31 205.804 231.219 204.625C232.484 202.984 233.982 201.469 235.344 199.906C236.104 199.034 236.829 198.027 237.656 197.219C238.194 196.694 238.828 196.262 239.406 195.781C240.427 194.933 241.448 194.098 242.469 193.25C243.441 192.441 244.375 191.586 245.375 190.812C246.743 189.754 248.221 188.792 249.625 187.781C254.029 184.611 258.493 181.514 262.781 178.188C266.22 175.52 264.536 176.575 276.844 163.875C277.643 163.449 278.363 162.887 278.875 162.062C280.028 159.115 279.914 160.186 280.031 159.094C280.285 156.731 279.318 154.644 277.312 153.344C276.436 152.776 275.422 152.539 274.406 152.5Z" fill="#ededdb" fill-opacity="0.362613" stroke="none"/>
</g>
<g filter="url(#Filter_9)" opacity="0.441314" vectornator:blur="32.3643">
<path d="M301.781 138.25C301.135 138.158 300.483 138.197 299.812 138.375C291.267 140.638 282.208 141.048 274.062 144.719C270.891 146.148 267.938 148.101 265.031 150C260.878 152.713 256.795 155.51 252.812 158.469C241.182 167.11 230.205 176.975 221.281 188.438C214.838 196.714 209.562 205.841 204.781 215.156C202.43 219.738 200.193 224.386 197.969 229.031C196.656 231.773 195.093 234.493 194.281 237.438C193.298 241.004 193.377 244.683 193.188 248.344C193.057 250.877 192.68 253.413 192.438 255.938C192.083 259.63 191.885 263.324 191.781 267.031C191.741 268.477 191.6 270.028 191.812 271.469C191.993 272.688 192.43 273.887 193.375 274.75C193.677 275.025 194.002 275.276 194.344 275.5C194.548 275.634 194.781 275.706 195 275.812C195.009 275.817 195.023 275.808 195.031 275.812C195.036 275.815 195.029 275.848 195.031 275.844C195.067 275.86 195.285 275.913 195.469 275.969C195.84 276.081 196.206 276.161 196.594 276.188C198.06 276.286 199.543 275.745 200.594 274.719C202.122 273.225 202.259 270.97 202.562 268.969C202.912 266.664 203.197 264.346 203.469 262.031C204.598 252.396 205.213 242.588 208.156 233.281C212.27 220.276 221.035 209.175 230.531 199.625C233.672 196.466 236.977 193.447 240.344 190.531C244.224 187.172 248.226 183.989 252.531 181.188C257.672 177.842 263.157 175.031 268.875 172.812C286.654 165.914 305.99 165.161 324.812 166.406C337.003 167.213 349.122 168.819 361.25 170.25C369.881 171.269 378.491 172.149 387.156 172.812C390.08 173.036 392.652 170.83 392.875 167.906C393.098 164.982 390.893 162.442 387.969 162.219C379.448 161.57 370.956 160.716 362.469 159.719C332.321 156.177 300.885 151.419 271.281 160.781C268.063 161.799 264.944 163.133 261.844 164.469C264.718 162.42 267.607 160.37 270.562 158.438C273.025 156.827 275.498 155.118 278.188 153.906C281.907 152.231 285.949 151.406 289.938 150.656C294.101 149.874 298.276 149.178 302.375 148.094C305.059 147.383 306.648 144.621 305.938 141.938C305.405 139.925 303.721 138.526 301.781 138.25Z" fill="#ededdb" fill-opacity="0.362613" stroke="none"/>
</g>
<g filter="url(#Filter_10)" opacity="0.441314" vectornator:blur="32.3643">
<path d="M372.969 145.406C359.966 145.6 346.981 146.978 334.219 149.469C327.853 150.711 321.362 151.586 315.125 153.406C312.16 154.271 309.273 155.382 306.531 156.812C305.126 157.546 303.671 158.317 302.531 159.438C301.202 160.744 300.327 162.552 299.719 164.5C297.38 164.537 295.046 164.492 292.75 165.031C289.87 165.708 287.256 167.267 284.844 168.938C283.149 170.111 281.312 171.483 280.375 173.375C279.973 174.187 279.726 175.151 279.781 176.062C279.845 177.119 280.072 177.917 280.656 178.812C282.565 181.737 285.762 181.295 288.75 181.25C289.79 181.234 290.835 181.203 291.875 181.188C292.915 181.172 293.928 181.172 294.969 181.156C298.7 181.1 302.433 180.837 306.156 180.594C317.411 179.86 328.607 178.614 339.844 177.656C345.151 177.655 350.473 177.639 355.781 177.656C366.504 177.69 377.216 177.923 387.938 178.031C392.542 178.484 397.141 178.994 401.75 179.344C403.043 179.442 404.237 178.987 405.188 178.25C422.316 178.47 439.434 178.582 456.562 178.875C470.437 179.112 484.313 179.295 498.188 179.562C512.701 179.842 527.235 180.452 541.719 181.438C545.606 181.702 549.455 182.121 553.344 182.375C554.658 182.461 555.945 182.871 557.219 183.188C560.633 184.036 564.747 185.039 567.844 182.75C568.304 182.41 568.669 182.07 569.031 181.625C569.565 180.969 569.965 180.212 570.219 179.406C570.458 178.646 570.568 177.828 570.531 177.031C570.463 175.53 570.058 174.109 569.125 172.906C566.298 169.263 561.537 170.138 557.625 170.781C556.678 170.937 555.4 171.297 554.406 171.156C550.446 170.595 546.548 169.576 542.562 169.188C537.153 168.66 531.707 168.554 526.281 168.281C518.659 167.899 511.06 167.486 503.438 167.125C469.837 165.532 436.192 164.717 402.562 164.062C380.07 163.625 357.56 163.056 335.062 163.188C329.438 163.22 323.812 163.373 318.188 163.562C319.935 163.058 321.693 162.623 323.469 162.25C326.553 161.603 329.684 161.11 332.781 160.531C336.439 159.848 340.073 159.112 343.75 158.531C349.146 157.679 354.585 157.053 360.031 156.625C366.561 156.112 373.107 155.882 379.656 156C382.806 156.057 385.987 156.142 389.125 156.438C393.727 156.871 398.219 157.913 402.75 158.781C405.982 159.4 409.229 159.918 412.5 160.281C430.279 162.256 448.144 163.13 466 164.062C468.929 164.215 471.41 161.96 471.562 159.031C471.715 156.103 469.491 153.621 466.562 153.469C448.546 152.533 430.418 151.844 412.5 149.625C406.792 148.918 401.232 147.531 395.562 146.594C388.118 145.363 380.499 145.294 372.969 145.406Z" fill="#ededdb" fill-opacity="0.362613" stroke="none"/>
</g>
<g filter="url(#Filter_11)" opacity="0.441314" vectornator:blur="32.3643">
<path d="M1010.12 188.094C1008.86 188.313 1007.68 189.022 1006.88 190.156C1006.81 190.245 1006.81 190.347 1006.75 190.438C1004.49 190.724 1002.26 191.26 1000.34 192.5C999.302 193.173 998.376 194.009 997.625 195C996.954 195.885 996.422 196.857 996.062 197.906C994.254 203.179 997.856 207.591 1001.84 210.562C1003.53 211.82 1005.33 212.921 1007.09 214.062C1009.05 215.328 1011 216.532 1013.16 217.438C1016.54 218.859 1020.14 219.772 1023.5 221.25C1025.84 222.277 1028.02 223.648 1030.16 225.031C1032.06 226.264 1033.9 227.553 1035.72 228.906C1036.54 229.517 1037.29 230.215 1038.09 230.844C1038.45 233.111 1039.03 235.324 1039.94 237.375C1041.48 240.86 1043.74 243.972 1045.38 247.406C1046.31 249.357 1047.06 251.407 1047.88 253.406C1049.83 258.186 1051.6 263.012 1053.16 267.938C1053.44 268.846 1053.67 269.775 1053.94 270.688C1053.78 273.163 1053.67 275.637 1053.94 278.125C1054.03 278.98 1054.19 279.94 1054.38 280.781C1054.87 283.093 1055.87 286.244 1057.78 288.094C1057.88 289.004 1058.05 289.912 1058.06 290.844C1058.22 302.411 1053.54 313.494 1049.53 324.125C1048.5 326.869 1049.88 329.936 1052.62 330.969C1055.37 332.002 1058.44 330.619 1059.47 327.875C1064.13 315.479 1069.27 302.589 1068.59 289.094C1069.65 288.898 1070.71 288.476 1071.69 287.75C1072.51 287.142 1073.08 286.56 1073.66 285.719C1077.22 280.512 1073.52 274.486 1072.09 269.281C1071.2 266.004 1070.45 262.708 1069.41 259.469C1069.07 258.44 1068.68 257.429 1068.31 256.406C1068.27 256.156 1068.23 255.907 1068.19 255.656C1067.35 250.124 1066.18 244.682 1064.66 239.312C1064.59 236.128 1064.32 232.96 1063.44 229.875C1061.74 223.957 1057.64 219.134 1053.12 215C1050.66 211.579 1048.01 208.309 1044.91 205.406C1040.76 201.53 1036.13 198.328 1031.22 195.5C1028.24 193.786 1025.2 192.09 1021.88 191.156C1019.99 190.628 1018.08 190.523 1016.16 190.406C1015.41 189.907 1014.64 189.454 1013.91 188.938C1012.77 188.137 1011.39 187.875 1010.12 188.094ZM1008.31 200.5C1009.98 200.352 1011.66 200.522 1013.34 200.594C1017.25 203.106 1021.23 205.523 1025.25 207.875C1030.2 210.774 1035.08 213.806 1039.72 217.188C1039.47 217.633 1039.28 218.086 1039.09 218.562C1036.98 217.085 1034.81 215.662 1032.59 214.344C1029.97 212.787 1027.24 211.538 1024.38 210.5C1021.77 209.558 1019.08 208.809 1016.56 207.656C1014.75 206.825 1013.15 205.659 1011.47 204.594C1009.87 203.581 1007.85 202.37 1006.5 200.875C1006.52 200.868 1006.54 200.851 1006.56 200.844C1007.13 200.662 1007.72 200.553 1008.31 200.5Z" fill="#ededdb" fill-opacity="0.362613" stroke="none"/>
</g>
<g filter="url(#Filter_12)" opacity="0.441314" vectornator:blur="32.3643">
<path d="M247.906 888.812C247.045 888.943 246.213 889.233 245.438 889.719C240.557 892.775 241.886 899.102 241.781 903.906C241.728 906.338 241.432 908.749 241.406 911.188C241.387 912.939 241.425 914.688 241.5 916.438C241.795 923.267 242.635 930.078 243.969 936.781C245.424 944.095 247.462 951.281 249.312 958.5C251.033 965.215 252.676 971.952 254.812 978.531C255.178 980.16 255.568 981.798 255.875 983.438C256.45 986.511 256.943 989.576 257.781 992.594C258.888 996.58 260.883 1000.44 264.219 1003C265.79 1004.21 267.654 1004.94 269.594 1004.78C271.694 1007.47 273.272 1010.66 275.969 1012.84C278.29 1014.72 281.267 1015.52 284.156 1014.5C284.622 1014.34 284.973 1013.97 285.406 1013.72C288.18 1015.78 291.084 1017.65 294.188 1019.25C297.599 1021.01 301.244 1022.58 304.969 1023.53C308.766 1024.51 312.754 1024.7 316.656 1024.69C323.342 1024.67 329.964 1023.83 336.625 1023.41C351 1022.49 365.412 1022.2 379.812 1022.16C382.745 1022.15 385.104 1019.78 385.094 1016.84C385.084 1013.91 382.682 1011.55 379.75 1011.56C365.134 1011.61 350.526 1011.87 335.938 1012.81C329.492 1013.23 323.093 1014.07 316.625 1014.09C313.626 1014.1 310.517 1014.03 307.594 1013.28C305.169 1012.66 302.788 1011.66 300.531 1010.59C296.938 1008.9 293.654 1006.64 290.531 1004.19C290.546 1001.12 289.826 997.922 289.406 995.031C289.123 993.08 288.975 991.104 288.656 989.156C286.777 977.664 282.062 967.129 276.406 957.031C275.684 955.741 274.922 954.471 274.188 953.188C272.09 945.211 269.747 937.296 267.562 929.344C267.593 929.272 267.66 929.23 267.688 929.156C268.471 927.051 267.712 924.813 266.031 923.5C265.63 921.917 265.19 920.349 264.875 918.75C264.131 914.976 263.632 911.133 262.531 907.438C261.955 905.504 261.184 903.618 260.594 901.688C259.454 897.958 258.259 893.86 255.219 891.188C253.279 889.482 250.491 888.421 247.906 888.812ZM251.75 907.406C252.348 909.156 252.987 910.874 253.406 912.688C253.777 914.289 254.053 915.913 254.344 917.531C253.558 917.382 252.756 917.369 251.938 917.5C251.814 915.427 251.606 913.357 251.625 911.281C251.637 909.985 251.678 908.696 251.75 907.406ZM263.156 955C263.791 956.085 264.433 957.161 265.062 958.25C265.359 959.446 265.759 960.61 266.031 961.812C266.782 965.123 267.216 968.493 267.688 971.844C266.316 968.242 265.155 964.574 264.219 960.875C263.728 958.936 263.514 956.955 263.156 955Z" fill="#ededdb" fill-opacity="0.362613" stroke="none"/>
</g>
<g filter="url(#Filter_13)" opacity="0.441314" vectornator:blur="32.3643">
<path d="M469.938 990.156C463.227 990.269 456.554 991.284 449.938 992.438C438.472 993.058 427.009 993.716 415.531 994.062C406.005 994.35 396.476 994.352 386.969 993.625C377.694 992.916 368.427 991.809 359.125 991.5C354.023 991.331 348.965 991.533 343.875 991.844C339.509 992.111 335.122 992.24 330.812 993.062C327.183 993.755 323.631 994.952 320.531 997C319.812 997.475 319.068 997.994 318.469 998.625C318.459 998.636 318.447 998.646 318.438 998.656C317.314 998.748 316.184 998.738 315.062 998.844C307.76 999.535 300.481 1000.48 293.375 1002.34C290.665 1003.06 287.92 1003.85 285.344 1004.97C282.431 1006.23 279.322 1008.25 279.219 1011.81C279.205 1012.28 279.247 1012.73 279.344 1013.19C279.438 1013.63 279.588 1014.09 279.781 1014.5C279.961 1014.88 280.184 1015.22 280.438 1015.56C281.494 1016.98 283.183 1017.74 284.781 1018.34C286.799 1019.11 288.923 1019.6 291.062 1019.88C300.012 1021.02 308.798 1018.29 317.719 1018.16C320.495 1018.11 322.731 1015.84 322.688 1013.06C322.656 1011.04 321.396 1009.33 319.656 1008.56C320.166 1008.52 320.677 1008.51 321.188 1008.47C322.176 1008.79 323.207 1008.98 324.219 1009.09C326.653 1009.36 329.118 1009.35 331.562 1009.41C335.322 1009.5 339.014 1010.07 342.75 1010.47C346.85 1010.9 350.979 1011.19 355.094 1011.44C368.031 1012.23 381.013 1012.19 393.969 1012.09C407.268 1012 420.589 1011.71 433.875 1011.09C442.9 1010.68 451.895 1010.01 460.906 1009.38C464.287 1009.14 467.661 1008.96 471.031 1008.59C472.988 1008.38 474.934 1008.1 476.906 1008.09C482.475 1008.07 488.275 1008.95 493.594 1006.81C495.445 1006.07 497.412 1004.74 498.875 1003.09C508.699 1003.84 518.523 1004.88 528.312 1005.97C531.227 1006.29 533.834 1004.2 534.156 1001.28C534.479 998.367 532.384 995.76 529.469 995.438C518.471 994.223 507.446 993.091 496.406 992.344C495.682 992.065 494.968 991.742 494.219 991.594C491.086 990.973 487.837 990.986 484.656 990.906C479.733 990.783 474.872 990.073 469.938 990.156Z" fill="#ededdb" fill-opacity="0.362613" stroke="none"/>
</g>
<g filter="url(#Filter_14)" opacity="0.441314" vectornator:blur="32.3643">
<path d="M1055.25 991.062C1051.03 990.989 1046.93 992.49 1042.78 993.031C1040.73 993.299 1038.63 993.25 1036.56 993.344C1033.59 993.479 1030.59 993.675 1027.62 993.875C1019.13 994.446 1010.66 995.043 1002.16 995.5C987.449 996.29 972.703 997.038 958.125 999.25C951.833 1000.2 945.636 1001.81 939.562 1003.69C938.56 1004 937.589 1004.41 936.594 1004.75C935.673 1004.71 934.74 1004.6 933.844 1004.78C933.379 1004.88 932.777 1005.06 932.375 1005.28C931.945 1005.52 931.462 1005.74 931.125 1006.09C930.711 1006.53 930.373 1007.04 930.062 1007.56C929.943 1007.64 929.802 1007.69 929.688 1007.78C929.223 1008.14 928.68 1008.59 928.344 1009.06C928.057 1009.47 927.753 1009.88 927.594 1010.34C927.354 1011.05 927.124 1011.82 927.156 1012.56C927.192 1013.39 927.425 1014.22 927.781 1014.97C928.073 1015.58 928.572 1016.06 929.062 1016.53C930.223 1017.64 931.994 1018.02 933.531 1018.16C945.095 1019.2 956.73 1018.24 968.219 1016.81C971.209 1016.44 974.2 1016.05 977.188 1015.66C990.462 1015.38 1003.76 1014.65 1016.91 1012.78C1022.8 1011.94 1028.65 1010.9 1034.47 1009.66C1036.54 1009.21 1038.59 1008.7 1040.66 1008.25C1042.27 1007.9 1043.92 1007.76 1045.56 1007.66C1051.42 1007.29 1057.98 1006.8 1061.25 1001.12C1061.92 999.958 1062.4 998.616 1062.38 997.25C1062.37 997.009 1062.25 996.852 1062.22 996.625C1062.21 996.528 1062.26 996.442 1062.25 996.344C1062.21 996.048 1062.05 995.808 1061.97 995.531C1061.84 995.13 1061.76 994.72 1061.56 994.375C1061.56 994.368 1061.57 994.351 1061.56 994.344C1061.47 994.188 1061.32 994.082 1061.22 993.938C1059.93 992.125 1057.72 991.105 1055.25 991.062Z" fill="#ededdb" fill-opacity="0.362613" stroke="none"/>
</g>
<g filter="url(#Filter_15)" opacity="0.441314" vectornator:blur="32.3643">
<path d="M1042.28 871.094C1041.02 871.194 1039.77 871.547 1038.66 872.156C1031.96 875.829 1034.31 884.453 1035.28 890.469C1035.41 891.281 1035.52 892.085 1035.56 892.906C1035.7 895.485 1035.84 898.054 1036.09 900.625C1036.35 903.197 1036.66 905.755 1037.03 908.312C1038.12 915.792 1039.62 923.22 1040.78 930.688C1041.55 935.671 1042.11 940.668 1042.59 945.688C1043.66 956.88 1044.13 968.135 1043.94 979.375C1043.94 979.437 1043.94 979.5 1043.94 979.562C1043.66 982.898 1043.5 986.268 1043.12 989.594C1042.85 992.023 1042.1 994.363 1041.75 996.781C1041.45 998.904 1041.36 1001.06 1041.88 1003.16C1041.95 1003.45 1042.12 1003.66 1042.22 1003.94C1041.22 1012.06 1039.91 1020.13 1038.12 1028.12C1037.49 1030.99 1039.29 1033.83 1042.16 1034.47C1045.02 1035.11 1047.86 1033.3 1048.5 1030.44C1049.93 1023.99 1051.04 1017.49 1052 1010.97C1052.4 1010.99 1052.78 1011.11 1053.19 1011.09C1055.04 1011.04 1056.9 1010.65 1058.62 1009.97C1060.1 1009.39 1061.51 1008.61 1062.72 1007.56C1064.48 1006.04 1065.58 1004.07 1066.31 1001.88C1068.19 996.232 1067.04 990.321 1066.28 984.594C1066.14 983.496 1066 982.266 1065.94 981.156C1065.8 978.915 1065.87 976.619 1065.91 974.375C1065.95 971.194 1066.03 968.025 1066.09 964.844C1066.29 954.699 1066.42 944.518 1065.44 934.406C1065.44 934.386 1065.44 934.364 1065.44 934.344C1067.14 926.191 1068.53 917.996 1068.72 909.656C1068.89 901.95 1068.14 894.073 1065.22 886.875C1064.1 884.126 1062.82 881.097 1059.5 880.562C1059 880.483 1058.5 880.449 1058 880.5C1056.17 880.688 1054.95 881.779 1053.97 883.125C1053.31 881.028 1052.64 878.934 1051.59 877C1049.71 873.523 1046.44 870.763 1042.28 871.094ZM1046.09 893.062C1046.52 894.324 1047 895.559 1047.28 896.875C1047.89 899.724 1048.24 902.632 1048.75 905.5C1048.66 906.613 1048.55 907.727 1048.5 908.844C1048.44 910.095 1048.48 911.342 1048.47 912.594C1048.15 910.666 1047.78 908.747 1047.5 906.812C1046.98 903.222 1046.54 899.62 1046.28 896C1046.21 895.024 1046.14 894.041 1046.09 893.062ZM1055.62 981.438C1055.67 982.265 1055.69 983.083 1055.78 983.906C1055.92 985.177 1056.13 986.67 1056.31 987.938C1056.78 991.211 1057.37 994.765 1056.53 998.031C1055.95 992.506 1055.31 986.963 1055.62 981.438Z" fill="#ededdb" fill-opacity="0.362613" stroke="none"/>
</g>
<g filter="url(#Filter_16)" opacity="0.441314" vectornator:blur="32.3643">
<path d="M321.562 191.562C307.376 194.443 293.169 197.579 279.656 202.875C276.731 204.021 273.851 205.27 271.031 206.656C269.714 207.304 268.438 208.045 267.188 208.781C265.83 207.884 264.14 207.499 262.281 207.844C260.749 208.128 259.208 208.811 257.969 209.75C253.202 213.361 252.024 219.553 251.031 225.094C250.85 226.104 250.664 227.086 250.469 228.094C250.099 230.003 249.878 231.942 249.688 233.875C247.826 237.147 246.524 240.747 245.719 244.406C244.774 248.696 244.396 253.085 244.25 257.469C244.04 263.799 244.365 270.139 245 276.438C245.7 283.38 246.765 290.264 247.844 297.156C247.562 307.282 247.174 317.402 246.938 327.531C246.77 334.694 246.627 341.84 246.375 349C246.127 356.048 245.78 363.107 245.562 370.156C245.359 376.732 245.484 383.31 245.062 389.875C244.965 391.394 244.855 392.916 244.812 394.438C244.782 395.554 244.801 396.57 244.844 397.688C244.865 398.246 244.891 398.818 244.938 399.375C245.114 401.5 245.298 403.982 246.656 405.75C246.866 406.023 247.077 406.295 247.375 406.469C248.223 406.963 249.14 407.308 250.031 407.719C250.367 407.873 250.994 407.784 251.344 407.75C252.079 407.679 253.195 407.449 253.75 406.906C254.237 406.431 254.758 405.97 255.219 405.469C255.433 405.235 255.778 404.486 255.875 404.25C256.318 403.17 256.392 401.931 256.5 400.781C256.641 399.276 256.737 397.76 256.812 396.25C256.863 395.235 256.895 394.234 256.938 393.219C256.992 391.915 257.06 390.617 257.094 389.312C257.232 383.999 256.918 378.658 257.062 373.344C257.271 365.704 257.757 358.072 258.188 350.438C258.628 350.439 259.07 350.433 259.5 350.344C262.64 349.693 264.785 345.87 265.875 343.188C268.454 336.842 267.498 329.965 267.875 323.312C268.052 320.185 268.481 317.093 268.719 313.969C269.142 308.389 269.37 302.781 269.5 297.188C269.828 283.093 269.436 269.001 269.344 254.906C269.303 248.583 269.401 242.261 269.438 235.938C269.448 234.133 269.461 232.336 269.438 230.531C271.543 229.652 273.678 228.87 275.875 228.25C285.976 225.399 296.491 224.372 306.594 221.5C309.264 220.741 310.821 217.952 310.062 215.281C309.304 212.611 306.514 211.054 303.844 211.812C292.788 214.953 281.213 215.951 270.281 219.531C271.942 218.201 273.768 217.13 275.688 216.188C278.571 214.771 281.53 213.521 284.531 212.375C297.168 207.547 310.463 204.65 323.688 201.969C326.561 201.386 328.396 198.593 327.812 195.719C327.229 192.845 324.436 190.979 321.562 191.562Z" fill="#ededdb" fill-opacity="0.362613" stroke="none"/>
</g>
<g filter="url(#Filter_17)" opacity="0.441314" vectornator:blur="32.3643">
<path d="M359.469 189.969C357.535 189.937 355.618 190.005 353.688 190.125C353.234 190.153 352.796 190.245 352.344 190.281C349.691 190.2 347.097 190.401 344.469 190.781C331.153 192.71 318.15 196.749 305.656 201.719C295.759 202.838 286.005 205.038 276.938 209.281C270.306 212.385 264.279 216.422 259.406 221.938C257.619 223.96 255.885 226.117 254.656 228.531C252.698 232.378 251.932 236.712 251.5 240.969C250.971 246.187 251.519 251.421 252.625 256.531C253.743 261.697 255.326 266.821 257.219 271.75C259.033 276.475 261.108 281.1 263.031 285.781C264.146 288.494 267.256 289.771 269.969 288.656C272.681 287.542 273.99 284.431 272.875 281.719C271.806 279.118 270.695 276.556 269.594 273.969C267.493 269.031 265.61 264.044 264.156 258.875C262.027 251.304 260.826 243.209 263.219 235.531C263.538 234.506 264.066 233.61 264.594 232.719C264.76 233.221 264.87 233.73 265.125 234.219C267.903 239.536 275.152 242.274 280.906 241.688C282.929 241.481 284.863 240.888 286.688 240C290.439 238.174 293.359 235.197 296.844 232.969C298.42 231.961 300.104 231.101 301.719 230.156C305.018 228.225 308.272 226.216 311.531 224.219C315.954 221.508 320.421 218.776 325 216.281C326.174 216.417 327.348 216.613 328.531 216.688C331.302 216.863 333.669 214.771 333.844 212C333.844 211.989 333.843 211.98 333.844 211.969C334.978 211.476 336.125 211.035 337.281 210.594C338.759 210.518 340.244 210.534 341.719 210.406C345.45 210.084 349.189 209.498 352.938 209.438C357.667 209.362 362.371 210.237 367.094 209.594C370.103 209.184 375.138 207.909 376.562 204.812C376.64 204.645 376.649 204.454 376.719 204.281C376.826 204.286 376.923 204.308 377.031 204.312C378.454 204.365 380.568 204.476 381.812 203.625C382.428 203.205 383.13 202.803 383.5 202.156C384.065 201.168 384.466 200.013 384.5 198.875C384.528 197.953 384.081 197.084 383.688 196.25C383.489 195.829 383.109 195.518 382.781 195.188C382.342 194.745 381.717 194.421 381.156 194.156C379.003 193.14 376.582 192.597 374.281 192.031C370.839 191.185 367.381 190.478 363.844 190.188C362.388 190.068 360.929 189.993 359.469 189.969ZM303.688 216.812C302.231 217.709 300.737 218.591 299.281 219.469C296.134 221.367 292.806 223.054 289.812 225.188C287.394 226.912 285.185 229.011 282.562 230.438C280.682 231.46 278.841 231.612 276.812 230.938C276.157 230.72 275.502 230.432 274.938 230.031C274.902 230.006 274.878 229.963 274.844 229.938C276.062 228.847 277.485 227.969 278.906 227.125C280.778 226.388 282.662 225.65 284.531 224.906C290.986 222.339 297.346 219.643 303.688 216.812Z" fill="#ededdb" fill-opacity="0.362613" stroke="none"/>
</g>
<g filter="url(#Filter_18)" opacity="0.441314" vectornator:blur="32.3643">
<path d="M110.75 13.4062C106.901 13.5922 102.931 15.1379 99.7812 17.25C94.36 20.8848 89.9793 25.8125 86.25 31.125C82.13 36.9941 78.8629 43.3443 76.0312 49.9062C68.5915 52.7094 61.3676 56.506 56.0312 62.5312C54.3362 64.4451 52.8839 66.5583 51.625 68.7812C49.3155 72.8593 47.6327 77.2695 46.5 81.8125C45.1231 87.3353 44.5653 93.0352 44.5312 98.7188C44.4791 107.438 45.7527 116.098 47.4062 124.656C47.3245 139.626 48.2749 154.642 50.9375 169.375C54.3969 188.517 60.5839 206.92 67.9688 224.875C69.0848 227.587 72.1632 228.897 74.875 227.781C77.5868 226.665 78.8973 223.556 77.7812 220.844C71.9885 206.775 66.8872 192.431 63.4375 177.594C61.834 170.697 60.6968 163.714 59.8125 156.688C61.5886 158.842 63.4555 160.955 65.375 162.969C69.1306 166.909 73.0462 170.696 76.4688 174.938C76.8371 175.394 77.2266 175.855 77.5938 176.312C77.6028 176.324 77.6159 176.332 77.625 176.344C77.7577 176.509 77.8961 176.683 78.0312 176.875C78.0245 176.882 78.1516 177.046 78.1875 177.094C78.2508 177.17 78.3032 177.251 78.375 177.312C78.8156 177.691 79.2537 178.785 79.7188 178.438C82.3532 176.466 84.2547 173.684 86.4688 171.25C86.4773 171.241 86.3523 171.053 86.3125 171C86.3036 170.988 86.2902 170.981 86.2812 170.969C86.2499 170.931 86.217 170.882 86.1875 170.844C86.1691 170.82 86.1434 170.805 86.125 170.781C86.0684 170.733 86.0251 170.63 85.9688 170.562C85.9636 170.556 85.9442 170.54 85.9375 170.531C85.8615 170.431 85.7947 170.319 85.7188 170.219C85.6478 170.126 85.5494 170.023 85.5312 170C85.2823 169.67 85.0297 169.33 84.7812 169C82.8549 166.439 80.9416 163.877 79.0625 161.281C75.6525 156.57 72.5526 151.687 70.3438 146.281C68.34 141.377 67.1117 136.184 66.6562 130.906C65.9012 122.157 67.2232 113.011 68.875 104.406C71.2669 91.9461 75.4031 80.0092 79.8438 68.1562C80.7523 65.7311 81.7238 63.3256 82.6562 60.9062C83.9954 60.5541 85.352 60.1611 86.7188 60C89.1122 59.7179 91.5173 59.9338 93.9062 60.1562C95.0955 60.267 96.3288 60.3486 97.5 60.5938C99.9556 61.1078 102.282 62.0181 104.75 62.5C107.507 63.0383 110.337 62.8444 113.125 62.75C117.475 62.6028 122.08 62.1061 125.656 59.375C128.037 57.5565 129.733 54.9209 129.875 51.875C129.99 49.4036 129.198 47.0573 128.25 44.8125C127.659 43.4133 126.768 41.9555 126.469 40.4375C124.961 32.7908 126.221 24.2493 121.031 17.75C118.352 14.3948 114.599 13.2203 110.75 13.4062ZM111.656 23.8125C111.889 23.8118 112.147 23.7972 112.375 23.8438C112.458 23.8607 112.657 23.9935 112.594 23.9375C112.684 24.0402 112.79 24.1431 112.875 24.25C112.971 24.3703 113.071 24.4969 113.156 24.625C113.554 25.2211 113.832 25.8858 114.062 26.5625C114.719 28.4857 114.92 30.5515 115.094 32.5625C115.248 34.3451 115.331 36.1466 115.5 37.9375C114.314 37.5306 112.977 37.5539 111.75 38.125C104.621 41.4449 97.0509 43.4894 89.5 45.625C89.9978 44.7097 90.4638 43.7718 91 42.875C94.5192 36.9887 98.6325 31.0829 104.156 26.9062C105.846 25.6283 107.671 24.5677 109.75 24.0625C110.379 23.9096 111.007 23.8144 111.656 23.8125ZM117.469 46.1562C117.71 46.7264 117.907 47.3103 118.156 47.875C118.605 48.8927 118.988 49.9182 119.219 51C119.06 51.1358 118.919 51.2846 118.719 51.375C117.29 52.019 115.595 52.1357 114.062 52.2188C112.733 52.2908 111.394 52.276 110.062 52.3125C109.049 52.3403 108.094 52.4038 107.094 52.25C106.22 52.1156 105.382 51.8322 104.531 51.5938C108.422 50.3494 112.273 48.9845 116 47.25C116.58 46.9801 117.051 46.5911 117.469 46.1562ZM66.7188 74.1875C64.0372 81.962 61.7099 89.8283 59.9062 97.8438C61.1808 89.8752 63.1875 81.9591 66.5 74.625C66.5627 74.4862 66.654 74.3281 66.7188 74.1875Z" fill="#ededdb" fill-opacity="0.362613" stroke="none"/>
</g>
<g filter="url(#Filter_19)" opacity="0.441314" vectornator:blur="32.3643">
<path d="M69.0625 703.688C66.2866 703.736 64.0766 706.005 64.125 708.781C64.6301 738.134 65.586 767.515 65.25 796.875C64.9205 825.66 62.9747 854.46 64.0312 883.25C64.858 905.779 68.2931 928.076 71.1562 950.406C72.1585 958.223 73.0396 966.065 73.8125 973.906C74.1015 976.824 76.6755 978.945 79.5938 978.656C82.512 978.367 84.664 975.762 84.375 972.844C83.5848 964.9 82.6787 956.981 81.6562 949.062C78.8141 927.052 75.3768 905.081 74.5 882.875C74.3249 878.441 74.3108 874 74.25 869.562C73.9187 845.365 75.2514 821.163 75.4375 796.969C75.664 767.516 74.6759 738.07 74.1562 708.625C74.1079 705.849 71.8384 703.639 69.0625 703.688Z" fill="#000000" fill-opacity="0.362613" stroke="none"/>
</g>
<g filter="url(#Filter_20)" opacity="0.441314" vectornator:blur="32.3643">
<path d="M54.5312 909.656C51.6036 909.488 49.1061 911.729 48.9375 914.656C48.1245 928.882 46.4181 943.082 46.375 957.344C46.3603 962.204 46.5968 967.051 46.7812 971.906C47.0548 979.109 47.3513 986.331 47.6875 993.531C48.6183 1013.47 49.703 1033.4 51 1053.31C52.0814 1069.92 53.3884 1086.49 54.8438 1103.06C55.7388 1113.26 56.4666 1123.49 57.9375 1133.62C60.4687 1151.06 64.7109 1168.22 67.9375 1185.53C68.4457 1188.26 71.0518 1190.04 73.7812 1189.53C76.5107 1189.02 78.3207 1186.42 77.8125 1183.69C74.6186 1166.51 70.4201 1149.49 67.9375 1132.19C66.4329 1121.7 65.6999 1111.11 64.8125 1100.56C63.4245 1084.06 62.2344 1067.53 61.2188 1051C59.9988 1031.14 58.9987 1011.25 58.125 991.375C57.834 984.755 57.5895 978.154 57.3438 971.531C57.1689 966.82 56.9191 962.09 56.9375 957.375C56.9923 943.307 58.717 929.314 59.5312 915.281C59.6998 912.354 57.4589 909.825 54.5312 909.656Z" fill="#000000" fill-opacity="0.362613" stroke="none"/>
</g>
<g filter="url(#Filter_21)" opacity="0.441314" vectornator:blur="32.3643">
<path d="M1226.69 59.7812C1222.55 60.235 1218.42 60.8788 1214.28 61.3125C1211.52 61.5888 1209.5 64.0499 1209.78 66.8125C1210.06 69.5751 1212.52 71.5888 1215.28 71.3125C1219.43 70.9174 1223.57 70.7188 1227.72 70.3438C1230.64 70.052 1232.76 67.4492 1232.47 64.5312C1232.18 61.6133 1229.61 59.4895 1226.69 59.7812Z" fill="#000000" fill-opacity="0.362613" stroke="none"/>
</g>
<g filter="url(#Filter_22)" opacity="0.441314" vectornator:blur="32.3643">
<path d="M1190.84 48.2188C1188.17 48.4077 1185.47 48.9183 1183.06 50.125C1177.52 52.9024 1174.67 58.5492 1170.31 62.6562C1168.29 64.5605 1168.22 67.7295 1170.12 69.75C1172.03 71.7705 1175.2 71.873 1177.22 69.9688C1179.68 67.6517 1181.62 64.9335 1183.84 62.4062C1184.92 61.1878 1186.11 59.9162 1187.59 59.1875C1188.57 58.7078 1189.68 58.5686 1190.75 58.4688C1193.1 58.2494 1195.48 58.5146 1197.78 59C1200.62 59.5999 1203.36 60.5543 1206.03 61.6875C1207.23 62.1974 1208.37 62.72 1209.44 63.4688C1211.64 65.015 1213.44 67.0755 1215.22 69.0625C1216.7 70.718 1218.2 72.338 1219.81 73.875C1221.94 75.8957 1225.29 75.8126 1227.31 73.6875C1229.33 71.5624 1229.25 68.2082 1227.12 66.1875C1223.4 62.668 1220.38 58.4265 1216.25 55.3438C1213.79 53.5069 1210.99 52.3202 1208.12 51.25C1202.64 49.2001 1196.74 47.8017 1190.84 48.2188Z" fill="#000000" fill-opacity="0.362613" stroke="none"/>
</g>
<g filter="url(#Filter_23)" opacity="0.441314" vectornator:blur="32.3643">
<path d="M1209.69 67.5C1209.03 67.5149 1208.38 67.6526 1207.75 67.9375C1205.22 69.077 1204.08 72.062 1205.22 74.5938C1210.11 85.4836 1216.16 95.9177 1220.25 107.156C1222.4 113.063 1223.83 119.239 1225 125.406C1226.91 135.417 1227.82 145.769 1226.78 155.938C1225.91 164.519 1223.37 172.83 1220.81 181.031C1219.06 186.636 1217.34 192.229 1215.84 197.906C1215.1 200.742 1216.79 203.66 1219.62 204.406C1222.46 205.153 1225.38 203.461 1226.12 200.625C1229.93 186.132 1235.77 171.988 1237.22 156.969C1238.3 145.79 1237.24 134.422 1235.06 123.438C1233.61 116.121 1231.8 108.866 1229.09 101.906C1224.9 91.1182 1219.13 81.01 1214.38 70.4688C1213.52 68.5699 1211.65 67.4554 1209.69 67.5Z" fill="#000000" fill-opacity="0.362613" stroke="none"/>
</g>
<g filter="url(#Filter_24)" opacity="0.441314" vectornator:blur="32.3643">
<path d="M1223.94 109.75C1221.17 109.492 1218.73 111.548 1218.47 114.312C1217 129.971 1217.83 145.644 1219.16 161.281C1220.67 179.216 1222.81 197.189 1222.09 215.219C1221 242.724 1214.03 269.554 1210.78 296.812C1208.06 319.675 1209.38 342.822 1209.47 365.781C1209.48 368.714 1211.88 371.075 1214.81 371.062C1217.74 371.05 1220.11 368.682 1220.09 365.75C1220.05 355.299 1219.81 344.826 1219.75 334.375C1219.68 322.251 1219.85 310.087 1221.25 298.031C1224.45 270.487 1231.32 243.387 1232.31 215.594C1233.51 182.039 1225.35 148.779 1228.47 115.219C1228.73 112.454 1226.7 110.008 1223.94 109.75Z" fill="#000000" fill-opacity="0.362613" stroke="none"/>
</g>
<g filter="url(#Filter_25)" opacity="0.441314" vectornator:blur="32.3643">
<path d="M1218.19 349.562C1215.42 349.742 1213.32 352.136 1213.5 354.906C1215.08 379.295 1213.48 403.661 1213.28 428.062C1213.21 436.754 1213.37 445.443 1213.78 454.125C1215.69 494.116 1222.53 533.57 1229.44 572.938C1229.95 575.826 1232.67 577.759 1235.56 577.25C1238.45 576.741 1240.38 573.982 1239.88 571.094C1233 532.174 1226.13 493.157 1224.06 453.625C1223.62 445.135 1223.44 436.626 1223.47 428.125C1223.53 412.177 1224.28 396.23 1224.31 380.281C1224.33 371.591 1224.1 362.922 1223.53 354.25C1223.35 351.479 1220.96 349.383 1218.19 349.562Z" fill="#000000" fill-opacity="0.362613" stroke="none"/>
</g>
<g filter="url(#Filter_26)" opacity="0.441314" vectornator:blur="32.3643">
<path d="M1207.94 1178.09C1207.25 1178.01 1206.55 1178.05 1205.84 1178.25C1203.19 1179.02 1200.56 1179.88 1197.91 1180.66C1196.31 1181.12 1194.66 1181.61 1193 1181.81C1190.1 1182.17 1187.22 1181.67 1184.31 1181.69C1181.84 1181.7 1179.35 1182.1 1176.91 1182.47C1169.72 1183.55 1162.65 1185.38 1155.47 1186.5C1150.52 1187.27 1145.54 1187.8 1140.56 1188.38C1132.04 1189.35 1123.51 1190.26 1115 1191.34C1107.83 1192.26 1100.7 1193.4 1093.56 1194.53C1085.91 1195.74 1078.26 1196.96 1070.62 1198.28C1061.04 1199.94 1051.5 1201.72 1042 1203.81C1038.09 1204.67 1034.14 1205.53 1030.28 1206.59C1019.25 1209.64 1008.82 1214.48 998.094 1218.41C995.486 1219.36 994.14 1222.24 995.094 1224.84C996.048 1227.45 998.924 1228.8 1001.53 1227.84C1011.99 1224.02 1022.21 1219.26 1032.97 1216.31C1037.13 1215.17 1041.35 1214.29 1045.56 1213.38C1054.91 1211.33 1064.35 1209.68 1073.78 1208.09C1080.9 1206.9 1088.02 1205.78 1095.16 1204.69C1102.19 1203.61 1109.24 1202.53 1116.31 1201.66C1125.14 1200.57 1133.98 1199.67 1142.81 1198.69C1147.58 1198.16 1152.36 1197.67 1157.09 1196.94C1164.26 1195.84 1171.3 1194.01 1178.47 1192.94C1180.4 1192.65 1182.39 1192.29 1184.34 1192.28C1187.68 1192.27 1190.94 1192.75 1194.28 1192.34C1199.24 1191.75 1204.01 1189.85 1208.78 1188.47C1211.6 1187.65 1213.22 1184.69 1212.41 1181.88C1211.79 1179.76 1209.99 1178.34 1207.94 1178.09Z" fill="#000000" fill-opacity="0.362613" stroke="none"/>
</g>
<g filter="url(#Filter_27)" opacity="0.441314" vectornator:blur="32.3643">
<path d="M1139.12 1181.22C1109.27 1181.12 1080.04 1188.76 1050.72 1193.41C1039.85 1192.59 1028.98 1192.15 1018.06 1192.47C1015.08 1192.56 1012.08 1192.68 1009.09 1192.88C1007.22 1193 1005.35 1193.2 1003.47 1193.19C1000.53 1193.16 997.591 1192.99 994.656 1192.97C992.823 1192.96 990.971 1192.98 989.156 1193.28C986.092 1193.78 983.271 1195.42 982.812 1198.81C982.75 1199.28 982.766 1199.75 982.812 1200.22C983.232 1204.46 988.288 1207.37 991.938 1208.38C992.751 1208.6 993.509 1208.78 994.344 1208.91C999.338 1209.66 1004.35 1208.73 1009.34 1208.5C1011.38 1208.41 1013.4 1208.42 1015.44 1208.31C1019.73 1208.08 1023.99 1207.55 1028.25 1207C1035 1206.12 1041.77 1205.4 1048.5 1204.41C1049.8 1204.22 1051.08 1203.95 1052.38 1203.75C1056.53 1204.07 1060.69 1204.42 1064.84 1204.84C1071.52 1205.52 1078.22 1206.16 1084.88 1207.03C1089.22 1207.6 1093.42 1208.95 1097.78 1209.41C1100.32 1209.67 1102.84 1209.49 1105.38 1209.38C1108.11 1209.25 1110.86 1209.15 1113.59 1209.03C1123.27 1208.62 1132.93 1208.15 1142.59 1207.56C1150.05 1207.11 1157.52 1206.58 1164.94 1205.75C1170.11 1205.17 1175.4 1204.56 1180.41 1203.09C1184.01 1202.04 1188.03 1200.07 1187.94 1195.66C1187.93 1195.2 1187.86 1194.72 1187.75 1194.28C1187.6 1193.66 1186.54 1193.1 1182.88 1190.31C1182.86 1190.29 1182.85 1190.27 1182.84 1190.25C1182.23 1189.06 1181.15 1188.11 1179.78 1187.66C1166.39 1183.96 1170.92 1184.89 1166.41 1183.94C1157.44 1182.05 1148.28 1181.25 1139.12 1181.22ZM1133.5 1191.88C1136.78 1191.78 1140.06 1191.77 1143.34 1191.88C1150.81 1192.12 1158.27 1192.98 1165.56 1194.62C1165.9 1194.7 1167.4 1195.17 1167.59 1195.22C1165.61 1195.48 1163.64 1195.76 1161.66 1195.97C1150.37 1197.13 1139.02 1197.73 1127.69 1198.28C1121.42 1198.59 1115.15 1198.86 1108.88 1199.12C1106.97 1199.2 1105.06 1199.26 1103.16 1199.34C1102.08 1199.39 1101.01 1199.49 1099.94 1199.44C1096.28 1199.25 1092.74 1198.09 1089.16 1197.44C1094.14 1196.56 1099.12 1195.58 1104.12 1194.81C1113.85 1193.32 1123.66 1192.17 1133.5 1191.88Z" fill="#000000" fill-opacity="0.362613" stroke="none"/>
</g>
<g filter="url(#Filter_28)" opacity="0.441314" vectornator:blur="32.3643">
<path d="M366.25 1172.12C363.475 1172.04 361.179 1174.22 361.094 1177C361.009 1179.78 363.194 1182.1 365.969 1182.19C454.447 1184.9 542.95 1186.46 631.469 1186.94C736.063 1187.5 840.637 1186.55 945.219 1184.94C948.151 1184.89 950.483 1182.49 950.438 1179.56C950.392 1176.63 947.995 1174.27 945.062 1174.31C816.444 1176.35 687.788 1177.44 559.156 1176.12C494.841 1175.47 430.538 1174.08 366.25 1172.12Z" fill="#000000" fill-opacity="0.362613" stroke="none"/>
</g>
<g filter="url(#Filter_29)" opacity="0.441314" vectornator:blur="32.3643">
<path d="M788.438 1160.94C773.244 1160.75 758.036 1161.04 742.844 1161.25C720.709 1161.55 698.569 1161.93 676.438 1162.44C605.212 1164.07 534.038 1166.72 462.844 1169.34C459.913 1169.45 457.61 1171.94 457.719 1174.88C457.827 1177.81 460.288 1180.08 463.219 1179.97C533.826 1177.33 604.459 1174.58 675.094 1172.78C698.269 1172.19 721.445 1171.72 744.625 1171.38C759.189 1171.16 773.747 1170.87 788.312 1171.03C812.797 1171.31 837.279 1172.72 861.75 1173.47C864.525 1173.55 866.821 1171.37 866.906 1168.59C866.992 1165.82 864.806 1163.52 862.031 1163.44C837.496 1162.68 812.986 1161.24 788.438 1160.94Z" fill="#000000" fill-opacity="0.362613" stroke="none"/>
</g>
<g filter="url(#Filter_30)" opacity="0.441314" vectornator:blur="32.3643">
<path d="M999.625 1169.34C984.656 1169.85 969.69 1170.43 954.719 1170.88C939.756 1171.32 924.778 1171.67 909.812 1172C849.882 1173.33 789.951 1173.84 730.031 1175.62C684.409 1176.99 638.872 1179.87 593.281 1181.94C551.491 1183.84 509.652 1184.36 467.844 1185.72C440.775 1186.6 413.711 1187.93 386.688 1189.72C356.947 1191.69 327.234 1194.09 297.469 1195.69C278.371 1196.71 259.192 1197.69 240.062 1197.09C238.57 1197.05 237.085 1196.86 235.594 1196.78C235.718 1196.16 235.721 1195.5 235.594 1194.84C235.067 1192.12 232.445 1190.32 229.719 1190.84C227.699 1191.23 225.664 1191.49 223.625 1191.75C222.341 1191.92 221.034 1192.09 219.75 1192.25C218.491 1192.41 217.257 1192.58 216 1192.75C213.826 1193.05 210.894 1193.27 208.875 1194.28C208.62 1194.41 208.354 1194.52 208.125 1194.69C207.741 1194.97 207.329 1195.23 207.062 1195.62C206.544 1196.4 205.922 1197.2 205.812 1198.12C205.679 1199.25 205.934 1200.42 206.344 1201.47C206.61 1202.15 207.244 1202.66 207.781 1203.16C208.527 1203.85 209.71 1204.18 210.688 1204.38C214.369 1205.13 218.142 1205.53 221.875 1205.94C237.715 1207.65 253.692 1207.5 269.594 1206.97C308.905 1205.65 348.135 1202.39 387.375 1199.81C413.497 1198.09 439.618 1196.86 465.781 1196C501.439 1194.82 537.127 1194.42 572.781 1193.12C598.767 1192.18 624.718 1190.74 650.688 1189.44C677.222 1188.1 703.787 1186.89 730.344 1186.12C790.239 1184.39 850.157 1183.91 910.062 1182.59C925.054 1182.27 940.043 1181.94 955.031 1181.5C970.019 1181.06 985.015 1180.48 1000 1179.97C1002.93 1179.87 1005.22 1177.4 1005.12 1174.47C1005.03 1171.54 1002.56 1169.24 999.625 1169.34Z" fill="#000000" fill-opacity="0.362613" stroke="none"/>
</g>
<g filter="url(#Filter_31)" opacity="0.441314" vectornator:blur="32.3643">
<path d="M1032.5 1166.31C996.747 1166.53 961.01 1168.01 925.312 1169.97C908.65 1170.88 891.998 1171.92 875.344 1172.97C864.354 1173.66 853.358 1174.31 842.375 1175.09C823.744 1176.43 805.148 1178.24 786.531 1179.75C772.41 1180.89 758.249 1181.84 744.094 1182.44C665.566 1185.76 586.989 1181.59 508.438 1182.84C493.291 1183.09 478.158 1183.57 463.031 1184.38C419.345 1186.69 375.778 1190.99 332.156 1194.22C329.232 1194.44 327.064 1196.98 327.281 1199.91C327.498 1202.83 330.044 1205.03 332.969 1204.81C376.516 1201.58 419.982 1197.26 463.594 1194.94C478.59 1194.14 493.609 1193.65 508.625 1193.41C587.266 1192.13 665.947 1196.17 744.562 1192.75C758.85 1192.13 773.092 1191.17 787.344 1190C805.927 1188.47 824.496 1186.63 843.094 1185.28C853.071 1184.56 863.049 1183.93 873.031 1183.28C891.122 1182.11 909.211 1181 927.312 1180C974.166 1177.4 1021.13 1175.68 1068.06 1176.59C1089.54 1177.01 1110.96 1178.06 1132.38 1179.69C1135.14 1179.9 1137.57 1177.8 1137.78 1175.03C1137.99 1172.26 1135.92 1169.87 1133.16 1169.66C1111.55 1168.01 1089.91 1166.96 1068.25 1166.53C1056.33 1166.3 1044.42 1166.24 1032.5 1166.31Z" fill="#000000" fill-opacity="0.362613" stroke="none"/>
</g>
<g filter="url(#Filter_32)" opacity="0.441314" vectornator:blur="32.3643">
<path d="M927.219 1166.06C834.111 1166.21 741.005 1168.59 647.969 1172.12C645.194 1172.23 643.051 1174.57 643.156 1177.34C643.261 1180.12 645.601 1182.26 648.375 1182.16C721.388 1179.4 794.405 1177.4 867.469 1176.75C953.787 1175.98 1040.1 1177.03 1126.38 1179.97C1129.31 1180.07 1131.78 1177.77 1131.88 1174.84C1131.97 1171.91 1129.65 1169.44 1126.72 1169.34C1060.23 1167.11 993.747 1165.96 927.219 1166.06Z" fill="#000000" fill-opacity="0.362613" stroke="none"/>
</g>
<g filter="url(#Filter_33)" opacity="0.441314" vectornator:blur="32.3643">
<path d="M865.875 1163.25C844.804 1163.26 823.726 1163.41 802.656 1163.66C789.813 1163.81 776.968 1164.01 764.125 1164.22C752.666 1164.41 741.201 1164.6 729.75 1165.09C689.98 1166.8 650.413 1171.29 610.688 1173.69C593.058 1174.75 575.397 1175.41 557.75 1176.09C526.536 1177.31 495.313 1178.24 464.094 1179.28C461.163 1179.38 458.87 1181.85 458.969 1184.78C459.067 1187.71 461.507 1190 464.438 1189.91C495.675 1188.85 526.924 1187.91 558.156 1186.69C575.879 1185.99 593.608 1185.29 611.312 1184.22C650.98 1181.81 690.509 1177.27 730.219 1175.5C741.577 1174.99 752.946 1174.8 764.312 1174.59C777.652 1174.35 790.972 1174.15 804.312 1173.97C824.829 1173.7 845.357 1173.51 865.875 1173.47C876.118 1173.45 886.383 1173.4 896.625 1173.53C909.085 1173.69 921.457 1174.79 933.875 1175.72C947.361 1176.73 960.858 1177.67 974.344 1178.69C1021.23 1182.22 1068.08 1186.24 1114.88 1190.84C1117.64 1191.12 1120.1 1189.11 1120.38 1186.34C1120.65 1183.58 1118.64 1181.12 1115.88 1180.84C1068.39 1176.16 1020.83 1172.09 973.25 1168.47C959.813 1167.45 946.375 1166.52 932.938 1165.5C920.878 1164.58 908.85 1163.54 896.75 1163.38C886.46 1163.23 876.166 1163.25 865.875 1163.25Z" fill="#000000" fill-opacity="0.362613" stroke="none"/>
</g>
<g filter="url(#Filter_34)" opacity="0.441314" vectornator:blur="32.3643">
<path d="M320.625 1161.22C309.393 1161.28 298.212 1162.12 287.031 1163.12C275.331 1164.17 263.643 1165.41 251.969 1166.72C231.049 1169.06 210.142 1171.61 189.188 1173.62C181.745 1174.34 174.292 1174.94 166.844 1175.59C163.922 1175.85 161.744 1178.42 162 1181.34C162.256 1184.27 164.86 1186.41 167.781 1186.16C175.26 1185.5 182.746 1184.91 190.219 1184.19C211.693 1182.11 233.093 1179.47 254.531 1177.06C265.664 1175.81 276.812 1174.64 287.969 1173.62C298.853 1172.64 309.751 1171.79 320.688 1171.72C336.332 1171.62 351.951 1172.67 367.562 1173.56C390.022 1174.84 412.464 1176.28 434.906 1177.84C505.921 1182.78 576.821 1189.09 647.688 1195.81C650.451 1196.07 652.925 1194.05 653.188 1191.28C653.45 1188.52 651.42 1186.07 648.656 1185.81C577.712 1179.07 506.71 1172.68 435.625 1167.59C413.143 1165.98 390.657 1164.48 368.156 1163.16C352.323 1162.22 336.493 1161.14 320.625 1161.22Z" fill="#000000" fill-opacity="0.362613" stroke="none"/>
</g>
<g filter="url(#Filter_35)" opacity="0.441314" vectornator:blur="32.3643">
<path d="M603.875 1165.34C558.811 1164.94 513.715 1166.45 468.656 1166.94C421.767 1167.45 374.874 1165.53 328 1167.34C275.232 1169.39 222.719 1175.35 170.375 1182.09C167.621 1182.45 165.677 1184.97 166.031 1187.72C166.386 1190.47 168.934 1192.42 171.688 1192.06C223.735 1185.37 275.904 1179.46 328.375 1177.47C375.154 1175.69 421.988 1177.71 468.781 1177.28C528.668 1176.73 588.6 1174.4 648.469 1177.06C660.675 1177.61 672.866 1178.42 685.031 1179.56C704.051 1181.34 722.985 1183.78 741.938 1186.16C744.847 1186.52 747.511 1184.44 747.875 1181.53C748.239 1178.62 746.16 1175.96 743.25 1175.59C724.187 1173.21 705.131 1170.81 686 1169.03C673.663 1167.88 661.316 1167.05 648.938 1166.5C633.921 1165.84 618.896 1165.48 603.875 1165.34Z" fill="#000000" fill-opacity="0.362613" stroke="none"/>
</g>
<g filter="url(#Filter_36)" opacity="0.441314" vectornator:blur="32.3643">
<path d="M501.5 1177.06C477.16 1177.26 452.828 1178.3 428.531 1179.72C375.16 1182.83 321.95 1188.1 268.719 1192.97C265.799 1193.24 263.638 1195.83 263.906 1198.75C264.174 1201.67 266.767 1203.83 269.688 1203.56C316.378 1199.26 363.037 1194.62 409.812 1191.31C440.35 1189.16 470.975 1187.48 501.594 1187.19C527.222 1186.94 552.744 1189.53 578.312 1190.88C581.085 1191.02 583.447 1188.9 583.594 1186.12C583.74 1183.35 581.616 1180.96 578.844 1180.81C553.069 1179.45 527.335 1176.85 501.5 1177.06Z" fill="#000000" fill-opacity="0.362613" stroke="none"/>
</g>
<g filter="url(#Filter_37)" opacity="0.441314" vectornator:blur="32.3643">
<path d="M636.156 1184.09C575.342 1184.24 514.546 1186.58 453.75 1187.84C427.968 1188.38 402.194 1188.58 376.406 1188.62C350.964 1188.67 325.491 1188.58 300.062 1189.53C278.8 1190.32 257.664 1192.76 236.469 1194.5C233.702 1194.73 231.649 1197.17 231.875 1199.94C232.101 1202.7 234.514 1204.76 237.281 1204.53C258.327 1202.81 279.325 1200.35 300.438 1199.56C323.9 1198.69 347.399 1198.75 370.875 1198.72C396.85 1198.68 422.842 1198.59 448.812 1198.06C517.537 1196.67 586.252 1194.05 655 1194.41C708.356 1194.68 761.679 1196.34 815 1198.19C847.512 1199.32 880.05 1200.45 912.562 1201.56C943.213 1202.61 973.849 1203.63 1004.5 1204.66C1026.4 1205.39 1048.32 1205.98 1070.19 1207.34C1075.58 1207.68 1080.96 1208.08 1086.34 1208.53C1089.37 1208.79 1092.38 1209.13 1095.41 1209.41C1099.28 1209.77 1103.2 1209.97 1107.09 1210.16C1109.09 1210.25 1111.4 1210.56 1113.38 1210.06C1113.6 1210.01 1114.35 1209.79 1114.59 1209.62C1115.17 1209.24 1115.7 1208.79 1116.25 1208.38C1116.94 1207.86 1117.37 1206.67 1117.53 1205.88C1117.61 1205.5 1117.77 1204.79 1117.62 1204.41C1117.24 1203.43 1116.94 1202.41 1116.47 1201.47C1116.32 1201.17 1116.04 1200.94 1115.78 1200.72C1115.49 1200.47 1115.17 1200.29 1114.84 1200.09C1113.83 1199.46 1112.35 1199.16 1111.25 1198.91C1110.63 1198.76 1110 1198.65 1109.38 1198.53C1108.77 1198.42 1108.17 1198.31 1107.56 1198.22C1106.96 1198.13 1106.35 1198.04 1105.75 1197.97C1105.16 1197.9 1104.56 1197.84 1103.97 1197.78C1102.61 1197.65 1101.85 1197.57 1100.5 1197.47C1099.39 1197.38 1098.3 1197.31 1097.19 1197.22C1093.73 1196.95 1090.29 1196.43 1086.84 1196C1081.22 1195.29 1075.58 1194.7 1069.94 1194.16C1055.01 1192.72 1040.04 1191.72 1025.09 1190.5C1022.44 1190.28 1020.19 1192.08 1019.59 1194.59C1017.59 1194.53 1015.6 1194.44 1013.59 1194.38C949.093 1192.27 884.592 1190.08 820.094 1187.91C758.81 1185.84 697.482 1183.94 636.156 1184.09Z" fill="#000000" fill-opacity="0.362613" stroke="none"/>
</g>
<g filter="url(#Filter_38)" opacity="0.441314" vectornator:blur="32.3643">
<path d="M653.75 1171.88C650.836 1171.54 648.208 1173.62 647.875 1176.53C647.542 1179.44 649.618 1182.1 652.531 1182.44C667.033 1184.06 681.563 1185.49 696.062 1187.12C698.821 1187.44 701.31 1185.45 701.625 1182.69C701.94 1179.93 699.946 1177.44 697.188 1177.12C682.693 1175.45 668.243 1173.57 653.75 1171.88Z" fill="#000000" fill-opacity="0.362613" stroke="none"/>
</g>
<g filter="url(#Filter_39)" opacity="0.441314" vectornator:blur="32.3643">
<path d="M598.75 1106.28C595.978 1106.13 593.591 1108.23 593.438 1111C593.284 1113.77 595.415 1116.16 598.188 1116.31C627.084 1117.92 655.939 1120.36 684.875 1121.16C707.442 1121.77 730.052 1121.77 752.625 1121.66C804.87 1121.4 857.104 1119.7 909.312 1117.84C912.243 1117.74 914.511 1115.27 914.406 1112.34C914.301 1109.41 911.837 1107.11 908.906 1107.22C859.424 1109.01 809.952 1110.67 760.438 1111.22C745.073 1111.39 729.709 1111.44 714.344 1111.38C704.621 1111.33 694.876 1111.28 685.156 1111.03C656.315 1110.29 627.55 1107.87 598.75 1106.28Z" fill="#000000" fill-opacity="0.362613" stroke="none"/>
</g>
<g filter="url(#Filter_40)" opacity="0.441314" vectornator:blur="32.3643">
<path d="M1006.03 1069.94C961.124 1070.01 916.197 1070.71 871.344 1073.03C857.274 1073.76 843.234 1074.72 829.188 1075.81C811.845 1077.16 794.498 1078.67 777.125 1079.59C768.126 1080.07 759.129 1080.41 750.125 1080.78C734.009 1081.45 717.868 1082.07 701.75 1082.69C650.753 1084.63 599.766 1086.39 548.781 1088.66C535.182 1089.26 521.571 1090 507.969 1090.53C493.599 1091.09 479.242 1091.35 464.875 1092C457.849 1092.32 450.835 1092.78 443.812 1093.16C432.265 1093.78 420.706 1094.28 409.156 1094.84C390.678 1095.75 372.196 1096.78 353.781 1098.59C348.199 1099.14 342.628 1099.77 337.062 1100.47C333.165 1100.96 329.227 1101.41 325.406 1102.34C314.177 1105.1 304.174 1111.15 293.469 1115.31C290.881 1116.32 289.588 1119.22 290.594 1121.81C291.6 1124.4 294.506 1125.69 297.094 1124.69C301.721 1122.89 306.217 1120.78 310.719 1118.69C316.247 1116.12 321.872 1113.58 327.812 1112.12C331.665 1111.18 335.664 1110.8 339.594 1110.31C345.071 1109.63 350.538 1109.04 356.031 1108.5C374.28 1106.7 392.626 1105.73 410.938 1104.84C422.075 1104.3 433.209 1103.84 444.344 1103.25C451.338 1102.88 458.315 1102.44 465.312 1102.12C479.658 1101.49 494.026 1101.23 508.375 1100.69C522.432 1100.16 536.478 1099.39 550.531 1098.78C601.061 1096.6 651.614 1094.95 702.156 1093.09C718.724 1092.48 735.278 1091.86 751.844 1091.19C760.453 1090.84 769.083 1090.54 777.688 1090.09C795.146 1089.18 812.571 1087.68 830 1086.34C843.958 1085.27 857.926 1084.31 871.906 1083.59C916.584 1081.29 961.301 1080.62 1006.03 1080.56C1008.96 1080.56 1011.35 1078.18 1011.34 1075.25C1011.34 1072.32 1008.96 1069.93 1006.03 1069.94Z" fill="#000000" fill-opacity="0.362613" stroke="none"/>
</g>
</g>
</svg>
