<?xml version="1.0" encoding="UTF-8" standalone="no"?>
<!DOCTYPE svg PUBLIC "-//W3C//DTD SVG 1.1//EN" "http://www.w3.org/Graphics/SVG/1.1/DTD/svg11.dtd">
<!-- Created with Vectornator (http://vectornator.io/) -->
<svg height="100%" stroke-miterlimit="10" style="fill-rule:nonzero;clip-rule:evenodd;stroke-linecap:round;stroke-linejoin:round;" version="1.1" viewBox="0 0 3370.82 2384.24" width="100%" xml:space="preserve" xmlns="http://www.w3.org/2000/svg" xmlns:vectornator="http://vectornator.io" xmlns:xlink="http://www.w3.org/1999/xlink">
<defs>
<filter color-interpolation-filters="sRGB" filterUnits="userSpaceOnUse" height="1824.06" id="Filter" width="1198.91" x="618.757" y="349.462">
<feDropShadow dx="-5.17605" dy="9.1513" flood-color="#000000" flood-opacity="0.333" in="SourceGraphic" result="Shadow" stdDeviation="3.15411"/>
</filter>
<filter color-interpolation-filters="sRGB" filterUnits="userSpaceOnUse" height="21.2956" id="Filter_2" width="875.908" x="782.469" y="595.987">
<feDropShadow dx="-5.17605" dy="9.1513" flood-color="#000000" flood-opacity="0.333" in="SourceGraphic" result="Shadow" stdDeviation="3.15411"/>
</filter>
</defs>
<g id="Ebene-1" vectornator:layerName="Ebene 1">
<path d="M633.796 351.439L1812.98 351.439L1812.98 2154.51L633.796 2154.51L633.796 351.439Z" fill="#f1f1f1" fill-rule="nonzero" filter="url(#Filter)" stroke="#000000" stroke-linecap="butt" stroke-linejoin="round" stroke-width="3.95539" vectornator:shadowAngle="2.08554" vectornator:shadowColor="#000000" vectornator:shadowOffset="10.5137" vectornator:shadowOpacity="0.333" vectornator:shadowRadius="6.30822"/>
<path d="M797.508 598.268L1653.69 597.965" fill="none" filter="url(#Filter_2)" stroke="#000000" stroke-linecap="butt" stroke-linejoin="round" stroke-width="3.95539" vectornator:shadowAngle="2.08554" vectornator:shadowColor="#000000" vectornator:shadowOffset="10.5137" vectornator:shadowOpacity="0.333" vectornator:shadowRadius="6.30822"/>
<g fill="#000000" opacity="1" stroke="none">
<path d="M1048.28 1264.5L975.329 1264.5L975.329 1215.63C975.329 1201.42 974.549 1192.56 972.99 1189.04C971.43 1185.51 967.993 1183.75 962.679 1183.75C956.672 1183.75 952.86 1185.89 951.243 1190.16C949.626 1194.44 948.817 1203.68 948.817 1217.89L948.817 1348.19C948.817 1361.82 949.626 1370.72 951.243 1374.88C952.86 1379.04 956.499 1381.12 962.16 1381.12C967.589 1381.12 971.141 1379.04 972.816 1374.88C974.491 1370.72 975.329 1360.96 975.329 1345.59L975.329 1310.42L1048.28 1310.42L1048.28 1321.33C1048.28 1350.33 1046.23 1370.89 1042.13 1383.02C1038.03 1395.15 1028.96 1405.78 1014.92 1414.91C1000.89 1424.03 983.589 1428.59 963.026 1428.59C941.655 1428.59 924.038 1424.72 910.176 1416.98C896.313 1409.24 887.129 1398.53 882.624 1384.84C878.119 1371.15 875.866 1350.56 875.866 1323.07L875.866 1241.11C875.866 1220.89 876.559 1205.73 877.946 1195.62C879.332 1185.51 883.462 1175.78 890.335 1166.42C897.209 1157.06 906.739 1149.7 918.926 1144.33C931.114 1138.96 945.12 1136.27 960.947 1136.27C982.433 1136.27 1000.17 1140.43 1014.14 1148.75C1028.12 1157.06 1037.31 1167.43 1041.7 1179.85C1046.08 1192.27 1048.28 1211.59 1048.28 1237.81L1048.28 1264.5Z"/>
<path d="M1242.18 1142.16L1242.18 1422.7L1169.23 1422.7L1169.23 1304.87L1147.4 1304.87L1147.4 1422.7L1074.44 1422.7L1074.44 1142.16L1147.4 1142.16L1147.4 1242.49L1169.23 1242.49L1169.23 1142.16L1242.18 1142.16Z"/>
<path d="M1344.41 1142.16L1344.41 1422.7L1271.46 1422.7L1271.46 1142.16L1344.41 1142.16Z"/>
<path d="M1373.7 1142.16L1447.17 1142.16C1467.04 1142.16 1482.32 1143.72 1493 1146.84C1503.69 1149.96 1511.72 1154.47 1517.09 1160.36C1522.46 1166.25 1526.1 1173.38 1528 1181.76C1529.91 1190.13 1530.86 1203.1 1530.86 1220.66L1530.86 1245.09C1530.86 1263 1529.02 1276.05 1525.32 1284.25C1521.62 1292.45 1514.84 1298.75 1504.96 1303.14C1495.08 1307.53 1482.17 1309.72 1466.23 1309.72L1446.65 1309.72L1446.65 1422.7L1373.7 1422.7L1373.7 1142.16ZM1446.65 1190.16L1446.65 1261.55C1448.73 1261.67 1450.52 1261.73 1452.02 1261.73C1458.72 1261.73 1463.37 1260.08 1465.97 1256.79C1468.57 1253.5 1469.87 1246.65 1469.87 1236.25L1469.87 1213.21C1469.87 1203.62 1468.37 1197.38 1465.36 1194.49C1462.36 1191.61 1456.12 1190.16 1446.65 1190.16Z"/>
<path d="M1048.28 1697.35L975.329 1697.35L975.329 1648.49C975.329 1634.28 974.549 1625.41 972.99 1621.89C971.43 1618.36 967.993 1616.6 962.679 1616.6C956.672 1616.6 952.86 1618.74 951.243 1623.01C949.626 1627.29 948.817 1636.53 948.817 1650.74L948.817 1781.05C948.817 1794.68 949.626 1803.57 951.243 1807.73C952.86 1811.89 956.499 1813.97 962.16 1813.97C967.589 1813.97 971.141 1811.89 972.816 1807.73C974.491 1803.57 975.329 1793.81 975.329 1778.45L975.329 1743.27L1048.28 1743.27L1048.28 1754.19C1048.28 1783.18 1046.23 1803.75 1042.13 1815.87C1038.03 1828 1028.96 1838.63 1014.92 1847.76C1000.89 1856.88 983.589 1861.45 963.026 1861.45C941.655 1861.45 924.038 1857.58 910.176 1849.84C896.313 1842.1 887.129 1831.38 882.624 1817.69C878.119 1804.01 875.866 1783.41 875.866 1755.92L875.866 1673.96C875.866 1653.74 876.559 1638.58 877.946 1628.47C879.332 1618.36 883.462 1608.63 890.335 1599.28C897.209 1589.92 906.739 1582.55 918.926 1577.18C931.114 1571.81 945.12 1569.12 960.947 1569.12C982.433 1569.12 1000.17 1573.28 1014.14 1581.6C1028.12 1589.92 1037.31 1600.29 1041.7 1612.7C1046.08 1625.12 1048.28 1644.44 1048.28 1670.67L1048.28 1697.35Z"/>
<path d="M1200.42 1575.02L1242.18 1855.56L1167.5 1855.56L1163.86 1805.13L1137.69 1805.13L1133.36 1855.56L1057.81 1855.56L1094.89 1575.02L1200.42 1575.02ZM1161.78 1755.4C1158.08 1723.63 1154.38 1684.41 1150.69 1637.74C1143.29 1691.34 1138.67 1730.56 1136.83 1755.4L1161.78 1755.4Z"/>
<path d="M1254.66 1575.02L1306.29 1575.02C1340.72 1575.02 1364.02 1576.34 1376.21 1579C1388.4 1581.66 1398.33 1588.45 1406.02 1599.36C1413.7 1610.28 1417.54 1627.69 1417.54 1651.61C1417.54 1673.44 1414.82 1688.11 1409.39 1695.62C1403.97 1703.13 1393.28 1707.63 1377.34 1709.13C1391.78 1712.72 1401.48 1717.51 1406.45 1723.52C1411.42 1729.52 1414.51 1735.04 1415.72 1740.07C1416.93 1745.09 1417.54 1758.92 1417.54 1781.57L1417.54 1855.56L1349.79 1855.56L1349.79 1762.33C1349.79 1747.31 1348.6 1738.01 1346.23 1734.43C1343.87 1730.85 1337.66 1729.06 1327.61 1729.06L1327.61 1855.56L1254.66 1855.56L1254.66 1575.02ZM1327.61 1623.01L1327.61 1685.4C1335.81 1685.4 1341.56 1684.27 1344.85 1682.02C1348.14 1679.76 1349.79 1672.46 1349.79 1660.1L1349.79 1644.67C1349.79 1635.78 1348.2 1629.95 1345.02 1627.17C1341.84 1624.4 1336.04 1623.01 1327.61 1623.01Z"/>
<path d="M1445.78 1575.02L1500.37 1575.02C1535.6 1575.02 1559.43 1576.63 1571.84 1579.87C1584.26 1583.1 1593.71 1588.42 1600.18 1595.81C1606.65 1603.2 1610.69 1611.43 1612.31 1620.5C1613.92 1629.57 1614.73 1647.39 1614.73 1673.96L1614.73 1772.21C1614.73 1797.39 1613.55 1814.23 1611.18 1822.72C1608.81 1831.21 1604.68 1837.85 1598.79 1842.65C1592.9 1847.44 1585.62 1850.79 1576.96 1852.7C1568.29 1854.6 1555.24 1855.56 1537.8 1855.56L1445.78 1855.56L1445.78 1575.02ZM1518.73 1623.01L1518.73 1807.56C1529.25 1807.56 1535.72 1805.45 1538.14 1801.23C1540.57 1797.02 1541.78 1785.55 1541.78 1766.84L1541.78 1657.84C1541.78 1645.14 1541.38 1636.99 1540.57 1633.41C1539.76 1629.83 1537.91 1627.2 1535.02 1625.53C1532.13 1623.85 1526.71 1623.01 1518.73 1623.01Z"/>
</g>
</g>
</svg>
