<?xml version="1.0" encoding="UTF-8" standalone="no"?>
<!DOCTYPE svg PUBLIC "-//W3C//DTD SVG 1.1//EN" "http://www.w3.org/Graphics/SVG/1.1/DTD/svg11.dtd">
<!-- Created with Vectornator (http://vectornator.io/) -->
<svg height="100%" stroke-miterlimit="10" style="fill-rule:nonzero;clip-rule:evenodd;stroke-linecap:round;stroke-linejoin:round;" version="1.1" viewBox="0 0 3370.82 2384.24" width="100%" xml:space="preserve" xmlns="http://www.w3.org/2000/svg" xmlns:vectornator="http://vectornator.io" xmlns:xlink="http://www.w3.org/1999/xlink">
<defs/>
<g id="Ebene-1" vectornator:layerName="Ebene 1">
<g fill="#000000" opacity="1" stroke="none">
<path d="M516.735 217.935L523.198 201.645C526.503 204.065 530.619 206.086 535.547 207.71C540.475 209.333 544.887 210.144 548.782 210.144C555.688 210.144 561.236 208.255 565.426 204.478C569.616 200.701 571.711 195.891 571.711 190.048C571.711 185.681 570.546 181.623 568.215 177.875C565.883 174.127 560.026 170.04 550.642 165.614L540.195 160.745C531.342 156.614 525.16 151.715 521.648 146.049C518.137 140.383 516.381 133.566 516.381 125.599C516.381 115.92 519.804 107.893 526.65 101.519C533.496 95.1448 542.29 91.9578 553.032 91.9578C567.374 91.9578 577.348 94.2891 582.955 98.9516L577.731 114.356C575.371 112.644 571.77 110.992 566.931 109.398C562.091 107.804 557.606 107.008 553.474 107.008C547.455 107.008 542.718 108.719 539.266 112.142C535.813 115.566 534.087 119.962 534.087 125.333C534.087 128.638 534.706 131.648 535.946 134.363C537.185 137.078 538.911 139.35 541.125 141.18C543.338 143.01 547.868 145.577 554.714 148.882L565.337 153.928C574.19 158.118 580.402 163.12 583.973 168.934C587.543 174.747 589.329 182.139 589.329 191.11C589.329 200.849 585.419 209.111 577.599 215.898C569.779 222.686 559.317 226.079 546.215 226.079C534.706 226.079 524.88 223.364 516.735 217.935Z"/>
<path d="M624.386 129.051L624.386 189.517C624.386 204.154 630.731 211.472 643.42 211.472C648.968 211.472 654.043 209.878 658.647 206.691C663.25 203.504 666.29 199.816 667.765 195.625L667.765 129.051L684.586 129.051L684.586 223.866L667.765 223.866L667.765 210.764C665.877 214.482 662.085 217.89 656.389 220.989C650.694 224.087 645.132 225.637 639.702 225.637C629.314 225.637 621.361 222.656 615.843 216.695C610.325 210.734 607.566 202.265 607.566 191.287L607.566 129.051L624.386 129.051Z"/>
<path d="M724.336 218.643L724.336 261.048L707.515 261.048L707.515 129.051L724.336 129.051L724.336 136.842C730.71 130.468 738.412 127.281 747.442 127.281C760.898 127.281 771.374 131.471 778.869 139.852C786.365 148.233 790.113 160.509 790.113 176.68C790.113 191.081 786.335 202.84 778.781 211.959C771.226 221.077 760.308 225.637 746.025 225.637C742.012 225.637 737.718 224.928 733.144 223.512C728.57 222.095 725.634 220.472 724.336 218.643ZM724.336 149.502L724.336 204.744C725.398 206.337 727.641 207.857 731.064 209.303C734.487 210.749 737.821 211.472 741.067 211.472C761.96 211.472 772.407 199.668 772.407 176.06C772.407 164.079 769.928 155.315 764.97 149.767C760.013 144.219 752.075 141.446 741.156 141.446C738.795 141.446 735.903 142.272 732.48 143.924C729.057 145.577 726.342 147.436 724.336 149.502Z"/>
<path d="M888.38 178.097L820.035 178.097C820.035 189.192 823.075 197.72 829.154 203.681C834.525 208.875 841.43 211.472 849.87 211.472C859.49 211.472 867.516 208.669 873.95 203.062L881.032 215.19C878.435 217.787 874.451 220.03 869.08 221.918C862.352 224.397 854.857 225.637 846.594 225.637C834.672 225.637 824.55 221.594 816.229 213.508C806.963 204.596 802.33 192.615 802.33 177.565C802.33 161.925 807.081 149.384 816.583 139.941C825.082 131.501 835.144 127.281 846.771 127.281C860.287 127.281 870.881 131.088 878.553 138.701C885.99 146.02 889.708 155.728 889.708 167.827C889.708 171.545 889.265 174.969 888.38 178.097ZM847.568 141.446C840.072 141.446 833.787 143.865 828.711 148.705C823.872 153.308 821.127 159.033 820.478 165.88L872.976 165.88C872.976 159.092 870.851 153.426 866.602 148.882C861.939 143.924 855.595 141.446 847.568 141.446Z"/>
<path d="M958.937 145.252C955.278 142.714 951.59 141.446 947.871 141.446C941.91 141.446 936.702 144.19 932.246 149.679C927.79 155.168 925.562 161.778 925.562 169.509L925.562 223.866L908.741 223.866L908.741 129.051L925.562 129.051L925.562 144.19C931.7 132.917 940.819 127.281 952.917 127.281C955.927 127.281 960.265 127.812 965.931 128.874L958.937 145.252Z"/>
<path d="M959.911 256.002L955.396 249.628C965.548 241.306 970.623 234.224 970.623 228.381C970.623 225.784 969.738 223.187 967.967 220.59C962.892 218.171 960.354 214.689 960.354 210.144C960.354 207.016 961.564 204.434 963.984 202.398C966.403 200.362 969.443 199.344 973.102 199.344C976.348 199.344 979.255 200.76 981.822 203.593C984.39 206.426 985.673 209.731 985.673 213.508C985.673 221.358 984.035 228.425 980.76 234.711C977.484 240.996 970.535 248.094 959.911 256.002Z"/>
<path d="M1133.34 223.778L1133.34 216.784C1127.5 222.627 1119 225.548 1107.84 225.548C1095.98 225.548 1086.36 221.299 1078.98 212.8C1071.61 204.301 1067.92 192.969 1067.92 178.805C1067.92 164.581 1072.17 152.438 1080.66 142.375C1089.16 132.312 1099.29 127.281 1111.03 127.281C1120.83 127.281 1128.26 129.583 1133.34 134.186L1133.34 90.1872L1150.16 90.1872L1150.16 223.778L1133.34 223.778ZM1133.34 151.007C1129.09 144.633 1123.28 141.446 1115.9 141.446C1106.87 141.446 1099.57 144.81 1093.99 151.538C1088.41 158.266 1085.62 166.824 1085.62 177.211C1085.62 200.052 1096.01 211.472 1116.78 211.472C1119.44 211.472 1122.63 210.631 1126.35 208.949C1130.06 207.267 1132.4 205.482 1133.34 203.593L1133.34 151.007Z"/>
<path d="M1190.18 129.051L1190.18 189.517C1190.18 204.154 1196.52 211.472 1209.21 211.472C1214.76 211.472 1219.83 209.878 1224.44 206.691C1229.04 203.504 1232.08 199.816 1233.55 195.625L1233.55 129.051L1250.38 129.051L1250.38 223.866L1233.55 223.866L1233.55 210.764C1231.67 214.482 1227.87 217.89 1222.18 220.989C1216.48 224.087 1210.92 225.637 1205.49 225.637C1195.1 225.637 1187.15 222.656 1181.63 216.695C1176.11 210.734 1173.35 202.265 1173.35 191.287L1173.35 129.051L1190.18 129.051Z"/>
<path d="M1386.36 223.866L1386.36 164.286C1386.36 157.204 1384.61 151.626 1381.13 147.554C1377.65 143.482 1372.75 141.446 1366.44 141.446C1362.36 141.446 1358.28 142.641 1354.18 145.031C1350.07 147.421 1346.93 150.21 1344.75 153.397L1344.75 223.866L1327.93 223.866L1327.93 90.1872L1344.75 90.1872L1344.75 139.498C1346.99 136.016 1350.6 133.109 1355.59 130.778C1360.58 128.447 1365.73 127.281 1371.04 127.281C1381.07 127.281 1388.94 130.586 1394.63 137.196C1400.33 143.806 1403.18 152.836 1403.18 164.286L1403.18 223.866L1386.36 223.866Z"/>
<path d="M1480.55 212.977C1473.82 221.417 1463.52 225.637 1449.65 225.637C1442.22 225.637 1435.77 222.937 1430.31 217.536C1424.85 212.136 1422.12 205.423 1422.12 197.396C1422.12 187.776 1426.33 179.646 1434.74 173.006C1443.15 166.366 1453.87 163.047 1466.92 163.047C1470.46 163.047 1474.47 163.814 1478.96 165.348C1478.96 150.003 1472.11 142.331 1458.42 142.331C1447.91 142.331 1439.83 145.164 1434.16 150.83L1427.08 136.753C1430.27 134.157 1434.68 131.929 1440.31 130.07C1445.95 128.21 1451.34 127.281 1456.47 127.281C1470.22 127.281 1480.21 130.409 1486.44 136.665C1492.66 142.921 1495.78 152.866 1495.78 166.499L1495.78 200.494C1495.78 208.816 1498.26 214.364 1503.21 217.138L1503.21 225.548C1496.37 225.548 1491.25 224.574 1487.85 222.627C1484.46 220.679 1482.03 217.462 1480.55 212.977ZM1478.96 177.3C1473.65 176.119 1469.93 175.529 1467.8 175.529C1459.3 175.529 1452.37 177.713 1447 182.08C1441.63 186.448 1438.94 191.612 1438.94 197.573C1438.94 207.429 1444.76 212.357 1456.38 212.357C1464.88 212.357 1472.41 208.314 1478.96 200.229L1478.96 177.3Z"/>
<path d="M1516.05 218.2L1521.98 202.265C1531.37 208.403 1538.92 211.472 1544.65 211.472C1555.03 211.472 1560.23 207.105 1560.23 198.37C1560.23 192.114 1555.21 186.743 1545.18 182.257C1537.45 178.716 1532.24 176.031 1529.55 174.201C1526.87 172.372 1524.53 170.291 1522.56 167.96C1520.58 165.629 1519.1 163.15 1518.13 160.524C1517.16 157.897 1516.67 155.079 1516.67 152.069C1516.67 144.278 1519.5 138.199 1525.17 133.832C1530.84 129.465 1538.24 127.281 1547.39 127.281C1554.3 127.281 1563 129.465 1573.51 133.832L1568.73 149.413C1562.06 144.101 1555.36 141.446 1548.63 141.446C1544.62 141.446 1541.24 142.39 1538.49 144.278C1535.75 146.167 1534.38 148.557 1534.38 151.449C1534.38 157.528 1537.83 162.132 1544.73 165.26L1556.77 170.749C1564.15 174.113 1569.52 177.949 1572.89 182.257C1576.25 186.566 1577.93 191.966 1577.93 198.458C1577.93 206.957 1574.95 213.611 1568.99 218.422C1563.03 223.232 1554.77 225.637 1544.2 225.637C1534.23 225.637 1524.84 223.158 1516.05 218.2Z"/>
<path d="M1601.66 142.331L1590.68 142.331L1590.68 129.051L1601.66 129.051L1601.66 109.221L1618.48 102.758L1618.48 129.051L1644.51 129.051L1644.51 142.331L1618.48 142.331L1618.48 189.428C1618.48 197.396 1619.82 203.062 1622.51 206.426C1625.19 209.79 1629.52 211.472 1635.48 211.472C1639.78 211.472 1644.24 210.38 1648.84 208.196L1651.32 222.981C1644.36 224.751 1636.72 225.637 1628.39 225.637C1620.9 225.637 1614.57 222.848 1609.4 217.271C1604.24 211.693 1601.66 204.655 1601.66 196.156L1601.66 142.331Z"/>
<path d="M1802 178.097L1733.66 178.097C1733.66 189.192 1736.69 197.72 1742.77 203.681C1748.14 208.875 1755.05 211.472 1763.49 211.472C1773.11 211.472 1781.14 208.669 1787.57 203.062L1794.65 215.19C1792.05 217.787 1788.07 220.03 1782.7 221.918C1775.97 224.397 1768.48 225.637 1760.21 225.637C1748.29 225.637 1738.17 221.594 1729.85 213.508C1720.58 204.596 1715.95 192.615 1715.95 177.565C1715.95 161.925 1720.7 149.384 1730.2 139.941C1738.7 131.501 1748.76 127.281 1760.39 127.281C1773.91 127.281 1784.5 131.088 1792.17 138.701C1799.61 146.02 1803.33 155.728 1803.33 167.827C1803.33 171.545 1802.88 174.969 1802 178.097ZM1761.19 141.446C1753.69 141.446 1747.41 143.865 1742.33 148.705C1737.49 153.308 1734.75 159.033 1734.1 165.88L1786.6 165.88C1786.6 159.092 1784.47 153.426 1780.22 148.882C1775.56 143.924 1769.21 141.446 1761.19 141.446Z"/>
<path d="M1814.84 218.2L1820.77 202.265C1830.15 208.403 1837.71 211.472 1843.43 211.472C1853.82 211.472 1859.01 207.105 1859.01 198.37C1859.01 192.114 1854 186.743 1843.96 182.257C1836.23 178.716 1831.02 176.031 1828.34 174.201C1825.65 172.372 1823.32 170.291 1821.34 167.96C1819.37 165.629 1817.89 163.15 1816.92 160.524C1815.94 157.897 1815.46 155.079 1815.46 152.069C1815.46 144.278 1818.29 138.199 1823.95 133.832C1829.62 129.465 1837.03 127.281 1846.18 127.281C1853.08 127.281 1861.79 129.465 1872.29 133.832L1867.51 149.413C1860.84 144.101 1854.14 141.446 1847.41 141.446C1843.4 141.446 1840.02 142.39 1837.28 144.278C1834.53 146.167 1833.16 148.557 1833.16 151.449C1833.16 157.528 1836.61 162.132 1843.52 165.26L1855.56 170.749C1862.94 174.113 1868.31 177.949 1871.67 182.257C1875.04 186.566 1876.72 191.966 1876.72 198.458C1876.72 206.957 1873.74 213.611 1867.78 218.422C1861.82 223.232 1853.55 225.637 1842.99 225.637C1833.01 225.637 1823.63 223.158 1814.84 218.2Z"/>
<path d="M1945.59 249.805L1954.71 236.349C1964.51 242.9 1973.54 246.175 1981.8 246.175C1989.42 246.175 1995.42 244.862 1999.82 242.236C2004.21 239.609 2006.41 236.349 2006.41 232.453C2006.41 224.781 2000.87 220.945 1989.77 220.945C1987.88 220.945 1984.46 221.417 1979.5 222.361C1974.54 223.305 1970.68 223.778 1967.9 223.778C1954.45 223.778 1947.72 218.702 1947.72 208.551C1947.72 205.423 1949.3 202.59 1952.45 200.052C1955.61 197.514 1959.52 195.684 1964.18 194.563C1950.85 188.307 1944.18 177.447 1944.18 161.984C1944.18 152.069 1947.63 143.806 1954.53 137.196C1961.44 130.586 1969.97 127.281 1980.12 127.281C1989.44 127.281 1996.73 129.199 2001.99 133.035L2010.4 122.943L2021.37 133.301L2011.28 140.914C2015.59 146.521 2017.74 153.84 2017.74 162.87C2017.74 172.431 2014.76 180.457 2008.8 186.949C2002.84 193.442 1995.02 197.16 1985.34 198.104L1971.44 199.521C1969.79 199.698 1967.58 200.332 1964.8 201.424C1962.03 202.516 1960.64 203.947 1960.64 205.718C1960.64 208.137 1963.54 209.347 1969.32 209.347C1971.86 209.347 1975.81 208.89 1981.18 207.975C1986.55 207.06 1990.54 206.603 1993.13 206.603C2002.46 206.603 2009.73 208.831 2014.96 213.287C2020.18 217.743 2022.79 223.925 2022.79 231.834C2022.79 240.569 2018.88 247.621 2011.06 252.992C2003.24 258.363 1993.34 261.048 1981.36 261.048C1975.22 261.048 1968.76 259.956 1961.97 257.773C1955.18 255.589 1949.72 252.933 1945.59 249.805ZM1981.27 140.826C1975.43 140.826 1970.66 142.892 1966.97 147.023C1963.28 151.154 1961.44 156.171 1961.44 162.073C1961.44 168.683 1963.23 174.157 1966.8 178.495C1970.37 182.833 1975.19 185.002 1981.27 185.002C1987.23 185.002 1991.89 182.892 1995.26 178.672C1998.62 174.452 2000.3 168.919 2000.3 162.073C2000.3 156.171 1998.49 151.154 1994.86 147.023C1991.23 142.892 1986.7 140.826 1981.27 140.826Z"/>
<path d="M2119.91 178.097L2051.56 178.097C2051.56 189.192 2054.6 197.72 2060.68 203.681C2066.05 208.875 2072.96 211.472 2081.4 211.472C2091.02 211.472 2099.04 208.669 2105.48 203.062L2112.56 215.19C2109.96 217.787 2105.98 220.03 2100.61 221.918C2093.88 224.397 2086.38 225.637 2078.12 225.637C2066.2 225.637 2056.08 221.594 2047.76 213.508C2038.49 204.596 2033.86 192.615 2033.86 177.565C2033.86 161.925 2038.61 149.384 2048.11 139.941C2056.61 131.501 2066.67 127.281 2078.3 127.281C2091.81 127.281 2102.41 131.088 2110.08 138.701C2117.52 146.02 2121.24 155.728 2121.24 167.827C2121.24 171.545 2120.79 174.969 2119.91 178.097ZM2079.1 141.446C2071.6 141.446 2065.31 143.865 2060.24 148.705C2055.4 153.308 2052.65 159.033 2052.01 165.88L2104.5 165.88C2104.5 159.092 2102.38 153.426 2098.13 148.882C2093.47 143.924 2087.12 141.446 2079.1 141.446Z"/>
<path d="M2132.74 218.2L2138.68 202.265C2148.06 208.403 2155.61 211.472 2161.34 211.472C2171.73 211.472 2176.92 207.105 2176.92 198.37C2176.92 192.114 2171.9 186.743 2161.87 182.257C2154.14 178.716 2148.93 176.031 2146.24 174.201C2143.56 172.372 2141.23 170.291 2139.25 167.96C2137.27 165.629 2135.8 163.15 2134.82 160.524C2133.85 157.897 2133.36 155.079 2133.36 152.069C2133.36 144.278 2136.2 138.199 2141.86 133.832C2147.53 129.465 2154.94 127.281 2164.08 127.281C2170.99 127.281 2179.69 129.465 2190.2 133.832L2185.42 149.413C2178.75 144.101 2172.05 141.446 2165.32 141.446C2161.31 141.446 2157.93 142.39 2155.19 144.278C2152.44 146.167 2151.07 148.557 2151.07 151.449C2151.07 157.528 2154.52 162.132 2161.43 165.26L2173.47 170.749C2180.84 174.113 2186.22 177.949 2189.58 182.257C2192.94 186.566 2194.63 191.966 2194.63 198.458C2194.63 206.957 2191.65 213.611 2185.68 218.422C2179.72 223.232 2171.46 225.637 2160.9 225.637C2150.92 225.637 2141.54 223.158 2132.74 218.2Z"/>
<path d="M2283.86 136.753L2275.54 148.616C2273.83 146.905 2270.8 145.282 2266.47 143.747C2262.13 142.213 2257.86 141.446 2253.67 141.446C2244.53 141.446 2237.27 144.647 2231.9 151.051C2226.53 157.455 2223.84 166.234 2223.84 177.388C2223.84 188.484 2226.58 196.938 2232.07 202.752C2237.56 208.565 2245.18 211.472 2254.91 211.472C2262.47 211.472 2270.08 208.551 2277.75 202.708L2284.39 216.872C2275.36 222.715 2264.18 225.637 2250.84 225.637C2237.92 225.637 2227.23 221.299 2218.79 212.623C2210.35 203.947 2206.13 192.202 2206.13 177.388C2206.13 162.279 2210.52 150.151 2219.28 141.003C2228.05 131.855 2240.04 127.281 2255.27 127.281C2260.17 127.281 2265.48 128.314 2271.2 130.379C2276.93 132.445 2281.15 134.57 2283.86 136.753Z"/>
<path d="M2360.53 223.866L2360.53 164.286C2360.53 157.204 2358.79 151.626 2355.31 147.554C2351.82 143.482 2346.93 141.446 2340.61 141.446C2336.54 141.446 2332.45 142.641 2328.35 145.031C2324.25 147.421 2321.1 150.21 2318.92 153.397L2318.92 223.866L2302.1 223.866L2302.1 90.1872L2318.92 90.1872L2318.92 139.498C2321.16 136.016 2324.78 133.109 2329.77 130.778C2334.75 128.447 2339.9 127.281 2345.21 127.281C2355.25 127.281 2363.11 130.586 2368.81 137.196C2374.5 143.806 2377.35 152.836 2377.35 164.286L2377.35 223.866L2360.53 223.866Z"/>
<path d="M2454.72 212.977C2448 221.417 2437.7 225.637 2423.83 225.637C2416.39 225.637 2409.94 222.937 2404.48 217.536C2399.02 212.136 2396.29 205.423 2396.29 197.396C2396.29 187.776 2400.5 179.646 2408.91 173.006C2417.32 166.366 2428.05 163.047 2441.09 163.047C2444.63 163.047 2448.65 163.814 2453.13 165.348C2453.13 150.003 2446.28 142.331 2432.59 142.331C2422.09 142.331 2414 145.164 2408.33 150.83L2401.25 136.753C2404.44 134.157 2408.85 131.929 2414.49 130.07C2420.12 128.21 2425.51 127.281 2430.64 127.281C2444.4 127.281 2454.38 130.409 2460.61 136.665C2466.84 142.921 2469.95 152.866 2469.95 166.499L2469.95 200.494C2469.95 208.816 2472.43 214.364 2477.39 217.138L2477.39 225.548C2470.54 225.548 2465.42 224.574 2462.03 222.627C2458.63 220.679 2456.2 217.462 2454.72 212.977ZM2453.13 177.3C2447.82 176.119 2444.1 175.529 2441.98 175.529C2433.48 175.529 2426.54 177.713 2421.17 182.08C2415.8 186.448 2413.12 191.612 2413.12 197.573C2413.12 207.429 2418.93 212.357 2430.56 212.357C2439.05 212.357 2446.58 208.314 2453.13 200.229L2453.13 177.3Z"/>
<path d="M2547.68 105.237C2544.26 104.057 2541.07 103.467 2538.12 103.467C2532.98 103.467 2528.75 105.414 2525.41 109.309C2522.08 113.205 2520.41 118.133 2520.41 124.094C2520.41 125.687 2520.56 127.34 2520.86 129.051L2540.15 129.051L2540.15 143.216L2520.86 143.216L2520.86 223.866L2504.03 223.866L2504.03 143.216L2490.22 143.216L2490.22 129.051L2504.03 129.051C2504.03 116.952 2507.02 107.45 2512.98 100.545C2518.94 93.6398 2526.82 90.1872 2536.61 90.1872C2541.51 90.1872 2546.76 91.0725 2552.37 92.8431L2547.68 105.237Z"/>
<path d="M2614.7 105.237C2611.27 104.057 2608.09 103.467 2605.13 103.467C2600 103.467 2595.77 105.414 2592.43 109.309C2589.1 113.205 2587.43 118.133 2587.43 124.094C2587.43 125.687 2587.58 127.34 2587.87 129.051L2607.17 129.051L2607.17 143.216L2587.87 143.216L2587.87 223.866L2571.05 223.866L2571.05 143.216L2557.24 143.216L2557.24 129.051L2571.05 129.051C2571.05 116.952 2574.03 107.45 2579.99 100.545C2585.95 93.6398 2593.83 90.1872 2603.63 90.1872C2608.53 90.1872 2613.78 91.0725 2619.39 92.8431L2614.7 105.237Z"/>
<path d="M2636.47 142.331L2625.5 142.331L2625.5 129.051L2636.47 129.051L2636.47 109.221L2653.29 102.758L2653.29 129.051L2679.32 129.051L2679.32 142.331L2653.29 142.331L2653.29 189.428C2653.29 197.396 2654.64 203.062 2657.32 206.426C2660.01 209.79 2664.33 211.472 2670.29 211.472C2674.6 211.472 2679.06 210.38 2683.66 208.196L2686.14 222.981C2679.17 224.751 2671.53 225.637 2663.21 225.637C2655.71 225.637 2649.38 222.848 2644.22 217.271C2639.06 211.693 2636.47 204.655 2636.47 196.156L2636.47 142.331Z"/>
<path d="M2726.95 190.048L2720.67 190.048C2716.12 160.361 2713.85 139.734 2713.85 128.166L2713.85 91.8693L2733.86 91.8693L2733.86 128.078C2733.86 139.35 2731.55 160.007 2726.95 190.048ZM2724.38 198.989C2728.04 198.989 2731.17 200.288 2733.77 202.885C2736.36 205.482 2737.66 208.61 2737.66 212.269C2737.66 215.928 2736.36 219.071 2733.77 221.697C2731.17 224.323 2728.04 225.637 2724.38 225.637C2720.72 225.637 2717.6 224.323 2715 221.697C2712.4 219.071 2711.1 215.928 2711.1 212.269C2711.1 208.61 2712.4 205.482 2715 202.885C2717.6 200.288 2720.72 198.989 2724.38 198.989Z"/>
</g>
<g fill="#000000" opacity="1" stroke="none">
<path d="M571.434 402.483L571.434 473.493L560.382 473.493L560.382 402.483L534.63 402.483L534.63 392.536L598.346 392.536L598.346 402.483L571.434 402.483Z"/>
<path d="M588.841 443.762C588.841 434.626 591.3 427.249 596.218 421.63C601.137 416.012 607.611 413.203 615.643 413.203C624.116 413.203 630.692 415.902 635.371 421.299C640.049 426.696 642.389 434.184 642.389 443.762C642.389 453.304 639.994 460.829 635.205 466.336C630.416 471.844 623.895 474.598 615.643 474.598C607.206 474.598 600.63 471.816 595.914 466.254C591.199 460.691 588.841 453.194 588.841 443.762ZM599.893 443.762C599.893 458.609 605.143 466.033 615.643 466.033C620.542 466.033 624.383 464.043 627.164 460.064C629.946 456.086 631.337 450.652 631.337 443.762C631.337 429.1 626.105 421.769 615.643 421.769C610.853 421.769 607.031 423.721 604.176 427.626C601.321 431.531 599.893 436.91 599.893 443.762Z"/>
<path d="M654.27 456.749L654.27 390.049L664.769 390.049L664.769 454.98C664.769 458.149 665.681 460.645 667.505 462.468C669.328 464.292 671.714 465.204 674.661 465.204L674.661 474.598C661.067 474.598 654.27 468.648 654.27 456.749Z"/>
<path d="M687.647 456.749L687.647 390.049L698.147 390.049L698.147 454.98C698.147 458.149 699.059 460.645 700.882 462.468C702.706 464.292 705.091 465.204 708.039 465.204L708.039 474.598C694.444 474.598 687.647 468.648 687.647 456.749Z"/>
<path d="M725.114 493.552L722.296 489.574C728.632 484.379 731.801 479.958 731.801 476.311C731.801 474.69 731.248 473.069 730.143 471.448C726.975 469.938 725.391 467.764 725.391 464.927C725.391 462.975 726.146 461.363 727.656 460.092C729.167 458.821 731.064 458.185 733.348 458.185C735.374 458.185 737.189 459.07 738.791 460.838C740.394 462.606 741.195 464.669 741.195 467.027C741.195 471.927 740.173 476.339 738.128 480.262C736.083 484.186 731.746 488.616 725.114 493.552Z"/>
<path d="M833.37 473.437L833.37 469.072C829.723 472.719 824.418 474.543 817.455 474.543C810.05 474.543 804.045 471.89 799.44 466.585C794.835 461.28 792.532 454.207 792.532 445.365C792.532 436.486 795.185 428.906 800.49 422.625C805.795 416.344 812.113 413.203 819.444 413.203C825.56 413.203 830.202 414.64 833.37 417.514L833.37 390.049L843.87 390.049L843.87 473.437L833.37 473.437ZM833.37 428.013C830.718 424.034 827.089 422.045 822.484 422.045C816.847 422.045 812.288 424.145 808.807 428.345C805.325 432.544 803.585 437.886 803.585 444.37C803.585 458.628 810.069 465.756 823.036 465.756C824.694 465.756 826.684 465.231 829.005 464.181C831.326 463.131 832.781 462.017 833.37 460.838L833.37 428.013Z"/>
<path d="M892.333 466.696C888.134 471.964 881.705 474.598 873.047 474.598C868.406 474.598 864.381 472.912 860.973 469.542C857.565 466.171 855.861 461.98 855.861 456.97C855.861 450.965 858.486 445.89 863.736 441.745C868.986 437.601 875.682 435.529 883.823 435.529C886.034 435.529 888.539 436.007 891.339 436.965C891.339 427.387 887.065 422.597 878.518 422.597C871.961 422.597 866.913 424.366 863.377 427.903L858.956 419.116C860.945 417.495 863.699 416.104 867.217 414.944C870.736 413.783 874.097 413.203 877.303 413.203C885.886 413.203 892.122 415.156 896.008 419.061C899.895 422.966 901.838 429.174 901.838 437.684L901.838 458.904C901.838 464.098 903.386 467.561 906.48 469.293L906.48 474.543C902.207 474.543 899.011 473.935 896.892 472.719C894.774 471.503 893.254 469.496 892.333 466.696ZM891.339 444.426C888.023 443.689 885.702 443.32 884.376 443.32C879.071 443.32 874.742 444.683 871.39 447.41C868.037 450.136 866.361 453.359 866.361 457.08C866.361 463.233 869.99 466.309 877.247 466.309C882.552 466.309 887.249 463.785 891.339 458.738L891.339 444.426Z"/>
<path d="M914.493 469.956L918.196 460.009C924.053 463.84 928.769 465.756 932.342 465.756C938.826 465.756 942.068 463.03 942.068 457.578C942.068 453.673 938.937 450.32 932.674 447.52C927.848 445.31 924.597 443.633 922.92 442.491C921.244 441.349 919.789 440.051 918.555 438.596C917.321 437.14 916.4 435.593 915.792 433.954C915.184 432.314 914.88 430.555 914.88 428.676C914.88 423.813 916.648 420.019 920.185 417.292C923.722 414.566 928.345 413.203 934.055 413.203C938.366 413.203 943.8 414.566 950.357 417.292L947.373 427.018C943.21 423.703 939.029 422.045 934.829 422.045C932.324 422.045 930.215 422.634 928.502 423.813C926.789 424.992 925.932 426.484 925.932 428.289C925.932 432.084 928.087 434.958 932.398 436.91L939.913 440.336C944.518 442.436 947.871 444.831 949.971 447.52C952.07 450.209 953.12 453.58 953.12 457.633C953.12 462.938 951.26 467.092 947.539 470.094C943.818 473.097 938.66 474.598 932.066 474.598C925.84 474.598 919.982 473.051 914.493 469.956Z"/>
<path d="M960.304 469.956L964.007 460.009C969.864 463.84 974.58 465.756 978.154 465.756C984.637 465.756 987.879 463.03 987.879 457.578C987.879 453.673 984.748 450.32 978.485 447.52C973.659 445.31 970.408 443.633 968.732 442.491C967.055 441.349 965.6 440.051 964.366 438.596C963.132 437.14 962.211 435.593 961.603 433.954C960.995 432.314 960.691 430.555 960.691 428.676C960.691 423.813 962.459 420.019 965.996 417.292C969.533 414.566 974.156 413.203 979.867 413.203C984.177 413.203 989.611 414.566 996.169 417.292L993.184 427.018C989.021 423.703 984.84 422.045 980.64 422.045C978.135 422.045 976.026 422.634 974.313 423.813C972.6 424.992 971.743 426.484 971.743 428.289C971.743 432.084 973.898 434.958 978.209 436.91L985.724 440.336C990.329 442.436 993.682 444.831 995.782 447.52C997.882 450.209 998.932 453.58 998.932 457.633C998.932 462.938 997.071 467.092 993.35 470.094C989.629 473.097 984.472 474.598 977.877 474.598C971.651 474.598 965.794 473.051 960.304 469.956Z"/>
<path d="M1081.6 473.437L1081.6 469.072C1077.95 472.719 1072.65 474.543 1065.69 474.543C1058.28 474.543 1052.28 471.89 1047.67 466.585C1043.07 461.28 1040.76 454.207 1040.76 445.365C1040.76 436.486 1043.42 428.906 1048.72 422.625C1054.03 416.344 1060.34 413.203 1067.68 413.203C1073.79 413.203 1078.43 414.64 1081.6 417.514L1081.6 390.049L1092.1 390.049L1092.1 473.437L1081.6 473.437ZM1081.6 428.013C1078.95 424.034 1075.32 422.045 1070.72 422.045C1065.08 422.045 1060.52 424.145 1057.04 428.345C1053.56 432.544 1051.82 437.886 1051.82 444.37C1051.82 458.628 1058.3 465.756 1071.27 465.756C1072.93 465.756 1074.92 465.231 1077.24 464.181C1079.56 463.131 1081.01 462.017 1081.6 460.838L1081.6 428.013Z"/>
<path d="M1117.08 414.308L1117.08 452.052C1117.08 461.188 1121.04 465.756 1128.96 465.756C1132.42 465.756 1135.59 464.762 1138.47 462.772C1141.34 460.783 1143.24 458.48 1144.16 455.865L1144.16 414.308L1154.66 414.308L1154.66 473.493L1144.16 473.493L1144.16 465.314C1142.98 467.635 1140.61 469.763 1137.06 471.697C1133.5 473.631 1130.03 474.598 1126.64 474.598C1120.16 474.598 1115.19 472.737 1111.75 469.017C1108.3 465.296 1106.58 460.009 1106.58 453.157L1106.58 414.308L1117.08 414.308Z"/>
<path d="M1201.13 473.493L1201.13 470.73L1235.95 402.483L1201.68 402.483L1201.68 392.536L1251.14 392.536L1251.14 395.299L1216.22 463.546L1252.36 463.546L1252.36 473.493L1201.13 473.493Z"/>
<path d="M1275.29 414.308L1275.29 452.052C1275.29 461.188 1279.25 465.756 1287.17 465.756C1290.64 465.756 1293.8 464.762 1296.68 462.772C1299.55 460.783 1301.45 458.48 1302.37 455.865L1302.37 414.308L1312.87 414.308L1312.87 473.493L1302.37 473.493L1302.37 465.314C1301.19 467.635 1298.82 469.763 1295.27 471.697C1291.71 473.631 1288.24 474.598 1284.85 474.598C1278.37 474.598 1273.4 472.737 1269.96 469.017C1266.51 465.296 1264.79 460.009 1264.79 453.157L1264.79 414.308L1275.29 414.308Z"/>
<path d="M1359.18 399.443C1357.04 398.706 1355.05 398.338 1353.21 398.338C1350 398.338 1347.36 399.554 1345.28 401.985C1343.2 404.417 1342.16 407.493 1342.16 411.214C1342.16 412.208 1342.25 413.24 1342.43 414.308L1354.48 414.308L1354.48 423.15L1342.43 423.15L1342.43 473.493L1331.93 473.493L1331.93 423.15L1323.31 423.15L1323.31 414.308L1331.93 414.308C1331.93 406.756 1333.79 400.825 1337.51 396.514C1341.24 392.204 1346.15 390.049 1352.27 390.049C1355.33 390.049 1358.61 390.601 1362.11 391.707L1359.18 399.443Z"/>
<path d="M1402.45 466.696C1398.25 471.964 1391.82 474.598 1383.16 474.598C1378.52 474.598 1374.49 472.912 1371.09 469.542C1367.68 466.171 1365.97 461.98 1365.97 456.97C1365.97 450.965 1368.6 445.89 1373.85 441.745C1379.1 437.601 1385.79 435.529 1393.94 435.529C1396.15 435.529 1398.65 436.007 1401.45 436.965C1401.45 427.387 1397.18 422.597 1388.63 422.597C1382.07 422.597 1377.03 424.366 1373.49 427.903L1369.07 419.116C1371.06 417.495 1373.81 416.104 1377.33 414.944C1380.85 413.783 1384.21 413.203 1387.42 413.203C1396 413.203 1402.23 415.156 1406.12 419.061C1410.01 422.966 1411.95 429.174 1411.95 437.684L1411.95 458.904C1411.95 464.098 1413.5 467.561 1416.59 469.293L1416.59 474.543C1412.32 474.543 1409.12 473.935 1407.01 472.719C1404.89 471.503 1403.37 469.496 1402.45 466.696ZM1401.45 444.426C1398.14 443.689 1395.81 443.32 1394.49 443.32C1389.18 443.32 1384.85 444.683 1381.5 447.41C1378.15 450.136 1376.47 453.359 1376.47 457.08C1376.47 463.233 1380.1 466.309 1387.36 466.309C1392.66 466.309 1397.36 463.785 1401.45 458.738L1401.45 444.426Z"/>
<path d="M1429.3 456.749L1429.3 390.049L1439.8 390.049L1439.8 454.98C1439.8 458.149 1440.71 460.645 1442.54 462.468C1444.36 464.292 1446.75 465.204 1449.69 465.204L1449.69 474.598C1436.1 474.598 1429.3 468.648 1429.3 456.749Z"/>
<path d="M1462.68 456.749L1462.68 390.049L1473.18 390.049L1473.18 454.98C1473.18 458.149 1474.09 460.645 1475.92 462.468C1477.74 464.292 1480.12 465.204 1483.07 465.204L1483.07 474.598C1469.48 474.598 1462.68 468.648 1462.68 456.749Z"/>
<path d="M1491.36 469.956L1495.06 460.009C1500.92 463.84 1505.64 465.756 1509.21 465.756C1515.69 465.756 1518.94 463.03 1518.94 457.578C1518.94 453.673 1515.8 450.32 1509.54 447.52C1504.72 445.31 1501.46 443.633 1499.79 442.491C1498.11 441.349 1496.66 440.051 1495.42 438.596C1494.19 437.14 1493.27 435.593 1492.66 433.954C1492.05 432.314 1491.75 430.555 1491.75 428.676C1491.75 423.813 1493.52 420.019 1497.05 417.292C1500.59 414.566 1505.21 413.203 1510.92 413.203C1515.23 413.203 1520.67 414.566 1527.23 417.292L1524.24 427.018C1520.08 423.703 1515.9 422.045 1511.7 422.045C1509.19 422.045 1507.08 422.634 1505.37 423.813C1503.66 424.992 1502.8 426.484 1502.8 428.289C1502.8 432.084 1504.95 434.958 1509.27 436.91L1516.78 440.336C1521.39 442.436 1524.74 444.831 1526.84 447.52C1528.94 450.209 1529.99 453.58 1529.99 457.633C1529.99 462.938 1528.13 467.092 1524.41 470.094C1520.69 473.097 1515.53 474.598 1508.93 474.598C1502.71 474.598 1496.85 473.051 1491.36 469.956Z"/>
<path d="M1542.37 445.531L1542.37 435.86L1566.02 435.86L1566.02 445.531L1542.37 445.531Z"/>
<path d="M1579.78 469.79L1583.81 459.622C1585.88 461.133 1588.44 462.395 1591.52 463.408C1594.6 464.421 1597.35 464.927 1599.78 464.927C1604.09 464.927 1607.56 463.748 1610.17 461.391C1612.79 459.033 1614.1 456.03 1614.1 452.383C1614.1 449.657 1613.37 447.124 1611.91 444.785C1610.46 442.445 1606.8 439.894 1600.94 437.131L1594.42 434.092C1588.9 431.513 1585.04 428.455 1582.85 424.918C1580.65 421.382 1579.56 417.127 1579.56 412.153C1579.56 406.111 1581.69 401.101 1585.97 397.122C1590.24 393.143 1595.73 391.154 1602.44 391.154C1611.39 391.154 1617.61 392.609 1621.11 395.52L1617.85 405.135C1616.38 404.067 1614.13 403.035 1611.11 402.04C1608.09 401.046 1605.29 400.548 1602.71 400.548C1598.95 400.548 1596 401.617 1593.84 403.754C1591.69 405.89 1590.61 408.635 1590.61 411.987C1590.61 414.05 1591 415.929 1591.77 417.624C1592.54 419.319 1593.62 420.737 1595 421.879C1596.38 423.021 1599.21 424.624 1603.48 426.687L1610.12 429.837C1615.64 432.452 1619.52 435.575 1621.75 439.203C1623.98 442.832 1625.09 447.446 1625.09 453.046C1625.09 459.125 1622.65 464.283 1617.77 468.519C1612.89 472.756 1606.36 474.874 1598.18 474.874C1591 474.874 1584.86 473.18 1579.78 469.79Z"/>
<path d="M1640.79 422.597L1633.93 422.597L1633.93 414.308L1640.79 414.308L1640.79 401.93L1651.29 397.896L1651.29 414.308L1667.53 414.308L1667.53 422.597L1651.29 422.597L1651.29 451.996C1651.29 456.97 1652.12 460.506 1653.8 462.606C1655.48 464.706 1658.17 465.756 1661.9 465.756C1664.59 465.756 1667.37 465.075 1670.24 463.712L1671.79 472.94C1667.44 474.045 1662.67 474.598 1657.47 474.598C1652.8 474.598 1648.84 472.857 1645.62 469.376C1642.4 465.894 1640.79 461.501 1640.79 456.196L1640.79 422.597Z"/>
<path d="M1691.85 414.308L1691.85 452.052C1691.85 461.188 1695.81 465.756 1703.73 465.756C1707.19 465.756 1710.36 464.762 1713.23 462.772C1716.11 460.783 1718 458.48 1718.92 455.865L1718.92 414.308L1729.42 414.308L1729.42 473.493L1718.92 473.493L1718.92 465.314C1717.75 467.635 1715.38 469.763 1711.82 471.697C1708.27 473.631 1704.8 474.598 1701.41 474.598C1694.92 474.598 1689.96 472.737 1686.51 469.017C1683.07 465.296 1681.35 460.009 1681.35 453.157L1681.35 414.308L1691.85 414.308Z"/>
<path d="M1780.15 473.493L1780.15 439.065C1780.15 432.765 1779.21 428.354 1777.31 425.83C1775.41 423.307 1772.23 422.045 1767.78 422.045C1765.38 422.045 1762.88 422.763 1760.26 424.2C1757.64 425.637 1755.64 427.405 1754.24 429.505L1754.24 473.493L1743.74 473.493L1743.74 414.308L1750.92 414.308L1754.24 421.934C1757.7 416.114 1763.35 413.203 1771.2 413.203C1784.17 413.203 1790.65 421.087 1790.65 436.855L1790.65 473.493L1780.15 473.493Z"/>
<path d="M1843.1 473.437L1843.1 469.072C1839.45 472.719 1834.14 474.543 1827.18 474.543C1819.78 474.543 1813.77 471.89 1809.17 466.585C1804.56 461.28 1802.26 454.207 1802.26 445.365C1802.26 436.486 1804.91 428.906 1810.22 422.625C1815.52 416.344 1821.84 413.203 1829.17 413.203C1835.29 413.203 1839.93 414.64 1843.1 417.514L1843.1 390.049L1853.6 390.049L1853.6 473.437L1843.1 473.437ZM1843.1 428.013C1840.44 424.034 1836.81 422.045 1832.21 422.045C1826.57 422.045 1822.01 424.145 1818.53 428.345C1815.05 432.544 1813.31 437.886 1813.31 444.37C1813.31 458.628 1819.79 465.756 1832.76 465.756C1834.42 465.756 1836.41 465.231 1838.73 464.181C1841.05 463.131 1842.51 462.017 1843.1 460.838L1843.1 428.013Z"/>
<path d="M1918.47 444.923L1875.81 444.923C1875.81 451.849 1877.71 457.172 1881.5 460.893C1884.85 464.135 1889.17 465.756 1894.43 465.756C1900.44 465.756 1905.45 464.006 1909.46 460.506L1913.89 468.077C1912.26 469.698 1909.78 471.098 1906.42 472.277C1902.23 473.824 1897.55 474.598 1892.39 474.598C1884.95 474.598 1878.63 472.074 1873.43 467.027C1867.65 461.464 1864.76 453.986 1864.76 444.591C1864.76 434.829 1867.72 427 1873.66 421.105C1878.96 415.837 1885.24 413.203 1892.5 413.203C1900.94 413.203 1907.55 415.579 1912.34 420.332C1916.98 424.9 1919.3 430.96 1919.3 438.513C1919.3 440.834 1919.02 442.97 1918.47 444.923ZM1893 422.045C1888.32 422.045 1884.39 423.555 1881.23 426.576C1878.2 429.45 1876.49 433.023 1876.09 437.297L1908.86 437.297C1908.86 433.06 1907.53 429.524 1904.88 426.687C1901.97 423.592 1898.01 422.045 1893 422.045Z"/>
<path d="M2032.97 473.493L2032.97 436.026C2032.97 426.705 2028.94 422.045 2020.87 422.045C2018.33 422.045 2015.95 422.828 2013.74 424.393C2011.53 425.959 2010.02 427.737 2009.21 429.726L2009.21 473.493L1998.71 473.493L1998.71 431.439C1998.71 428.529 1997.61 426.236 1995.42 424.559C1993.23 422.883 1990.33 422.045 1986.72 422.045C1984.62 422.045 1982.38 422.855 1980 424.476C1977.63 426.097 1975.94 427.884 1974.95 429.837L1974.95 473.493L1964.45 473.493L1964.45 414.308L1971.3 414.308L1974.78 421.161C1978.83 415.856 1983.9 413.203 1989.98 413.203C1998.45 413.203 2004.38 415.837 2007.77 421.105C2008.95 418.858 2011.14 416.979 2014.35 415.469C2017.55 413.958 2020.85 413.203 2024.24 413.203C2030.36 413.203 2035.09 415.018 2038.44 418.646C2041.8 422.275 2043.47 427.368 2043.47 433.926L2043.47 473.493L2032.97 473.493Z"/>
<path d="M2069.22 391.928C2071.03 391.928 2072.57 392.563 2073.84 393.834C2075.11 395.105 2075.74 396.625 2075.74 398.393C2075.74 400.198 2075.11 401.737 2073.84 403.008C2072.57 404.279 2071.03 404.914 2069.22 404.914C2067.45 404.914 2065.94 404.279 2064.66 403.008C2063.39 401.737 2062.76 400.198 2062.76 398.393C2062.76 396.588 2063.38 395.059 2064.64 393.807C2065.89 392.554 2067.42 391.928 2069.22 391.928ZM2063.48 473.493L2063.48 423.15L2055.35 423.15L2055.35 414.308L2073.98 414.308L2073.98 473.493L2063.48 473.493Z"/>
<path d="M2094.42 422.597L2087.57 422.597L2087.57 414.308L2094.42 414.308L2094.42 401.93L2104.92 397.896L2104.92 414.308L2121.17 414.308L2121.17 422.597L2104.92 422.597L2104.92 451.996C2104.92 456.97 2105.76 460.506 2107.44 462.606C2109.11 464.706 2111.81 465.756 2115.53 465.756C2118.22 465.756 2121 465.075 2123.88 463.712L2125.42 472.94C2121.08 474.045 2116.31 474.598 2111.11 474.598C2106.43 474.598 2102.48 472.857 2099.26 469.376C2096.03 465.894 2094.42 461.501 2094.42 456.196L2094.42 422.597Z"/>
<path d="M2133.38 489.684L2139.07 481.284C2145.19 485.374 2150.83 487.418 2155.98 487.418C2160.74 487.418 2164.48 486.599 2167.23 484.959C2169.97 483.32 2171.35 481.284 2171.35 478.853C2171.35 474.064 2167.88 471.669 2160.96 471.669C2159.78 471.669 2157.64 471.964 2154.55 472.553C2151.45 473.143 2149.04 473.437 2147.31 473.437C2138.91 473.437 2134.71 470.269 2134.71 463.933C2134.71 461.98 2135.69 460.212 2137.66 458.628C2139.63 457.043 2142.08 455.901 2144.99 455.201C2136.66 451.296 2132.5 444.518 2132.5 434.865C2132.5 428.676 2134.65 423.519 2138.96 419.392C2143.27 415.266 2148.6 413.203 2154.93 413.203C2160.75 413.203 2165.3 414.4 2168.58 416.795L2173.83 410.495L2180.68 416.961L2174.38 421.713C2177.07 425.213 2178.42 429.781 2178.42 435.418C2178.42 441.386 2176.56 446.396 2172.84 450.449C2169.12 454.501 2164.23 456.822 2158.19 457.412L2149.52 458.296C2148.49 458.407 2147.1 458.803 2145.37 459.484C2143.64 460.166 2142.78 461.059 2142.78 462.164C2142.78 463.675 2144.58 464.43 2148.19 464.43C2149.78 464.43 2152.24 464.144 2155.6 463.573C2158.95 463.002 2161.44 462.717 2163.06 462.717C2168.88 462.717 2173.42 464.108 2176.68 466.889C2179.94 469.671 2181.57 473.53 2181.57 478.466C2181.57 483.919 2179.13 488.321 2174.25 491.674C2169.37 495.026 2163.19 496.702 2155.71 496.702C2151.87 496.702 2147.84 496.021 2143.6 494.658C2139.37 493.295 2135.96 491.637 2133.38 489.684ZM2155.65 421.658C2152 421.658 2149.03 422.947 2146.73 425.526C2144.42 428.105 2143.27 431.237 2143.27 434.921C2143.27 439.047 2144.39 442.464 2146.62 445.172C2148.84 447.879 2151.86 449.233 2155.65 449.233C2159.37 449.233 2162.28 447.916 2164.38 445.282C2166.48 442.648 2167.53 439.194 2167.53 434.921C2167.53 431.237 2166.4 428.105 2164.13 425.526C2161.87 422.947 2159.04 421.658 2155.65 421.658Z"/>
<path d="M2242.19 444.923L2199.53 444.923C2199.53 451.849 2201.43 457.172 2205.22 460.893C2208.57 464.135 2212.88 465.756 2218.15 465.756C2224.16 465.756 2229.17 464.006 2233.18 460.506L2237.6 468.077C2235.98 469.698 2233.5 471.098 2230.14 472.277C2225.94 473.824 2221.26 474.598 2216.11 474.598C2208.66 474.598 2202.35 472.074 2197.15 467.027C2191.37 461.464 2188.48 453.986 2188.48 444.591C2188.48 434.829 2191.44 427 2197.37 421.105C2202.68 415.837 2208.96 413.203 2216.22 413.203C2224.65 413.203 2231.27 415.579 2236.06 420.332C2240.7 424.9 2243.02 430.96 2243.02 438.513C2243.02 440.834 2242.74 442.97 2242.19 444.923ZM2216.71 422.045C2212.04 422.045 2208.11 423.555 2204.94 426.576C2201.92 429.45 2200.21 433.023 2199.8 437.297L2232.57 437.297C2232.57 433.06 2231.25 429.524 2228.6 426.687C2225.69 423.592 2221.72 422.045 2216.71 422.045Z"/>
<path d="M2250.2 469.956L2253.9 460.009C2259.76 463.84 2264.48 465.756 2268.05 465.756C2274.54 465.756 2277.78 463.03 2277.78 457.578C2277.78 453.673 2274.65 450.32 2268.38 447.52C2263.56 445.31 2260.31 443.633 2258.63 442.491C2256.95 441.349 2255.5 440.051 2254.26 438.596C2253.03 437.14 2252.11 435.593 2251.5 433.954C2250.89 432.314 2250.59 430.555 2250.59 428.676C2250.59 423.813 2252.36 420.019 2255.89 417.292C2259.43 414.566 2264.05 413.203 2269.76 413.203C2274.08 413.203 2279.51 414.566 2286.07 417.292L2283.08 427.018C2278.92 423.703 2274.74 422.045 2270.54 422.045C2268.03 422.045 2265.92 422.634 2264.21 423.813C2262.5 424.992 2261.64 426.484 2261.64 428.289C2261.64 432.084 2263.8 434.958 2268.11 436.91L2275.62 440.336C2280.23 442.436 2283.58 444.831 2285.68 447.52C2287.78 450.209 2288.83 453.58 2288.83 457.633C2288.83 462.938 2286.97 467.092 2283.25 470.094C2279.53 473.097 2274.37 474.598 2267.78 474.598C2261.55 474.598 2255.69 473.051 2250.2 469.956Z"/>
<path d="M2310.38 470.232L2310.38 496.702L2299.88 496.702L2299.88 414.308L2310.38 414.308L2310.38 419.171C2314.36 415.193 2319.17 413.203 2324.8 413.203C2333.2 413.203 2339.74 415.819 2344.42 421.05C2349.1 426.282 2351.44 433.944 2351.44 444.039C2351.44 453.028 2349.08 460.368 2344.37 466.06C2339.65 471.752 2332.84 474.598 2323.92 474.598C2321.42 474.598 2318.74 474.156 2315.88 473.272C2313.02 472.387 2311.19 471.374 2310.38 470.232ZM2310.38 427.074L2310.38 461.556C2311.04 462.551 2312.44 463.5 2314.58 464.402C2316.72 465.305 2318.8 465.756 2320.83 465.756C2333.87 465.756 2340.39 458.388 2340.39 443.652C2340.39 436.173 2338.84 430.702 2335.75 427.239C2332.65 423.776 2327.7 422.045 2320.88 422.045C2319.41 422.045 2317.6 422.561 2315.47 423.592C2313.33 424.624 2311.63 425.784 2310.38 427.074Z"/>
<path d="M2373.77 391.928C2375.57 391.928 2377.11 392.563 2378.38 393.834C2379.65 395.105 2380.29 396.625 2380.29 398.393C2380.29 400.198 2379.65 401.737 2378.38 403.008C2377.11 404.279 2375.57 404.914 2373.77 404.914C2372 404.914 2370.48 404.279 2369.21 403.008C2367.94 401.737 2367.3 400.198 2367.3 398.393C2367.3 396.588 2367.93 395.059 2369.18 393.807C2370.43 392.554 2371.96 391.928 2373.77 391.928ZM2368.02 473.493L2368.02 423.15L2359.9 423.15L2359.9 414.308L2378.52 414.308L2378.52 473.493L2368.02 473.493Z"/>
<path d="M2445.05 444.923L2402.39 444.923C2402.39 451.849 2404.29 457.172 2408.08 460.893C2411.44 464.135 2415.75 465.756 2421.01 465.756C2427.02 465.756 2432.03 464.006 2436.04 460.506L2440.47 468.077C2438.84 469.698 2436.36 471.098 2433.01 472.277C2428.81 473.824 2424.13 474.598 2418.97 474.598C2411.53 474.598 2405.21 472.074 2400.01 467.027C2394.23 461.464 2391.34 453.986 2391.34 444.591C2391.34 434.829 2394.3 427 2400.24 421.105C2405.54 415.837 2411.82 413.203 2419.08 413.203C2427.52 413.203 2434.13 415.579 2438.92 420.332C2443.56 424.9 2445.88 430.96 2445.88 438.513C2445.88 440.834 2445.6 442.97 2445.05 444.923ZM2419.58 422.045C2414.9 422.045 2410.97 423.555 2407.81 426.576C2404.79 429.45 2403.07 433.023 2402.67 437.297L2435.44 437.297C2435.44 433.06 2434.11 429.524 2431.46 426.687C2428.55 423.592 2424.59 422.045 2419.58 422.045Z"/>
<path d="M2457.76 456.749L2457.76 390.049L2468.26 390.049L2468.26 454.98C2468.26 458.149 2469.17 460.645 2471 462.468C2472.82 464.292 2475.21 465.204 2478.15 465.204L2478.15 474.598C2464.56 474.598 2457.76 468.648 2457.76 456.749Z"/>
<path d="M2494.07 422.597L2487.22 422.597L2487.22 414.308L2494.07 414.308L2494.07 401.93L2504.57 397.896L2504.57 414.308L2520.81 414.308L2520.81 422.597L2504.57 422.597L2504.57 451.996C2504.57 456.97 2505.41 460.506 2507.08 462.606C2508.76 464.706 2511.46 465.756 2515.18 465.756C2517.87 465.756 2520.65 465.075 2523.52 463.712L2525.07 472.94C2520.72 474.045 2515.95 474.598 2510.76 474.598C2506.08 474.598 2502.13 472.857 2498.9 469.376C2495.68 465.894 2494.07 461.501 2494.07 456.196L2494.07 422.597Z"/>
<path d="M2605.75 473.493L2605.75 436.302C2605.75 431.881 2604.66 428.4 2602.49 425.858C2600.32 423.316 2597.26 422.045 2593.32 422.045C2590.77 422.045 2588.22 422.791 2585.66 424.283C2583.1 425.775 2581.14 427.516 2579.78 429.505L2579.78 473.493L2569.28 473.493L2569.28 390.049L2579.78 390.049L2579.78 420.829C2581.18 418.656 2583.43 416.841 2586.55 415.386C2589.66 413.931 2592.87 413.203 2596.19 413.203C2602.45 413.203 2607.36 415.266 2610.92 419.392C2614.47 423.519 2616.25 429.155 2616.25 436.302L2616.25 473.493L2605.75 473.493Z"/>
<path d="M2664.55 466.696C2660.35 471.964 2653.92 474.598 2645.26 474.598C2640.62 474.598 2636.6 472.912 2633.19 469.542C2629.78 466.171 2628.08 461.98 2628.08 456.97C2628.08 450.965 2630.7 445.89 2635.95 441.745C2641.2 437.601 2647.9 435.529 2656.04 435.529C2658.25 435.529 2660.75 436.007 2663.55 436.965C2663.55 427.387 2659.28 422.597 2650.73 422.597C2644.18 422.597 2639.13 424.366 2635.59 427.903L2631.17 419.116C2633.16 417.495 2635.91 416.104 2639.43 414.944C2642.95 413.783 2646.31 413.203 2649.52 413.203C2658.1 413.203 2664.34 415.156 2668.22 419.061C2672.11 422.966 2674.05 429.174 2674.05 437.684L2674.05 458.904C2674.05 464.098 2675.6 467.561 2678.69 469.293L2678.69 474.543C2674.42 474.543 2671.23 473.935 2669.11 472.719C2666.99 471.503 2665.47 469.496 2664.55 466.696ZM2663.55 444.426C2660.24 443.689 2657.92 443.32 2656.59 443.32C2651.29 443.32 2646.96 444.683 2643.6 447.41C2640.25 450.136 2638.58 453.359 2638.58 457.08C2638.58 463.233 2642.2 466.309 2649.46 466.309C2654.77 466.309 2659.46 463.785 2663.55 458.738L2663.55 444.426Z"/>
<path d="M2686.71 469.956L2690.41 460.009C2696.27 463.84 2700.98 465.756 2704.56 465.756C2711.04 465.756 2714.28 463.03 2714.28 457.578C2714.28 453.673 2711.15 450.32 2704.89 447.52C2700.06 445.31 2696.81 443.633 2695.13 442.491C2693.46 441.349 2692 440.051 2690.77 438.596C2689.54 437.14 2688.61 435.593 2688.01 433.954C2687.4 432.314 2687.09 430.555 2687.09 428.676C2687.09 423.813 2688.86 420.019 2692.4 417.292C2695.94 414.566 2700.56 413.203 2706.27 413.203C2710.58 413.203 2716.01 414.566 2722.57 417.292L2719.59 427.018C2715.42 423.703 2711.24 422.045 2707.04 422.045C2704.54 422.045 2702.43 422.634 2700.72 423.813C2699 424.992 2698.15 426.484 2698.15 428.289C2698.15 432.084 2700.3 434.958 2704.61 436.91L2712.13 440.336C2716.73 442.436 2720.09 444.831 2722.19 447.52C2724.29 450.209 2725.33 453.58 2725.33 457.633C2725.33 462.938 2723.47 467.092 2719.75 470.094C2716.03 473.097 2710.88 474.598 2704.28 474.598C2698.05 474.598 2692.2 473.051 2686.71 469.956Z"/>
<path d="M2740.14 422.597L2733.29 422.597L2733.29 414.308L2740.14 414.308L2740.14 401.93L2750.64 397.896L2750.64 414.308L2766.89 414.308L2766.89 422.597L2750.64 422.597L2750.64 451.996C2750.64 456.97 2751.48 460.506 2753.16 462.606C2754.84 464.706 2757.53 465.756 2761.25 465.756C2763.94 465.756 2766.73 465.075 2769.6 463.712L2771.15 472.94C2766.8 474.045 2762.03 474.598 2756.83 474.598C2752.15 474.598 2748.2 472.857 2744.98 469.376C2741.76 465.894 2740.14 461.501 2740.14 456.196L2740.14 422.597Z"/>
<path d="M2796.62 452.383L2792.7 452.383C2789.86 433.852 2788.44 420.977 2788.44 413.756L2788.44 391.099L2800.93 391.099L2800.93 413.701C2800.93 420.737 2799.49 433.631 2796.62 452.383ZM2795.02 457.964C2797.3 457.964 2799.26 458.775 2800.88 460.396C2802.5 462.017 2803.31 463.969 2803.31 466.254C2803.31 468.538 2802.5 470.499 2800.88 472.139C2799.26 473.778 2797.3 474.598 2795.02 474.598C2792.73 474.598 2790.78 473.778 2789.16 472.139C2787.54 470.499 2786.73 468.538 2786.73 466.254C2786.73 463.969 2787.54 462.017 2789.16 460.396C2790.78 458.775 2792.73 457.964 2795.02 457.964Z"/>
</g>
<g fill="#000000" opacity="1" stroke="none">
<path d="M545.87 1645.65L519.754 1645.65L519.754 1515.96C536.397 1515.37 547.05 1515.07 551.713 1515.07C569.832 1515.07 584.173 1520.58 594.738 1531.58C605.302 1542.59 610.585 1557.24 610.585 1575.54C610.585 1622.28 589.013 1645.65 545.87 1645.65ZM537.46 1531.89L537.46 1628.83C541.414 1629.42 546.313 1629.72 552.155 1629.72C564.549 1629.72 574.288 1625.07 581.37 1615.77C588.452 1606.48 591.993 1593.57 591.993 1577.04C591.993 1546.35 578.212 1531.01 550.65 1531.01C548.998 1531.01 544.601 1531.3 537.46 1531.89Z"/>
<path d="M645.554 1550.84L645.554 1611.3C645.554 1625.94 651.898 1633.26 664.587 1633.26C670.135 1633.26 675.211 1631.67 679.814 1628.48C684.418 1625.29 687.457 1621.6 688.933 1617.41L688.933 1550.84L705.753 1550.84L705.753 1645.65L688.933 1645.65L688.933 1632.55C687.044 1636.27 683.252 1639.68 677.557 1642.78C671.861 1645.87 666.299 1647.42 660.869 1647.42C650.482 1647.42 642.529 1644.44 637.01 1638.48C631.492 1632.52 628.733 1624.05 628.733 1613.07L628.733 1550.84L645.554 1550.84Z"/>
<path d="M797.646 1638.84L791.715 1647.42L783.305 1647.42L783.305 1511.97L800.125 1511.97L800.125 1557.83C801.719 1555.65 804.714 1553.64 809.111 1551.81C813.508 1549.98 817.831 1549.07 822.08 1549.07C835.065 1549.07 845.585 1553.55 853.641 1562.52C861.697 1571.5 865.725 1582.83 865.725 1596.52C865.725 1612.34 861.682 1624.78 853.597 1633.83C845.511 1642.89 834.563 1647.42 820.753 1647.42C816.267 1647.42 811.855 1646.58 807.517 1644.9C803.179 1643.22 799.889 1641.2 797.646 1638.84ZM800.125 1570.67L800.125 1625.38C800.125 1626.32 802.22 1627.87 806.411 1630.03C810.601 1632.18 813.788 1633.26 815.972 1633.26C827.422 1633.26 835.625 1630.51 840.583 1625.03C845.541 1619.54 848.019 1610.33 848.019 1597.4C848.019 1586.66 845.128 1578.28 839.344 1572.26C833.56 1566.24 825.769 1563.23 815.972 1563.23C813.906 1563.23 811.029 1564.12 807.34 1565.89C803.652 1567.66 801.247 1569.25 800.125 1570.67Z"/>
<path d="M901.668 1514.98C904.56 1514.98 907.024 1516 909.06 1518.04C911.096 1520.07 912.114 1522.51 912.114 1525.34C912.114 1528.23 911.096 1530.7 909.06 1532.73C907.024 1534.77 904.56 1535.79 901.668 1535.79C898.835 1535.79 896.401 1534.77 894.364 1532.73C892.328 1530.7 891.31 1528.23 891.31 1525.34C891.31 1522.45 892.313 1520 894.32 1517.99C896.327 1515.99 898.776 1514.98 901.668 1514.98ZM892.461 1645.65L892.461 1565L879.447 1565L879.447 1550.84L909.282 1550.84L909.282 1645.65L892.461 1645.65Z"/>
<path d="M929.82 1639.99L935.752 1624.05C945.136 1630.19 952.69 1633.26 958.415 1633.26C968.803 1633.26 973.996 1628.89 973.996 1620.16C973.996 1613.9 968.98 1608.53 958.946 1604.04C951.215 1600.5 946.006 1597.82 943.321 1595.99C940.636 1594.16 938.304 1592.08 936.327 1589.75C934.35 1587.42 932.875 1584.94 931.901 1582.31C930.927 1579.68 930.44 1576.87 930.44 1573.86C930.44 1566.07 933.273 1559.99 938.939 1555.62C944.605 1551.25 952.012 1549.07 961.16 1549.07C968.065 1549.07 976.77 1551.25 987.276 1555.62L982.495 1571.2C975.826 1565.89 969.127 1563.23 962.399 1563.23C958.386 1563.23 955.007 1564.18 952.262 1566.07C949.518 1567.95 948.146 1570.34 948.146 1573.24C948.146 1579.32 951.598 1583.92 958.504 1587.05L970.544 1592.54C977.921 1595.9 983.292 1599.74 986.656 1604.04C990.02 1608.35 991.702 1613.75 991.702 1620.25C991.702 1628.74 988.722 1635.4 982.761 1640.21C976.8 1645.02 968.537 1647.42 957.973 1647.42C947.998 1647.42 938.614 1644.95 929.82 1639.99Z"/>
<path d="M1015.43 1564.12L1004.45 1564.12L1004.45 1550.84L1015.43 1550.84L1015.43 1531.01L1032.25 1524.55L1032.25 1550.84L1058.28 1550.84L1058.28 1564.12L1032.25 1564.12L1032.25 1611.22C1032.25 1619.18 1033.59 1624.85 1036.28 1628.21C1038.96 1631.58 1043.28 1633.26 1049.25 1633.26C1053.55 1633.26 1058.01 1632.17 1062.61 1629.98L1065.09 1644.77C1058.13 1646.54 1050.49 1647.42 1042.16 1647.42C1034.67 1647.42 1028.34 1644.64 1023.17 1639.06C1018.01 1633.48 1015.43 1626.44 1015.43 1617.94L1015.43 1564.12Z"/>
<path d="M1153.27 1514.98C1156.16 1514.98 1158.62 1516 1160.66 1518.04C1162.7 1520.07 1163.71 1522.51 1163.71 1525.34C1163.71 1528.23 1162.7 1530.7 1160.66 1532.73C1158.62 1534.77 1156.16 1535.79 1153.27 1535.79C1150.43 1535.79 1148 1534.77 1145.96 1532.73C1143.93 1530.7 1142.91 1528.23 1142.91 1525.34C1142.91 1522.45 1143.91 1520 1145.92 1517.99C1147.93 1515.99 1150.38 1514.98 1153.27 1514.98ZM1144.06 1645.65L1144.06 1565L1131.05 1565L1131.05 1550.84L1160.88 1550.84L1160.88 1645.65L1144.06 1645.65Z"/>
<path d="M1245.96 1645.65L1245.96 1590.5C1245.96 1580.41 1244.44 1573.34 1241.4 1569.3C1238.36 1565.25 1233.27 1563.23 1226.13 1563.23C1222.29 1563.23 1218.28 1564.38 1214.09 1566.69C1209.9 1568.99 1206.68 1571.82 1204.44 1575.18L1204.44 1645.65L1187.62 1645.65L1187.62 1550.84L1199.13 1550.84L1204.44 1563.06C1209.99 1553.73 1219.04 1549.07 1231.62 1549.07C1252.39 1549.07 1262.78 1561.7 1262.78 1586.96L1262.78 1645.65L1245.96 1645.65Z"/>
<path d="M1345.02 1645.65L1345.02 1590.5C1345.02 1580.41 1343.5 1573.34 1340.46 1569.3C1337.42 1565.25 1332.33 1563.23 1325.19 1563.23C1321.35 1563.23 1317.34 1564.38 1313.15 1566.69C1308.96 1568.99 1305.74 1571.82 1303.5 1575.18L1303.5 1645.65L1286.68 1645.65L1286.68 1550.84L1298.19 1550.84L1303.5 1563.06C1309.05 1553.73 1318.11 1549.07 1330.68 1549.07C1351.45 1549.07 1361.84 1561.7 1361.84 1586.96L1361.84 1645.65L1345.02 1645.65Z"/>
<path d="M1465.6 1599.88L1397.25 1599.88C1397.25 1610.98 1400.29 1619.51 1406.37 1625.47C1411.74 1630.66 1418.65 1633.26 1427.09 1633.26C1436.71 1633.26 1444.73 1630.46 1451.17 1624.85L1458.25 1636.98C1455.65 1639.57 1451.67 1641.82 1446.3 1643.71C1439.57 1646.18 1432.07 1647.42 1423.81 1647.42C1411.89 1647.42 1401.77 1643.38 1393.45 1635.3C1384.18 1626.38 1379.55 1614.4 1379.55 1599.35C1379.55 1583.71 1384.3 1571.17 1393.8 1561.73C1402.3 1553.29 1412.36 1549.07 1423.99 1549.07C1437.5 1549.07 1448.1 1552.87 1455.77 1560.49C1463.21 1567.81 1466.93 1577.52 1466.93 1589.61C1466.93 1593.33 1466.48 1596.76 1465.6 1599.88ZM1424.79 1563.23C1417.29 1563.23 1411.01 1565.65 1405.93 1570.49C1401.09 1575.1 1398.35 1580.82 1397.7 1587.67L1450.19 1587.67C1450.19 1580.88 1448.07 1575.21 1443.82 1570.67C1439.16 1565.71 1432.81 1563.23 1424.79 1563.23Z"/>
<path d="M1536.16 1567.04C1532.5 1564.5 1528.81 1563.23 1525.09 1563.23C1519.13 1563.23 1513.92 1565.98 1509.46 1571.47C1505.01 1576.95 1502.78 1583.56 1502.78 1591.3L1502.78 1645.65L1485.96 1645.65L1485.96 1550.84L1502.78 1550.84L1502.78 1565.98C1508.92 1554.7 1518.04 1549.07 1530.14 1549.07C1533.15 1549.07 1537.48 1549.6 1543.15 1550.66L1536.16 1567.04Z"/>
<path d="M1613.53 1645.65L1613.53 1586.07C1613.53 1578.99 1611.79 1573.41 1608.31 1569.34C1604.82 1565.27 1599.93 1563.23 1593.61 1563.23C1589.54 1563.23 1585.45 1564.43 1581.35 1566.82C1577.25 1569.21 1574.11 1572 1571.92 1575.18L1571.92 1645.65L1555.1 1645.65L1555.1 1511.97L1571.92 1511.97L1571.92 1561.29C1574.16 1557.8 1577.78 1554.9 1582.77 1552.57C1587.75 1550.23 1592.9 1549.07 1598.21 1549.07C1608.25 1549.07 1616.11 1552.37 1621.81 1558.98C1627.5 1565.59 1630.35 1574.62 1630.35 1586.07L1630.35 1645.65L1613.53 1645.65Z"/>
<path d="M1707.72 1634.76C1701 1643.2 1690.7 1647.42 1676.83 1647.42C1669.39 1647.42 1662.94 1644.72 1657.48 1639.32C1652.03 1633.92 1649.3 1627.21 1649.3 1619.18C1649.3 1609.56 1653.5 1601.43 1661.91 1594.79C1670.32 1588.15 1681.05 1584.83 1694.09 1584.83C1697.63 1584.83 1701.65 1585.6 1706.13 1587.14C1706.13 1571.79 1699.29 1564.12 1685.59 1564.12C1675.09 1564.12 1667 1566.95 1661.34 1572.62L1654.25 1558.54C1657.44 1555.94 1661.85 1553.72 1667.49 1551.86C1673.12 1550 1678.51 1549.07 1683.65 1549.07C1697.4 1549.07 1707.39 1552.2 1713.61 1558.45C1719.84 1564.71 1722.95 1574.65 1722.95 1588.29L1722.95 1622.28C1722.95 1630.6 1725.43 1636.15 1730.39 1638.93L1730.39 1647.34C1723.54 1647.34 1718.42 1646.36 1715.03 1644.41C1711.63 1642.47 1709.2 1639.25 1707.72 1634.76ZM1706.13 1599.09C1700.82 1597.91 1697.1 1597.32 1694.98 1597.32C1686.48 1597.32 1679.54 1599.5 1674.17 1603.87C1668.8 1608.24 1666.12 1613.4 1666.12 1619.36C1666.12 1629.22 1671.93 1634.14 1683.56 1634.14C1692.06 1634.14 1699.58 1630.1 1706.13 1622.02L1706.13 1599.09Z"/>
<path d="M1750.75 1618.83L1750.75 1511.97L1767.57 1511.97L1767.57 1616C1767.57 1621.07 1769.03 1625.07 1771.95 1627.99C1774.87 1630.91 1778.7 1632.37 1783.42 1632.37L1783.42 1647.42C1761.64 1647.42 1750.75 1637.89 1750.75 1618.83Z"/>
<path d="M1817.24 1638.84L1811.3 1647.42L1802.89 1647.42L1802.89 1511.97L1819.71 1511.97L1819.71 1557.83C1821.31 1555.65 1824.3 1553.64 1828.7 1551.81C1833.1 1549.98 1837.42 1549.07 1841.67 1549.07C1854.65 1549.07 1865.17 1553.55 1873.23 1562.52C1881.29 1571.5 1885.31 1582.83 1885.31 1596.52C1885.31 1612.34 1881.27 1624.78 1873.19 1633.83C1865.1 1642.89 1854.15 1647.42 1840.34 1647.42C1835.86 1647.42 1831.44 1646.58 1827.11 1644.9C1822.77 1643.22 1819.48 1641.2 1817.24 1638.84ZM1819.71 1570.67L1819.71 1625.38C1819.71 1626.32 1821.81 1627.87 1826 1630.03C1830.19 1632.18 1833.38 1633.26 1835.56 1633.26C1847.01 1633.26 1855.21 1630.51 1860.17 1625.03C1865.13 1619.54 1867.61 1610.33 1867.61 1597.4C1867.61 1586.66 1864.72 1578.28 1858.93 1572.26C1853.15 1566.24 1845.36 1563.23 1835.56 1563.23C1833.5 1563.23 1830.62 1564.12 1826.93 1565.89C1823.24 1567.66 1820.84 1569.25 1819.71 1570.67Z"/>
<path d="M1992.7 1647.42L1988.27 1647.42L1947.64 1550.57L1966.05 1550.57L1991.11 1616.97L2016.69 1550.57L2034.31 1550.57L1992.7 1647.42Z"/>
<path d="M2041.13 1598.02C2041.13 1583.39 2045.06 1571.57 2052.94 1562.57C2060.82 1553.57 2071.2 1549.07 2084.06 1549.07C2097.64 1549.07 2108.17 1553.39 2115.67 1562.04C2123.16 1570.68 2126.91 1582.68 2126.91 1598.02C2126.91 1613.31 2123.07 1625.37 2115.4 1634.19C2107.73 1643.01 2097.28 1647.42 2084.06 1647.42C2070.55 1647.42 2060.01 1642.97 2052.46 1634.06C2044.9 1625.14 2041.13 1613.13 2041.13 1598.02ZM2058.83 1598.02C2058.83 1621.81 2067.24 1633.7 2084.06 1633.7C2091.91 1633.7 2098.06 1630.51 2102.52 1624.14C2106.98 1617.77 2109.2 1609.06 2109.2 1598.02C2109.2 1574.53 2100.82 1562.79 2084.06 1562.79C2076.39 1562.79 2070.27 1565.92 2065.69 1572.17C2061.12 1578.43 2058.83 1587.05 2058.83 1598.02Z"/>
<path d="M2202.96 1645.65L2202.96 1590.5C2202.96 1580.41 2201.44 1573.34 2198.4 1569.3C2195.36 1565.25 2190.27 1563.23 2183.13 1563.23C2179.29 1563.23 2175.28 1564.38 2171.09 1566.69C2166.9 1568.99 2163.68 1571.82 2161.44 1575.18L2161.44 1645.65L2144.62 1645.65L2144.62 1550.84L2156.12 1550.84L2161.44 1563.06C2166.98 1553.73 2176.04 1549.07 2188.61 1549.07C2209.39 1549.07 2219.78 1561.7 2219.78 1586.96L2219.78 1645.65L2202.96 1645.65Z"/>
<path d="M617.401 1856.18L601.997 1772.87L573.668 1857.95L569.242 1857.95L540.115 1772.87L525.066 1856.18L508.245 1856.18L532.502 1726.48L540.558 1726.48L571.455 1821.12L599.961 1726.48L607.929 1726.48L634.222 1856.18L617.401 1856.18Z"/>
<path d="M664.41 1725.51C667.302 1725.51 669.766 1726.53 671.802 1728.56C673.839 1730.6 674.857 1733.03 674.857 1735.87C674.857 1738.76 673.839 1741.22 671.802 1743.26C669.766 1745.29 667.302 1746.31 664.41 1746.31C661.577 1746.31 659.143 1745.29 657.107 1743.26C655.07 1741.22 654.052 1738.76 654.052 1735.87C654.052 1732.97 655.056 1730.52 657.062 1728.52C659.069 1726.51 661.518 1725.51 664.41 1725.51ZM655.203 1856.18L655.203 1775.53L642.189 1775.53L642.189 1761.36L672.024 1761.36L672.024 1856.18L655.203 1856.18Z"/>
<path d="M757.1 1856.18L757.1 1801.02C757.1 1790.93 755.58 1783.86 752.541 1779.82C749.501 1775.78 744.411 1773.76 737.27 1773.76C733.433 1773.76 729.42 1774.91 725.23 1777.21C721.039 1779.51 717.823 1782.34 715.58 1785.71L715.58 1856.18L698.759 1856.18L698.759 1761.36L710.268 1761.36L715.58 1773.58C721.128 1764.25 730.187 1759.59 742.758 1759.59C763.533 1759.59 773.921 1772.22 773.921 1797.48L773.921 1856.18L757.1 1856.18Z"/>
<path d="M813.759 1761.36L813.759 1821.83C813.759 1836.46 820.103 1843.78 832.792 1843.78C838.34 1843.78 843.416 1842.19 848.019 1839C852.623 1835.81 855.662 1832.13 857.138 1827.94L857.138 1761.36L873.958 1761.36L873.958 1856.18L857.138 1856.18L857.138 1843.07C855.249 1846.79 851.457 1850.2 845.762 1853.3C840.067 1856.4 834.504 1857.95 829.074 1857.95C818.687 1857.95 810.734 1854.97 805.216 1849.01C799.697 1843.04 796.938 1834.58 796.938 1823.6L796.938 1761.36L813.759 1761.36Z"/>
<path d="M902.907 1774.64L891.93 1774.64L891.93 1761.36L902.907 1761.36L902.907 1741.53L919.728 1735.07L919.728 1761.36L945.756 1761.36L945.756 1774.64L919.728 1774.64L919.728 1821.74C919.728 1829.71 921.071 1835.37 923.756 1838.74C926.441 1842.1 930.765 1843.78 936.726 1843.78C941.034 1843.78 945.49 1842.69 950.093 1840.51L952.572 1855.29C945.608 1857.06 937.965 1857.95 929.643 1857.95C922.148 1857.95 915.818 1855.16 910.654 1849.58C905.49 1844 902.907 1836.97 902.907 1828.47L902.907 1774.64Z"/>
<path d="M1048.63 1810.41L980.282 1810.41C980.282 1821.5 983.321 1830.03 989.4 1835.99C994.771 1841.19 1001.68 1843.78 1010.12 1843.78C1019.74 1843.78 1027.76 1840.98 1034.2 1835.37L1041.28 1847.5C1038.68 1850.1 1034.7 1852.34 1029.33 1854.23C1022.6 1856.71 1015.1 1857.95 1006.84 1857.95C994.919 1857.95 984.797 1853.9 976.475 1845.82C967.209 1836.91 962.576 1824.93 962.576 1809.88C962.576 1794.24 967.327 1781.69 976.829 1772.25C985.328 1763.81 995.391 1759.59 1007.02 1759.59C1020.53 1759.59 1031.13 1763.4 1038.8 1771.01C1046.24 1778.33 1049.95 1788.04 1049.95 1800.14C1049.95 1803.86 1049.51 1807.28 1048.63 1810.41ZM1007.81 1773.76C1000.32 1773.76 994.033 1776.18 988.958 1781.01C984.118 1785.62 981.374 1791.34 980.724 1798.19L1033.22 1798.19C1033.22 1791.4 1031.1 1785.74 1026.85 1781.19C1022.19 1776.23 1015.84 1773.76 1007.81 1773.76Z"/>
<path d="M1126 1856.18L1126 1801.02C1126 1790.93 1124.48 1783.86 1121.44 1779.82C1118.4 1775.78 1113.31 1773.76 1106.17 1773.76C1102.33 1773.76 1098.32 1774.91 1094.13 1777.21C1089.94 1779.51 1086.72 1782.34 1084.48 1785.71L1084.48 1856.18L1067.66 1856.18L1067.66 1761.36L1079.17 1761.36L1084.48 1773.58C1090.03 1764.25 1099.09 1759.59 1111.66 1759.59C1132.43 1759.59 1142.82 1772.22 1142.82 1797.48L1142.82 1856.18L1126 1856.18Z"/>
<path d="M1274.91 1845.29C1268.18 1853.73 1257.88 1857.95 1244.01 1857.95C1236.57 1857.95 1230.13 1855.25 1224.67 1849.85C1219.21 1844.45 1216.48 1837.73 1216.48 1829.71C1216.48 1820.09 1220.68 1811.96 1229.09 1805.32C1237.5 1798.68 1248.23 1795.36 1261.27 1795.36C1264.81 1795.36 1268.83 1796.12 1273.31 1797.66C1273.31 1782.31 1266.47 1774.64 1252.77 1774.64C1242.27 1774.64 1234.18 1777.47 1228.52 1783.14L1221.43 1769.06C1224.62 1766.47 1229.03 1764.24 1234.67 1762.38C1240.31 1760.52 1245.69 1759.59 1250.83 1759.59C1264.58 1759.59 1274.57 1762.72 1280.79 1768.98C1287.02 1775.23 1290.13 1785.18 1290.13 1798.81L1290.13 1832.8C1290.13 1841.13 1292.61 1846.67 1297.57 1849.45L1297.57 1857.86C1290.72 1857.86 1285.6 1856.88 1282.21 1854.94C1278.82 1852.99 1276.38 1849.77 1274.91 1845.29ZM1273.31 1809.61C1268 1808.43 1264.28 1807.84 1262.16 1807.84C1253.66 1807.84 1246.72 1810.02 1241.35 1814.39C1235.98 1818.76 1233.3 1823.92 1233.3 1829.88C1233.3 1839.74 1239.11 1844.67 1250.74 1844.67C1259.24 1844.67 1266.76 1840.62 1273.31 1832.54L1273.31 1809.61Z"/>
<path d="M1332.54 1761.36L1332.54 1821.83C1332.54 1836.46 1338.88 1843.78 1351.57 1843.78C1357.12 1843.78 1362.2 1842.19 1366.8 1839C1371.4 1835.81 1374.44 1832.13 1375.92 1827.94L1375.92 1761.36L1392.74 1761.36L1392.74 1856.18L1375.92 1856.18L1375.92 1843.07C1374.03 1846.79 1370.24 1850.2 1364.54 1853.3C1358.85 1856.4 1353.28 1857.95 1347.85 1857.95C1337.47 1857.95 1329.51 1854.97 1324 1849.01C1318.48 1843.04 1315.72 1834.58 1315.72 1823.6L1315.72 1761.36L1332.54 1761.36Z"/>
<path d="M1409.47 1850.51L1415.4 1834.58C1424.79 1840.71 1432.34 1843.78 1438.07 1843.78C1448.45 1843.78 1453.65 1839.41 1453.65 1830.68C1453.65 1824.42 1448.63 1819.05 1438.6 1814.57C1430.87 1811.03 1425.66 1808.34 1422.97 1806.51C1420.29 1804.68 1417.95 1802.6 1415.98 1800.27C1414 1797.94 1412.52 1795.46 1411.55 1792.83C1410.58 1790.21 1410.09 1787.39 1410.09 1784.38C1410.09 1776.59 1412.92 1770.51 1418.59 1766.14C1424.25 1761.77 1431.66 1759.59 1440.81 1759.59C1447.72 1759.59 1456.42 1761.77 1466.93 1766.14L1462.15 1781.72C1455.48 1776.41 1448.78 1773.76 1442.05 1773.76C1438.04 1773.76 1434.66 1774.7 1431.91 1776.59C1429.17 1778.48 1427.8 1780.87 1427.8 1783.76C1427.8 1789.84 1431.25 1794.44 1438.15 1797.57L1450.19 1803.06C1457.57 1806.42 1462.94 1810.26 1466.31 1814.57C1469.67 1818.88 1471.35 1824.28 1471.35 1830.77C1471.35 1839.27 1468.37 1845.92 1462.41 1850.73C1456.45 1855.54 1448.19 1857.95 1437.62 1857.95C1427.65 1857.95 1418.26 1855.47 1409.47 1850.51Z"/>
<path d="M1603.79 1856.09L1603.79 1849.09C1597.95 1854.94 1589.45 1857.86 1578.3 1857.86C1566.43 1857.86 1556.81 1853.61 1549.43 1845.11C1542.06 1836.61 1538.37 1825.28 1538.37 1811.11C1538.37 1796.89 1542.62 1784.75 1551.12 1774.69C1559.62 1764.62 1569.74 1759.59 1581.48 1759.59C1591.28 1759.59 1598.72 1761.89 1603.79 1766.5L1603.79 1722.5L1620.61 1722.5L1620.61 1856.09L1603.79 1856.09ZM1603.79 1783.32C1599.54 1776.94 1593.73 1773.76 1586.35 1773.76C1577.32 1773.76 1570.02 1777.12 1564.44 1783.85C1558.86 1790.58 1556.07 1799.13 1556.07 1809.52C1556.07 1832.36 1566.46 1843.78 1587.24 1843.78C1589.89 1843.78 1593.08 1842.94 1596.8 1841.26C1600.52 1839.58 1602.85 1837.79 1603.79 1835.9L1603.79 1783.32Z"/>
<path d="M1724.55 1810.41L1656.2 1810.41C1656.2 1821.5 1659.24 1830.03 1665.32 1835.99C1670.69 1841.19 1677.6 1843.78 1686.04 1843.78C1695.66 1843.78 1703.68 1840.98 1710.12 1835.37L1717.2 1847.5C1714.6 1850.1 1710.62 1852.34 1705.25 1854.23C1698.52 1856.71 1691.02 1857.95 1682.76 1857.95C1670.84 1857.95 1660.72 1853.9 1652.39 1845.82C1643.13 1836.91 1638.5 1824.93 1638.5 1809.88C1638.5 1794.24 1643.25 1781.69 1652.75 1772.25C1661.25 1763.81 1671.31 1759.59 1682.94 1759.59C1696.45 1759.59 1707.05 1763.4 1714.72 1771.01C1722.16 1778.33 1725.87 1788.04 1725.87 1800.14C1725.87 1803.86 1725.43 1807.28 1724.55 1810.41ZM1683.73 1773.76C1676.24 1773.76 1669.95 1776.18 1664.88 1781.01C1660.04 1785.62 1657.29 1791.34 1656.64 1798.19L1709.14 1798.19C1709.14 1791.4 1707.02 1785.74 1702.77 1781.19C1698.1 1776.23 1691.76 1773.76 1683.73 1773.76Z"/>
<path d="M1853.36 1856.18L1853.36 1796.15C1853.36 1781.22 1846.89 1773.76 1833.97 1773.76C1829.89 1773.76 1826.09 1775.01 1822.55 1777.52C1819.01 1780.03 1816.59 1782.87 1815.29 1786.06L1815.29 1856.18L1798.47 1856.18L1798.47 1788.81C1798.47 1784.14 1796.71 1780.47 1793.2 1777.78C1789.69 1775.1 1785.04 1773.76 1779.26 1773.76C1775.89 1773.76 1772.31 1775.05 1768.5 1777.65C1764.69 1780.25 1761.99 1783.11 1760.4 1786.24L1760.4 1856.18L1743.58 1856.18L1743.58 1761.36L1754.56 1761.36L1760.13 1772.34C1766.63 1763.84 1774.74 1759.59 1784.48 1759.59C1798.05 1759.59 1807.56 1763.81 1812.99 1772.25C1814.87 1768.65 1818.39 1765.64 1823.52 1763.22C1828.66 1760.8 1833.94 1759.59 1839.37 1759.59C1849.16 1759.59 1856.75 1762.5 1862.12 1768.31C1867.49 1774.12 1870.18 1782.28 1870.18 1792.79L1870.18 1856.18L1853.36 1856.18Z"/>
<path d="M2022 1856.18L1987.39 1800.49C1983.43 1800.49 1977.18 1800.2 1968.62 1799.61L1968.62 1856.18L1950.91 1856.18L1950.91 1726.48C1951.56 1726.48 1956.15 1726.26 1964.68 1725.82C1973.21 1725.37 1979.42 1725.15 1983.32 1725.15C2014.48 1725.15 2030.06 1737.55 2030.06 1762.34C2030.06 1770.48 2027.55 1777.81 2022.53 1784.33C2017.52 1790.86 2011.56 1794.91 2004.65 1796.51L2042.28 1856.18L2022 1856.18ZM1968.62 1742.42L1968.62 1784.56C1972.87 1785.15 1977 1785.44 1981.01 1785.44C1991.64 1785.44 1999.37 1783.73 2004.21 1780.31C2009.05 1776.88 2011.47 1770.78 2011.47 1761.98C2011.47 1754.72 2008.87 1749.5 2003.68 1746.31C1998.48 1743.12 1990.28 1741.53 1979.07 1741.53C1977.3 1741.53 1973.81 1741.83 1968.62 1742.42Z"/>
<path d="M2107.79 1845.29C2101.06 1853.73 2090.76 1857.95 2076.89 1857.95C2069.45 1857.95 2063.01 1855.25 2057.55 1849.85C2052.09 1844.45 2049.36 1837.73 2049.36 1829.71C2049.36 1820.09 2053.56 1811.96 2061.97 1805.32C2070.38 1798.68 2081.11 1795.36 2094.15 1795.36C2097.7 1795.36 2101.71 1796.12 2106.19 1797.66C2106.19 1782.31 2099.35 1774.64 2085.66 1774.64C2075.15 1774.64 2067.06 1777.47 2061.4 1783.14L2054.32 1769.06C2057.5 1766.47 2061.91 1764.24 2067.55 1762.38C2073.19 1760.52 2078.57 1759.59 2083.71 1759.59C2097.46 1759.59 2107.45 1762.72 2113.67 1768.98C2119.9 1775.23 2123.01 1785.18 2123.01 1798.81L2123.01 1832.8C2123.01 1841.13 2125.49 1846.67 2130.45 1849.45L2130.45 1857.86C2123.6 1857.86 2118.48 1856.88 2115.09 1854.94C2111.7 1852.99 2109.26 1849.77 2107.79 1845.29ZM2106.19 1809.61C2100.88 1808.43 2097.16 1807.84 2095.04 1807.84C2086.54 1807.84 2079.61 1810.02 2074.24 1814.39C2068.86 1818.76 2066.18 1823.92 2066.18 1829.88C2066.18 1839.74 2071.99 1844.67 2083.62 1844.67C2092.12 1844.67 2099.64 1840.62 2106.19 1832.54L2106.19 1809.61Z"/>
<path d="M2165.42 1761.36L2165.42 1821.83C2165.42 1836.46 2171.76 1843.78 2184.45 1843.78C2190 1843.78 2195.08 1842.19 2199.68 1839C2204.28 1835.81 2207.32 1832.13 2208.8 1827.94L2208.8 1761.36L2225.62 1761.36L2225.62 1856.18L2208.8 1856.18L2208.8 1843.07C2206.91 1846.79 2203.12 1850.2 2197.42 1853.3C2191.73 1856.4 2186.17 1857.95 2180.74 1857.95C2170.35 1857.95 2162.4 1854.97 2156.88 1849.01C2151.36 1843.04 2148.6 1834.58 2148.6 1823.6L2148.6 1761.36L2165.42 1761.36Z"/>
<path d="M2358.32 1856.18L2358.32 1796.15C2358.32 1781.22 2351.86 1773.76 2338.94 1773.76C2334.86 1773.76 2331.06 1775.01 2327.52 1777.52C2323.98 1780.03 2321.56 1782.87 2320.26 1786.06L2320.26 1856.18L2303.44 1856.18L2303.44 1788.81C2303.44 1784.14 2301.68 1780.47 2298.17 1777.78C2294.66 1775.1 2290.01 1773.76 2284.23 1773.76C2280.86 1773.76 2277.28 1775.05 2273.47 1777.65C2269.66 1780.25 2266.96 1783.11 2265.37 1786.24L2265.37 1856.18L2248.55 1856.18L2248.55 1761.36L2259.53 1761.36L2265.1 1772.34C2271.6 1763.84 2279.71 1759.59 2289.45 1759.59C2303.02 1759.59 2312.53 1763.81 2317.96 1772.25C2319.84 1768.65 2323.36 1765.64 2328.49 1763.22C2333.63 1760.8 2338.91 1759.59 2344.34 1759.59C2354.13 1759.59 2361.72 1762.5 2367.09 1768.31C2372.46 1774.12 2375.15 1782.28 2375.15 1792.79L2375.15 1856.18L2358.32 1856.18Z"/>
<path d="M598.279 2020.93L529.935 2020.93C529.935 2032.03 532.974 2040.55 539.053 2046.51C544.424 2051.71 551.329 2054.3 559.769 2054.3C569.389 2054.3 577.416 2051.5 583.849 2045.89L590.931 2058.02C588.334 2060.62 584.35 2062.86 578.98 2064.75C572.252 2067.23 564.756 2068.47 556.493 2068.47C544.571 2068.47 534.45 2064.43 526.128 2056.34C516.862 2047.43 512.229 2035.45 512.229 2020.4C512.229 2004.76 516.98 1992.22 526.482 1982.77C534.981 1974.33 545.044 1970.11 556.67 1970.11C570.186 1970.11 580.78 1973.92 588.452 1981.53C595.889 1988.85 599.607 1998.56 599.607 2010.66C599.607 2014.38 599.164 2017.8 598.279 2020.93ZM557.467 1984.28C549.972 1984.28 543.686 1986.7 538.61 1991.54C533.771 1996.14 531.026 2001.87 530.377 2008.71L582.875 2008.71C582.875 2001.93 580.75 1996.26 576.501 1991.71C571.838 1986.76 565.494 1984.28 557.467 1984.28Z"/>
<path d="M675.653 2066.7L675.653 2011.55C675.653 2001.45 674.134 1994.39 671.094 1990.34C668.055 1986.3 662.964 1984.28 655.823 1984.28C651.987 1984.28 647.973 1985.43 643.783 1987.73C639.593 1990.03 636.376 1992.87 634.133 1996.23L634.133 2066.7L617.313 2066.7L617.313 1971.88L628.822 1971.88L634.133 1984.1C639.681 1974.78 648.741 1970.11 661.312 1970.11C682.087 1970.11 692.474 1982.74 692.474 2008L692.474 2066.7L675.653 2066.7Z"/>
<path d="M722.397 1985.16L711.419 1985.16L711.419 1971.88L722.397 1971.88L722.397 1952.05L739.217 1945.59L739.217 1971.88L765.245 1971.88L765.245 1985.16L739.217 1985.16L739.217 2032.26C739.217 2040.23 740.56 2045.89 743.245 2049.26C745.931 2052.62 750.254 2054.3 756.215 2054.3C760.523 2054.3 764.979 2053.21 769.583 2051.03L772.062 2065.81C765.097 2067.58 757.454 2068.47 749.133 2068.47C741.637 2068.47 735.307 2065.68 730.143 2060.1C724.979 2054.53 722.397 2047.49 722.397 2038.99L722.397 1985.16Z"/>
<path d="M849.524 2066.7L819.779 2019.25L805.083 2034.39L805.083 2066.7L788.262 2066.7L788.262 1933.02L805.083 1933.02L805.083 2015.97L841.38 1971.88L861.033 1971.88L830.668 2007.92L867.761 2066.7L849.524 2066.7Z"/>
<path d="M873.516 2019.07C873.516 2004.43 877.455 1992.61 885.334 1983.61C893.214 1974.61 903.586 1970.11 916.452 1970.11C930.027 1970.11 940.562 1974.44 948.057 1983.08C955.553 1991.73 959.3 2003.73 959.3 2019.07C959.3 2034.36 955.464 2046.41 947.792 2055.23C940.119 2064.06 929.673 2068.47 916.452 2068.47C902.937 2068.47 892.402 2064.01 884.848 2055.1C877.293 2046.19 873.516 2034.18 873.516 2019.07ZM891.222 2019.07C891.222 2042.86 899.632 2054.75 916.452 2054.75C924.302 2054.75 930.455 2051.56 934.911 2045.19C939.367 2038.81 941.595 2030.11 941.595 2019.07C941.595 1995.58 933.214 1983.84 916.452 1983.84C908.78 1983.84 902.657 1986.96 898.083 1993.22C893.509 1999.48 891.222 2008.09 891.222 2019.07Z"/>
<path d="M1086.78 2066.7L1086.78 2006.68C1086.78 1991.74 1080.32 1984.28 1067.39 1984.28C1063.32 1984.28 1059.52 1985.53 1055.97 1988.04C1052.43 1990.55 1050.01 1993.4 1048.71 1996.58L1048.71 2066.7L1031.89 2066.7L1031.89 1999.33C1031.89 1994.67 1030.14 1990.99 1026.63 1988.31C1023.12 1985.62 1018.47 1984.28 1012.68 1984.28C1009.32 1984.28 1005.73 1985.58 1001.93 1988.17C998.12 1990.77 995.42 1993.63 993.827 1996.76L993.827 2066.7L977.006 2066.7L977.006 1971.88L987.984 1971.88L993.561 1982.86C1000.05 1974.36 1008.17 1970.11 1017.91 1970.11C1031.48 1970.11 1040.98 1974.33 1046.41 1982.77C1048.3 1979.17 1051.81 1976.16 1056.95 1973.74C1062.08 1971.32 1067.36 1970.11 1072.79 1970.11C1082.59 1970.11 1090.18 1973.02 1095.55 1978.83C1100.92 1984.65 1103.6 1992.81 1103.6 2003.31L1103.6 2066.7L1086.78 2066.7Z"/>
<path d="M1237.28 2066.7L1237.28 2006.68C1237.28 1991.74 1230.82 1984.28 1217.89 1984.28C1213.82 1984.28 1210.01 1985.53 1206.47 1988.04C1202.93 1990.55 1200.51 1993.4 1199.21 1996.58L1199.21 2066.7L1182.39 2066.7L1182.39 1999.33C1182.39 1994.67 1180.64 1990.99 1177.13 1988.31C1173.61 1985.62 1168.97 1984.28 1163.18 1984.28C1159.82 1984.28 1156.23 1985.58 1152.43 1988.17C1148.62 1990.77 1145.92 1993.63 1144.33 1996.76L1144.33 2066.7L1127.51 2066.7L1127.51 1971.88L1138.48 1971.88L1144.06 1982.86C1150.55 1974.36 1158.67 1970.11 1168.41 1970.11C1181.98 1970.11 1191.48 1974.33 1196.91 1982.77C1198.8 1979.17 1202.31 1976.16 1207.45 1973.74C1212.58 1971.32 1217.86 1970.11 1223.29 1970.11C1233.09 1970.11 1240.68 1973.02 1246.05 1978.83C1251.42 1984.65 1254.1 1992.81 1254.1 2003.31L1254.1 2066.7L1237.28 2066.7Z"/>
<path d="M1357.86 2020.93L1289.51 2020.93C1289.51 2032.03 1292.55 2040.55 1298.63 2046.51C1304 2051.71 1310.91 2054.3 1319.35 2054.3C1328.97 2054.3 1336.99 2051.5 1343.43 2045.89L1350.51 2058.02C1347.91 2060.62 1343.93 2062.86 1338.56 2064.75C1331.83 2067.23 1324.34 2068.47 1316.07 2068.47C1304.15 2068.47 1294.03 2064.43 1285.71 2056.34C1276.44 2047.43 1271.81 2035.45 1271.81 2020.4C1271.81 2004.76 1276.56 1992.22 1286.06 1982.77C1294.56 1974.33 1304.62 1970.11 1316.25 1970.11C1329.76 1970.11 1340.36 1973.92 1348.03 1981.53C1355.47 1988.85 1359.19 1998.56 1359.19 2010.66C1359.19 2014.38 1358.74 2017.8 1357.86 2020.93ZM1317.05 1984.28C1309.55 1984.28 1303.27 1986.7 1298.19 1991.54C1293.35 1996.14 1290.61 2001.87 1289.96 2008.71L1342.45 2008.71C1342.45 2001.93 1340.33 1996.26 1336.08 1991.71C1331.42 1986.76 1325.07 1984.28 1317.05 1984.28Z"/>
<path d="M1435.23 2066.7L1435.23 2011.55C1435.23 2001.45 1433.71 1994.39 1430.67 1990.34C1427.63 1986.3 1422.54 1984.28 1415.4 1984.28C1411.57 1984.28 1407.55 1985.43 1403.36 1987.73C1399.17 1990.03 1395.96 1992.87 1393.71 1996.23L1393.71 2066.7L1376.89 2066.7L1376.89 1971.88L1388.4 1971.88L1393.71 1984.1C1399.26 1974.78 1408.32 1970.11 1420.89 1970.11C1441.67 1970.11 1452.05 1982.74 1452.05 2008L1452.05 2066.7L1435.23 2066.7Z"/>
<path d="M1495.34 2041.82C1499 2041.82 1502.13 2043.12 1504.73 2045.72C1507.32 2048.31 1508.62 2051.44 1508.62 2055.1C1508.62 2058.76 1507.32 2061.9 1504.73 2064.53C1502.13 2067.16 1499 2068.47 1495.34 2068.47C1491.68 2068.47 1488.56 2067.16 1485.96 2064.53C1483.36 2061.9 1482.06 2058.76 1482.06 2055.1C1482.06 2051.44 1483.36 2048.31 1485.96 2045.72C1488.56 2043.12 1491.68 2041.82 1495.34 2041.82Z"/>
<path d="M1688.34 1946.03L1680.99 1960.64C1672.08 1954.03 1663.34 1950.73 1654.78 1950.73C1641.21 1950.73 1630.5 1955.51 1622.65 1965.07C1614.8 1974.63 1610.87 1987.29 1610.87 2003.05C1610.87 2018.04 1614.73 2030.11 1622.43 2039.25C1630.13 2048.4 1640.62 2052.98 1653.9 2052.98C1663.34 2052.98 1670.99 2050.14 1676.83 2044.48L1676.83 2014.11L1658.86 2014.11L1658.86 1999.06L1694.53 1999.06L1694.53 2055.54C1689.81 2059.56 1683.23 2062.79 1674.79 2065.24C1666.35 2067.69 1658.15 2068.91 1650.18 2068.91C1632.3 2068.91 1618.18 2062.85 1607.82 2050.72C1597.46 2038.59 1592.28 2022.46 1592.28 2002.34C1592.28 1982.27 1597.96 1966 1609.32 1953.51C1620.69 1941.03 1636.02 1934.79 1655.32 1934.79C1668.83 1934.79 1679.84 1938.54 1688.34 1946.03Z"/>
<path d="M1735.7 1971.88L1735.7 2032.35C1735.7 2046.99 1742.04 2054.3 1754.73 2054.3C1760.28 2054.3 1765.36 2052.71 1769.96 2049.52C1774.56 2046.34 1777.6 2042.65 1779.08 2038.46L1779.08 1971.88L1795.9 1971.88L1795.9 2066.7L1779.08 2066.7L1779.08 2053.6C1777.19 2057.31 1773.4 2060.72 1767.7 2063.82C1762.01 2066.92 1756.45 2068.47 1751.02 2068.47C1740.63 2068.47 1732.68 2065.49 1727.16 2059.53C1721.64 2053.57 1718.88 2045.1 1718.88 2034.12L1718.88 1971.88L1735.7 1971.88Z"/>
<path d="M1824.85 1985.16L1813.87 1985.16L1813.87 1971.88L1824.85 1971.88L1824.85 1952.05L1841.67 1945.59L1841.67 1971.88L1867.7 1971.88L1867.7 1985.16L1841.67 1985.16L1841.67 2032.26C1841.67 2040.23 1843.01 2045.89 1845.7 2049.26C1848.38 2052.62 1852.71 2054.3 1858.67 2054.3C1862.98 2054.3 1867.43 2053.21 1872.03 2051.03L1874.51 2065.81C1867.55 2067.58 1859.91 2068.47 1851.58 2068.47C1844.09 2068.47 1837.76 2065.68 1832.6 2060.1C1827.43 2054.53 1824.85 2047.49 1824.85 2038.99L1824.85 1985.16Z"/>
<path d="M1970.57 2020.93L1902.22 2020.93C1902.22 2032.03 1905.26 2040.55 1911.34 2046.51C1916.71 2051.71 1923.62 2054.3 1932.06 2054.3C1941.68 2054.3 1949.7 2051.5 1956.14 2045.89L1963.22 2058.02C1960.62 2060.62 1956.64 2062.86 1951.27 2064.75C1944.54 2067.23 1937.04 2068.47 1928.78 2068.47C1916.86 2068.47 1906.74 2064.43 1898.42 2056.34C1889.15 2047.43 1884.52 2035.45 1884.52 2020.4C1884.52 2004.76 1889.27 1992.22 1898.77 1982.77C1907.27 1974.33 1917.33 1970.11 1928.96 1970.11C1942.47 1970.11 1953.07 1973.92 1960.74 1981.53C1968.18 1988.85 1971.9 1998.56 1971.9 2010.66C1971.9 2014.38 1971.45 2017.8 1970.57 2020.93ZM1929.76 1984.28C1922.26 1984.28 1915.97 1986.7 1910.9 1991.54C1906.06 1996.14 1903.32 2001.87 1902.67 2008.71L1955.16 2008.71C1955.16 2001.93 1953.04 1996.26 1948.79 1991.71C1944.13 1986.76 1937.78 1984.28 1929.76 1984.28Z"/>
<path d="M2045.55 2066.7L2045.55 1937L2063.26 1937L2063.26 2050.76L2121.86 2050.76L2121.86 2066.7L2045.55 2066.7Z"/>
<path d="M2215.88 2020.93L2147.54 2020.93C2147.54 2032.03 2150.58 2040.55 2156.66 2046.51C2162.03 2051.71 2168.93 2054.3 2177.37 2054.3C2186.99 2054.3 2195.02 2051.5 2201.45 2045.89L2208.53 2058.02C2205.94 2060.62 2201.95 2062.86 2196.58 2064.75C2189.85 2067.23 2182.36 2068.47 2174.1 2068.47C2162.17 2068.47 2152.05 2064.43 2143.73 2056.34C2134.46 2047.43 2129.83 2035.45 2129.83 2020.4C2129.83 2004.76 2134.58 1992.22 2144.08 1982.77C2152.58 1974.33 2162.65 1970.11 2174.27 1970.11C2187.79 1970.11 2198.38 1973.92 2206.05 1981.53C2213.49 1988.85 2217.21 1998.56 2217.21 2010.66C2217.21 2014.38 2216.77 2017.8 2215.88 2020.93ZM2175.07 1984.28C2167.57 1984.28 2161.29 1986.7 2156.21 1991.54C2151.37 1996.14 2148.63 2001.87 2147.98 2008.71L2200.48 2008.71C2200.48 2001.93 2198.35 1996.26 2194.1 1991.71C2189.44 1986.76 2183.1 1984.28 2175.07 1984.28Z"/>
<path d="M2252.27 1936.03C2255.16 1936.03 2257.62 1937.05 2259.66 1939.08C2261.7 1941.12 2262.71 1943.56 2262.71 1946.39C2262.71 1949.28 2261.7 1951.74 2259.66 1953.78C2257.62 1955.82 2255.16 1956.83 2252.27 1956.83C2249.43 1956.83 2247 1955.82 2244.96 1953.78C2242.93 1951.74 2241.91 1949.28 2241.91 1946.39C2241.91 1943.5 2242.91 1941.05 2244.92 1939.04C2246.93 1937.03 2249.38 1936.03 2252.27 1936.03ZM2243.06 2066.7L2243.06 1986.05L2230.05 1986.05L2230.05 1971.88L2259.88 1971.88L2259.88 2066.7L2243.06 2066.7Z"/>
<path d="M2280.42 2061.03L2286.35 2045.1C2295.73 2051.24 2303.29 2054.3 2309.01 2054.3C2319.4 2054.3 2324.6 2049.94 2324.6 2041.2C2324.6 2034.95 2319.58 2029.58 2309.55 2025.09C2301.81 2021.55 2296.61 2018.86 2293.92 2017.03C2291.23 2015.2 2288.9 2013.12 2286.93 2010.79C2284.95 2008.46 2283.47 2005.98 2282.5 2003.36C2281.53 2000.73 2281.04 1997.91 2281.04 1994.9C2281.04 1987.11 2283.87 1981.03 2289.54 1976.66C2295.2 1972.3 2302.61 1970.11 2311.76 1970.11C2318.66 1970.11 2327.37 1972.3 2337.87 1976.66L2333.09 1992.25C2326.42 1986.93 2319.73 1984.28 2313 1984.28C2308.98 1984.28 2305.61 1985.22 2302.86 1987.11C2300.12 1989 2298.74 1991.39 2298.74 1994.28C2298.74 2000.36 2302.2 2004.96 2309.1 2008.09L2321.14 2013.58C2328.52 2016.95 2333.89 2020.78 2337.25 2025.09C2340.62 2029.4 2342.3 2034.8 2342.3 2041.29C2342.3 2049.79 2339.32 2056.44 2333.36 2061.25C2327.4 2066.06 2319.14 2068.47 2308.57 2068.47C2298.6 2068.47 2289.21 2065.99 2280.42 2061.03Z"/>
<path d="M2366.03 1985.16L2355.05 1985.16L2355.05 1971.88L2366.03 1971.88L2366.03 1952.05L2382.85 1945.59L2382.85 1971.88L2408.87 1971.88L2408.87 1985.16L2382.85 1985.16L2382.85 2032.26C2382.85 2040.23 2384.19 2045.89 2386.88 2049.26C2389.56 2052.62 2393.88 2054.3 2399.84 2054.3C2404.15 2054.3 2408.61 2053.21 2413.21 2051.03L2415.69 2065.81C2408.73 2067.58 2401.08 2068.47 2392.76 2068.47C2385.27 2068.47 2378.94 2065.68 2373.77 2060.1C2368.61 2054.53 2366.03 2047.49 2366.03 2038.99L2366.03 1985.16Z"/>
<path d="M2447.83 1971.88L2447.83 2032.35C2447.83 2046.99 2454.17 2054.3 2466.86 2054.3C2472.41 2054.3 2477.48 2052.71 2482.09 2049.52C2486.69 2046.34 2489.73 2042.65 2491.21 2038.46L2491.21 1971.88L2508.03 1971.88L2508.03 2066.7L2491.21 2066.7L2491.21 2053.6C2489.32 2057.31 2485.53 2060.72 2479.83 2063.82C2474.14 2066.92 2468.57 2068.47 2463.14 2068.47C2452.76 2068.47 2444.8 2065.49 2439.28 2059.53C2433.77 2053.57 2431.01 2045.1 2431.01 2034.12L2431.01 1971.88L2447.83 1971.88Z"/>
<path d="M2589.3 2066.7L2589.3 2011.55C2589.3 2001.45 2587.78 1994.39 2584.74 1990.34C2581.7 1986.3 2576.61 1984.28 2569.47 1984.28C2565.63 1984.28 2561.62 1985.43 2557.43 1987.73C2553.24 1990.03 2550.02 1992.87 2547.78 1996.23L2547.78 2066.7L2530.96 2066.7L2530.96 1971.88L2542.47 1971.88L2547.78 1984.1C2553.32 1974.78 2562.38 1970.11 2574.96 1970.11C2595.73 1970.11 2606.12 1982.74 2606.12 2008L2606.12 2066.7L2589.3 2066.7Z"/>
<path d="M2626.57 2092.64L2635.69 2079.18C2645.48 2085.73 2654.51 2089.01 2662.78 2089.01C2670.39 2089.01 2676.39 2087.7 2680.79 2085.07C2685.19 2082.44 2687.39 2079.18 2687.39 2075.29C2687.39 2067.61 2681.84 2063.78 2670.74 2063.78C2668.86 2063.78 2665.43 2064.25 2660.47 2065.19C2655.52 2066.14 2651.65 2066.61 2648.88 2066.61C2635.42 2066.61 2628.69 2061.53 2628.69 2051.38C2628.69 2048.26 2630.27 2045.42 2633.43 2042.88C2636.59 2040.35 2640.5 2038.52 2645.16 2037.4C2631.82 2031.14 2625.15 2020.28 2625.15 2004.82C2625.15 1994.9 2628.6 1986.64 2635.51 1980.03C2642.41 1973.42 2650.94 1970.11 2661.09 1970.11C2670.42 1970.11 2677.71 1972.03 2682.96 1975.87L2691.37 1965.78L2702.35 1976.13L2692.26 1983.75C2696.56 1989.35 2698.72 1996.67 2698.72 2005.7C2698.72 2015.26 2695.74 2023.29 2689.78 2029.78C2683.82 2036.27 2676 2039.99 2666.32 2040.94L2652.42 2042.35C2650.77 2042.53 2648.55 2043.17 2645.78 2044.26C2643 2045.35 2641.62 2046.78 2641.62 2048.55C2641.62 2050.97 2644.51 2052.18 2650.29 2052.18C2652.83 2052.18 2656.79 2051.72 2662.16 2050.81C2667.53 2049.89 2671.51 2049.44 2674.11 2049.44C2683.43 2049.44 2690.71 2051.66 2695.93 2056.12C2701.15 2060.58 2703.77 2066.76 2703.77 2074.67C2703.77 2083.4 2699.86 2090.45 2692.03 2095.83C2684.21 2101.2 2674.31 2103.88 2662.33 2103.88C2656.2 2103.88 2649.73 2102.79 2642.95 2100.61C2636.16 2098.42 2630.7 2095.77 2626.57 2092.64ZM2662.24 1983.66C2656.4 1983.66 2651.64 1985.72 2647.95 1989.86C2644.26 1993.99 2642.41 1999 2642.41 2004.91C2642.41 2011.52 2644.2 2016.99 2647.77 2021.33C2651.34 2025.67 2656.17 2027.83 2662.24 2027.83C2668.21 2027.83 2672.87 2025.72 2676.23 2021.5C2679.6 2017.29 2681.28 2011.75 2681.28 2004.91C2681.28 1999 2679.46 1993.99 2675.83 1989.86C2672.2 1985.72 2667.67 1983.66 2662.24 1983.66Z"/>
<path d="M2745.64 2032.88L2739.35 2032.88C2734.81 2003.19 2732.54 1982.57 2732.54 1971L2732.54 1934.7L2752.54 1934.7L2752.54 1970.91C2752.54 1982.18 2750.24 2002.84 2745.64 2032.88ZM2743.07 2041.82C2746.73 2041.82 2749.86 2043.12 2752.46 2045.72C2755.05 2048.31 2756.35 2051.44 2756.35 2055.1C2756.35 2058.76 2755.05 2061.9 2752.46 2064.53C2749.86 2067.16 2746.73 2068.47 2743.07 2068.47C2739.41 2068.47 2736.28 2067.16 2733.69 2064.53C2731.09 2061.9 2729.79 2058.76 2729.79 2055.1C2729.79 2051.44 2731.09 2048.31 2733.69 2045.72C2736.28 2043.12 2739.41 2041.82 2743.07 2041.82Z"/>
</g>
</g>
</svg>
