<?xml version="1.0" encoding="UTF-8" standalone="no"?>
<!DOCTYPE svg PUBLIC "-//W3C//DTD SVG 1.1//EN" "http://www.w3.org/Graphics/SVG/1.1/DTD/svg11.dtd">
<!-- Created with Vectornator (http://vectornator.io/) -->
<svg height="100%" stroke-miterlimit="10" style="fill-rule:nonzero;clip-rule:evenodd;stroke-linecap:round;stroke-linejoin:round;" version="1.1" viewBox="0 0 595.35 2041.2" width="100%" xml:space="preserve" xmlns="http://www.w3.org/2000/svg" xmlns:vectornator="http://vectornator.io" xmlns:xlink="http://www.w3.org/1999/xlink">
<defs>
<filter color-interpolation-filters="sRGB" filterUnits="userSpaceOnUse" height="1568.22" id="Filter" width="110.112" x="245.065" y="171.262">
<feDropShadow dx="-31.5581" dy="34.5794" flood-color="#000000" flood-opacity="0.333" in="SourceGraphic" result="Shadow" stdDeviation="13.7329"/>
</filter>
<filter color-interpolation-filters="sRGB" filterUnits="userSpaceOnUse" height="240.263" id="Filter_2" width="488.437" x="52.1071" y="241.942">
<feDropShadow dx="-31.5581" dy="34.5794" flood-color="#000000" flood-opacity="0.333" in="SourceGraphic" result="Shadow" stdDeviation="13.7329"/>
</filter>
<filter color-interpolation-filters="sRGB" filterUnits="userSpaceOnUse" height="511.863" id="Filter_3" width="332.604" x="3.66815" y="1523.19">
<feDropShadow dx="-31.5581" dy="34.5794" flood-color="#000000" flood-opacity="0.333" in="SourceGraphic" result="Shadow" stdDeviation="13.7329"/>
</filter>
<filter color-interpolation-filters="sRGB" filterUnits="userSpaceOnUse" height="511.863" id="Filter_4" width="332.604" x="27.4324" y="1410.44">
<feDropShadow dx="-31.5581" dy="34.5794" flood-color="#000000" flood-opacity="0.333" in="SourceGraphic" result="Shadow" stdDeviation="13.7329"/>
</filter>
<filter color-interpolation-filters="sRGB" filterUnits="userSpaceOnUse" height="511.863" id="Filter_5" width="317.538" x="277.764" y="1523.19">
<feDropShadow dx="-31.5581" dy="34.5794" flood-color="#000000" flood-opacity="0.333" in="SourceGraphic" result="Shadow" stdDeviation="13.7329"/>
</filter>
<filter color-interpolation-filters="sRGB" filterUnits="userSpaceOnUse" height="511.863" id="Filter_6" width="317.538" x="255.569" y="1410.44">
<feDropShadow dx="-31.5581" dy="34.5794" flood-color="#000000" flood-opacity="0.333" in="SourceGraphic" result="Shadow" stdDeviation="13.7329"/>
</filter>
<filter color-interpolation-filters="sRGB" filterUnits="userSpaceOnUse" height="237.789" id="Filter_7" width="372.705" x="119.961" y="1457.26">
<feDropShadow dx="-31.5581" dy="34.5794" flood-color="#000000" flood-opacity="0.333" in="SourceGraphic" result="Shadow" stdDeviation="13.7329"/>
</filter>
<filter color-interpolation-filters="sRGB" filterUnits="userSpaceOnUse" height="638.073" id="Filter_8" width="296.013" x="270.214" y="130.969">
<feDropShadow dx="-31.5581" dy="34.5794" flood-color="#000000" flood-opacity="0.333" in="SourceGraphic" result="Shadow" stdDeviation="13.7329"/>
</filter>
<filter color-interpolation-filters="sRGB" filterUnits="userSpaceOnUse" height="638.073" id="Filter_9" width="303.284" x="20.3615" y="130.969">
<feDropShadow dx="-31.5581" dy="34.5794" flood-color="#000000" flood-opacity="0.333" in="SourceGraphic" result="Shadow" stdDeviation="13.7329"/>
</filter>
<filter color-interpolation-filters="sRGB" filterUnits="userSpaceOnUse" height="623.241" id="Filter_10" width="183.143" x="159.785" y="59.7741">
<feDropShadow dx="-31.5581" dy="34.5794" flood-color="#000000" flood-opacity="0.333" in="SourceGraphic" result="Shadow" stdDeviation="13.7329"/>
</filter>
<filter color-interpolation-filters="sRGB" filterUnits="userSpaceOnUse" height="623.241" id="Filter_11" width="162.522" x="258.348" y="64.2238">
<feDropShadow dx="-31.5581" dy="34.5794" flood-color="#000000" flood-opacity="0.333" in="SourceGraphic" result="Shadow" stdDeviation="13.7329"/>
</filter>
<filter color-interpolation-filters="sRGB" filterUnits="userSpaceOnUse" height="703.652" id="Filter_12" width="226.665" x="289.189" y="620.285">
<feDropShadow dx="-31.5581" dy="34.5794" flood-color="#000000" flood-opacity="0.333" in="SourceGraphic" result="Shadow" stdDeviation="13.7329"/>
</filter>
</defs>
<g id="Ebene-1" vectornator:layerName="Ebene 1">
<path d="M327.812 188.119L335.546 1653.71" fill="none" filter="url(#Filter)" stroke="#000000" stroke-linecap="butt" stroke-linejoin="round" stroke-width="33.7141" vectornator:shadowAngle="2.31054" vectornator:shadowColor="#000000" vectornator:shadowOffset="46.8151" vectornator:shadowOpacity="0.333" vectornator:shadowRadius="27.4658"/>
<path d="M134.854 327.618C134.854 289.611 221.277 258.8 327.884 258.8C434.491 258.8 520.913 289.611 520.913 327.618C520.913 365.625 434.491 396.436 327.884 396.436C221.277 396.436 134.854 365.625 134.854 327.618Z" fill="#494847" fill-opacity="0" fill-rule="nonzero" filter="url(#Filter_2)" stroke="#000000" stroke-linecap="butt" stroke-linejoin="round" stroke-width="33.7141" vectornator:shadowAngle="2.31054" vectornator:shadowColor="#000000" vectornator:shadowOffset="46.8151" vectornator:shadowOpacity="0.333" vectornator:shadowRadius="27.4658"/>
<g filter="url(#Filter_3)" vectornator:shadowAngle="2.31054" vectornator:shadowColor="#000000" vectornator:shadowOffset="46.8151" vectornator:shadowOpacity="0.333" vectornator:shadowRadius="27.4658">
<path d="M315.625 1524.16C306.265 1524.14 298.677 1531.7 298.656 1541.06C298.456 1617.07 292.069 1695.77 257.875 1764.94C250.656 1779.54 242.264 1793.58 232.812 1806.84C216.198 1830.17 196.327 1851.01 174.5 1869.5C145.335 1894.21 112.827 1914.6 79.0938 1932.44C70.3578 1937.07 67.0273 1947.89 71.6562 1956.62C76.2852 1965.36 87.1078 1968.69 95.8438 1964.06C133.448 1944.1 169.631 1921.07 201.75 1893C224.12 1873.45 244.448 1851.46 261.531 1827.12C271.962 1812.27 281.192 1796.58 289.125 1780.25C325.131 1706.15 332.381 1622.37 332.531 1541.12C332.552 1531.76 324.985 1524.18 315.625 1524.16Z" fill="#000000" stroke="none"/>
</g>
<g filter="url(#Filter_4)" vectornator:shadowAngle="2.31054" vectornator:shadowColor="#000000" vectornator:shadowOffset="46.8151" vectornator:shadowOpacity="0.333" vectornator:shadowRadius="27.4658">
<path d="M339.406 1411.41C330.046 1411.39 322.427 1418.95 322.406 1428.31C322.206 1504.32 315.819 1583.02 281.625 1652.19C274.406 1666.79 266.045 1680.83 256.594 1694.09C239.979 1717.42 220.108 1738.26 198.281 1756.75C169.116 1781.46 136.577 1801.85 102.844 1819.69C94.1078 1824.32 90.7773 1835.14 95.4062 1843.88C100.035 1852.61 110.858 1855.94 119.594 1851.31C157.198 1831.35 193.412 1808.32 225.531 1780.25C247.902 1760.7 268.198 1738.71 285.281 1714.38C295.712 1699.52 304.942 1683.83 312.875 1667.5C348.881 1593.4 356.162 1509.62 356.312 1428.38C356.334 1419.01 348.766 1411.43 339.406 1411.41Z" fill="#000000" stroke="none"/>
</g>
<g filter="url(#Filter_5)" vectornator:shadowAngle="2.31054" vectornator:shadowColor="#000000" vectornator:shadowOffset="46.8151" vectornator:shadowOpacity="0.333" vectornator:shadowRadius="27.4658">
<path d="M361.531 1524.16C352.171 1524.18 344.574 1531.76 344.594 1541.12C344.733 1623.5 351.556 1708.68 387.062 1784.25C393.96 1798.93 401.889 1813.12 410.781 1826.69C425.639 1849.35 443.242 1870.18 462.781 1888.94C493.536 1918.47 528.812 1942.68 565.75 1963.78C574.338 1968.68 585.29 1965.71 590.188 1957.12C595.085 1948.54 592.088 1937.58 583.5 1932.69C571.632 1925.93 559.904 1918.92 548.5 1911.41C528.169 1898 508.786 1883.14 490.938 1866.56C470.749 1847.81 452.669 1826.79 437.719 1803.62C430.613 1792.61 424.217 1781.13 418.562 1769.31C384.721 1698.57 378.693 1618.35 378.5 1541.06C378.48 1531.7 370.892 1524.14 361.531 1524.16Z" fill="#000000" stroke="none"/>
</g>
<g filter="url(#Filter_6)" vectornator:shadowAngle="2.31054" vectornator:shadowColor="#000000" vectornator:shadowOffset="46.8151" vectornator:shadowOpacity="0.333" vectornator:shadowRadius="27.4658">
<path d="M339.312 1411.41C329.952 1411.43 322.387 1419.01 322.406 1428.38C322.546 1510.75 329.368 1595.93 364.875 1671.5C371.772 1686.18 379.701 1700.37 388.594 1713.94C403.451 1736.6 421.055 1757.43 440.594 1776.19C471.349 1805.72 506.625 1829.93 543.562 1851.03C552.151 1855.93 563.071 1852.96 567.969 1844.38C572.866 1835.79 569.901 1824.83 561.312 1819.94C549.445 1813.18 537.716 1806.17 526.312 1798.66C505.981 1785.25 486.599 1770.39 468.75 1753.81C448.562 1735.06 430.482 1714.04 415.531 1690.88C408.426 1679.86 402.03 1668.38 396.375 1656.56C362.534 1585.82 356.506 1505.6 356.312 1428.31C356.293 1418.95 348.673 1411.39 339.312 1411.41Z" fill="#000000" stroke="none"/>
</g>
<path d="M202.708 1541.69C202.708 1504.37 263.223 1474.11 337.871 1474.11C412.52 1474.11 473.034 1504.37 473.034 1541.69C473.034 1579.02 412.52 1609.28 337.871 1609.28C263.223 1609.28 202.708 1579.02 202.708 1541.69Z" fill="#494847" fill-opacity="0" fill-rule="nonzero" filter="url(#Filter_7)" stroke="#000000" stroke-linecap="butt" stroke-linejoin="round" stroke-width="33.7141" vectornator:shadowAngle="2.31054" vectornator:shadowColor="#000000" vectornator:shadowOffset="46.8151" vectornator:shadowOpacity="0.333" vectornator:shadowRadius="27.4658"/>
<path d="M509.01 147.826C504.525 150.069 557.348 320.021 544.607 353.996C530.138 392.579 212.339 683.274 427.432 683.274" fill="none" filter="url(#Filter_8)" stroke="#000000" stroke-linecap="round" stroke-linejoin="round" stroke-width="33.7141" vectornator:shadowAngle="2.31054" vectornator:shadowColor="#000000" vectornator:shadowOffset="46.8151" vectornator:shadowOpacity="0.333" vectornator:shadowRadius="27.4658"/>
<path d="M142.107 147.826C146.76 150.069 91.9531 320.021 105.172 353.996C120.184 392.579 449.918 683.274 226.748 683.274" fill="none" filter="url(#Filter_9)" stroke="#000000" stroke-linecap="round" stroke-linejoin="round" stroke-width="33.7141" vectornator:shadowAngle="2.31054" vectornator:shadowColor="#000000" vectornator:shadowOffset="46.8151" vectornator:shadowOpacity="0.333" vectornator:shadowRadius="27.4658"/>
<path d="M258.21 76.6312C260.08 78.8114 238.048 244.056 243.362 277.09C249.397 314.604 381.95 597.246 292.236 597.246" fill="none" filter="url(#Filter_10)" stroke="#000000" stroke-linecap="round" stroke-linejoin="round" stroke-width="33.7141" vectornator:shadowAngle="2.31054" vectornator:shadowColor="#000000" vectornator:shadowOffset="46.8151" vectornator:shadowOpacity="0.333" vectornator:shadowRadius="27.4658"/>
<path d="M389.564 81.0809C388.172 83.2611 404.578 248.505 400.621 281.539C396.127 319.054 297.418 601.696 364.226 601.696" fill="none" filter="url(#Filter_11)" stroke="#000000" stroke-linecap="round" stroke-linejoin="round" stroke-width="33.7141" vectornator:shadowAngle="2.31054" vectornator:shadowColor="#000000" vectornator:shadowOffset="46.8151" vectornator:shadowOpacity="0.333" vectornator:shadowRadius="27.4658"/>
<g filter="url(#Filter_12)" vectornator:shadowAngle="2.31054" vectornator:shadowColor="#000000" vectornator:shadowOffset="46.8151" vectornator:shadowOpacity="0.333" vectornator:shadowRadius="27.4658">
<path d="M429.656 620.938C425.9 620.874 422.17 621.098 418.531 622.094C405.077 625.777 396.363 637.591 390.562 649.562C385.451 660.112 382.012 671.437 379.156 682.781C375.138 698.745 372.319 715.023 370 731.312C366.338 757.038 363.963 782.932 362.094 808.844C360.115 836.273 358.772 863.737 357.812 891.219C355.288 963.507 355.267 1035.87 355.969 1108.19C356.079 1119.56 356.203 1130.91 356.312 1142.28C356.37 1148.29 356.522 1154.33 356.438 1160.34C356.365 1165.46 356.147 1170.57 356.031 1175.69C355.725 1189.25 355.541 1202.87 356.531 1216.41C356.68 1218.44 356.831 1220.48 357.062 1222.5C358.165 1232.12 360.436 1243.15 369.688 1248.31C371.366 1249.25 373.197 1249.94 375.062 1250.41C377.904 1251.11 381.014 1251.1 383.875 1250.53C385.995 1250.11 388.035 1249.37 389.938 1248.34C399.049 1243.45 403.024 1233.14 405.188 1223.59C408.083 1210.82 408.999 1197.59 409.562 1184.53C410.055 1173.11 410.045 1161.71 410 1150.28C409.963 1140.91 409.908 1131.53 409.875 1122.16C409.813 1104.53 409.855 1086.9 409.875 1069.28C410.283 1060.87 410.723 1052.47 411.125 1044.06C414.506 973.287 417.729 902.493 421.75 831.75C423.875 794.361 426.102 756.973 429.281 719.656C430.028 710.89 430.979 702.123 431.938 693.375C432.575 694.692 433.209 696.01 433.812 697.344C434.103 699.563 434.448 701.766 434.656 704C436.893 727.942 439.51 751.858 441.938 775.781C444.956 805.539 447.608 835.314 450.031 865.125C449.683 869.686 449.435 874.257 449.031 878.812C445.328 920.558 439.367 962.057 434.375 1003.66C432.352 1020.52 430.483 1037.4 429.219 1054.34C428.499 1063.99 428.238 1073.65 427.438 1083.28C426.317 1096.77 424.767 1110.23 423.312 1123.69C421.754 1138.11 420.185 1152.55 419.219 1167.03C418.575 1176.68 417.958 1186.55 419.031 1196.19C419.78 1202.91 421.705 1209.87 426.844 1214.62C427.665 1215.39 428.533 1216.11 429.469 1216.72C430.513 1217.4 431.627 1218.02 432.781 1218.5C434.055 1219.03 435.367 1219.45 436.719 1219.72C438 1219.98 439.318 1220.06 440.625 1220.06C441.043 1220.06 441.457 1219.97 441.875 1219.94C441.904 1224.7 442.205 1229.44 443.469 1234.03C445.634 1241.9 450.517 1248.78 458.031 1252.31C458.593 1252.58 459.16 1252.84 459.75 1253.03C460.777 1253.37 461.813 1253.71 462.875 1253.91C463.934 1254.1 465.017 1254.18 466.094 1254.19C467.129 1254.19 468.166 1254.11 469.188 1253.94C470.159 1253.77 471.131 1253.51 472.062 1253.19C473.734 1252.61 475.184 1251.85 476.625 1250.84C484.149 1245.61 486.098 1235.55 487.5 1227.12C487.794 1225.36 488.036 1223.59 488.281 1221.81C488.643 1219.2 488.983 1216.59 489.281 1213.97C491.064 1198.29 492.082 1182.53 493 1166.78C494.296 1144.56 495.191 1122.34 496 1100.09C496.407 1088.92 496.786 1077.74 497.156 1066.56C497.407 1059.02 497.579 1051.44 498.125 1043.91C498.856 1033.83 499.863 1023.78 500.812 1013.72C502.005 1001.09 503.188 988.479 504.312 975.844C508.379 930.15 511.613 884.321 512.25 838.438C512.731 803.79 511.931 768.948 507.344 734.562C505.2 718.493 502.219 702.447 497.438 686.938C493.994 675.768 489.619 664.79 483.531 654.781C474.184 639.412 460.66 626.916 442.812 622.594C438.511 621.552 434.081 621.012 429.656 620.938Z" fill="#4b7a49" stroke="none"/>
</g>
</g>
</svg>
