<?xml version="1.0" encoding="UTF-8" standalone="no"?>
<!DOCTYPE svg PUBLIC "-//W3C//DTD SVG 1.1//EN" "http://www.w3.org/Graphics/SVG/1.1/DTD/svg11.dtd">
<!-- Created with Vectornator (http://vectornator.io/) -->
<svg height="100%" stroke-miterlimit="10" style="fill-rule:nonzero;clip-rule:evenodd;stroke-linecap:round;stroke-linejoin:round;" version="1.1" viewBox="0 0 3370.82 2384.24" width="100%" xml:space="preserve" xmlns="http://www.w3.org/2000/svg" xmlns:vectornator="http://vectornator.io" xmlns:xlink="http://www.w3.org/1999/xlink">
<defs>
<filter color-interpolation-filters="sRGB" filterUnits="userSpaceOnUse" height="1186.68" id="Filter" width="428.574" x="1432.99" y="-59.524">
<feGaussianBlur in="SourceGraphic" result="Blur" stdDeviation="25.8721"/>
</filter>
<filter color-interpolation-filters="sRGB" filterUnits="userSpaceOnUse" height="1119.36" id="Filter_2" width="444.33" x="1421.13" y="-45.5728">
<feGaussianBlur in="SourceGraphic" result="Blur" stdDeviation="25.8721"/>
</filter>
<filter color-interpolation-filters="sRGB" filterUnits="userSpaceOnUse" height="511.609" id="Filter_3" width="356.536" x="694.383" y="1697.62">
<feGaussianBlur in="SourceGraphic" result="Blur" stdDeviation="25.8721"/>
</filter>
<filter color-interpolation-filters="sRGB" filterUnits="userSpaceOnUse" height="709.644" id="Filter_4" width="462.182" x="867.219" y="1609.06">
<feGaussianBlur in="SourceGraphic" result="Blur" stdDeviation="25.8721"/>
</filter>
<filter color-interpolation-filters="sRGB" filterUnits="userSpaceOnUse" height="741.289" id="Filter_5" width="455.858" x="1068.86" y="1612">
<feGaussianBlur in="SourceGraphic" result="Blur" stdDeviation="25.8721"/>
</filter>
<filter color-interpolation-filters="sRGB" filterUnits="userSpaceOnUse" height="802.301" id="Filter_6" width="533.032" x="1240.49" y="1607.56">
<feGaussianBlur in="SourceGraphic" result="Blur" stdDeviation="25.8721"/>
</filter>
<filter color-interpolation-filters="sRGB" filterUnits="userSpaceOnUse" height="729.61" id="Filter_7" width="513.745" x="1469.49" y="1655.32">
<feGaussianBlur in="SourceGraphic" result="Blur" stdDeviation="25.8721"/>
</filter>
<filter color-interpolation-filters="sRGB" filterUnits="userSpaceOnUse" height="698.546" id="Filter_8" width="513.914" x="1768.4" y="1677.37">
<feGaussianBlur in="SourceGraphic" result="Blur" stdDeviation="25.8721"/>
</filter>
<filter color-interpolation-filters="sRGB" filterUnits="userSpaceOnUse" height="710.976" id="Filter_9" width="480.936" x="2063.77" y="1627.65">
<feGaussianBlur in="SourceGraphic" result="Blur" stdDeviation="25.8721"/>
</filter>
<filter color-interpolation-filters="sRGB" filterUnits="userSpaceOnUse" height="672.886" id="Filter_10" width="489.756" x="2329.94" y="1576.02">
<feGaussianBlur in="SourceGraphic" result="Blur" stdDeviation="25.8721"/>
</filter>
<filter color-interpolation-filters="sRGB" filterUnits="userSpaceOnUse" height="457.502" id="Filter_11" width="304.852" x="638.024" y="1625.32">
<feGaussianBlur in="SourceGraphic" result="Blur" stdDeviation="25.8721"/>
</filter>
<filter color-interpolation-filters="sRGB" filterUnits="userSpaceOnUse" height="514.979" id="Filter_12" width="446.961" x="859.903" y="1732.93">
<feGaussianBlur in="SourceGraphic" result="Blur" stdDeviation="25.8721"/>
</filter>
<filter color-interpolation-filters="sRGB" filterUnits="userSpaceOnUse" height="682.049" id="Filter_13" width="605.04" x="1045.32" y="1610.73">
<feGaussianBlur in="SourceGraphic" result="Blur" stdDeviation="25.8721"/>
</filter>
<filter color-interpolation-filters="sRGB" filterUnits="userSpaceOnUse" height="618.711" id="Filter_14" width="657.596" x="1408.6" y="1676.11">
<feGaussianBlur in="SourceGraphic" result="Blur" stdDeviation="25.8721"/>
</filter>
<filter color-interpolation-filters="sRGB" filterUnits="userSpaceOnUse" height="464.844" id="Filter_15" width="600.776" x="1777.17" y="1750.77">
<feGaussianBlur in="SourceGraphic" result="Blur" stdDeviation="25.8721"/>
</filter>
<filter color-interpolation-filters="sRGB" filterUnits="userSpaceOnUse" height="387.478" id="Filter_16" width="477.637" x="2125.61" y="1743.86">
<feGaussianBlur in="SourceGraphic" result="Blur" stdDeviation="25.8721"/>
</filter>
<filter color-interpolation-filters="sRGB" filterUnits="userSpaceOnUse" height="330.681" id="Filter_17" width="402.281" x="2403.85" y="1723.58">
<feGaussianBlur in="SourceGraphic" result="Blur" stdDeviation="25.8721"/>
</filter>
<filter color-interpolation-filters="sRGB" filterUnits="userSpaceOnUse" height="289.077" id="Filter_18" width="476.383" x="808.791" y="1025.66">
<feGaussianBlur in="SourceGraphic" result="Blur" stdDeviation="12.6938"/>
</filter>
<filter color-interpolation-filters="sRGB" filterUnits="userSpaceOnUse" height="170.704" id="Filter_19" width="297.466" x="2215.74" y="1495.41">
<feGaussianBlur in="SourceGraphic" result="Blur" stdDeviation="12.6938"/>
</filter>
<filter color-interpolation-filters="sRGB" filterUnits="userSpaceOnUse" height="172.787" id="Filter_20" width="228.788" x="687.8" y="1448.64">
<feGaussianBlur in="SourceGraphic" result="Blur" stdDeviation="12.6938"/>
</filter>
<filter color-interpolation-filters="sRGB" filterUnits="userSpaceOnUse" height="283.303" id="Filter_21" width="662.809" x="1466.17" y="1021.59">
<feGaussianBlur in="SourceGraphic" result="Blur" stdDeviation="30.6202"/>
</filter>
<filter color-interpolation-filters="sRGB" filterUnits="userSpaceOnUse" height="244.591" id="Filter_22" width="684.245" x="1073.18" y="1519.89">
<feGaussianBlur in="SourceGraphic" result="Blur" stdDeviation="30.6202"/>
</filter>
</defs>
<clipPath id="ArtboardFrame">
<rect height="2384.24" width="3370.82" x="0" y="0"/>
</clipPath>
<g clip-path="url(#ArtboardFrame)" id="Ebene-1" vectornator:layerName="Ebene 1">
<path d="M693.833 1441.31C693.833 1206.45 1125.62 1016.06 1658.26 1016.06C2190.9 1016.06 2622.69 1206.45 2622.69 1441.31C2622.69 1676.17 2233.92 1663.2 1701.28 1663.2C1168.64 1663.2 693.833 1676.17 693.833 1441.31Z" fill="#757a7e" fill-rule="nonzero" opacity="1" stroke="#757a7e" stroke-linecap="butt" stroke-linejoin="round" stroke-width="69.536"/>
<path d="M1647.26 987.014L1656.16 20.45" fill="none" opacity="1" stroke="#757a7e" stroke-linecap="butt" stroke-linejoin="round" stroke-width="69.536"/>
<g filter="url(#Filter)" opacity="0.215116" vectornator:blur="51.7442">
<path d="M1552 5.46875C1549.16 5.49737 1546.34 5.81065 1543.69 6.71875C1537.16 8.95605 1531.19 12.9973 1526.16 17.7188C1522.72 20.9452 1520.89 25.6009 1518.97 29.9062C1517.84 32.4262 1517.53 35.2428 1517.09 37.9688C1516.82 39.6752 1516.85 41.4281 1516.84 43.1562C1516.81 49.5272 1518.95 55.7069 1521.25 61.5625C1523.89 68.291 1526.86 74.9033 1529.81 81.5C1539.63 103.441 1549.94 125.173 1560.28 146.875C1563.94 154.564 1567.59 162.228 1571.28 169.906C1574.3 176.196 1577.32 182.492 1580.66 188.625C1590.09 205.985 1600.38 222.894 1610.62 239.781C1614.9 246.825 1619.28 253.795 1623.59 260.812C1627.11 268.296 1630.68 275.749 1634.16 283.25C1650.64 318.779 1666.67 354.536 1681.81 390.656C1692.39 415.877 1702.58 441.306 1711.44 467.188C1714.85 477.155 1718.08 487.206 1720.72 497.406C1722.28 503.421 1723.85 509.618 1724.25 515.844C1724.39 517.965 1724.16 520.104 1724.03 522.219C1723.81 525.672 1723.53 529.122 1723.16 532.562C1716.31 595.803 1683.81 651.859 1649.06 703.719C1643.6 711.868 1638.05 719.935 1632.47 728C1586.32 794.679 1535.65 860.849 1512.34 939.75C1509.15 950.558 1506.49 961.538 1504.47 972.625C1501.29 990.041 1499.72 1007.68 1499.62 1025.38C1499.52 1044.68 1515.1 1060.39 1534.41 1060.5C1553.71 1060.61 1569.46 1045.06 1569.56 1025.75C1569.64 1012.98 1570.64 1000.28 1572.81 987.688C1577.76 958.992 1588.16 931.573 1601.19 905.625C1616.76 874.609 1636.03 845.597 1655.78 817.125C1704.29 747.213 1758.23 678.074 1782.72 595.25C1786.28 583.218 1789.16 570.985 1791.31 558.625C1792.85 549.807 1794.02 540.919 1794.78 532C1795.16 527.564 1795.48 523.108 1795.59 518.656C1795.82 509.911 1794.6 501.184 1792.91 492.625C1791.01 483.056 1788.47 473.627 1785.69 464.281C1777.57 437.007 1767.44 410.315 1756.88 383.906C1746.46 357.866 1735.41 332.083 1724.12 306.406C1726.92 296.726 1725.88 285.991 1720.16 276.75C1708.2 257.478 1696.18 238.249 1684.28 218.938C1668.46 185.115 1652.37 151.406 1635.75 117.969C1627.16 100.68 1618.46 83.4432 1609.56 66.3125C1603.35 54.3477 1597.11 42.3674 1590.31 30.7188C1586.98 25.0123 1583.47 19.1406 1578.41 14.7812C1577.46 13.966 1576.53 13.1059 1575.5 12.4062C1573.78 11.2433 1572.06 10.009 1570.16 9.1875C1567.03 7.84125 1563.89 6.2857 1560.5 5.96875C1557.71 5.70778 1554.84 5.44013 1552 5.46875Z" fill="#757a7e" stroke="none"/>
</g>
<g filter="url(#Filter_2)" opacity="0.215116" vectornator:blur="51.7442">
<path d="M1527.56 19.125C1525.11 19.2007 1522.64 19.5059 1520.16 20.0938C1500.31 24.7963 1488.05 44.6897 1492.75 64.5312C1497.07 82.7025 1502.29 100.613 1508.62 118.188C1518.39 145.278 1530.53 171.488 1544.16 196.844C1574.14 252.648 1611.26 304.061 1646.28 356.719C1668.88 390.704 1690.77 425.44 1708.47 462.281C1712.09 469.826 1715.57 477.421 1718.84 485.125C1721.07 490.368 1723.46 495.648 1725.06 501.125C1726.76 506.915 1727.59 512.95 1727.84 518.969C1728.2 527.532 1727.41 536.114 1726.03 544.562C1724.27 555.356 1721.55 565.987 1718.25 576.406C1708.22 608.086 1693.38 638.105 1677.47 667.188C1663.84 692.101 1648.9 716.302 1633.5 740.156C1610.66 775.54 1586.63 810.121 1562.62 844.719C1548.55 865.002 1534.46 885.27 1521 905.969C1510.27 922.476 1499.75 939.294 1491.22 957.062C1482.86 974.463 1490.19 995.326 1507.59 1003.69C1524.99 1012.05 1545.89 1004.74 1554.25 987.344C1558.19 979.144 1562.73 971.246 1567.44 963.469C1572.9 954.445 1578.64 945.576 1584.47 936.781C1599.01 914.833 1614.12 893.265 1629.16 871.656C1672.36 809.586 1715.68 747.228 1750.88 680.156C1758.21 666.187 1765.08 651.948 1771.34 637.469C1778.56 620.778 1784.97 603.689 1789.94 586.188C1796.64 562.579 1800.87 537.954 1799.59 513.344C1799.03 502.483 1797.36 491.654 1794.38 481.188C1792.52 474.688 1790.07 468.413 1787.53 462.156C1784.64 455.018 1781.57 447.958 1778.41 440.938C1764.03 409.076 1746.74 378.601 1728.25 348.969C1703.64 309.534 1676.8 271.565 1651.44 232.625C1625.31 192.511 1600.67 151.075 1583.03 106.438C1575.45 87.2519 1569.33 67.5738 1564.59 47.5C1560.48 30.1386 1544.73 18.595 1527.56 19.125Z" fill="#757a7e" stroke="none"/>
</g>
<g filter="url(#Filter_3)" opacity="0.215116" vectornator:blur="51.7442">
<path d="M795.985 2107.63C860.547 1904.88 813.897 2009.78 949.317 1799.23" fill="#fcff09" fill-rule="nonzero" stroke="none"/>
<path d="M948.531 1762.31C936.682 1762.58 925.179 1768.53 918.281 1779.25C897.731 1811.34 876.779 1843.19 855.562 1874.84C848.011 1886.11 840.403 1897.34 832.969 1908.69C825.559 1920 818.327 1931.45 812.406 1943.62C802.143 1964.73 796.006 1987.6 789.312 2010C780.625 2039.08 771.853 2068.1 762.688 2097.03C756.835 2115.43 766.978 2135.09 785.375 2140.94C803.772 2146.79 823.429 2136.62 829.281 2118.22C838.245 2090.15 846.976 2062.03 855.656 2033.88C858.831 2023.58 862.03 2013.27 865.469 2003.06C868.485 1994.1 871.65 1985.16 875.875 1976.69C881.113 1966.18 887.829 1956.43 894.469 1946.78C901.952 1935.9 909.554 1925.11 917.062 1914.25C938.707 1882.93 959.696 1851.18 980.375 1819.22C991.411 1802.07 986.459 1779.22 969.312 1768.19C962.883 1764.05 955.641 1762.15 948.531 1762.31Z" fill="#fcff09" stroke="none"/>
</g>
<g filter="url(#Filter_4)" opacity="0.215116" vectornator:blur="51.7442">
<path d="M968.821 2217.11C1044.08 2043.08 1133.05 1874.9 1227.8 1710.67" fill="#fcff09" fill-rule="nonzero" stroke="none"/>
<path d="M1225.16 1673.84C1213.33 1674.7 1202.13 1681.2 1195.78 1692.25C1173.07 1731.88 1150.56 1771.66 1128.62 1811.72C1116.2 1834.4 1104.04 1857.19 1091.97 1880.06C1062.93 1935.1 1035.11 1990.78 1008.19 2046.88C983.394 2098.53 959.534 2150.62 936.75 2203.19C929.06 2220.9 937.198 2241.47 954.906 2249.16C972.614 2256.85 993.185 2248.74 1000.88 2231.03C1023.34 2179.4 1046.85 2128.23 1071.66 2077.69C1098.24 2023.52 1126.17 1970.03 1154.78 1916.91C1188.8 1853.75 1223.97 1791.2 1259.81 1729.06C1269.98 1711.38 1263.87 1688.82 1246.19 1678.66C1239.56 1674.84 1232.25 1673.33 1225.16 1673.84Z" fill="#fcff09" stroke="none"/>
</g>
<g filter="url(#Filter_5)" opacity="0.215116" vectornator:blur="51.7442">
<path d="M1170.47 2251.68C1230.74 2065.37 1298.12 1867.48 1423.12 1713.6" fill="#fcff09" fill-rule="nonzero" stroke="none"/>
<path d="M1426.28 1676.81C1414.47 1675.81 1402.38 1680.49 1394.38 1690.41C1372.83 1717.2 1352.76 1745.11 1334.22 1774.06C1275.41 1865.91 1232.33 1966.75 1195.31 2069.03C1174.72 2125.91 1155.82 2183.35 1137.22 2240.91C1131.27 2259.27 1141.32 2278.99 1159.69 2284.94C1178.05 2290.89 1197.77 2280.84 1203.72 2262.47C1221.48 2207.77 1239.48 2153.15 1259.38 2099.19C1278.88 2046.29 1300.32 1993.99 1324.66 1943.12C1350.2 1889.74 1379.02 1837.75 1412.69 1789.03C1425.07 1771.11 1438.18 1753.72 1451.88 1736.78C1464.68 1720.91 1462.19 1697.64 1446.31 1684.84C1440.36 1680.04 1433.37 1677.41 1426.28 1676.81Z" fill="#fcff09" stroke="none"/>
</g>
<g filter="url(#Filter_6)" opacity="0.215116" vectornator:blur="51.7442">
<path d="M1342.09 2308.26C1414.17 2077.44 1520.94 1893 1671.92 1709.17" fill="#fcff09" fill-rule="nonzero" stroke="none"/>
<path d="M1675.34 1672.41C1663.54 1671.32 1651.42 1675.92 1643.34 1685.78C1607.54 1729.61 1573.05 1774.53 1540.78 1821.03C1512.07 1862.4 1485.07 1904.94 1460.03 1948.62C1420.5 2017.59 1385.97 2089.41 1356.47 2163.22C1338.8 2207.43 1323 2252.35 1308.75 2297.78C1302.96 2316.2 1313.18 2335.84 1331.59 2341.62C1350.01 2347.41 1369.65 2337.17 1375.44 2318.75C1384.92 2288.64 1395.05 2258.72 1406.12 2229.16C1428.99 2168.11 1455.56 2108.5 1485.88 2050.78C1529.85 1967.05 1581.43 1887.47 1638.12 1811.81C1658.29 1784.91 1679.17 1758.55 1700.5 1732.56C1713.42 1716.79 1711.09 1693.51 1695.31 1680.59C1689.4 1675.75 1682.43 1673.06 1675.34 1672.41Z" fill="#fcff09" stroke="none"/>
</g>
<g filter="url(#Filter_7)" opacity="0.215116" vectornator:blur="51.7442">
<path d="M1571.09 2283.33C1663.77 2100.66 1761.97 1923.2 1881.63 1756.92" fill="#fcff09" fill-rule="nonzero" stroke="none"/>
<path d="M1882.69 1720C1870.84 1719.68 1859.05 1725.08 1851.62 1735.44C1824.08 1774 1797.41 1813.14 1771.72 1852.97C1755.45 1878.2 1739.66 1903.76 1724.16 1929.47C1689.63 1986.71 1657 2045.07 1625.28 2103.91C1596.1 2158.05 1567.81 2212.64 1539.94 2267.47C1531.18 2284.67 1538.01 2305.71 1555.22 2314.47C1572.42 2323.23 1593.49 2316.39 1602.25 2299.19C1629.89 2244.98 1657.91 2190.97 1687.25 2137.66C1730.04 2059.91 1775.12 1983.38 1823.16 1908.75C1840.19 1882.29 1857.5 1856.01 1875.31 1830.06C1887.22 1812.71 1899.38 1795.53 1911.66 1778.44C1923.53 1761.86 1919.7 1738.78 1903.12 1726.91C1896.91 1722.45 1889.8 1720.19 1882.69 1720Z" fill="#fcff09" stroke="none"/>
</g>
<g filter="url(#Filter_8)" opacity="0.215116" vectornator:blur="51.7442">
<path d="M1870 2274.32C1981.38 2110.48 2064.38 1939.22 2180.71 1778.98" fill="#fcff09" fill-rule="nonzero" stroke="none"/>
<path d="M2181.88 1742.06C2170.03 1741.7 2158.2 1747.04 2150.75 1757.38C2119.31 1801.12 2089.5 1846.02 2061.19 1891.84C2031.59 1939.74 2003.34 1988.43 1975.03 2037.09C1960.61 2061.89 1946.22 2086.73 1931.53 2111.38C1915.03 2139.04 1898.3 2166.58 1881.03 2193.78C1868 2214.3 1854.63 2234.6 1841.03 2254.75C1830.22 2270.74 1834.44 2292.47 1850.44 2303.28C1866.43 2314.09 1888.16 2309.9 1898.97 2293.91C1922.19 2259.6 1944.6 2224.75 1966.41 2189.53C2007.42 2123.29 2046.67 2055.99 2087.12 1989.41C2111.55 1949.21 2136.41 1909.22 2162.44 1870.03C2178.04 1846.54 2194.13 1823.41 2210.66 1800.56C2222.58 1784.02 2218.85 1760.96 2202.31 1749.03C2196.11 1744.56 2188.98 1742.28 2181.88 1742.06Z" fill="#fcff09" stroke="none"/>
</g>
<g filter="url(#Filter_9)" opacity="0.215116" vectornator:blur="51.7442">
<path d="M2165.37 2237.03C2250.94 2067.15 2318.15 1873.33 2443.1 1729.26" fill="#fcff09" fill-rule="nonzero" stroke="none"/>
<path d="M2440.34 1692.44C2430.92 1693.14 2421.78 1697.46 2415.12 1705.19C2397.53 1725.7 2380.92 1746.99 2365.31 1769.06C2300.76 1860.36 2253.85 1962.34 2207.94 2063.84C2184.03 2116.69 2160.01 2169.48 2134.09 2221.38C2125.46 2238.64 2132.45 2259.64 2149.72 2268.28C2166.98 2276.92 2187.99 2269.92 2196.62 2252.66C2244.88 2156.37 2286.57 2056.92 2336.03 1961.22C2353.43 1927.55 2371.84 1894.42 2391.84 1862.22C2405.54 1840.18 2419.96 1818.58 2435.44 1797.75C2446.76 1782.51 2458.69 1767.72 2471.09 1753.34C2484.39 1737.89 2482.64 1714.58 2467.19 1701.28C2459.46 1694.63 2449.77 1691.73 2440.34 1692.44Z" fill="#fcff09" stroke="none"/>
</g>
<g filter="url(#Filter_10)" opacity="0.215116" vectornator:blur="51.7442">
<path d="M2431.54 2147.31C2508.67 1976.11 2599.75 1823.31 2718.1 1677.62" fill="#fcff09" fill-rule="nonzero" stroke="none"/>
<path d="M2721.28 1640.84C2709.47 1639.83 2697.38 1644.49 2689.38 1654.41C2662.25 1688.09 2635.98 1722.46 2610.94 1757.72C2592.98 1783.01 2575.71 1808.82 2559.03 1834.97C2498.39 1930.01 2446.11 2030.2 2399.69 2132.88C2391.72 2150.46 2399.54 2171.19 2417.12 2179.16C2434.71 2187.12 2455.41 2179.3 2463.38 2161.72C2472.89 2140.77 2482.6 2119.91 2492.66 2099.22C2510.78 2061.94 2529.96 2025.15 2550.34 1989.06C2594.46 1910.93 2643.61 1835.67 2697.47 1763.91C2713.49 1742.55 2730.01 1721.55 2746.81 1700.81C2759.63 1684.95 2757.17 1661.72 2741.31 1648.91C2735.36 1644.1 2728.37 1641.45 2721.28 1640.84Z" fill="#fcff09" stroke="none"/>
</g>
<g filter="url(#Filter_11)" opacity="0.215116" vectornator:blur="51.7442">
<path d="M739.626 1981.22C781.553 1804.43 748.403 1889.48 841.274 1726.92" fill="#fcff09" fill-rule="nonzero" stroke="none"/>
<path d="M838.562 1690.09C826.743 1690.98 815.545 1697.53 809.219 1708.59C795.235 1733.22 780.886 1757.64 766.5 1782.03C761.469 1790.56 756.41 1799.05 751.562 1807.69C746.249 1817.16 741.242 1826.81 737.375 1836.97C730.211 1855.79 726.883 1875.97 722.781 1895.62C717.372 1921.54 711.688 1947.38 705.625 1973.16C701.176 1991.94 712.776 2010.8 731.562 2015.25C750.349 2019.7 769.208 2008.07 773.656 1989.28C779.667 1964.06 785.437 1938.78 791.062 1913.47C793.128 1904.18 795.233 1894.9 797.5 1885.66C799.364 1878.06 801.292 1870.41 804.281 1863.16C807.649 1854.99 812.282 1847.38 816.844 1839.84C821.976 1831.36 827.188 1822.92 832.375 1814.47C846.401 1791.62 859.937 1768.48 873.312 1745.25C883.434 1727.55 877.296 1705 859.594 1694.88C852.955 1691.08 845.654 1689.56 838.562 1690.09Z" fill="#fcff09" stroke="none"/>
</g>
<g filter="url(#Filter_12)" opacity="0.215116" vectornator:blur="51.7442">
<path d="M961.505 1834.53C1080.64 2036.43 1004.61 1928.62 1205.26 2146.31" fill="#fcff09" fill-rule="nonzero" stroke="none"/>
<path d="M963.625 1799.62C956.905 1799.21 949.986 1800.73 943.75 1804.41C927.121 1814.21 921.599 1835.65 931.406 1852.28C948.003 1880.49 964.316 1908.86 980.594 1937.25C985.412 1945.65 990.23 1954.05 995.125 1962.41C1002.64 1975.23 1010.45 1987.93 1019.41 1999.81C1029.15 2012.73 1040.13 2024.61 1051.22 2036.38C1062.01 2047.81 1072.9 2059.15 1083.75 2070.53C1115.52 2103.84 1146.99 2137.44 1178.12 2171.34C1191.95 2186.33 1215.29 2187.26 1230.28 2173.44C1245.27 2159.61 1246.23 2136.27 1232.41 2121.28C1201.55 2087.97 1170.43 2054.91 1138.69 2022.44C1127.26 2010.75 1115.74 1999.15 1104.31 1987.47C1094.54 1977.48 1084.74 1967.44 1076.09 1956.44C1069.42 1947.94 1063.6 1938.81 1057.94 1929.62C1051.45 1919.09 1045.23 1908.38 1039 1897.69C1023.25 1870.68 1007.53 1843.69 991.625 1816.78C985.495 1806.39 974.825 1800.31 963.625 1799.62Z" fill="#fcff09" stroke="none"/>
</g>
<g filter="url(#Filter_13)" opacity="0.215116" vectornator:blur="51.7442">
<path d="M1146.92 1712.34C1272.26 1884.23 1401.72 2037.48 1548.75 2191.18" fill="#fcff09" fill-rule="nonzero" stroke="none"/>
<path d="M1145.59 1677.41C1138.87 1677.66 1132.13 1679.85 1126.28 1684.12C1110.7 1695.52 1107.29 1717.38 1118.69 1732.97C1193.42 1835.32 1271.66 1935.16 1354.09 2031.44C1408.31 2094.76 1464.56 2156.31 1522.03 2216.69C1536.11 2231.44 1559.5 2231.98 1574.25 2217.91C1589 2203.83 1589.55 2180.44 1575.47 2165.69C1475.48 2061.2 1379.18 1953.1 1288.62 1840.31C1249.6 1791.71 1211.95 1742.01 1175.12 1691.72C1168 1681.98 1156.81 1676.99 1145.59 1677.41Z" fill="#fcff09" stroke="none"/>
</g>
<g filter="url(#Filter_14)" opacity="0.215116" vectornator:blur="51.7442">
<path d="M1510.2 1777.71C1650.13 1925.59 1817.47 2050.85 1964.6 2193.22" fill="#fcff09" fill-rule="nonzero" stroke="none"/>
<path d="M1511.12 1742.78C1502.18 1742.55 1493.13 1745.73 1486.12 1752.38C1472.12 1765.67 1471.55 1787.78 1484.84 1801.78C1527.96 1847.25 1573.3 1890.51 1619.53 1932.78C1667.98 1977.09 1717.41 2020.27 1766.78 2063.53C1809.21 2100.71 1851.63 2137.98 1893.03 2176.31C1908.51 2190.64 1923.82 2205.16 1939 2219.81C1953.69 2233.96 1977.04 2233.53 1991.19 2218.84C2005.33 2204.15 2004.91 2180.77 1990.22 2166.62C1974.63 2151.65 1958.9 2136.83 1943 2122.19C1908.06 2090.02 1872.39 2058.63 1836.47 2027.56C1778.27 1977.24 1719.26 1927.8 1662.16 1876.22C1618.55 1836.82 1576.06 1796.26 1535.56 1753.66C1528.92 1746.66 1520.07 1743.01 1511.12 1742.78Z" fill="#fcff09" stroke="none"/>
</g>
<g filter="url(#Filter_15)" opacity="0.215116" vectornator:blur="51.7442">
<path d="M1878.77 1852.9C2030.91 1840.63 2144.79 2044.71 2276.35 2114.01" fill="#fcff09" fill-rule="nonzero" stroke="none"/>
<path d="M1895.91 1817.47C1889.34 1817.35 1882.75 1817.54 1876.19 1818.03C1856.93 1819.45 1842.49 1836.22 1843.91 1855.47C1845.33 1874.72 1862.09 1889.17 1881.34 1887.75C1888.8 1887.21 1896.24 1887.19 1903.69 1887.88C1924.59 1889.79 1944.65 1896.78 1963.28 1906.25C1988.71 1919.18 2011.6 1936.45 2033.34 1954.78C2055.06 1973.09 2075.55 1992.83 2095.94 2012.59C2113.63 2029.75 2131.32 2046.94 2149.34 2063.75C2162.71 2076.22 2176.37 2088.34 2190.53 2099.91C2206.5 2112.95 2223.11 2125.31 2240.69 2136.12C2246.64 2139.79 2252.73 2143.21 2258.88 2146.53C2276.84 2156.18 2299.22 2149.46 2308.88 2131.5C2318.53 2113.54 2311.77 2091.15 2293.81 2081.5C2287.65 2078.2 2281.6 2074.73 2275.69 2071C2246.47 2052.55 2220.56 2029.45 2195.12 2006.22C2147.92 1963.1 2103.41 1916.63 2051.66 1878.78C2011.26 1849.23 1965.99 1824.73 1915.59 1818.78C1909.05 1818.01 1902.48 1817.59 1895.91 1817.47Z" fill="#fcff09" stroke="none"/>
</g>
<g filter="url(#Filter_16)" opacity="0.215116" vectornator:blur="51.7442">
<path d="M2227.21 1845.46C2315.57 1915.26 2410.1 1965.3 2501.64 2029.74" fill="#fcff09" fill-rule="nonzero" stroke="none"/>
<path d="M2229.72 1810.59C2218.53 1809.8 2207.17 1814.38 2199.72 1823.88C2187.8 1839.06 2190.44 1861.05 2205.62 1872.97C2258.47 1914.53 2314.86 1951.21 2371.28 1987.66C2407.96 2011.35 2444.76 2034.82 2480.47 2059.97C2497.17 2071.67 2520.18 2067.64 2531.88 2050.94C2543.57 2034.24 2539.51 2011.2 2522.81 1999.5C2499.69 1983.39 2476.2 1967.79 2452.41 1952.69C2410.71 1926.22 2368.19 1901.09 2326.91 1873.97C2300.12 1856.37 2274.03 1837.72 2248.78 1817.97C2243.09 1813.5 2236.43 1811.07 2229.72 1810.59Z" fill="#fcff09" stroke="none"/>
</g>
<g filter="url(#Filter_17)" opacity="0.215116" vectornator:blur="51.7442">
<path d="M2505.45 1825.19C2590.79 1897.03 2528.83 1848.34 2704.53 1952.66" fill="#fcff09" fill-rule="nonzero" stroke="none"/>
<path d="M2502.47 1790.34C2493.56 1791.11 2484.94 1795.27 2478.72 1802.66C2466.28 1817.42 2468.17 1839.5 2482.94 1851.94C2492.38 1859.92 2501.81 1867.89 2511.22 1875.91C2521.15 1884.37 2531.11 1892.86 2541.91 1900.22C2550.35 1905.97 2559.29 1910.93 2568.19 1915.94C2577.15 1920.98 2586.09 1926.03 2595 1931.16C2608.89 1939.15 2622.71 1947.27 2636.53 1955.38C2652.95 1965.01 2669.35 1974.64 2685.69 1984.41C2703.22 1994.81 2725.88 1989.04 2736.28 1971.5C2746.69 1953.96 2740.91 1931.31 2723.38 1920.91C2694.35 1903.82 2665.23 1886.92 2635.59 1870.91C2624.53 1864.93 2613.41 1859.06 2602.28 1853.22C2594.87 1849.33 2587.29 1845.57 2580.28 1840.97C2572.66 1835.97 2565.66 1830.02 2558.66 1824.22C2548.36 1815.71 2538.2 1807.02 2527.97 1798.44C2520.59 1792.22 2511.38 1789.58 2502.47 1790.34Z" fill="#fcff09" stroke="none"/>
</g>
<g filter="url(#Filter_18)" opacity="1" vectornator:blur="25.3876">
<path d="M877.448 1246.08C982.198 1170.57 1093.74 1135.43 1216.52 1094.32" fill="#ffffff" fill-rule="nonzero" stroke="none"/>
<path d="M1219.34 1057.5C1214.56 1057.13 1209.65 1057.7 1204.81 1059.31C1174.63 1069.48 1144.39 1079.48 1114.38 1090.12C1087.23 1099.76 1060.27 1109.93 1033.69 1121.03C997.049 1136.33 961.12 1153.49 926.594 1173.12C902.652 1186.74 879.46 1201.62 857.094 1217.69C841.402 1228.93 837.784 1250.75 849.031 1266.44C860.278 1282.13 882.121 1285.75 897.812 1274.5C911.123 1264.98 924.715 1255.86 938.688 1247.34C954.414 1237.75 970.593 1228.84 987.031 1220.53C1023.28 1202.21 1061.1 1187.19 1099.22 1173.28C1114.1 1167.85 1129.08 1162.68 1144.06 1157.53C1172.05 1147.9 1200.13 1138.67 1228.22 1129.34C1247.56 1122.87 1258 1101.93 1251.53 1082.59C1246.68 1068.09 1233.69 1058.61 1219.34 1057.5Z" fill="#fffff1" stroke="none"/>
</g>
<g filter="url(#Filter_19)" opacity="1" vectornator:blur="25.3876">
<path d="M2284.4 1597.46C2385.76 1586.83 2332.12 1596.65 2444.55 1564.07" fill="#ffffff" fill-rule="nonzero" stroke="none"/>
<path d="M2441.62 1527.25C2439.18 1527.45 2436.73 1527.88 2434.28 1528.59C2417.49 1533.55 2400.71 1538.59 2384.06 1544C2377.74 1546.05 2371.44 1548.16 2365.12 1550.22C2360.24 1551.81 2355.33 1553.42 2350.31 1554.53C2345.8 1555.53 2341.21 1556.14 2336.62 1556.72C2331.2 1557.4 2325.78 1557.96 2320.34 1558.53C2307.15 1559.91 2293.94 1561.27 2280.75 1562.69C2261.55 1564.7 2247.62 1581.89 2249.62 1601.09C2251.63 1620.29 2268.83 1634.23 2288.03 1632.22C2303.28 1630.66 2318.54 1629.3 2333.81 1628C2344.54 1627.09 2355.31 1626.44 2365.91 1624.44C2378.73 1622.01 2391.27 1618.02 2403.78 1614.38C2420.8 1609.42 2437.79 1604.38 2454.84 1599.53C2474.43 1593.85 2485.68 1573.37 2480 1553.78C2475.03 1536.65 2458.74 1525.87 2441.62 1527.25Z" fill="#fffff1" stroke="none"/>
</g>
<g filter="url(#Filter_20)" opacity="1" vectornator:blur="25.3876">
<path d="M756.456 1517.3C806.973 1554.11 777.295 1540.36 847.932 1552.77" fill="#ffffff" fill-rule="nonzero" stroke="none"/>
<path d="M757.75 1482.38C746.536 1481.96 735.334 1486.94 728.219 1496.69C716.834 1512.28 720.252 1534.15 735.844 1545.53C743.009 1550.81 750.023 1556.26 757 1561.78C763.768 1567.14 770.396 1572.53 778.312 1576.16C787.773 1580.49 798.09 1582 808.281 1583.59C819.399 1585.34 830.523 1587.13 841.594 1589.16C861.682 1592.66 880.808 1579.21 884.312 1559.12C887.817 1539.04 874.369 1519.91 854.281 1516.41C843.712 1514.65 833.12 1512.98 822.469 1511.81C818.748 1511.4 815.008 1511.01 811.281 1510.66C809.982 1510.53 808.704 1510.39 807.406 1510.25C807.12 1510.22 806.684 1510.18 806.375 1510.16C806.313 1510.15 806.229 1510.14 806.188 1510.16C805.57 1509.76 804.973 1509.48 804.5 1509.16C802.035 1507.49 799.67 1505.71 797.281 1503.94C790.569 1498.95 783.835 1493.97 777.062 1489.06C771.216 1484.79 764.478 1482.62 757.75 1482.38ZM806.5 1510.34C806.748 1510.46 807.006 1510.6 807.219 1510.72C807.365 1510.8 807.526 1510.89 807.656 1511C807.689 1511.03 807.791 1511.1 807.75 1511.09C807.453 1511.02 806.947 1510.61 806.5 1510.34Z" fill="#fffff1" stroke="none"/>
</g>
<g filter="url(#Filter_21)" opacity="0.515504" vectornator:blur="61.2403">
<path d="M1579.65 1166.41C1656.49 1089.57 1909.39 1176.26 2015.51 1191.42" fill="#ffffff" fill-rule="nonzero" stroke="none"/>
<path d="M1680.84 1099.94C1657.55 1100.4 1634.09 1102.82 1611.69 1109.47C1596.17 1114.07 1581.19 1120.85 1568.09 1130.44C1563.52 1133.79 1559.24 1137.48 1555.19 1141.44C1541.39 1154.94 1541.15 1177.08 1554.66 1190.88C1568.16 1204.67 1590.3 1204.91 1604.09 1191.41C1613.7 1181.99 1626.91 1177.33 1639.81 1174.5C1651.93 1171.84 1664.37 1170.77 1676.75 1170.41C1691.75 1169.96 1706.78 1170.62 1721.72 1171.97C1753.92 1174.89 1785.82 1180.35 1817.5 1186.72C1850.19 1193.3 1882.66 1200.92 1915.16 1208.38C1931.41 1212.1 1947.66 1215.86 1963.97 1219.34C1979.3 1222.62 1994.7 1225.69 2010.22 1227.97C2030.4 1230.9 2049.13 1216.9 2052.06 1196.72C2054.99 1176.54 2040.99 1157.8 2020.81 1154.88C2005.07 1152.62 1989.48 1149.43 1973.94 1146.12C1952.23 1141.51 1930.61 1136.46 1908.94 1131.69C1876.24 1124.48 1843.48 1117.59 1810.47 1111.94C1775.9 1106.02 1741.06 1101.59 1706 1100.19C1697.62 1099.85 1689.22 1099.77 1680.84 1099.94Z" fill="#fffff1" stroke="none"/>
</g>
<g filter="url(#Filter_22)" opacity="0.515504" vectornator:blur="61.2403">
<path d="M1186.65 1634.43C1338.85 1627.18 1490.03 1659.72 1643.95 1648.72" fill="#ffffff" fill-rule="nonzero" stroke="none"/>
<path d="M1220.97 1598.5C1209.01 1598.64 1197.03 1598.95 1185.06 1599.5C1165.78 1600.37 1150.85 1616.71 1151.72 1636C1152.59 1655.29 1168.93 1670.21 1188.22 1669.34C1232.9 1667.37 1277.67 1668.7 1322.28 1671.69C1369.78 1674.87 1417.15 1679.59 1464.62 1683.03C1472.67 1683.61 1480.7 1684.26 1488.75 1684.75C1495.61 1685.17 1502.48 1685.48 1509.34 1685.84C1518.69 1686.34 1528.05 1686.86 1537.41 1687.16C1573.77 1688.31 1610.16 1687.99 1646.47 1685.56C1666.81 1684.17 1682.18 1666.53 1680.78 1646.19C1679.38 1625.84 1661.78 1610.48 1641.44 1611.88C1619.91 1613.39 1598.33 1614.16 1576.75 1614.22C1555.42 1614.28 1534.09 1613.57 1512.78 1612.69C1506.13 1612.41 1499.49 1612.2 1492.84 1611.88C1485.8 1611.53 1478.79 1611.04 1471.75 1610.62C1388.23 1605.75 1304.67 1597.53 1220.97 1598.5Z" fill="#fffff1" stroke="none"/>
</g>
</g>
</svg>
