<?xml version="1.0" encoding="UTF-8" standalone="no"?>
<!-- Created with Vectornator (http://vectornator.io/) -->

<svg
   height="1784.2413"
   stroke-miterlimit="10"
   style="clip-rule:evenodd;fill-rule:nonzero;stroke-linecap:round;stroke-linejoin:round"
   version="1.1"
   viewBox="0 0 1711.578 1784.2413"
   width="1711.578"
   xml:space="preserve"
   id="svg205"
   sodipodi:docname="Laplace Zettel.svg"
   inkscape:version="1.2.2 (732a01da63, 2022-12-09)"
   xmlns:inkscape="http://www.inkscape.org/namespaces/inkscape"
   xmlns:sodipodi="http://sodipodi.sourceforge.net/DTD/sodipodi-0.dtd"
   xmlns="http://www.w3.org/2000/svg"
   xmlns:svg="http://www.w3.org/2000/svg"
   xmlns:vectornator="http://vectornator.io"><sodipodi:namedview
   id="namedview207"
   pagecolor="#ffffff"
   bordercolor="#000000"
   borderopacity="0.25"
   inkscape:showpageshadow="2"
   inkscape:pageopacity="0.0"
   inkscape:pagecheckerboard="0"
   inkscape:deskcolor="#d1d1d1"
   showgrid="false"
   inkscape:zoom="0.35105526"
   inkscape:cx="1204.9385"
   inkscape:cy="823.23221"
   inkscape:window-width="1920"
   inkscape:window-height="1017"
   inkscape:window-x="-8"
   inkscape:window-y="-8"
   inkscape:window-maximized="1"
   inkscape:current-layer="svg205" />
<defs
   id="defs2" />
<g
   id="Ebene-1"
   vectornator:layerName="Ebene 1"
   transform="translate(-482.32674,-371.69369)">
<path
   d="m 915.785,580.178 h 805.225 c 2.99,0 5.41,2.42 5.41,5.406 V 1713.91 c 0,2.99 -2.42,5.41 -5.41,5.41 H 915.785 c -2.985,0 -5.406,-2.42 -5.406,-5.41 V 585.584 c 0,-2.986 2.421,-5.406 5.406,-5.406 z"
   fill="#fff3e4"
   fill-rule="nonzero"
   opacity="1"
   stroke="#713c15"
   stroke-linecap="butt"
   stroke-linejoin="round"
   stroke-opacity="0.103604"
   stroke-width="16.9393"
   id="path4" />
<path
   d="m 1186.34,380.24 793,139.793 c 2.94,0.518 4.91,3.321 4.39,6.261 L 1787.84,1637.49 c -0.52,2.94 -3.32,4.9 -6.26,4.38 L 988.581,1502.08 c -2.94,-0.52 -4.903,-3.32 -4.385,-6.26 L 1180.08,384.625 c 0.52,-2.94 3.32,-4.903 6.26,-4.385 z"
   fill="#fff3e4"
   fill-rule="nonzero"
   opacity="1"
   stroke="#713c15"
   stroke-linecap="butt"
   stroke-linejoin="round"
   stroke-opacity="0.103604"
   stroke-width="16.9393"
   id="path6" />
<path
   d="M 495.279,744.29 1288.82,607.611 c 2.94,-0.507 5.74,1.467 6.25,4.409 l 191.52,1111.95 c 0.51,2.95 -1.47,5.74 -4.41,6.25 L 688.638,1866.9 c -2.942,0.5 -5.738,-1.47 -6.245,-4.41 L 490.87,750.535 c -0.507,-2.942 1.467,-5.738 4.409,-6.245 z"
   fill="#fff3e4"
   fill-rule="nonzero"
   opacity="1"
   stroke="#713c15"
   stroke-linecap="butt"
   stroke-linejoin="round"
   stroke-opacity="0.103604"
   stroke-width="16.9393"
   id="path8" />
<path
   d="m 1194.05,873.569 793.54,-136.68 c 2.94,-0.507 5.74,1.467 6.25,4.409 l 191.52,1111.952 c 0.51,2.94 -1.47,5.74 -4.41,6.25 l -793.54,136.68 c -2.94,0.5 -5.74,-1.47 -6.25,-4.41 L 1189.64,879.813 c -0.51,-2.942 1.47,-5.737 4.41,-6.244 z"
   fill="#fff3e4"
   fill-rule="nonzero"
   opacity="1"
   stroke="#713c15"
   stroke-linecap="butt"
   stroke-linejoin="round"
   stroke-opacity="0.103604"
   stroke-width="16.9393"
   id="path10" />
<path
   d="m 1125.19,790.635 747.86,298.485 c 2.78,1.1 4.13,4.25 3.02,7.02 l -418.25,1047.95 c -1.1,2.77 -4.25,4.12 -7.02,3.01 L 702.935,1848.62 c -2.772,-1.11 -4.123,-4.25 -3.016,-7.02 L 1118.17,793.652 c 1.11,-2.773 4.25,-4.124 7.02,-3.017 z"
   fill="#fff3e4"
   fill-rule="nonzero"
   opacity="1"
   stroke="#713c15"
   stroke-linecap="butt"
   stroke-linejoin="round"
   stroke-opacity="0.103604"
   stroke-width="16.9393"
   id="path12" />
<g
   fill="#000000"
   opacity="1"
   stroke="none"
   id="g52">
<path
   d="m 1197.2,1040.32 c -3.93,5.21 -7.64,10.83 -11.12,16.85 -12.57,-5.55 -21.54,-9.42 -26.93,-11.59 -5.31,-2.16 -14.34,-5.58 -27.06,-10.26 -0.53,-0.22 -0.61,-0.79 -0.23,-1.72 0.33,-0.83 0.78,-1.17 1.34,-1.02 4.21,1.16 7.25,1.52 9.11,1.07 1.86,-0.44 3.42,-2.21 4.67,-5.3 l 18.98,-46.913 c 0.95,-2.327 1.32,-4.082 1.12,-5.264 -0.2,-1.183 -0.92,-2.344 -2.16,-3.484 -1.24,-1.14 -3.21,-2.448 -5.9,-3.924 -0.53,-0.215 -0.61,-0.788 -0.23,-1.719 0.38,-0.93 0.83,-1.288 1.36,-1.073 2.23,0.901 4.85,2.077 7.86,3.527 2.88,1.397 5.33,2.505 7.36,3.326 2.02,0.82 4.54,1.722 7.55,2.707 3.13,1.038 5.82,2.007 8.04,2.908 0.53,0.216 0.61,0.789 0.24,1.719 -0.38,0.931 -0.83,1.288 -1.37,1.073 -2.92,-0.797 -5.23,-1.218 -6.91,-1.261 -1.69,-0.043 -3,0.286 -3.94,0.988 -0.94,0.702 -1.89,2.233 -2.85,4.592 l -19.59,48.408 c -1.58,3.92 -0.45,6.66 3.41,8.22 l 9.87,4 c 4.09,1.65 7.98,1.96 11.69,0.93 3.7,-1.03 8.14,-3.97 13.31,-8.8 0.24,-0.21 0.61,-0.22 1.11,-0.02 0.43,0.18 0.78,0.48 1.06,0.9 0.27,0.42 0.34,0.79 0.21,1.13 z"
   id="path14" />
<path
   d="m 1225.27,1074.31 c -1.86,-0.76 -3.3,-1.87 -4.3,-3.34 -1.01,-1.47 -1.45,-3.09 -1.32,-4.86 -5.03,2.22 -10.43,2.17 -16.18,-0.16 -2.99,-1.21 -5.06,-3.12 -6.21,-5.73 -1.14,-2.62 -1.16,-5.3 -0.04,-8.06 2.75,-6.81 13.06,-9.06 30.92,-6.75 l 3.45,-7.65 0.1,-0.25 c 0.97,-2.39 1.15,-4.54 0.54,-6.43 -0.61,-1.89 -1.89,-3.23 -3.85,-4.02 -1.96,-0.79 -3.82,-0.99 -5.56,-0.6 -1.75,0.4 -2.93,1.3 -3.54,2.72 -0.89,2.11 -2.12,3.55 -3.69,4.31 -1.56,0.76 -3.24,0.78 -5.03,0.05 -1.07,-0.43 -1.8,-1.1 -2.21,-2 -0.41,-0.9 -0.4,-1.88 0.03,-2.94 1.03,-2.56 4.45,-4.3 10.24,-5.23 5.79,-0.93 10.67,-0.58 14.66,1.03 3.59,1.46 6.07,3.7 7.44,6.72 1.36,3.03 1.32,6.34 -0.13,9.93 l -0.25,0.6 -9.81,22.25 -0.14,0.35 c -1.42,3.49 -0.99,5.69 1.27,6.61 1.09,0.44 2.64,0.29 4.64,-0.45 l 0.39,0.05 c 0.27,0.1 0.45,0.38 0.54,0.82 0.09,0.45 0.05,0.87 -0.11,1.27 -0.39,0.96 -1.87,1.73 -4.45,2.31 -2.57,0.59 -5.04,0.4 -7.4,-0.55 z m 1.4,-25.55 c -10.59,-1.73 -16.91,-0.07 -18.95,4.98 -1.91,4.72 -1.04,7.82 2.62,9.3 1.76,0.71 3.67,0.97 5.74,0.79 2.07,-0.19 3.66,-0.81 4.79,-1.87 z"
   id="path16" />
<path
   d="m 1293.79,1076.04 c -2.65,6.55 -7.06,11.08 -13.22,13.59 -6.16,2.52 -12.69,2.38 -19.57,-0.4 -3.95,-1.6 -7.03,-3.74 -9.24,-6.41 l -6.21,15.36 c -1.31,3.22 -1.75,5.52 -1.34,6.88 0.42,1.37 1.98,2.81 4.69,4.34 0.53,0.21 0.61,0.78 0.23,1.71 -0.37,0.93 -0.83,1.29 -1.36,1.08 -1.36,-0.55 -3.08,-1.37 -5.16,-2.44 -2.25,-1.14 -4.17,-2.03 -5.77,-2.68 -1.66,-0.67 -3.71,-1.39 -6.15,-2.14 -2.21,-0.66 -3.99,-1.27 -5.35,-1.82 -0.54,-0.22 -0.61,-0.79 -0.24,-1.72 0.38,-0.93 0.83,-1.29 1.36,-1.07 2.98,0.77 5.1,0.82 6.36,0.13 1.27,-0.69 2.55,-2.64 3.85,-5.87 l 17.88,-44.17 c 1.08,-2.65 1.44,-4.54 1.1,-5.64 -0.35,-1.11 -1.65,-2.27 -3.9,-3.49 -0.53,-0.22 -0.62,-0.76 -0.27,-1.62 0.32,-0.8 0.75,-1.09 1.28,-0.88 3.55,0.51 6.62,0.69 9.21,0.54 2.59,-0.15 4.39,-0.45 5.38,-0.9 0.53,-0.25 0.96,-0.31 1.29,-0.17 0.93,0.37 1.29,0.83 1.07,1.36 l -2.94,6.12 c 2.6,-1.15 5.35,-1.89 8.26,-2.2 2.91,-0.31 5.21,-0.12 6.91,0.56 6.55,2.65 10.87,6.89 12.96,12.7 2.1,5.82 1.72,12.24 -1.11,19.25 z m -9.98,-4.16 c 2.24,-5.55 2.79,-10.36 1.64,-14.44 -1.16,-4.09 -3.91,-7.01 -8.26,-8.77 -1.83,-0.74 -3.64,-1.03 -5.43,-0.86 -1.79,0.16 -4.03,0.9 -6.72,2.21 l -9.89,24.43 c -0.86,2.12 -0.63,4.28 0.68,6.48 1.32,2.2 3.34,3.85 6.07,4.95 4.52,1.83 8.66,1.52 12.43,-0.92 3.78,-2.43 6.93,-6.79 9.48,-13.08 z"
   id="path18" />
<path
   d="m 1315.26,1107.71 c -0.38,0.93 -0.83,1.28 -1.36,1.07 -1.37,-0.55 -3.08,-1.34 -5.14,-2.37 -2.32,-1.13 -4.3,-2.03 -5.93,-2.69 -1.59,-0.65 -3.6,-1.36 -6.03,-2.15 -2.2,-0.7 -3.97,-1.32 -5.34,-1.87 -0.53,-0.22 -0.61,-0.79 -0.23,-1.72 0.34,-0.83 0.78,-1.17 1.34,-1.02 2.96,0.81 5.07,0.88 6.33,0.21 1.26,-0.67 2.54,-2.64 3.86,-5.89 l 18.74,-46.32 c 1.09,-2.69 1.47,-4.59 1.15,-5.69 -0.33,-1.1 -1.64,-2.26 -3.92,-3.5 -0.51,-0.28 -0.61,-0.8 -0.3,-1.57 0.33,-0.79 0.75,-1.09 1.28,-0.87 3.86,0.51 7.1,0.72 9.74,0.6 2.64,-0.11 4.38,-0.4 5.23,-0.87 0.48,-0.23 0.92,-0.27 1.31,-0.1 0.94,0.37 1.29,0.83 1.08,1.36 -3.55,7.23 -6.15,12.9 -7.82,17.03 l -17.61,43.52 c -1.32,3.25 -1.77,5.56 -1.35,6.91 0.42,1.35 1.99,2.77 4.72,4.26 0.5,0.28 0.59,0.83 0.25,1.67 z"
   id="path20" />
<path
   d="m 1350.2,1124.86 c -1.86,-0.75 -3.29,-1.86 -4.3,-3.33 -1.01,-1.48 -1.45,-3.09 -1.31,-4.86 -5.04,2.22 -10.43,2.16 -16.18,-0.16 -2.99,-1.21 -5.06,-3.12 -6.21,-5.74 -1.15,-2.61 -1.17,-5.29 -0.05,-8.05 2.76,-6.81 13.07,-9.06 30.93,-6.75 l 3.44,-7.65 0.11,-0.25 c 0.96,-2.4 1.14,-4.54 0.54,-6.43 -0.61,-1.89 -1.9,-3.23 -3.86,-4.02 -1.96,-0.8 -3.81,-0.99 -5.56,-0.6 -1.74,0.4 -2.92,1.3 -3.54,2.72 -0.89,2.11 -2.12,3.55 -3.68,4.31 -1.57,0.76 -3.25,0.77 -5.04,0.05 -1.06,-0.43 -1.8,-1.1 -2.21,-2 -0.41,-0.9 -0.4,-1.88 0.03,-2.94 1.04,-2.56 4.45,-4.31 10.24,-5.23 5.79,-0.93 10.68,-0.58 14.67,1.03 3.59,1.45 6.06,3.69 7.43,6.72 1.37,3.03 1.32,6.34 -0.13,9.93 l -0.24,0.6 -9.82,22.25 -0.14,0.35 c -1.41,3.49 -0.99,5.69 1.27,6.6 1.1,0.45 2.65,0.3 4.65,-0.44 l 0.39,0.05 c 0.26,0.1 0.44,0.38 0.53,0.82 0.09,0.44 0.06,0.87 -0.1,1.26 -0.39,0.97 -1.88,1.74 -4.45,2.32 -2.58,0.59 -5.05,0.4 -7.41,-0.56 z m 1.41,-25.54 c -10.6,-1.73 -16.91,-0.07 -18.96,4.98 -1.91,4.72 -1.04,7.82 2.62,9.3 1.76,0.71 3.68,0.97 5.74,0.79 2.07,-0.19 3.67,-0.81 4.79,-1.87 z"
   id="path22" />
<path
   d="m 1416.35,1107.65 c -1.1,2.73 -3.02,3.54 -5.74,2.44 -1.17,-0.47 -2.02,-1.11 -2.57,-1.91 -0.54,-0.8 -0.86,-2.19 -0.96,-4.16 -0.1,-2.32 -0.53,-4 -1.3,-5.02 -0.76,-1.03 -1.96,-1.87 -3.59,-2.53 -4.02,-1.63 -7.76,-1.2 -11.22,1.29 -3.47,2.49 -6.49,6.94 -9.09,13.35 -2.17,5.35 -2.58,10.2 -1.25,14.55 1.34,4.35 4.23,7.43 8.68,9.23 5.06,2.04 9.7,2.09 13.93,0.13 h 0.29 c 0.3,0.12 0.52,0.43 0.64,0.92 0.13,0.5 0.1,0.98 -0.09,1.45 -0.26,0.66 -1.7,1.41 -4.3,2.26 -2.61,0.84 -5.23,1.21 -7.88,1.1 -2.64,-0.1 -5.26,-0.68 -7.86,-1.73 -5.95,-2.41 -10.15,-6.65 -12.62,-12.74 -2.47,-6.08 -2.36,-12.47 0.35,-19.15 2.67,-6.61 7.11,-11.19 13.3,-13.73 6.19,-2.54 12.33,-2.58 18.41,-0.12 4.49,1.82 7.97,4.13 10.46,6.93 2.48,2.8 3.28,5.28 2.41,7.44 z"
   id="path24" />
<path
   d="m 1459.02,1134.67 c -0.37,0.93 -1.16,1.15 -2.36,0.67 l -27.32,-11.06 c -0.92,1.72 -1.77,3.54 -2.55,5.47 -2.17,5.35 -2.56,9.98 -1.18,13.88 1.38,3.9 4.41,6.8 9.09,8.7 2.36,0.95 5,1.28 7.9,0.99 2.9,-0.29 5.48,-1.13 7.74,-2.5 l 0.29,0.01 c 0.3,0.12 0.52,0.42 0.65,0.9 0.13,0.48 0.1,0.97 -0.1,1.47 -0.28,0.69 -1.94,1.72 -4.96,3.07 -3.02,1.35 -6.01,2.1 -8.97,2.25 -2.97,0.16 -5.81,-0.32 -8.54,-1.42 -5.98,-2.42 -10.13,-6.65 -12.44,-12.69 -2.31,-6.05 -2.18,-12.26 0.4,-18.64 2.64,-6.51 6.88,-11.22 12.71,-14.12 5.83,-2.9 11.83,-3.1 17.97,-0.62 5.16,2.09 8.8,5.53 10.94,10.32 2.14,4.79 2.39,9.23 0.73,13.32 z m -7.29,-8.06 c 1,-2.49 0.99,-4.91 -0.06,-7.24 -1.05,-2.34 -2.91,-4.06 -5.61,-5.14 -2.56,-1.04 -5.21,-0.87 -7.95,0.52 -2.75,1.38 -5.16,3.68 -7.24,6.9 l 14.02,5.21 c 2.11,0.82 3.68,1.22 4.71,1.21 1.03,-0.01 1.74,-0.49 2.13,-1.46 z"
   id="path26" />
<path
   d="m 1495.64,1142.53 c -0.72,1.79 -1.52,2.52 -2.38,2.17 l -25.93,-10.49 c -0.86,-0.35 -0.93,-1.43 -0.2,-3.22 0.75,-1.86 1.56,-2.62 2.42,-2.27 l 25.93,10.49 c 0.86,0.35 0.92,1.46 0.16,3.32 z"
   id="path28" />
<path
   d="m 1158.57,1142.93 c -5.02,4.66 -9.43,9.25 -13.24,13.79 -12.37,-5.47 -21.21,-9.28 -26.53,-11.44 -5.25,-2.12 -14.24,-5.53 -26.96,-10.21 -0.53,-0.22 -0.61,-0.79 -0.23,-1.72 0.33,-0.83 0.78,-1.17 1.34,-1.02 2.89,0.78 5.18,1.19 6.87,1.24 1.68,0.04 3,-0.29 3.96,-0.98 0.96,-0.7 1.91,-2.21 2.85,-4.53 l 18.98,-46.92 c 0.93,-2.29 1.31,-4.02 1.15,-5.19 -0.17,-1.17 -0.87,-2.33 -2.1,-3.49 -1.23,-1.16 -3.2,-2.47 -5.89,-3.95 -0.53,-0.21 -0.61,-0.79 -0.23,-1.72 0.38,-0.93 0.83,-1.28 1.36,-1.07 8.22,3.79 16.71,7.46 25.49,11.01 8.84,3.58 17.51,6.85 26.01,9.83 -1.32,5.46 -2.26,11 -2.83,16.61 -0.27,0.66 -0.99,0.76 -2.15,0.29 -0.56,-0.23 -0.82,-0.6 -0.76,-1.12 0.71,-8.84 -2.95,-14.89 -11,-18.14 l -10.07,-4.08 c -3.85,-1.56 -6.59,-0.34 -8.2,3.64 l -8.98,22.19 12.56,5.08 c 3.33,1.35 5.89,1.49 7.69,0.44 1.8,-1.05 3.71,-3.42 5.75,-7.12 0.22,-0.54 0.79,-0.61 1.72,-0.24 0.93,0.38 1.29,0.83 1.08,1.37 -0.68,1.66 -1.62,3.71 -2.85,6.16 -1.18,2.34 -2.08,4.28 -2.7,5.81 -0.63,1.56 -1.34,3.59 -2.12,6.1 -0.85,2.67 -1.61,4.84 -2.28,6.5 -0.22,0.54 -0.79,0.61 -1.72,0.24 -0.93,-0.38 -1.29,-0.83 -1.07,-1.37 1.14,-4.25 1.42,-7.45 0.83,-9.58 -0.59,-2.13 -2.46,-3.84 -5.62,-5.12 l -12.56,-5.08 -9.93,24.53 c -1.58,3.92 -0.45,6.66 3.41,8.22 l 10.86,4.4 c 3.96,1.6 8.4,1.9 13.33,0.9 4.93,-1.01 9.09,-3.06 12.48,-6.18 0.26,-0.25 0.6,-0.28 1.03,-0.11 0.47,0.19 0.83,0.49 1.1,0.88 0.26,0.4 0.32,0.78 0.17,1.15 z"
   id="path30" />
<path
   d="m 1203.18,1178.5 c -0.38,0.93 -0.83,1.29 -1.36,1.07 -1.33,-0.53 -2.97,-1.31 -4.92,-2.33 -2.14,-1.1 -4.03,-1.98 -5.66,-2.64 -1.66,-0.68 -3.8,-1.42 -6.4,-2.25 -2.41,-0.74 -4.28,-1.38 -5.61,-1.92 -0.53,-0.21 -0.61,-0.78 -0.23,-1.71 0.34,-0.84 0.78,-1.18 1.34,-1.03 2.73,0.72 4.36,0.43 4.88,-0.87 0.43,-1.06 0.2,-3.49 -0.7,-7.3 l -1.84,-7.65 -6.8,4.21 c -3.76,2.19 -5.81,3.72 -6.16,4.59 -0.48,1.2 0.53,2.51 3.04,3.96 0.44,0.25 0.49,0.79 0.16,1.62 -0.38,0.93 -0.83,1.29 -1.36,1.08 -1.2,-0.49 -2.67,-1.2 -4.42,-2.14 -1.88,-0.99 -3.45,-1.74 -4.71,-2.25 -1.4,-0.57 -3.06,-1.1 -4.98,-1.61 -1.5,-0.41 -2.68,-0.79 -3.54,-1.14 -0.53,-0.22 -0.61,-0.79 -0.24,-1.72 0.34,-0.83 0.82,-1.16 1.45,-0.99 3,0.79 5.4,0.98 7.2,0.57 1.79,-0.42 4.71,-1.72 8.77,-3.91 l 10.69,-5.77 -3.73,-15.43 c -1.09,-4.39 -2.13,-7.34 -3.12,-8.86 -0.99,-1.52 -2.68,-2.92 -5.06,-4.2 -0.51,-0.28 -0.58,-0.85 -0.23,-1.72 0.37,-0.93 0.83,-1.28 1.36,-1.07 1.36,0.55 3.03,1.34 5.01,2.38 2.22,1.13 4.12,2.01 5.71,2.66 1.63,0.66 3.68,1.37 6.16,2.14 2.21,0.66 3.99,1.27 5.35,1.82 0.54,0.21 0.61,0.79 0.24,1.72 -0.34,0.83 -0.79,1.17 -1.35,1.02 -2.44,-0.64 -3.94,-0.3 -4.47,1.03 -0.43,1.06 -0.18,3.49 0.77,7.27 l 1.71,6.96 6.16,-3.77 c 3.7,-2.25 5.72,-3.8 6.05,-4.63 0.49,-1.19 -0.5,-2.48 -2.96,-3.86 -0.5,-0.29 -0.58,-0.86 -0.23,-1.72 0.38,-0.93 0.83,-1.29 1.36,-1.08 1.17,0.47 2.64,1.19 4.42,2.14 1.81,0.97 3.35,1.7 4.61,2.21 1.43,0.58 3.12,1.13 5.08,1.65 1.5,0.42 2.66,0.79 3.49,1.13 0.53,0.21 0.61,0.78 0.23,1.71 -0.33,0.84 -0.81,1.16 -1.44,0.99 -3.05,-0.77 -5.48,-0.94 -7.28,-0.51 -1.8,0.43 -4.68,1.72 -8.64,3.87 l -10.09,5.43 3.93,16.1 c 1.03,4.32 2.03,7.25 3,8.78 0.97,1.53 2.67,2.97 5.11,4.3 0.5,0.28 0.59,0.84 0.25,1.67 z"
   id="path32" />
<path
   d="m 1260.31,1178.53 c -2.64,6.55 -7.05,11.08 -13.21,13.6 -6.16,2.51 -12.69,2.38 -19.57,-0.41 -3.95,-1.6 -7.03,-3.74 -9.24,-6.41 l -6.21,15.36 c -1.31,3.22 -1.75,5.52 -1.34,6.88 0.42,1.37 1.98,2.81 4.69,4.34 0.53,0.21 0.61,0.78 0.23,1.72 -0.38,0.93 -0.83,1.28 -1.36,1.07 -1.36,-0.55 -3.09,-1.37 -5.16,-2.44 -2.25,-1.14 -4.17,-2.03 -5.77,-2.68 -1.66,-0.67 -3.71,-1.39 -6.15,-2.14 -2.21,-0.66 -3.99,-1.27 -5.36,-1.82 -0.53,-0.22 -0.6,-0.79 -0.23,-1.72 0.38,-0.93 0.83,-1.29 1.36,-1.07 2.98,0.78 5.1,0.82 6.36,0.13 1.27,-0.68 2.55,-2.64 3.85,-5.86 l 17.88,-44.17 c 1.08,-2.66 1.44,-4.55 1.1,-5.65 -0.35,-1.11 -1.65,-2.27 -3.9,-3.49 -0.53,-0.22 -0.62,-0.76 -0.27,-1.62 0.32,-0.8 0.75,-1.09 1.28,-0.88 3.55,0.51 6.62,0.69 9.21,0.54 2.59,-0.15 4.39,-0.45 5.38,-0.9 0.53,-0.25 0.96,-0.31 1.29,-0.17 0.93,0.38 1.29,0.83 1.07,1.36 l -2.94,6.12 c 2.6,-1.15 5.35,-1.89 8.26,-2.2 2.91,-0.31 5.21,-0.12 6.91,0.57 6.55,2.64 10.87,6.88 12.96,12.7 2.09,5.81 1.72,12.23 -1.12,19.24 z m -9.98,-4.15 c 2.25,-5.55 2.8,-10.37 1.65,-14.45 -1.16,-4.09 -3.91,-7.01 -8.26,-8.77 -1.83,-0.74 -3.64,-1.03 -5.43,-0.86 -1.79,0.16 -4.03,0.9 -6.72,2.21 l -9.89,24.43 c -0.86,2.12 -0.63,4.29 0.68,6.48 1.32,2.2 3.34,3.85 6.07,4.95 4.52,1.83 8.66,1.52 12.43,-0.91 3.78,-2.44 6.93,-6.8 9.47,-13.08 z"
   id="path34" />
<path
   d="m 1310.19,1190.48 c -0.37,0.93 -1.16,1.15 -2.36,0.67 l -27.32,-11.06 c -0.92,1.71 -1.78,3.54 -2.56,5.46 -2.16,5.35 -2.56,9.98 -1.18,13.89 1.38,3.9 4.42,6.8 9.1,8.7 2.36,0.95 4.99,1.28 7.9,0.99 2.9,-0.3 5.48,-1.13 7.74,-2.5 h 0.29 c 0.3,0.12 0.51,0.42 0.65,0.9 0.13,0.48 0.1,0.97 -0.1,1.47 -0.29,0.7 -1.94,1.72 -4.96,3.07 -3.02,1.35 -6.01,2.1 -8.98,2.26 -2.96,0.15 -5.8,-0.32 -8.53,-1.42 -5.98,-2.43 -10.13,-6.66 -12.44,-12.7 -2.31,-6.04 -2.18,-12.25 0.4,-18.63 2.64,-6.52 6.87,-11.22 12.71,-14.12 5.83,-2.9 11.82,-3.11 17.97,-0.62 5.15,2.09 8.8,5.52 10.94,10.32 2.14,4.79 2.39,9.23 0.73,13.32 z m -7.3,-8.06 c 1.01,-2.49 0.99,-4.91 -0.05,-7.25 -1.05,-2.34 -2.92,-4.05 -5.61,-5.14 -2.56,-1.03 -5.21,-0.86 -7.96,0.52 -2.74,1.39 -5.15,3.69 -7.23,6.91 l 14.02,5.21 c 2.11,0.81 3.68,1.22 4.71,1.21 1.02,-0.01 1.73,-0.5 2.12,-1.46 z"
   id="path36" />
<path
   d="m 1355.53,1195.71 c -0.54,1.33 -1.4,2.3 -2.59,2.9 -1.19,0.6 -2.37,0.67 -3.53,0.19 -1.47,-0.59 -2.72,-1.65 -3.76,-3.2 -0.82,-1.22 -1.64,-2 -2.47,-2.33 -2.16,-0.88 -4.9,-0.52 -8.22,1.08 l -9.07,22.44 c -1.18,2.89 -1.49,5.11 -0.96,6.66 0.53,1.55 2.34,3.2 5.42,4.95 0.51,0.28 0.59,0.84 0.26,1.67 -0.38,0.93 -0.84,1.29 -1.37,1.07 -1.36,-0.55 -3.25,-1.43 -5.66,-2.64 -2.68,-1.31 -4.83,-2.3 -6.46,-2.96 -1.66,-0.67 -3.71,-1.39 -6.15,-2.14 -2.21,-0.66 -4,-1.27 -5.36,-1.82 -0.53,-0.22 -0.61,-0.79 -0.23,-1.72 0.34,-0.83 0.78,-1.17 1.34,-1.02 3.04,0.8 5.17,0.87 6.39,0.2 1.22,-0.67 2.48,-2.63 3.8,-5.89 l 7.47,-18.44 c 1.07,-2.66 1.44,-4.54 1.09,-5.65 -0.34,-1.11 -1.64,-2.27 -3.89,-3.49 -0.53,-0.22 -0.63,-0.76 -0.28,-1.62 0.33,-0.8 0.75,-1.09 1.29,-0.87 3.62,0.5 6.71,0.67 9.27,0.53 2.55,-0.15 4.31,-0.45 5.27,-0.91 0.56,-0.24 1.04,-0.28 1.44,-0.12 0.93,0.38 1.29,0.83 1.07,1.36 l -2.94,6.12 c 3.65,-1.38 6.64,-2.18 8.95,-2.41 2.32,-0.22 4.42,0.05 6.32,0.82 1.52,0.62 2.64,1.65 3.33,3.09 0.69,1.44 0.77,2.82 0.23,4.15 z"
   id="path38" />
<path
   d="m 1384.01,1181.54 c -0.56,1.39 -1.56,2.4 -2.99,3.02 -1.43,0.62 -2.86,0.64 -4.29,0.06 -1.43,-0.57 -2.44,-1.58 -3.04,-3.02 -0.6,-1.45 -0.61,-2.86 -0.05,-4.26 0.59,-1.46 1.59,-2.49 2.99,-3.08 1.4,-0.6 2.83,-0.6 4.3,-0.01 1.42,0.58 2.44,1.58 3.05,2.98 0.61,1.41 0.62,2.84 0.03,4.31 z m -17.41,63.09 c -0.38,0.94 -0.83,1.29 -1.36,1.08 -1.37,-0.55 -3.07,-1.36 -5.12,-2.42 -2.31,-1.17 -4.28,-2.08 -5.91,-2.74 -1.66,-0.67 -3.69,-1.38 -6.1,-2.12 -2.18,-0.65 -3.94,-1.25 -5.31,-1.8 -0.53,-0.22 -0.61,-0.79 -0.23,-1.72 0.34,-0.83 0.78,-1.17 1.34,-1.02 2.98,0.77 5.07,0.83 6.29,0.16 1.22,-0.67 2.48,-2.63 3.8,-5.88 l 7.47,-18.45 c 1.07,-2.66 1.44,-4.54 1.09,-5.65 -0.34,-1.11 -1.61,-2.26 -3.79,-3.45 -0.53,-0.21 -0.63,-0.75 -0.28,-1.62 0.33,-0.8 0.75,-1.09 1.29,-0.87 3.85,0.51 7.09,0.71 9.73,0.6 2.64,-0.11 4.37,-0.39 5.21,-0.82 0.49,-0.27 0.94,-0.32 1.34,-0.16 0.93,0.38 1.29,0.83 1.07,1.37 -3.54,7.23 -6.15,12.9 -7.82,17.02 l -6.33,15.66 c -1.32,3.25 -1.78,5.55 -1.36,6.87 0.41,1.33 1.98,2.76 4.73,4.3 0.5,0.28 0.59,0.83 0.25,1.66 z"
   id="path40" />
<path
   d="m 1449.91,1278.35 c -0.38,0.93 -0.84,1.29 -1.37,1.07 -1.33,-0.54 -2.91,-1.3 -4.76,-2.28 -2.05,-1.06 -3.9,-1.92 -5.56,-2.6 -1.63,-0.65 -3.55,-1.31 -5.76,-1.98 -2.01,-0.58 -3.69,-1.14 -5.06,-1.69 -0.53,-0.22 -0.6,-0.79 -0.23,-1.72 0.34,-0.83 0.79,-1.17 1.34,-1.03 2.37,0.65 4.11,0.6 5.23,-0.14 1.11,-0.75 2.34,-2.77 3.67,-6.06 l 6.74,-16.65 c 1.52,-3.76 1.91,-6.78 1.17,-9.07 -0.74,-2.29 -2.63,-4.06 -5.69,-5.29 -4.02,-1.63 -7.9,-1.61 -11.62,0.05 l -9.45,23.33 c -1.33,3.29 -1.84,5.6 -1.52,6.93 0.31,1.32 1.54,2.58 3.7,3.76 0.5,0.28 0.59,0.83 0.25,1.67 -0.38,0.93 -0.83,1.28 -1.36,1.07 -1.33,-0.54 -2.84,-1.26 -4.52,-2.18 -1.84,-0.98 -3.57,-1.79 -5.16,-2.43 -1.66,-0.68 -3.51,-1.31 -5.56,-1.9 -1.84,-0.52 -3.42,-1.04 -4.75,-1.58 -0.54,-0.22 -0.61,-0.79 -0.24,-1.72 0.34,-0.83 0.79,-1.17 1.35,-1.02 2.4,0.66 4.16,0.62 5.29,-0.12 1.14,-0.74 2.37,-2.76 3.7,-6.05 l 6.74,-16.65 c 1.5,-3.72 1.88,-6.74 1.11,-9.06 -0.76,-2.32 -2.67,-4.1 -5.73,-5.34 -1.93,-0.78 -3.78,-1.1 -5.55,-0.97 -1.78,0.13 -3.89,0.79 -6.34,1.96 l -9.08,22.43 c -1.33,3.3 -1.84,5.6 -1.55,6.92 0.3,1.32 1.54,2.58 3.73,3.77 0.5,0.28 0.59,0.84 0.25,1.67 -0.38,0.93 -0.83,1.29 -1.36,1.07 -1.36,-0.55 -2.99,-1.32 -4.87,-2.32 -2.08,-1.07 -3.93,-1.94 -5.56,-2.59 -1.66,-0.68 -3.59,-1.34 -5.8,-2 -1.98,-0.57 -3.65,-1.13 -5.01,-1.68 -0.53,-0.22 -0.61,-0.79 -0.23,-1.72 0.33,-0.83 0.78,-1.17 1.34,-1.02 2.97,0.77 5.07,0.83 6.29,0.16 1.21,-0.67 2.48,-2.63 3.8,-5.89 l 7.47,-18.44 c 1.07,-2.66 1.44,-4.54 1.09,-5.65 -0.34,-1.11 -1.61,-2.26 -3.79,-3.45 -0.54,-0.22 -0.63,-0.76 -0.28,-1.62 0.33,-0.8 0.75,-1.09 1.28,-0.87 3.63,0.5 6.75,0.67 9.37,0.51 2.62,-0.16 4.34,-0.46 5.18,-0.9 0.49,-0.26 0.94,-0.31 1.34,-0.15 0.93,0.38 1.28,0.83 1.07,1.36 l -2.94,6.12 c 6.59,-2.51 11.94,-2.94 16.06,-1.27 6.32,2.56 9.62,6.72 9.92,12.48 7.01,-2.8 12.93,-3.23 17.75,-1.28 4.55,1.84 7.58,4.57 9.07,8.19 1.49,3.62 1.35,7.63 -0.42,12.02 l -7.71,19.04 c -1.32,3.26 -1.77,5.55 -1.36,6.88 0.41,1.32 1.96,2.74 4.63,4.25 0.51,0.28 0.59,0.84 0.26,1.67 z"
   id="path42" />
<path
   d="m 1504.32,1269.04 c -0.37,0.93 -1.16,1.15 -2.36,0.67 l -27.32,-11.06 c -0.92,1.72 -1.78,3.54 -2.56,5.47 -2.16,5.35 -2.55,9.97 -1.18,13.88 1.38,3.9 4.42,6.8 9.1,8.7 2.36,0.95 4.99,1.28 7.9,0.99 2.9,-0.3 5.48,-1.13 7.74,-2.5 h 0.29 c 0.3,0.13 0.51,0.43 0.65,0.91 0.13,0.48 0.1,0.96 -0.1,1.46 -0.28,0.7 -1.94,1.72 -4.96,3.07 -3.02,1.35 -6.01,2.11 -8.98,2.26 -2.96,0.15 -5.8,-0.32 -8.53,-1.42 -5.98,-2.42 -10.13,-6.65 -12.44,-12.7 -2.31,-6.04 -2.18,-12.25 0.4,-18.63 2.64,-6.51 6.87,-11.22 12.71,-14.12 5.83,-2.9 11.82,-3.11 17.97,-0.62 5.15,2.09 8.8,5.53 10.94,10.32 2.14,4.79 2.39,9.23 0.73,13.32 z m -7.3,-8.06 c 1.01,-2.49 0.99,-4.91 -0.05,-7.25 -1.05,-2.33 -2.92,-4.05 -5.61,-5.14 -2.56,-1.03 -5.21,-0.86 -7.96,0.53 -2.74,1.38 -5.15,3.68 -7.23,6.9 l 14.02,5.21 c 2.11,0.82 3.68,1.22 4.71,1.21 1.02,-0.01 1.73,-0.5 2.12,-1.46 z"
   id="path44" />
<path
   d="m 1551.21,1319.34 c -0.38,0.93 -0.83,1.29 -1.36,1.08 -1.33,-0.54 -2.92,-1.3 -4.77,-2.28 -2.05,-1.06 -3.88,-1.92 -5.51,-2.58 -1.66,-0.67 -3.61,-1.35 -5.86,-2.02 -2.04,-0.59 -3.72,-1.16 -5.05,-1.7 -0.53,-0.21 -0.61,-0.79 -0.24,-1.72 0.34,-0.83 0.79,-1.17 1.35,-1.02 2.4,0.66 4.16,0.62 5.3,-0.12 1.13,-0.74 2.36,-2.76 3.69,-6.05 l 6.74,-16.65 c 1.51,-3.72 1.88,-6.74 1.11,-9.06 -0.76,-2.32 -2.67,-4.1 -5.73,-5.34 -1.92,-0.78 -3.78,-1.1 -5.55,-0.97 -1.78,0.13 -3.89,0.79 -6.34,1.96 l -9.07,22.44 c -1.34,3.29 -1.85,5.59 -1.56,6.91 0.3,1.32 1.54,2.58 3.73,3.77 0.5,0.28 0.59,0.84 0.25,1.67 -0.37,0.93 -0.83,1.29 -1.36,1.07 -1.36,-0.55 -2.98,-1.32 -4.86,-2.31 -2.08,-1.08 -3.94,-1.94 -5.57,-2.6 -1.59,-0.65 -3.49,-1.3 -5.7,-1.96 -2.04,-0.6 -3.74,-1.17 -5.11,-1.72 -0.53,-0.22 -0.61,-0.79 -0.23,-1.72 0.34,-0.83 0.78,-1.17 1.34,-1.02 3.01,0.79 5.13,0.85 6.37,0.17 1.24,-0.68 2.52,-2.63 3.82,-5.85 l 7.47,-18.45 c 1.07,-2.66 1.44,-4.54 1.09,-5.65 -0.34,-1.1 -1.64,-2.27 -3.89,-3.49 -0.53,-0.21 -0.63,-0.75 -0.28,-1.62 0.33,-0.8 0.75,-1.09 1.29,-0.87 3.62,0.5 6.74,0.67 9.36,0.51 2.62,-0.16 4.34,-0.46 5.18,-0.89 0.49,-0.27 0.94,-0.32 1.34,-0.16 0.93,0.38 1.29,0.83 1.07,1.37 l -2.94,6.12 c 6.59,-2.52 11.94,-2.94 16.06,-1.28 4.52,1.83 7.53,4.56 9.02,8.18 1.5,3.62 1.36,7.62 -0.42,12.01 l -7.71,19.05 c -1.31,3.25 -1.77,5.54 -1.36,6.87 0.41,1.33 1.96,2.75 4.64,4.25 0.5,0.29 0.58,0.84 0.25,1.67 z"
   id="path46" />
<path
   d="m 1601.65,1295.2 c -0.73,1.79 -1.52,2.52 -2.39,2.17 l -14.69,-6.42 -9.68,23.93 c -2.53,6.25 -1.57,10.28 2.88,12.08 2.76,1.12 5.53,1.48 8.32,1.1 0.26,0.11 0.43,0.38 0.51,0.82 0.07,0.43 0.03,0.85 -0.13,1.25 -0.34,0.83 -2.03,1.45 -5.08,1.86 -3.05,0.41 -6.11,-0.01 -9.21,-1.26 -3.78,-1.53 -6.34,-3.91 -7.67,-7.13 -1.32,-3.23 -1.22,-6.73 0.32,-10.52 l 0.18,-0.45 10,-24.15 c 0.38,-0.93 0.17,-1.56 -0.63,-1.88 l -3.79,-1.53 c -0.73,-0.3 -0.92,-0.88 -0.57,-1.74 0.27,-0.67 0.77,-1.05 1.5,-1.14 5.72,-0.85 11.3,-3.06 16.73,-6.63 0.58,-0.38 1.15,-0.46 1.72,-0.23 0.93,0.37 1.28,0.83 1.07,1.36 l -4.25,9.36 14.65,5.93 c 0.87,0.35 0.94,1.42 0.21,3.22 z"
   id="path48" />
<path
   d="m 1640.92,1324.32 c -0.38,0.93 -1.16,1.15 -2.36,0.67 l -27.32,-11.06 c -0.92,1.72 -1.78,3.54 -2.56,5.47 -2.16,5.35 -2.56,9.97 -1.18,13.88 1.38,3.9 4.42,6.8 9.1,8.7 2.36,0.95 4.99,1.28 7.9,0.99 2.9,-0.3 5.48,-1.13 7.74,-2.5 h 0.29 c 0.3,0.13 0.51,0.43 0.65,0.91 0.13,0.48 0.1,0.96 -0.1,1.46 -0.29,0.7 -1.94,1.72 -4.96,3.07 -3.02,1.35 -6.01,2.11 -8.98,2.26 -2.96,0.15 -5.8,-0.32 -8.53,-1.42 -5.98,-2.42 -10.13,-6.65 -12.44,-12.7 -2.32,-6.04 -2.18,-12.25 0.4,-18.63 2.64,-6.51 6.87,-11.22 12.71,-14.12 5.83,-2.9 11.82,-3.11 17.97,-0.62 5.15,2.09 8.8,5.53 10.94,10.32 2.14,4.79 2.39,9.23 0.73,13.32 z m -7.3,-8.06 c 1.01,-2.49 0.99,-4.91 -0.05,-7.25 -1.05,-2.33 -2.92,-4.05 -5.61,-5.14 -2.56,-1.03 -5.21,-0.86 -7.96,0.53 -2.74,1.38 -5.15,3.68 -7.23,6.9 l 14.02,5.21 c 2.11,0.82 3.68,1.22 4.71,1.21 1.02,-0.01 1.73,-0.5 2.12,-1.46 z"
   id="path50" />
</g>
<g
   opacity="1"
   id="g58">
<path
   d="m 601.811,837.205 c 0.468,11.15 -0.814,22.513 1.405,33.45 1.904,9.381 2.188,30.822 10.785,26.613 10.822,-5.299 4.307,-23.729 7.211,-35.424 1.604,-6.46 -0.05,-16.933 6.292,-18.952 5.543,-1.765 8.468,8.247 11.196,13.384 3.788,7.136 1.595,18.002 8.049,22.861 4.123,3.105 10.629,-2.39 14.244,-6.076 3.532,-3.601 3.434,-9.498 5.53,-14.087 3.81,-8.343 3.712,-21.137 12.174,-24.677 5.711,-2.389 6.702,10.495 10.941,15.006 4.37,4.65 8.487,13.758 14.693,12.271 7.856,-1.882 10.582,-12.326 14.655,-19.303 2.813,-4.819 0.97,-12.887 5.784,-15.709 4.274,-2.506 10.164,1.243 14.341,3.908 4.253,2.713 5.651,8.68 9.828,11.509 4.62,3.129 10.398,4.071 15.709,5.784 4.715,1.521 9.455,4.729 14.341,3.909 6.153,-1.033 10.168,-8.431 16.374,-9.066 5.551,-0.567 10.473,3.857 15.709,5.785"
   fill="#000000"
   fill-opacity="0"
   fill-rule="nonzero"
   stroke="none"
   id="path54" />
<path
   d="m 730,816.906 c -1.367,-0.163 -2.748,-0.159 -4.156,0.032 -6.305,0.854 -10.779,5.27 -12.625,11.218 -0.573,1.846 -0.868,3.751 -1.157,5.656 -0.185,1.228 -0.308,2.499 -0.687,3.688 -0.272,0.854 -0.869,1.652 -1.281,2.438 -0.55,1.049 -1.051,2.119 -1.563,3.187 -1.214,2.536 -2.357,5.162 -3.937,7.5 -0.389,0.575 -0.845,1.107 -1.344,1.594 -0.085,-0.09 -0.165,-0.187 -0.219,-0.25 -0.673,-0.785 -1.314,-1.613 -1.937,-2.438 -1.616,-2.139 -3.244,-4.199 -4.969,-6.25 -0.478,-0.568 -0.772,-1.394 -1.063,-2.062 -0.636,-1.467 -1.205,-2.99 -1.812,-4.469 -2.066,-5.031 -4.909,-9.986 -10.656,-11.281 -0.87,-0.196 -1.701,-0.282 -2.594,-0.281 -2.334,0.002 -4.54,0.756 -6.562,1.874 -1.224,0.677 -2.401,1.498 -3.438,2.438 -6.597,5.983 -7.797,14.371 -10.219,22.438 -0.851,2.833 -2.154,5.482 -2.937,8.343 -0.278,1.015 -0.433,1.681 -0.688,2.688 -0.271,1.069 -0.592,3.034 -1.344,3.937 -0.4,0.482 -1.195,1.209 -1.656,1.625 -0.393,0.355 -0.901,0.773 -1.344,1.125 -0.244,0.195 -0.528,0.347 -0.781,0.532 -0.223,-0.727 -0.445,-1.448 -0.593,-2.219 -0.651,-3.379 -1.022,-6.801 -1.938,-10.125 -0.785,-2.849 -2.119,-5.396 -3.344,-8.063 -3.075,-6.694 -6.782,-14.793 -15.125,-15.625 -1.042,-0.104 -2.089,-0.095 -3.125,0.063 -1.647,0.251 -3.268,0.84 -4.718,1.656 -1.366,0.768 -2.62,1.761 -3.657,2.937 -4.822,5.473 -4.454,12.543 -5.343,19.313 -0.165,1.253 -0.5,2.443 -0.719,3.687 -0.462,2.618 -0.628,5.284 -0.657,7.938 -0.003,0.291 0,0.584 0,0.875 -0.237,-1.328 -0.453,-2.665 -0.656,-4 -0.372,-2.451 -0.579,-4.93 -0.687,-7.406 -0.324,-7.423 0.073,-14.855 -0.157,-22.281 -0.143,-4.701 -4.049,-8.394 -8.75,-8.25 -4.7,0.143 -8.393,4.08 -8.25,8.781 0.228,7.499 -0.167,15.003 0.157,22.5 0.133,3.085 0.38,6.164 0.843,9.219 0.338,2.221 0.819,4.429 1.126,6.656 0.697,5.058 1.19,10.142 2.343,15.125 1.466,6.337 4.339,13.337 11.375,15.031 1.051,0.253 2.044,0.37 3.125,0.344 2.806,-0.069 5.48,-1.167 7.781,-2.719 1.423,-0.959 2.68,-2.122 3.782,-3.437 7.371,-8.804 4.707,-21.23 5.125,-31.688 0.048,-1.216 0.153,-2.458 0.375,-3.656 0.206,-1.115 0.503,-2.192 0.687,-3.313 0.144,-0.878 0.189,-1.771 0.281,-2.656 0.57,1.175 1.159,2.229 1.5,3.5 0.572,2.129 0.837,4.36 1.188,6.531 0.577,3.571 1.347,7.142 2.969,10.406 2.64,5.314 7.576,9.438 13.687,9.438 1.431,0 2.846,-0.237 4.219,-0.625 4.137,-1.17 7.776,-3.791 10.937,-6.625 2.278,-2.042 4.3,-4.206 5.719,-6.938 1.74,-3.348 2.331,-7.026 3.438,-10.593 0.588,-1.896 1.531,-3.674 2.156,-5.563 1.082,-3.269 1.858,-6.649 2.875,-9.937 0.865,1.981 1.803,3.933 3.125,5.656 0.839,1.093 1.822,2.088 2.656,3.187 4.476,5.902 8.755,12.399 16.813,13.25 0.953,0.101 1.922,0.068 2.875,-0.031 1.569,-0.163 3.131,-0.571 4.593,-1.156 8.563,-3.425 12.176,-11.772 15.969,-19.469 1.289,-2.616 2.825,-5.041 3.625,-7.875 0.605,-2.141 0.866,-4.353 1.282,-6.531 1.151,0.551 2.275,1.204 3.343,1.875 0.452,0.284 0.918,0.491 1.281,0.875 0.788,0.832 1.379,1.859 2,2.812 1.223,1.875 2.449,3.841 4,5.469 3.584,3.76 8.414,5.903 13.282,7.438 2.935,0.925 5.988,1.55 8.875,2.625 1.999,0.744 3.903,1.666 5.906,2.406 3.41,1.259 7.039,2.071 10.687,1.688 5.961,-0.626 10.117,-4.058 14.626,-7.594 0.543,-0.427 1.141,-0.777 1.718,-1.156 0.102,-0.068 0.169,-0.202 0.282,-0.25 0.092,-0.04 0.182,0.021 0.281,0 0.139,-0.03 0.256,-0.106 0.406,-0.126 0.134,0.023 0.276,0.058 0.406,0.094 0.33,0.093 0.652,0.214 0.969,0.344 0.838,0.343 1.636,0.767 2.438,1.188 2.393,1.255 4.742,2.509 7.25,3.531 4.605,1.862 9.856,-0.364 11.718,-4.969 1.863,-4.605 -0.363,-9.825 -4.968,-11.688 -2.748,-1.099 -5.232,-2.68 -7.907,-3.937 -4.007,-1.884 -8.522,-3.104 -12.969,-2.313 -0.68,0.122 -1.335,0.311 -2,0.5 -0.886,0.253 -1.807,0.454 -2.656,0.813 -0.851,0.36 -1.637,0.882 -2.437,1.344 -1.24,0.715 -2.397,1.564 -3.531,2.437 -1.064,0.819 -2.093,1.651 -3.157,2.469 -1.371,1.054 -1.876,1.67 -3.437,1.281 -2.064,-0.513 -4.006,-1.552 -5.969,-2.344 -2.401,-0.968 -4.884,-1.68 -7.375,-2.374 -1.98,-0.552 -3.955,-1.072 -5.875,-1.813 -0.73,-0.282 -1.466,-0.599 -2.156,-0.969 -0.233,-0.125 -0.433,-0.304 -0.688,-0.375 -0.253,-0.198 -0.528,-0.392 -0.75,-0.625 -0.772,-0.811 -1.359,-1.943 -1.969,-2.875 -1.046,-1.602 -2.11,-3.182 -3.374,-4.625 -1.91,-2.179 -4.191,-3.763 -6.657,-5.25 -3.527,-2.126 -7.429,-4.009 -11.531,-4.5 z"
   fill="#000000"
   stroke="none"
   id="path56" />
</g>
<g
   opacity="1"
   id="g64">
<path
   d="m 908.3,800.486 c 3.934,6.708 4.238,21.938 11.801,20.125 10.481,-2.511 8.156,-21.869 17.547,-27.158 5.436,-3.061 11.996,4.04 17.077,7.66 4.108,2.927 4.843,10.728 9.827,11.509 5.847,0.916 11.923,-3.27 16.12,-7.443 3.577,-3.558 0.555,-13.252 5.53,-14.088 6.033,-1.013 9.555,7.759 14.948,10.65 4.92,2.636 10.24,6.911 15.71,5.784 5.36,-1.105 6.79,-9.155 11.76,-11.449 6.28,-2.902 13.57,-3.856 20.48,-3.438 5.03,0.305 9.35,3.787 14.09,5.53 5.74,2.114 11.55,4.025 17.33,6.038"
   fill="#000000"
   fill-opacity="0"
   fill-rule="nonzero"
   stroke="none"
   id="path60" />
<path
   d="m 986.625,782.219 c -4.952,0.198 -9.232,3.097 -11.094,7.75 -0.901,2.252 -1.173,4.638 -1.406,7.031 -0.079,0.812 -0.154,1.631 -0.281,2.438 -0.011,0.07 -0.022,0.104 -0.032,0.156 -1.43,1.317 -2.892,2.578 -4.624,3.5 -0.654,0.347 -1.344,0.629 -2.063,0.812 -0.096,-0.169 -0.228,-0.374 -0.281,-0.468 -1.289,-2.294 -2.421,-4.618 -4.156,-6.626 -1.189,-1.374 -2.565,-2.407 -4,-3.5 -1.697,-1.291 -3.345,-2.673 -5.063,-3.937 -3.898,-2.867 -8.307,-5.281 -13.281,-5.25 -4.501,0.028 -8.62,2.343 -11.594,5.625 -2.47,2.726 -4.142,6.002 -5.469,9.406 -0.612,1.572 -1.135,3.209 -1.656,4.813 -0.438,1.349 -0.859,2.697 -1.344,4.031 -0.054,0.149 -0.132,0.289 -0.187,0.438 -0.052,-0.177 -0.105,-0.355 -0.156,-0.532 -1.149,-3.962 -2.192,-7.971 -4.219,-11.594 -2.305,-4.099 -7.495,-5.555 -11.594,-3.25 -4.099,2.306 -5.555,7.495 -3.25,11.594 1.38,2.432 1.95,5.343 2.719,8 1.724,5.962 3.98,12.713 10.062,15.5 1.135,0.52 2.356,0.867 3.594,1.032 1.627,0.215 3.282,0.1 4.875,-0.282 1.25,-0.299 2.475,-0.769 3.625,-1.344 6.686,-3.341 9.445,-10.133 11.656,-16.812 0.837,-2.527 1.619,-5.084 2.75,-7.5 0.266,-0.568 0.635,-1.065 1,-1.562 0.211,0.117 0.42,0.245 0.625,0.374 0.78,0.492 1.521,1.032 2.25,1.594 1.402,1.082 2.756,2.229 4.157,3.313 0.445,0.345 0.892,0.694 1.343,1.031 0.025,0.019 0.033,0.073 0.063,0.062 0.033,0.039 0.04,0.064 0.062,0.094 0.046,0.063 0.114,0.123 0.156,0.188 0.064,0.096 0.096,0.183 0.157,0.281 0.264,0.429 0.512,0.869 0.75,1.313 1.734,3.238 3.495,6.527 6.531,8.75 7.498,5.489 17.702,2.004 24.469,-2.938 1.315,-0.961 2.578,-1.995 3.781,-3.094 0.914,-0.834 1.812,-1.699 2.562,-2.687 1.261,-1.659 2.004,-3.596 2.532,-5.594 0.163,0.172 0.303,0.363 0.468,0.531 1.163,1.182 2.214,2.2 3.563,3.188 1.417,1.037 2.993,1.824 4.5,2.718 4.795,2.844 9.775,5.695 15.495,5.813 4.94,0.102 9.37,-1.882 12.69,-5.5 1.43,-1.551 2.6,-3.332 3.78,-5.063 0.47,-0.68 0.91,-1.384 1.5,-1.968 0.72,-0.297 1.43,-0.592 2.16,-0.844 1.71,-0.589 3.49,-1 5.28,-1.281 2.34,-0.369 4.72,-0.506 7.09,-0.438 0.65,0.019 1.36,-0.014 2,0.125 1.9,0.406 3.65,1.504 5.35,2.375 1.81,0.931 3.62,1.804 5.53,2.531 5.79,2.209 11.71,4.125 17.56,6.157 4.7,1.623 9.85,-0.868 11.47,-5.563 1.62,-4.694 -0.87,-9.814 -5.56,-11.437 -4.32,-1.491 -8.66,-2.955 -12.97,-4.469 -1.66,-0.582 -3.35,-1.127 -4.97,-1.812 -1.82,-0.774 -3.56,-1.761 -5.34,-2.626 -2.37,-1.148 -4.83,-2.15 -7.41,-2.687 -2.38,-0.495 -4.83,-0.554 -7.25,-0.531 -3.49,0.032 -6.98,0.343 -10.41,1.031 -5.67,1.142 -11.75,3.058 -15.78,7.437 -1.46,1.588 -2.64,3.404 -3.84,5.188 -0.31,0.456 -0.64,0.905 -0.97,1.344 -0.03,0.043 -0.06,0.083 -0.09,0.125 -0.11,-0.027 -0.24,-0.061 -0.35,-0.094 -0.22,-0.067 -0.44,-0.163 -0.65,-0.25 -0.59,-0.242 -1.22,-0.548 -1.78,-0.844 -1.66,-0.874 -3.25,-1.889 -4.88,-2.812 -0.58,-0.329 -1.2,-0.585 -1.75,-0.969 -0.87,-0.61 -1.6,-1.513 -2.31,-2.281 -1.04,-1.124 -2.04,-2.263 -3.126,-3.344 -3.492,-3.477 -7.894,-6.11 -12.969,-5.906 z"
   fill="#000000"
   stroke="none"
   id="path62" />
</g>
<g
   opacity="1"
   id="g70">
<path
   d="m 657.235,1013.7 c -3.029,12.27 -14.643,25.45 -9.088,36.79 3.805,7.77 13.375,-11.42 17.899,-18.79 6.8,-11.09 5.408,-27.67 15.574,-35.777 5.168,-4.123 3.177,12.857 5.314,19.107 1.668,4.89 1.792,11.37 6.076,14.25 4.563,3.07 11.555,3.38 16.471,0.92 4.817,-2.42 3.479,-12.58 8.774,-13.58 5.789,-1.1 10.133,6.01 15.2,9.02"
   fill="#000000"
   fill-opacity="0"
   fill-rule="nonzero"
   stroke="none"
   id="path66" />
<path
   d="m 680.969,986.688 c -2.612,0.504 -4.75,2.142 -6.625,3.937 -2.656,2.542 -4.735,5.578 -6.344,8.875 -1.546,3.17 -2.563,6.51 -3.469,9.88 -1.088,-1.84 -2.84,-3.27 -5.062,-3.88 -4.538,-1.24 -9.201,1.43 -10.438,5.97 -2.021,7.45 -6.31,14.03 -8.812,21.31 -2.274,6.62 -3.042,13.76 -0.25,20.34 0.7,1.66 1.567,3.26 2.843,4.54 0.822,0.82 1.682,1.45 2.719,2 5.188,2.71 10.527,0.54 14.375,-3.25 4.226,-4.17 7.216,-9.53 10.188,-14.6 1.629,-2.78 3.424,-5.53 4.875,-8.4 1.056,-2.1 1.906,-4.28 2.656,-6.5 0.668,-1.98 1.149,-4.02 1.687,-6.03 1.345,5.66 2.841,11.16 7.594,15 5.792,4.66 14.2,5.87 21.313,4.21 2.439,-0.57 4.902,-1.46 6.969,-2.9 3.369,-2.35 5.059,-6.01 6.343,-9.78 0.778,0.71 1.52,1.48 2.281,2.15 1.497,1.32 3.03,2.49 4.688,3.6 4.147,2.73 9.734,1.58 12.469,-2.57 2.734,-4.14 1.585,-9.73 -2.563,-12.47 -2.377,-1.53 -4.335,-3.59 -6.5,-5.4 -3.384,-2.83 -7.43,-5.05 -11.937,-5.19 -1.126,-0.03 -2.366,0.05 -3.469,0.28 -4.705,0.99 -8.067,4.28 -10,8.57 -0.762,1.69 -1.247,3.45 -1.812,5.21 -0.107,0.34 -0.224,0.68 -0.344,1 -0.407,0.11 -0.831,0.21 -1.25,0.25 -1.736,0.19 -3.358,-0.12 -4.906,-0.87 -0.921,-1.79 -1.248,-3.84 -1.719,-5.78 -0.344,-1.42 -0.807,-2.82 -1.188,-4.22 -0.248,-0.91 -0.312,-1.88 -0.406,-2.81 -0.481,-4.78 -0.297,-9.804 -1.719,-14.441 -1.657,-5.406 -6.279,-9.172 -12.187,-8.031 z"
   fill="#000000"
   stroke="none"
   id="path68" />
</g>
<g
   opacity="1"
   id="g76">
<path
   d="m 811.574,983.053 c 2.227,6.995 -0.508,22.467 6.681,20.987 11.035,-2.28 10.62,-21.806 20.791,-26.652 5.086,-2.423 10.006,5.843 13.325,10.395 3.319,4.552 0.256,14.997 5.822,15.867 7.683,1.2 15.215,-5.772 20.126,-11.801 5.285,-6.49 1.526,-19.212 8.676,-23.564 5.034,-3.064 10.053,6.159 15.201,9.028 4.534,2.527 8.96,8.94 13.833,7.152 8.122,-2.981 10.223,-14.804 17.898,-18.796 4.879,-2.537 11.465,-1.355 16.472,0.919 4.982,2.263 5.979,11.638 11.449,11.763 5.815,0.133 9.217,-7.138 13.385,-11.195 3.699,-3.601 5.023,-11.031 10.141,-11.703 6.71,-0.882 12.387,5.47 18.696,7.914 5.71,2.209 11.56,4.025 17.33,6.038"
   fill="#000000"
   fill-opacity="0"
   fill-rule="nonzero"
   stroke="none"
   id="path72" />
<path
   d="m 987.938,946.438 c -1.235,-0.09 -2.494,-0.052 -3.75,0.124 -4.756,0.668 -8.418,3.565 -11.094,7.438 -0.939,1.358 -1.719,2.817 -2.532,4.25 -0.536,0.947 -1.024,1.899 -1.781,2.688 -1.8,1.874 -3.396,3.923 -5.031,5.937 -0.229,0.282 -0.483,0.534 -0.719,0.813 -0.054,-0.093 -0.101,-0.189 -0.156,-0.282 -2.183,-3.701 -4.761,-7.057 -8.75,-8.937 -9.241,-4.356 -20.669,-4.663 -28.687,2.375 -3.94,3.458 -6.369,8.049 -9.376,12.25 -0.547,0.765 -1.112,1.491 -1.781,2.156 -0.047,0.047 -0.086,0.057 -0.125,0.094 -0.672,-0.502 -1.169,-0.882 -1.844,-1.438 -1.318,-1.087 -2.614,-2.195 -4.031,-3.156 -0.71,-0.482 -1.49,-0.845 -2.187,-1.344 -1.803,-1.289 -3.293,-3.114 -4.906,-4.625 -3.521,-3.297 -7.79,-6.106 -12.813,-5.812 -4.873,0.285 -9.135,3.499 -11.594,7.593 -1.139,1.897 -1.917,3.988 -2.469,6.126 -0.649,2.518 -0.944,5.145 -1.281,7.718 -0.242,1.854 -0.464,3.72 -1.156,5.469 -0.374,0.945 -1.281,1.737 -1.937,2.469 -1.802,2.008 -3.772,3.929 -6.063,5.375 -0.338,0.213 -0.737,0.314 -1.094,0.5 -0.014,-0.156 -0.016,-0.313 -0.031,-0.469 -0.27,-2.769 -0.677,-5.559 -1.812,-8.125 -1.084,-2.447 -2.841,-4.599 -4.407,-6.75 -3.221,-4.426 -7.253,-8.986 -12.843,-10.187 -1.198,-0.258 -2.434,-0.338 -3.657,-0.25 -2.48,0.176 -4.768,1.099 -6.843,2.437 -5.202,3.354 -8.23,8.885 -10.719,14.375 -0.488,1.076 -1.026,2.132 -1.5,3.219 -0.2,-2.653 -0.462,-5.281 -1.219,-7.844 -1.343,-4.507 -6.086,-7.061 -10.594,-5.719 -4.507,1.343 -7.092,6.055 -5.75,10.563 0.673,2.219 0.647,4.677 0.782,6.969 0.385,6.548 0.789,14.572 6.968,18.472 1.163,0.73 2.436,1.22 3.782,1.5 1.268,0.26 2.589,0.3 3.874,0.15 1.665,-0.19 3.316,-0.66 4.844,-1.34 6.778,-3.01 10.267,-9.66 13.125,-16.095 1.122,-2.525 2.181,-5.057 3.594,-7.437 0.181,-0.306 0.416,-0.566 0.625,-0.844 0.27,0.318 0.557,0.608 0.812,0.937 1.204,1.549 2.287,3.195 3.438,4.781 0.02,0.059 0.02,0.081 0.031,0.126 0.026,0.102 0.042,0.208 0.063,0.312 0.029,0.151 0.069,0.286 0.094,0.438 0.102,0.643 0.157,1.32 0.218,1.968 0.147,1.564 0.234,3.139 0.5,4.684 0.603,3.5 1.869,6.77 4.563,9.19 3.813,3.42 9.495,3.63 14.25,2.5 6.289,-1.49 11.664,-5.53 16.125,-10.06 1.594,-1.62 3.187,-3.321 4.531,-5.158 2.958,-4.042 3.991,-9.005 4.656,-13.874 0.162,-1.185 0.337,-2.354 0.531,-3.532 0.506,0.507 1.011,1.01 1.532,1.5 1.179,1.11 2.052,1.932 3.375,2.906 1.09,0.804 2.308,1.42 3.375,2.25 2.105,1.639 4.045,3.478 6.312,4.907 3.64,2.293 7.764,3.495 12.032,2.531 6.396,-1.445 10.986,-6.737 14.468,-11.938 1.16,-1.732 2.231,-3.531 3.5,-5.187 0.78,-1.017 1.601,-2.012 2.75,-2.625 0.679,-0.362 1.634,-0.36 2.375,-0.344 2.015,0.044 3.833,0.674 5.688,1.375 0.032,0.043 0.062,0.081 0.093,0.125 0.077,0.106 0.178,0.204 0.25,0.313 0.322,0.482 0.615,0.999 0.907,1.5 0.953,1.633 1.865,3.286 3.031,4.781 3.179,4.077 7.527,6.416 12.781,6 5.018,-0.398 9.198,-3.287 12.5,-6.906 1.523,-1.669 2.873,-3.482 4.313,-5.219 1.416,-1.708 2.999,-3.181 4.25,-5.031 1.141,-1.687 2.049,-3.505 3.094,-5.25 0.057,-0.096 0.128,-0.186 0.187,-0.282 0.071,0.026 0.149,0.036 0.219,0.063 0.855,0.329 1.652,0.782 2.437,1.25 2.114,1.26 4.159,2.651 6.313,3.844 3.249,1.799 6.756,2.996 10.246,4.219 3.87,1.352 7.76,2.636 11.63,3.968 4.7,1.613 9.82,-0.895 11.44,-5.594 1.61,-4.698 -0.9,-9.793 -5.6,-11.406 -3.84,-1.317 -7.69,-2.601 -11.53,-3.937 -2.13,-0.742 -4.34,-1.399 -6.37,-2.375 -2.77,-1.325 -5.27,-3.23 -7.941,-4.719 -3.259,-1.813 -6.828,-3.168 -10.531,-3.437 z"
   fill="#000000"
   stroke="none"
   id="path74" />
</g>
<g
   opacity="1"
   id="g82">
<path
   d="m 671.413,1167.12 c -3.465,4.44 -10.38,7.69 -10.396,13.33 -0.048,17.48 6.043,34.47 10.217,51.44 1.928,7.85 0.247,24.96 8.049,22.86 9.044,-2.43 5.1,-18.02 7.563,-27.06 1.446,-5.3 2.644,-10.67 4.162,-15.96 2.137,-7.44 -0.935,-22.01 6.801,-22.2 8.205,-0.2 8.693,14.06 11.546,21.75 2.65,7.15 3.204,14.9 4.806,22.35"
   fill="#000000"
   fill-opacity="0"
   fill-rule="nonzero"
   stroke="none"
   id="path78" />
<path
   d="m 670.562,1158.66 c -2.168,0.21 -4.261,1.24 -5.75,3.06 -1.303,1.6 -2.972,2.9 -4.5,4.28 -2.714,2.45 -5.257,5.16 -6.656,8.59 -1.247,3.07 -1.22,6.23 -1.094,9.47 0.124,3.18 0.418,6.32 0.844,9.47 1.279,9.45 3.714,18.69 6.188,27.88 0.845,3.14 1.713,6.25 2.5,9.4 0.374,1.5 0.802,3 1.031,4.53 0.288,1.93 0.432,3.9 0.594,5.85 0.611,7.34 1.213,17 8.562,21 0.807,0.44 1.707,0.79 2.594,1.03 1.348,0.36 2.765,0.48 4.156,0.37 2.058,-0.15 4.089,-0.78 5.907,-1.75 1.404,-0.74 2.67,-1.7 3.781,-2.84 6.921,-7.1 5.17,-17.7 6.219,-26.66 0.203,-1.74 0.709,-3.4 1.156,-5.09 0.704,-2.67 1.367,-5.33 2.062,-8 0.638,-2.45 1.464,-4.86 1.938,-7.34 0.004,-0.02 -0.004,-0.05 0,-0.07 0.703,2.37 1.605,4.63 2.187,7.04 1.316,5.42 1.998,10.98 3.063,16.46 0.952,4.88 5.655,8.08 10.531,7.13 4.875,-0.95 8.077,-5.69 7.125,-10.56 -1.129,-5.76 -1.883,-11.59 -3.281,-17.29 -0.597,-2.43 -1.398,-4.78 -2.188,-7.15 -1.724,-5.19 -2.347,-10.67 -4.531,-15.72 -1.603,-3.71 -4.034,-7.14 -7.594,-9.19 -6.905,-3.97 -15.826,-1.81 -19.562,5.38 -3.17,6.1 -2.367,13.08 -3.094,19.68 -0.219,1.99 -0.908,3.93 -1.406,5.85 -0.806,3.11 -1.547,6.23 -2.344,9.34 -0.22,0.86 -0.38,1.74 -0.594,2.6 -0.289,-1.05 -0.531,-2.11 -0.812,-3.16 -2.667,-9.92 -5.659,-19.81 -7.156,-30 -0.552,-3.75 -0.767,-7.5 -0.876,-11.28 0.639,-0.86 1.382,-1.62 2.188,-2.35 2.188,-1.96 4.376,-3.84 6.25,-6.12 2.977,-3.64 2.454,-8.99 -1.188,-11.97 -1.82,-1.49 -4.081,-2.09 -6.25,-1.87 z"
   fill="#000000"
   stroke="none"
   id="path80" />
</g>
<g
   opacity="1"
   id="g88">
<path
   d="m 805.761,1189.83 c 0.06,-21.59 -3.922,-43.57 0.179,-64.77 1.355,-7 6.663,12.74 8.557,19.62 3.079,11.18 4.351,22.78 6.271,34.21 0.946,5.64 -3.119,18.71 2.324,16.98 8.63,-2.75 11.561,-14.24 15.163,-22.55 2.612,-6.02 1.726,-13.03 3.049,-19.46 0.999,-4.85 0.99,-18.34 3.909,-14.34 5.508,7.56 3.32,18.42 5.665,27.47 2.148,8.29 -0.568,22.64 7.795,24.49 8.447,1.87 13.002,-11.67 17.898,-18.8 3.158,-4.6 0.489,-17.47 5.784,-15.71 8.112,2.7 8.708,14.71 13.169,22 3.035,4.96 3.962,12.49 9.319,14.76 4.963,2.1 11.257,-1.03 15.612,-4.2 5.54,-4.04 8.35,-10.88 12.525,-16.32"
   fill="#000000"
   fill-opacity="0"
   fill-rule="nonzero"
   stroke="none"
   id="path84" />
<path
   d="m 806.531,1115.03 c -1.102,0.04 -2.224,0.31 -3.25,0.72 -0.901,0.36 -1.687,0.92 -2.437,1.53 -0.587,0.48 -1.078,1.11 -1.532,1.72 -1.278,1.71 -1.637,3.83 -2,5.88 -0.257,1.44 -0.494,2.91 -0.687,4.37 -0.19,1.44 -0.365,2.9 -0.5,4.34 -1.754,18.76 1.04,37.52 1.125,56.29 0.02,4.7 3.86,8.48 8.562,8.46 2.499,-0.01 4.669,-1.12 6.219,-2.84 0.623,3.36 2.11,6.4 5.625,8.12 0.476,0.24 0.962,0.44 1.469,0.6 6.149,1.9 12.955,-2.54 16.813,-7.03 3.573,-4.17 5.783,-9.24 7.812,-14.28 0.857,6.2 2.824,12.26 8.625,15.59 1.686,0.97 3.579,1.59 5.5,1.88 1.52,0.22 3.071,0.24 4.594,0.03 10.934,-1.56 15.433,-12.92 20.5,-21.19 0.548,-0.9 1.075,-1.79 1.593,-2.69 0.238,0.64 0.459,1.28 0.719,1.91 0.364,0.87 0.736,1.74 1.157,2.59 0.716,1.45 1.618,2.81 2.281,4.28 1.136,2.53 2.027,5.18 3.343,7.63 1.859,3.46 4.41,6.52 7.907,8.4 9.144,4.92 20.553,0.17 27.75,-6.12 1.176,-1.03 2.265,-2.16 3.281,-3.34 3.537,-4.13 6.003,-8.99 9.219,-13.35 2.944,-4 2.094,-9.62 -1.907,-12.56 -4,-2.95 -9.618,-2.1 -12.562,1.91 -2.436,3.31 -4.476,6.91 -6.844,10.28 -1.057,1.5 -2.215,3 -3.718,4.09 -0.882,0.64 -1.805,1.21 -2.75,1.75 -1.093,0.62 -2.569,1.37 -3.907,1.38 -0.899,-1.33 -1.518,-2.81 -2.125,-4.29 -0.327,-0.8 -0.633,-1.5 -0.968,-2.28 -0.625,-1.45 -1.319,-2.84 -2.094,-4.22 -1.248,-2.21 -2.117,-4.57 -2.969,-6.97 -0.719,-2.02 -1.42,-4.03 -2.281,-6 -0.591,-1.34 -1.245,-2.67 -2,-3.93 -3.44,-5.76 -10.38,-11.41 -17.532,-9.44 -6.186,1.7 -8.149,7.49 -8.781,13.22 -0.166,1.51 -0.282,3.02 -0.469,4.53 -0.07,0.57 -0.146,1.16 -0.281,1.72 -0.025,0.1 -0.064,0.21 -0.093,0.31 -0.005,0.01 0.004,0.02 0,0.03 -0.159,0.25 -0.343,0.51 -0.5,0.75 -0.24,0.38 -0.488,0.75 -0.719,1.13 -0.92,1.51 -1.766,3.05 -2.625,4.59 -1.167,2.1 -2.383,4.21 -3.813,6.16 -0.049,-0.41 -0.113,-0.82 -0.156,-1.22 -0.317,-2.93 -0.387,-5.86 -0.687,-8.78 -0.151,-1.47 -0.363,-2.96 -0.657,-4.41 -0.216,-1.07 -0.519,-2.12 -0.719,-3.19 -0.242,-1.3 -0.378,-2.62 -0.5,-3.93 -0.535,-5.8 -0.605,-11.67 -2.437,-17.25 -1.493,-4.56 -4.365,-10.27 -9.437,-11.57 -0.743,-0.19 -1.515,-0.33 -2.282,-0.34 -1.579,-0.02 -3.186,0.41 -4.594,1.12 -3.04,1.55 -4.653,4.71 -5.406,7.88 -0.843,3.55 -0.983,7.25 -1.375,10.88 -0.294,2.72 -0.855,5.39 -1.093,8.12 -0.292,3.35 -0.271,6.82 -1.094,10.09 -0.49,1.95 -1.382,3.8 -2.156,5.66 -0.332,-2.06 -0.683,-4.12 -1,-6.19 -0.831,-5.4 -1.676,-10.8 -2.782,-16.15 -0.93,-4.51 -2.126,-8.95 -3.375,-13.38 -1.059,-3.75 -2.15,-7.5 -3.437,-11.19 -1.266,-3.62 -2.991,-8.34 -6.469,-10.37 -0.647,-0.38 -1.309,-0.77 -2.031,-0.97 -0.998,-0.28 -2.028,-0.51 -3.063,-0.47 z"
   fill="#000000"
   stroke="none"
   id="path86" />
</g>
<g
   opacity="1"
   id="g94">
<path
   d="m 697.915,1422.17 c 0.444,-9.9 -3.648,-21.14 1.33,-29.7 2.474,-4.26 11.824,-1.79 14.596,2.28 5.262,7.73 -1.95,22.05 5.665,27.47 5.366,3.83 11.23,-7.35 15.26,-12.56 3.817,-4.93 1.579,-15.68 7.66,-17.07 5.28,-1.21 6.234,8.86 9.574,13.13 3.586,4.57 5.401,12.86 11.195,13.38 5.793,0.52 8.923,-7.46 13.384,-11.19"
   fill="#000000"
   fill-opacity="0"
   fill-rule="nonzero"
   stroke="none"
   id="path90" />
<path
   d="m 705.594,1381.75 c -2.309,-0.17 -4.686,0.03 -6.875,0.81 -5.557,2 -8.188,6.82 -9.563,12.32 -1.253,5 -1.031,10.18 -0.562,15.28 0.361,3.92 0.923,7.83 0.812,11.78 -0.129,4.7 3.58,8.62 8.282,8.75 4.701,0.13 8.621,-3.58 8.75,-8.28 0.102,-3.79 -0.218,-7.52 -0.594,-11.29 -0.386,-3.85 -1.078,-8.06 -0.156,-11.9 0.101,0.03 0.21,0.02 0.312,0.06 0.254,0.11 0.486,0.23 0.719,0.38 0.029,0.02 0.048,0.02 0.093,0.06 0.105,0.34 0.247,0.67 0.313,1.03 0.416,2.27 0.197,4.65 0.094,6.94 -0.327,7.24 -0.221,14.72 5.375,20.09 0.838,0.81 1.783,1.56 2.781,2.16 0.997,0.59 2.066,1.07 3.187,1.37 1.129,0.31 2.3,0.43 3.469,0.41 7.961,-0.13 13.105,-7.31 17.219,-13.19 1.436,-2.05 3.107,-4.01 4.25,-6.25 0.327,-0.64 0.498,-1.33 0.75,-2 0.671,0.99 1.388,1.94 1.969,3 2.346,4.28 4.429,8.8 8.469,11.78 1.791,1.32 3.822,2.25 6,2.72 5.728,1.24 11.061,-1.2 15.062,-5.25 2.492,-2.52 4.312,-5.65 6.938,-8.03 3.646,-3.37 3.873,-9.04 0.5,-12.69 -3.374,-3.64 -9.073,-3.87 -12.719,-0.5 -2.091,1.96 -3.864,4.1 -5.625,6.35 -0.25,0.31 -0.526,0.62 -0.782,0.93 -0.314,-0.56 -0.635,-1.12 -0.937,-1.68 -1.161,-2.19 -2.324,-4.32 -3.781,-6.32 -1.487,-2.04 -2.224,-4.88 -3.282,-7.18 -2.406,-5.24 -6.292,-9.65 -12.437,-9.82 -4.468,-0.12 -8.818,2.18 -11.344,5.85 -1.354,1.96 -2.182,4.17 -2.781,6.47 -0.555,2.12 -0.772,4.32 -1.219,6.47 -0.116,0.55 -0.247,1.51 -0.562,1.96 -1.081,1.55 -2.186,3.11 -3.281,4.66 0.089,-2.98 0.237,-5.96 -0.063,-8.94 -0.364,-3.6 -1.392,-7.23 -3.5,-10.22 -3.408,-4.83 -9.47,-7.65 -15.281,-8.09 z"
   fill="#000000"
   stroke="none"
   id="path92" />
</g>
<g
   opacity="1"
   id="g100">
<path
   d="m 856.163,1377.17 c 0.69,6.2 1.38,12.41 2.07,18.61"
   fill="#000000"
   fill-opacity="0"
   fill-rule="nonzero"
   stroke="none"
   id="path96" />
<path
   d="m 855.219,1368.72 c -4.674,0.52 -8.052,4.73 -7.531,9.4 0.657,6.21 0.969,12.45 1.593,18.66 0.55,4.94 5.001,8.49 9.938,7.94 4.937,-0.55 8.518,-5 7.969,-9.94 -0.758,-6.2 -1.84,-12.36 -2.563,-18.56 -0.52,-4.68 -4.732,-8.02 -9.406,-7.5 z"
   fill="#000000"
   stroke="none"
   id="path98" />
</g>
<g
   opacity="1"
   id="g106">
<path
   d="m 749.609,1548.23 c 0.319,5.04 -2.614,11.54 0.957,15.11 3.508,3.5 10.004,-0.38 14.849,0.66 4.933,1.06 9.392,3.69 14.088,5.53"
   fill="#000000"
   fill-opacity="0"
   fill-rule="nonzero"
   stroke="none"
   id="path102" />
<path
   d="m 749.281,1539.72 c -4.699,0.18 -8.369,4.14 -8.187,8.84 0.074,1.8 -0.306,3.6 -0.532,5.38 -0.389,3.06 -0.561,6.11 0.25,9.12 1.778,6.6 7.476,10.45 14.157,10.47 1.777,0.01 3.559,-0.24 5.312,-0.5 1.031,-0.15 2.256,-0.47 3.313,-0.34 0.498,0.06 1.102,0.31 1.562,0.47 1.284,0.43 2.545,0.94 3.782,1.5 2.367,1.06 4.704,2.17 7.093,3.18 4.584,1.92 9.867,-0.26 11.781,-4.84 1.915,-4.58 -0.259,-9.87 -4.843,-11.78 -5.801,-2.39 -11.822,-5.87 -18.188,-6.25 -1.994,-0.12 -3.977,0.14 -5.937,0.47 -0.449,0.07 -0.897,0.16 -1.344,0.25 0.108,-0.8 0.245,-1.6 0.344,-2.38 0.229,-1.8 0.349,-3.59 0.281,-5.4 -0.182,-4.7 -4.144,-8.37 -8.844,-8.19 z"
   fill="#000000"
   stroke="none"
   id="path104" />
</g>
<g
   opacity="1"
   id="g112">
<path
   d="m 1315.3,497.701 c -3.21,20.969 -25.5,48.819 -9.64,62.908 13.48,11.974 28.24,-22.441 41.75,-34.38 4.41,-3.896 6.53,-15.424 11.91,-13.034 5.1,2.267 -5.58,9.856 -6.81,15.302 -2.27,10.144 -5.24,20.718 -3.59,30.982 1.2,7.474 4.64,16.752 11.71,19.459 6.98,2.671 15.14,-2.649 21.35,-6.799 5.88,-3.93 6.45,-17.654 13.42,-16.435 6.29,1.101 -0.79,13.198 1.69,19.081 3.03,7.16 9.45,12.343 14.17,18.515"
   fill="#000000"
   fill-opacity="0"
   fill-rule="nonzero"
   stroke="none"
   id="path108" />
<path
   d="m 1316.72,489.312 c -4.64,-0.786 -9.03,2.333 -9.81,6.969 -0.96,5.678 -3.05,11.055 -5.19,16.375 -2.58,6.401 -5.38,12.726 -7.47,19.313 -1.8,5.67 -3.11,11.673 -2.69,17.656 0.21,2.889 0.82,5.732 1.94,8.406 2.92,6.96 9.43,13.232 17.28,13.625 1.19,0.06 2.39,-0.018 3.56,-0.218 2.41,-0.411 4.67,-1.286 6.78,-2.5 3.89,-2.233 7.16,-5.445 10.1,-8.782 3.11,-3.524 5.91,-7.307 8.69,-11.094 -0.1,1.314 -0.31,2.618 -0.32,3.938 -0.06,9.144 2.4,19.494 8.1,26.812 1.54,1.98 3.36,3.772 5.43,5.188 1.82,1.235 3.8,2.204 5.91,2.812 10.1,2.912 19.88,-2.771 27.94,-8.25 0.69,-0.473 1.3,-1.035 1.91,-1.593 0.79,2.092 1.75,4.107 2.96,5.969 3.55,5.444 8.36,9.896 12.38,14.968 3.09,3.89 8.73,4.527 12.62,1.438 3.89,-3.09 4.56,-8.736 1.47,-12.625 -2.89,-3.629 -6.14,-6.926 -9.09,-10.5 -0.96,-1.166 -1.9,-2.397 -2.69,-3.688 -0.37,-0.613 -0.65,-1.253 -1,-1.875 0,-0.062 0,-0.125 0,-0.187 0.01,-0.347 0.03,-0.685 0.06,-1.031 0.06,-0.536 0.13,-0.965 0.22,-1.5 0.35,-2.108 0.82,-4.221 1.07,-6.344 0.67,-5.802 -0.74,-11.638 -6.38,-14.532 -0.78,-0.401 -1.56,-0.706 -2.41,-0.937 -1.14,-0.312 -2.35,-0.467 -3.53,-0.469 -6.24,-0.01 -10.53,4.096 -13.31,9.313 -1.18,2.219 -2.06,4.566 -3.19,6.812 -0.34,0.689 -0.7,1.35 -1.15,1.969 -0.02,0.01 -0.02,0.015 -0.03,0.031 -0.01,0.012 -0.03,0.02 -0.04,0.031 -0.45,0.303 -0.88,0.607 -1.34,0.907 -2.5,1.644 -5.12,3.29 -7.94,4.343 -2.58,0.965 -4.05,1.071 -5.81,-1.187 -1.74,-2.223 -2.75,-5.015 -3.44,-7.719 -1.85,-7.246 -0.75,-14.642 0.78,-21.844 0.45,-2.109 0.93,-4.208 1.41,-6.312 0.17,-0.755 0.34,-1.492 0.5,-2.25 1.02,-1.785 2.37,-3.353 3.62,-4.969 2.74,-3.514 5.39,-7.555 4.69,-12.25 -0.15,-0.995 -0.37,-1.892 -0.78,-2.812 -0.42,-0.949 -0.95,-1.738 -1.62,-2.531 -0.86,-1.007 -1.92,-1.824 -3.07,-2.469 -4.3,-2.427 -9.51,-1.912 -13.4,1.093 -2.95,2.276 -4.75,5.646 -6.44,8.876 -0.7,1.336 -1.37,2.729 -2.28,3.937 -0.57,0.754 -1.5,1.426 -2.16,2.094 -1.38,1.393 -2.69,2.865 -3.94,4.375 -4.7,5.69 -8.8,11.848 -13.28,17.718 -2.14,2.818 -4.37,5.636 -6.96,8.063 -1.08,1.006 -2.32,2.094 -3.76,2.563 -0.09,-0.069 -0.19,-0.143 -0.28,-0.219 -0.25,-0.225 -0.49,-0.469 -0.72,-0.719 -0.69,-0.758 -1.23,-1.653 -1.56,-2.625 -0.36,-1.047 -0.48,-2.149 -0.5,-3.25 -0.03,-1.567 0.15,-3.15 0.44,-4.687 0.45,-2.41 1.16,-4.741 1.94,-7.063 1.41,-4.212 3.09,-8.33 4.78,-12.437 3.24,-7.907 6.53,-15.845 7.97,-24.313 0.78,-4.637 -2.33,-9.026 -6.97,-9.813 z"
   fill="#000000"
   stroke="none"
   id="path110" />
</g>
<g
   opacity="1"
   id="g118">
<path
   d="m 1498.89,592.537 c 10.94,-3.691 21.36,-12.464 32.82,-11.073 5.86,0.711 6.37,10.216 7.64,15.983 0.77,3.455 -4.3,7.941 -1.81,10.456 2.63,2.665 7.54,-0.156 11.2,-0.967 4.51,-1 8.56,-3.775 13.13,-4.43 2.87,-0.411 6.05,-0.057 8.6,1.318 2.66,1.432 4.12,4.423 6.18,6.635"
   fill="#000000"
   fill-opacity="0"
   fill-rule="nonzero"
   stroke="none"
   id="path114" />
<path
   d="m 1530.81,572.688 c -2.66,-0.141 -5.38,0.205 -7.81,0.687 -9.7,1.926 -17.77,7.855 -26.97,11.125 -4.43,1.575 -6.73,6.444 -5.15,10.875 1.57,4.431 6.44,6.763 10.87,5.187 4.54,-1.611 8.79,-3.739 13.09,-5.874 2.4,-1.188 4.84,-2.354 7.35,-3.282 2.24,-0.831 4.46,-1.223 6.78,-1.281 0.01,0.032 0.02,0.062 0.03,0.094 0.25,0.816 0.43,1.633 0.59,2.469 0.35,1.711 0.62,3.44 0.94,5.156 -0.08,0.183 -0.19,0.347 -0.28,0.531 -0.36,0.755 -0.72,1.504 -1.03,2.281 -0.67,1.686 -1.13,3.395 -1.19,5.219 -0.14,4.711 2.74,8.95 6.97,10.875 4.95,2.25 9.68,0.735 14.53,-0.781 0.92,-0.286 1.83,-0.46 2.75,-0.719 1.43,-0.401 2.81,-0.921 4.19,-1.469 1.08,-0.432 2.17,-0.906 3.25,-1.343 1.92,-0.778 4.32,-1.684 6.37,-0.782 0.03,0.053 0.11,0.101 0.16,0.156 0.14,0.157 0.34,0.401 0.47,0.563 0.29,0.38 0.58,0.775 0.87,1.156 0.72,0.944 1.45,1.877 2.22,2.781 3.23,3.777 8.91,4.196 12.69,0.969 3.78,-3.227 4.23,-8.88 1,-12.656 -2.02,-2.336 -3.7,-4.978 -6.12,-6.937 -6.56,-5.29 -15.52,-5.185 -23.07,-2.376 -2.09,0.78 -4.07,1.792 -6.19,2.532 0,-0.242 0.06,-0.476 0.04,-0.719 -0.09,-0.987 -0.34,-1.872 -0.54,-2.844 -0.21,-1.082 -0.38,-2.166 -0.59,-3.25 -1.18,-6.169 -3.13,-12.69 -8.78,-16.219 -2.19,-1.368 -4.78,-1.984 -7.44,-2.124 z"
   fill="#000000"
   stroke="none"
   id="path116" />
</g>
<g
   opacity="1"
   id="g124">
<path
   d="m 1642.17,647.975 c 4.39,-6.448 7.32,-14.177 13.16,-19.345 10.54,-9.322 21.15,-21.944 35.14,-23.384 6.57,-0.676 1.16,13.376 -0.35,19.804 -0.85,3.65 -4.38,6.082 -6.45,9.209 -1.85,2.788 -3.52,5.686 -5.28,8.53 -1.76,2.843 -6.77,5.539 -5.28,8.53 1.59,3.163 7.01,2.587 10.46,1.816 4.42,-0.988 7.8,-4.615 11.77,-6.784 12.63,-6.89 27.72,-15.206 41.82,-18.605 3.25,-0.784 7.1,-1.914 10.02,-0.289 3.59,1.994 6.16,5.973 7.28,9.918 1.07,3.746 -2.86,8.142 -1.13,11.633 1.98,3.996 6.64,6.301 10.81,7.882 14,5.305 31.32,1.356 45.68,0.341 4.04,-0.286 8.17,-1.582 12.13,-0.718 2.97,0.649 5.2,3.163 7.6,5.029 2.83,2.199 4.57,6.204 8.03,7.134 4.02,1.081 8.23,-1.4 12.38,-1.646 4.97,-0.293 9.95,0.021 14.92,0.031"
   fill="#000000"
   fill-opacity="0"
   fill-rule="nonzero"
   stroke="none"
   id="path120" />
<path
   d="m 1691.91,596.781 c -1.88,-0.142 -3.81,0.107 -5.72,0.5 -2.55,0.523 -5.05,1.317 -7.44,2.344 -0.66,0.284 -1.29,0.591 -1.94,0.906 -1.3,0.638 -2.47,1.283 -3.72,2.031 -6.78,4.088 -12.57,9.604 -18.31,15 -3.54,3.326 -7.33,6.374 -10.22,10.313 -3.58,4.886 -6.18,10.379 -9.5,15.437 -2.57,3.935 -1.5,9.206 2.44,11.782 3.93,2.576 9.24,1.466 11.81,-2.469 3.14,-4.801 5.61,-10.025 9,-14.656 1.54,-2.097 3.54,-3.717 5.44,-5.469 3.92,-3.62 7.71,-7.364 11.84,-10.75 2.47,-2.024 5.16,-3.853 8,-5.344 -0.33,1.195 -0.66,2.401 -1,3.594 -0.1,0.373 -0.21,0.751 -0.31,1.125 -0.16,0.598 -0.31,1.182 -0.47,1.781 -0.04,0.153 -0.64,0.955 -1,1.375 -1.16,1.352 -2.39,2.632 -3.47,4.063 -1,1.345 -1.89,2.792 -2.78,4.218 -1.17,1.887 -2.3,3.795 -3.47,5.688 -0.01,0.027 0.06,-0.117 0.03,-0.094 -2.63,2.846 -5.37,5.09 -6.5,9.032 -1.44,5.08 1.07,10.388 5.47,13.062 3.44,2.089 7.65,2.386 11.57,1.969 3.17,-0.339 6.29,-1.101 9.12,-2.594 2.88,-1.515 5.33,-3.606 8.1,-5.281 3.34,-2.021 6.94,-3.814 10.4,-5.625 6.62,-3.462 13.33,-6.743 20.31,-9.407 3.17,-1.208 6.43,-2.215 9.72,-3.031 1.3,-0.32 2.68,-0.734 4.03,-0.781 0.06,0.047 0.14,0.073 0.19,0.125 0.38,0.368 0.7,0.756 1,1.187 0.43,0.612 0.78,1.278 1.06,1.969 0.04,0.084 0.07,0.163 0.1,0.25 -0.03,0.084 -0.07,0.166 -0.1,0.25 -0.14,0.498 -0.32,1.003 -0.47,1.5 -0.29,0.994 -0.63,1.973 -0.78,3 -0.18,1.329 -0.43,2.661 -0.34,4 0.09,1.326 0.46,2.635 0.84,3.907 0.24,0.775 0.67,1.462 1.04,2.187 0.59,1.194 1.49,2.317 2.37,3.313 3.63,4.104 8.75,6.65 13.84,8.437 15.12,5.299 31.19,1.972 46.66,0.687 1.81,-0.15 3.58,-0.305 5.37,-0.562 1.74,-0.249 3.55,-0.648 5.32,-0.562 0.14,0.007 0.29,0.039 0.44,0.062 0.04,0.024 0.06,0.044 0.09,0.062 0.07,0.048 0.15,0.105 0.22,0.157 0.11,0.079 0.23,0.136 0.34,0.219 0.33,0.25 0.56,0.45 0.88,0.718 0.81,0.686 1.61,1.394 2.43,2.063 1.39,1.126 2.39,2.715 3.63,4 2.12,2.199 4.56,3.871 7.5,4.781 3.1,0.962 6.42,0.776 9.56,0.125 1.87,-0.387 3.7,-1.089 5.59,-1.344 1.95,-0.262 3.98,-0.147 5.94,-0.125 2.91,0.033 5.82,0.125 8.72,0.156 4.97,0.051 9.04,-3.939 9.1,-8.906 0.05,-4.967 -3.94,-9.043 -8.91,-9.094 -3.79,-0.036 -7.59,-0.164 -11.38,-0.124 -1.95,0.02 -3.93,0.019 -5.87,0.281 -2.53,0.341 -4.96,1.25 -7.47,1.625 -0.06,-0.066 -0.12,-0.113 -0.19,-0.188 -0.45,-0.52 -0.62,-0.763 -1.09,-1.312 -0.84,-0.987 -1.7,-1.964 -2.66,-2.844 -0.86,-0.797 -1.82,-1.487 -2.72,-2.25 -2.45,-2.091 -5.01,-4.055 -8.12,-5.062 -4.89,-1.586 -9.84,-0.717 -14.78,-0.063 -1.78,0.235 -3.56,0.332 -5.35,0.5 -3.22,0.304 -6.44,0.681 -9.65,1.031 -8.07,0.879 -16.32,1.691 -24.35,0.063 -2.51,-0.509 -5.01,-1.386 -7.28,-2.563 -0.67,-0.348 -1.34,-0.747 -1.94,-1.218 0.02,-0.042 0.02,-0.084 0.04,-0.126 0.03,-0.114 0.05,-0.229 0.09,-0.343 0.2,-0.624 0.39,-1.243 0.56,-1.875 0.76,-2.858 0.95,-5.778 0.16,-8.656 -2.15,-7.796 -8.51,-15.797 -16.94,-16.969 -3.43,-0.477 -6.81,0.214 -10.12,1.031 -2.93,0.721 -5.84,1.526 -8.69,2.5 -11.47,3.913 -22.24,9.667 -32.84,15.469 -1.14,0.619 -2.21,1.326 -3.32,1.969 1.9,-2.533 4.16,-4.795 5.72,-7.594 1.19,-2.128 1.66,-4.393 2.31,-6.719 0.75,-2.684 1.55,-5.373 2.16,-8.094 1.38,-6.202 2.01,-13.762 -3.97,-17.906 -1.68,-1.168 -3.5,-1.702 -5.37,-1.844 z"
   fill="#000000"
   stroke="none"
   id="path122" />
</g>
<g
   opacity="1"
   id="g130">
<path
   d="m 1353.61,755.443 c 6.93,-9.744 13.36,-19.861 20.79,-29.231 2.15,-2.715 4.46,-5.964 7.81,-6.854 8.91,-2.368 23.17,-10.661 27.55,-2.543 4.51,8.383 -11.27,15.378 -16.27,23.485 -6.32,10.268 -11.41,21.322 -15.72,32.584 -1.26,3.29 -3.81,6.85 -2.74,10.206 0.92,2.895 4.56,5.054 7.6,5.029 3.85,-0.032 7,-3.252 10.34,-5.178 8.05,-4.637 15.75,-9.858 23.8,-14.495 3.53,-2.035 6.68,-4.988 10.6,-6.105 3.51,-1.002 8.89,-3.055 10.95,-0.04 2.76,4.045 -0.04,9.854 -0.96,14.666 -0.72,3.788 -7.01,8.572 -3.92,10.885 3.49,2.612 8.26,-2.834 12.2,-4.679 12.23,-5.713 21.1,-10.092 34.5,-13.607"
   fill="#000000"
   fill-opacity="0"
   fill-rule="nonzero"
   stroke="none"
   id="path126" />
<path
   d="m 1401.03,704.875 c -3.96,0.364 -7.93,1.63 -11.53,2.906 -2.55,0.903 -5.06,1.929 -7.62,2.781 -1.2,0.396 -2.43,0.657 -3.6,1.126 -1.55,0.624 -2.99,1.479 -4.31,2.5 -2.47,1.899 -4.42,4.369 -6.31,6.812 -1.58,2.039 -3.18,4.069 -4.69,6.156 -5.59,7.695 -10.83,15.605 -16.31,23.375 -2.72,3.843 -1.81,9.164 2.03,11.875 3.84,2.712 9.16,1.78 11.87,-2.062 4.87,-6.889 9.51,-13.928 14.47,-20.75 2,-2.75 4.01,-5.471 6.09,-8.156 0.77,-0.987 1.54,-1.986 2.38,-2.907 0.2,-0.221 0.46,-0.483 0.69,-0.687 0.15,-0.138 0.17,-0.184 0.31,-0.282 0.01,0 0.02,0.002 0.03,0 0.02,-0.012 0.09,-0.031 0.06,-0.031 0.03,-0.007 0.07,0.008 0.1,0 0.38,-0.105 0.75,-0.199 1.12,-0.312 0.47,-0.141 0.94,-0.285 1.41,-0.438 1.81,-0.595 3.58,-1.281 5.37,-1.937 2.05,-0.751 4.13,-1.448 6.22,-2.063 -0.48,0.442 -0.92,0.914 -1.4,1.344 -3.59,3.163 -7.39,6.199 -10.22,10.094 -0.99,1.356 -1.84,2.84 -2.69,4.281 -1.35,2.277 -2.63,4.57 -3.88,6.906 -4.18,7.849 -7.68,15.995 -10.96,24.25 -1.08,2.707 -2.56,5.223 -3.22,8.094 -1.39,5.977 0.71,11.639 5.53,15.406 1.27,0.997 2.69,1.819 4.19,2.438 5.22,2.162 10.43,1.507 15.28,-1.156 2.11,-1.161 3.95,-2.689 6.03,-3.907 7.67,-4.502 15.14,-9.34 22.81,-13.843 1.69,-0.995 3.35,-2.049 4.97,-3.157 1.21,-0.823 2.43,-1.761 3.78,-2.343 0.2,-0.085 0.42,-0.112 0.63,-0.188 -0.33,1.227 -0.67,2.449 -0.94,3.688 -1.44,2.189 -3.11,4.309 -4.1,6.75 -2.25,5.583 -0.46,11.616 4.94,14.562 1.11,0.605 2.17,0.989 3.41,1.25 1.13,0.238 2.19,0.312 3.34,0.25 3.32,-0.178 6.34,-1.706 9.07,-3.5 1.24,-0.823 2.42,-1.782 3.71,-2.531 1.06,-0.61 2.25,-1.048 3.35,-1.563 2.31,-1.082 4.64,-2.163 6.97,-3.218 7.49,-3.404 15.1,-6.31 23.06,-8.438 4.8,-1.287 7.66,-6.202 6.37,-11 -1.28,-4.798 -6.23,-7.662 -11.03,-6.375 -4.37,1.177 -8.71,2.498 -12.97,4.063 -5.83,2.146 -11.49,4.714 -17.12,7.343 -0.01,0.006 -0.02,0.026 -0.03,0.031 1.09,-5.165 1.26,-10.408 -2,-15.062 -0.66,-0.941 -1.25,-1.622 -2.13,-2.375 -0.75,-0.651 -1.64,-1.242 -2.53,-1.687 -4.91,-2.454 -10.32,-1.149 -15.28,0.343 -2.26,0.681 -4.44,1.51 -6.5,2.688 -2.19,1.249 -4.18,2.826 -6.31,4.156 -1.57,0.977 -3.17,1.858 -4.75,2.813 -4.01,2.422 -7.93,4.959 -11.91,7.437 -2.92,1.823 -5.94,3.528 -8.84,5.375 -0.76,0.483 -1.51,1.029 -2.25,1.562 0.6,-1.421 1.21,-2.837 1.78,-4.281 2.29,-5.844 4.83,-11.61 7.65,-17.219 1.5,-2.98 3.07,-5.901 4.76,-8.781 0.68,-1.175 1.34,-2.446 2.21,-3.5 1.79,-2.161 4,-3.932 6.1,-5.781 4.79,-4.221 10.08,-8.998 11.22,-15.625 0.2,-1.198 0.28,-2.413 0.18,-3.625 -0.09,-1.259 -0.36,-2.526 -0.78,-3.719 -0.54,-1.562 -1.34,-3.029 -2.34,-4.343 -0.99,-1.302 -2.2,-2.441 -3.56,-3.344 -3.48,-2.302 -7.42,-2.833 -11.38,-2.469 z"
   fill="#000000"
   stroke="none"
   id="path128" />
</g>
<g
   opacity="1"
   id="g136">
<path
   d="m 1560.15,779.138 c 6.19,-3.309 11.57,-9.596 18.59,-9.926 3.64,-0.172 6.2,5.109 6.6,8.74 0.39,3.559 -6.53,6.693 -4.6,9.707 2.25,3.515 8.21,1.544 12.31,2.315"
   fill="#000000"
   fill-opacity="0"
   fill-rule="nonzero"
   stroke="none"
   id="path132" />
<path
   d="m 1578.31,760.562 c -5.1,0.206 -9.8,2.595 -13.93,5.407 -2.8,1.897 -5.39,4.076 -8.35,5.719 -4.11,2.281 -5.62,7.481 -3.34,11.593 2.28,4.113 7.48,5.594 11.59,3.313 2.41,-1.336 4.64,-2.896 6.88,-4.5 0.6,-0.432 1.26,-0.788 1.87,-1.219 -0.64,1.144 -1.18,2.367 -1.41,3.687 -1.05,6.076 2.92,11.364 8.5,13.313 2.37,0.827 4.89,0.964 7.38,0.937 1.46,-0.015 2.9,-0.16 4.34,0.063 4.93,0.666 9.46,-2.765 10.13,-7.687 0.66,-4.923 -2.8,-9.459 -7.72,-10.126 -0.15,-0.018 -0.29,-0.014 -0.44,-0.031 0.04,-0.143 0.13,-0.261 0.16,-0.406 0.54,-2.848 -0.04,-5.676 -0.97,-8.375 -2.19,-6.393 -7.47,-11.979 -14.69,-11.688 z"
   fill="#000000"
   stroke="none"
   id="path134" />
</g>
<g
   opacity="1"
   id="g142">
<path
   d="m 1610.5,1807.16 c 16.05,-3.13 37.53,-6.92 53.06,-11.64 15.53,-4.72 30.24,-12.02 45.89,-16.31 22.42,-6.15 46.42,-7.54 68.64,-13.81 15.07,-4.26 28.9,-12.38 43.99,-16.52 21.1,-5.79 43.3,-4.8 64.44,-10.4 18.98,-5.02 37.53,-12.84 57.27,-15.06 11.44,-1.28 23.03,-0.06 34.55,-0.09"
   fill="#000000"
   fill-opacity="0"
   fill-rule="nonzero"
   stroke="none"
   id="path138" />
<path
   d="m 1950.66,1713.94 c -5.3,0.19 -10.6,0.78 -15.82,1.72 -11.34,2.03 -22.31,5.54 -33.28,9 -5.67,1.78 -11.37,3.71 -17.15,5.12 -2.14,0.52 -4.29,0.96 -6.44,1.44 -1.22,0.27 -2.46,0.58 -3.69,0.81 -2.12,0.39 -4.3,0.62 -6.44,0.94 -12.69,1.87 -25.51,2.64 -38.12,5.09 -3.39,0.66 -6.81,1.37 -10.13,2.35 -5.28,1.55 -10.45,3.43 -15.56,5.5 -7.17,2.91 -14.19,6.19 -21.47,8.84 -4,1.46 -8.06,2.56 -12.18,3.59 -1.8,0.45 -3.6,0.94 -5.41,1.35 -2.3,0.51 -4.6,0.92 -6.91,1.37 -16.95,3.33 -34.27,5.17 -50.94,9.88 -5.42,1.53 -10.78,3.35 -16.06,5.31 -9.99,3.71 -19.76,7.98 -29.97,11.09 -7.64,2.34 -15.49,4.1 -23.31,5.75 -9.61,2.03 -19.26,3.85 -28.9,5.72 -4.62,0.9 -7.62,5.35 -6.72,9.97 0.89,4.62 5.35,7.65 9.96,6.75 11.31,-2.19 22.63,-4.27 33.88,-6.75 6.73,-1.48 13.47,-3.09 20.06,-5.09 15.49,-4.7 30.12,-11.86 45.72,-16.22 7.68,-2.15 15.55,-3.6 23.41,-4.94 9.2,-1.56 18.42,-2.96 27.59,-4.72 1.98,-0.38 3.97,-0.69 5.94,-1.12 1.96,-0.43 3.9,-0.96 5.84,-1.44 1.94,-0.48 3.92,-0.91 5.85,-1.44 3.4,-0.92 6.76,-2.07 10.06,-3.31 9.11,-3.41 17.86,-7.74 27.06,-10.94 2.31,-0.8 4.69,-1.53 7.03,-2.22 5.25,-1.52 10.73,-2.38 16.13,-3.15 10.33,-1.48 20.76,-2.26 31.09,-3.75 1.9,-0.28 3.8,-0.51 5.69,-0.85 1.89,-0.34 3.78,-0.81 5.65,-1.21 1.84,-0.41 3.68,-0.75 5.5,-1.19 4.97,-1.21 9.88,-2.79 14.76,-4.31 11.42,-3.57 22.84,-7.43 34.65,-9.54 3.95,-0.7 7.93,-1.21 11.94,-1.4 9.43,-0.46 18.87,0.32 28.31,0.37 4.97,0.03 9.04,-3.97 9.06,-8.93 0.03,-4.97 -4,-9.01 -8.96,-9.04 -9.25,-0.04 -18.48,-0.73 -27.72,-0.4 z"
   fill="#000000"
   stroke="none"
   id="path140" />
</g>
<g
   opacity="1"
   id="g148">
<path
   d="m 1967.57,1684.78 c 7.87,2.1 15.76,4.1 23.6,6.3 6.67,1.87 15.83,0.3 19.91,5.89 3.3,4.53 -0.97,11.5 -3.65,16.42 -2.96,5.44 -8.9,8.67 -12.68,13.57 -9.2,11.94 -14.42,26.63 -19.37,40.86"
   fill="#000000"
   fill-opacity="0"
   fill-rule="nonzero"
   stroke="none"
   id="path144" />
<path
   d="m 1966.38,1676.34 c -3.29,0.47 -6.14,2.87 -7.04,6.28 -1.2,4.55 1.52,9.21 6.07,10.41 5.23,1.39 10.45,2.75 15.68,4.16 3.37,0.9 6.74,2.01 10.16,2.69 2.07,0.41 4.16,0.62 6.25,0.84 1.54,0.16 3.11,0.3 4.62,0.62 0.45,0.1 0.89,0.22 1.32,0.38 -0.01,0.04 -0.02,0.08 -0.03,0.12 -0.2,0.64 -0.48,1.25 -0.75,1.85 -0.85,1.86 -1.87,3.65 -2.88,5.43 -1.05,1.87 -2.74,3.32 -4.31,4.72 -2.69,2.4 -5.35,4.76 -7.63,7.57 -3.51,4.34 -6.45,9.21 -9.03,14.15 -4.88,9.37 -8.45,19.34 -11.93,29.28 -1.64,4.69 0.84,9.84 5.53,11.47 4.69,1.64 9.83,-0.84 11.47,-5.53 4.27,-12.3 8.56,-24.88 15.96,-35.72 1.03,-1.49 2.1,-2.99 3.35,-4.31 2.11,-2.24 4.59,-4.11 6.75,-6.31 1.46,-1.5 2.81,-3.1 3.97,-4.85 0.99,-1.49 1.82,-3.1 2.65,-4.68 3.25,-6.15 6.14,-13.29 3.16,-20.16 -0.46,-1.06 -0.98,-1.94 -1.66,-2.87 -0.98,-1.35 -2.17,-2.56 -3.5,-3.57 -3.85,-2.91 -8.62,-3.9 -13.31,-4.43 -2.03,-0.24 -4.07,-0.37 -6.09,-0.69 -1.26,-0.2 -2.46,-0.55 -3.69,-0.88 -1.98,-0.53 -3.96,-1.09 -5.94,-1.62 -5.25,-1.41 -10.52,-2.74 -15.78,-4.13 -1.14,-0.3 -2.28,-0.37 -3.37,-0.22 z"
   fill="#000000"
   stroke="none"
   id="path146" />
</g>
<g
   opacity="1"
   id="g154">
<path
   d="m 1686.34,1617.26 c 16.24,13.2 29.55,18.63 48.06,28.21 5.76,2.98 11.07,7.03 17.29,8.94 5.78,1.77 12.22,0.36 18.07,1.91 5.55,1.46 10.12,5.57 15.68,6.99 12.31,3.15 25.31,2.67 37.96,4 6.63,0.7 13.24,2.68 19.88,2.1 5.94,-0.52 11.16,-4.38 17.05,-5.32 10.83,-1.73 22.16,2.5 32.14,6.95"
   fill="#000000"
   fill-opacity="0"
   fill-rule="nonzero"
   stroke="none"
   id="path150" />
<path
   d="m 1685.41,1608.78 c -2.17,0.24 -4.25,1.32 -5.72,3.16 -2.94,3.67 -2.33,9.03 1.34,11.97 5.86,4.69 11.96,9.02 18.41,12.87 8.95,5.35 18.37,9.82 27.65,14.56 1.98,1.01 3.96,2.02 5.88,3.13 5.23,3.02 10.29,6.29 16.09,8.15 3.18,1.02 6.5,1.32 9.82,1.44 2.24,0.08 4.55,0.01 6.78,0.32 0.75,0.1 1.5,0.28 2.25,0.43 0.39,0.08 0.84,0.31 1.21,0.47 1.06,0.45 2.06,0.99 3.07,1.53 2.39,1.3 4.78,2.7 7.31,3.72 2.88,1.16 5.93,1.86 8.97,2.44 3.38,0.64 6.79,1.07 10.22,1.41 7.9,0.77 15.85,0.91 23.75,1.78 6.5,0.71 12.84,2.46 19.44,2.28 3.52,-0.1 6.9,-0.81 10.21,-2 3.3,-1.19 6.42,-2.86 9.88,-3.53 2.94,-0.57 6.18,-0.24 9.09,0.28 6.2,1.1 12.05,3.57 17.78,6.09 4.55,2 9.88,-0.07 11.88,-4.62 1.99,-4.55 -0.08,-9.85 -4.63,-11.85 -11.1,-4.86 -23.1,-9.29 -35.43,-7.81 -3.19,0.38 -6.26,1.26 -9.25,2.41 -2.7,1.03 -5.35,2.48 -8.22,3 -1.83,0.33 -3.79,0.18 -5.63,0 -3.19,-0.33 -6.33,-1 -9.5,-1.47 -2.9,-0.44 -5.82,-0.69 -8.75,-0.91 -10.12,-0.74 -20.39,-0.66 -30.34,-2.87 -1,-0.23 -2.05,-0.5 -3,-0.88 -1.91,-0.75 -3.7,-1.88 -5.5,-2.84 -2.8,-1.49 -5.73,-2.93 -8.85,-3.63 -3.03,-0.68 -6.08,-0.93 -9.18,-1 -3.16,-0.07 -6.31,0.05 -9.32,-1.03 -3.58,-1.29 -6.85,-3.39 -10.12,-5.31 -3.02,-1.77 -6.12,-3.39 -9.25,-4.97 -8.59,-4.33 -17.32,-8.45 -25.59,-13.38 -5.79,-3.44 -11.25,-7.32 -16.5,-11.53 -1.84,-1.47 -4.09,-2.05 -6.25,-1.81 z"
   fill="#000000"
   stroke="none"
   id="path152" />
</g>
<g
   opacity="1"
   id="g160">
<path
   d="m 1710.23,939.58 c 14.54,-7.764 27.21,-21.82 43.62,-23.292 9.41,-0.844 17.94,9.044 22.4,17.372 3.22,6.002 -8.31,17.306 -2.2,20.309 7.25,3.56 13.85,-8.908 21.71,-10.722 7.27,-1.676 14.95,1.414 22.36,0.555 6.62,-0.769 13.25,-2.506 19.26,-5.384 7.94,-3.798 13.76,-11.659 22.11,-14.416 6.5,-2.142 13.68,0.237 20.51,0.355"
   fill="#000000"
   fill-opacity="0"
   fill-rule="nonzero"
   stroke="none"
   id="path156" />
<path
   d="m 1754.06,907.688 c -3.27,0.146 -6.53,0.851 -9.65,1.812 -14.44,4.436 -25.31,15.441 -38.29,22.625 -4.11,2.276 -5.61,7.447 -3.34,11.563 2.28,4.115 7.45,5.619 11.56,3.343 7.34,-4.052 14,-9.104 20.91,-13.812 5.38,-3.667 11.33,-7.22 17.87,-8.219 0.75,-0.114 1.53,-0.26 2.29,-0.188 2.21,0.214 4.21,1.738 5.81,3.157 2.79,2.475 4.82,5.529 6.72,8.687 -0.74,2.464 -1.95,4.745 -2.85,7.156 -0.6,1.621 -1.11,3.298 -1.4,5 -0.21,1.196 -0.24,2.45 -0.1,3.657 0.78,6.699 6.71,10.883 13.19,10.875 5.63,-0.008 10.29,-3.266 14.44,-6.719 1.36,-1.132 2.67,-2.324 4.09,-3.375 0.69,-0.506 1.48,-1.116 2.31,-1.375 1.94,-0.601 4.5,-0.274 6.47,-0.063 3.38,0.362 6.76,0.965 10.16,1.032 6.03,0.118 12.19,-1.103 17.94,-2.844 5.79,-1.752 11.24,-4.255 16.12,-7.844 2.71,-1.99 5.28,-4.181 7.97,-6.187 1.93,-1.435 4.02,-2.93 6.38,-3.563 2.45,-0.658 5.18,-0.259 7.65,0.032 3.11,0.366 6.18,0.771 9.31,0.906 4.97,0.204 9.18,-3.662 9.38,-8.625 0.2,-4.963 -3.66,-9.14 -8.62,-9.344 -4,-0.154 -7.93,-0.904 -11.91,-1.156 -4.52,-0.286 -9,0.134 -13.25,1.781 -3.88,1.503 -7.34,3.795 -10.63,6.312 -3,2.305 -5.84,4.892 -9.06,6.907 -2.62,1.642 -5.58,2.751 -8.53,3.656 -3.96,1.216 -8.27,2.244 -12.44,2.187 -2.53,-0.034 -5.08,-0.5 -7.59,-0.781 -3.49,-0.388 -7.01,-0.586 -10.5,-0.125 -2.15,0.284 -4.23,0.81 -6.22,1.688 -1.81,0.8 -3.48,1.835 -5.06,3 0.25,-1.585 0.4,-3.193 0.15,-4.844 -0.58,-3.893 -3.09,-7.522 -5.34,-10.656 -5.98,-8.323 -15.08,-16.143 -25.94,-15.656 z"
   fill="#000000"
   stroke="none"
   id="path158" />
</g>
<g
   opacity="1"
   id="g166">
<path
   d="m 1981.64,1693.82 c -2.74,3.36 -7.31,5.83 -8.22,10.07 -1.61,7.48 -1,15.57 1.12,22.93 0.79,2.76 2.94,-5.17 3.16,-8.04 0.39,-5.13 -0.64,-10.28 -1.36,-15.37 -0.48,-3.33 1.08,-9.31 -2.24,-9.83 -3.1,-0.49 -1.9,6 -2.39,9.1 -0.49,3.09 -0.4,6.26 -0.53,9.39 -0.21,5.03 -3.45,11.02 -0.49,15.09 2.57,3.53 1.54,-8.61 2.04,-12.95 0.36,-3.11 0.75,-6.26 0.54,-9.39 -0.26,-3.94 0.15,-15.02 -1.95,-11.68 -3.16,5.02 -1.31,11.8 -1.85,17.71 -0.98,10.91 -1.27,18.82 3.02,28.91"
   fill="#fff3e4"
   fill-rule="nonzero"
   stroke="none"
   id="path162" />
<path
   d="m 1971.56,1683.59 c -0.89,0.03 -1.78,0.23 -2.62,0.5 -0.7,0.23 -1.34,0.6 -1.97,0.97 -4.01,2.4 -5.83,8.28 -6.31,12.63 -0.42,3.79 0.07,7.58 -0.07,11.37 -0.06,1.71 -0.28,3.4 -0.4,5.1 -0.23,3.12 -0.37,6.27 -0.28,9.4 0.19,6.81 1.7,13.33 4.28,19.63 1.89,4.59 7.12,6.79 11.72,4.9 4.59,-1.88 6.79,-7.15 4.9,-11.75 -0.29,-0.7 -0.46,-1.44 -0.72,-2.15 0.17,-0.12 0.38,-0.16 0.53,-0.28 2.54,-2.02 3.62,-5.34 4.44,-8.35 0.55,-1.99 1.02,-4.06 1.19,-6.12 0.47,-5.66 -0.52,-11.24 -1.31,-16.82 0.41,-0.37 0.82,-0.76 1.18,-1.12 0.68,-0.67 1.32,-1.38 1.94,-2.09 3.09,-3.55 2.73,-8.91 -0.81,-12 -2.53,-2.21 -6,-2.6 -8.91,-1.38 -0.09,-0.04 -0.18,-0.08 -0.28,-0.12 -0.33,-0.3 -0.65,-0.62 -1.03,-0.85 -0.8,-0.48 -1.66,-0.91 -2.56,-1.15 -0.94,-0.26 -1.93,-0.35 -2.91,-0.32 z"
   fill="#713c15"
   fill-opacity="0.103604"
   stroke="none"
   id="path164" />
</g>
<g
   opacity="1"
   id="g172">
<path
   d="m 1977.16,1710.17 c -0.56,5.6 -1.13,11.19 -1.7,16.79"
   fill="#fff3e4"
   fill-opacity="0"
   fill-rule="nonzero"
   stroke="none"
   id="path168" />
<path
   d="m 1978.03,1701.69 c -4.68,-0.48 -8.87,2.94 -9.34,7.62 -0.6,5.6 -1.56,11.16 -2.19,16.75 -0.5,4.94 3.12,9.35 8.06,9.85 4.94,0.5 9.35,-3.09 9.85,-8.03 0.5,-5.61 0.68,-11.24 1.21,-16.85 0.48,-4.68 -2.91,-8.87 -7.59,-9.34 z"
   fill="#000000"
   stroke="none"
   id="path170" />
</g>
<g
   opacity="1"
   id="g178">
<path
   d="m 1984.85,1709.49 c -2.12,3.45 -5,6.55 -6.37,10.37 -0.96,2.65 -2.68,10.13 -0.39,8.46 3.67,-2.67 4.08,-8.13 5.74,-12.36 1.5,-3.82 6.16,-8.41 3.75,-11.73 -2.27,-3.12 -3.22,7.03 -4.53,10.66 -0.95,2.66 -3.74,10.57 -2.24,8.18 2.74,-4.36 3.94,-9.51 6.04,-14.21 1.32,-2.98 1.58,-10.71 4.23,-8.81 3.06,2.18 -4.32,9.86 -0.83,11.24 3.72,1.46 4.87,-8.05 8.86,-8.08 2.88,-0.03 -3.16,8.03 -3.16,8.03 0,0 2.29,-10.77 3.16,-8.03 1.04,3.28 -4.56,7.24 -2.53,10.03 1.87,2.57 2.18,-5.99 3.31,-8.96 1.02,-2.69 5.84,-6.98 3.16,-8.03 -3.78,-1.49 -7.58,2.99 -11.19,4.87 -2.94,1.52 -5.53,6.94 -8.42,5.3 -2.71,-1.53 3.71,-7.08 1.46,-9.24 -2.34,-2.27 -7.12,-0.7 -9.68,1.31 -2.8,2.2 -3.83,6.22 -4.38,9.73 -0.51,3.22 3.72,-5.59 4.23,-8.8 0.46,-2.93 1.46,-8.3 -1.46,-8.76 -2.93,-0.47 -3.49,4.98 -4.09,7.88 -0.77,3.72 -3.52,12.54 0.1,11.39 3.87,-1.23 2.13,-7.97 1.9,-12.02 -0.2,-3.49 0.27,-10.55 -3.17,-9.98 -3.7,0.62 -2.4,7.2 -2.67,10.95 -0.29,3.85 0.76,7.68 1.02,11.53 0.21,3.18 -1.3,12.24 0.39,9.54 2.83,-4.49 2.93,-10.28 3.41,-15.57 0.37,-4.15 3.02,-11.02 -0.88,-12.46 -3.56,-1.31 -3.14,7.04 -3.6,10.81 -1,8.11 0.6,20.5 2.09,28.76 0.6,3.31 -1.08,9.3 2.24,9.83 3.08,0.48 0.97,-6.17 1.46,-9.25 0.49,-3.08 -1.66,-9.22 1.46,-9.25 3.38,-0.02 3.44,5.92 4.24,9.2 1.14,4.71 2.26,9.67 1.51,14.46 -0.62,3.9 1.63,-10.02 -1.95,-11.68 -2.96,-1.38 -3.16,5.73 -4.24,8.81 -1.24,3.54 1.04,11.53 -2.67,10.95 -3.75,-0.6 0.52,-7.65 -0.1,-11.39 -0.46,-2.79 -0.9,5.69 -0.39,8.47 0.54,2.89 2.31,5.41 3.46,8.12"
   fill="#fff3e4"
   fill-opacity="0"
   fill-rule="nonzero"
   stroke="none"
   id="path174" />
<path
   d="m 1968.84,1679.09 c -1.87,-0.04 -3.81,0.47 -5.46,1.35 -1.08,0.57 -2.07,1.31 -2.91,2.18 -2.71,2.84 -3.53,6.74 -3.63,10.54 -0.03,1.52 0.07,3.06 0.04,4.59 -0.05,1.96 -0.09,3.86 0.09,5.81 -0.02,0.23 -0.05,0.46 -0.06,0.69 -0.19,2.69 -0.15,5.4 -0.03,8.09 0.08,1.92 0.35,3.82 0.53,5.72 -0.06,1.24 -0.06,2.49 0.21,3.66 0.06,0.23 0.14,0.45 0.19,0.69 0.14,1.16 0.18,2.34 0.35,3.5 0.33,2.37 0.79,4.72 1.12,7.09 0.15,1.1 -0.03,2.3 -0.03,3.41 0,1.7 0.08,3.4 0.5,5.06 0.2,0.78 0.57,1.45 0.91,2.15 -0.02,0.21 -0.08,0.42 -0.1,0.63 -0.05,0.84 -0.05,1.69 -0.06,2.53 -0.33,1.3 -0.64,2.58 -0.78,3.91 -0.43,4.1 0.96,7.99 4.12,10.47 0.4,0.78 0.77,1.58 1.13,2.37 2.07,4.51 7.39,6.48 11.91,4.41 4.51,-2.08 6.51,-7.43 4.43,-11.94 -0.04,-0.09 -0.08,-0.19 -0.12,-0.28 1.07,-0.34 2.11,-0.83 3.09,-1.38 0.72,-0.39 1.21,-1.1 1.75,-1.72 1.09,-1.24 1.54,-3.02 1.81,-4.81 0,-0.01 0,-0.02 0,-0.03 0.18,-1.18 0.34,-2.39 0.38,-3.37 0.02,-0.57 -0.12,-1.13 -0.13,-1.69 0.02,-1.23 -0.13,-2.4 -0.25,-3.63 -0.12,-1.02 -0.16,-2.05 -0.34,-3.06 -0.08,-0.39 -0.15,-0.78 -0.25,-1.15 -0.21,-1.07 -0.42,-2.13 -0.66,-3.19 1.69,-2.27 2.79,-4.88 3.63,-7.57 0.29,-0.93 0.6,-1.87 0.87,-2.81 0.16,-0.39 0.35,-0.76 0.5,-1.15 0.49,0.38 0.91,0.84 1.47,1.12 1.25,0.61 2.44,0.96 3.85,1 1.42,0.05 2.88,-0.26 4.18,-0.84 2.43,-1.1 4.09,-3.32 5,-5.75 0.69,-1.82 0.98,-3.81 1.32,-5.72 0.12,-0.68 0.23,-1.36 0.37,-2.03 0.03,-0.16 0.06,-0.32 0.1,-0.47 0,-0.01 0.02,-0.02 0.03,-0.03 0.04,-0.08 0.1,-0.15 0.15,-0.22 0.22,-0.33 0.51,-0.71 0.72,-1 0.73,-1.03 1.5,-2.07 2.1,-3.19 0.98,-1.85 1.63,-3.78 1.59,-5.91 -0.01,-0.74 -0.09,-1.5 -0.28,-2.21 -0.21,-0.79 -0.51,-1.57 -0.91,-2.29 -0.41,-0.73 -0.92,-1.42 -1.5,-2.03 -0.55,-0.57 -1.18,-1.06 -1.84,-1.5 -2.48,-1.64 -5.78,-2.05 -8.66,-1.59 -3.08,0.49 -5.6,2.11 -8.09,3.81 -0.42,-0.43 -0.87,-0.85 -1.28,-1.28 -0.33,-0.33 -0.77,-0.51 -1.16,-0.75 -0.37,-0.22 -0.74,-0.44 -1.13,-0.62 -1.39,-0.67 -2.93,-1.07 -4.46,-1.22 -0.21,-0.02 -0.42,0.04 -0.63,0.03 -1.3,-2.32 -3.32,-4.02 -5.97,-4.88 0,0 0.01,-0.03 0,-0.03 -1.97,-2.12 -4.69,-3.39 -7.72,-3.47 z"
   fill="#000000"
   stroke="none"
   id="path176" />
</g>
<g
   opacity="1"
   id="g184">
<path
   d="m 1661.66,1799.69 c -0.15,6.93 -0.29,13.86 -0.44,20.79"
   fill="#fff3e4"
   fill-opacity="0"
   fill-rule="nonzero"
   stroke="none"
   id="path180" />
<path
   d="m 1661.84,1791.19 c -4.7,-0.1 -8.59,3.64 -8.68,8.34 -0.18,6.93 -0.73,13.82 -0.94,20.75 -0.11,4.97 3.84,9.08 8.81,9.19 4.97,0.1 9.08,-3.85 9.19,-8.81 0.08,-6.94 -0.18,-13.85 -0.06,-20.78 0.09,-4.71 -3.61,-8.59 -8.32,-8.69 z"
   fill="#000000"
   stroke="none"
   id="path182" />
</g>
<g
   opacity="1"
   id="g190">
<path
   d="m 1740.69,1773.31 c 1.43,4.96 2.86,9.93 4.29,14.89"
   fill="#fff3e4"
   fill-opacity="0"
   fill-rule="nonzero"
   stroke="none"
   id="path186" />
<path
   d="m 1741.72,1764.84 c -1.1,-0.13 -2.25,-0.04 -3.38,0.28 -4.52,1.31 -7.14,6.02 -5.84,10.54 1.4,4.97 2.48,10.04 3.84,15.03 1.38,4.77 6.35,7.53 11.13,6.15 4.77,-1.37 7.53,-6.35 6.15,-11.12 -1.49,-4.95 -3.28,-9.79 -4.74,-14.75 -0.98,-3.39 -3.87,-5.73 -7.16,-6.13 z"
   fill="#000000"
   stroke="none"
   id="path188" />
</g>
<g
   opacity="1"
   id="g196">
<path
   d="m 1830.43,1757.15 c 1.29,5.88 2.57,11.77 3.85,17.66"
   fill="#fff3e4"
   fill-opacity="0"
   fill-rule="nonzero"
   stroke="none"
   id="path192" />
<path
   d="m 1832,1748.78 c -1.09,-0.2 -2.23,-0.22 -3.38,0.03 -4.59,1 -7.5,5.56 -6.5,10.16 1.26,5.9 2.16,11.84 3.38,17.75 1.06,4.85 5.83,7.93 10.69,6.87 4.85,-1.05 7.93,-5.83 6.87,-10.68 -1.35,-5.88 -2.99,-11.68 -4.31,-17.57 -0.75,-3.44 -3.49,-5.95 -6.75,-6.56 z"
   fill="#000000"
   stroke="none"
   id="path194" />
</g>
<g
   opacity="1"
   id="g202">
<path
   d="m 1910.73,1734.75 c 0.67,5.79 1.33,11.59 2,17.38"
   fill="#fff3e4"
   fill-opacity="0"
   fill-rule="nonzero"
   stroke="none"
   id="path198" />
<path
   d="m 1909.75,1726.28 c -4.67,0.54 -8.01,4.77 -7.47,9.44 0.63,5.8 0.9,11.63 1.5,17.44 0.57,4.93 5.04,8.47 9.97,7.9 4.93,-0.56 8.47,-5.03 7.91,-9.97 -0.74,-5.78 -1.77,-11.52 -2.47,-17.31 -0.54,-4.67 -4.77,-8.04 -9.44,-7.5 z"
   fill="#000000"
   stroke="none"
   id="path200" />
</g>
</g>
</svg>
