<?xml version="1.0" encoding="UTF-8" standalone="no"?>
<!DOCTYPE svg PUBLIC "-//W3C//DTD SVG 1.1//EN" "http://www.w3.org/Graphics/SVG/1.1/DTD/svg11.dtd">
<!-- Created with Vectornator (http://vectornator.io/) -->
<svg height="100%" stroke-miterlimit="10" style="fill-rule:nonzero;clip-rule:evenodd;stroke-linecap:round;stroke-linejoin:round;" version="1.1" viewBox="0 0 3370.82 2384.24" width="100%" xml:space="preserve" xmlns="http://www.w3.org/2000/svg" xmlns:vectornator="http://vectornator.io" xmlns:xlink="http://www.w3.org/1999/xlink">
<defs/>
<clipPath id="ArtboardFrame">
<rect height="2384.24" width="3370.82" x="0" y="0"/>
</clipPath>
<g clip-path="url(#ArtboardFrame)" id="Ebene-1" vectornator:layerName="Ebene 1">
<path d="M238.685 163.763L3104.61 163.763C3107.59 163.763 3110.01 166.183 3110.01 169.168L3110.01 2207.91C3110.01 2210.89 3107.59 2213.31 3104.61 2213.31L238.685 2213.31C235.699 2213.31 233.279 2210.89 233.279 2207.91L233.279 169.168C233.279 166.183 235.699 163.763 238.685 163.763Z" fill="#bb9b75" fill-rule="nonzero" opacity="1" stroke="#000000" stroke-linecap="butt" stroke-linejoin="round" stroke-opacity="0.475202" stroke-width="16.9393"/>
<path d="M915.785 580.178L1721.01 580.178C1724 580.178 1726.42 582.598 1726.42 585.584L1726.42 1713.91C1726.42 1716.9 1724 1719.32 1721.01 1719.32L915.785 1719.32C912.8 1719.32 910.379 1716.9 910.379 1713.91L910.379 585.584C910.379 582.598 912.8 580.178 915.785 580.178Z" fill="#fff3e4" fill-rule="nonzero" opacity="1" stroke="#713c15" stroke-linecap="butt" stroke-linejoin="round" stroke-opacity="0.103604" stroke-width="16.9393"/>
<path d="M1186.34 380.24L1979.34 520.033C1982.28 520.551 1984.25 523.354 1983.73 526.294L1787.84 1637.49C1787.32 1640.43 1784.52 1642.39 1781.58 1641.87L988.581 1502.08C985.641 1501.56 983.678 1498.76 984.196 1495.82L1180.08 384.625C1180.6 381.685 1183.4 379.722 1186.34 380.24Z" fill="#fff3e4" fill-rule="nonzero" opacity="1" stroke="#713c15" stroke-linecap="butt" stroke-linejoin="round" stroke-opacity="0.103604" stroke-width="16.9393"/>
<path d="M495.279 744.29L1288.82 607.611C1291.76 607.104 1294.56 609.078 1295.07 612.02L1486.59 1723.97C1487.1 1726.92 1485.12 1729.71 1482.18 1730.22L688.638 1866.9C685.696 1867.4 682.9 1865.43 682.393 1862.49L490.87 750.535C490.363 747.593 492.337 744.797 495.279 744.29Z" fill="#fff3e4" fill-rule="nonzero" opacity="1" stroke="#713c15" stroke-linecap="butt" stroke-linejoin="round" stroke-opacity="0.103604" stroke-width="16.9393"/>
<path d="M1194.05 873.569L1987.59 736.889C1990.53 736.382 1993.33 738.356 1993.84 741.298L2185.36 1853.25C2185.87 1856.19 2183.89 1858.99 2180.95 1859.5L1387.41 1996.18C1384.47 1996.68 1381.67 1994.71 1381.16 1991.77L1189.64 879.813C1189.13 876.871 1191.11 874.076 1194.05 873.569Z" fill="#fff3e4" fill-rule="nonzero" opacity="1" stroke="#713c15" stroke-linecap="butt" stroke-linejoin="round" stroke-opacity="0.103604" stroke-width="16.9393"/>
<path d="M1125.19 790.635L1873.05 1089.12C1875.83 1090.22 1877.18 1093.37 1876.07 1096.14L1457.82 2144.09C1456.72 2146.86 1453.57 2148.21 1450.8 2147.1L702.935 1848.62C700.163 1847.51 698.812 1844.37 699.919 1841.6L1118.17 793.652C1119.28 790.879 1122.42 789.528 1125.19 790.635Z" fill="#fff3e4" fill-rule="nonzero" opacity="1" stroke="#713c15" stroke-linecap="butt" stroke-linejoin="round" stroke-opacity="0.103604" stroke-width="16.9393"/>
<g fill="#000000" opacity="1" stroke="none">
<path d="M1197.2 1040.32C1193.27 1045.53 1189.56 1051.15 1186.08 1057.17C1173.51 1051.62 1164.54 1047.75 1159.15 1045.58C1153.84 1043.42 1144.81 1040 1132.09 1035.32C1131.56 1035.1 1131.48 1034.53 1131.86 1033.6C1132.19 1032.77 1132.64 1032.43 1133.2 1032.58C1137.41 1033.74 1140.45 1034.1 1142.31 1033.65C1144.17 1033.21 1145.73 1031.44 1146.98 1028.35L1165.96 981.437C1166.91 979.11 1167.28 977.355 1167.08 976.173C1166.88 974.99 1166.16 973.829 1164.92 972.689C1163.68 971.549 1161.71 970.241 1159.02 968.765C1158.49 968.55 1158.41 967.977 1158.79 967.046C1159.17 966.116 1159.62 965.758 1160.15 965.973C1162.38 966.874 1165 968.05 1168.01 969.5C1170.89 970.897 1173.34 972.005 1175.37 972.826C1177.39 973.646 1179.91 974.548 1182.92 975.533C1186.05 976.571 1188.74 977.54 1190.96 978.441C1191.49 978.657 1191.57 979.23 1191.2 980.16C1190.82 981.091 1190.37 981.448 1189.83 981.233C1186.91 980.436 1184.6 980.015 1182.92 979.972C1181.23 979.929 1179.92 980.258 1178.98 980.96C1178.04 981.662 1177.09 983.193 1176.13 985.552L1156.54 1033.96C1154.96 1037.88 1156.09 1040.62 1159.95 1042.18L1169.82 1046.18C1173.91 1047.83 1177.8 1048.14 1181.51 1047.11C1185.21 1046.08 1189.65 1043.14 1194.82 1038.31C1195.06 1038.1 1195.43 1038.09 1195.93 1038.29C1196.36 1038.47 1196.71 1038.77 1196.99 1039.19C1197.26 1039.61 1197.33 1039.98 1197.2 1040.32Z"/>
<path d="M1225.27 1074.31C1223.41 1073.55 1221.97 1072.44 1220.97 1070.97C1219.96 1069.5 1219.52 1067.88 1219.65 1066.11C1214.62 1068.33 1209.22 1068.28 1203.47 1065.95C1200.48 1064.74 1198.41 1062.83 1197.26 1060.22C1196.12 1057.6 1196.1 1054.92 1197.22 1052.16C1199.97 1045.35 1210.28 1043.1 1228.14 1045.41L1231.59 1037.76L1231.69 1037.51C1232.66 1035.12 1232.84 1032.97 1232.23 1031.08C1231.62 1029.19 1230.34 1027.85 1228.38 1027.06C1226.42 1026.27 1224.56 1026.07 1222.82 1026.46C1221.07 1026.86 1219.89 1027.76 1219.28 1029.18C1218.39 1031.29 1217.16 1032.73 1215.59 1033.49C1214.03 1034.25 1212.35 1034.27 1210.56 1033.54C1209.49 1033.11 1208.76 1032.44 1208.35 1031.54C1207.94 1030.64 1207.95 1029.66 1208.38 1028.6C1209.41 1026.04 1212.83 1024.3 1218.62 1023.37C1224.41 1022.44 1229.29 1022.79 1233.28 1024.4C1236.87 1025.86 1239.35 1028.1 1240.72 1031.12C1242.08 1034.15 1242.04 1037.46 1240.59 1041.05L1240.34 1041.65L1230.53 1063.9L1230.39 1064.25C1228.97 1067.74 1229.4 1069.94 1231.66 1070.86C1232.75 1071.3 1234.3 1071.15 1236.3 1070.41L1236.69 1070.46C1236.96 1070.56 1237.14 1070.84 1237.23 1071.28C1237.32 1071.73 1237.28 1072.15 1237.12 1072.55C1236.73 1073.51 1235.25 1074.28 1232.67 1074.86C1230.1 1075.45 1227.63 1075.26 1225.27 1074.31ZM1226.67 1048.76C1216.08 1047.03 1209.76 1048.69 1207.72 1053.74C1205.81 1058.46 1206.68 1061.56 1210.34 1063.04C1212.1 1063.75 1214.01 1064.01 1216.08 1063.83C1218.15 1063.64 1219.74 1063.02 1220.87 1061.96L1226.67 1048.76Z"/>
<path d="M1293.79 1076.04C1291.14 1082.59 1286.73 1087.12 1280.57 1089.63C1274.41 1092.15 1267.88 1092.01 1261 1089.23C1257.05 1087.63 1253.97 1085.49 1251.76 1082.82L1245.55 1098.18C1244.24 1101.4 1243.8 1103.7 1244.21 1105.06C1244.63 1106.43 1246.19 1107.87 1248.9 1109.4C1249.43 1109.61 1249.51 1110.18 1249.13 1111.11C1248.76 1112.04 1248.3 1112.4 1247.77 1112.19C1246.41 1111.64 1244.69 1110.82 1242.61 1109.75C1240.36 1108.61 1238.44 1107.72 1236.84 1107.07C1235.18 1106.4 1233.13 1105.68 1230.69 1104.93C1228.48 1104.27 1226.7 1103.66 1225.34 1103.11C1224.8 1102.89 1224.73 1102.32 1225.1 1101.39C1225.48 1100.46 1225.93 1100.1 1226.46 1100.32C1229.44 1101.09 1231.56 1101.14 1232.82 1100.45C1234.09 1099.76 1235.37 1097.81 1236.67 1094.58L1254.55 1050.41C1255.63 1047.76 1255.99 1045.87 1255.65 1044.77C1255.3 1043.66 1254 1042.5 1251.75 1041.28C1251.22 1041.06 1251.13 1040.52 1251.48 1039.66C1251.8 1038.86 1252.23 1038.57 1252.76 1038.78C1256.31 1039.29 1259.38 1039.47 1261.97 1039.32C1264.56 1039.17 1266.36 1038.87 1267.35 1038.42C1267.88 1038.17 1268.31 1038.11 1268.64 1038.25C1269.57 1038.62 1269.93 1039.08 1269.71 1039.61L1266.77 1045.73C1269.37 1044.58 1272.12 1043.84 1275.03 1043.53C1277.94 1043.22 1280.24 1043.41 1281.94 1044.09C1288.49 1046.74 1292.81 1050.98 1294.9 1056.79C1297 1062.61 1296.62 1069.03 1293.79 1076.04ZM1283.81 1071.88C1286.05 1066.33 1286.6 1061.52 1285.45 1057.44C1284.29 1053.35 1281.54 1050.43 1277.19 1048.67C1275.36 1047.93 1273.55 1047.64 1271.76 1047.81C1269.97 1047.97 1267.73 1048.71 1265.04 1050.02L1255.15 1074.45C1254.29 1076.57 1254.52 1078.73 1255.83 1080.93C1257.15 1083.13 1259.17 1084.78 1261.9 1085.88C1266.42 1087.71 1270.56 1087.4 1274.33 1084.96C1278.11 1082.53 1281.26 1078.17 1283.81 1071.88Z"/>
<path d="M1315.26 1107.71C1314.88 1108.64 1314.43 1108.99 1313.9 1108.78C1312.53 1108.23 1310.82 1107.44 1308.76 1106.41C1306.44 1105.28 1304.46 1104.38 1302.83 1103.72C1301.24 1103.07 1299.23 1102.36 1296.8 1101.57C1294.6 1100.87 1292.83 1100.25 1291.46 1099.7C1290.93 1099.48 1290.85 1098.91 1291.23 1097.98C1291.57 1097.15 1292.01 1096.81 1292.57 1096.96C1295.53 1097.77 1297.64 1097.84 1298.9 1097.17C1300.16 1096.5 1301.44 1094.53 1302.76 1091.28L1321.5 1044.96C1322.59 1042.27 1322.97 1040.37 1322.65 1039.27C1322.32 1038.17 1321.01 1037.01 1318.73 1035.77C1318.22 1035.49 1318.12 1034.97 1318.43 1034.2C1318.76 1033.41 1319.18 1033.11 1319.71 1033.33C1323.57 1033.84 1326.81 1034.05 1329.45 1033.93C1332.09 1033.82 1333.83 1033.53 1334.68 1033.06C1335.16 1032.83 1335.6 1032.79 1335.99 1032.96C1336.93 1033.33 1337.28 1033.79 1337.07 1034.32C1333.52 1041.55 1330.92 1047.22 1329.25 1051.35L1311.64 1094.87C1310.32 1098.12 1309.87 1100.43 1310.29 1101.78C1310.71 1103.13 1312.28 1104.55 1315.01 1106.04C1315.51 1106.32 1315.6 1106.87 1315.26 1107.71Z"/>
<path d="M1350.2 1124.86C1348.34 1124.11 1346.91 1123 1345.9 1121.53C1344.89 1120.05 1344.45 1118.44 1344.59 1116.67C1339.55 1118.89 1334.16 1118.83 1328.41 1116.51C1325.42 1115.3 1323.35 1113.39 1322.2 1110.77C1321.05 1108.16 1321.03 1105.48 1322.15 1102.72C1324.91 1095.91 1335.22 1093.66 1353.08 1095.97L1356.52 1088.32L1356.63 1088.07C1357.59 1085.67 1357.77 1083.53 1357.17 1081.64C1356.56 1079.75 1355.27 1078.41 1353.31 1077.62C1351.35 1076.82 1349.5 1076.63 1347.75 1077.02C1346.01 1077.42 1344.83 1078.32 1344.21 1079.74C1343.32 1081.85 1342.09 1083.29 1340.53 1084.05C1338.96 1084.81 1337.28 1084.82 1335.49 1084.1C1334.43 1083.67 1333.69 1083 1333.28 1082.1C1332.87 1081.2 1332.88 1080.22 1333.31 1079.16C1334.35 1076.6 1337.76 1074.85 1343.55 1073.93C1349.34 1073 1354.23 1073.35 1358.22 1074.96C1361.81 1076.41 1364.28 1078.65 1365.65 1081.68C1367.02 1084.71 1366.97 1088.02 1365.52 1091.61L1365.28 1092.21L1355.46 1114.46L1355.32 1114.81C1353.91 1118.3 1354.33 1120.5 1356.59 1121.41C1357.69 1121.86 1359.24 1121.71 1361.24 1120.97L1361.63 1121.02C1361.89 1121.12 1362.07 1121.4 1362.16 1121.84C1362.25 1122.28 1362.22 1122.71 1362.06 1123.1C1361.67 1124.07 1360.18 1124.84 1357.61 1125.42C1355.03 1126.01 1352.56 1125.82 1350.2 1124.86ZM1351.61 1099.32C1341.01 1097.59 1334.7 1099.25 1332.65 1104.3C1330.74 1109.02 1331.61 1112.12 1335.27 1113.6C1337.03 1114.31 1338.95 1114.57 1341.01 1114.39C1343.08 1114.2 1344.68 1113.58 1345.8 1112.52L1351.61 1099.32Z"/>
<path d="M1416.35 1107.65C1415.25 1110.38 1413.33 1111.19 1410.61 1110.09C1409.44 1109.62 1408.59 1108.98 1408.04 1108.18C1407.5 1107.38 1407.18 1105.99 1407.08 1104.02C1406.98 1101.7 1406.55 1100.02 1405.78 1099C1405.02 1097.97 1403.82 1097.13 1402.19 1096.47C1398.17 1094.84 1394.43 1095.27 1390.97 1097.76C1387.5 1100.25 1384.48 1104.7 1381.88 1111.11C1379.71 1116.46 1379.3 1121.31 1380.63 1125.66C1381.97 1130.01 1384.86 1133.09 1389.31 1134.89C1394.37 1136.93 1399.01 1136.98 1403.24 1135.02L1403.53 1135.02C1403.83 1135.14 1404.05 1135.45 1404.17 1135.94C1404.3 1136.44 1404.27 1136.92 1404.08 1137.39C1403.82 1138.05 1402.38 1138.8 1399.78 1139.65C1397.17 1140.49 1394.55 1140.86 1391.9 1140.75C1389.26 1140.65 1386.64 1140.07 1384.04 1139.02C1378.09 1136.61 1373.89 1132.37 1371.42 1126.28C1368.95 1120.2 1369.06 1113.81 1371.77 1107.13C1374.44 1100.52 1378.88 1095.94 1385.07 1093.4C1391.26 1090.86 1397.4 1090.82 1403.48 1093.28C1407.97 1095.1 1411.45 1097.41 1413.94 1100.21C1416.42 1103.01 1417.22 1105.49 1416.35 1107.65Z"/>
<path d="M1459.02 1134.67C1458.65 1135.6 1457.86 1135.82 1456.66 1135.34L1429.34 1124.28C1428.42 1126 1427.57 1127.82 1426.79 1129.75C1424.62 1135.1 1424.23 1139.73 1425.61 1143.63C1426.99 1147.53 1430.02 1150.43 1434.7 1152.33C1437.06 1153.28 1439.7 1153.61 1442.6 1153.32C1445.5 1153.03 1448.08 1152.19 1450.34 1150.82L1450.63 1150.83C1450.93 1150.95 1451.15 1151.25 1451.28 1151.73C1451.41 1152.21 1451.38 1152.7 1451.18 1153.2C1450.9 1153.89 1449.24 1154.92 1446.22 1156.27C1443.2 1157.62 1440.21 1158.37 1437.25 1158.52C1434.28 1158.68 1431.44 1158.2 1428.71 1157.1C1422.73 1154.68 1418.58 1150.45 1416.27 1144.41C1413.96 1138.36 1414.09 1132.15 1416.67 1125.77C1419.31 1119.26 1423.55 1114.55 1429.38 1111.65C1435.21 1108.75 1441.21 1108.55 1447.35 1111.03C1452.51 1113.12 1456.15 1116.56 1458.29 1121.35C1460.43 1126.14 1460.68 1130.58 1459.02 1134.67ZM1451.73 1126.61C1452.73 1124.12 1452.72 1121.7 1451.67 1119.37C1450.62 1117.03 1448.76 1115.31 1446.06 1114.23C1443.5 1113.19 1440.85 1113.36 1438.11 1114.75C1435.36 1116.13 1432.95 1118.43 1430.87 1121.65L1444.89 1126.86C1447 1127.68 1448.57 1128.08 1449.6 1128.07C1450.63 1128.06 1451.34 1127.58 1451.73 1126.61Z"/>
<path d="M1495.64 1142.53C1494.92 1144.32 1494.12 1145.05 1493.26 1144.7L1467.33 1134.21C1466.47 1133.86 1466.4 1132.78 1467.13 1130.99C1467.88 1129.13 1468.69 1128.37 1469.55 1128.72L1495.48 1139.21C1496.34 1139.56 1496.4 1140.67 1495.64 1142.53Z"/>
<path d="M1158.57 1142.93C1153.55 1147.59 1149.14 1152.18 1145.33 1156.72C1132.96 1151.25 1124.12 1147.44 1118.8 1145.28C1113.55 1143.16 1104.56 1139.75 1091.84 1135.07C1091.31 1134.85 1091.23 1134.28 1091.61 1133.35C1091.94 1132.52 1092.39 1132.18 1092.95 1132.33C1095.84 1133.11 1098.13 1133.52 1099.82 1133.57C1101.5 1133.61 1102.82 1133.28 1103.78 1132.59C1104.74 1131.89 1105.69 1130.38 1106.63 1128.06L1125.61 1081.14C1126.54 1078.85 1126.92 1077.12 1126.76 1075.95C1126.59 1074.78 1125.89 1073.62 1124.66 1072.46C1123.43 1071.3 1121.46 1069.99 1118.77 1068.51C1118.24 1068.3 1118.16 1067.72 1118.54 1066.79C1118.92 1065.86 1119.37 1065.51 1119.9 1065.72C1128.12 1069.51 1136.61 1073.18 1145.39 1076.73C1154.23 1080.31 1162.9 1083.58 1171.4 1086.56C1170.08 1092.02 1169.14 1097.56 1168.57 1103.17C1168.3 1103.83 1167.58 1103.93 1166.42 1103.46C1165.86 1103.23 1165.6 1102.86 1165.66 1102.34C1166.37 1093.5 1162.71 1087.45 1154.66 1084.2L1144.59 1080.12C1140.74 1078.56 1138 1079.78 1136.39 1083.76L1127.41 1105.95L1139.97 1111.03C1143.3 1112.38 1145.86 1112.52 1147.66 1111.47C1149.46 1110.42 1151.37 1108.05 1153.41 1104.35C1153.63 1103.81 1154.2 1103.74 1155.13 1104.11C1156.06 1104.49 1156.42 1104.94 1156.21 1105.48C1155.53 1107.14 1154.59 1109.19 1153.36 1111.64C1152.18 1113.98 1151.28 1115.92 1150.66 1117.45C1150.03 1119.01 1149.32 1121.04 1148.54 1123.55C1147.69 1126.22 1146.93 1128.39 1146.26 1130.05C1146.04 1130.59 1145.47 1130.66 1144.54 1130.29C1143.61 1129.91 1143.25 1129.46 1143.47 1128.92C1144.61 1124.67 1144.89 1121.47 1144.3 1119.34C1143.71 1117.21 1141.84 1115.5 1138.68 1114.22L1126.12 1109.14L1116.19 1133.67C1114.61 1137.59 1115.74 1140.33 1119.6 1141.89L1130.46 1146.29C1134.42 1147.89 1138.86 1148.19 1143.79 1147.19C1148.72 1146.18 1152.88 1144.13 1156.27 1141.01C1156.53 1140.76 1156.87 1140.73 1157.3 1140.9C1157.77 1141.09 1158.13 1141.39 1158.4 1141.78C1158.66 1142.18 1158.72 1142.56 1158.57 1142.93Z"/>
<path d="M1203.18 1178.5C1202.8 1179.43 1202.35 1179.79 1201.82 1179.57C1200.49 1179.04 1198.85 1178.26 1196.9 1177.24C1194.76 1176.14 1192.87 1175.26 1191.24 1174.6C1189.58 1173.92 1187.44 1173.18 1184.84 1172.35C1182.43 1171.61 1180.56 1170.97 1179.23 1170.43C1178.7 1170.22 1178.62 1169.65 1179 1168.72C1179.34 1167.88 1179.78 1167.54 1180.34 1167.69C1183.07 1168.41 1184.7 1168.12 1185.22 1166.82C1185.65 1165.76 1185.42 1163.33 1184.52 1159.52L1182.68 1151.87L1175.88 1156.08C1172.12 1158.27 1170.07 1159.8 1169.72 1160.67C1169.24 1161.87 1170.25 1163.18 1172.76 1164.63C1173.2 1164.88 1173.25 1165.42 1172.92 1166.25C1172.54 1167.18 1172.09 1167.54 1171.56 1167.33C1170.36 1166.84 1168.89 1166.13 1167.14 1165.19C1165.26 1164.2 1163.69 1163.45 1162.43 1162.94C1161.03 1162.37 1159.37 1161.84 1157.45 1161.33C1155.95 1160.92 1154.77 1160.54 1153.91 1160.19C1153.38 1159.97 1153.3 1159.4 1153.67 1158.47C1154.01 1157.64 1154.49 1157.31 1155.12 1157.48C1158.12 1158.27 1160.52 1158.46 1162.32 1158.05C1164.11 1157.63 1167.03 1156.33 1171.09 1154.14L1181.78 1148.37L1178.05 1132.94C1176.96 1128.55 1175.92 1125.6 1174.93 1124.08C1173.94 1122.56 1172.25 1121.16 1169.87 1119.88C1169.36 1119.6 1169.29 1119.03 1169.64 1118.16C1170.01 1117.23 1170.47 1116.88 1171 1117.09C1172.36 1117.64 1174.03 1118.43 1176.01 1119.47C1178.23 1120.6 1180.13 1121.48 1181.72 1122.13C1183.35 1122.79 1185.4 1123.5 1187.88 1124.27C1190.09 1124.93 1191.87 1125.54 1193.23 1126.09C1193.77 1126.3 1193.84 1126.88 1193.47 1127.81C1193.13 1128.64 1192.68 1128.98 1192.12 1128.83C1189.68 1128.19 1188.18 1128.53 1187.65 1129.86C1187.22 1130.92 1187.47 1133.35 1188.42 1137.13L1190.13 1144.09L1196.29 1140.32C1199.99 1138.07 1202.01 1136.52 1202.34 1135.69C1202.83 1134.5 1201.84 1133.21 1199.38 1131.83C1198.88 1131.54 1198.8 1130.97 1199.15 1130.11C1199.53 1129.18 1199.98 1128.82 1200.51 1129.03C1201.68 1129.5 1203.15 1130.22 1204.93 1131.17C1206.74 1132.14 1208.28 1132.87 1209.54 1133.38C1210.97 1133.96 1212.66 1134.51 1214.62 1135.03C1216.12 1135.45 1217.28 1135.82 1218.11 1136.16C1218.64 1136.37 1218.72 1136.94 1218.34 1137.87C1218.01 1138.71 1217.53 1139.03 1216.9 1138.86C1213.85 1138.09 1211.42 1137.92 1209.62 1138.35C1207.82 1138.78 1204.94 1140.07 1200.98 1142.22L1190.89 1147.65L1194.82 1163.75C1195.85 1168.07 1196.85 1171 1197.82 1172.53C1198.79 1174.06 1200.49 1175.5 1202.93 1176.83C1203.43 1177.11 1203.52 1177.67 1203.18 1178.5Z"/>
<path d="M1260.31 1178.53C1257.67 1185.08 1253.26 1189.61 1247.1 1192.13C1240.94 1194.64 1234.41 1194.51 1227.53 1191.72C1223.58 1190.12 1220.5 1187.98 1218.29 1185.31L1212.08 1200.67C1210.77 1203.89 1210.33 1206.19 1210.74 1207.55C1211.16 1208.92 1212.72 1210.36 1215.43 1211.89C1215.96 1212.1 1216.04 1212.67 1215.66 1213.61C1215.28 1214.54 1214.83 1214.89 1214.3 1214.68C1212.94 1214.13 1211.21 1213.31 1209.14 1212.24C1206.89 1211.1 1204.97 1210.21 1203.37 1209.56C1201.71 1208.89 1199.66 1208.17 1197.22 1207.42C1195.01 1206.76 1193.23 1206.15 1191.86 1205.6C1191.33 1205.38 1191.26 1204.81 1191.63 1203.88C1192.01 1202.95 1192.46 1202.59 1192.99 1202.81C1195.97 1203.59 1198.09 1203.63 1199.35 1202.94C1200.62 1202.26 1201.9 1200.3 1203.2 1197.08L1221.08 1152.91C1222.16 1150.25 1222.52 1148.36 1222.18 1147.26C1221.83 1146.15 1220.53 1144.99 1218.28 1143.77C1217.75 1143.55 1217.66 1143.01 1218.01 1142.15C1218.33 1141.35 1218.76 1141.06 1219.29 1141.27C1222.84 1141.78 1225.91 1141.96 1228.5 1141.81C1231.09 1141.66 1232.89 1141.36 1233.88 1140.91C1234.41 1140.66 1234.84 1140.6 1235.17 1140.74C1236.1 1141.12 1236.46 1141.57 1236.24 1142.1L1233.3 1148.22C1235.9 1147.07 1238.65 1146.33 1241.56 1146.02C1244.47 1145.71 1246.77 1145.9 1248.47 1146.59C1255.02 1149.23 1259.34 1153.47 1261.43 1159.29C1263.52 1165.1 1263.15 1171.52 1260.31 1178.53ZM1250.33 1174.38C1252.58 1168.83 1253.13 1164.01 1251.98 1159.93C1250.82 1155.84 1248.07 1152.92 1243.72 1151.16C1241.89 1150.42 1240.08 1150.13 1238.29 1150.3C1236.5 1150.46 1234.26 1151.2 1231.57 1152.51L1221.68 1176.94C1220.82 1179.06 1221.05 1181.23 1222.36 1183.42C1223.68 1185.62 1225.7 1187.27 1228.43 1188.37C1232.95 1190.2 1237.09 1189.89 1240.86 1187.46C1244.64 1185.02 1247.79 1180.66 1250.33 1174.38Z"/>
<path d="M1310.19 1190.48C1309.82 1191.41 1309.03 1191.63 1307.83 1191.15L1280.51 1180.09C1279.59 1181.8 1278.73 1183.63 1277.95 1185.55C1275.79 1190.9 1275.39 1195.53 1276.77 1199.44C1278.15 1203.34 1281.19 1206.24 1285.87 1208.14C1288.23 1209.09 1290.86 1209.42 1293.77 1209.13C1296.67 1208.83 1299.25 1208 1301.51 1206.63L1301.8 1206.63C1302.1 1206.75 1302.31 1207.05 1302.45 1207.53C1302.58 1208.01 1302.55 1208.5 1302.35 1209C1302.06 1209.7 1300.41 1210.72 1297.39 1212.07C1294.37 1213.42 1291.38 1214.17 1288.41 1214.33C1285.45 1214.48 1282.61 1214.01 1279.88 1212.91C1273.9 1210.48 1269.75 1206.25 1267.44 1200.21C1265.13 1194.17 1265.26 1187.96 1267.84 1181.58C1270.48 1175.06 1274.71 1170.36 1280.55 1167.46C1286.38 1164.56 1292.37 1164.35 1298.52 1166.84C1303.67 1168.93 1307.32 1172.36 1309.46 1177.16C1311.6 1181.95 1311.85 1186.39 1310.19 1190.48ZM1302.89 1182.42C1303.9 1179.93 1303.88 1177.51 1302.84 1175.17C1301.79 1172.83 1299.92 1171.12 1297.23 1170.03C1294.67 1169 1292.02 1169.17 1289.27 1170.55C1286.53 1171.94 1284.12 1174.24 1282.04 1177.46L1296.06 1182.67C1298.17 1183.48 1299.74 1183.89 1300.77 1183.88C1301.79 1183.87 1302.5 1183.38 1302.89 1182.42Z"/>
<path d="M1355.53 1195.71C1354.99 1197.04 1354.13 1198.01 1352.94 1198.61C1351.75 1199.21 1350.57 1199.28 1349.41 1198.8C1347.94 1198.21 1346.69 1197.15 1345.65 1195.6C1344.83 1194.38 1344.01 1193.6 1343.18 1193.27C1341.02 1192.39 1338.28 1192.75 1334.96 1194.35L1325.89 1216.79C1324.71 1219.68 1324.4 1221.9 1324.93 1223.45C1325.46 1225 1327.27 1226.65 1330.35 1228.4C1330.86 1228.68 1330.94 1229.24 1330.61 1230.07C1330.23 1231 1329.77 1231.36 1329.24 1231.14C1327.88 1230.59 1325.99 1229.71 1323.58 1228.5C1320.9 1227.19 1318.75 1226.2 1317.12 1225.54C1315.46 1224.87 1313.41 1224.15 1310.97 1223.4C1308.76 1222.74 1306.97 1222.13 1305.61 1221.58C1305.08 1221.36 1305 1220.79 1305.38 1219.86C1305.72 1219.03 1306.16 1218.69 1306.72 1218.84C1309.76 1219.64 1311.89 1219.71 1313.11 1219.04C1314.33 1218.37 1315.59 1216.41 1316.91 1213.15L1324.38 1194.71C1325.45 1192.05 1325.82 1190.17 1325.47 1189.06C1325.13 1187.95 1323.83 1186.79 1321.58 1185.57C1321.05 1185.35 1320.95 1184.81 1321.3 1183.95C1321.63 1183.15 1322.05 1182.86 1322.59 1183.08C1326.21 1183.58 1329.3 1183.75 1331.86 1183.61C1334.41 1183.46 1336.17 1183.16 1337.13 1182.7C1337.69 1182.46 1338.17 1182.42 1338.57 1182.58C1339.5 1182.96 1339.86 1183.41 1339.64 1183.94L1336.7 1190.06C1340.35 1188.68 1343.34 1187.88 1345.65 1187.65C1347.97 1187.43 1350.07 1187.7 1351.97 1188.47C1353.49 1189.09 1354.61 1190.12 1355.3 1191.56C1355.99 1193 1356.07 1194.38 1355.53 1195.71Z"/>
<path d="M1384.01 1181.54C1383.45 1182.93 1382.45 1183.94 1381.02 1184.56C1379.59 1185.18 1378.16 1185.2 1376.73 1184.62C1375.3 1184.05 1374.29 1183.04 1373.69 1181.6C1373.09 1180.15 1373.08 1178.74 1373.64 1177.34C1374.23 1175.88 1375.23 1174.85 1376.63 1174.26C1378.03 1173.66 1379.46 1173.66 1380.93 1174.25C1382.35 1174.83 1383.37 1175.83 1383.98 1177.23C1384.59 1178.64 1384.6 1180.07 1384.01 1181.54ZM1366.6 1244.63C1366.22 1245.57 1365.77 1245.92 1365.24 1245.71C1363.87 1245.16 1362.17 1244.35 1360.12 1243.29C1357.81 1242.12 1355.84 1241.21 1354.21 1240.55C1352.55 1239.88 1350.52 1239.17 1348.11 1238.43C1345.93 1237.78 1344.17 1237.18 1342.8 1236.63C1342.27 1236.41 1342.19 1235.84 1342.57 1234.91C1342.91 1234.08 1343.35 1233.74 1343.91 1233.89C1346.89 1234.66 1348.98 1234.72 1350.2 1234.05C1351.42 1233.38 1352.68 1231.42 1354 1228.17L1361.47 1209.72C1362.54 1207.06 1362.91 1205.18 1362.56 1204.07C1362.22 1202.96 1360.95 1201.81 1358.77 1200.62C1358.24 1200.41 1358.14 1199.87 1358.49 1199C1358.82 1198.2 1359.24 1197.91 1359.78 1198.13C1363.63 1198.64 1366.87 1198.84 1369.51 1198.73C1372.15 1198.62 1373.88 1198.34 1374.72 1197.91C1375.21 1197.64 1375.66 1197.59 1376.06 1197.75C1376.99 1198.13 1377.35 1198.58 1377.13 1199.12C1373.59 1206.35 1370.98 1212.02 1369.31 1216.14L1362.98 1231.8C1361.66 1235.05 1361.2 1237.35 1361.62 1238.67C1362.03 1240 1363.6 1241.43 1366.35 1242.97C1366.85 1243.25 1366.94 1243.8 1366.6 1244.63Z"/>
<path d="M1449.91 1278.35C1449.53 1279.28 1449.07 1279.64 1448.54 1279.42C1447.21 1278.88 1445.63 1278.12 1443.78 1277.14C1441.73 1276.08 1439.88 1275.22 1438.22 1274.54C1436.59 1273.89 1434.67 1273.23 1432.46 1272.56C1430.45 1271.98 1428.77 1271.42 1427.4 1270.87C1426.87 1270.65 1426.8 1270.08 1427.17 1269.15C1427.51 1268.32 1427.96 1267.98 1428.51 1268.12C1430.88 1268.77 1432.62 1268.72 1433.74 1267.98C1434.85 1267.23 1436.08 1265.21 1437.41 1261.92L1444.15 1245.27C1445.67 1241.51 1446.06 1238.49 1445.32 1236.2C1444.58 1233.91 1442.69 1232.14 1439.63 1230.91C1435.61 1229.28 1431.73 1229.3 1428.01 1230.96L1418.56 1254.29C1417.23 1257.58 1416.72 1259.89 1417.04 1261.22C1417.35 1262.54 1418.58 1263.8 1420.74 1264.98C1421.24 1265.26 1421.33 1265.81 1420.99 1266.65C1420.61 1267.58 1420.16 1267.93 1419.63 1267.72C1418.3 1267.18 1416.79 1266.46 1415.11 1265.54C1413.27 1264.56 1411.54 1263.75 1409.95 1263.11C1408.29 1262.43 1406.44 1261.8 1404.39 1261.21C1402.55 1260.69 1400.97 1260.17 1399.64 1259.63C1399.1 1259.41 1399.03 1258.84 1399.4 1257.91C1399.74 1257.08 1400.19 1256.74 1400.75 1256.89C1403.15 1257.55 1404.91 1257.51 1406.04 1256.77C1407.18 1256.03 1408.41 1254.01 1409.74 1250.72L1416.48 1234.07C1417.98 1230.35 1418.36 1227.33 1417.59 1225.01C1416.83 1222.69 1414.92 1220.91 1411.86 1219.67C1409.93 1218.89 1408.08 1218.57 1406.31 1218.7C1404.53 1218.83 1402.42 1219.49 1399.97 1220.66L1390.89 1243.09C1389.56 1246.39 1389.05 1248.69 1389.34 1250.01C1389.64 1251.33 1390.88 1252.59 1393.07 1253.78C1393.57 1254.06 1393.66 1254.62 1393.32 1255.45C1392.94 1256.38 1392.49 1256.74 1391.96 1256.52C1390.6 1255.97 1388.97 1255.2 1387.09 1254.2C1385.01 1253.13 1383.16 1252.26 1381.53 1251.61C1379.87 1250.93 1377.94 1250.27 1375.73 1249.61C1373.75 1249.04 1372.08 1248.48 1370.72 1247.93C1370.19 1247.71 1370.11 1247.14 1370.49 1246.21C1370.82 1245.38 1371.27 1245.04 1371.83 1245.19C1374.8 1245.96 1376.9 1246.02 1378.12 1245.35C1379.33 1244.68 1380.6 1242.72 1381.92 1239.46L1389.39 1221.02C1390.46 1218.36 1390.83 1216.48 1390.48 1215.37C1390.14 1214.26 1388.87 1213.11 1386.69 1211.92C1386.15 1211.7 1386.06 1211.16 1386.41 1210.3C1386.74 1209.5 1387.16 1209.21 1387.69 1209.43C1391.32 1209.93 1394.44 1210.1 1397.06 1209.94C1399.68 1209.78 1401.4 1209.48 1402.24 1209.04C1402.73 1208.78 1403.18 1208.73 1403.58 1208.89C1404.51 1209.27 1404.86 1209.72 1404.65 1210.25L1401.71 1216.37C1408.3 1213.86 1413.65 1213.43 1417.77 1215.1C1424.09 1217.66 1427.39 1221.82 1427.69 1227.58C1434.7 1224.78 1440.62 1224.35 1445.44 1226.3C1449.99 1228.14 1453.02 1230.87 1454.51 1234.49C1456 1238.11 1455.86 1242.12 1454.09 1246.51L1446.38 1265.55C1445.06 1268.81 1444.61 1271.1 1445.02 1272.43C1445.43 1273.75 1446.98 1275.17 1449.65 1276.68C1450.16 1276.96 1450.24 1277.52 1449.91 1278.35Z"/>
<path d="M1504.32 1269.04C1503.95 1269.97 1503.16 1270.19 1501.96 1269.71L1474.64 1258.65C1473.72 1260.37 1472.86 1262.19 1472.08 1264.12C1469.92 1269.47 1469.53 1274.09 1470.9 1278C1472.28 1281.9 1475.32 1284.8 1480 1286.7C1482.36 1287.65 1484.99 1287.98 1487.9 1287.69C1490.8 1287.39 1493.38 1286.56 1495.64 1285.19L1495.93 1285.19C1496.23 1285.32 1496.44 1285.62 1496.58 1286.1C1496.71 1286.58 1496.68 1287.06 1496.48 1287.56C1496.2 1288.26 1494.54 1289.28 1491.52 1290.63C1488.5 1291.98 1485.51 1292.74 1482.54 1292.89C1479.58 1293.04 1476.74 1292.57 1474.01 1291.47C1468.03 1289.05 1463.88 1284.82 1461.57 1278.77C1459.26 1272.73 1459.39 1266.52 1461.97 1260.14C1464.61 1253.63 1468.84 1248.92 1474.68 1246.02C1480.51 1243.12 1486.5 1242.91 1492.65 1245.4C1497.8 1247.49 1501.45 1250.93 1503.59 1255.72C1505.73 1260.51 1505.98 1264.95 1504.32 1269.04ZM1497.02 1260.98C1498.03 1258.49 1498.01 1256.07 1496.97 1253.73C1495.92 1251.4 1494.05 1249.68 1491.36 1248.59C1488.8 1247.56 1486.15 1247.73 1483.4 1249.12C1480.66 1250.5 1478.25 1252.8 1476.17 1256.02L1490.19 1261.23C1492.3 1262.05 1493.87 1262.45 1494.9 1262.44C1495.92 1262.43 1496.63 1261.94 1497.02 1260.98Z"/>
<path d="M1551.21 1319.34C1550.83 1320.27 1550.38 1320.63 1549.85 1320.42C1548.52 1319.88 1546.93 1319.12 1545.08 1318.14C1543.03 1317.08 1541.2 1316.22 1539.57 1315.56C1537.91 1314.89 1535.96 1314.21 1533.71 1313.54C1531.67 1312.95 1529.99 1312.38 1528.66 1311.84C1528.13 1311.63 1528.05 1311.05 1528.42 1310.12C1528.76 1309.29 1529.21 1308.95 1529.77 1309.1C1532.17 1309.76 1533.93 1309.72 1535.07 1308.98C1536.2 1308.24 1537.43 1306.22 1538.76 1302.93L1545.5 1286.28C1547.01 1282.56 1547.38 1279.54 1546.61 1277.22C1545.85 1274.9 1543.94 1273.12 1540.88 1271.88C1538.96 1271.1 1537.1 1270.78 1535.33 1270.91C1533.55 1271.04 1531.44 1271.7 1528.99 1272.87L1519.92 1295.31C1518.58 1298.6 1518.07 1300.9 1518.36 1302.22C1518.66 1303.54 1519.9 1304.8 1522.09 1305.99C1522.59 1306.27 1522.68 1306.83 1522.34 1307.66C1521.97 1308.59 1521.51 1308.95 1520.98 1308.73C1519.62 1308.18 1518 1307.41 1516.12 1306.42C1514.04 1305.34 1512.18 1304.48 1510.55 1303.82C1508.96 1303.17 1507.06 1302.52 1504.85 1301.86C1502.81 1301.26 1501.11 1300.69 1499.74 1300.14C1499.21 1299.92 1499.13 1299.35 1499.51 1298.42C1499.85 1297.59 1500.29 1297.25 1500.85 1297.4C1503.86 1298.19 1505.98 1298.25 1507.22 1297.57C1508.46 1296.89 1509.74 1294.94 1511.04 1291.72L1518.51 1273.27C1519.58 1270.61 1519.95 1268.73 1519.6 1267.62C1519.26 1266.52 1517.96 1265.35 1515.71 1264.13C1515.18 1263.92 1515.08 1263.38 1515.43 1262.51C1515.76 1261.71 1516.18 1261.42 1516.72 1261.64C1520.34 1262.14 1523.46 1262.31 1526.08 1262.15C1528.7 1261.99 1530.42 1261.69 1531.26 1261.26C1531.75 1260.99 1532.2 1260.94 1532.6 1261.1C1533.53 1261.48 1533.89 1261.93 1533.67 1262.47L1530.73 1268.59C1537.32 1266.07 1542.67 1265.65 1546.79 1267.31C1551.31 1269.14 1554.32 1271.87 1555.81 1275.49C1557.31 1279.11 1557.17 1283.11 1555.39 1287.5L1547.68 1306.55C1546.37 1309.8 1545.91 1312.09 1546.32 1313.42C1546.73 1314.75 1548.28 1316.17 1550.96 1317.67C1551.46 1317.96 1551.54 1318.51 1551.21 1319.34Z"/>
<path d="M1601.65 1295.2C1600.92 1296.99 1600.13 1297.72 1599.26 1297.37L1584.57 1290.95L1574.89 1314.88C1572.36 1321.13 1573.32 1325.16 1577.77 1326.96C1580.53 1328.08 1583.3 1328.44 1586.09 1328.06C1586.35 1328.17 1586.52 1328.44 1586.6 1328.88C1586.67 1329.31 1586.63 1329.73 1586.47 1330.13C1586.13 1330.96 1584.44 1331.58 1581.39 1331.99C1578.34 1332.4 1575.28 1331.98 1572.18 1330.73C1568.4 1329.2 1565.84 1326.82 1564.51 1323.6C1563.19 1320.37 1563.29 1316.87 1564.83 1313.08L1565.01 1312.63L1575.01 1288.48C1575.39 1287.55 1575.18 1286.92 1574.38 1286.6L1570.59 1285.07C1569.86 1284.77 1569.67 1284.19 1570.02 1283.33C1570.29 1282.66 1570.79 1282.28 1571.52 1282.19C1577.24 1281.34 1582.82 1279.13 1588.25 1275.56C1588.83 1275.18 1589.4 1275.1 1589.97 1275.33C1590.9 1275.7 1591.25 1276.16 1591.04 1276.69L1586.79 1286.05L1601.44 1291.98C1602.31 1292.33 1602.38 1293.4 1601.65 1295.2Z"/>
<path d="M1640.92 1324.32C1640.54 1325.25 1639.76 1325.47 1638.56 1324.99L1611.24 1313.93C1610.32 1315.65 1609.46 1317.47 1608.68 1319.4C1606.52 1324.75 1606.12 1329.37 1607.5 1333.28C1608.88 1337.18 1611.92 1340.08 1616.6 1341.98C1618.96 1342.93 1621.59 1343.26 1624.5 1342.97C1627.4 1342.67 1629.98 1341.84 1632.24 1340.47L1632.53 1340.47C1632.83 1340.6 1633.04 1340.9 1633.18 1341.38C1633.31 1341.86 1633.28 1342.34 1633.08 1342.84C1632.79 1343.54 1631.14 1344.56 1628.12 1345.91C1625.1 1347.26 1622.11 1348.02 1619.14 1348.17C1616.18 1348.32 1613.34 1347.85 1610.61 1346.75C1604.63 1344.33 1600.48 1340.1 1598.17 1334.05C1595.85 1328.01 1595.99 1321.8 1598.57 1315.42C1601.21 1308.91 1605.44 1304.2 1611.28 1301.3C1617.11 1298.4 1623.1 1298.19 1629.25 1300.68C1634.4 1302.77 1638.05 1306.21 1640.19 1311C1642.33 1315.79 1642.58 1320.23 1640.92 1324.32ZM1633.62 1316.26C1634.63 1313.77 1634.61 1311.35 1633.57 1309.01C1632.52 1306.68 1630.65 1304.96 1627.96 1303.87C1625.4 1302.84 1622.75 1303.01 1620 1304.4C1617.26 1305.78 1614.85 1308.08 1612.77 1311.3L1626.79 1316.51C1628.9 1317.33 1630.47 1317.73 1631.5 1317.72C1632.52 1317.71 1633.23 1317.22 1633.62 1316.26Z"/>
</g>
<g opacity="1">
<path d="M601.811 837.205C602.279 848.355 600.997 859.718 603.216 870.655C605.12 880.036 605.404 901.477 614.001 897.268C624.823 891.969 618.308 873.539 621.212 861.844C622.816 855.384 621.162 844.911 627.504 842.892C633.047 841.127 635.972 851.139 638.7 856.276C642.488 863.412 640.295 874.278 646.749 879.137C650.872 882.242 657.378 876.747 660.993 873.061C664.525 869.46 664.427 863.563 666.523 858.974C670.333 850.631 670.235 837.837 678.697 834.297C684.408 831.908 685.399 844.792 689.638 849.303C694.008 853.953 698.125 863.061 704.331 861.574C712.187 859.692 714.913 849.248 718.986 842.271C721.799 837.452 719.956 829.384 724.77 826.562C729.044 824.056 734.934 827.805 739.111 830.47C743.364 833.183 744.762 839.15 748.939 841.979C753.559 845.108 759.337 846.05 764.648 847.763C769.363 849.284 774.103 852.492 778.989 851.672C785.142 850.639 789.157 843.241 795.363 842.606C800.914 842.039 805.836 846.463 811.072 848.391" fill="#000000" fill-opacity="0" fill-rule="nonzero" stroke="none"/>
<path d="M730 816.906C728.633 816.743 727.252 816.747 725.844 816.938C719.539 817.792 715.065 822.208 713.219 828.156C712.646 830.002 712.351 831.907 712.062 833.812C711.877 835.04 711.754 836.311 711.375 837.5C711.103 838.354 710.506 839.152 710.094 839.938C709.544 840.987 709.043 842.057 708.531 843.125C707.317 845.661 706.174 848.287 704.594 850.625C704.205 851.2 703.749 851.732 703.25 852.219C703.165 852.129 703.085 852.032 703.031 851.969C702.358 851.184 701.717 850.356 701.094 849.531C699.478 847.392 697.85 845.332 696.125 843.281C695.647 842.713 695.353 841.887 695.062 841.219C694.426 839.752 693.857 838.229 693.25 836.75C691.184 831.719 688.341 826.764 682.594 825.469C681.724 825.273 680.893 825.187 680 825.188C677.666 825.19 675.46 825.944 673.438 827.062C672.214 827.739 671.037 828.56 670 829.5C663.403 835.483 662.203 843.871 659.781 851.938C658.93 854.771 657.627 857.42 656.844 860.281C656.566 861.296 656.411 861.962 656.156 862.969C655.885 864.038 655.564 866.003 654.812 866.906C654.412 867.388 653.617 868.115 653.156 868.531C652.763 868.886 652.255 869.304 651.812 869.656C651.568 869.851 651.284 870.003 651.031 870.188C650.808 869.461 650.586 868.74 650.438 867.969C649.787 864.59 649.416 861.168 648.5 857.844C647.715 854.995 646.381 852.448 645.156 849.781C642.081 843.087 638.374 834.988 630.031 834.156C628.989 834.052 627.942 834.061 626.906 834.219C625.259 834.47 623.638 835.059 622.188 835.875C620.822 836.643 619.568 837.636 618.531 838.812C613.709 844.285 614.077 851.355 613.188 858.125C613.023 859.378 612.688 860.568 612.469 861.812C612.007 864.43 611.841 867.096 611.812 869.75C611.809 870.041 611.812 870.334 611.812 870.625C611.575 869.297 611.359 867.96 611.156 866.625C610.784 864.174 610.577 861.695 610.469 859.219C610.145 851.796 610.542 844.364 610.312 836.938C610.169 832.237 606.263 828.544 601.562 828.688C596.862 828.831 593.169 832.768 593.312 837.469C593.54 844.968 593.145 852.472 593.469 859.969C593.602 863.054 593.849 866.133 594.312 869.188C594.65 871.409 595.131 873.617 595.438 875.844C596.135 880.902 596.628 885.986 597.781 890.969C599.247 897.306 602.12 904.306 609.156 906C610.207 906.253 611.2 906.37 612.281 906.344C615.087 906.275 617.761 905.177 620.062 903.625C621.485 902.666 622.742 901.503 623.844 900.188C631.215 891.384 628.551 878.958 628.969 868.5C629.017 867.284 629.122 866.042 629.344 864.844C629.55 863.729 629.847 862.652 630.031 861.531C630.175 860.653 630.22 859.76 630.312 858.875C630.882 860.05 631.471 861.104 631.812 862.375C632.384 864.504 632.649 866.735 633 868.906C633.577 872.477 634.347 876.048 635.969 879.312C638.609 884.626 643.545 888.75 649.656 888.75C651.087 888.75 652.502 888.513 653.875 888.125C658.012 886.955 661.651 884.334 664.812 881.5C667.09 879.458 669.112 877.294 670.531 874.562C672.271 871.214 672.862 867.536 673.969 863.969C674.557 862.073 675.5 860.295 676.125 858.406C677.207 855.137 677.983 851.757 679 848.469C679.865 850.45 680.803 852.402 682.125 854.125C682.964 855.218 683.947 856.213 684.781 857.312C689.257 863.214 693.536 869.711 701.594 870.562C702.547 870.663 703.516 870.63 704.469 870.531C706.038 870.368 707.6 869.96 709.062 869.375C717.625 865.95 721.238 857.603 725.031 849.906C726.32 847.29 727.856 844.865 728.656 842.031C729.261 839.89 729.522 837.678 729.938 835.5C731.089 836.051 732.213 836.704 733.281 837.375C733.733 837.659 734.199 837.866 734.562 838.25C735.35 839.082 735.941 840.109 736.562 841.062C737.785 842.937 739.011 844.903 740.562 846.531C744.146 850.291 748.976 852.434 753.844 853.969C756.779 854.894 759.832 855.519 762.719 856.594C764.718 857.338 766.622 858.26 768.625 859C772.035 860.259 775.664 861.071 779.312 860.688C785.273 860.062 789.429 856.63 793.938 853.094C794.481 852.667 795.079 852.317 795.656 851.938C795.758 851.87 795.825 851.736 795.938 851.688C796.03 851.648 796.12 851.709 796.219 851.688C796.358 851.658 796.475 851.582 796.625 851.562C796.759 851.585 796.901 851.62 797.031 851.656C797.361 851.749 797.683 851.87 798 852C798.838 852.343 799.636 852.767 800.438 853.188C802.831 854.443 805.18 855.697 807.688 856.719C812.293 858.581 817.544 856.355 819.406 851.75C821.269 847.145 819.043 841.925 814.438 840.062C811.69 838.963 809.206 837.382 806.531 836.125C802.524 834.241 798.009 833.021 793.562 833.812C792.882 833.934 792.227 834.123 791.562 834.312C790.676 834.565 789.755 834.766 788.906 835.125C788.055 835.485 787.269 836.007 786.469 836.469C785.229 837.184 784.072 838.033 782.938 838.906C781.874 839.725 780.845 840.557 779.781 841.375C778.41 842.429 777.905 843.045 776.344 842.656C774.28 842.143 772.338 841.104 770.375 840.312C767.974 839.344 765.491 838.632 763 837.938C761.02 837.386 759.045 836.866 757.125 836.125C756.395 835.843 755.659 835.526 754.969 835.156C754.736 835.031 754.536 834.852 754.281 834.781C754.028 834.583 753.753 834.389 753.531 834.156C752.759 833.345 752.172 832.213 751.562 831.281C750.516 829.679 749.452 828.099 748.188 826.656C746.278 824.477 743.997 822.893 741.531 821.406C738.004 819.28 734.102 817.397 730 816.906Z" fill="#000000" stroke="none"/>
</g>
<g opacity="1">
<path d="M908.3 800.486C912.234 807.194 912.538 822.424 920.101 820.611C930.582 818.1 928.257 798.742 937.648 793.453C943.084 790.392 949.644 797.493 954.725 801.113C958.833 804.04 959.568 811.841 964.552 812.622C970.399 813.538 976.475 809.352 980.672 805.179C984.249 801.621 981.227 791.927 986.202 791.091C992.235 790.078 995.757 798.85 1001.15 801.741C1006.07 804.377 1011.39 808.652 1016.86 807.525C1022.22 806.42 1023.65 798.37 1028.62 796.076C1034.9 793.174 1042.19 792.22 1049.1 792.638C1054.13 792.943 1058.45 796.425 1063.19 798.168C1068.93 800.282 1074.74 802.193 1080.52 804.206" fill="#000000" fill-opacity="0" fill-rule="nonzero" stroke="none"/>
<path d="M986.625 782.219C981.673 782.417 977.393 785.316 975.531 789.969C974.63 792.221 974.358 794.607 974.125 797C974.046 797.812 973.971 798.631 973.844 799.438C973.833 799.508 973.822 799.542 973.812 799.594C972.382 800.911 970.92 802.172 969.188 803.094C968.534 803.441 967.844 803.723 967.125 803.906C967.029 803.737 966.897 803.532 966.844 803.438C965.555 801.144 964.423 798.82 962.688 796.812C961.499 795.438 960.123 794.405 958.688 793.312C956.991 792.021 955.343 790.639 953.625 789.375C949.727 786.508 945.318 784.094 940.344 784.125C935.843 784.153 931.724 786.468 928.75 789.75C926.28 792.476 924.608 795.752 923.281 799.156C922.669 800.728 922.146 802.365 921.625 803.969C921.187 805.318 920.766 806.666 920.281 808C920.227 808.149 920.149 808.289 920.094 808.438C920.042 808.261 919.989 808.083 919.938 807.906C918.789 803.944 917.746 799.935 915.719 796.312C913.414 792.213 908.224 790.757 904.125 793.062C900.026 795.368 898.57 800.557 900.875 804.656C902.255 807.088 902.825 809.999 903.594 812.656C905.318 818.618 907.574 825.369 913.656 828.156C914.791 828.676 916.012 829.023 917.25 829.188C918.877 829.403 920.532 829.288 922.125 828.906C923.375 828.607 924.6 828.137 925.75 827.562C932.436 824.221 935.195 817.429 937.406 810.75C938.243 808.223 939.025 805.666 940.156 803.25C940.422 802.682 940.791 802.185 941.156 801.688C941.367 801.805 941.576 801.933 941.781 802.062C942.561 802.554 943.302 803.094 944.031 803.656C945.433 804.738 946.787 805.885 948.188 806.969C948.633 807.314 949.08 807.663 949.531 808C949.556 808.019 949.564 808.073 949.594 808.062C949.627 808.101 949.634 808.126 949.656 808.156C949.702 808.219 949.77 808.279 949.812 808.344C949.876 808.44 949.908 808.527 949.969 808.625C950.233 809.054 950.481 809.494 950.719 809.938C952.453 813.176 954.214 816.465 957.25 818.688C964.748 824.177 974.952 820.692 981.719 815.75C983.034 814.789 984.297 813.755 985.5 812.656C986.414 811.822 987.312 810.957 988.062 809.969C989.323 808.31 990.066 806.373 990.594 804.375C990.757 804.547 990.897 804.738 991.062 804.906C992.225 806.088 993.276 807.106 994.625 808.094C996.042 809.131 997.618 809.918 999.125 810.812C1003.92 813.656 1008.9 816.507 1014.62 816.625C1019.56 816.727 1023.99 814.743 1027.31 811.125C1028.74 809.574 1029.91 807.793 1031.09 806.062C1031.56 805.382 1032 804.678 1032.59 804.094C1033.31 803.797 1034.02 803.502 1034.75 803.25C1036.46 802.661 1038.24 802.25 1040.03 801.969C1042.37 801.6 1044.75 801.463 1047.12 801.531C1047.77 801.55 1048.48 801.517 1049.12 801.656C1051.02 802.062 1052.77 803.16 1054.47 804.031C1056.28 804.962 1058.09 805.835 1060 806.562C1065.79 808.771 1071.71 810.687 1077.56 812.719C1082.26 814.342 1087.41 811.851 1089.03 807.156C1090.65 802.462 1088.16 797.342 1083.47 795.719C1079.15 794.228 1074.81 792.764 1070.5 791.25C1068.84 790.668 1067.15 790.123 1065.53 789.438C1063.71 788.664 1061.97 787.677 1060.19 786.812C1057.82 785.664 1055.36 784.662 1052.78 784.125C1050.4 783.63 1047.95 783.571 1045.53 783.594C1042.04 783.626 1038.55 783.937 1035.12 784.625C1029.45 785.767 1023.37 787.683 1019.34 792.062C1017.88 793.65 1016.7 795.466 1015.5 797.25C1015.19 797.706 1014.86 798.155 1014.53 798.594C1014.5 798.637 1014.47 798.677 1014.44 798.719C1014.33 798.692 1014.2 798.658 1014.09 798.625C1013.87 798.558 1013.65 798.462 1013.44 798.375C1012.85 798.133 1012.22 797.827 1011.66 797.531C1010 796.657 1008.41 795.642 1006.78 794.719C1006.2 794.39 1005.58 794.134 1005.03 793.75C1004.16 793.14 1003.43 792.237 1002.72 791.469C1001.68 790.345 1000.68 789.206 999.594 788.125C996.102 784.648 991.7 782.015 986.625 782.219Z" fill="#000000" stroke="none"/>
</g>
<g opacity="1">
<path d="M657.235 1013.7C654.206 1025.97 642.592 1039.15 648.147 1050.49C651.952 1058.26 661.522 1039.07 666.046 1031.7C672.846 1020.61 671.454 1004.03 681.62 995.923C686.788 991.8 684.797 1008.78 686.934 1015.03C688.602 1019.92 688.726 1026.4 693.01 1029.28C697.573 1032.35 704.565 1032.66 709.481 1030.2C714.298 1027.78 712.96 1017.62 718.255 1016.62C724.044 1015.52 728.388 1022.63 733.455 1025.64" fill="#000000" fill-opacity="0" fill-rule="nonzero" stroke="none"/>
<path d="M680.969 986.688C678.357 987.192 676.219 988.83 674.344 990.625C671.688 993.167 669.609 996.203 668 999.5C666.454 1002.67 665.437 1006.01 664.531 1009.38C663.443 1007.54 661.691 1006.11 659.469 1005.5C654.931 1004.26 650.268 1006.93 649.031 1011.47C647.01 1018.92 642.721 1025.5 640.219 1032.78C637.945 1039.4 637.177 1046.54 639.969 1053.12C640.669 1054.78 641.536 1056.38 642.812 1057.66C643.634 1058.48 644.494 1059.11 645.531 1059.66C650.719 1062.37 656.058 1060.2 659.906 1056.41C664.132 1052.24 667.122 1046.88 670.094 1041.81C671.723 1039.03 673.518 1036.28 674.969 1033.41C676.025 1031.31 676.875 1029.13 677.625 1026.91C678.293 1024.93 678.774 1022.89 679.312 1020.88C680.657 1026.54 682.153 1032.04 686.906 1035.88C692.698 1040.54 701.106 1041.75 708.219 1040.09C710.658 1039.52 713.121 1038.63 715.188 1037.19C718.557 1034.84 720.247 1031.18 721.531 1027.41C722.309 1028.12 723.051 1028.89 723.812 1029.56C725.309 1030.88 726.842 1032.05 728.5 1033.16C732.647 1035.89 738.234 1034.74 740.969 1030.59C743.703 1026.45 742.554 1020.86 738.406 1018.12C736.029 1016.59 734.071 1014.53 731.906 1012.72C728.522 1009.89 724.476 1007.67 719.969 1007.53C718.843 1007.5 717.603 1007.58 716.5 1007.81C711.795 1008.8 708.433 1012.09 706.5 1016.38C705.738 1018.07 705.253 1019.83 704.688 1021.59C704.581 1021.93 704.464 1022.27 704.344 1022.59C703.937 1022.7 703.513 1022.8 703.094 1022.84C701.358 1023.03 699.736 1022.72 698.188 1021.97C697.267 1020.18 696.94 1018.13 696.469 1016.19C696.125 1014.77 695.662 1013.37 695.281 1011.97C695.033 1011.06 694.969 1010.09 694.875 1009.16C694.394 1004.38 694.578 999.356 693.156 994.719C691.499 989.313 686.877 985.547 680.969 986.688Z" fill="#000000" stroke="none"/>
</g>
<g opacity="1">
<path d="M811.574 983.053C813.801 990.048 811.066 1005.52 818.255 1004.04C829.29 1001.76 828.875 982.234 839.046 977.388C844.132 974.965 849.052 983.231 852.371 987.783C855.69 992.335 852.627 1002.78 858.193 1003.65C865.876 1004.85 873.408 997.878 878.319 991.849C883.604 985.359 879.845 972.637 886.995 968.285C892.029 965.221 897.048 974.444 902.196 977.313C906.73 979.84 911.156 986.253 916.029 984.465C924.151 981.484 926.252 969.661 933.927 965.669C938.806 963.132 945.392 964.314 950.399 966.588C955.381 968.851 956.378 978.226 961.848 978.351C967.663 978.484 971.065 971.213 975.233 967.156C978.932 963.555 980.256 956.125 985.374 955.453C992.084 954.571 997.761 960.923 1004.07 963.367C1009.78 965.576 1015.63 967.392 1021.4 969.405" fill="#000000" fill-opacity="0" fill-rule="nonzero" stroke="none"/>
<path d="M987.938 946.438C986.703 946.348 985.444 946.386 984.188 946.562C979.432 947.23 975.77 950.127 973.094 954C972.155 955.358 971.375 956.817 970.562 958.25C970.026 959.197 969.538 960.149 968.781 960.938C966.981 962.812 965.385 964.861 963.75 966.875C963.521 967.157 963.267 967.409 963.031 967.688C962.977 967.595 962.93 967.499 962.875 967.406C960.692 963.705 958.114 960.349 954.125 958.469C944.884 954.113 933.456 953.806 925.438 960.844C921.498 964.302 919.069 968.893 916.062 973.094C915.515 973.859 914.95 974.585 914.281 975.25C914.234 975.297 914.195 975.307 914.156 975.344C913.484 974.842 912.987 974.462 912.312 973.906C910.994 972.819 909.698 971.711 908.281 970.75C907.571 970.268 906.791 969.905 906.094 969.406C904.291 968.117 902.801 966.292 901.188 964.781C897.667 961.484 893.398 958.675 888.375 958.969C883.502 959.254 879.24 962.468 876.781 966.562C875.642 968.459 874.864 970.55 874.312 972.688C873.663 975.206 873.368 977.833 873.031 980.406C872.789 982.26 872.567 984.126 871.875 985.875C871.501 986.82 870.594 987.612 869.938 988.344C868.136 990.352 866.166 992.273 863.875 993.719C863.537 993.932 863.138 994.033 862.781 994.219C862.767 994.063 862.765 993.906 862.75 993.75C862.48 990.981 862.073 988.191 860.938 985.625C859.854 983.178 858.097 981.026 856.531 978.875C853.31 974.449 849.278 969.889 843.688 968.688C842.49 968.43 841.254 968.35 840.031 968.438C837.551 968.614 835.263 969.537 833.188 970.875C827.986 974.229 824.958 979.76 822.469 985.25C821.981 986.326 821.443 987.382 820.969 988.469C820.769 985.816 820.507 983.188 819.75 980.625C818.407 976.118 813.664 973.564 809.156 974.906C804.649 976.249 802.064 980.961 803.406 985.469C804.079 987.688 804.053 990.146 804.188 992.438C804.573 998.986 804.977 1007.01 811.156 1010.91C812.319 1011.64 813.592 1012.13 814.938 1012.41C816.206 1012.67 817.527 1012.71 818.812 1012.56C820.477 1012.37 822.128 1011.9 823.656 1011.22C830.434 1008.21 833.923 1001.56 836.781 995.125C837.903 992.6 838.962 990.068 840.375 987.688C840.556 987.382 840.791 987.122 841 986.844C841.27 987.162 841.557 987.452 841.812 987.781C843.016 989.33 844.099 990.976 845.25 992.562C845.27 992.621 845.27 992.643 845.281 992.688C845.307 992.79 845.323 992.896 845.344 993C845.373 993.151 845.413 993.286 845.438 993.438C845.54 994.081 845.595 994.758 845.656 995.406C845.803 996.97 845.89 998.545 846.156 1000.09C846.759 1003.59 848.025 1006.86 850.719 1009.28C854.532 1012.7 860.214 1012.91 864.969 1011.78C871.258 1010.29 876.633 1006.25 881.094 1001.72C882.688 1000.1 884.281 998.399 885.625 996.562C888.583 992.52 889.616 987.557 890.281 982.688C890.443 981.503 890.618 980.334 890.812 979.156C891.318 979.663 891.823 980.166 892.344 980.656C893.523 981.766 894.396 982.588 895.719 983.562C896.809 984.366 898.027 984.982 899.094 985.812C901.199 987.451 903.139 989.29 905.406 990.719C909.046 993.012 913.17 994.214 917.438 993.25C923.834 991.805 928.424 986.513 931.906 981.312C933.066 979.58 934.137 977.781 935.406 976.125C936.186 975.108 937.007 974.113 938.156 973.5C938.835 973.138 939.79 973.14 940.531 973.156C942.546 973.2 944.364 973.83 946.219 974.531C946.251 974.574 946.281 974.612 946.312 974.656C946.389 974.762 946.49 974.86 946.562 974.969C946.884 975.451 947.177 975.968 947.469 976.469C948.422 978.102 949.334 979.755 950.5 981.25C953.679 985.327 958.027 987.666 963.281 987.25C968.299 986.852 972.479 983.963 975.781 980.344C977.304 978.675 978.654 976.862 980.094 975.125C981.51 973.417 983.093 971.944 984.344 970.094C985.485 968.407 986.393 966.589 987.438 964.844C987.495 964.748 987.566 964.658 987.625 964.562C987.696 964.588 987.774 964.598 987.844 964.625C988.699 964.954 989.496 965.407 990.281 965.875C992.395 967.135 994.44 968.526 996.594 969.719C999.843 971.518 1003.35 972.715 1006.84 973.938C1010.71 975.29 1014.6 976.574 1018.47 977.906C1023.17 979.519 1028.29 977.011 1029.91 972.312C1031.52 967.614 1029.01 962.519 1024.31 960.906C1020.47 959.589 1016.62 958.305 1012.78 956.969C1010.65 956.227 1008.44 955.57 1006.41 954.594C1003.64 953.269 1001.14 951.364 998.469 949.875C995.21 948.062 991.641 946.707 987.938 946.438Z" fill="#000000" stroke="none"/>
</g>
<g opacity="1">
<path d="M671.413 1167.12C667.948 1171.56 661.033 1174.81 661.017 1180.45C660.969 1197.93 667.06 1214.92 671.234 1231.89C673.162 1239.74 671.481 1256.85 679.283 1254.75C688.327 1252.32 684.383 1236.73 686.846 1227.69C688.292 1222.39 689.49 1217.02 691.008 1211.73C693.145 1204.29 690.073 1189.72 697.809 1189.53C706.014 1189.33 706.502 1203.59 709.355 1211.28C712.005 1218.43 712.559 1226.18 714.161 1233.63" fill="#000000" fill-opacity="0" fill-rule="nonzero" stroke="none"/>
<path d="M670.562 1158.66C668.394 1158.87 666.301 1159.9 664.812 1161.72C663.509 1163.32 661.84 1164.62 660.312 1166C657.598 1168.45 655.055 1171.16 653.656 1174.59C652.409 1177.66 652.436 1180.82 652.562 1184.06C652.686 1187.24 652.98 1190.38 653.406 1193.53C654.685 1202.98 657.12 1212.22 659.594 1221.41C660.439 1224.55 661.307 1227.66 662.094 1230.81C662.468 1232.31 662.896 1233.81 663.125 1235.34C663.413 1237.27 663.557 1239.24 663.719 1241.19C664.33 1248.53 664.932 1258.19 672.281 1262.19C673.088 1262.63 673.988 1262.98 674.875 1263.22C676.223 1263.58 677.64 1263.7 679.031 1263.59C681.089 1263.44 683.12 1262.81 684.938 1261.84C686.342 1261.1 687.608 1260.14 688.719 1259C695.64 1251.9 693.889 1241.3 694.938 1232.34C695.141 1230.6 695.647 1228.94 696.094 1227.25C696.798 1224.58 697.461 1221.92 698.156 1219.25C698.794 1216.8 699.62 1214.39 700.094 1211.91C700.098 1211.89 700.09 1211.86 700.094 1211.84C700.797 1214.21 701.699 1216.47 702.281 1218.88C703.597 1224.3 704.279 1229.86 705.344 1235.34C706.296 1240.22 710.999 1243.42 715.875 1242.47C720.75 1241.52 723.952 1236.78 723 1231.91C721.871 1226.15 721.117 1220.32 719.719 1214.62C719.122 1212.19 718.321 1209.84 717.531 1207.47C715.807 1202.28 715.184 1196.8 713 1191.75C711.397 1188.04 708.966 1184.61 705.406 1182.56C698.501 1178.59 689.58 1180.75 685.844 1187.94C682.674 1194.04 683.477 1201.02 682.75 1207.62C682.531 1209.61 681.842 1211.55 681.344 1213.47C680.538 1216.58 679.797 1219.7 679 1222.81C678.78 1223.67 678.62 1224.55 678.406 1225.41C678.117 1224.36 677.875 1223.3 677.594 1222.25C674.927 1212.33 671.935 1202.44 670.438 1192.25C669.886 1188.5 669.671 1184.75 669.562 1180.97C670.201 1180.11 670.944 1179.35 671.75 1178.62C673.938 1176.66 676.126 1174.78 678 1172.5C680.977 1168.86 680.454 1163.51 676.812 1160.53C674.992 1159.04 672.731 1158.44 670.562 1158.66Z" fill="#000000" stroke="none"/>
</g>
<g opacity="1">
<path d="M805.761 1189.83C805.821 1168.24 801.839 1146.26 805.94 1125.06C807.295 1118.06 812.603 1137.8 814.497 1144.68C817.576 1155.86 818.848 1167.46 820.768 1178.89C821.714 1184.53 817.649 1197.6 823.092 1195.87C831.722 1193.12 834.653 1181.63 838.255 1173.32C840.867 1167.3 839.981 1160.29 841.304 1153.86C842.303 1149.01 842.294 1135.52 845.213 1139.52C850.721 1147.08 848.533 1157.94 850.878 1166.99C853.026 1175.28 850.31 1189.63 858.673 1191.48C867.12 1193.35 871.675 1179.81 876.571 1172.68C879.729 1168.08 877.06 1155.21 882.355 1156.97C890.467 1159.67 891.063 1171.68 895.524 1178.97C898.559 1183.93 899.486 1191.46 904.843 1193.73C909.806 1195.83 916.1 1192.7 920.455 1189.53C925.995 1185.49 928.805 1178.65 932.98 1173.21" fill="#000000" fill-opacity="0" fill-rule="nonzero" stroke="none"/>
<path d="M806.531 1115.03C805.429 1115.07 804.307 1115.34 803.281 1115.75C802.38 1116.11 801.594 1116.67 800.844 1117.28C800.257 1117.76 799.766 1118.39 799.312 1119C798.034 1120.71 797.675 1122.83 797.312 1124.88C797.055 1126.32 796.818 1127.79 796.625 1129.25C796.435 1130.69 796.26 1132.15 796.125 1133.59C794.371 1152.35 797.165 1171.11 797.25 1189.88C797.27 1194.58 801.11 1198.36 805.812 1198.34C808.311 1198.33 810.481 1197.22 812.031 1195.5C812.654 1198.86 814.141 1201.9 817.656 1203.62C818.132 1203.86 818.618 1204.06 819.125 1204.22C825.274 1206.12 832.08 1201.68 835.938 1197.19C839.511 1193.02 841.721 1187.95 843.75 1182.91C844.607 1189.11 846.574 1195.17 852.375 1198.5C854.061 1199.47 855.954 1200.09 857.875 1200.38C859.395 1200.6 860.946 1200.62 862.469 1200.41C873.403 1198.85 877.902 1187.49 882.969 1179.22C883.517 1178.32 884.044 1177.43 884.562 1176.53C884.8 1177.17 885.021 1177.81 885.281 1178.44C885.645 1179.31 886.017 1180.18 886.438 1181.03C887.154 1182.48 888.056 1183.84 888.719 1185.31C889.855 1187.84 890.746 1190.49 892.062 1192.94C893.921 1196.4 896.472 1199.46 899.969 1201.34C909.113 1206.26 920.522 1201.51 927.719 1195.22C928.895 1194.19 929.984 1193.06 931 1191.88C934.537 1187.75 937.003 1182.89 940.219 1178.53C943.163 1174.53 942.313 1168.91 938.312 1165.97C934.312 1163.02 928.694 1163.87 925.75 1167.88C923.314 1171.19 921.274 1174.79 918.906 1178.16C917.849 1179.66 916.691 1181.16 915.188 1182.25C914.306 1182.89 913.383 1183.46 912.438 1184C911.345 1184.62 909.869 1185.37 908.531 1185.38C907.632 1184.05 907.013 1182.57 906.406 1181.09C906.079 1180.29 905.773 1179.59 905.438 1178.81C904.813 1177.36 904.119 1175.97 903.344 1174.59C902.096 1172.38 901.227 1170.02 900.375 1167.62C899.656 1165.6 898.955 1163.59 898.094 1161.62C897.503 1160.28 896.849 1158.95 896.094 1157.69C892.654 1151.93 885.714 1146.28 878.562 1148.25C872.376 1149.95 870.413 1155.74 869.781 1161.47C869.615 1162.98 869.499 1164.49 869.312 1166C869.242 1166.57 869.166 1167.16 869.031 1167.72C869.006 1167.82 868.967 1167.93 868.938 1168.03C868.933 1168.04 868.942 1168.05 868.938 1168.06C868.779 1168.31 868.595 1168.57 868.438 1168.81C868.198 1169.19 867.95 1169.56 867.719 1169.94C866.799 1171.45 865.953 1172.99 865.094 1174.53C863.927 1176.63 862.711 1178.74 861.281 1180.69C861.232 1180.28 861.168 1179.87 861.125 1179.47C860.808 1176.54 860.738 1173.61 860.438 1170.69C860.287 1169.22 860.075 1167.73 859.781 1166.28C859.565 1165.21 859.262 1164.16 859.062 1163.09C858.82 1161.79 858.684 1160.47 858.562 1159.16C858.027 1153.36 857.957 1147.49 856.125 1141.91C854.632 1137.35 851.76 1131.64 846.688 1130.34C845.945 1130.15 845.173 1130.01 844.406 1130C842.827 1129.98 841.22 1130.41 839.812 1131.12C836.772 1132.67 835.159 1135.83 834.406 1139C833.563 1142.55 833.423 1146.25 833.031 1149.88C832.737 1152.6 832.176 1155.27 831.938 1158C831.646 1161.35 831.667 1164.82 830.844 1168.09C830.354 1170.04 829.462 1171.89 828.688 1173.75C828.356 1171.69 828.005 1169.63 827.688 1167.56C826.857 1162.16 826.012 1156.76 824.906 1151.41C823.976 1146.9 822.78 1142.46 821.531 1138.03C820.472 1134.28 819.381 1130.53 818.094 1126.84C816.828 1123.22 815.103 1118.5 811.625 1116.47C810.978 1116.09 810.316 1115.7 809.594 1115.5C808.596 1115.22 807.566 1114.99 806.531 1115.03Z" fill="#000000" stroke="none"/>
</g>
<g opacity="1">
<path d="M697.915 1422.17C698.359 1412.27 694.267 1401.03 699.245 1392.47C701.719 1388.21 711.069 1390.68 713.841 1394.75C719.103 1402.48 711.891 1416.8 719.506 1422.22C724.872 1426.05 730.736 1414.87 734.766 1409.66C738.583 1404.73 736.345 1393.98 742.426 1392.59C747.706 1391.38 748.66 1401.45 752 1405.72C755.586 1410.29 757.401 1418.58 763.195 1419.1C768.988 1419.62 772.118 1411.64 776.579 1407.91" fill="#000000" fill-opacity="0" fill-rule="nonzero" stroke="none"/>
<path d="M705.594 1381.75C703.285 1381.58 700.908 1381.78 698.719 1382.56C693.162 1384.56 690.531 1389.38 689.156 1394.88C687.903 1399.88 688.125 1405.06 688.594 1410.16C688.955 1414.08 689.517 1417.99 689.406 1421.94C689.277 1426.64 692.986 1430.56 697.688 1430.69C702.389 1430.82 706.309 1427.11 706.438 1422.41C706.54 1418.62 706.22 1414.89 705.844 1411.12C705.458 1407.27 704.766 1403.06 705.688 1399.22C705.789 1399.25 705.898 1399.24 706 1399.28C706.254 1399.39 706.486 1399.51 706.719 1399.66C706.748 1399.68 706.767 1399.68 706.812 1399.72C706.917 1400.06 707.059 1400.39 707.125 1400.75C707.541 1403.02 707.322 1405.4 707.219 1407.69C706.892 1414.93 706.998 1422.41 712.594 1427.78C713.432 1428.59 714.377 1429.34 715.375 1429.94C716.372 1430.53 717.441 1431.01 718.562 1431.31C719.691 1431.62 720.862 1431.74 722.031 1431.72C729.992 1431.59 735.136 1424.41 739.25 1418.53C740.686 1416.48 742.357 1414.52 743.5 1412.28C743.827 1411.64 743.998 1410.95 744.25 1410.28C744.921 1411.27 745.638 1412.22 746.219 1413.28C748.565 1417.56 750.648 1422.08 754.688 1425.06C756.479 1426.38 758.51 1427.31 760.688 1427.78C766.416 1429.02 771.749 1426.58 775.75 1422.53C778.242 1420.01 780.062 1416.88 782.688 1414.5C786.334 1411.13 786.561 1405.46 783.188 1401.81C779.814 1398.17 774.115 1397.94 770.469 1401.31C768.378 1403.27 766.605 1405.41 764.844 1407.66C764.594 1407.97 764.318 1408.28 764.062 1408.59C763.748 1408.03 763.427 1407.47 763.125 1406.91C761.964 1404.72 760.801 1402.59 759.344 1400.59C757.857 1398.55 757.12 1395.71 756.062 1393.41C753.656 1388.17 749.77 1383.76 743.625 1383.59C739.157 1383.47 734.807 1385.77 732.281 1389.44C730.927 1391.4 730.099 1393.61 729.5 1395.91C728.945 1398.03 728.728 1400.23 728.281 1402.38C728.165 1402.93 728.034 1403.89 727.719 1404.34C726.638 1405.89 725.533 1407.45 724.438 1409C724.527 1406.02 724.675 1403.04 724.375 1400.06C724.011 1396.46 722.983 1392.83 720.875 1389.84C717.467 1385.01 711.405 1382.19 705.594 1381.75Z" fill="#000000" stroke="none"/>
</g>
<g opacity="1">
<path d="M856.163 1377.17C856.853 1383.37 857.543 1389.58 858.233 1395.78" fill="#000000" fill-opacity="0" fill-rule="nonzero" stroke="none"/>
<path d="M855.219 1368.72C850.545 1369.24 847.167 1373.45 847.688 1378.12C848.345 1384.33 848.657 1390.57 849.281 1396.78C849.831 1401.72 854.282 1405.27 859.219 1404.72C864.156 1404.17 867.737 1399.72 867.188 1394.78C866.43 1388.58 865.348 1382.42 864.625 1376.22C864.105 1371.54 859.893 1368.2 855.219 1368.72Z" fill="#000000" stroke="none"/>
</g>
<g opacity="1">
<path d="M749.609 1548.23C749.928 1553.27 746.995 1559.77 750.566 1563.34C754.074 1566.84 760.57 1562.96 765.415 1564C770.348 1565.06 774.807 1567.69 779.503 1569.53" fill="#000000" fill-opacity="0" fill-rule="nonzero" stroke="none"/>
<path d="M749.281 1539.72C744.582 1539.9 740.912 1543.86 741.094 1548.56C741.168 1550.36 740.788 1552.16 740.562 1553.94C740.173 1557 740.001 1560.05 740.812 1563.06C742.59 1569.66 748.288 1573.51 754.969 1573.53C756.746 1573.54 758.528 1573.29 760.281 1573.03C761.312 1572.88 762.537 1572.56 763.594 1572.69C764.092 1572.75 764.696 1573 765.156 1573.16C766.44 1573.59 767.701 1574.1 768.938 1574.66C771.305 1575.72 773.642 1576.83 776.031 1577.84C780.615 1579.76 785.898 1577.58 787.812 1573C789.727 1568.42 787.553 1563.13 782.969 1561.22C777.168 1558.83 771.147 1555.35 764.781 1554.97C762.787 1554.85 760.804 1555.11 758.844 1555.44C758.395 1555.51 757.947 1555.6 757.5 1555.69C757.608 1554.89 757.745 1554.09 757.844 1553.31C758.073 1551.51 758.193 1549.72 758.125 1547.91C757.943 1543.21 753.981 1539.54 749.281 1539.72Z" fill="#000000" stroke="none"/>
</g>
<g opacity="1">
<path d="M1315.3 497.701C1312.09 518.67 1289.8 546.52 1305.66 560.609C1319.14 572.583 1333.9 538.168 1347.41 526.229C1351.82 522.333 1353.94 510.805 1359.32 513.195C1364.42 515.462 1353.74 523.051 1352.51 528.497C1350.24 538.641 1347.27 549.215 1348.92 559.479C1350.12 566.953 1353.56 576.231 1360.63 578.938C1367.61 581.609 1375.77 576.289 1381.98 572.139C1387.86 568.209 1388.43 554.485 1395.4 555.704C1401.69 556.805 1394.61 568.902 1397.09 574.785C1400.12 581.945 1406.54 587.128 1411.26 593.3" fill="#000000" fill-opacity="0" fill-rule="nonzero" stroke="none"/>
<path d="M1316.72 489.312C1312.08 488.526 1307.69 491.645 1306.91 496.281C1305.95 501.959 1303.86 507.336 1301.72 512.656C1299.14 519.057 1296.34 525.382 1294.25 531.969C1292.45 537.639 1291.14 543.642 1291.56 549.625C1291.77 552.514 1292.38 555.357 1293.5 558.031C1296.42 564.991 1302.93 571.263 1310.78 571.656C1311.97 571.716 1313.17 571.638 1314.34 571.438C1316.75 571.027 1319.01 570.152 1321.12 568.938C1325.01 566.705 1328.28 563.493 1331.22 560.156C1334.33 556.632 1337.13 552.849 1339.91 549.062C1339.81 550.376 1339.6 551.68 1339.59 553C1339.53 562.144 1341.99 572.494 1347.69 579.812C1349.23 581.792 1351.05 583.584 1353.12 585C1354.94 586.235 1356.92 587.204 1359.03 587.812C1369.13 590.724 1378.91 585.041 1386.97 579.562C1387.66 579.089 1388.27 578.527 1388.88 577.969C1389.67 580.061 1390.63 582.076 1391.84 583.938C1395.39 589.382 1400.2 593.834 1404.22 598.906C1407.31 602.796 1412.95 603.433 1416.84 600.344C1420.73 597.254 1421.4 591.608 1418.31 587.719C1415.42 584.09 1412.17 580.793 1409.22 577.219C1408.26 576.053 1407.32 574.822 1406.53 573.531C1406.16 572.918 1405.88 572.278 1405.53 571.656C1405.53 571.594 1405.53 571.531 1405.53 571.469C1405.54 571.122 1405.56 570.784 1405.59 570.438C1405.65 569.902 1405.72 569.473 1405.81 568.938C1406.16 566.83 1406.63 564.717 1406.88 562.594C1407.55 556.792 1406.14 550.956 1400.5 548.062C1399.72 547.661 1398.94 547.356 1398.09 547.125C1396.95 546.813 1395.74 546.658 1394.56 546.656C1388.32 546.646 1384.03 550.752 1381.25 555.969C1380.07 558.188 1379.19 560.535 1378.06 562.781C1377.72 563.47 1377.36 564.131 1376.91 564.75C1376.89 564.76 1376.89 564.765 1376.88 564.781C1376.87 564.793 1376.85 564.801 1376.84 564.812C1376.39 565.115 1375.96 565.419 1375.5 565.719C1373 567.363 1370.38 569.009 1367.56 570.062C1364.98 571.027 1363.51 571.133 1361.75 568.875C1360.01 566.652 1359 563.86 1358.31 561.156C1356.46 553.91 1357.56 546.514 1359.09 539.312C1359.54 537.203 1360.02 535.104 1360.5 533C1360.67 532.245 1360.84 531.508 1361 530.75C1362.02 528.965 1363.37 527.397 1364.62 525.781C1367.36 522.267 1370.01 518.226 1369.31 513.531C1369.16 512.536 1368.94 511.639 1368.53 510.719C1368.11 509.77 1367.58 508.981 1366.91 508.188C1366.05 507.181 1364.99 506.364 1363.84 505.719C1359.54 503.292 1354.33 503.807 1350.44 506.812C1347.49 509.088 1345.69 512.458 1344 515.688C1343.3 517.024 1342.63 518.417 1341.72 519.625C1341.15 520.379 1340.22 521.051 1339.56 521.719C1338.18 523.112 1336.87 524.584 1335.62 526.094C1330.92 531.784 1326.82 537.942 1322.34 543.812C1320.2 546.63 1317.97 549.448 1315.38 551.875C1314.3 552.881 1313.06 553.969 1311.62 554.438C1311.53 554.369 1311.43 554.295 1311.34 554.219C1311.09 553.994 1310.85 553.75 1310.62 553.5C1309.93 552.742 1309.39 551.847 1309.06 550.875C1308.7 549.828 1308.58 548.726 1308.56 547.625C1308.53 546.058 1308.71 544.475 1309 542.938C1309.45 540.528 1310.16 538.197 1310.94 535.875C1312.35 531.663 1314.03 527.545 1315.72 523.438C1318.96 515.531 1322.25 507.593 1323.69 499.125C1324.47 494.488 1321.36 490.099 1316.72 489.312Z" fill="#000000" stroke="none"/>
</g>
<g opacity="1">
<path d="M1498.89 592.537C1509.83 588.846 1520.25 580.073 1531.71 581.464C1537.57 582.175 1538.08 591.68 1539.35 597.447C1540.12 600.902 1535.05 605.388 1537.54 607.903C1540.17 610.568 1545.08 607.747 1548.74 606.936C1553.25 605.936 1557.3 603.161 1561.87 602.506C1564.74 602.095 1567.92 602.449 1570.47 603.824C1573.13 605.256 1574.59 608.247 1576.65 610.459" fill="#000000" fill-opacity="0" fill-rule="nonzero" stroke="none"/>
<path d="M1530.81 572.688C1528.15 572.547 1525.43 572.893 1523 573.375C1513.3 575.301 1505.23 581.23 1496.03 584.5C1491.6 586.075 1489.3 590.944 1490.88 595.375C1492.45 599.806 1497.32 602.138 1501.75 600.562C1506.29 598.951 1510.54 596.823 1514.84 594.688C1517.24 593.5 1519.68 592.334 1522.19 591.406C1524.43 590.575 1526.65 590.183 1528.97 590.125C1528.98 590.157 1528.99 590.187 1529 590.219C1529.25 591.035 1529.43 591.852 1529.59 592.688C1529.94 594.399 1530.21 596.128 1530.53 597.844C1530.45 598.027 1530.34 598.191 1530.25 598.375C1529.89 599.13 1529.53 599.879 1529.22 600.656C1528.55 602.342 1528.09 604.051 1528.03 605.875C1527.89 610.586 1530.77 614.825 1535 616.75C1539.95 619 1544.68 617.485 1549.53 615.969C1550.45 615.683 1551.36 615.509 1552.28 615.25C1553.71 614.849 1555.09 614.329 1556.47 613.781C1557.55 613.349 1558.64 612.875 1559.72 612.438C1561.64 611.66 1564.04 610.754 1566.09 611.656C1566.12 611.709 1566.2 611.757 1566.25 611.812C1566.39 611.969 1566.59 612.213 1566.72 612.375C1567.01 612.755 1567.3 613.15 1567.59 613.531C1568.31 614.475 1569.04 615.408 1569.81 616.312C1573.04 620.089 1578.72 620.508 1582.5 617.281C1586.28 614.054 1586.73 608.401 1583.5 604.625C1581.48 602.289 1579.8 599.647 1577.38 597.688C1570.82 592.398 1561.86 592.503 1554.31 595.312C1552.22 596.092 1550.24 597.104 1548.12 597.844C1548.12 597.602 1548.18 597.368 1548.16 597.125C1548.07 596.138 1547.82 595.253 1547.62 594.281C1547.41 593.199 1547.24 592.115 1547.03 591.031C1545.85 584.862 1543.9 578.341 1538.25 574.812C1536.06 573.444 1533.47 572.828 1530.81 572.688Z" fill="#000000" stroke="none"/>
</g>
<g opacity="1">
<path d="M1642.17 647.975C1646.56 641.527 1649.49 633.798 1655.33 628.63C1665.87 619.308 1676.48 606.686 1690.47 605.246C1697.04 604.57 1691.63 618.622 1690.12 625.05C1689.27 628.7 1685.74 631.132 1683.67 634.259C1681.82 637.047 1680.15 639.945 1678.39 642.789C1676.63 645.632 1671.62 648.328 1673.11 651.319C1674.7 654.482 1680.12 653.906 1683.57 653.135C1687.99 652.147 1691.37 648.52 1695.34 646.351C1707.97 639.461 1723.06 631.145 1737.16 627.746C1740.41 626.962 1744.26 625.832 1747.18 627.457C1750.77 629.451 1753.34 633.43 1754.46 637.375C1755.53 641.121 1751.6 645.517 1753.33 649.008C1755.31 653.004 1759.97 655.309 1764.14 656.89C1778.14 662.195 1795.46 658.246 1809.82 657.231C1813.86 656.945 1817.99 655.649 1821.95 656.513C1824.92 657.162 1827.15 659.676 1829.55 661.542C1832.38 663.741 1834.12 667.746 1837.58 668.676C1841.6 669.757 1845.81 667.276 1849.96 667.03C1854.93 666.737 1859.91 667.051 1864.88 667.061" fill="#000000" fill-opacity="0" fill-rule="nonzero" stroke="none"/>
<path d="M1691.91 596.781C1690.03 596.639 1688.1 596.888 1686.19 597.281C1683.64 597.804 1681.14 598.598 1678.75 599.625C1678.09 599.909 1677.46 600.216 1676.81 600.531C1675.51 601.169 1674.34 601.814 1673.09 602.562C1666.31 606.65 1660.52 612.166 1654.78 617.562C1651.24 620.888 1647.45 623.936 1644.56 627.875C1640.98 632.761 1638.38 638.254 1635.06 643.312C1632.49 647.247 1633.56 652.518 1637.5 655.094C1641.43 657.67 1646.74 656.56 1649.31 652.625C1652.45 647.824 1654.92 642.6 1658.31 637.969C1659.85 635.872 1661.85 634.252 1663.75 632.5C1667.67 628.88 1671.46 625.136 1675.59 621.75C1678.06 619.726 1680.75 617.897 1683.59 616.406C1683.26 617.601 1682.93 618.807 1682.59 620C1682.49 620.373 1682.38 620.751 1682.28 621.125C1682.12 621.723 1681.97 622.307 1681.81 622.906C1681.77 623.059 1681.17 623.861 1680.81 624.281C1679.65 625.633 1678.42 626.913 1677.34 628.344C1676.34 629.689 1675.45 631.136 1674.56 632.562C1673.39 634.449 1672.26 636.357 1671.09 638.25C1671.08 638.277 1671.15 638.133 1671.12 638.156C1668.49 641.002 1665.75 643.246 1664.62 647.188C1663.18 652.268 1665.69 657.576 1670.09 660.25C1673.53 662.339 1677.74 662.636 1681.66 662.219C1684.83 661.88 1687.95 661.118 1690.78 659.625C1693.66 658.11 1696.11 656.019 1698.88 654.344C1702.22 652.323 1705.82 650.53 1709.28 648.719C1715.9 645.257 1722.61 641.976 1729.59 639.312C1732.76 638.104 1736.02 637.097 1739.31 636.281C1740.61 635.961 1741.99 635.547 1743.34 635.5C1743.4 635.547 1743.48 635.573 1743.53 635.625C1743.91 635.993 1744.23 636.381 1744.53 636.812C1744.96 637.424 1745.31 638.09 1745.59 638.781C1745.63 638.865 1745.66 638.944 1745.69 639.031C1745.66 639.115 1745.62 639.197 1745.59 639.281C1745.45 639.779 1745.27 640.284 1745.12 640.781C1744.83 641.775 1744.49 642.754 1744.34 643.781C1744.16 645.11 1743.91 646.442 1744 647.781C1744.09 649.107 1744.46 650.416 1744.84 651.688C1745.08 652.463 1745.51 653.15 1745.88 653.875C1746.47 655.069 1747.37 656.192 1748.25 657.188C1751.88 661.292 1757 663.838 1762.09 665.625C1777.21 670.924 1793.28 667.597 1808.75 666.312C1810.56 666.162 1812.33 666.007 1814.12 665.75C1815.86 665.501 1817.67 665.102 1819.44 665.188C1819.58 665.195 1819.73 665.227 1819.88 665.25C1819.92 665.274 1819.94 665.294 1819.97 665.312C1820.04 665.36 1820.12 665.417 1820.19 665.469C1820.3 665.548 1820.42 665.605 1820.53 665.688C1820.86 665.938 1821.09 666.138 1821.41 666.406C1822.22 667.092 1823.02 667.8 1823.84 668.469C1825.23 669.595 1826.23 671.184 1827.47 672.469C1829.59 674.668 1832.03 676.34 1834.97 677.25C1838.07 678.212 1841.39 678.026 1844.53 677.375C1846.4 676.988 1848.23 676.286 1850.12 676.031C1852.07 675.769 1854.1 675.884 1856.06 675.906C1858.97 675.939 1861.88 676.031 1864.78 676.062C1869.75 676.113 1873.82 672.123 1873.88 667.156C1873.93 662.189 1869.94 658.113 1864.97 658.062C1861.18 658.026 1857.38 657.898 1853.59 657.938C1851.64 657.958 1849.66 657.957 1847.72 658.219C1845.19 658.56 1842.76 659.469 1840.25 659.844C1840.19 659.778 1840.13 659.731 1840.06 659.656C1839.61 659.136 1839.44 658.893 1838.97 658.344C1838.13 657.357 1837.27 656.38 1836.31 655.5C1835.45 654.703 1834.49 654.013 1833.59 653.25C1831.14 651.159 1828.58 649.195 1825.47 648.188C1820.58 646.602 1815.63 647.471 1810.69 648.125C1808.91 648.36 1807.13 648.457 1805.34 648.625C1802.12 648.929 1798.9 649.306 1795.69 649.656C1787.62 650.535 1779.37 651.347 1771.34 649.719C1768.83 649.21 1766.33 648.333 1764.06 647.156C1763.39 646.808 1762.72 646.409 1762.12 645.938C1762.14 645.896 1762.14 645.854 1762.16 645.812C1762.19 645.698 1762.21 645.583 1762.25 645.469C1762.45 644.845 1762.64 644.226 1762.81 643.594C1763.57 640.736 1763.76 637.816 1762.97 634.938C1760.82 627.142 1754.46 619.141 1746.03 617.969C1742.6 617.492 1739.22 618.183 1735.91 619C1732.98 619.721 1730.07 620.526 1727.22 621.5C1715.75 625.413 1704.98 631.167 1694.38 636.969C1693.24 637.588 1692.17 638.295 1691.06 638.938C1692.96 636.405 1695.22 634.143 1696.78 631.344C1697.97 629.216 1698.44 626.951 1699.09 624.625C1699.84 621.941 1700.64 619.252 1701.25 616.531C1702.63 610.329 1703.26 602.769 1697.28 598.625C1695.6 597.457 1693.78 596.923 1691.91 596.781Z" fill="#000000" stroke="none"/>
</g>
<g opacity="1">
<path d="M1353.61 755.443C1360.54 745.699 1366.97 735.582 1374.4 726.212C1376.55 723.497 1378.86 720.248 1382.21 719.358C1391.12 716.99 1405.38 708.697 1409.76 716.815C1414.27 725.198 1398.49 732.193 1393.49 740.3C1387.17 750.568 1382.08 761.622 1377.77 772.884C1376.51 776.174 1373.96 779.734 1375.03 783.09C1375.95 785.985 1379.59 788.144 1382.63 788.119C1386.48 788.087 1389.63 784.867 1392.97 782.941C1401.02 778.304 1408.72 773.083 1416.77 768.446C1420.3 766.411 1423.45 763.458 1427.37 762.341C1430.88 761.339 1436.26 759.286 1438.32 762.301C1441.08 766.346 1438.28 772.155 1437.36 776.967C1436.64 780.755 1430.35 785.539 1433.44 787.852C1436.93 790.464 1441.7 785.018 1445.64 783.173C1457.87 777.46 1466.74 773.081 1480.14 769.566" fill="#000000" fill-opacity="0" fill-rule="nonzero" stroke="none"/>
<path d="M1401.03 704.875C1397.07 705.239 1393.1 706.505 1389.5 707.781C1386.95 708.684 1384.44 709.71 1381.88 710.562C1380.68 710.958 1379.45 711.219 1378.28 711.688C1376.73 712.312 1375.29 713.167 1373.97 714.188C1371.5 716.087 1369.55 718.557 1367.66 721C1366.08 723.039 1364.48 725.069 1362.97 727.156C1357.38 734.851 1352.14 742.761 1346.66 750.531C1343.94 754.374 1344.85 759.695 1348.69 762.406C1352.53 765.118 1357.85 764.186 1360.56 760.344C1365.43 753.455 1370.07 746.416 1375.03 739.594C1377.03 736.844 1379.04 734.123 1381.12 731.438C1381.89 730.451 1382.66 729.452 1383.5 728.531C1383.7 728.31 1383.96 728.048 1384.19 727.844C1384.34 727.706 1384.36 727.66 1384.5 727.562C1384.51 727.562 1384.52 727.564 1384.53 727.562C1384.55 727.55 1384.62 727.531 1384.59 727.531C1384.62 727.524 1384.66 727.539 1384.69 727.531C1385.07 727.426 1385.44 727.332 1385.81 727.219C1386.28 727.078 1386.75 726.934 1387.22 726.781C1389.03 726.186 1390.8 725.5 1392.59 724.844C1394.64 724.093 1396.72 723.396 1398.81 722.781C1398.33 723.223 1397.89 723.695 1397.41 724.125C1393.82 727.288 1390.02 730.324 1387.19 734.219C1386.2 735.575 1385.35 737.059 1384.5 738.5C1383.15 740.777 1381.87 743.07 1380.62 745.406C1376.44 753.255 1372.94 761.401 1369.66 769.656C1368.58 772.363 1367.1 774.879 1366.44 777.75C1365.05 783.727 1367.15 789.389 1371.97 793.156C1373.24 794.153 1374.66 794.975 1376.16 795.594C1381.38 797.756 1386.59 797.101 1391.44 794.438C1393.55 793.277 1395.39 791.749 1397.47 790.531C1405.14 786.029 1412.61 781.191 1420.28 776.688C1421.97 775.693 1423.63 774.639 1425.25 773.531C1426.46 772.708 1427.68 771.77 1429.03 771.188C1429.23 771.103 1429.45 771.076 1429.66 771C1429.33 772.227 1428.99 773.449 1428.72 774.688C1427.28 776.877 1425.61 778.997 1424.62 781.438C1422.37 787.021 1424.16 793.054 1429.56 796C1430.67 796.605 1431.73 796.989 1432.97 797.25C1434.1 797.488 1435.16 797.562 1436.31 797.5C1439.63 797.322 1442.65 795.794 1445.38 794C1446.62 793.177 1447.8 792.218 1449.09 791.469C1450.15 790.859 1451.34 790.421 1452.44 789.906C1454.75 788.824 1457.08 787.743 1459.41 786.688C1466.9 783.284 1474.51 780.378 1482.47 778.25C1487.27 776.963 1490.13 772.048 1488.84 767.25C1487.56 762.452 1482.61 759.588 1477.81 760.875C1473.44 762.052 1469.1 763.373 1464.84 764.938C1459.01 767.084 1453.35 769.652 1447.72 772.281C1447.71 772.287 1447.7 772.307 1447.69 772.312C1448.78 767.147 1448.95 761.904 1445.69 757.25C1445.03 756.309 1444.44 755.628 1443.56 754.875C1442.81 754.224 1441.92 753.633 1441.03 753.188C1436.12 750.734 1430.71 752.039 1425.75 753.531C1423.49 754.212 1421.31 755.041 1419.25 756.219C1417.06 757.468 1415.07 759.045 1412.94 760.375C1411.37 761.352 1409.77 762.233 1408.19 763.188C1404.18 765.61 1400.26 768.147 1396.28 770.625C1393.36 772.448 1390.34 774.153 1387.44 776C1386.68 776.483 1385.93 777.029 1385.19 777.562C1385.79 776.141 1386.4 774.725 1386.97 773.281C1389.26 767.437 1391.8 761.671 1394.62 756.062C1396.12 753.082 1397.69 750.161 1399.38 747.281C1400.06 746.106 1400.72 744.835 1401.59 743.781C1403.38 741.62 1405.59 739.849 1407.69 738C1412.48 733.779 1417.77 729.002 1418.91 722.375C1419.11 721.177 1419.19 719.962 1419.09 718.75C1419 717.491 1418.73 716.224 1418.31 715.031C1417.77 713.469 1416.97 712.002 1415.97 710.688C1414.98 709.386 1413.77 708.247 1412.41 707.344C1408.93 705.042 1404.99 704.511 1401.03 704.875Z" fill="#000000" stroke="none"/>
</g>
<g opacity="1">
<path d="M1560.15 779.138C1566.34 775.829 1571.72 769.542 1578.74 769.212C1582.38 769.04 1584.94 774.321 1585.34 777.952C1585.73 781.511 1578.81 784.645 1580.74 787.659C1582.99 791.174 1588.95 789.203 1593.05 789.974" fill="#000000" fill-opacity="0" fill-rule="nonzero" stroke="none"/>
<path d="M1578.31 760.562C1573.21 760.768 1568.51 763.157 1564.38 765.969C1561.58 767.866 1558.99 770.045 1556.03 771.688C1551.92 773.969 1550.41 779.169 1552.69 783.281C1554.97 787.394 1560.17 788.875 1564.28 786.594C1566.69 785.258 1568.92 783.698 1571.16 782.094C1571.76 781.662 1572.42 781.306 1573.03 780.875C1572.39 782.019 1571.85 783.242 1571.62 784.562C1570.57 790.638 1574.54 795.926 1580.12 797.875C1582.49 798.702 1585.01 798.839 1587.5 798.812C1588.96 798.797 1590.4 798.652 1591.84 798.875C1596.77 799.541 1601.3 796.11 1601.97 791.188C1602.63 786.265 1599.17 781.729 1594.25 781.062C1594.1 781.044 1593.96 781.048 1593.81 781.031C1593.85 780.888 1593.94 780.77 1593.97 780.625C1594.51 777.777 1593.93 774.949 1593 772.25C1590.81 765.857 1585.53 760.271 1578.31 760.562Z" fill="#000000" stroke="none"/>
</g>
<g opacity="1">
<path d="M1610.5 1807.16C1626.55 1804.03 1648.03 1800.24 1663.56 1795.52C1679.09 1790.8 1693.8 1783.5 1709.45 1779.21C1731.87 1773.06 1755.87 1771.67 1778.09 1765.4C1793.16 1761.14 1806.99 1753.02 1822.08 1748.88C1843.18 1743.09 1865.38 1744.08 1886.52 1738.48C1905.5 1733.46 1924.05 1725.64 1943.79 1723.42C1955.23 1722.14 1966.82 1723.36 1978.34 1723.33" fill="#000000" fill-opacity="0" fill-rule="nonzero" stroke="none"/>
<path d="M1950.66 1713.94C1945.36 1714.13 1940.06 1714.72 1934.84 1715.66C1923.5 1717.69 1912.53 1721.2 1901.56 1724.66C1895.89 1726.44 1890.19 1728.37 1884.41 1729.78C1882.27 1730.3 1880.12 1730.74 1877.97 1731.22C1876.75 1731.49 1875.51 1731.8 1874.28 1732.03C1872.16 1732.42 1869.98 1732.65 1867.84 1732.97C1855.15 1734.84 1842.33 1735.61 1829.72 1738.06C1826.33 1738.72 1822.91 1739.43 1819.59 1740.41C1814.31 1741.96 1809.14 1743.84 1804.03 1745.91C1796.86 1748.82 1789.84 1752.1 1782.56 1754.75C1778.56 1756.21 1774.5 1757.31 1770.38 1758.34C1768.58 1758.79 1766.78 1759.28 1764.97 1759.69C1762.67 1760.2 1760.37 1760.61 1758.06 1761.06C1741.11 1764.39 1723.79 1766.23 1707.12 1770.94C1701.7 1772.47 1696.34 1774.29 1691.06 1776.25C1681.07 1779.96 1671.3 1784.23 1661.09 1787.34C1653.45 1789.68 1645.6 1791.44 1637.78 1793.09C1628.17 1795.12 1618.52 1796.94 1608.88 1798.81C1604.26 1799.71 1601.26 1804.16 1602.16 1808.78C1603.05 1813.4 1607.51 1816.43 1612.12 1815.53C1623.43 1813.34 1634.75 1811.26 1646 1808.78C1652.73 1807.3 1659.47 1805.69 1666.06 1803.69C1681.55 1798.99 1696.18 1791.83 1711.78 1787.47C1719.46 1785.32 1727.33 1783.87 1735.19 1782.53C1744.39 1780.97 1753.61 1779.57 1762.78 1777.81C1764.76 1777.43 1766.75 1777.12 1768.72 1776.69C1770.68 1776.26 1772.62 1775.73 1774.56 1775.25C1776.5 1774.77 1778.48 1774.34 1780.41 1773.81C1783.81 1772.89 1787.17 1771.74 1790.47 1770.5C1799.58 1767.09 1808.33 1762.76 1817.53 1759.56C1819.84 1758.76 1822.22 1758.03 1824.56 1757.34C1829.81 1755.82 1835.29 1754.96 1840.69 1754.19C1851.02 1752.71 1861.45 1751.93 1871.78 1750.44C1873.68 1750.16 1875.58 1749.93 1877.47 1749.59C1879.36 1749.25 1881.25 1748.78 1883.12 1748.38C1884.96 1747.97 1886.8 1747.63 1888.62 1747.19C1893.59 1745.98 1898.5 1744.4 1903.38 1742.88C1914.8 1739.31 1926.22 1735.45 1938.03 1733.34C1941.98 1732.64 1945.96 1732.13 1949.97 1731.94C1959.4 1731.48 1968.84 1732.26 1978.28 1732.31C1983.25 1732.34 1987.32 1728.34 1987.34 1723.38C1987.37 1718.41 1983.34 1714.37 1978.38 1714.34C1969.13 1714.3 1959.9 1713.61 1950.66 1713.94Z" fill="#000000" stroke="none"/>
</g>
<g opacity="1">
<path d="M1967.57 1684.78C1975.44 1686.88 1983.33 1688.88 1991.17 1691.08C1997.84 1692.95 2007 1691.38 2011.08 1696.97C2014.38 1701.5 2010.11 1708.47 2007.43 1713.39C2004.47 1718.83 1998.53 1722.06 1994.75 1726.96C1985.55 1738.9 1980.33 1753.59 1975.38 1767.82" fill="#000000" fill-opacity="0" fill-rule="nonzero" stroke="none"/>
<path d="M1966.38 1676.34C1963.09 1676.81 1960.24 1679.21 1959.34 1682.62C1958.14 1687.17 1960.86 1691.83 1965.41 1693.03C1970.64 1694.42 1975.86 1695.78 1981.09 1697.19C1984.46 1698.09 1987.83 1699.2 1991.25 1699.88C1993.32 1700.29 1995.41 1700.5 1997.5 1700.72C1999.04 1700.88 2000.61 1701.02 2002.12 1701.34C2002.57 1701.44 2003.01 1701.56 2003.44 1701.72C2003.43 1701.76 2003.42 1701.8 2003.41 1701.84C2003.21 1702.48 2002.93 1703.09 2002.66 1703.69C2001.81 1705.55 2000.79 1707.34 1999.78 1709.12C1998.73 1710.99 1997.04 1712.44 1995.47 1713.84C1992.78 1716.24 1990.12 1718.6 1987.84 1721.41C1984.33 1725.75 1981.39 1730.62 1978.81 1735.56C1973.93 1744.93 1970.36 1754.9 1966.88 1764.84C1965.24 1769.53 1967.72 1774.68 1972.41 1776.31C1977.1 1777.95 1982.24 1775.47 1983.88 1770.78C1988.15 1758.48 1992.44 1745.9 1999.84 1735.06C2000.87 1733.57 2001.94 1732.07 2003.19 1730.75C2005.3 1728.51 2007.78 1726.64 2009.94 1724.44C2011.4 1722.94 2012.75 1721.34 2013.91 1719.59C2014.9 1718.1 2015.73 1716.49 2016.56 1714.91C2019.81 1708.76 2022.7 1701.62 2019.72 1694.75C2019.26 1693.69 2018.74 1692.81 2018.06 1691.88C2017.08 1690.53 2015.89 1689.32 2014.56 1688.31C2010.71 1685.4 2005.94 1684.41 2001.25 1683.88C1999.22 1683.64 1997.18 1683.51 1995.16 1683.19C1993.9 1682.99 1992.7 1682.64 1991.47 1682.31C1989.49 1681.78 1987.51 1681.22 1985.53 1680.69C1980.28 1679.28 1975.01 1677.95 1969.75 1676.56C1968.61 1676.26 1967.47 1676.19 1966.38 1676.34Z" fill="#000000" stroke="none"/>
</g>
<g opacity="1">
<path d="M1686.34 1617.26C1702.58 1630.46 1715.89 1635.89 1734.4 1645.47C1740.16 1648.45 1745.47 1652.5 1751.69 1654.41C1757.47 1656.18 1763.91 1654.77 1769.76 1656.32C1775.31 1657.78 1779.88 1661.89 1785.44 1663.31C1797.75 1666.46 1810.75 1665.98 1823.4 1667.31C1830.03 1668.01 1836.64 1669.99 1843.28 1669.41C1849.22 1668.89 1854.44 1665.03 1860.33 1664.09C1871.16 1662.36 1882.49 1666.59 1892.47 1671.04" fill="#000000" fill-opacity="0" fill-rule="nonzero" stroke="none"/>
<path d="M1685.41 1608.78C1683.24 1609.02 1681.16 1610.1 1679.69 1611.94C1676.75 1615.61 1677.36 1620.97 1681.03 1623.91C1686.89 1628.6 1692.99 1632.93 1699.44 1636.78C1708.39 1642.13 1717.81 1646.6 1727.09 1651.34C1729.07 1652.35 1731.05 1653.36 1732.97 1654.47C1738.2 1657.49 1743.26 1660.76 1749.06 1662.62C1752.24 1663.64 1755.56 1663.94 1758.88 1664.06C1761.12 1664.14 1763.43 1664.07 1765.66 1664.38C1766.41 1664.48 1767.16 1664.66 1767.91 1664.81C1768.3 1664.89 1768.75 1665.12 1769.12 1665.28C1770.18 1665.73 1771.18 1666.27 1772.19 1666.81C1774.58 1668.11 1776.97 1669.51 1779.5 1670.53C1782.38 1671.69 1785.43 1672.39 1788.47 1672.97C1791.85 1673.61 1795.26 1674.04 1798.69 1674.38C1806.59 1675.15 1814.54 1675.29 1822.44 1676.16C1828.94 1676.87 1835.28 1678.62 1841.88 1678.44C1845.4 1678.34 1848.78 1677.63 1852.09 1676.44C1855.39 1675.25 1858.51 1673.58 1861.97 1672.91C1864.91 1672.34 1868.15 1672.67 1871.06 1673.19C1877.26 1674.29 1883.11 1676.76 1888.84 1679.28C1893.39 1681.28 1898.72 1679.21 1900.72 1674.66C1902.71 1670.11 1900.64 1664.81 1896.09 1662.81C1884.99 1657.95 1872.99 1653.52 1860.66 1655C1857.47 1655.38 1854.4 1656.26 1851.41 1657.41C1848.71 1658.44 1846.06 1659.89 1843.19 1660.41C1841.36 1660.74 1839.4 1660.59 1837.56 1660.41C1834.37 1660.08 1831.23 1659.41 1828.06 1658.94C1825.16 1658.5 1822.24 1658.25 1819.31 1658.03C1809.19 1657.29 1798.92 1657.37 1788.97 1655.16C1787.97 1654.93 1786.92 1654.66 1785.97 1654.28C1784.06 1653.53 1782.27 1652.4 1780.47 1651.44C1777.67 1649.95 1774.74 1648.51 1771.62 1647.81C1768.59 1647.13 1765.54 1646.88 1762.44 1646.81C1759.28 1646.74 1756.13 1646.86 1753.12 1645.78C1749.54 1644.49 1746.27 1642.39 1743 1640.47C1739.98 1638.7 1736.88 1637.08 1733.75 1635.5C1725.16 1631.17 1716.43 1627.05 1708.16 1622.12C1702.37 1618.68 1696.91 1614.8 1691.66 1610.59C1689.82 1609.12 1687.57 1608.54 1685.41 1608.78Z" fill="#000000" stroke="none"/>
</g>
<g opacity="1">
<path d="M1710.23 939.58C1724.77 931.816 1737.44 917.76 1753.85 916.288C1763.26 915.444 1771.79 925.332 1776.25 933.66C1779.47 939.662 1767.94 950.966 1774.05 953.969C1781.3 957.529 1787.9 945.061 1795.76 943.247C1803.03 941.571 1810.71 944.661 1818.12 943.802C1824.74 943.033 1831.37 941.296 1837.38 938.418C1845.32 934.62 1851.14 926.759 1859.49 924.002C1865.99 921.86 1873.17 924.239 1880 924.357" fill="#000000" fill-opacity="0" fill-rule="nonzero" stroke="none"/>
<path d="M1754.06 907.688C1750.79 907.834 1747.53 908.539 1744.41 909.5C1729.97 913.936 1719.1 924.941 1706.12 932.125C1702.01 934.401 1700.51 939.572 1702.78 943.688C1705.06 947.803 1710.23 949.307 1714.34 947.031C1721.68 942.979 1728.34 937.927 1735.25 933.219C1740.63 929.552 1746.58 925.999 1753.12 925C1753.87 924.886 1754.65 924.74 1755.41 924.812C1757.62 925.026 1759.62 926.55 1761.22 927.969C1764.01 930.444 1766.04 933.498 1767.94 936.656C1767.2 939.12 1765.99 941.401 1765.09 943.812C1764.49 945.433 1763.98 947.11 1763.69 948.812C1763.48 950.008 1763.45 951.262 1763.59 952.469C1764.37 959.168 1770.3 963.352 1776.78 963.344C1782.41 963.336 1787.07 960.078 1791.22 956.625C1792.58 955.493 1793.89 954.301 1795.31 953.25C1796 952.744 1796.79 952.134 1797.62 951.875C1799.56 951.274 1802.12 951.601 1804.09 951.812C1807.47 952.174 1810.85 952.777 1814.25 952.844C1820.28 952.962 1826.44 951.741 1832.19 950C1837.98 948.248 1843.43 945.745 1848.31 942.156C1851.02 940.166 1853.59 937.975 1856.28 935.969C1858.21 934.534 1860.3 933.039 1862.66 932.406C1865.11 931.748 1867.84 932.147 1870.31 932.438C1873.42 932.804 1876.49 933.209 1879.62 933.344C1884.59 933.548 1888.8 929.682 1889 924.719C1889.2 919.756 1885.34 915.579 1880.38 915.375C1876.38 915.221 1872.45 914.471 1868.47 914.219C1863.95 913.933 1859.47 914.353 1855.22 916C1851.34 917.503 1847.88 919.795 1844.59 922.312C1841.59 924.617 1838.75 927.204 1835.53 929.219C1832.91 930.861 1829.95 931.97 1827 932.875C1823.04 934.091 1818.73 935.119 1814.56 935.062C1812.03 935.028 1809.48 934.562 1806.97 934.281C1803.48 933.893 1799.96 933.695 1796.47 934.156C1794.32 934.44 1792.24 934.966 1790.25 935.844C1788.44 936.644 1786.77 937.679 1785.19 938.844C1785.44 937.259 1785.59 935.651 1785.34 934C1784.76 930.107 1782.25 926.478 1780 923.344C1774.02 915.021 1764.92 907.201 1754.06 907.688Z" fill="#000000" stroke="none"/>
</g>
<g opacity="1">
<path d="M1981.64 1693.82C1978.9 1697.18 1974.33 1699.65 1973.42 1703.89C1971.81 1711.37 1972.42 1719.46 1974.54 1726.82C1975.33 1729.58 1977.48 1721.65 1977.7 1718.78C1978.09 1713.65 1977.06 1708.5 1976.34 1703.41C1975.86 1700.08 1977.42 1694.1 1974.1 1693.58C1971 1693.09 1972.2 1699.58 1971.71 1702.68C1971.22 1705.77 1971.31 1708.94 1971.18 1712.07C1970.97 1717.1 1967.73 1723.09 1970.69 1727.16C1973.26 1730.69 1972.23 1718.55 1972.73 1714.21C1973.09 1711.1 1973.48 1707.95 1973.27 1704.82C1973.01 1700.88 1973.42 1689.8 1971.32 1693.14C1968.16 1698.16 1970.01 1704.94 1969.47 1710.85C1968.49 1721.76 1968.2 1729.67 1972.49 1739.76" fill="#fff3e4" fill-rule="nonzero" stroke="none"/>
<path d="M1971.56 1683.59C1970.67 1683.62 1969.78 1683.82 1968.94 1684.09C1968.24 1684.32 1967.6 1684.69 1966.97 1685.06C1962.96 1687.46 1961.14 1693.34 1960.66 1697.69C1960.24 1701.48 1960.73 1705.27 1960.59 1709.06C1960.53 1710.77 1960.31 1712.46 1960.19 1714.16C1959.96 1717.28 1959.82 1720.43 1959.91 1723.56C1960.1 1730.37 1961.61 1736.89 1964.19 1743.19C1966.08 1747.78 1971.31 1749.98 1975.91 1748.09C1980.5 1746.21 1982.7 1740.94 1980.81 1736.34C1980.52 1735.64 1980.35 1734.9 1980.09 1734.19C1980.26 1734.07 1980.47 1734.03 1980.62 1733.91C1983.16 1731.89 1984.24 1728.57 1985.06 1725.56C1985.61 1723.57 1986.08 1721.5 1986.25 1719.44C1986.72 1713.78 1985.73 1708.2 1984.94 1702.62C1985.35 1702.25 1985.76 1701.86 1986.12 1701.5C1986.8 1700.83 1987.44 1700.12 1988.06 1699.41C1991.15 1695.86 1990.79 1690.5 1987.25 1687.41C1984.72 1685.2 1981.25 1684.81 1978.34 1686.03C1978.25 1685.99 1978.16 1685.95 1978.06 1685.91C1977.73 1685.61 1977.41 1685.29 1977.03 1685.06C1976.23 1684.58 1975.37 1684.15 1974.47 1683.91C1973.53 1683.65 1972.54 1683.56 1971.56 1683.59Z" fill="#713c15" fill-opacity="0.103604" stroke="none"/>
</g>
<g opacity="1">
<path d="M1977.16 1710.17C1976.6 1715.77 1976.03 1721.36 1975.46 1726.96" fill="#fff3e4" fill-opacity="0" fill-rule="nonzero" stroke="none"/>
<path d="M1978.03 1701.69C1973.35 1701.21 1969.16 1704.63 1968.69 1709.31C1968.09 1714.91 1967.13 1720.47 1966.5 1726.06C1966 1731 1969.62 1735.41 1974.56 1735.91C1979.5 1736.41 1983.91 1732.82 1984.41 1727.88C1984.91 1722.27 1985.09 1716.64 1985.62 1711.03C1986.1 1706.35 1982.71 1702.16 1978.03 1701.69Z" fill="#000000" stroke="none"/>
</g>
<g opacity="1">
<path d="M1984.85 1709.49C1982.73 1712.94 1979.85 1716.04 1978.48 1719.86C1977.52 1722.51 1975.8 1729.99 1978.09 1728.32C1981.76 1725.65 1982.17 1720.19 1983.83 1715.96C1985.33 1712.14 1989.99 1707.55 1987.58 1704.23C1985.31 1701.11 1984.36 1711.26 1983.05 1714.89C1982.1 1717.55 1979.31 1725.46 1980.81 1723.07C1983.55 1718.71 1984.75 1713.56 1986.85 1708.86C1988.17 1705.88 1988.43 1698.15 1991.08 1700.05C1994.14 1702.23 1986.76 1709.91 1990.25 1711.29C1993.97 1712.75 1995.12 1703.24 1999.11 1703.21C2001.99 1703.18 1995.95 1711.24 1995.95 1711.24C1995.95 1711.24 1998.24 1700.47 1999.11 1703.21C2000.15 1706.49 1994.55 1710.45 1996.58 1713.24C1998.45 1715.81 1998.76 1707.25 1999.89 1704.28C2000.91 1701.59 2005.73 1697.3 2003.05 1696.25C1999.27 1694.76 1995.47 1699.24 1991.86 1701.12C1988.92 1702.64 1986.33 1708.06 1983.44 1706.42C1980.73 1704.89 1987.15 1699.34 1984.9 1697.18C1982.56 1694.91 1977.78 1696.48 1975.22 1698.49C1972.42 1700.69 1971.39 1704.71 1970.84 1708.22C1970.33 1711.44 1974.56 1702.63 1975.07 1699.42C1975.53 1696.49 1976.53 1691.12 1973.61 1690.66C1970.68 1690.19 1970.12 1695.64 1969.52 1698.54C1968.75 1702.26 1966 1711.08 1969.62 1709.93C1973.49 1708.7 1971.75 1701.96 1971.52 1697.91C1971.32 1694.42 1971.79 1687.36 1968.35 1687.93C1964.65 1688.55 1965.95 1695.13 1965.68 1698.88C1965.39 1702.73 1966.44 1706.56 1966.7 1710.41C1966.91 1713.59 1965.4 1722.65 1967.09 1719.95C1969.92 1715.46 1970.02 1709.67 1970.5 1704.38C1970.87 1700.23 1973.52 1693.36 1969.62 1691.92C1966.06 1690.61 1966.48 1698.96 1966.02 1702.73C1965.02 1710.84 1966.62 1723.23 1968.11 1731.49C1968.71 1734.8 1967.03 1740.79 1970.35 1741.32C1973.43 1741.8 1971.32 1735.15 1971.81 1732.07C1972.3 1728.99 1970.15 1722.85 1973.27 1722.82C1976.65 1722.8 1976.71 1728.74 1977.51 1732.02C1978.65 1736.73 1979.77 1741.69 1979.02 1746.48C1978.4 1750.38 1980.65 1736.46 1977.07 1734.8C1974.11 1733.42 1973.91 1740.53 1972.83 1743.61C1971.59 1747.15 1973.87 1755.14 1970.16 1754.56C1966.41 1753.96 1970.68 1746.91 1970.06 1743.17C1969.6 1740.38 1969.16 1748.86 1969.67 1751.64C1970.21 1754.53 1971.98 1757.05 1973.13 1759.76" fill="#fff3e4" fill-opacity="0" fill-rule="nonzero" stroke="none"/>
<path d="M1968.84 1679.09C1966.97 1679.05 1965.03 1679.56 1963.38 1680.44C1962.3 1681.01 1961.31 1681.75 1960.47 1682.62C1957.76 1685.46 1956.94 1689.36 1956.84 1693.16C1956.81 1694.68 1956.91 1696.22 1956.88 1697.75C1956.83 1699.71 1956.79 1701.61 1956.97 1703.56C1956.95 1703.79 1956.92 1704.02 1956.91 1704.25C1956.72 1706.94 1956.76 1709.65 1956.88 1712.34C1956.96 1714.26 1957.23 1716.16 1957.41 1718.06C1957.35 1719.3 1957.35 1720.55 1957.62 1721.72C1957.68 1721.95 1957.76 1722.17 1957.81 1722.41C1957.95 1723.57 1957.99 1724.75 1958.16 1725.91C1958.49 1728.28 1958.95 1730.63 1959.28 1733C1959.43 1734.1 1959.25 1735.3 1959.25 1736.41C1959.25 1738.11 1959.33 1739.81 1959.75 1741.47C1959.95 1742.25 1960.32 1742.92 1960.66 1743.62C1960.64 1743.83 1960.58 1744.04 1960.56 1744.25C1960.51 1745.09 1960.51 1745.94 1960.5 1746.78C1960.17 1748.08 1959.86 1749.36 1959.72 1750.69C1959.29 1754.79 1960.68 1758.68 1963.84 1761.16C1964.24 1761.94 1964.61 1762.74 1964.97 1763.53C1967.04 1768.04 1972.36 1770.01 1976.88 1767.94C1981.39 1765.86 1983.39 1760.51 1981.31 1756C1981.27 1755.91 1981.23 1755.81 1981.19 1755.72C1982.26 1755.38 1983.3 1754.89 1984.28 1754.34C1985 1753.95 1985.49 1753.24 1986.03 1752.62C1987.12 1751.38 1987.57 1749.6 1987.84 1747.81C1987.84 1747.8 1987.84 1747.79 1987.84 1747.78C1988.02 1746.6 1988.18 1745.39 1988.22 1744.41C1988.24 1743.84 1988.1 1743.28 1988.09 1742.72C1988.11 1741.49 1987.96 1740.32 1987.84 1739.09C1987.72 1738.07 1987.68 1737.04 1987.5 1736.03C1987.42 1735.64 1987.35 1735.25 1987.25 1734.88C1987.04 1733.81 1986.83 1732.75 1986.59 1731.69C1988.28 1729.42 1989.38 1726.81 1990.22 1724.12C1990.51 1723.19 1990.82 1722.25 1991.09 1721.31C1991.25 1720.92 1991.44 1720.55 1991.59 1720.16C1992.08 1720.54 1992.5 1721 1993.06 1721.28C1994.31 1721.89 1995.5 1722.24 1996.91 1722.28C1998.33 1722.33 1999.79 1722.02 2001.09 1721.44C2003.52 1720.34 2005.18 1718.12 2006.09 1715.69C2006.78 1713.87 2007.07 1711.88 2007.41 1709.97C2007.53 1709.29 2007.64 1708.61 2007.78 1707.94C2007.81 1707.78 2007.84 1707.62 2007.88 1707.47C2007.88 1707.46 2007.9 1707.45 2007.91 1707.44C2007.95 1707.36 2008.01 1707.29 2008.06 1707.22C2008.28 1706.89 2008.57 1706.51 2008.78 1706.22C2009.51 1705.19 2010.28 1704.15 2010.88 1703.03C2011.86 1701.18 2012.51 1699.25 2012.47 1697.12C2012.46 1696.38 2012.38 1695.62 2012.19 1694.91C2011.98 1694.12 2011.68 1693.34 2011.28 1692.62C2010.87 1691.89 2010.36 1691.2 2009.78 1690.59C2009.23 1690.02 2008.6 1689.53 2007.94 1689.09C2005.46 1687.45 2002.16 1687.04 1999.28 1687.5C1996.2 1687.99 1993.68 1689.61 1991.19 1691.31C1990.77 1690.88 1990.32 1690.46 1989.91 1690.03C1989.58 1689.7 1989.14 1689.52 1988.75 1689.28C1988.38 1689.06 1988.01 1688.84 1987.62 1688.66C1986.23 1687.99 1984.69 1687.59 1983.16 1687.44C1982.95 1687.42 1982.74 1687.48 1982.53 1687.47C1981.23 1685.15 1979.21 1683.45 1976.56 1682.59C1976.56 1682.59 1976.57 1682.56 1976.56 1682.56C1974.59 1680.44 1971.87 1679.17 1968.84 1679.09Z" fill="#000000" stroke="none"/>
</g>
<g opacity="1">
<path d="M1661.66 1799.69C1661.51 1806.62 1661.37 1813.55 1661.22 1820.48" fill="#fff3e4" fill-opacity="0" fill-rule="nonzero" stroke="none"/>
<path d="M1661.84 1791.19C1657.14 1791.09 1653.25 1794.83 1653.16 1799.53C1652.98 1806.46 1652.43 1813.35 1652.22 1820.28C1652.11 1825.25 1656.06 1829.36 1661.03 1829.47C1666 1829.57 1670.11 1825.62 1670.22 1820.66C1670.3 1813.72 1670.04 1806.81 1670.16 1799.88C1670.25 1795.17 1666.55 1791.29 1661.84 1791.19Z" fill="#000000" stroke="none"/>
</g>
<g opacity="1">
<path d="M1740.69 1773.31C1742.12 1778.27 1743.55 1783.24 1744.98 1788.2" fill="#fff3e4" fill-opacity="0" fill-rule="nonzero" stroke="none"/>
<path d="M1741.72 1764.84C1740.62 1764.71 1739.47 1764.8 1738.34 1765.12C1733.82 1766.43 1731.2 1771.14 1732.5 1775.66C1733.9 1780.63 1734.98 1785.7 1736.34 1790.69C1737.72 1795.46 1742.69 1798.22 1747.47 1796.84C1752.24 1795.47 1755 1790.49 1753.62 1785.72C1752.13 1780.77 1750.34 1775.93 1748.88 1770.97C1747.9 1767.58 1745.01 1765.24 1741.72 1764.84Z" fill="#000000" stroke="none"/>
</g>
<g opacity="1">
<path d="M1830.43 1757.15C1831.72 1763.03 1833 1768.92 1834.28 1774.81" fill="#fff3e4" fill-opacity="0" fill-rule="nonzero" stroke="none"/>
<path d="M1832 1748.78C1830.91 1748.58 1829.77 1748.56 1828.62 1748.81C1824.03 1749.81 1821.12 1754.37 1822.12 1758.97C1823.38 1764.87 1824.28 1770.81 1825.5 1776.72C1826.56 1781.57 1831.33 1784.65 1836.19 1783.59C1841.04 1782.54 1844.12 1777.76 1843.06 1772.91C1841.71 1767.03 1840.07 1761.23 1838.75 1755.34C1838 1751.9 1835.26 1749.39 1832 1748.78Z" fill="#000000" stroke="none"/>
</g>
<g opacity="1">
<path d="M1910.73 1734.75C1911.4 1740.54 1912.06 1746.34 1912.73 1752.13" fill="#fff3e4" fill-opacity="0" fill-rule="nonzero" stroke="none"/>
<path d="M1909.75 1726.28C1905.08 1726.82 1901.74 1731.05 1902.28 1735.72C1902.91 1741.52 1903.18 1747.35 1903.78 1753.16C1904.35 1758.09 1908.82 1761.63 1913.75 1761.06C1918.68 1760.5 1922.22 1756.03 1921.66 1751.09C1920.92 1745.31 1919.89 1739.57 1919.19 1733.78C1918.65 1729.11 1914.42 1725.74 1909.75 1726.28Z" fill="#000000" stroke="none"/>
</g>
<path d="M-1159.68 2606.04L-1157.22 2606.04C-1156.55 2606.04-1156 2606.59-1156 2607.27L-1156 2607.27C-1156 2607.95-1156.55 2608.5-1157.22 2608.5L-1159.68 2608.5C-1160.36 2608.5-1160.91 2607.95-1160.91 2607.27L-1160.91 2607.27C-1160.91 2606.59-1160.36 2606.04-1159.68 2606.04Z" fill="#ddb687" fill-rule="nonzero" opacity="1" stroke="#bcb19c" stroke-linecap="butt" stroke-linejoin="round" stroke-width="16.9393"/>
<path d="M1583.34 505.176C1583.34 503.282 1585.66 501.746 1588.52 501.746C1591.38 501.746 1593.7 503.282 1593.7 505.176C1593.7 507.07 1591.38 508.606 1588.52 508.606C1585.66 508.606 1583.34 507.07 1583.34 505.176Z" fill="#8e7860" fill-rule="nonzero" opacity="1" stroke="#ff0000" stroke-linecap="butt" stroke-linejoin="round" stroke-width="16.9393"/>
<path d="M842.563 718.148C842.563 713.931 845.819 710.513 849.835 710.513C853.851 710.513 857.107 713.931 857.107 718.148C857.107 722.364 853.851 725.782 849.835 725.782C845.819 725.782 842.563 722.364 842.563 718.148Z" fill="#8e7860" fill-rule="nonzero" opacity="1" stroke="#ff0000" stroke-linecap="butt" stroke-linejoin="round" stroke-width="16.9393"/>
<path d="M1465.54 959.355C1465.54 955.466 1469.13 952.314 1473.56 952.314C1477.99 952.314 1481.58 955.466 1481.58 959.355C1481.58 963.243 1477.99 966.396 1473.56 966.396C1469.13 966.396 1465.54 963.243 1465.54 959.355Z" fill="#8e7860" fill-rule="nonzero" opacity="1" stroke="#ff0000" stroke-linecap="butt" stroke-linejoin="round" stroke-width="16.9393"/>
<path d="M1582.27 852.961C1582.27 849.984 1584.73 847.571 1587.76 847.571C1590.8 847.571 1593.26 849.984 1593.26 852.961C1593.26 855.938 1590.8 858.352 1587.76 858.352C1584.73 858.352 1582.27 855.938 1582.27 852.961Z" fill="#8e7860" fill-rule="nonzero" opacity="1" stroke="#ff0000" stroke-linecap="butt" stroke-linejoin="round" stroke-width="16.9393"/>
</g>
</svg>
