<?xml version="1.0" encoding="UTF-8" standalone="no"?>
<!DOCTYPE svg PUBLIC "-//W3C//DTD SVG 1.1//EN" "http://www.w3.org/Graphics/SVG/1.1/DTD/svg11.dtd">
<!-- Created with Vectornator (http://vectornator.io/) -->
<svg height="100%" stroke-miterlimit="10" style="fill-rule:nonzero;clip-rule:evenodd;stroke-linecap:round;stroke-linejoin:round;" version="1.1" viewBox="0 0 793.8 1134" width="100%" xml:space="preserve" xmlns="http://www.w3.org/2000/svg" xmlns:vectornator="http://vectornator.io" xmlns:xlink="http://www.w3.org/1999/xlink">
<defs>
<filter color-interpolation-filters="sRGB" filterUnits="userSpaceOnUse" height="1115.37" id="Filter" width="747.49" x="16.2305" y="18.2352">
<feDropShadow dx="-5.17605" dy="9.1513" flood-color="#000000" flood-opacity="0.333" in="SourceGraphic" result="Shadow" stdDeviation="3.15411"/>
</filter>
<filter color-interpolation-filters="sRGB" filterUnits="userSpaceOnUse" height="825.296" id="Filter_2" width="214.096" x="121.305" y="191.157">
<feDropShadow dx="-5.17605" dy="9.1513" flood-color="#000000" flood-opacity="0.333" in="SourceGraphic" result="Shadow" stdDeviation="3.15411"/>
</filter>
</defs>
<g id="Ebene-1" vectornator:layerName="Ebene 1">
<path d="M31.2695 20.2129L759.034 20.2129L759.034 1114.6L31.2695 1114.6L31.2695 20.2129Z" fill="#ffffff" fill-rule="nonzero" filter="url(#Filter)" stroke="#849087" stroke-linecap="butt" stroke-linejoin="round" stroke-width="3.95539" vectornator:shadowAngle="2.08554" vectornator:shadowColor="#000000" vectornator:shadowOffset="10.5137" vectornator:shadowOpacity="0.333" vectornator:shadowRadius="6.30822"/>
<g fill="#000000" filter="url(#Filter_2)" stroke="none" vectornator:shadowAngle="2.08554" vectornator:shadowColor="#000000" vectornator:shadowOffset="10.5137" vectornator:shadowOpacity="0.333" vectornator:shadowRadius="6.30822">
<path d="M121.355 933.715C121.366 914.83 126.35 900.179 136.306 889.761C146.262 879.343 157.569 873.563 170.228 872.42L170.216 892.117C160.603 894.345 152.985 898.79 147.363 905.454C141.741 912.118 138.927 921.474 138.92 933.522C138.911 948.21 144.065 960.075 154.381 969.118C164.698 978.16 180.517 982.688 201.838 982.701C219.302 982.711 233.467 978.641 244.336 970.492C255.205 962.342 260.644 950.179 260.654 934.002C260.663 919.111 254.95 907.77 243.516 899.979C237.494 895.846 229.576 892.762 219.763 890.725L219.775 871.028C235.477 872.798 248.639 878.627 259.26 888.515C272.045 900.368 278.432 916.346 278.42 936.449C278.409 953.777 273.155 968.326 262.656 980.097C248.771 995.589 227.344 1003.33 198.374 1003.31C176.376 1003.3 158.341 997.464 144.269 985.813C128.98 973.214 121.341 955.848 121.355 933.715Z"/>
<path d="M124.959 848.838L124.97 830.562L180.609 830.596C175.129 826.261 171.273 822.366 169.041 818.913C165.187 813.022 163.262 805.677 163.268 796.877C163.277 781.106 168.8 770.415 179.836 764.804C185.862 761.762 194.222 760.244 204.917 760.25L274.668 760.292L274.657 779.075L206.124 779.034C198.137 779.029 192.281 780.041 188.557 782.069C182.599 785.382 179.617 791.608 179.612 800.745C179.607 808.326 182.209 815.198 187.417 821.361C192.625 827.523 202.472 830.609 216.957 830.618L274.626 830.653L274.615 848.928L124.959 848.838Z"/>
<path d="M166.453 733.22L166.465 714.64L274.695 714.705L274.684 733.285L166.453 733.22ZM125.537 733.195L125.548 714.615L146.26 714.628L146.249 733.208L125.537 733.195Z"/>
<path d="M262.455 641.19C262.46 632.662 258.894 625.569 251.756 619.913C244.618 614.257 233.943 611.425 219.728 611.416C211.065 611.411 203.618 612.659 197.39 615.159C185.406 619.89 179.411 628.551 179.403 641.14C179.396 653.798 185.719 662.465 198.374 667.143C205.141 669.652 213.736 670.909 224.16 670.915C232.553 670.921 239.695 669.673 245.585 667.172C256.824 662.441 262.447 653.78 262.455 641.19ZM166.48 688.445L166.491 670.678L180.908 670.686C175.969 667.028 172.147 663.032 169.443 658.699C165.385 652.537 163.359 645.293 163.364 636.968C163.371 624.649 168.099 614.194 177.546 605.604C186.994 597.013 200.483 592.723 218.014 592.734C241.704 592.748 258.622 598.952 268.767 611.344C275.193 619.2 278.403 628.339 278.396 638.763C278.391 646.953 276.593 653.822 273.003 659.371C270.97 662.618 267.482 666.237 262.539 670.228L318.075 670.261L318.064 688.537L166.48 688.445Z"/>
<path d="M162.921 529.447C162.928 517.196 165.913 507.231 171.874 499.552C177.835 491.873 188.092 487.26 202.646 485.712L202.635 503.48C195.933 504.559 190.365 507.026 185.929 510.881C181.493 514.737 179.273 520.929 179.267 529.457C179.26 541.099 184.941 549.428 196.309 554.444C203.685 557.697 212.788 559.327 223.618 559.334C234.516 559.34 243.688 557.045 251.137 552.446C258.585 547.848 262.312 540.608 262.318 530.726C262.323 523.145 260.008 517.136 255.374 512.7C250.74 508.264 244.397 505.197 236.343 503.5L236.354 485.732C250.77 487.772 261.309 492.854 267.971 500.981C274.633 509.107 277.96 519.499 277.953 532.156C277.944 546.371 272.743 557.705 262.348 566.16C251.953 574.614 238.971 578.837 223.403 578.827C204.316 578.816 189.461 574.17 178.84 564.891C168.219 555.611 162.912 543.797 162.921 529.447Z"/>
<path d="M245.917 453.451C251.196 453.455 255.36 451.528 258.409 447.672C261.457 443.815 262.982 439.248 262.986 433.968C262.989 427.538 261.504 421.31 258.53 415.284C253.595 405.128 245.509 400.046 234.273 400.04L219.551 400.031C220.971 402.265 222.154 405.143 223.1 408.663C224.045 412.183 224.72 415.636 225.124 419.02L226.539 430.088C227.415 436.722 228.799 441.698 230.692 445.015C233.87 450.635 238.945 453.447 245.917 453.451ZM208.987 409.162C208.448 404.965 206.69 402.155 203.712 400.732C202.088 399.919 199.753 399.511 196.707 399.509C190.48 399.506 185.961 401.72 183.149 406.151C180.337 410.583 178.929 416.928 178.924 425.186C178.918 434.73 181.486 441.5 186.628 445.496C189.47 447.732 193.699 449.19 199.317 449.87L199.306 466.927C185.905 466.58 176.584 462.226 171.343 453.863C166.102 445.501 163.485 435.803 163.492 424.77C163.5 411.978 165.942 401.589 170.821 393.605C175.699 385.689 183.282 381.734 193.571 381.74L256.215 381.778C258.11 381.779 259.633 381.39 260.784 380.613C261.935 379.835 262.512 378.194 262.513 375.69C262.514 374.877 262.463 373.963 262.362 372.948C262.262 371.933 262.11 370.85 261.908 369.699L275.411 369.707C276.222 372.55 276.728 374.717 276.93 376.206C277.132 377.695 277.232 379.726 277.231 382.298C277.227 388.593 274.991 393.16 270.522 396C268.152 397.488 264.801 398.535 260.468 399.142C265.34 402.867 269.567 408.217 273.15 415.191C276.733 422.165 278.522 429.848 278.517 438.242C278.511 448.327 275.443 456.566 269.314 462.959C263.184 469.351 255.517 472.545 246.311 472.539C236.226 472.533 228.41 469.381 222.864 463.083C217.317 456.785 213.904 448.525 212.624 438.303L208.987 409.162Z"/>
<path d="M166.176 351.264L166.186 333.903L184.969 333.914C181.315 332.49 176.867 329.002 171.625 323.448C166.382 317.895 163.763 311.497 163.768 304.254C163.768 303.916 163.802 303.341 163.87 302.529C163.938 301.716 164.074 300.329 164.279 298.366L183.569 298.378C183.366 299.461 183.23 300.459 183.161 301.373C183.093 302.286 183.059 303.285 183.058 304.368C183.053 313.573 186.01 320.648 191.929 325.593C197.849 330.537 204.667 333.012 212.383 333.017L274.925 333.054L274.914 351.33L166.176 351.264Z"/>
<path d="M221.863 270.988C233.505 270.995 243.253 268.53 251.108 263.594C258.962 258.657 262.893 250.74 262.9 239.843C262.905 231.382 259.271 224.425 251.998 218.972C244.725 213.519 234.286 210.788 220.681 210.78C206.94 210.771 196.769 213.574 190.166 219.188C183.563 224.802 180.259 231.738 180.254 239.996C180.249 249.201 183.764 256.666 190.8 262.39C197.836 268.113 208.19 270.979 221.863 270.988ZM164.312 243.438C164.317 235.113 166.081 228.142 169.604 222.526C171.637 219.279 175.192 215.592 180.271 211.466L125.344 211.433L125.354 193.868L275.009 193.958L274.999 210.406L259.871 210.397C266.57 214.665 271.406 219.711 274.381 225.534C277.356 231.357 278.841 238.025 278.836 245.538C278.829 257.654 273.729 268.142 263.537 277.003C253.345 285.864 239.788 290.289 222.866 290.279C207.028 290.269 193.307 286.217 181.703 278.121C170.1 270.026 164.303 258.465 164.312 243.438Z"/>
</g>
</g>
</svg>
