<?xml version="1.0" encoding="UTF-8" standalone="no"?>
<!DOCTYPE svg PUBLIC "-//W3C//DTD SVG 1.1//EN" "http://www.w3.org/Graphics/SVG/1.1/DTD/svg11.dtd">
<!-- Created with Vectornator (http://vectornator.io/) -->
<svg height="100%" stroke-miterlimit="10" style="fill-rule:nonzero;clip-rule:evenodd;stroke-linecap:round;stroke-linejoin:round;" version="1.1" viewBox="0 0 1417.5 745.605" width="100%" xml:space="preserve" xmlns="http://www.w3.org/2000/svg" xmlns:vectornator="http://vectornator.io" xmlns:xlink="http://www.w3.org/1999/xlink">
<defs>
<filter color-interpolation-filters="sRGB" filterUnits="userSpaceOnUse" height="124.464" id="Filter" width="1227.03" x="115.411" y="231.446">
<feDropShadow dx="-5.17605" dy="9.1513" flood-color="#000000" flood-opacity="0.333" in="SourceGraphic" result="Shadow" stdDeviation="3.15411"/>
</filter>
</defs>
<g id="Ebene-1" vectornator:layerName="Ebene 1">
<path d="M81.433 281.627C81.433 148.357 373.541 40.3198 733.873 40.3198C1094.21 40.3198 1386.31 148.357 1386.31 281.627C1386.31 414.898 1094.21 522.935 733.873 522.935C611.294 522.935 496.611 510.432 398.636 488.687C358.224 479.718 72.0482 738.412 37.9401 726.526C5.7961 715.325 225.332 433.694 199.854 420.297C125.241 381.064 81.433 333.238 81.433 281.627Z" fill="#f1f1f1" fill-rule="nonzero" opacity="1" stroke="#000000" stroke-linecap="butt" stroke-linejoin="round" stroke-width="19.2838"/>
<g fill="#000000" filter="url(#Filter)" stroke="none" vectornator:shadowAngle="2.08554" vectornator:shadowColor="#000000" vectornator:shadowOffset="10.5137" vectornator:shadowOpacity="0.333" vectornator:shadowRadius="6.30822">
<path d="M175.002 289.636C175.002 296.488 173.989 301.811 171.963 305.606C168.205 312.532 161.058 315.995 150.522 315.995C144.443 315.995 139.248 314.346 134.938 311.049C130.628 307.752 128.473 301.885 128.473 293.449L128.473 287.646L138.806 287.646L138.806 293.449C138.806 297.869 139.792 301.194 141.763 303.423C143.734 305.652 146.801 306.766 150.964 306.766C156.821 306.766 160.653 304.759 162.458 300.743C163.563 298.275 164.116 293.614 164.116 286.762L164.116 232.662L175.002 232.662L175.002 289.636Z"/>
<path d="M200.367 254.656L200.367 293.946C200.367 296.967 200.846 299.435 201.804 301.351C203.572 304.888 206.869 306.656 211.695 306.656C218.621 306.656 223.337 303.561 225.842 297.372C227.205 294.056 227.887 289.507 227.887 283.723L227.887 254.656L237.834 254.656L237.834 313.84L228.439 313.84L228.55 305.109C227.261 307.356 225.658 309.253 223.742 310.8C219.948 313.895 215.343 315.442 209.927 315.442C201.491 315.442 195.743 312.624 192.686 306.988C191.028 303.967 190.199 299.933 190.199 294.885L190.199 254.656L200.367 254.656Z"/>
<path d="M253.362 232.385L263.309 232.385L263.309 262.668C265.667 259.684 267.785 257.584 269.664 256.369C272.869 254.269 276.866 253.219 281.656 253.219C290.239 253.219 296.06 256.221 299.118 262.226C300.776 265.505 301.605 270.055 301.605 275.876L301.605 313.84L291.381 313.84L291.381 276.539C291.381 272.192 290.829 269.005 289.724 266.979C287.918 263.737 284.529 262.116 279.556 262.116C275.43 262.116 271.69 263.534 268.338 266.371C264.985 269.208 263.309 274.568 263.309 282.452L263.309 313.84L253.362 313.84L253.362 232.385Z"/>
<path d="M326.251 254.656L326.251 293.946C326.251 296.967 326.73 299.435 327.688 301.351C329.456 304.888 332.753 306.656 337.58 306.656C344.506 306.656 349.221 303.561 351.726 297.372C353.089 294.056 353.771 289.507 353.771 283.723L353.771 254.656L363.718 254.656L363.718 313.84L354.324 313.84L354.434 305.109C353.145 307.356 351.542 309.253 349.626 310.8C345.832 313.895 341.227 315.442 335.811 315.442C327.375 315.442 321.628 312.624 318.57 306.988C316.912 303.967 316.083 299.933 316.083 294.885L316.083 254.656L326.251 254.656Z"/>
<path d="M381.346 325.389C383.888 324.947 385.675 323.161 386.706 320.029C387.259 318.371 387.535 316.769 387.535 315.221C387.535 314.963 387.526 314.733 387.508 314.531C387.489 314.328 387.443 314.098 387.37 313.84L381.346 313.84L381.346 301.793L393.172 301.793L393.172 312.956C393.172 317.34 392.288 321.19 390.519 324.505C388.751 327.821 385.693 329.865 381.346 330.639L381.346 325.389Z"/>
<path d="M448.433 284.938C448.433 291.275 449.777 296.58 452.467 300.854C455.156 305.127 459.466 307.264 465.398 307.264C470.003 307.264 473.788 305.284 476.754 301.323C479.72 297.363 481.202 291.68 481.202 284.275C481.202 276.797 479.674 271.261 476.616 267.669C473.558 264.077 469.782 262.281 465.287 262.281C460.277 262.281 456.215 264.197 453.102 268.029C449.989 271.86 448.433 277.497 448.433 284.938ZM463.408 253.606C467.94 253.606 471.734 254.563 474.792 256.479C476.56 257.584 478.568 259.518 480.816 262.281L480.816 232.385L490.376 232.385L490.376 313.84L481.423 313.84L481.423 305.606C479.102 309.253 476.358 311.887 473.19 313.508C470.021 315.129 466.393 315.94 462.303 315.94C455.709 315.94 449.998 313.168 445.172 307.623C440.346 302.078 437.933 294.701 437.933 285.491C437.933 276.87 440.134 269.401 444.537 263.083C448.939 256.765 455.23 253.606 463.408 253.606Z"/>
<path d="M512.701 298.091C512.701 300.964 513.751 303.23 515.851 304.888C517.951 306.545 520.438 307.374 523.311 307.374C526.811 307.374 530.2 306.564 533.479 304.943C539.005 302.253 541.768 297.851 541.768 291.736L541.768 283.723C540.553 284.496 538.987 285.141 537.071 285.657C535.155 286.173 533.277 286.541 531.434 286.762L525.411 287.536C521.801 288.015 519.093 288.77 517.288 289.801C514.23 291.533 512.701 294.296 512.701 298.091ZM536.795 277.976C539.079 277.681 540.608 276.723 541.381 275.102C541.824 274.218 542.045 272.947 542.045 271.289C542.045 267.9 540.838 265.441 538.425 263.912C536.012 262.383 532.558 261.618 528.064 261.618C522.869 261.618 519.185 263.018 517.011 265.818C515.796 267.365 515.004 269.668 514.635 272.726L505.351 272.726C505.536 265.431 507.903 260.357 512.452 257.501C517.002 254.646 522.28 253.219 528.285 253.219C535.247 253.219 540.903 254.545 545.25 257.198C549.56 259.85 551.715 263.976 551.715 269.576L551.715 303.672C551.715 304.703 551.927 305.532 552.351 306.159C552.774 306.785 553.668 307.098 555.031 307.098C555.473 307.098 555.97 307.07 556.523 307.015C557.076 306.96 557.665 306.877 558.291 306.766L558.291 314.116C556.744 314.558 555.565 314.835 554.755 314.945C553.944 315.056 552.839 315.111 551.439 315.111C548.013 315.111 545.526 313.895 543.979 311.464C543.168 310.174 542.597 308.351 542.266 305.993C540.239 308.645 537.329 310.948 533.534 312.9C529.74 314.853 525.558 315.829 520.99 315.829C515.501 315.829 511.016 314.162 507.534 310.828C504.053 307.494 502.312 303.322 502.312 298.312C502.312 292.822 504.025 288.567 507.451 285.546C510.877 282.525 515.372 280.665 520.935 279.965L536.795 277.976Z"/>
<path d="M573.93 295.272C574.225 298.588 575.054 301.13 576.417 302.898C578.922 306.103 583.269 307.706 589.458 307.706C593.142 307.706 596.384 306.905 599.184 305.302C601.984 303.699 603.384 301.222 603.384 297.869C603.384 295.327 602.26 293.393 600.013 292.067C598.576 291.257 595.74 290.317 591.503 289.249L583.601 287.259C578.554 286.007 574.833 284.607 572.438 283.06C568.165 280.37 566.028 276.649 566.028 271.897C566.028 266.297 568.045 261.766 572.079 258.303C576.113 254.84 581.538 253.108 588.353 253.108C597.269 253.108 603.697 255.724 607.639 260.955C610.107 264.271 611.305 267.844 611.231 271.676L601.837 271.676C601.653 269.429 600.861 267.384 599.461 265.542C597.176 262.926 593.216 261.618 587.579 261.618C583.822 261.618 580.976 262.337 579.042 263.774C577.108 265.21 576.14 267.108 576.14 269.465C576.14 272.044 577.411 274.107 579.953 275.655C581.427 276.576 583.601 277.386 586.474 278.086L593.05 279.689C600.197 281.42 604.987 283.096 607.418 284.717C611.286 287.259 613.221 291.257 613.221 296.709C613.221 301.977 611.222 306.527 607.225 310.358C603.228 314.19 597.14 316.106 588.961 316.106C580.156 316.106 573.921 314.107 570.255 310.11C566.59 306.113 564.628 301.167 564.37 295.272L573.93 295.272Z"/>
<path d="M660.634 254.656L672.018 301.296L683.568 254.656L694.73 254.656L706.335 301.019L718.437 254.656L728.384 254.656L711.198 313.84L700.864 313.84L688.817 268.029L677.157 313.84L666.824 313.84L649.748 254.656L660.634 254.656Z"/>
<path d="M745.404 298.091C745.404 300.964 746.454 303.23 748.554 304.888C750.654 306.545 753.141 307.374 756.014 307.374C759.514 307.374 762.904 306.564 766.182 304.943C771.709 302.253 774.472 297.851 774.472 291.736L774.472 283.723C773.256 284.496 771.69 285.141 769.774 285.657C767.859 286.173 765.98 286.541 764.138 286.762L758.114 287.536C754.504 288.015 751.796 288.77 749.991 289.801C746.933 291.533 745.404 294.296 745.404 298.091ZM769.498 277.976C771.782 277.681 773.311 276.723 774.085 275.102C774.527 274.218 774.748 272.947 774.748 271.289C774.748 267.9 773.541 265.441 771.128 263.912C768.715 262.383 765.261 261.618 760.767 261.618C755.572 261.618 751.888 263.018 749.715 265.818C748.499 267.365 747.707 269.668 747.339 272.726L738.055 272.726C738.239 265.431 740.606 260.357 745.156 257.501C749.706 254.646 754.983 253.219 760.988 253.219C767.951 253.219 773.606 254.545 777.953 257.198C782.263 259.85 784.419 263.976 784.419 269.576L784.419 303.672C784.419 304.703 784.63 305.532 785.054 306.159C785.478 306.785 786.371 307.098 787.734 307.098C788.176 307.098 788.674 307.07 789.226 307.015C789.779 306.96 790.368 306.877 790.995 306.766L790.995 314.116C789.447 314.558 788.268 314.835 787.458 314.945C786.647 315.056 785.542 315.111 784.142 315.111C780.716 315.111 778.229 313.895 776.682 311.464C775.872 310.174 775.301 308.351 774.969 305.993C772.943 308.645 770.032 310.948 766.238 312.9C762.443 314.853 758.262 315.829 753.694 315.829C748.204 315.829 743.719 314.162 740.238 310.828C736.756 307.494 735.015 303.322 735.015 298.312C735.015 292.822 736.728 288.567 740.155 285.546C743.581 282.525 748.075 280.665 753.638 279.965L769.498 277.976Z"/>
<path d="M800.997 254.656L810.446 254.656L810.446 264.879C811.22 262.889 813.117 260.467 816.138 257.612C819.159 254.757 822.641 253.329 826.583 253.329C826.767 253.329 827.08 253.348 827.522 253.385C827.964 253.421 828.719 253.495 829.788 253.606L829.788 264.105C829.198 263.995 828.655 263.921 828.157 263.884C827.66 263.847 827.117 263.829 826.527 263.829C821.517 263.829 817.667 265.441 814.978 268.664C812.288 271.888 810.944 275.599 810.944 279.799L810.944 313.84L800.997 313.84L800.997 254.656Z"/>
<path d="M890.74 253.606C895.382 253.606 899.435 254.748 902.898 257.032C904.777 258.321 906.692 260.2 908.645 262.668L908.645 255.208L917.818 255.208L917.818 309.032C917.818 316.548 916.713 322.479 914.503 326.826C910.376 334.857 902.585 338.873 891.127 338.873C884.754 338.873 879.393 337.445 875.046 334.59C870.699 331.735 868.268 327.268 867.752 321.19L877.865 321.19C878.344 323.842 879.301 325.887 880.738 327.323C882.985 329.534 886.522 330.639 891.348 330.639C898.974 330.639 903.966 327.95 906.324 322.571C907.724 319.403 908.369 313.748 908.258 305.606C906.269 308.627 903.874 310.874 901.074 312.348C898.274 313.821 894.572 314.558 889.967 314.558C883.556 314.558 877.947 312.283 873.14 307.734C868.332 303.184 865.928 295.659 865.928 285.159C865.928 275.249 868.351 267.513 873.195 261.95C878.04 256.387 883.888 253.606 890.74 253.606ZM908.645 283.999C908.645 276.668 907.134 271.234 904.113 267.697C901.093 264.16 897.243 262.392 892.564 262.392C885.564 262.392 880.775 265.671 878.196 272.228C876.833 275.728 876.152 280.315 876.152 285.988C876.152 292.657 877.505 297.731 880.213 301.213C882.921 304.694 886.559 306.435 891.127 306.435C898.274 306.435 903.303 303.211 906.213 296.764C907.834 293.117 908.645 288.862 908.645 283.999Z"/>
<path d="M933.07 254.656L942.52 254.656L942.52 264.879C943.293 262.889 945.191 260.467 948.212 257.612C951.233 254.757 954.714 253.329 958.656 253.329C958.84 253.329 959.153 253.348 959.595 253.385C960.037 253.421 960.793 253.495 961.861 253.606L961.861 264.105C961.272 263.995 960.728 263.921 960.231 263.884C959.733 263.847 959.19 263.829 958.601 263.829C953.59 263.829 949.74 265.441 947.051 268.664C944.362 271.888 943.017 275.599 943.017 279.799L943.017 313.84L933.07 313.84L933.07 254.656Z"/>
<path d="M993.968 307.43C1000.56 307.43 1005.08 304.934 1007.53 299.942C1009.98 294.95 1011.21 289.396 1011.21 283.281C1011.21 277.755 1010.32 273.26 1008.56 269.797C1005.76 264.345 1000.93 261.618 994.078 261.618C987.999 261.618 983.579 263.939 980.816 268.581C978.052 273.223 976.671 278.823 976.671 285.381C976.671 291.68 978.052 296.93 980.816 301.13C983.579 305.33 987.963 307.43 993.968 307.43ZM994.354 252.942C1001.98 252.942 1008.43 255.484 1013.7 260.568C1018.96 265.652 1021.6 273.131 1021.6 283.004C1021.6 292.546 1019.28 300.43 1014.64 306.656C1009.99 312.882 1002.79 315.995 993.028 315.995C984.886 315.995 978.421 313.241 973.632 307.734C968.842 302.226 966.448 294.83 966.448 285.546C966.448 275.599 968.971 267.679 974.018 261.784C979.066 255.89 985.844 252.942 994.354 252.942Z"/>
<path d="M1037.13 257.253C1037.13 246.716 1039.94 239.404 1045.58 235.314C1049.34 232.735 1054.02 231.446 1059.62 231.446C1067.24 231.446 1073.1 233.297 1077.19 237C1081.28 240.702 1083.32 245.593 1083.32 251.671C1083.32 255.945 1082.48 259.482 1080.78 262.281C1079.09 265.081 1076.88 267.163 1074.15 268.526C1077.5 269.373 1080.32 271.197 1082.61 273.997C1085.7 277.533 1087.25 282.507 1087.25 288.917C1087.25 296.212 1085.18 302.456 1081.03 307.651C1076.89 312.845 1071.02 315.442 1063.43 315.442C1061.66 315.442 1060.35 315.406 1059.48 315.332C1058.61 315.258 1057.54 315.111 1056.25 314.89L1056.25 306.269C1057.13 306.38 1057.94 306.472 1058.68 306.545C1059.41 306.619 1060.24 306.656 1061.16 306.656C1065.14 306.656 1068.76 305.403 1072.02 302.898C1075.28 300.393 1076.91 295.935 1076.91 289.525C1076.91 283.299 1074.81 278.86 1070.61 276.207C1068 274.586 1064.94 273.776 1061.44 273.776C1060.81 273.776 1060.09 273.813 1059.26 273.886C1058.43 273.96 1057.59 274.052 1056.74 274.163L1056.74 265.266C1057.41 265.376 1057.91 265.45 1058.26 265.487C1058.61 265.523 1058.99 265.542 1059.4 265.542C1064.74 265.542 1068.43 264.188 1070.48 261.48C1072.52 258.772 1073.54 255.927 1073.54 252.942C1073.54 249.185 1072.43 246.108 1070.2 243.714C1067.97 241.319 1064.65 240.122 1060.23 240.122C1054.52 240.122 1050.68 242.185 1048.73 246.311C1047.63 248.632 1047.07 252.279 1047.07 257.253L1047.07 313.84L1037.13 313.84L1037.13 257.253Z"/>
<path d="M1110.18 298.091C1110.18 300.964 1111.23 303.23 1113.33 304.888C1115.43 306.545 1117.92 307.374 1120.79 307.374C1124.29 307.374 1127.68 306.564 1130.96 304.943C1136.49 302.253 1139.25 297.851 1139.25 291.736L1139.25 283.723C1138.03 284.496 1136.47 285.141 1134.55 285.657C1132.64 286.173 1130.76 286.541 1128.91 286.762L1122.89 287.536C1119.28 288.015 1116.57 288.77 1114.77 289.801C1111.71 291.533 1110.18 294.296 1110.18 298.091ZM1134.27 277.976C1136.56 277.681 1138.09 276.723 1138.86 275.102C1139.3 274.218 1139.52 272.947 1139.52 271.289C1139.52 267.9 1138.32 265.441 1135.9 263.912C1133.49 262.383 1130.04 261.618 1125.54 261.618C1120.35 261.618 1116.67 263.018 1114.49 265.818C1113.28 267.365 1112.48 269.668 1112.12 272.726L1102.83 272.726C1103.02 265.431 1105.38 260.357 1109.93 257.501C1114.48 254.646 1119.76 253.219 1125.76 253.219C1132.73 253.219 1138.38 254.545 1142.73 257.198C1147.04 259.85 1149.2 263.976 1149.2 269.576L1149.2 303.672C1149.2 304.703 1149.41 305.532 1149.83 306.159C1150.25 306.785 1151.15 307.098 1152.51 307.098C1152.95 307.098 1153.45 307.07 1154 307.015C1154.56 306.96 1155.14 306.877 1155.77 306.766L1155.77 314.116C1154.22 314.558 1153.05 314.835 1152.23 314.945C1151.42 315.056 1150.32 315.111 1148.92 315.111C1145.49 315.111 1143.01 313.895 1141.46 311.464C1140.65 310.174 1140.08 308.351 1139.75 305.993C1137.72 308.645 1134.81 310.948 1131.01 312.9C1127.22 314.853 1123.04 315.829 1118.47 315.829C1112.98 315.829 1108.5 314.162 1105.01 310.828C1101.53 307.494 1099.79 303.322 1099.79 298.312C1099.79 292.822 1101.51 288.567 1104.93 285.546C1108.36 282.525 1112.85 280.665 1118.41 279.965L1134.27 277.976Z"/>
<path d="M1165.77 254.656L1175.22 254.656L1175.22 264.879C1176 262.889 1177.89 260.467 1180.91 257.612C1183.94 254.757 1187.42 253.329 1191.36 253.329C1191.54 253.329 1191.86 253.348 1192.3 253.385C1192.74 253.421 1193.5 253.495 1194.56 253.606L1194.56 264.105C1193.97 263.995 1193.43 263.921 1192.93 263.884C1192.44 263.847 1191.89 263.829 1191.3 263.829C1186.29 263.829 1182.44 265.441 1179.75 268.664C1177.07 271.888 1175.72 275.599 1175.72 279.799L1175.72 313.84L1165.77 313.84L1165.77 254.656Z"/>
<path d="M1205.17 238.133L1215.23 238.133L1215.23 254.656L1224.68 254.656L1224.68 262.779L1215.23 262.779L1215.23 301.406C1215.23 303.469 1215.93 304.851 1217.33 305.551C1218.11 305.956 1219.39 306.159 1221.2 306.159C1221.68 306.159 1222.19 306.149 1222.75 306.131C1223.3 306.113 1223.94 306.066 1224.68 305.993L1224.68 313.84C1223.54 314.171 1222.35 314.411 1221.12 314.558C1219.88 314.706 1218.55 314.779 1217.11 314.779C1212.47 314.779 1209.32 313.591 1207.66 311.215C1206 308.839 1205.17 305.753 1205.17 301.959L1205.17 262.779L1197.16 262.779L1197.16 254.656L1205.17 254.656L1205.17 238.133Z"/>
<path d="M1234.63 254.932L1244.74 254.932L1244.74 313.84L1234.63 313.84L1234.63 254.932ZM1234.63 232.662L1244.74 232.662L1244.74 243.935L1234.63 243.935L1234.63 232.662Z"/>
<path d="M1280.66 253.606C1285.3 253.606 1289.36 254.748 1292.82 257.032C1294.7 258.321 1296.61 260.2 1298.57 262.668L1298.57 255.208L1307.74 255.208L1307.74 309.032C1307.74 316.548 1306.63 322.479 1304.42 326.826C1300.3 334.857 1292.5 338.873 1281.05 338.873C1274.67 338.873 1269.31 337.445 1264.97 334.59C1260.62 331.735 1258.19 327.268 1257.67 321.19L1267.78 321.19C1268.26 323.842 1269.22 325.887 1270.66 327.323C1272.91 329.534 1276.44 330.639 1281.27 330.639C1288.89 330.639 1293.89 327.95 1296.24 322.571C1297.64 319.403 1298.29 313.748 1298.18 305.606C1296.19 308.627 1293.79 310.874 1290.99 312.348C1288.19 313.821 1284.49 314.558 1279.89 314.558C1273.48 314.558 1267.87 312.283 1263.06 307.734C1258.25 303.184 1255.85 295.659 1255.85 285.159C1255.85 275.249 1258.27 267.513 1263.12 261.95C1267.96 256.387 1273.81 253.606 1280.66 253.606ZM1298.57 283.999C1298.57 276.668 1297.05 271.234 1294.03 267.697C1291.01 264.16 1287.16 262.392 1282.48 262.392C1275.48 262.392 1270.7 265.671 1268.12 272.228C1266.75 275.728 1266.07 280.315 1266.07 285.988C1266.07 292.657 1267.43 297.731 1270.13 301.213C1272.84 304.694 1276.48 306.435 1281.05 306.435C1288.19 306.435 1293.22 303.211 1296.13 296.764C1297.75 293.117 1298.57 288.862 1298.57 283.999Z"/>
<path d="M1328.52 232.662L1339.73 232.662L1339.73 259.353L1337.03 294.499L1331.39 294.499L1328.52 259.353L1328.52 232.662ZM1328.52 302.346L1339.51 302.346L1339.51 313.84L1328.52 313.84L1328.52 302.346Z"/>
</g>
</g>
</svg>
