<?xml version="1.0" encoding="UTF-8" standalone="no"?>
<!DOCTYPE svg PUBLIC "-//W3C//DTD SVG 1.1//EN" "http://www.w3.org/Graphics/SVG/1.1/DTD/svg11.dtd">
<!-- Created with Vectornator (http://vectornator.io/) -->
<svg height="100%" stroke-miterlimit="10" style="fill-rule:nonzero;clip-rule:evenodd;stroke-linecap:round;stroke-linejoin:round;" version="1.1" viewBox="0 0 1927.8 1134" width="100%" xml:space="preserve" xmlns="http://www.w3.org/2000/svg" xmlns:vectornator="http://vectornator.io" xmlns:xlink="http://www.w3.org/1999/xlink">
<defs>
<filter color-interpolation-filters="sRGB" filterUnits="userSpaceOnUse" height="361.642" id="Filter" width="1433.04" x="194.555" y="231.984">
<feDropShadow dx="-5.17605" dy="9.1513" flood-color="#000000" flood-opacity="0.333" in="SourceGraphic" result="Shadow" stdDeviation="3.15411"/>
</filter>
</defs>
<g id="Ebene-1" vectornator:layerName="Ebene 1">
<path d="M85.1518 406.788C85.1518 203.529 463.323 38.7552 929.821 38.7552C1396.32 38.7552 1774.49 203.529 1774.49 406.788C1774.49 610.047 1396.32 774.821 929.821 774.821C771.126 774.821 622.653 755.753 495.812 722.588C443.493 708.908 73.002 1103.46 28.8446 1085.33C-12.77 1068.25 271.448 638.714 238.464 618.282C141.867 558.446 85.1518 485.503 85.1518 406.788Z" fill="#f1f1f1" fill-rule="nonzero" opacity="1" stroke="#000000" stroke-linecap="butt" stroke-linejoin="round" stroke-width="19.2838"/>
<g fill="#000000" filter="url(#Filter)" stroke="none" vectornator:shadowAngle="2.08554" vectornator:shadowColor="#000000" vectornator:shadowOffset="10.5137" vectornator:shadowOpacity="0.333" vectornator:shadowRadius="6.30822">
<path d="M257.296 280.668L244.973 244.804L231.876 280.668L257.296 280.668ZM239.226 232.757L251.66 232.757L281.114 313.935L269.067 313.935L260.833 289.621L228.726 289.621L219.94 313.935L208.667 313.935L239.226 232.757Z"/>
<path d="M289.016 232.481L298.686 232.481L298.686 261.935C300.86 259.098 303.457 256.934 306.478 255.442C309.499 253.95 312.778 253.204 316.315 253.204C323.683 253.204 329.66 255.737 334.247 260.802C338.833 265.868 341.127 273.337 341.127 283.21C341.127 292.568 338.861 300.341 334.33 306.531C329.798 312.72 323.517 315.814 315.486 315.814C310.991 315.814 307.197 314.728 304.102 312.554C302.26 311.265 300.289 309.201 298.189 306.365L298.189 313.935L289.016 313.935L289.016 232.481ZM314.878 307.028C320.257 307.028 324.281 304.891 326.952 300.618C329.623 296.344 330.959 290.708 330.959 283.708C330.959 277.482 329.623 272.324 326.952 268.235C324.281 264.145 320.349 262.101 315.154 262.101C310.623 262.101 306.653 263.777 303.246 267.13C299.838 270.482 298.134 276.008 298.134 283.708C298.134 289.271 298.834 293.784 300.234 297.247C302.849 303.767 307.731 307.028 314.878 307.028Z"/>
<path d="M377.378 253.425C381.578 253.425 385.649 254.41 389.591 256.381C393.532 258.352 396.535 260.904 398.598 264.035C400.587 267.019 401.914 270.5 402.577 274.479C403.166 277.205 403.461 281.553 403.461 287.521L360.081 287.521C360.265 293.526 361.684 298.343 364.336 301.972C366.989 305.6 371.097 307.415 376.66 307.415C381.854 307.415 385.999 305.702 389.093 302.275C390.862 300.286 392.114 297.984 392.851 295.368L402.632 295.368C402.374 297.541 401.518 299.964 400.062 302.635C398.607 305.306 396.977 307.488 395.172 309.183C392.151 312.13 388.412 314.12 383.954 315.151C381.559 315.741 378.852 316.035 375.831 316.035C368.462 316.035 362.218 313.355 357.097 307.995C351.976 302.635 349.416 295.128 349.416 285.476C349.416 275.971 351.995 268.253 357.152 262.322C362.31 256.391 369.052 253.425 377.378 253.425ZM393.238 279.619C392.833 275.308 391.893 271.864 390.419 269.285C387.693 264.495 383.143 262.101 376.77 262.101C372.202 262.101 368.37 263.749 365.276 267.047C362.181 270.344 360.542 274.535 360.358 279.619L393.238 279.619Z"/>
<path d="M415.95 254.751L425.4 254.751L425.4 264.974C426.173 262.985 428.07 260.563 431.091 257.708C434.112 254.852 437.594 253.425 441.536 253.425C441.72 253.425 442.033 253.443 442.475 253.48C442.917 253.517 443.672 253.591 444.741 253.701L444.741 264.201C444.151 264.09 443.608 264.017 443.111 263.98C442.613 263.943 442.07 263.924 441.48 263.924C436.47 263.924 432.62 265.536 429.931 268.76C427.242 271.983 425.897 275.695 425.897 279.895L425.897 313.935L415.95 313.935L415.95 254.751Z"/>
<path d="M484.805 232.481L494.752 232.481L494.752 262.764C497.11 259.78 499.228 257.68 501.107 256.464C504.312 254.364 508.309 253.314 513.098 253.314C521.682 253.314 527.503 256.317 530.561 262.322C532.219 265.601 533.048 270.15 533.048 275.971L533.048 313.935L522.824 313.935L522.824 276.634C522.824 272.287 522.272 269.101 521.167 267.074C519.361 263.832 515.972 262.211 510.999 262.211C506.872 262.211 503.133 263.63 499.781 266.466C496.428 269.303 494.752 274.663 494.752 282.547L494.752 313.935L484.805 313.935L484.805 232.481Z"/>
<path d="M547.747 255.027L557.86 255.027L557.86 313.935L547.747 313.935L547.747 255.027ZM547.747 232.757L557.86 232.757L557.86 244.031L547.747 244.031L547.747 232.757Z"/>
<path d="M597.537 253.425C601.737 253.425 605.808 254.41 609.75 256.381C613.692 258.352 616.694 260.904 618.757 264.035C620.747 267.019 622.073 270.5 622.736 274.479C623.325 277.205 623.62 281.553 623.62 287.521L580.24 287.521C580.425 293.526 581.843 298.343 584.495 301.972C587.148 305.6 591.256 307.415 596.819 307.415C602.013 307.415 606.158 305.702 609.252 302.275C611.021 300.286 612.273 297.984 613.01 295.368L622.791 295.368C622.533 297.541 621.677 299.964 620.222 302.635C618.766 305.306 617.136 307.488 615.331 309.183C612.31 312.13 608.571 314.12 604.113 315.151C601.718 315.741 599.011 316.035 595.99 316.035C588.622 316.035 582.377 313.355 577.256 307.995C572.135 302.635 569.575 295.128 569.575 285.476C569.575 275.971 572.154 268.253 577.312 262.322C582.469 256.391 589.211 253.425 597.537 253.425ZM613.397 279.619C612.992 275.308 612.052 271.864 610.579 269.285C607.852 264.495 603.303 262.101 596.929 262.101C592.361 262.101 588.53 263.749 585.435 267.047C582.34 270.344 580.701 274.535 580.517 279.619L613.397 279.619Z"/>
<path d="M636.109 254.751L645.559 254.751L645.559 264.974C646.332 262.985 648.23 260.563 651.251 257.708C654.271 254.852 657.753 253.425 661.695 253.425C661.879 253.425 662.192 253.443 662.634 253.48C663.076 253.517 663.832 253.591 664.9 253.701L664.9 264.201C664.311 264.09 663.767 264.017 663.27 263.98C662.772 263.943 662.229 263.924 661.64 263.924C656.629 263.924 652.779 265.536 650.09 268.76C647.401 271.983 646.056 275.695 646.056 279.895L646.056 313.935L636.109 313.935L636.109 254.751Z"/>
<path d="M725.853 253.701C730.495 253.701 734.547 254.843 738.01 257.127C739.889 258.417 741.805 260.296 743.757 262.764L743.757 255.304L752.93 255.304L752.93 309.128C752.93 316.643 751.825 322.575 749.615 326.922C745.489 334.953 737.697 338.969 726.239 338.969C719.866 338.969 714.506 337.541 710.159 334.686C705.811 331.831 703.38 327.364 702.864 321.285L712.977 321.285C713.456 323.938 714.414 325.982 715.85 327.419C718.098 329.63 721.634 330.735 726.461 330.735C734.087 330.735 739.078 328.045 741.436 322.667C742.836 319.498 743.481 313.843 743.37 305.702C741.381 308.723 738.986 310.97 736.186 312.443C733.387 313.917 729.684 314.654 725.079 314.654C718.669 314.654 713.06 312.379 708.252 307.829C703.444 303.279 701.041 295.755 701.041 285.255C701.041 275.345 703.463 267.608 708.307 262.046C713.152 256.483 719 253.701 725.853 253.701ZM743.757 284.095C743.757 276.763 742.247 271.329 739.226 267.793C736.205 264.256 732.355 262.488 727.676 262.488C720.677 262.488 715.887 265.766 713.308 272.324C711.945 275.824 711.264 280.411 711.264 286.084C711.264 292.752 712.618 297.827 715.325 301.308C718.033 304.79 721.671 306.531 726.239 306.531C733.387 306.531 738.415 303.307 741.326 296.86C742.947 293.213 743.757 288.958 743.757 284.095Z"/>
<path d="M792.552 253.425C796.752 253.425 800.823 254.41 804.765 256.381C808.707 258.352 811.71 260.904 813.773 264.035C815.762 267.019 817.088 270.5 817.751 274.479C818.341 277.205 818.636 281.553 818.636 287.521L775.256 287.521C775.44 293.526 776.858 298.343 779.511 301.972C782.163 305.6 786.271 307.415 791.834 307.415C797.029 307.415 801.173 305.702 804.268 302.275C806.036 300.286 807.289 297.984 808.025 295.368L817.807 295.368C817.549 297.541 816.692 299.964 815.237 302.635C813.782 305.306 812.152 307.488 810.346 309.183C807.326 312.13 803.586 314.12 799.128 315.151C796.734 315.741 794.026 316.035 791.005 316.035C783.637 316.035 777.393 313.355 772.272 307.995C767.151 302.635 764.59 295.128 764.59 285.476C764.59 275.971 767.169 268.253 772.327 262.322C777.485 256.391 784.226 253.425 792.552 253.425ZM808.412 279.619C808.007 275.308 807.068 271.864 805.594 269.285C802.868 264.495 798.318 262.101 791.945 262.101C787.376 262.101 783.545 263.749 780.45 267.047C777.356 270.344 775.716 274.535 775.532 279.619L808.412 279.619Z"/>
<path d="M830.848 232.481L840.795 232.481L840.795 262.764C843.153 259.78 845.271 257.68 847.15 256.464C850.355 254.364 854.352 253.314 859.142 253.314C867.726 253.314 873.546 256.317 876.604 262.322C878.262 265.601 879.091 270.15 879.091 275.971L879.091 313.935L868.868 313.935L868.868 276.634C868.868 272.287 868.315 269.101 867.21 267.074C865.405 263.832 862.015 262.211 857.042 262.211C852.916 262.211 849.176 263.63 845.824 266.466C842.471 269.303 840.795 274.663 840.795 282.547L840.795 313.935L830.848 313.935L830.848 232.481Z"/>
<path d="M895.78 238.228L905.837 238.228L905.837 254.751L915.287 254.751L915.287 262.874L905.837 262.874L905.837 301.502C905.837 303.565 906.537 304.946 907.937 305.646C908.711 306.052 910 306.254 911.805 306.254C912.284 306.254 912.8 306.245 913.353 306.227C913.905 306.208 914.55 306.162 915.287 306.088L915.287 313.935C914.145 314.267 912.957 314.507 911.722 314.654C910.488 314.801 909.153 314.875 907.716 314.875C903.074 314.875 899.924 313.687 898.266 311.311C896.609 308.934 895.78 305.849 895.78 302.054L895.78 262.874L887.767 262.874L887.767 254.751L895.78 254.751L895.78 238.228Z"/>
<path d="M937.06 237.178C935.033 237.51 933.495 238.652 932.445 240.604C931.395 242.557 930.87 244.823 930.87 247.401C930.87 247.622 930.88 247.834 930.898 248.037C930.916 248.24 930.962 248.47 931.036 248.728L937.06 248.728L937.06 260.775L925.234 260.775L925.234 249.667C925.234 245.283 926.155 241.369 927.997 237.924C929.839 234.48 932.86 232.499 937.06 231.984L937.06 237.178Z"/>
<path d="M956.29 295.368C956.585 298.683 957.414 301.225 958.777 302.994C961.282 306.199 965.629 307.802 971.819 307.802C975.503 307.802 978.745 307 981.544 305.398C984.344 303.795 985.744 301.318 985.744 297.965C985.744 295.423 984.621 293.489 982.373 292.163C980.937 291.352 978.1 290.413 973.863 289.344L965.961 287.355C960.914 286.102 957.193 284.702 954.798 283.155C950.525 280.466 948.388 276.745 948.388 271.993C948.388 266.393 950.405 261.861 954.439 258.398C958.473 254.935 963.898 253.204 970.713 253.204C979.629 253.204 986.057 255.82 989.999 261.051C992.468 264.367 993.665 267.94 993.591 271.771L984.197 271.771C984.013 269.524 983.221 267.48 981.821 265.638C979.537 263.022 975.576 261.714 969.94 261.714C966.182 261.714 963.336 262.432 961.402 263.869C959.468 265.306 958.501 267.203 958.501 269.561C958.501 272.14 959.772 274.203 962.314 275.75C963.787 276.671 965.961 277.482 968.834 278.182L975.411 279.784C982.558 281.516 987.347 283.192 989.778 284.813C993.647 287.355 995.581 291.352 995.581 296.805C995.581 302.073 993.582 306.623 989.585 310.454C985.588 314.285 979.5 316.201 971.321 316.201C962.516 316.201 956.281 314.203 952.615 310.205C948.95 306.208 946.988 301.262 946.73 295.368L956.29 295.368Z"/>
<path d="M1038.41 254.751L1047.86 254.751L1047.86 263.151C1050.66 259.688 1053.62 257.201 1056.75 255.691C1059.89 254.18 1063.37 253.425 1067.2 253.425C1075.6 253.425 1081.27 256.354 1084.22 262.211C1085.84 265.416 1086.65 270.003 1086.65 275.971L1086.65 313.935L1076.54 313.935L1076.54 276.634C1076.54 273.024 1076 270.114 1074.94 267.903C1073.17 264.219 1069.96 262.377 1065.32 262.377C1062.96 262.377 1061.03 262.617 1059.52 263.096C1056.79 263.906 1054.4 265.527 1052.33 267.958C1050.68 269.911 1049.6 271.928 1049.1 274.01C1048.6 276.091 1048.35 279.066 1048.35 282.934L1048.35 313.935L1038.41 313.935L1038.41 254.751Z"/>
<path d="M1124.84 307.525C1131.43 307.525 1135.95 305.029 1138.4 300.037C1140.85 295.045 1142.08 289.492 1142.08 283.376C1142.08 277.85 1141.19 273.356 1139.42 269.893C1136.62 264.44 1131.8 261.714 1124.95 261.714C1118.87 261.714 1114.45 264.035 1111.68 268.677C1108.92 273.319 1107.54 278.919 1107.54 285.476C1107.54 291.776 1108.92 297.026 1111.68 301.225C1114.45 305.425 1118.83 307.525 1124.84 307.525ZM1125.22 253.038C1132.85 253.038 1139.3 255.58 1144.56 260.664C1149.83 265.748 1152.47 273.227 1152.47 283.1C1152.47 292.642 1150.15 300.526 1145.5 306.752C1140.86 312.978 1133.66 316.091 1123.9 316.091C1115.75 316.091 1109.29 313.337 1104.5 307.829C1099.71 302.321 1097.32 294.926 1097.32 285.642C1097.32 275.695 1099.84 267.774 1104.89 261.88C1109.93 255.985 1116.71 253.038 1125.22 253.038Z"/>
<path d="M1187.11 253.038C1193.78 253.038 1199.21 254.659 1203.39 257.901C1207.57 261.143 1210.08 266.724 1210.93 274.645L1201.26 274.645C1200.67 270.998 1199.33 267.968 1197.23 265.555C1195.13 263.142 1191.76 261.935 1187.11 261.935C1180.78 261.935 1176.25 265.03 1173.52 271.219C1171.75 275.234 1170.87 280.19 1170.87 286.084C1170.87 292.015 1172.12 297.007 1174.63 301.06C1177.13 305.112 1181.07 307.138 1186.45 307.138C1190.58 307.138 1193.85 305.877 1196.26 303.353C1198.67 300.829 1200.34 297.376 1201.26 292.992L1210.93 292.992C1209.83 300.839 1207.06 306.577 1202.64 310.205C1198.22 313.834 1192.57 315.649 1185.68 315.649C1177.94 315.649 1171.77 312.821 1167.17 307.166C1162.56 301.511 1160.26 294.447 1160.26 285.973C1160.26 275.584 1162.78 267.498 1167.83 261.714C1172.88 255.93 1179.3 253.038 1187.11 253.038Z"/>
<path d="M1220.88 232.481L1230.83 232.481L1230.83 262.764C1233.18 259.78 1235.3 257.68 1237.18 256.464C1240.39 254.364 1244.38 253.314 1249.17 253.314C1257.76 253.314 1263.58 256.317 1266.64 262.322C1268.29 265.601 1269.12 270.15 1269.12 275.971L1269.12 313.935L1258.9 313.935L1258.9 276.634C1258.9 272.287 1258.35 269.101 1257.24 267.074C1255.44 263.832 1252.05 262.211 1247.07 262.211C1242.95 262.211 1239.21 263.63 1235.85 266.466C1232.5 269.303 1230.83 274.663 1230.83 282.547L1230.83 313.935L1220.88 313.935L1220.88 232.481Z"/>
<path d="M1319.85 254.751L1331.23 301.391L1342.78 254.751L1353.95 254.751L1365.55 301.115L1377.65 254.751L1387.6 254.751L1370.41 313.935L1360.08 313.935L1348.03 268.124L1336.37 313.935L1326.04 313.935L1308.96 254.751L1319.85 254.751Z"/>
<path d="M1421.64 253.425C1425.84 253.425 1429.91 254.41 1433.85 256.381C1437.8 258.352 1440.8 260.904 1442.86 264.035C1444.85 267.019 1446.18 270.5 1446.84 274.479C1447.43 277.205 1447.72 281.553 1447.72 287.521L1404.35 287.521C1404.53 293.526 1405.95 298.343 1408.6 301.972C1411.25 305.6 1415.36 307.415 1420.92 307.415C1426.12 307.415 1430.26 305.702 1433.36 302.275C1435.13 300.286 1436.38 297.984 1437.11 295.368L1446.9 295.368C1446.64 297.541 1445.78 299.964 1444.33 302.635C1442.87 305.306 1441.24 307.488 1439.44 309.183C1436.41 312.13 1432.68 314.12 1428.22 315.151C1425.82 315.741 1423.12 316.035 1420.09 316.035C1412.73 316.035 1406.48 313.355 1401.36 307.995C1396.24 302.635 1393.68 295.128 1393.68 285.476C1393.68 275.971 1396.26 268.253 1401.42 262.322C1406.57 256.391 1413.32 253.425 1421.64 253.425ZM1437.5 279.619C1437.1 275.308 1436.16 271.864 1434.68 269.285C1431.96 264.495 1427.41 262.101 1421.03 262.101C1416.47 262.101 1412.63 263.749 1409.54 267.047C1406.44 270.344 1404.81 274.535 1404.62 279.619L1437.5 279.619Z"/>
<path d="M1459.94 255.027L1470.05 255.027L1470.05 313.935L1459.94 313.935L1459.94 255.027ZM1459.94 232.757L1470.05 232.757L1470.05 244.031L1459.94 244.031L1459.94 232.757Z"/>
<path d="M1487.07 238.228L1497.13 238.228L1497.13 254.751L1506.58 254.751L1506.58 262.874L1497.13 262.874L1497.13 301.502C1497.13 303.565 1497.83 304.946 1499.23 305.646C1500 306.052 1501.29 306.254 1503.1 306.254C1503.58 306.254 1504.09 306.245 1504.64 306.227C1505.2 306.208 1505.84 306.162 1506.58 306.088L1506.58 313.935C1505.44 314.267 1504.25 314.507 1503.01 314.654C1501.78 314.801 1500.44 314.875 1499.01 314.875C1494.36 314.875 1491.22 313.687 1489.56 311.311C1487.9 308.934 1487.07 305.849 1487.07 302.054L1487.07 262.874L1479.06 262.874L1479.06 254.751L1487.07 254.751L1487.07 238.228Z"/>
<path d="M1541.17 253.425C1545.37 253.425 1549.44 254.41 1553.38 256.381C1557.33 258.352 1560.33 260.904 1562.39 264.035C1564.38 267.019 1565.71 270.5 1566.37 274.479C1566.96 277.205 1567.25 281.553 1567.25 287.521L1523.87 287.521C1524.06 293.526 1525.48 298.343 1528.13 301.972C1530.78 305.6 1534.89 307.415 1540.45 307.415C1545.65 307.415 1549.79 305.702 1552.89 302.275C1554.65 300.286 1555.91 297.984 1556.64 295.368L1566.43 295.368C1566.17 297.541 1565.31 299.964 1563.86 302.635C1562.4 305.306 1560.77 307.488 1558.96 309.183C1555.94 312.13 1552.2 314.12 1547.75 315.151C1545.35 315.741 1542.64 316.035 1539.62 316.035C1532.26 316.035 1526.01 313.355 1520.89 307.995C1515.77 302.635 1513.21 295.128 1513.21 285.476C1513.21 275.971 1515.79 268.253 1520.95 262.322C1526.1 256.391 1532.84 253.425 1541.17 253.425ZM1557.03 279.619C1556.63 275.308 1555.69 271.864 1554.21 269.285C1551.49 264.495 1546.94 262.101 1540.56 262.101C1535.99 262.101 1532.16 263.749 1529.07 267.047C1525.97 270.344 1524.33 274.535 1524.15 279.619L1557.03 279.619Z"/>
<path d="M1579.74 254.751L1589.19 254.751L1589.19 264.974C1589.97 262.985 1591.86 260.563 1594.88 257.708C1597.91 254.852 1601.39 253.425 1605.33 253.425C1605.51 253.425 1605.83 253.443 1606.27 253.48C1606.71 253.517 1607.47 253.591 1608.53 253.701L1608.53 264.201C1607.94 264.09 1607.4 264.017 1606.9 263.98C1606.41 263.943 1605.86 263.924 1605.27 263.924C1600.26 263.924 1596.41 265.536 1593.72 268.76C1591.03 271.983 1589.69 275.695 1589.69 279.895L1589.69 313.935L1579.74 313.935L1579.74 254.751Z"/>
<path d="M1613.34 301.889L1624.89 301.889L1624.89 313.935L1613.34 313.935L1613.34 301.889Z"/>
<path d="M215.353 362.951L231.103 362.951L254.423 431.585L277.577 362.951L293.16 362.951L293.16 444.129L282.716 444.129L282.716 396.218C282.716 394.56 282.753 391.816 282.827 387.984C282.9 384.153 282.937 380.045 282.937 375.661L259.783 444.129L248.896 444.129L225.576 375.661L225.576 378.148C225.576 380.137 225.622 383.167 225.715 387.238C225.807 391.309 225.853 394.303 225.853 396.218L225.853 444.129L215.353 444.129L215.353 362.951Z"/>
<path d="M332.064 437.719C338.658 437.719 343.181 435.223 345.631 430.231C348.08 425.239 349.305 419.686 349.305 413.57C349.305 408.044 348.421 403.55 346.653 400.087C343.853 394.634 339.027 391.908 332.175 391.908C326.096 391.908 321.675 394.229 318.912 398.871C316.149 403.513 314.767 409.112 314.767 415.67C314.767 421.97 316.149 427.22 318.912 431.419C321.675 435.619 326.059 437.719 332.064 437.719ZM332.451 383.232C340.077 383.232 346.524 385.774 351.792 390.858C357.06 395.942 359.694 403.421 359.694 413.294C359.694 422.836 357.373 430.719 352.732 436.945C348.09 443.172 340.887 446.285 331.125 446.285C322.983 446.285 316.517 443.531 311.728 438.023C306.939 432.515 304.544 425.12 304.544 415.836C304.544 405.889 307.068 397.968 312.115 392.074C317.162 386.179 323.941 383.232 332.451 383.232ZM336.761 364.278L347.095 364.278L347.095 375.772L336.761 375.772L336.761 364.278ZM318.525 364.278L328.859 364.278L328.859 375.772L318.525 375.772L318.525 364.278Z"/>
<path d="M394.343 383.232C401.011 383.232 406.436 384.853 410.617 388.095C414.799 391.337 417.313 396.918 418.16 404.839L408.49 404.839C407.9 401.192 406.556 398.162 404.456 395.749C402.356 393.335 398.985 392.129 394.343 392.129C388.006 392.129 383.475 395.224 380.749 401.413C378.98 405.428 378.096 410.383 378.096 416.278C378.096 422.209 379.349 427.201 381.854 431.254C384.359 435.306 388.301 437.332 393.68 437.332C397.806 437.332 401.076 436.071 403.489 433.547C405.902 431.023 407.569 427.57 408.49 423.186L418.16 423.186C417.055 431.033 414.292 436.77 409.871 440.399C405.45 444.028 399.795 445.842 392.906 445.842C385.17 445.842 378.999 443.015 374.394 437.36C369.789 431.705 367.486 424.641 367.486 416.167C367.486 405.778 370.01 397.692 375.057 391.908C380.104 386.124 386.533 383.232 394.343 383.232Z"/>
<path d="M428.107 362.675L438.054 362.675L438.054 392.958C440.412 389.974 442.53 387.874 444.409 386.658C447.614 384.558 451.612 383.508 456.401 383.508C464.985 383.508 470.806 386.511 473.863 392.516C475.521 395.795 476.35 400.344 476.35 406.165L476.35 444.129L466.127 444.129L466.127 406.828C466.127 402.481 465.574 399.294 464.469 397.268C462.664 394.026 459.274 392.405 454.301 392.405C450.175 392.405 446.436 393.824 443.083 396.66C439.731 399.497 438.054 404.857 438.054 412.741L438.054 444.129L428.107 444.129L428.107 362.675Z"/>
<path d="M493.039 368.422L503.096 368.422L503.096 384.945L512.546 384.945L512.546 393.068L503.096 393.068L503.096 431.696C503.096 433.759 503.796 435.14 505.196 435.84C505.97 436.246 507.259 436.448 509.064 436.448C509.543 436.448 510.059 436.439 510.612 436.421C511.164 436.402 511.809 436.356 512.546 436.282L512.546 444.129C511.404 444.461 510.216 444.7 508.982 444.848C507.747 444.995 506.412 445.069 504.975 445.069C500.333 445.069 497.183 443.881 495.526 441.505C493.868 439.128 493.039 436.043 493.039 432.248L493.039 393.068L485.026 393.068L485.026 384.945L493.039 384.945L493.039 368.422Z"/>
<path d="M547.139 383.619C551.339 383.619 555.41 384.604 559.352 386.575C563.294 388.546 566.296 391.097 568.359 394.229C570.349 397.213 571.675 400.694 572.338 404.673C572.928 407.399 573.222 411.747 573.222 417.715L529.843 417.715C530.027 423.72 531.445 428.537 534.098 432.165C536.75 435.794 540.858 437.609 546.421 437.609C551.615 437.609 555.76 435.896 558.854 432.469C560.623 430.48 561.875 428.177 562.612 425.562L572.393 425.562C572.135 427.735 571.279 430.158 569.824 432.829C568.369 435.499 566.738 437.682 564.933 439.377C561.912 442.324 558.173 444.314 553.715 445.345C551.321 445.935 548.613 446.229 545.592 446.229C538.224 446.229 531.979 443.549 526.858 438.189C521.738 432.829 519.177 425.322 519.177 415.67C519.177 406.165 521.756 398.447 526.914 392.516C532.071 386.584 538.813 383.619 547.139 383.619ZM562.999 409.812C562.594 405.502 561.654 402.057 560.181 399.479C557.454 394.689 552.905 392.295 546.531 392.295C541.963 392.295 538.132 393.943 535.037 397.241C531.942 400.538 530.303 404.728 530.119 409.812L562.999 409.812Z"/>
<path d="M591.348 425.562C591.643 428.877 592.471 431.419 593.835 433.188C596.34 436.393 600.687 437.995 606.876 437.995C610.56 437.995 613.802 437.194 616.602 435.592C619.402 433.989 620.802 431.512 620.802 428.159C620.802 425.617 619.678 423.683 617.431 422.357C615.994 421.546 613.157 420.607 608.921 419.538L601.018 417.549C595.971 416.296 592.25 414.896 589.856 413.349C585.582 410.66 583.446 406.939 583.446 402.186C583.446 396.587 585.463 392.055 589.497 388.592C593.531 385.129 598.955 383.398 605.771 383.398C614.686 383.398 621.115 386.013 625.057 391.245C627.525 394.56 628.723 398.134 628.649 401.965L619.255 401.965C619.07 399.718 618.278 397.673 616.878 395.831C614.594 393.216 610.634 391.908 604.997 391.908C601.239 391.908 598.394 392.626 596.459 394.063C594.525 395.5 593.558 397.397 593.558 399.755C593.558 402.334 594.829 404.397 597.371 405.944C598.845 406.865 601.018 407.676 603.892 408.376L610.468 409.978C617.615 411.71 622.404 413.386 624.836 415.007C628.704 417.549 630.638 421.546 630.638 426.999C630.638 432.267 628.64 436.817 624.642 440.648C620.645 444.479 614.557 446.395 606.379 446.395C597.574 446.395 591.339 444.396 587.673 440.399C584.007 436.402 582.046 431.456 581.788 425.562L591.348 425.562Z"/>
<path d="M644.011 368.422L654.069 368.422L654.069 384.945L663.518 384.945L663.518 393.068L654.069 393.068L654.069 431.696C654.069 433.759 654.769 435.14 656.169 435.84C656.942 436.246 658.232 436.448 660.037 436.448C660.516 436.448 661.032 436.439 661.584 436.421C662.137 436.402 662.782 436.356 663.518 436.282L663.518 444.129C662.376 444.461 661.188 444.7 659.954 444.848C658.72 444.995 657.384 445.069 655.948 445.069C651.306 445.069 648.156 443.881 646.498 441.505C644.84 439.128 644.011 436.043 644.011 432.248L644.011 393.068L635.999 393.068L635.999 384.945L644.011 384.945L644.011 368.422Z"/>
<path d="M711.209 415.228C711.209 421.565 712.553 426.87 715.243 431.143C717.932 435.417 722.242 437.553 728.174 437.553C732.779 437.553 736.564 435.573 739.53 431.613C742.495 427.652 743.978 421.97 743.978 414.565C743.978 407.086 742.449 401.551 739.392 397.959C736.334 394.367 732.558 392.571 728.063 392.571C723.053 392.571 718.991 394.487 715.878 398.318C712.765 402.15 711.209 407.786 711.209 415.228ZM726.184 383.895C730.716 383.895 734.51 384.853 737.568 386.769C739.336 387.874 741.344 389.808 743.591 392.571L743.591 362.675L753.151 362.675L753.151 444.129L744.199 444.129L744.199 435.896C741.878 439.543 739.134 442.177 735.965 443.798C732.797 445.419 729.168 446.229 725.079 446.229C718.485 446.229 712.774 443.457 707.948 437.913C703.122 432.368 700.709 424.991 700.709 415.781C700.709 407.16 702.91 399.69 707.313 393.372C711.715 387.054 718.006 383.895 726.184 383.895Z"/>
<path d="M777.798 384.945L777.798 424.235C777.798 427.256 778.277 429.725 779.235 431.64C781.003 435.177 784.3 436.945 789.126 436.945C796.052 436.945 800.768 433.851 803.273 427.662C804.636 424.346 805.318 419.796 805.318 414.012L805.318 384.945L815.265 384.945L815.265 444.129L805.87 444.129L805.981 435.398C804.691 437.645 803.089 439.543 801.173 441.09C797.379 444.185 792.774 445.732 787.358 445.732C778.921 445.732 773.174 442.914 770.117 437.277C768.459 434.256 767.63 430.222 767.63 425.175L767.63 384.945L777.798 384.945Z"/>
<path d="M894.73 434.735C898.451 434.735 901.508 434.348 903.903 433.575C908.177 432.138 911.676 429.375 914.403 425.285C916.576 422.007 918.142 417.807 919.1 412.686C919.652 409.628 919.929 406.791 919.929 404.176C919.929 394.118 917.93 386.308 913.933 380.745C909.936 375.182 903.498 372.401 894.619 372.401L875.112 372.401L875.112 434.735L894.73 434.735ZM864.06 362.951L896.94 362.951C908.103 362.951 916.76 366.912 922.913 374.832C928.402 381.979 931.147 391.134 931.147 402.297C931.147 410.918 929.526 418.709 926.284 425.672C920.573 437.977 910.755 444.129 896.83 444.129L864.06 444.129L864.06 362.951Z"/>
<path d="M968.613 383.619C972.813 383.619 976.884 384.604 980.826 386.575C984.768 388.546 987.771 391.097 989.834 394.229C991.823 397.213 993.149 400.694 993.812 404.673C994.402 407.399 994.697 411.747 994.697 417.715L951.317 417.715C951.501 423.72 952.919 428.537 955.572 432.165C958.224 435.794 962.332 437.609 967.895 437.609C973.09 437.609 977.234 435.896 980.329 432.469C982.097 430.48 983.35 428.177 984.086 425.562L993.868 425.562C993.61 427.735 992.753 430.158 991.298 432.829C989.843 435.499 988.213 437.682 986.407 439.377C983.386 442.324 979.647 444.314 975.189 445.345C972.795 445.935 970.087 446.229 967.066 446.229C959.698 446.229 953.454 443.549 948.333 438.189C943.212 432.829 940.651 425.322 940.651 415.67C940.651 406.165 943.23 398.447 948.388 392.516C953.546 386.584 960.287 383.619 968.613 383.619ZM984.473 409.812C984.068 405.502 983.129 402.057 981.655 399.479C978.929 394.689 974.379 392.295 968.006 392.295C963.437 392.295 959.606 393.943 956.511 397.241C953.417 400.538 951.777 404.728 951.593 409.812L984.473 409.812Z"/>
<path d="M1006.91 385.221L1017.02 385.221L1017.02 444.129L1006.91 444.129L1006.91 385.221ZM1006.91 362.951L1017.02 362.951L1017.02 374.224L1006.91 374.224L1006.91 362.951Z"/>
<path d="M1032.05 384.945L1041.5 384.945L1041.5 393.345C1044.3 389.882 1047.27 387.395 1050.4 385.884C1053.53 384.374 1057.01 383.619 1060.84 383.619C1069.24 383.619 1074.92 386.548 1077.86 392.405C1079.49 395.61 1080.3 400.197 1080.3 406.165L1080.3 444.129L1070.18 444.129L1070.18 406.828C1070.18 403.218 1069.65 400.308 1068.58 398.097C1066.81 394.413 1063.61 392.571 1058.96 392.571C1056.61 392.571 1054.67 392.811 1053.16 393.289C1050.44 394.1 1048.04 395.721 1045.98 398.152C1044.32 400.105 1043.24 402.122 1042.75 404.203C1042.25 406.285 1042 409.26 1042 413.128L1042 444.129L1032.05 444.129L1032.05 384.945Z"/>
<path d="M1162.86 360.851C1170.48 360.851 1177.08 362.325 1182.64 365.272C1190.71 369.509 1195.64 376.932 1197.45 387.542L1186.56 387.542C1185.24 381.611 1182.49 377.291 1178.33 374.584C1174.17 371.876 1168.92 370.522 1162.58 370.522C1155.06 370.522 1148.74 373.34 1143.6 378.977C1138.46 384.613 1135.89 393.013 1135.89 404.176C1135.89 413.828 1138.01 421.684 1142.24 427.745C1146.48 433.805 1153.39 436.835 1162.97 436.835C1170.3 436.835 1176.37 434.707 1181.17 430.452C1185.98 426.197 1188.44 419.317 1188.55 409.812L1163.13 409.812L1163.13 400.694L1198.77 400.694L1198.77 444.129L1191.7 444.129L1189.05 433.685C1185.33 437.774 1182.03 440.611 1179.16 442.195C1174.33 444.921 1168.2 446.285 1160.76 446.285C1151.14 446.285 1142.87 443.172 1135.94 436.945C1128.39 429.135 1124.61 418.415 1124.61 404.784C1124.61 391.19 1128.3 380.377 1135.67 372.346C1142.67 364.683 1151.73 360.851 1162.86 360.851Z"/>
<path d="M1214.75 362.951L1224.69 362.951L1224.69 444.129L1214.75 444.129L1214.75 362.951Z"/>
<path d="M1249.56 384.945L1249.56 424.235C1249.56 427.256 1250.04 429.725 1251 431.64C1252.76 435.177 1256.06 436.945 1260.89 436.945C1267.81 436.945 1272.53 433.851 1275.03 427.662C1276.4 424.346 1277.08 419.796 1277.08 414.012L1277.08 384.945L1287.03 384.945L1287.03 444.129L1277.63 444.129L1277.74 435.398C1276.45 437.645 1274.85 439.543 1272.93 441.09C1269.14 444.185 1264.54 445.732 1259.12 445.732C1250.68 445.732 1244.94 442.914 1241.88 437.277C1240.22 434.256 1239.39 430.222 1239.39 425.175L1239.39 384.945L1249.56 384.945ZM1267.85 364.278L1278.18 364.278L1278.18 375.772L1267.85 375.772L1267.85 364.278ZM1249.61 364.278L1259.95 364.278L1259.95 375.772L1249.61 375.772L1249.61 364.278Z"/>
<path d="M1325.38 383.232C1332.05 383.232 1337.47 384.853 1341.65 388.095C1345.83 391.337 1348.35 396.918 1349.19 404.839L1339.52 404.839C1338.93 401.192 1337.59 398.162 1335.49 395.749C1333.39 393.335 1330.02 392.129 1325.38 392.129C1319.04 392.129 1314.51 395.224 1311.78 401.413C1310.01 405.428 1309.13 410.383 1309.13 416.278C1309.13 422.209 1310.38 427.201 1312.89 431.254C1315.39 435.306 1319.34 437.332 1324.71 437.332C1328.84 437.332 1332.11 436.071 1334.52 433.547C1336.94 431.023 1338.6 427.57 1339.52 423.186L1349.19 423.186C1348.09 431.033 1345.33 436.77 1340.91 440.399C1336.48 444.028 1330.83 445.842 1323.94 445.842C1316.2 445.842 1310.03 443.015 1305.43 437.36C1300.82 431.705 1298.52 424.641 1298.52 416.167C1298.52 405.778 1301.04 397.692 1306.09 391.908C1311.14 386.124 1317.57 383.232 1325.38 383.232Z"/>
<path d="M1358.92 362.951L1368.48 362.951L1368.48 410.089L1394.01 384.945L1406.72 384.945L1384.06 407.105L1407.99 444.129L1395.28 444.129L1376.83 414.289L1368.48 421.915L1368.48 444.129L1358.92 444.129L1358.92 362.951Z"/>
<path d="M219.166 515.139L234.971 563.326L251.494 515.139L262.38 515.139L240.055 574.323L229.445 574.323L207.617 515.139L219.166 515.139Z"/>
<path d="M295.537 513.813C299.736 513.813 303.807 514.798 307.749 516.769C311.691 518.74 314.694 521.291 316.757 524.423C318.746 527.407 320.072 530.888 320.736 534.867C321.325 537.593 321.62 541.94 321.62 547.909L278.24 547.909C278.424 553.914 279.843 558.731 282.495 562.359C285.148 565.988 289.255 567.803 294.818 567.803C300.013 567.803 304.157 566.089 307.252 562.663C309.02 560.674 310.273 558.371 311.01 555.756L320.791 555.756C320.533 557.929 319.676 560.352 318.221 563.022C316.766 565.693 315.136 567.876 313.331 569.571C310.31 572.518 306.57 574.508 302.113 575.539C299.718 576.128 297.01 576.423 293.989 576.423C286.621 576.423 280.377 573.743 275.256 568.383C270.135 563.022 267.575 555.516 267.575 545.864C267.575 536.359 270.153 528.641 275.311 522.71C280.469 516.778 287.211 513.813 295.537 513.813ZM311.396 540.006C310.991 535.696 310.052 532.251 308.578 529.673C305.852 524.883 301.302 522.489 294.929 522.489C290.361 522.489 286.529 524.137 283.434 527.435C280.34 530.732 278.7 534.922 278.516 540.006L311.396 540.006Z"/>
<path d="M334.109 515.139L343.558 515.139L343.558 525.362C344.332 523.373 346.229 520.951 349.25 518.095C352.271 515.24 355.752 513.813 359.694 513.813C359.879 513.813 360.192 513.831 360.634 513.868C361.076 513.905 361.831 513.978 362.9 514.089L362.9 524.589C362.31 524.478 361.767 524.404 361.269 524.368C360.772 524.331 360.229 524.312 359.639 524.312C354.629 524.312 350.779 525.924 348.09 529.148C345.4 532.371 344.056 536.083 344.056 540.283L344.056 574.323L334.109 574.323L334.109 515.139Z"/>
<path d="M377.433 555.756C377.728 559.071 378.557 561.613 379.92 563.382C382.425 566.587 386.772 568.189 392.961 568.189C396.646 568.189 399.887 567.388 402.687 565.786C405.487 564.183 406.887 561.705 406.887 558.353C406.887 555.811 405.764 553.877 403.516 552.551C402.079 551.74 399.243 550.801 395.006 549.732L387.104 547.743C382.057 546.49 378.336 545.09 375.941 543.543C371.668 540.854 369.531 537.133 369.531 532.38C369.531 526.781 371.548 522.249 375.582 518.786C379.616 515.323 385.041 513.592 391.856 513.592C400.772 513.592 407.2 516.207 411.142 521.439C413.611 524.754 414.808 528.328 414.734 532.159L405.34 532.159C405.156 529.912 404.364 527.867 402.964 526.025C400.68 523.41 396.719 522.102 391.083 522.102C387.325 522.102 384.479 522.82 382.545 524.257C380.611 525.694 379.644 527.591 379.644 529.949C379.644 532.528 380.915 534.591 383.457 536.138C384.93 537.059 387.104 537.87 389.977 538.57L396.553 540.172C403.7 541.904 408.49 543.58 410.921 545.201C414.789 547.743 416.724 551.74 416.724 557.192C416.724 562.461 414.725 567.01 410.728 570.842C406.731 574.673 400.643 576.589 392.464 576.589C383.659 576.589 377.424 574.59 373.758 570.593C370.093 566.596 368.131 561.65 367.873 555.756L377.433 555.756Z"/>
<path d="M438.054 515.139L438.054 554.429C438.054 557.45 438.533 559.919 439.491 561.834C441.259 565.371 444.557 567.139 449.383 567.139C456.309 567.139 461.024 564.045 463.53 557.856C464.893 554.54 465.574 549.99 465.574 544.206L465.574 515.139L475.521 515.139L475.521 574.323L466.127 574.323L466.237 565.592C464.948 567.839 463.345 569.737 461.43 571.284C457.635 574.379 453.03 575.926 447.614 575.926C439.178 575.926 433.431 573.108 430.373 567.471C428.715 564.45 427.886 560.416 427.886 555.369L427.886 515.139L438.054 515.139Z"/>
<path d="M513.872 513.426C520.54 513.426 525.965 515.047 530.146 518.289C534.328 521.531 536.842 527.112 537.69 535.033L528.019 535.033C527.429 531.386 526.085 528.356 523.985 525.942C521.885 523.529 518.514 522.323 513.872 522.323C507.536 522.323 503.004 525.417 500.278 531.607C498.51 535.622 497.625 540.577 497.625 546.472C497.625 552.403 498.878 557.395 501.383 561.448C503.888 565.5 507.83 567.526 513.209 567.526C517.335 567.526 520.605 566.264 523.018 563.741C525.431 561.217 527.098 557.763 528.019 553.379L537.69 553.379C536.584 561.226 533.821 566.964 529.4 570.593C524.98 574.222 519.325 576.036 512.435 576.036C504.699 576.036 498.528 573.209 493.923 567.554C489.318 561.899 487.015 554.835 487.015 546.361C487.015 535.972 489.539 527.886 494.586 522.102C499.633 516.318 506.062 513.426 513.872 513.426Z"/>
<path d="M547.636 492.869L557.583 492.869L557.583 523.152C559.941 520.168 562.06 518.068 563.938 516.852C567.144 514.752 571.141 513.702 575.93 513.702C584.514 513.702 590.335 516.705 593.392 522.71C595.05 525.989 595.879 530.538 595.879 536.359L595.879 574.323L585.656 574.323L585.656 537.022C585.656 532.675 585.103 529.488 583.998 527.462C582.193 524.22 578.804 522.599 573.83 522.599C569.704 522.599 565.965 524.018 562.612 526.854C559.26 529.691 557.583 535.051 557.583 542.935L557.583 574.323L547.636 574.323L547.636 492.869Z"/>
<path d="M635.225 513.813C639.425 513.813 643.496 514.798 647.438 516.769C651.379 518.74 654.382 521.291 656.445 524.423C658.434 527.407 659.761 530.888 660.424 534.867C661.013 537.593 661.308 541.94 661.308 547.909L617.928 547.909C618.112 553.914 619.531 558.731 622.183 562.359C624.836 565.988 628.944 567.803 634.507 567.803C639.701 567.803 643.846 566.089 646.94 562.663C648.709 560.674 649.961 558.371 650.698 555.756L660.479 555.756C660.221 557.929 659.365 560.352 657.909 563.022C656.454 565.693 654.824 567.876 653.019 569.571C649.998 572.518 646.259 574.508 641.801 575.539C639.406 576.128 636.699 576.423 633.678 576.423C626.309 576.423 620.065 573.743 614.944 568.383C609.823 563.022 607.263 555.516 607.263 545.864C607.263 536.359 609.842 528.641 614.999 522.71C620.157 516.778 626.899 513.813 635.225 513.813ZM651.085 540.006C650.68 535.696 649.74 532.251 648.266 529.673C645.54 524.883 640.99 522.489 634.617 522.489C630.049 522.489 626.217 524.137 623.123 527.435C620.028 530.732 618.389 534.922 618.205 540.006L651.085 540.006Z"/>
<path d="M673.521 515.139L682.97 515.139L682.97 523.539C685.77 520.076 688.736 517.589 691.867 516.078C694.999 514.568 698.48 513.813 702.312 513.813C710.711 513.813 716.385 516.742 719.332 522.599C720.953 525.804 721.763 530.391 721.763 536.359L721.763 574.323L711.651 574.323L711.651 537.022C711.651 533.412 711.116 530.501 710.048 528.291C708.28 524.607 705.075 522.765 700.433 522.765C698.075 522.765 696.141 523.004 694.63 523.483C691.904 524.294 689.509 525.915 687.446 528.346C685.789 530.299 684.711 532.316 684.214 534.397C683.716 536.479 683.468 539.454 683.468 543.322L683.468 574.323L673.521 574.323L673.521 515.139Z"/>
<path d="M756.412 562.829L767.409 562.829L767.409 574.323L756.412 574.323L756.412 562.829ZM737.789 518.565C737.789 510.608 740.036 504.207 744.531 499.362C749.025 494.517 755.196 492.095 763.043 492.095C770.301 492.095 776.112 494.167 780.478 498.312C784.844 502.457 787.026 507.752 787.026 514.2C787.026 518.105 786.225 521.273 784.623 523.704C783.02 526.136 779.787 529.709 774.924 534.425C771.388 537.851 769.094 540.752 768.044 543.129C766.994 545.505 766.469 549.014 766.469 553.656L756.633 553.656C756.633 548.388 757.259 544.142 758.512 540.918C759.764 537.695 762.509 534.001 766.746 529.838L771.167 525.473C772.493 524.22 773.561 522.912 774.372 521.549C775.845 519.155 776.582 516.668 776.582 514.089C776.582 510.479 775.504 507.347 773.349 504.695C771.194 502.042 767.63 500.716 762.656 500.716C756.504 500.716 752.249 503 749.891 507.568C748.565 510.11 747.81 513.776 747.625 518.565L737.789 518.565Z"/>
</g>
</g>
</svg>
