<?xml version="1.0" encoding="UTF-8" standalone="no"?>
<!DOCTYPE svg PUBLIC "-//W3C//DTD SVG 1.1//EN" "http://www.w3.org/Graphics/SVG/1.1/DTD/svg11.dtd">
<!-- Created with Vectornator (http://vectornator.io/) -->
<svg height="100%" stroke-miterlimit="10" style="fill-rule:nonzero;clip-rule:evenodd;stroke-linecap:round;stroke-linejoin:round;" version="1.1" viewBox="0 0 3370.82 2384.24" width="100%" xml:space="preserve" xmlns="http://www.w3.org/2000/svg" xmlns:vectornator="http://vectornator.io" xmlns:xlink="http://www.w3.org/1999/xlink">
<defs/>
<g id="Ebene-1" vectornator:layerName="Ebene 1">
<path d="M2748.11 1560.13L2949.15 1560.13C2971.54 1560.13 2989.69 1578.28 2989.69 1600.67L2989.69 2319.63C2989.69 2342.02 2971.54 2360.17 2949.15 2360.17L2748.11 2360.17C2725.72 2360.17 2707.57 2342.02 2707.57 2319.63L2707.57 1600.67C2707.57 1578.28 2725.72 1560.13 2748.11 1560.13Z" fill="#c18539" fill-rule="nonzero" opacity="1" stroke="#ab6813" stroke-linecap="butt" stroke-linejoin="round" stroke-width="7.81201"/>
<path d="M61.6642 1555.92L262.702 1555.92C285.092 1555.92 303.242 1574.07 303.242 1596.46L303.242 2315.42C303.242 2337.81 285.092 2355.96 262.702 2355.96L61.6642 2355.96C39.2743 2355.96 21.1237 2337.81 21.1237 2315.42L21.1237 1596.46C21.1237 1574.07 39.2743 1555.92 61.6642 1555.92Z" fill="#c18539" fill-rule="nonzero" opacity="1" stroke="#ab6813" stroke-linecap="butt" stroke-linejoin="round" stroke-width="7.81201"/>
<path d="M67.1339 2125.63L2948.52 2125.63C2971.5 2125.63 2990.13 2139.2 2990.13 2155.95L2990.13 2329.22C2990.13 2345.97 2971.5 2359.55 2948.52 2359.55L67.1339 2359.55C44.1518 2359.55 25.5212 2345.97 25.5212 2329.22L25.5212 2155.95C25.5212 2139.2 44.1518 2125.63 67.1339 2125.63Z" fill="#c18539" fill-rule="nonzero" opacity="1" stroke="#ab6813" stroke-linecap="butt" stroke-linejoin="round" stroke-width="7.81201"/>
</g>
<clipPath id="ArtboardFrame">
<rect height="2384.24" width="3370.82" x="0" y="0"/>
</clipPath>
<g clip-path="url(#ArtboardFrame)" id="Ebene-2" vectornator:layerName="Ebene 2">
<path d="M994.391 2660.02L994.391 2660.02C994.973 2660.02 995.444 2660.49 995.444 2661.08L995.444 2661.08C995.444 2661.66 994.973 2662.13 994.391 2662.13L994.391 2662.13C993.81 2662.13 993.339 2661.66 993.339 2661.08L993.339 2661.08C993.339 2660.49 993.81 2660.02 994.391 2660.02Z" fill="#073651" fill-rule="nonzero" opacity="1" stroke="#002748" stroke-linecap="butt" stroke-linejoin="round" stroke-width="7.81201"/>
<path d="M1258.61 2504.23L1264.93 2504.23L1264.93 2504.23L1258.61 2504.23L1258.61 2504.23Z" fill="#073651" fill-rule="nonzero" opacity="1" stroke="#002748" stroke-linecap="butt" stroke-linejoin="round" stroke-width="7.81201"/>
<path d="M320.085 1115.9L517.989 1115.9L517.989 2115.95L320.085 2115.95L320.085 1115.9Z" fill="#073651" fill-rule="nonzero" opacity="1" stroke="#002748" stroke-linecap="butt" stroke-linejoin="round" stroke-width="7.81201"/>
<g fill="#5ea6d0" opacity="1" stroke="none">
<path d="M465.841 1906.97C466.845 1906.97 467.348 1907.26 467.348 1907.83C467.35 1910.23 467.246 1913.15 467.034 1916.6C466.822 1919.89 466.717 1922.64 466.719 1924.82C466.721 1927.01 466.831 1929.68 467.049 1932.84C467.268 1936.14 467.378 1938.99 467.38 1941.39C467.381 1942.03 466.879 1942.36 465.875 1942.36C464.979 1942.36 464.494 1942.07 464.422 1941.5C463.916 1937.3 463.143 1934.45 462.101 1932.92C461.06 1931.4 459.088 1930.64 456.183 1930.64L455.323 1930.64L403.211 1932.95L468.257 1958.81C468.831 1959.03 469.118 1959.53 469.119 1960.32C469.12 1961.14 468.834 1961.63 468.26 1961.77L405.843 1986.25L455.379 1990.07C455.989 1990.14 456.527 1990.18 456.993 1990.18C459.395 1990.18 461.115 1989.35 462.154 1987.7C463.192 1986.05 463.942 1983.11 464.404 1978.88C464.475 1978.37 464.977 1978.12 465.909 1978.12C466.913 1978.12 467.415 1978.44 467.416 1979.09C467.418 1980.95 467.313 1983.5 467.101 1986.73C466.888 1989.74 466.783 1992.07 466.785 1993.72C466.786 1995.51 466.896 1997.95 467.114 2001.03C467.332 2004.01 467.442 2006.3 467.443 2007.92C467.444 2008.42 466.942 2008.67 465.938 2008.67C465.042 2008.67 464.558 2008.35 464.485 2007.7C463.943 2003.19 463.098 2000.06 461.949 1998.32C460.8 1996.58 458.612 1995.59 455.384 1995.34L404.771 1989.8C404.126 1989.76 403.552 1989.74 403.05 1989.75C400.719 1989.75 399.035 1990.57 397.997 1992.22C396.959 1993.87 396.173 1996.87 395.639 2001.21C395.639 2001.71 395.138 2001.96 394.134 2001.96C393.775 2001.96 393.435 2001.86 393.112 2001.64C392.789 2001.43 392.627 2001.21 392.627 2001C392.626 1999.67 392.732 1997.79 392.944 1995.35C393.158 1993.27 393.264 1991.74 393.263 1990.78C393.262 1989.52 393.152 1987.73 392.935 1985.4C392.717 1983 392.608 1981.13 392.607 1979.81L452.443 1956.68L392.562 1932.85C392.561 1931.42 392.667 1929.54 392.879 1927.21C393.093 1925.09 393.199 1923.42 393.197 1922.21C393.196 1920.7 393.087 1918.89 392.87 1916.77C392.652 1914.59 392.543 1912.7 392.541 1911.13C392.541 1910.48 393.043 1910.16 394.046 1910.16C395.05 1910.16 395.553 1910.44 395.553 1911.02C396.059 1915.21 396.833 1918.07 397.874 1919.59C398.915 1921.12 400.888 1921.88 403.792 1921.87L404.706 1921.87L455.312 1919.35C457.822 1919.24 459.578 1918.85 460.582 1918.19C461.585 1917.52 462.381 1916.38 462.972 1914.77C463.562 1913.16 464.034 1910.84 464.39 1907.83C464.461 1907.26 464.945 1906.97 465.841 1906.97Z"/>
<path d="M468.496 1870.88C468.498 1872.89 468.007 1874.64 467.022 1876.12C466.038 1877.61 464.703 1878.63 463.018 1879.17C466.966 1883 468.943 1888.02 468.949 1894.22C468.952 1897.45 467.959 1900.08 465.971 1902.13C463.983 1904.17 461.501 1905.2 458.525 1905.2C451.175 1905.21 445.215 1896.5 440.645 1879.08L432.255 1878.77L431.986 1878.77C429.405 1878.77 427.353 1879.41 425.83 1880.68C424.307 1881.96 423.547 1883.65 423.549 1885.77C423.551 1887.88 424.064 1889.67 425.087 1891.14C426.11 1892.61 427.393 1893.36 428.935 1893.4C431.229 1893.43 433.023 1894.03 434.314 1895.19C435.606 1896.36 436.253 1897.91 436.255 1899.84C436.256 1900.99 435.916 1901.92 435.236 1902.64C434.555 1903.36 433.641 1903.72 432.494 1903.72C429.733 1903.72 426.836 1901.22 423.801 1896.2C420.767 1891.18 419.247 1886.52 419.243 1882.22C419.24 1878.35 420.384 1875.21 422.676 1872.81C424.969 1870.4 428.051 1869.2 431.923 1869.19L432.569 1869.19L456.878 1869.92L457.255 1869.92C461.02 1869.92 462.901 1868.7 462.898 1866.26C462.897 1865.08 462.179 1863.7 460.743 1862.12L460.635 1861.74C460.635 1861.46 460.823 1861.19 461.199 1860.94C461.576 1860.69 461.979 1860.56 462.409 1860.56C463.449 1860.56 464.723 1861.64 466.231 1863.81C467.739 1865.98 468.494 1868.33 468.496 1870.88ZM444.302 1879.19C446.679 1889.65 450.592 1894.88 456.042 1894.88C461.133 1894.87 463.677 1892.9 463.673 1888.95C463.671 1887.05 463.194 1885.18 462.242 1883.34C461.291 1881.49 460.115 1880.25 458.716 1879.6L444.302 1879.19Z"/>
<path d="M424.459 1824.24C426.395 1824.24 427.363 1824.7 427.364 1825.64L426.949 1841.66L452.764 1841.64C459.505 1841.63 462.873 1839.23 462.868 1834.42C462.865 1831.45 462.164 1828.74 460.763 1826.3C460.763 1826.02 460.951 1825.76 461.327 1825.52C461.703 1825.29 462.106 1825.17 462.537 1825.17C463.433 1825.17 464.644 1826.51 466.171 1829.17C467.697 1831.84 468.462 1834.85 468.465 1838.18C468.469 1842.27 467.226 1845.53 464.736 1847.97C462.247 1850.41 458.958 1851.64 454.871 1851.64L454.387 1851.64L428.249 1851.45C427.245 1851.45 426.744 1851.88 426.745 1852.74L426.748 1856.83C426.749 1857.62 426.283 1858.01 425.351 1858.01C424.634 1858.01 424.096 1857.69 423.737 1857.05C420.792 1852.07 416.647 1847.73 411.301 1844.04C410.727 1843.65 410.44 1843.15 410.439 1842.54C410.438 1841.53 410.724 1841.03 411.298 1841.03L421.571 1841.45L421.556 1825.64C421.555 1824.71 422.522 1824.24 424.459 1824.24Z"/>
<path d="M465.704 1762.51C466.708 1762.51 467.21 1762.8 467.211 1763.37C467.212 1764.81 467.106 1766.58 466.893 1768.7C466.68 1770.99 466.574 1773 466.576 1774.72C466.578 1776.51 466.687 1778.57 466.905 1780.91C467.122 1783.02 467.231 1784.8 467.232 1786.23C467.233 1786.8 466.731 1787.09 465.727 1787.09C464.831 1787.09 464.347 1786.81 464.274 1786.23C463.985 1783.76 463.284 1782.14 462.172 1781.37C461.06 1780.6 458.729 1780.21 455.18 1780.22L437.217 1780.23C429.472 1780.24 425.603 1783.76 425.61 1790.79C425.614 1795.23 427.411 1799.07 430.999 1802.29L455.201 1802.27C458.427 1802.26 460.668 1801.8 461.922 1800.86C463.176 1799.93 463.963 1798.1 464.283 1795.37C464.354 1794.8 464.838 1794.51 465.734 1794.51C466.738 1794.51 467.24 1794.8 467.241 1795.37C467.242 1796.84 467.137 1798.76 466.924 1801.13C466.711 1803.78 466.606 1805.99 466.607 1807.74C466.609 1809.54 466.719 1811.58 466.936 1813.87C467.153 1815.92 467.262 1817.67 467.264 1819.14C467.264 1819.72 466.763 1820 465.759 1820.01C464.862 1820.01 464.378 1819.72 464.306 1819.15C463.98 1816.13 463.27 1814.18 462.176 1813.29C461.081 1812.39 458.759 1811.94 455.21 1811.95L405.247 1812C402.343 1812 400.443 1812.35 399.547 1813.05C398.651 1813.75 398.061 1815.37 397.777 1817.92C397.706 1818.49 397.258 1818.78 396.433 1818.78C395.501 1818.78 395.035 1818.5 395.034 1817.92C393.594 1811.79 391.69 1807.26 389.32 1804.32C388.89 1803.78 388.674 1803.33 388.674 1802.98C388.673 1801.97 388.959 1801.47 389.533 1801.47C395.413 1802.04 401.652 1802.32 408.25 1802.31L426.481 1802.29C421.6 1797.17 419.157 1792.12 419.153 1787.14C419.148 1782.04 420.542 1778.04 423.336 1775.11C426.13 1772.19 429.893 1770.72 434.626 1770.72L455.17 1770.7C458.684 1770.69 460.987 1770.24 462.08 1769.32C463.173 1768.4 463.897 1766.42 464.253 1763.38C464.324 1762.8 464.807 1762.51 465.704 1762.51Z"/>
<path d="M436.617 1715.7C437.621 1715.7 438.124 1716.34 438.125 1717.63L438.153 1747.1C440.089 1747.32 442.097 1747.42 444.177 1747.42C449.949 1747.42 454.385 1746.04 457.484 1743.29C460.583 1740.55 462.13 1736.65 462.125 1731.59C462.122 1729.05 461.439 1726.48 460.074 1723.9C458.709 1721.32 456.968 1719.25 454.851 1717.67L454.743 1717.4C454.743 1717.08 454.94 1716.76 455.334 1716.46C455.728 1716.15 456.194 1716 456.732 1716C457.485 1716 459.054 1717.15 461.441 1719.44C463.827 1721.73 465.649 1724.22 466.907 1726.91C468.164 1729.6 468.794 1732.41 468.797 1735.35C468.803 1741.8 466.442 1747.24 461.714 1751.65C456.985 1756.07 451.179 1758.28 444.295 1758.28C437.267 1758.29 431.314 1756.14 426.433 1751.82C421.553 1747.51 419.11 1742.03 419.103 1735.4C419.098 1729.84 420.913 1725.17 424.549 1721.38C428.184 1717.6 432.207 1715.7 436.617 1715.7ZM431.894 1725.49C429.205 1725.49 426.974 1726.42 425.201 1728.27C423.428 1730.11 422.543 1732.49 422.545 1735.39C422.548 1738.16 423.707 1740.55 426.021 1742.57C428.336 1744.59 431.376 1745.96 435.141 1746.68L434.696 1731.73C434.658 1729.47 434.442 1727.86 434.047 1726.91C433.651 1725.96 432.934 1725.49 431.894 1725.49Z"/>
<path d="M465.571 1623.33C466.575 1623.33 467.077 1623.61 467.078 1624.19C467.079 1625.62 466.973 1627.38 466.76 1629.46C466.547 1631.75 466.442 1633.8 466.443 1635.59C466.445 1637.35 466.555 1639.37 466.772 1641.67C466.989 1643.74 467.098 1645.52 467.1 1646.99C467.1 1647.56 466.599 1647.85 465.595 1647.85C464.698 1647.85 464.214 1647.57 464.142 1646.99C463.853 1644.55 463.152 1642.96 462.04 1642.21C460.927 1641.46 458.597 1641.08 455.047 1641.09L437.084 1641.1C433.033 1641.11 430.084 1641.88 428.239 1643.42C426.394 1644.97 425.473 1647.39 425.476 1650.69C425.481 1655.02 426.954 1658.61 429.897 1661.44L455.066 1661.41C458.616 1661.41 460.946 1661.01 462.057 1660.22C463.168 1659.43 463.865 1657.82 464.15 1655.38C464.221 1654.81 464.705 1654.52 465.601 1654.52C466.605 1654.52 467.107 1654.81 467.108 1655.38C467.109 1656.81 467.003 1658.48 466.79 1660.38C466.577 1662.46 466.471 1664.36 466.472 1666.08C466.474 1667.88 466.584 1669.83 466.801 1671.94C467.018 1673.84 467.127 1675.51 467.128 1676.95C467.129 1677.52 466.627 1677.81 465.623 1677.81C464.727 1677.81 464.242 1677.52 464.17 1676.95C463.881 1674.47 463.18 1672.85 462.068 1672.08C460.956 1671.31 458.625 1670.93 455.075 1670.93L437.113 1670.95C433.097 1670.95 430.158 1671.75 428.295 1673.33C426.432 1674.91 425.502 1677.34 425.505 1680.64C425.507 1682.72 425.903 1684.56 426.693 1686.15C427.484 1687.75 428.884 1689.46 430.893 1691.29L455.095 1691.26C458.644 1691.26 460.975 1690.87 462.085 1690.1C463.196 1689.33 463.894 1687.71 464.178 1685.23C464.249 1684.66 464.733 1684.37 465.629 1684.37C466.633 1684.37 467.136 1684.65 467.136 1685.23C467.137 1686.7 467.032 1688.49 466.819 1690.61C466.606 1692.94 466.5 1694.98 466.502 1696.74C466.503 1698.53 466.613 1700.57 466.83 1702.87C467.047 1704.91 467.157 1706.67 467.158 1708.14C467.158 1708.71 466.657 1709 465.653 1709C464.757 1709 464.272 1708.72 464.2 1708.14C463.803 1705.09 463.066 1703.13 461.989 1702.25C460.913 1701.38 458.618 1700.94 455.104 1700.94L435.205 1700.96C432.337 1700.97 430.455 1701.33 429.559 1702.07C428.663 1702.81 428.073 1704.41 427.789 1706.89C427.789 1707.46 427.324 1707.75 426.391 1707.75C425.531 1707.75 425.1 1707.46 425.1 1706.89C424.2 1703.34 423.184 1700.38 422.053 1698.02C420.921 1695.65 419.996 1694.16 419.279 1693.56C418.848 1693.2 418.633 1692.8 418.632 1692.37C418.631 1691.37 418.918 1690.87 419.491 1690.87L426.268 1691.29C421.459 1686.13 419.052 1681.33 419.048 1676.88C419.041 1670.07 421.654 1665.44 426.887 1663C421.647 1657.56 419.024 1652.23 419.019 1647.04C419.015 1642.12 420.409 1638.29 423.203 1635.55C425.997 1632.8 429.761 1631.43 434.493 1631.42L455.038 1631.4C458.552 1631.4 460.846 1630.96 461.921 1630.08C462.995 1629.2 463.728 1627.24 464.12 1624.19C464.191 1623.62 464.675 1623.33 465.571 1623.33Z"/>
<path d="M468.223 1584.33C468.225 1586.34 467.734 1588.09 466.749 1589.58C465.765 1591.07 464.43 1592.08 462.745 1592.62C466.693 1596.45 468.67 1601.47 468.676 1607.67C468.679 1610.9 467.686 1613.54 465.698 1615.58C463.71 1617.63 461.228 1618.65 458.253 1618.66C450.902 1618.66 444.942 1609.96 440.372 1592.53L431.982 1592.22L431.713 1592.22C429.132 1592.22 427.08 1592.86 425.557 1594.14C424.034 1595.41 423.274 1597.1 423.276 1599.22C423.278 1601.34 423.791 1603.13 424.814 1604.6C425.837 1606.07 427.12 1606.82 428.662 1606.85C430.956 1606.89 432.75 1607.48 434.041 1608.65C435.333 1609.81 435.98 1611.36 435.982 1613.3C435.983 1614.45 435.643 1615.38 434.963 1616.1C434.282 1616.81 433.368 1617.17 432.221 1617.17C429.46 1617.18 426.563 1614.67 423.528 1609.65C420.494 1604.64 418.974 1599.98 418.97 1595.67C418.967 1591.8 420.111 1588.66 422.403 1586.26C424.696 1583.85 427.778 1582.65 431.65 1582.65L432.296 1582.65L456.606 1583.38L456.982 1583.38C460.747 1583.37 462.628 1582.15 462.626 1579.71C462.624 1578.53 461.906 1577.15 460.47 1575.57L460.362 1575.2C460.362 1574.91 460.55 1574.64 460.926 1574.39C461.303 1574.14 461.706 1574.01 462.136 1574.01C463.176 1574.01 464.45 1575.1 465.958 1577.26C467.466 1579.43 468.221 1581.79 468.223 1584.33ZM444.03 1592.64C446.406 1603.11 450.319 1608.34 455.769 1608.33C460.86 1608.33 463.404 1606.35 463.4 1602.41C463.398 1600.51 462.921 1598.64 461.97 1596.79C461.018 1594.94 459.842 1593.7 458.443 1593.06L444.03 1592.64Z"/>
<path d="M424.186 1537.69C426.122 1537.69 427.09 1538.16 427.091 1539.09L426.676 1555.12L452.491 1555.09C459.232 1555.08 462.6 1552.68 462.595 1547.87C462.592 1544.9 461.891 1542.19 460.49 1539.76C460.49 1539.47 460.678 1539.21 461.054 1538.98C461.43 1538.74 461.833 1538.63 462.264 1538.62C463.16 1538.62 464.371 1539.96 465.898 1542.63C467.424 1545.3 468.189 1548.3 468.192 1551.63C468.196 1555.72 466.953 1558.99 464.464 1561.43C461.974 1563.87 458.686 1565.09 454.598 1565.09L454.114 1565.09L427.976 1564.9C426.972 1564.9 426.471 1565.33 426.472 1566.2L426.476 1570.28C426.476 1571.07 426.011 1571.47 425.078 1571.47C424.361 1571.47 423.823 1571.15 423.464 1570.5C420.519 1565.52 416.374 1561.19 411.028 1557.5C410.454 1557.1 410.167 1556.6 410.166 1555.99C410.165 1554.99 410.452 1554.49 411.025 1554.49L421.298 1554.91L421.283 1539.09C421.282 1538.16 422.25 1537.69 424.186 1537.69Z"/>
<path d="M400.446 1514.05C401.951 1514.05 403.261 1514.6 404.373 1515.69C405.486 1516.78 406.043 1518.1 406.044 1519.64C406.046 1521.18 405.491 1522.5 404.381 1523.59C403.27 1524.69 401.962 1525.24 400.456 1525.24C398.879 1525.24 397.552 1524.7 396.475 1523.63C395.398 1522.55 394.859 1521.23 394.858 1519.65C394.856 1518.11 395.393 1516.79 396.467 1515.7C397.542 1514.6 398.868 1514.05 400.446 1514.05ZM465.46 1506.46C466.464 1506.46 466.966 1506.75 466.967 1507.32C466.968 1508.79 466.862 1510.67 466.649 1512.97C466.437 1515.55 466.331 1517.72 466.333 1519.47C466.335 1521.27 466.444 1523.42 466.662 1525.93C466.879 1528.19 466.988 1530.05 466.99 1531.52C466.99 1532.09 466.489 1532.38 465.485 1532.38C464.588 1532.38 464.104 1532.1 464.032 1531.52C463.634 1528.48 462.898 1526.51 461.821 1525.64C460.745 1524.76 458.45 1524.32 454.936 1524.33L435.037 1524.35C432.168 1524.35 430.286 1524.72 429.391 1525.45C428.495 1526.19 427.905 1527.79 427.621 1530.27C427.621 1530.84 427.155 1531.13 426.223 1531.13C425.363 1531.13 424.932 1530.84 424.932 1530.27C423.96 1526.51 422.926 1523.42 421.83 1521.02C420.734 1518.62 419.828 1517.12 419.11 1516.51C418.679 1516.15 418.464 1515.76 418.464 1515.33C418.463 1514.32 418.749 1513.82 419.323 1513.82C427.354 1514.38 433.593 1514.67 438.039 1514.66L454.927 1514.65C458.44 1514.64 460.735 1514.2 461.809 1513.32C462.884 1512.44 463.617 1510.44 464.009 1507.32C464.08 1506.75 464.564 1506.46 465.46 1506.46Z"/>
<path d="M465.403 1446.28C466.407 1446.28 466.909 1446.56 466.909 1447.14C466.911 1448.57 466.805 1450.42 466.592 1452.68C466.379 1455.15 466.274 1457.27 466.275 1459.02C466.277 1460.78 466.387 1462.99 466.604 1465.64C466.822 1468.11 466.931 1470.07 466.933 1471.5C466.933 1472.08 466.431 1472.36 465.427 1472.36C464.531 1472.36 464.047 1472.08 463.975 1471.5C463.866 1470.57 463.686 1469.91 463.435 1469.51C463.183 1469.12 462.699 1468.92 461.982 1468.92C460.907 1468.93 458.542 1470.65 454.888 1474.09L445.323 1482.71C444.607 1483.43 444.249 1484.39 444.25 1485.61L454.899 1485.6C458.054 1485.6 460.295 1485.21 461.62 1484.44C462.946 1483.67 463.734 1482.22 463.983 1480.11C464.054 1479.54 464.538 1479.25 465.434 1479.25C466.438 1479.25 466.94 1479.53 466.941 1480.11C466.942 1481.65 466.837 1483.66 466.624 1486.13C466.411 1488.5 466.305 1490.36 466.306 1491.72C466.308 1493.27 466.417 1495.13 466.634 1497.32C466.852 1499.4 466.961 1501.12 466.962 1502.48C466.963 1503.05 466.461 1503.34 465.457 1503.34C464.561 1503.34 464.076 1503.06 464.004 1502.48C463.679 1499.47 462.969 1497.52 461.874 1496.62C460.78 1495.73 458.458 1495.28 454.908 1495.28L404.945 1495.33C402.041 1495.33 400.141 1495.69 399.246 1496.39C398.35 1497.09 397.76 1498.71 397.475 1501.25C397.404 1501.83 396.956 1502.12 396.132 1502.12C395.199 1502.12 394.733 1501.83 394.733 1501.26C393.293 1495.13 391.388 1490.59 389.019 1487.66C388.588 1487.12 388.372 1486.67 388.372 1486.31C388.371 1485.31 388.658 1484.81 389.231 1484.81C395.112 1485.37 401.351 1485.65 407.948 1485.65L441.239 1485.62C441.237 1484.33 440.896 1483.3 440.214 1482.55L432.623 1474.55C432.372 1474.3 431.995 1473.88 431.492 1473.31C428.8 1470.34 426.809 1468.85 425.518 1468.85C424.586 1468.85 423.942 1470.29 423.586 1473.16C423.515 1473.73 423.014 1474.02 422.081 1474.02C421.077 1474.02 420.575 1473.73 420.575 1473.16C420.573 1471.65 420.679 1469.75 420.892 1467.46C421.105 1465.34 421.211 1463.59 421.21 1462.19C421.209 1461.15 421.118 1459.8 420.937 1458.15C420.684 1456.15 420.557 1454.35 420.555 1452.78C420.555 1452.2 421.056 1451.91 422.06 1451.91C422.992 1451.91 423.495 1452.2 423.567 1452.77C423.856 1455.39 424.468 1457.68 425.402 1459.63C426.336 1461.58 428.275 1464.22 431.218 1467.56L439.402 1476.8L454.877 1462.69C458.137 1459.71 460.376 1457.2 461.593 1455.16C462.81 1453.11 463.596 1450.44 463.951 1447.14C464.023 1446.57 464.506 1446.28 465.403 1446.28Z"/>
</g>
<path d="M533.416 1376.37L813.429 1376.37L813.429 2117.46L533.416 2117.46L533.416 1376.37Z" fill="#2f4c20" fill-rule="nonzero" opacity="1" stroke="#002748" stroke-linecap="butt" stroke-linejoin="round" stroke-width="7.81201"/>
<g fill="#67a34b" opacity="1" stroke="none">
<path d="M684.173 1950.87C690.495 1952.51 697.101 1953.79 703.991 1954.71C703.655 1968.45 703.506 1978.22 703.545 1984.03C703.584 1989.77 703.865 1999.41 704.388 2012.96C704.391 2013.53 703.891 2013.82 702.888 2013.83C701.991 2013.84 701.505 2013.55 701.43 2012.98C700.898 2008.64 700.071 2005.7 698.949 2004.15C697.827 2002.6 695.599 2001.83 692.265 2001.85L641.658 2002.2C639.148 2002.22 637.384 2002.54 636.367 2003.18C635.349 2003.81 634.55 2004.92 633.969 2006.5C633.388 2008.08 632.929 2010.4 632.591 2013.45C632.595 2014.02 632.095 2014.31 631.091 2014.32C630.087 2014.32 629.583 2014.04 629.58 2013.47C629.563 2011.07 629.651 2008.2 629.844 2004.86C630.037 2001.67 630.126 1998.98 630.112 1996.79C630.097 1994.6 629.971 1991.93 629.734 1988.78C629.497 1985.48 629.37 1982.63 629.354 1980.23C629.35 1979.66 629.85 1979.37 630.854 1979.36C631.857 1979.35 632.361 1979.64 632.365 1980.21C632.744 1983.22 633.235 1985.51 633.837 1987.08C634.44 1988.66 635.245 1989.75 636.253 1990.35C637.261 1990.95 639.038 1991.24 641.583 1991.23L693.804 1990.87C698.034 1990.84 700.135 1988.75 700.107 1984.59L700.035 1973.94C700.005 1969.53 698.805 1965.81 696.436 1962.78C694.067 1959.75 689.663 1956.77 683.225 1953.83C682.938 1953.69 682.792 1953.35 682.788 1952.82C682.785 1952.35 682.926 1951.91 683.21 1951.49C683.494 1951.08 683.815 1950.87 684.173 1950.87Z"/>
<path d="M673.1 1904.21C674.103 1904.2 674.61 1904.84 674.619 1906.13L674.819 1935.61C676.757 1935.81 678.765 1935.9 680.845 1935.89C686.617 1935.85 691.044 1934.45 694.127 1931.68C697.21 1928.92 698.734 1925.01 698.7 1919.95C698.682 1917.41 697.984 1914.85 696.604 1912.28C695.224 1909.7 693.471 1907.64 691.345 1906.07L691.235 1905.81C691.233 1905.48 691.428 1905.17 691.82 1904.86C692.213 1904.55 692.678 1904.4 693.215 1904.39C693.968 1904.39 695.545 1905.53 697.945 1907.8C700.344 1910.08 702.181 1912.56 703.454 1915.24C704.727 1917.92 705.374 1920.73 705.394 1923.67C705.438 1930.13 703.108 1935.57 698.406 1940.02C693.703 1944.46 687.91 1946.7 681.026 1946.75C673.999 1946.8 668.032 1944.68 663.127 1940.39C658.221 1936.1 655.746 1930.64 655.701 1924.01C655.663 1918.45 657.451 1913.77 661.065 1909.96C664.678 1906.16 668.69 1904.24 673.1 1904.21ZM668.433 1914.03C665.744 1914.05 663.519 1914.98 661.757 1916.84C659.995 1918.7 659.123 1921.08 659.143 1923.99C659.162 1926.75 660.334 1929.13 662.661 1931.14C664.987 1933.15 668.035 1934.5 671.804 1935.2L671.272 1920.25C671.221 1917.99 670.995 1916.39 670.594 1915.44C670.194 1914.49 669.473 1914.02 668.433 1914.03Z"/>
<path d="M701.75 1846.57C702.754 1846.57 703.258 1846.85 703.262 1847.42C703.272 1848.86 703.176 1850.67 702.976 1852.86C702.777 1855.26 702.684 1857.34 702.696 1859.1C702.708 1860.89 702.831 1863.15 703.065 1865.87C703.297 1868.38 703.418 1870.35 703.428 1871.79C703.431 1872.36 702.931 1872.65 701.928 1872.66C701.031 1872.66 700.545 1872.38 700.47 1871.81C700.092 1869.01 699.204 1867.62 697.806 1867.63C696.659 1867.64 694.497 1868.78 691.322 1871.06L684.953 1875.68L691.439 1880.37C694.899 1882.99 697.095 1884.31 698.027 1884.3C699.318 1884.29 700.15 1882.85 700.525 1879.98C700.594 1879.48 701.076 1879.22 701.972 1879.22C702.976 1879.21 703.48 1879.49 703.484 1880.07C703.493 1881.36 703.396 1882.99 703.194 1884.96C702.994 1887.08 702.898 1888.82 702.907 1890.18C702.917 1891.69 703.055 1893.43 703.319 1895.4C703.509 1896.94 703.607 1898.17 703.613 1899.11C703.617 1899.68 703.117 1899.97 702.113 1899.98C701.217 1899.98 700.731 1899.66 700.655 1899.02C700.239 1895.94 699.498 1893.65 698.43 1892.15C697.362 1890.65 695.043 1888.44 691.474 1885.53L682.063 1877.85L669.219 1887.19C665.58 1889.86 663.246 1891.95 662.216 1893.44C661.186 1894.94 660.537 1897.03 660.269 1899.72C660.201 1900.3 659.701 1900.59 658.769 1900.59C657.765 1900.6 657.261 1900.32 657.257 1899.74C657.247 1898.27 657.342 1896.43 657.542 1894.2C657.74 1891.73 657.834 1889.63 657.822 1887.91C657.81 1886.15 657.688 1883.98 657.455 1881.4C657.224 1879.11 657.104 1877.23 657.094 1875.76C657.09 1875.18 657.59 1874.89 658.594 1874.89C659.49 1874.88 659.976 1875.16 660.052 1875.74C660.392 1878.25 661.279 1879.49 662.713 1879.48C663.86 1879.48 666.003 1878.32 669.143 1876L674.923 1871.76L669.085 1867.5C665.59 1864.94 663.394 1863.67 662.498 1863.67C661.207 1863.68 660.392 1865.09 660.052 1867.89C659.984 1868.46 659.484 1868.75 658.552 1868.76C657.548 1868.76 657.045 1868.48 657.041 1867.91C657.032 1866.65 657.129 1865.02 657.33 1863.01C657.531 1860.97 657.627 1859.26 657.618 1857.9C657.607 1856.36 657.47 1854.58 657.205 1852.58C657.016 1851.04 656.918 1849.82 656.912 1848.92C656.908 1848.35 657.408 1848.06 658.412 1848.05C659.308 1848.05 659.794 1848.36 659.87 1849.01C660.322 1852.13 661.09 1854.43 662.176 1855.93C663.262 1857.43 665.553 1859.6 669.051 1862.45L677.92 1869.7L691.3 1859.93C694.903 1857.32 697.229 1855.28 698.277 1853.8C699.324 1852.33 700 1850.21 700.304 1847.44C700.372 1846.87 700.854 1846.58 701.75 1846.57Z"/>
<path d="M636.598 1827.55C638.104 1827.54 639.416 1828.07 640.535 1829.16C641.654 1830.25 642.218 1831.56 642.229 1833.1C642.239 1834.64 641.693 1835.97 640.589 1837.07C639.485 1838.17 638.18 1838.72 636.674 1838.73C635.096 1838.74 633.766 1838.22 632.683 1837.15C631.6 1836.08 631.053 1834.76 631.043 1833.18C631.032 1831.64 631.561 1830.32 632.629 1829.21C633.697 1828.11 635.02 1827.56 636.598 1827.55ZM701.567 1819.58C702.57 1819.57 703.074 1819.85 703.078 1820.43C703.088 1821.9 702.993 1823.78 702.794 1826.08C702.596 1828.66 702.504 1830.83 702.516 1832.58C702.528 1834.38 702.65 1836.53 702.882 1839.04C703.113 1841.29 703.233 1843.16 703.243 1844.63C703.247 1845.2 702.747 1845.49 701.743 1845.5C700.847 1845.5 700.361 1845.22 700.285 1844.65C699.87 1841.6 699.121 1839.64 698.04 1838.77C696.958 1837.9 694.661 1837.48 691.147 1837.5L671.248 1837.64C668.38 1837.66 666.5 1838.04 665.609 1838.78C664.718 1839.52 664.137 1841.13 663.867 1843.6C663.871 1844.18 663.407 1844.47 662.475 1844.47C661.614 1844.48 661.182 1844.2 661.178 1843.62C660.184 1839.86 659.133 1836.79 658.023 1834.39C656.913 1832 655.997 1830.5 655.276 1829.89C654.844 1829.54 654.626 1829.15 654.623 1828.72C654.616 1827.71 654.899 1827.21 655.473 1827.2C663.508 1827.72 669.749 1827.97 674.194 1827.94L691.081 1827.82C694.595 1827.8 696.887 1827.34 697.956 1826.46C699.026 1825.57 699.747 1823.57 700.12 1820.45C700.188 1819.87 700.67 1819.58 701.567 1819.58Z"/>
<path d="M701.157 1759.4C702.161 1759.39 702.665 1759.67 702.669 1760.25C702.679 1761.68 702.584 1763.53 702.384 1765.79C702.186 1768.26 702.093 1770.38 702.104 1772.14C702.116 1773.89 702.239 1776.1 702.472 1778.75C702.704 1781.22 702.825 1783.17 702.835 1784.61C702.839 1785.18 702.339 1785.47 701.335 1785.48C700.438 1785.49 699.952 1785.2 699.877 1784.63C699.763 1783.7 699.579 1783.04 699.325 1782.64C699.072 1782.25 698.586 1782.06 697.869 1782.06C696.794 1782.07 694.439 1783.81 690.806 1787.27L681.291 1795.94C680.579 1796.66 680.227 1797.63 680.235 1798.85L690.884 1798.78C694.039 1798.76 696.277 1798.36 697.598 1797.58C698.92 1796.8 699.699 1795.35 699.935 1793.23C700.003 1792.66 700.485 1792.37 701.382 1792.36C702.385 1792.36 702.889 1792.64 702.893 1793.21C702.904 1794.75 702.81 1796.76 702.611 1799.24C702.412 1801.61 702.318 1803.47 702.327 1804.83C702.337 1806.38 702.458 1808.24 702.688 1810.43C702.917 1812.5 703.036 1814.22 703.045 1815.59C703.049 1816.16 702.549 1816.45 701.545 1816.46C700.649 1816.46 700.163 1816.18 700.087 1815.61C699.744 1812.6 699.023 1810.65 697.923 1809.76C696.824 1808.87 694.499 1808.44 690.95 1808.46L640.988 1808.8C638.084 1808.82 636.186 1809.18 635.294 1809.89C634.403 1810.59 633.822 1812.22 633.553 1814.77C633.485 1815.34 633.039 1815.63 632.214 1815.64C631.282 1815.64 630.814 1815.36 630.81 1814.79C629.334 1808.67 627.403 1804.14 625.017 1801.22C624.583 1800.68 624.365 1800.24 624.362 1799.88C624.355 1798.87 624.639 1798.37 625.212 1798.37C631.096 1798.9 637.337 1799.14 643.934 1799.1L677.224 1798.87C677.215 1797.58 676.867 1796.56 676.181 1795.82L668.543 1787.85C668.291 1787.6 667.912 1787.19 667.406 1786.62C664.696 1783.67 662.696 1782.19 661.406 1782.2C660.474 1782.21 659.838 1783.65 659.499 1786.52C659.431 1787.09 658.931 1787.38 657.999 1787.39C656.995 1787.39 656.491 1787.11 656.487 1786.54C656.477 1785.03 656.572 1783.13 656.771 1780.83C656.972 1778.72 657.068 1776.96 657.058 1775.56C657.051 1774.52 656.952 1773.18 656.762 1771.53C656.497 1769.52 656.359 1767.73 656.349 1766.15C656.345 1765.58 656.845 1765.29 657.849 1765.28C658.781 1765.28 659.285 1765.56 659.36 1766.13C659.665 1768.75 660.29 1771.03 661.235 1772.98C662.181 1774.93 664.135 1777.56 667.098 1780.87L675.335 1790.07L690.728 1775.87C693.97 1772.87 696.194 1770.35 697.399 1768.3C698.604 1766.24 699.375 1763.57 699.711 1760.27C699.779 1759.69 700.261 1759.4 701.157 1759.4Z"/>
<path d="M679.411 1709.31C686.546 1709.26 692.433 1711.54 697.072 1716.16C701.71 1720.77 704.055 1726.77 704.105 1734.15C704.155 1741.54 701.884 1747.58 697.29 1752.27C692.697 1756.96 686.851 1759.33 679.752 1759.38C672.545 1759.43 666.533 1757.12 661.714 1752.46C656.896 1747.79 654.462 1741.8 654.412 1734.49C654.362 1727.14 656.706 1721.12 661.442 1716.42C666.179 1711.73 672.169 1709.36 679.411 1709.31ZM679.377 1720.12C672.816 1720.17 667.581 1721.47 663.672 1724.02C659.764 1726.57 657.824 1730.06 657.854 1734.47C657.884 1738.84 659.879 1742.29 663.841 1744.81C667.802 1747.32 673.045 1748.56 679.57 1748.52C686.06 1748.47 691.205 1747.18 695.006 1744.65C698.808 1742.11 700.693 1738.62 700.663 1734.18C700.633 1729.73 698.718 1726.26 694.918 1723.78C691.119 1721.3 685.938 1720.08 679.377 1720.12Z"/>
<path d="M700.393 1647C701.397 1646.99 701.901 1647.27 701.905 1647.85C701.914 1649.28 701.819 1651.04 701.618 1653.12C701.418 1655.41 701.324 1657.44 701.336 1659.2C701.349 1660.99 701.47 1663.05 701.701 1665.38C701.931 1667.49 702.05 1669.27 702.06 1670.7C702.064 1671.28 701.564 1671.57 700.56 1671.57C699.664 1671.58 699.178 1671.3 699.102 1670.72C698.799 1668.25 698.088 1666.63 696.972 1665.87C695.855 1665.11 693.522 1664.74 689.972 1664.76L672.01 1664.88C667.994 1664.91 665.06 1665.72 663.206 1667.31C661.352 1668.9 660.437 1671.34 660.459 1674.64C660.473 1676.72 660.88 1678.56 661.68 1680.15C662.479 1681.74 663.889 1683.44 665.91 1685.25L690.111 1685.09C693.66 1685.07 695.988 1684.66 697.094 1683.89C698.2 1683.11 698.888 1681.48 699.158 1679C699.226 1678.43 699.708 1678.14 700.605 1678.13C701.609 1678.13 702.112 1678.41 702.116 1678.98C702.126 1680.45 702.031 1682.25 701.83 1684.36C701.631 1686.7 701.537 1688.74 701.549 1690.5C701.561 1692.22 701.682 1694.23 701.913 1696.52C702.142 1698.63 702.262 1700.42 702.272 1701.89C702.276 1702.47 701.776 1702.76 700.772 1702.77C699.876 1702.77 699.39 1702.49 699.314 1701.91C698.899 1698.83 698.141 1696.85 697.042 1695.96C695.942 1695.07 693.653 1694.64 690.176 1694.66L670.277 1694.8C667.409 1694.82 665.529 1695.2 664.638 1695.94C663.746 1696.68 663.166 1698.32 662.896 1700.87C662.9 1701.45 662.436 1701.74 661.504 1701.74C660.644 1701.75 660.211 1701.46 660.207 1700.89C659.287 1697.35 658.254 1694.4 657.108 1692.04C655.963 1689.68 655.03 1688.2 654.308 1687.59C653.876 1687.24 653.658 1686.84 653.655 1686.41C653.648 1685.41 653.932 1684.91 654.505 1684.9L661.285 1685.29C656.445 1680.16 654.01 1675.37 653.98 1670.92C653.947 1666.05 655.319 1662.23 658.097 1659.46C660.875 1656.7 664.63 1655.31 669.363 1655.27L689.907 1655.13C693.421 1655.11 695.712 1654.66 696.782 1653.77C697.851 1652.88 698.573 1650.92 698.947 1647.87C699.015 1647.29 699.497 1647 700.393 1647Z"/>
</g>
<path d="M828.728 1211.3L880.101 1211.3L880.101 2124.42L828.728 2124.42L828.728 1211.3Z" fill="#d7dfd1" fill-rule="nonzero" opacity="1" stroke="#002748" stroke-linecap="butt" stroke-linejoin="round" stroke-width="7.81201"/>
<path d="M898.817 1322.74L944.01 1322.74L944.01 2123.92L898.817 2123.92L898.817 1322.74Z" fill="#d493c3" fill-rule="nonzero" opacity="1" stroke="#002748" stroke-linecap="butt" stroke-linejoin="round" stroke-width="7.81201"/>
<path d="M976.655 1812.6L1774.16 1812.6L1774.16 2109.95L976.655 2109.95L976.655 1812.6Z" fill="#7d8489" fill-rule="nonzero" opacity="1" stroke="#002748" stroke-linecap="butt" stroke-linejoin="round" stroke-width="7.81201"/>
<g fill="#000000" opacity="1" stroke="none">
<path d="M1039.87 1931.03C1039.87 1931.74 1039.25 1932.09 1038.01 1932.09C1037.41 1932.09 1037.04 1931.84 1036.9 1931.35C1035.66 1927.24 1033.53 1924.12 1030.52 1921.99C1027.51 1919.87 1023.83 1918.81 1019.47 1918.81L1009.9 1918.81C1005.72 1918.81 1003.63 1920.93 1003.63 1925.18L1003.63 1948.83L1015.75 1948.83C1019.29 1948.83 1021.69 1948.01 1022.95 1946.38C1024.21 1944.75 1025.1 1941.87 1025.63 1937.72C1025.63 1937.16 1026.11 1936.87 1027.07 1936.87C1028.06 1936.87 1028.55 1937.16 1028.55 1937.72C1028.55 1939.49 1028.45 1941.73 1028.24 1944.42C1028.02 1947 1027.92 1949.11 1027.92 1950.74C1027.92 1952.41 1028.02 1954.53 1028.24 1957.12C1028.45 1959.88 1028.55 1962.15 1028.55 1963.92C1028.55 1964.49 1028.06 1964.77 1027.07 1964.77C1026.11 1964.77 1025.63 1964.49 1025.63 1963.92C1025.07 1959.6 1024.12 1956.57 1022.79 1954.83C1021.46 1953.1 1019.11 1952.23 1015.75 1952.23L1003.63 1952.23L1003.63 1976.78C1003.63 1979.22 1003.94 1980.95 1004.56 1981.96C1005.18 1982.97 1006.28 1983.76 1007.86 1984.35C1009.43 1984.93 1011.69 1985.4 1014.63 1985.76C1015.24 1985.83 1015.54 1986.31 1015.54 1987.19C1015.54 1988.18 1015.25 1988.68 1014.69 1988.68C1012.31 1988.68 1009.48 1988.57 1006.18 1988.36C1003.03 1988.15 1000.38 1988.04 998.214 1988.04C996.053 1988.04 993.414 1988.15 990.297 1988.36C987.038 1988.57 984.222 1988.68 981.848 1988.68C981.282 1988.68 980.998 1988.18 980.998 1987.19C980.998 1986.31 981.282 1985.83 981.848 1985.76C984.789 1985.4 987.038 1984.93 988.597 1984.35C990.155 1983.76 991.245 1982.98 991.864 1981.98C992.484 1980.99 992.794 1979.26 992.794 1976.78L992.794 1926.78C992.794 1924.33 992.502 1922.61 991.918 1921.6C991.333 1920.59 990.262 1919.78 988.703 1919.18C987.144 1918.58 984.859 1918.1 981.848 1917.74C981.282 1917.74 980.998 1917.25 980.998 1916.26C980.998 1915.26 981.282 1914.77 981.848 1914.77C990.775 1915.19 999.915 1915.41 1009.27 1915.41C1018.12 1915.41 1027 1915.19 1035.89 1914.77C1037.06 1920.9 1038.38 1926.32 1039.87 1931.03Z"/>
<path d="M1089.24 1966.04C1089.24 1973.09 1086.94 1978.89 1082.35 1983.45C1077.77 1988 1071.82 1990.27 1064.53 1990.27C1057.23 1990.27 1051.28 1987.99 1046.67 1983.42C1042.07 1978.85 1039.77 1973.06 1039.77 1966.04C1039.77 1958.92 1042.09 1953 1046.73 1948.27C1051.37 1943.54 1057.3 1941.18 1064.53 1941.18C1071.79 1941.18 1077.72 1943.53 1082.33 1948.24C1086.93 1952.95 1089.24 1958.89 1089.24 1966.04ZM1078.56 1965.94C1078.56 1959.45 1077.31 1954.27 1074.81 1950.4C1072.31 1946.52 1068.88 1944.58 1064.53 1944.58C1060.21 1944.58 1056.79 1946.53 1054.27 1950.42C1051.76 1954.32 1050.5 1959.49 1050.5 1965.94C1050.5 1972.35 1051.74 1977.44 1054.22 1981.21C1056.7 1984.99 1060.14 1986.87 1064.53 1986.87C1068.92 1986.87 1072.36 1985 1074.84 1981.27C1077.32 1977.53 1078.56 1972.42 1078.56 1965.94Z"/>
<path d="M1132.54 1946.49C1132.54 1947.91 1132.11 1949.11 1131.24 1950.1C1130.37 1951.09 1129.32 1951.59 1128.08 1951.59C1126.52 1951.59 1124.98 1951.08 1123.46 1950.05C1122.25 1949.24 1121.21 1948.83 1120.32 1948.83C1118.02 1948.83 1115.64 1950.17 1113.2 1952.87L1113.2 1976.78C1113.2 1979.86 1113.73 1982.01 1114.79 1983.23C1115.86 1984.46 1118.12 1985.3 1121.6 1985.76C1122.16 1985.83 1122.45 1986.31 1122.45 1987.19C1122.45 1988.18 1122.16 1988.68 1121.6 1988.68C1120.14 1988.68 1118.09 1988.57 1115.43 1988.36C1112.49 1988.15 1110.15 1988.04 1108.42 1988.04C1106.65 1988.04 1104.5 1988.15 1101.99 1988.36C1099.72 1988.57 1097.86 1988.68 1096.41 1988.68C1095.84 1988.68 1095.56 1988.18 1095.56 1987.19C1095.56 1986.31 1095.84 1985.83 1096.41 1985.76C1099.49 1985.37 1101.47 1984.64 1102.33 1983.58C1103.2 1982.52 1103.64 1980.25 1103.64 1976.78L1103.64 1957.12C1103.64 1954.28 1103.27 1952.42 1102.55 1951.54C1101.82 1950.65 1100.2 1950.07 1097.68 1949.78C1097.12 1949.78 1096.83 1949.32 1096.83 1948.4C1096.83 1947.55 1097.12 1947.13 1097.68 1947.13C1101.19 1946.24 1104.09 1945.26 1106.37 1944.18C1108.66 1943.1 1110.15 1942.17 1110.86 1941.39C1111.29 1940.96 1111.71 1940.75 1112.14 1940.75C1113.13 1940.75 1113.63 1941.03 1113.63 1941.6L1113.2 1948.3C1116.03 1945.68 1118.47 1943.83 1120.51 1942.77C1122.54 1941.71 1124.57 1941.18 1126.59 1941.18C1128.22 1941.18 1129.62 1941.71 1130.79 1942.77C1131.96 1943.83 1132.54 1945.07 1132.54 1946.49Z"/>
<path d="M1219.84 1987.19C1219.84 1988.18 1219.56 1988.68 1218.99 1988.68C1217.58 1988.68 1215.84 1988.57 1213.79 1988.36C1211.52 1988.15 1209.5 1988.04 1207.73 1988.04C1205.99 1988.04 1203.99 1988.15 1201.72 1988.36C1199.67 1988.57 1197.92 1988.68 1196.46 1988.68C1195.9 1988.68 1195.61 1988.18 1195.61 1987.19C1195.61 1986.31 1195.9 1985.83 1196.46 1985.76C1198.87 1985.47 1200.45 1984.78 1201.19 1983.68C1201.94 1982.59 1202.31 1980.28 1202.31 1976.78L1202.31 1959.03C1202.31 1955.03 1201.55 1952.11 1200.02 1950.29C1198.5 1948.46 1196.11 1947.55 1192.85 1947.55C1188.56 1947.55 1185.02 1949 1182.22 1951.91L1182.22 1976.78C1182.22 1980.28 1182.61 1982.59 1183.39 1983.68C1184.17 1984.78 1185.77 1985.47 1188.17 1985.76C1188.74 1985.83 1189.02 1986.31 1189.02 1987.19C1189.02 1988.18 1188.74 1988.68 1188.17 1988.68C1186.76 1988.68 1185.11 1988.57 1183.23 1988.36C1181.18 1988.15 1179.3 1988.04 1177.6 1988.04C1175.83 1988.04 1173.9 1988.15 1171.81 1988.36C1169.93 1988.57 1168.28 1988.68 1166.87 1988.68C1166.3 1988.68 1166.02 1988.18 1166.02 1987.19C1166.02 1986.31 1166.3 1985.83 1166.87 1985.76C1169.31 1985.47 1170.91 1984.78 1171.68 1983.68C1172.44 1982.59 1172.82 1980.28 1172.82 1976.78L1172.82 1959.03C1172.82 1955.06 1172.04 1952.16 1170.48 1950.32C1168.92 1948.47 1166.51 1947.55 1163.25 1947.55C1161.2 1947.55 1159.38 1947.94 1157.81 1948.72C1156.23 1949.5 1154.54 1950.88 1152.73 1952.87L1152.73 1976.78C1152.73 1980.28 1153.11 1982.59 1153.88 1983.68C1154.64 1984.78 1156.24 1985.47 1158.68 1985.76C1159.25 1985.83 1159.53 1986.31 1159.53 1987.19C1159.53 1988.18 1159.25 1988.68 1158.68 1988.68C1157.23 1988.68 1155.46 1988.57 1153.37 1988.36C1151.07 1988.15 1149.05 1988.04 1147.31 1988.04C1145.54 1988.04 1143.52 1988.15 1141.26 1988.36C1139.24 1988.57 1137.5 1988.68 1136.05 1988.68C1135.48 1988.68 1135.2 1988.18 1135.2 1987.19C1135.2 1986.31 1135.48 1985.83 1136.05 1985.76C1139.06 1985.37 1141 1984.64 1141.87 1983.58C1142.73 1982.52 1143.17 1980.25 1143.17 1976.78L1143.17 1957.12C1143.17 1954.28 1142.81 1952.42 1142.08 1951.54C1141.35 1950.65 1139.77 1950.07 1137.32 1949.78C1136.76 1949.78 1136.47 1949.32 1136.47 1948.4C1136.47 1947.55 1136.76 1947.13 1137.32 1947.13C1140.83 1946.24 1143.75 1945.24 1146.09 1944.13C1148.43 1943.01 1149.9 1942.1 1150.5 1941.39C1150.86 1940.96 1151.25 1940.75 1151.67 1940.75C1152.66 1940.75 1153.16 1941.03 1153.16 1941.6L1152.73 1948.3C1157.83 1943.55 1162.58 1941.18 1166.97 1941.18C1173.7 1941.18 1178.27 1943.76 1180.68 1948.93C1186.07 1943.76 1191.33 1941.18 1196.46 1941.18C1201.32 1941.18 1205.1 1942.56 1207.81 1945.32C1210.52 1948.08 1211.87 1951.8 1211.87 1956.48L1211.87 1976.78C1211.87 1980.25 1212.31 1982.52 1213.17 1983.58C1214.04 1984.64 1215.98 1985.37 1218.99 1985.76C1219.56 1985.83 1219.84 1986.31 1219.84 1987.19Z"/>
<path d="M1266.23 1958.5C1266.23 1959.49 1265.59 1959.99 1264.32 1959.99L1235.2 1959.99C1234.99 1961.9 1234.88 1963.88 1234.88 1965.94C1234.88 1971.64 1236.24 1976.02 1238.95 1979.09C1241.66 1982.15 1245.51 1983.68 1250.5 1983.68C1253.02 1983.68 1255.55 1983.01 1258.1 1981.67C1260.65 1980.32 1262.71 1978.6 1264.26 1976.51L1264.53 1976.41C1264.85 1976.41 1265.16 1976.6 1265.46 1976.99C1265.76 1977.38 1265.91 1977.84 1265.91 1978.37C1265.91 1979.12 1264.78 1980.67 1262.51 1983.02C1260.24 1985.38 1257.78 1987.17 1255.13 1988.41C1252.47 1989.65 1249.69 1990.27 1246.78 1990.27C1240.41 1990.27 1235.04 1987.94 1230.68 1983.26C1226.33 1978.58 1224.15 1972.85 1224.15 1966.04C1224.15 1959.1 1226.28 1953.22 1230.55 1948.4C1234.82 1943.59 1240.23 1941.18 1246.78 1941.18C1252.27 1941.18 1256.89 1942.97 1260.63 1946.57C1264.36 1950.17 1266.23 1954.14 1266.23 1958.5ZM1256.56 1953.82C1256.56 1951.17 1255.65 1948.96 1253.82 1947.21C1252 1945.45 1249.65 1944.58 1246.78 1944.58C1244.06 1944.58 1241.69 1945.72 1239.69 1948C1237.69 1950.29 1236.33 1953.29 1235.62 1957.01L1250.4 1956.59C1252.63 1956.55 1254.21 1956.34 1255.15 1955.95C1256.09 1955.56 1256.56 1954.85 1256.56 1953.82Z"/>
<path d="M1297.26 1987.09C1297.26 1988.08 1296.98 1988.57 1296.41 1988.57C1294.96 1988.57 1293.1 1988.48 1290.83 1988.31C1288.28 1988.13 1286.14 1988.04 1284.4 1988.04C1282.7 1988.04 1280.6 1988.13 1278.08 1988.31C1275.81 1988.48 1273.95 1988.57 1272.5 1988.57C1271.93 1988.57 1271.65 1988.08 1271.65 1987.09C1271.65 1986.2 1271.93 1985.72 1272.5 1985.65C1275.51 1985.3 1277.47 1984.58 1278.37 1983.5C1279.28 1982.42 1279.73 1980.14 1279.73 1976.67L1279.73 1927.31C1279.73 1924.44 1279.37 1922.56 1278.66 1921.68C1277.96 1920.79 1276.33 1920.21 1273.78 1919.92C1273.21 1919.85 1272.93 1919.41 1272.93 1918.59C1272.93 1917.74 1273.21 1917.32 1273.78 1917.32C1277.5 1916.36 1280.54 1915.34 1282.92 1914.26C1285.29 1913.18 1286.78 1912.27 1287.38 1911.53C1287.73 1911.14 1288.12 1910.94 1288.55 1910.94C1289.54 1910.94 1290.04 1911.23 1290.04 1911.79C1289.47 1919.73 1289.19 1925.89 1289.19 1930.28L1289.19 1976.67C1289.19 1980.14 1289.63 1982.42 1290.51 1983.5C1291.4 1984.58 1293.37 1985.3 1296.41 1985.65C1296.98 1985.72 1297.26 1986.2 1297.26 1987.09Z"/>
<path d="M1334.88 1974.97C1334.88 1979.29 1333.18 1982.92 1329.78 1985.86C1326.38 1988.8 1322.27 1990.27 1317.45 1990.27C1315.75 1990.27 1313.13 1989.9 1309.59 1989.16C1306.93 1988.63 1305.13 1988.36 1304.17 1988.36C1303.89 1985.88 1303.23 1982.11 1302.2 1977.04C1302.2 1976.51 1302.72 1976.25 1303.74 1976.25C1304.59 1976.25 1305.11 1976.53 1305.29 1977.1C1306.1 1979.72 1307.71 1982 1310.12 1983.95C1312.53 1985.9 1315.01 1986.87 1317.56 1986.87C1320.22 1986.87 1322.28 1986.15 1323.75 1984.69C1325.22 1983.24 1325.96 1981.21 1325.96 1978.58C1325.96 1976.92 1325.34 1975.45 1324.12 1974.17C1322.9 1972.9 1320.25 1971.32 1316.18 1969.44C1310.83 1967 1307.3 1964.7 1305.58 1962.54C1303.86 1960.38 1303 1957.79 1303 1954.78C1303 1951.06 1304.61 1947.86 1307.84 1945.19C1311.06 1942.51 1314.87 1941.18 1319.26 1941.18C1321.1 1941.18 1323.69 1941.5 1327.02 1942.13C1328.86 1942.49 1330.06 1942.66 1330.63 1942.66C1330.74 1946.84 1330.97 1950.4 1331.32 1953.34C1331.32 1953.88 1330.81 1954.14 1329.78 1954.14C1328.9 1954.14 1328.4 1953.86 1328.29 1953.29C1327.9 1950.71 1326.93 1948.61 1325.37 1946.99C1323.81 1945.38 1321.95 1944.58 1319.79 1944.58C1314.27 1944.58 1311.5 1946.99 1311.5 1951.8C1311.5 1953.43 1312.16 1954.94 1313.47 1956.32C1314.78 1957.7 1317.63 1959.49 1322.02 1961.69C1327.27 1964.31 1330.72 1966.58 1332.38 1968.49C1334.05 1970.4 1334.88 1972.56 1334.88 1974.97Z"/>
<path d="M1376.22 1989.85C1374.24 1989.85 1372.51 1989.36 1371.04 1988.39C1369.57 1987.41 1368.57 1986.09 1368.04 1984.43C1364.25 1988.33 1359.29 1990.27 1353.16 1990.27C1349.97 1990.27 1347.37 1989.29 1345.35 1987.32C1343.33 1985.36 1342.32 1982.91 1342.32 1979.97C1342.32 1972.7 1350.93 1966.82 1368.15 1962.32L1368.46 1954.04L1368.46 1953.77C1368.46 1951.22 1367.84 1949.19 1366.58 1947.69C1365.32 1946.18 1363.65 1945.43 1361.56 1945.43C1359.47 1945.43 1357.7 1945.93 1356.24 1946.94C1354.79 1947.95 1354.05 1949.22 1354.01 1950.74C1353.98 1953.01 1353.38 1954.78 1352.23 1956.05C1351.08 1957.33 1349.55 1957.97 1347.63 1957.97C1346.5 1957.97 1345.58 1957.63 1344.87 1956.96C1344.16 1956.28 1343.81 1955.38 1343.81 1954.25C1343.81 1951.52 1346.29 1948.66 1351.25 1945.67C1356.21 1942.67 1360.81 1941.18 1365.06 1941.18C1368.89 1941.18 1371.99 1942.31 1374.36 1944.58C1376.74 1946.84 1377.92 1949.89 1377.92 1953.72L1377.92 1954.35L1377.18 1978.37L1377.18 1978.74C1377.18 1982.46 1378.38 1984.32 1380.79 1984.32C1381.96 1984.32 1383.32 1983.61 1384.88 1982.2L1385.25 1982.09C1385.54 1982.09 1385.8 1982.28 1386.05 1982.65C1386.3 1983.02 1386.42 1983.42 1386.42 1983.84C1386.42 1984.87 1385.35 1986.13 1383.21 1987.62C1381.07 1989.1 1378.74 1989.85 1376.22 1989.85ZM1368.04 1965.94C1357.7 1968.28 1352.52 1972.14 1352.52 1977.52C1352.52 1982.55 1354.47 1985.07 1358.37 1985.07C1360.25 1985.07 1362.1 1984.6 1363.92 1983.66C1365.75 1982.72 1366.98 1981.56 1367.61 1980.18L1368.04 1965.94Z"/>
<path d="M1472.98 1987.19C1472.98 1988.18 1472.7 1988.68 1472.13 1988.68C1470.71 1988.68 1468.98 1988.57 1466.92 1988.36C1464.66 1988.15 1462.64 1988.04 1460.87 1988.04C1459.13 1988.04 1457.13 1988.15 1454.86 1988.36C1452.81 1988.57 1451.05 1988.68 1449.6 1988.68C1449.04 1988.68 1448.75 1988.18 1448.75 1987.19C1448.75 1986.31 1449.04 1985.83 1449.6 1985.76C1452.01 1985.47 1453.59 1984.78 1454.33 1983.68C1455.08 1982.59 1455.45 1980.28 1455.45 1976.78L1455.45 1959.03C1455.45 1955.03 1454.69 1952.11 1453.16 1950.29C1451.64 1948.46 1449.25 1947.55 1445.99 1947.55C1441.7 1947.55 1438.16 1949 1435.36 1951.91L1435.36 1976.78C1435.36 1980.28 1435.75 1982.59 1436.53 1983.68C1437.31 1984.78 1438.9 1985.47 1441.31 1985.76C1441.88 1985.83 1442.16 1986.31 1442.16 1987.19C1442.16 1988.18 1441.88 1988.68 1441.31 1988.68C1439.9 1988.68 1438.25 1988.57 1436.37 1988.36C1434.32 1988.15 1432.44 1988.04 1430.74 1988.04C1428.97 1988.04 1427.04 1988.15 1424.95 1988.36C1423.07 1988.57 1421.42 1988.68 1420.01 1988.68C1419.44 1988.68 1419.16 1988.18 1419.16 1987.19C1419.16 1986.31 1419.44 1985.83 1420.01 1985.76C1422.45 1985.47 1424.05 1984.78 1424.81 1983.68C1425.58 1982.59 1425.96 1980.28 1425.96 1976.78L1425.96 1959.03C1425.96 1955.06 1425.18 1952.16 1423.62 1950.32C1422.06 1948.47 1419.65 1947.55 1416.39 1947.55C1414.34 1947.55 1412.52 1947.94 1410.95 1948.72C1409.37 1949.5 1407.68 1950.88 1405.87 1952.87L1405.87 1976.78C1405.87 1980.28 1406.25 1982.59 1407.01 1983.68C1407.78 1984.78 1409.38 1985.47 1411.82 1985.76C1412.39 1985.83 1412.67 1986.31 1412.67 1987.19C1412.67 1988.18 1412.39 1988.68 1411.82 1988.68C1410.37 1988.68 1408.6 1988.57 1406.51 1988.36C1404.21 1988.15 1402.19 1988.04 1400.45 1988.04C1398.68 1988.04 1396.66 1988.15 1394.39 1988.36C1392.38 1988.57 1390.64 1988.68 1389.19 1988.68C1388.62 1988.68 1388.34 1988.18 1388.34 1987.19C1388.34 1986.31 1388.62 1985.83 1389.19 1985.76C1392.2 1985.37 1394.14 1984.64 1395.01 1983.58C1395.87 1982.52 1396.31 1980.25 1396.31 1976.78L1396.31 1957.12C1396.31 1954.28 1395.94 1952.42 1395.22 1951.54C1394.49 1950.65 1392.91 1950.07 1390.46 1949.78C1389.9 1949.78 1389.61 1949.32 1389.61 1948.4C1389.61 1947.55 1389.9 1947.13 1390.46 1947.13C1393.97 1946.24 1396.89 1945.24 1399.23 1944.13C1401.57 1943.01 1403.04 1942.1 1403.64 1941.39C1403.99 1940.96 1404.38 1940.75 1404.81 1940.75C1405.8 1940.75 1406.3 1941.03 1406.3 1941.6L1405.87 1948.3C1410.97 1943.55 1415.72 1941.18 1420.11 1941.18C1426.84 1941.18 1431.41 1943.76 1433.82 1948.93C1439.21 1943.76 1444.47 1941.18 1449.6 1941.18C1454.46 1941.18 1458.24 1942.56 1460.95 1945.32C1463.66 1948.08 1465.01 1951.8 1465.01 1956.48L1465.01 1976.78C1465.01 1980.25 1465.45 1982.52 1466.31 1983.58C1467.18 1984.64 1469.12 1985.37 1472.13 1985.76C1472.7 1985.83 1472.98 1986.31 1472.98 1987.19Z"/>
<path d="M1560.87 1987.19C1560.87 1988.18 1560.59 1988.68 1560.02 1988.68C1558.6 1988.68 1556.87 1988.57 1554.81 1988.36C1552.54 1988.15 1550.52 1988.04 1548.75 1988.04C1547.02 1988.04 1545.02 1988.15 1542.75 1988.36C1540.69 1988.57 1538.94 1988.68 1537.49 1988.68C1536.92 1988.68 1536.64 1988.18 1536.64 1987.19C1536.64 1986.31 1536.92 1985.83 1537.49 1985.76C1539.9 1985.47 1541.47 1984.78 1542.22 1983.68C1542.96 1982.59 1543.33 1980.28 1543.33 1976.78L1543.33 1959.03C1543.33 1955.03 1542.57 1952.11 1541.05 1950.29C1539.53 1948.46 1537.13 1947.55 1533.88 1947.55C1529.59 1947.55 1526.05 1949 1523.25 1951.91L1523.25 1976.78C1523.25 1980.28 1523.64 1982.59 1524.42 1983.68C1525.2 1984.78 1526.79 1985.47 1529.2 1985.76C1529.77 1985.83 1530.05 1986.31 1530.05 1987.19C1530.05 1988.18 1529.77 1988.68 1529.2 1988.68C1527.78 1988.68 1526.14 1988.57 1524.26 1988.36C1522.2 1988.15 1520.33 1988.04 1518.63 1988.04C1516.85 1988.04 1514.92 1988.15 1512.83 1988.36C1510.96 1988.57 1509.31 1988.68 1507.89 1988.68C1507.33 1988.68 1507.04 1988.18 1507.04 1987.19C1507.04 1986.31 1507.33 1985.83 1507.89 1985.76C1510.34 1985.47 1511.94 1984.78 1512.7 1983.68C1513.46 1982.59 1513.84 1980.28 1513.84 1976.78L1513.84 1959.03C1513.84 1955.06 1513.06 1952.16 1511.51 1950.32C1509.95 1948.47 1507.54 1947.55 1504.28 1947.55C1502.22 1947.55 1500.41 1947.94 1498.83 1948.72C1497.26 1949.5 1495.56 1950.88 1493.76 1952.87L1493.76 1976.78C1493.76 1980.28 1494.14 1982.59 1494.9 1983.68C1495.66 1984.78 1497.27 1985.47 1499.71 1985.76C1500.28 1985.83 1500.56 1986.31 1500.56 1987.19C1500.56 1988.18 1500.28 1988.68 1499.71 1988.68C1498.26 1988.68 1496.49 1988.57 1494.4 1988.36C1492.09 1988.15 1490.07 1988.04 1488.34 1988.04C1486.57 1988.04 1484.55 1988.15 1482.28 1988.36C1480.26 1988.57 1478.53 1988.68 1477.07 1988.68C1476.51 1988.68 1476.22 1988.18 1476.22 1987.19C1476.22 1986.31 1476.51 1985.83 1477.07 1985.76C1480.08 1985.37 1482.02 1984.64 1482.89 1983.58C1483.76 1982.52 1484.19 1980.25 1484.19 1976.78L1484.19 1957.12C1484.19 1954.28 1483.83 1952.42 1483.1 1951.54C1482.38 1950.65 1480.79 1950.07 1478.35 1949.78C1477.78 1949.78 1477.5 1949.32 1477.5 1948.4C1477.5 1947.55 1477.78 1947.13 1478.35 1947.13C1481.86 1946.24 1484.78 1945.24 1487.12 1944.13C1489.45 1943.01 1490.92 1942.1 1491.53 1941.39C1491.88 1940.96 1492.27 1940.75 1492.7 1940.75C1493.69 1940.75 1494.18 1941.03 1494.18 1941.6L1493.76 1948.3C1498.86 1943.55 1503.61 1941.18 1508 1941.18C1514.73 1941.18 1519.3 1943.76 1521.71 1948.93C1527.09 1943.76 1532.35 1941.18 1537.49 1941.18C1542.34 1941.18 1546.12 1942.56 1548.83 1945.32C1551.54 1948.08 1552.9 1951.8 1552.9 1956.48L1552.9 1976.78C1552.9 1980.25 1553.33 1982.52 1554.2 1983.58C1555.07 1984.64 1557.01 1985.37 1560.02 1985.76C1560.59 1985.83 1560.87 1986.31 1560.87 1987.19Z"/>
<path d="M1588.55 1987.09C1588.55 1988.08 1588.27 1988.57 1587.7 1988.57C1586.25 1988.57 1584.39 1988.48 1582.12 1988.31C1579.57 1988.13 1577.43 1988.04 1575.69 1988.04C1573.99 1988.04 1571.89 1988.13 1569.37 1988.31C1567.1 1988.48 1565.24 1988.57 1563.79 1988.57C1563.22 1988.57 1562.94 1988.08 1562.94 1987.09C1562.94 1986.2 1563.22 1985.72 1563.79 1985.65C1566.8 1985.3 1568.76 1984.58 1569.66 1983.5C1570.57 1982.42 1571.02 1980.14 1571.02 1976.67L1571.02 1927.31C1571.02 1924.44 1570.66 1922.56 1569.95 1921.68C1569.25 1920.79 1567.62 1920.21 1565.07 1919.92C1564.5 1919.85 1564.22 1919.41 1564.22 1918.59C1564.22 1917.74 1564.5 1917.32 1565.07 1917.32C1568.79 1916.36 1571.83 1915.34 1574.21 1914.26C1576.58 1913.18 1578.07 1912.27 1578.67 1911.53C1579.02 1911.14 1579.41 1910.94 1579.84 1910.94C1580.83 1910.94 1581.33 1911.23 1581.33 1911.79C1580.76 1919.73 1580.48 1925.89 1580.48 1930.28L1580.48 1976.67C1580.48 1980.14 1580.92 1982.42 1581.8 1983.5C1582.69 1984.58 1584.66 1985.3 1587.7 1985.65C1588.27 1985.72 1588.55 1986.2 1588.55 1987.09Z"/>
<path d="M1643.34 1985.17C1643.34 1985.92 1643.05 1986.32 1642.49 1986.39C1636.04 1987.1 1631.63 1988.34 1629.25 1990.11C1628.76 1990.5 1628.26 1990.7 1627.77 1990.7C1627.06 1990.7 1626.7 1990.42 1626.7 1989.85L1627.13 1983.15C1621.89 1987.9 1617.14 1990.27 1612.89 1990.27C1608.04 1990.27 1604.25 1988.9 1601.54 1986.16C1598.83 1983.41 1597.48 1979.68 1597.48 1974.97L1597.48 1955.1C1597.48 1951.95 1597.07 1949.86 1596.26 1948.83C1595.44 1947.8 1593.83 1947.29 1591.42 1947.29C1590.96 1947.29 1590.45 1947.3 1589.88 1947.34C1589.35 1947.34 1589.08 1946.88 1589.08 1945.96C1589.08 1944.82 1589.37 1944.26 1589.93 1944.26C1594.04 1944.26 1599.43 1943.46 1606.09 1941.87C1606.72 1941.87 1607.04 1942.31 1607.04 1943.2L1607.04 1972.42C1607.04 1976.42 1607.81 1979.34 1609.33 1981.16C1610.85 1982.99 1613.24 1983.9 1616.5 1983.9C1618.59 1983.9 1620.43 1983.51 1622.03 1982.73C1623.62 1981.95 1625.32 1980.57 1627.13 1978.58L1627.13 1955.1C1627.13 1951.98 1626.71 1949.9 1625.88 1948.85C1625.05 1947.81 1623.39 1947.29 1620.91 1947.29C1620.49 1947.29 1619.99 1947.3 1619.42 1947.34C1618.89 1947.34 1618.63 1946.88 1618.63 1945.96C1618.63 1944.82 1618.91 1944.26 1619.48 1944.26C1623.59 1944.26 1628.97 1943.46 1635.63 1941.87C1636.27 1941.87 1636.59 1942.31 1636.59 1943.2L1636.59 1977.1C1636.59 1979.54 1636.93 1981.18 1637.62 1982.01C1638.31 1982.84 1639.93 1983.44 1642.49 1983.79C1643.05 1983.79 1643.34 1984.25 1643.34 1985.17Z"/>
<path d="M1702.21 1987.19C1702.21 1988.18 1701.93 1988.68 1701.36 1988.68C1699.94 1988.68 1698.21 1988.57 1696.15 1988.36C1693.89 1988.15 1691.88 1988.04 1690.15 1988.04C1688.38 1988.04 1686.34 1988.15 1684.04 1988.36C1681.95 1988.57 1680.19 1988.68 1678.78 1988.68C1678.21 1988.68 1677.93 1988.18 1677.93 1987.19C1677.93 1986.31 1678.21 1985.83 1678.78 1985.76C1681.22 1985.47 1682.82 1984.78 1683.59 1983.68C1684.35 1982.59 1684.73 1980.28 1684.73 1976.78L1684.73 1959.03C1684.73 1955.06 1683.95 1952.16 1682.39 1950.32C1680.83 1948.47 1678.42 1947.55 1675.16 1947.55C1673.11 1947.55 1671.29 1947.94 1669.72 1948.72C1668.14 1949.5 1666.45 1950.88 1664.64 1952.87L1664.64 1976.78C1664.64 1980.28 1665.02 1982.59 1665.79 1983.68C1666.55 1984.78 1668.15 1985.47 1670.59 1985.76C1671.16 1985.83 1671.44 1986.31 1671.44 1987.19C1671.44 1988.18 1671.16 1988.68 1670.59 1988.68C1669.14 1988.68 1667.37 1988.57 1665.28 1988.36C1662.98 1988.15 1660.96 1988.04 1659.22 1988.04C1657.52 1988.04 1655.54 1988.15 1653.27 1988.36C1651.18 1988.57 1649.41 1988.68 1647.96 1988.68C1647.39 1988.68 1647.11 1988.18 1647.11 1987.19C1647.11 1986.31 1647.39 1985.83 1647.96 1985.76C1651 1985.37 1652.97 1984.63 1653.86 1983.55C1654.74 1982.47 1655.18 1980.21 1655.18 1976.78L1655.18 1957.12C1655.18 1954.28 1654.82 1952.42 1654.1 1951.54C1653.37 1950.65 1651.75 1950.07 1649.23 1949.78C1648.67 1949.78 1648.38 1949.32 1648.38 1948.4C1648.38 1947.55 1648.67 1947.13 1649.23 1947.13C1652.74 1946.24 1655.66 1945.24 1658 1944.13C1660.34 1943.01 1661.81 1942.1 1662.41 1941.39C1662.77 1940.96 1663.15 1940.75 1663.58 1940.75C1664.57 1940.75 1665.07 1941.03 1665.07 1941.6L1664.64 1948.3C1669.74 1943.55 1674.49 1941.18 1678.88 1941.18C1683.7 1941.18 1687.46 1942.56 1690.17 1945.32C1692.88 1948.08 1694.24 1951.8 1694.24 1956.48L1694.24 1976.78C1694.24 1980.25 1694.67 1982.52 1695.54 1983.58C1696.41 1984.64 1698.35 1985.37 1701.36 1985.76C1701.93 1985.83 1702.21 1986.31 1702.21 1987.19Z"/>
<path d="M1753.65 1949.04C1753.65 1950.95 1753.18 1951.91 1752.26 1951.91L1745.52 1951.7C1746.29 1953.72 1746.68 1955.77 1746.68 1957.86C1746.68 1962.96 1744.82 1967.21 1741.08 1970.61C1737.34 1974.01 1732.76 1975.71 1727.34 1975.71L1725.22 1975.71C1722.38 1975.71 1720.13 1976.09 1718.47 1976.83C1716.8 1977.57 1715.97 1978.44 1715.97 1979.43C1715.97 1980.67 1716.66 1981.69 1718.04 1982.49C1719.43 1983.29 1721.36 1983.7 1723.84 1983.74L1736.16 1983.9C1741.48 1984 1745.61 1985.12 1748.57 1987.24C1751.53 1989.37 1753.01 1992.33 1753.01 1996.12C1753.01 2001.86 1749.89 2006.87 1743.66 2011.16C1737.42 2015.44 1730.04 2017.59 1721.5 2017.59C1715.9 2017.59 1711.19 2016.22 1707.36 2013.49C1703.54 2010.77 1701.63 2007.45 1701.63 2003.56C1701.63 2000.94 1702.84 1998.38 1705.27 1995.88C1707.69 1993.38 1710.55 1991.55 1713.85 1990.38C1711.65 1989.39 1709.86 1987.98 1708.48 1986.16C1707.1 1984.33 1706.41 1982.52 1706.41 1980.71C1706.41 1979.43 1707.71 1978.07 1710.31 1976.62C1712.92 1975.17 1715.62 1974.19 1718.42 1973.7C1715.37 1972.21 1713 1970.22 1711.3 1967.74C1709.6 1965.26 1708.75 1962.5 1708.75 1959.45C1708.75 1954.57 1710.63 1950.3 1714.4 1946.65C1718.18 1943 1722.67 1941.18 1727.87 1941.18C1730.64 1941.18 1733.36 1941.65 1736.03 1942.61C1738.71 1943.57 1740.91 1944.86 1742.65 1946.49L1752.26 1946.17C1753.18 1946.17 1753.65 1947.13 1753.65 1949.04ZM1736.69 1957.75C1736.69 1953.22 1736 1949.89 1734.6 1947.77C1733.2 1945.64 1730.96 1944.58 1727.87 1944.58C1721.99 1944.58 1719.05 1949.54 1719.05 1959.45C1719.05 1963.95 1719.74 1967.22 1721.1 1969.26C1722.46 1971.3 1724.72 1972.31 1727.87 1972.31C1733.75 1972.31 1736.69 1967.46 1736.69 1957.75ZM1746.37 2000.05C1746.37 1997.61 1745.56 1995.85 1743.95 1994.79C1742.34 1993.73 1739.63 1993.16 1735.84 1993.09L1723.52 1992.82C1721.07 1992.82 1718.91 1992.47 1717.03 1991.76C1712.71 1994.13 1710.55 1997.25 1710.55 2001.11C1710.55 2004.62 1712.02 2007.46 1714.96 2009.64C1717.9 2011.82 1721.64 2012.91 1726.17 2012.91C1731.63 2012.91 1736.36 2011.67 1740.36 2009.19C1744.36 2006.71 1746.37 2003.66 1746.37 2000.05Z"/>
</g>
<g opacity="1">
<path d="M1715.28 1820.72C1703.26 1820.8 1691.33 1822.98 1679.31 1823C1674.42 1823.01 1669.51 1822.65 1664.62 1822.38C1654.53 1821.8 1644.36 1821.05 1634.25 1821.53C1630.01 1821.73 1625.82 1822.19 1621.62 1822.78C1614.76 1823.75 1607.92 1825.14 1600.97 1825.28C1593.92 1825.42 1586.9 1824.2 1579.91 1823.47C1573.69 1822.82 1567.49 1822.68 1561.25 1822.94C1547.89 1823.5 1534.63 1825.83 1521.25 1825.94C1509.46 1826.03 1497.7 1824.55 1485.91 1825C1479.62 1825.24 1473.39 1825.91 1467.12 1826.53C1462.4 1827 1457.63 1827.48 1452.88 1827.41C1439.02 1827.19 1425.45 1823.46 1411.56 1823.62C1404.18 1823.71 1396.92 1825.03 1389.66 1826.22C1385.48 1826.9 1381.21 1827.66 1376.97 1827.72C1374.88 1827.75 1372.74 1827.78 1370.66 1827.69C1366.88 1827.53 1363.1 1827.02 1359.34 1826.59C1351.42 1825.68 1343.44 1824.57 1335.44 1824.91C1331.49 1825.07 1327.57 1825.52 1323.66 1826.09C1315.92 1827.22 1308.26 1828.9 1300.41 1828.88C1288.57 1828.84 1276.95 1826.13 1265.16 1825.41C1255.4 1824.81 1245.73 1825.99 1236 1826.41C1232.67 1826.55 1229.3 1826.55 1225.97 1826.44C1213.57 1826.03 1201.27 1824.08 1188.84 1824.03C1183.07 1824.01 1177.32 1824.57 1171.62 1825.5C1164.87 1826.61 1158.17 1828.26 1151.31 1828.59C1146.98 1828.8 1142.63 1828.29 1138.34 1827.69C1131.77 1826.77 1125.16 1825.52 1118.5 1825.41C1113.44 1825.32 1108.38 1825.55 1103.34 1826.03C1094.16 1826.91 1085.04 1828.63 1075.81 1828.94C1059.77 1829.48 1043.85 1826.86 1027.88 1825.91C1015.31 1825.16 1002.79 1825.52 990.5 1828.44C985.272 1829.68 982.04 1834.93 983.281 1840.16C984.522 1845.38 989.772 1848.62 995 1847.38C1009.36 1843.96 1024.07 1844.93 1038.62 1846.28C1051.21 1847.45 1063.8 1848.84 1076.47 1848.41C1084.98 1848.12 1093.43 1846.78 1101.88 1845.81C1105.14 1845.44 1108.44 1845.07 1111.72 1844.94C1113.87 1844.85 1116.04 1844.87 1118.19 1844.91C1123.12 1844.98 1128.07 1845.95 1132.94 1846.66C1139.32 1847.59 1145.75 1848.41 1152.22 1848.12C1158.92 1847.83 1165.5 1846.5 1172.09 1845.31C1174.72 1844.84 1177.38 1844.35 1180.03 1844.06C1182.92 1843.74 1185.84 1843.64 1188.75 1843.66C1199.17 1843.71 1209.52 1845.1 1219.91 1845.75C1222.13 1845.89 1224.34 1846.07 1226.56 1846.09C1230.89 1846.14 1235.21 1846.18 1239.53 1845.94C1247.65 1845.49 1255.76 1844.6 1263.91 1845.12C1276.09 1845.91 1288.06 1848.68 1300.31 1848.75C1305.53 1848.78 1310.69 1848.26 1315.84 1847.5C1322.63 1846.5 1329.38 1845.12 1336.25 1844.84C1342.61 1844.59 1348.98 1845.53 1355.28 1846.28C1360.08 1846.86 1364.91 1847.5 1369.75 1847.72C1372.23 1847.83 1374.77 1847.82 1377.25 1847.78C1388.87 1847.6 1400.16 1843.85 1411.78 1843.75C1418.79 1843.69 1425.74 1844.8 1432.66 1845.78C1439.26 1846.72 1445.86 1847.55 1452.53 1847.66C1463.96 1847.84 1475.29 1845.7 1486.69 1845.28C1498.27 1844.86 1509.83 1846.38 1521.41 1846.31C1535.03 1846.23 1548.52 1843.94 1562.12 1843.38C1566.13 1843.21 1570.13 1843.19 1574.12 1843.5C1583.2 1844.21 1592.21 1845.91 1601.34 1845.75C1612.75 1845.55 1623.84 1842.53 1635.22 1842C1646.96 1841.46 1658.75 1842.69 1670.47 1843.22C1673.43 1843.35 1676.38 1843.5 1679.34 1843.5C1691.42 1843.49 1703.37 1841.4 1715.44 1841.28C1718.52 1841.25 1721.58 1841.71 1724.62 1842.16C1727.25 1842.54 1729.9 1842.94 1732.53 1843.28C1738.16 1844 1743.28 1840.01 1744 1834.38C1744.72 1828.74 1740.76 1823.59 1735.12 1822.88C1728.53 1822.04 1721.95 1820.67 1715.28 1820.72Z" fill="#636c73" fill-opacity="0.831081" stroke="none"/>
</g>
<g opacity="1">
<path d="M1057.28 2079.09C1040.37 2078.42 1023.62 2082.05 1007.69 2087.47C1002.6 2089.2 999.867 2094.72 1001.59 2099.81C1003.32 2104.9 1008.85 2107.6 1013.94 2105.88C1027.56 2101.27 1041.91 2098.02 1056.38 2098.81C1064.38 2099.25 1072.2 2101.06 1080.12 2102.16C1084.28 2102.73 1088.46 2103.11 1092.66 2103.25C1103.57 2103.62 1114.47 2102.29 1125.34 2101.72C1127.89 2101.59 1130.45 2101.5 1133 2101.44C1135.56 2101.37 1138.15 2101.48 1140.72 2101.5C1146.39 2101.54 1151.02 2096.96 1151.06 2091.28C1151.1 2085.61 1146.55 2080.98 1140.88 2080.94C1138.09 2080.92 1135.29 2080.83 1132.5 2080.91C1127.05 2081.05 1121.62 2081.43 1116.19 2081.81C1108.6 2082.35 1100.86 2083.18 1093.25 2083C1091.48 2082.96 1089.7 2082.9 1087.94 2082.78C1083.48 2082.47 1079.04 2081.71 1074.62 2081.03C1068.88 2080.15 1063.1 2079.33 1057.28 2079.09Z" fill="#636c73" fill-opacity="0.831081" stroke="none"/>
</g>
<g opacity="1">
<path d="M1346.03 2089.66C1322.05 2092.7 1297.9 2093.6 1273.75 2093.56C1261.49 2093.54 1249.25 2093.07 1237 2092.69C1231.63 2092.51 1227.11 2096.72 1226.94 2102.09C1226.76 2107.46 1230.97 2111.95 1236.34 2112.12C1259.62 2112.9 1282.96 2113.88 1306.25 2113.25C1320.41 2112.86 1334.5 2111.76 1348.56 2110.03C1354.19 2109.33 1358.2 2104.19 1357.5 2098.56C1356.8 2092.93 1351.66 2088.95 1346.03 2089.66Z" fill="#636c73" fill-opacity="0.831081" stroke="none"/>
</g>
<g opacity="1">
<path d="M1497.22 2074.09C1482.07 2074.01 1466.97 2075.15 1451.88 2076.25C1435.59 2077.44 1419.27 2078.23 1403.12 2080.81C1397.82 2081.66 1394.22 2086.66 1395.06 2091.97C1395.91 2097.28 1400.88 2100.87 1406.19 2100.03C1422.83 2097.4 1439.67 2096.82 1456.47 2095.81C1473.89 2094.77 1491.36 2093.87 1508.81 2094.91C1515.73 2095.32 1522.59 2096.1 1529.44 2097.16C1535.05 2098.01 1540.3 2094.17 1541.16 2088.56C1542.01 2082.95 1538.17 2077.7 1532.56 2076.84C1520.85 2075.08 1509.06 2074.16 1497.22 2074.09Z" fill="#636c73" fill-opacity="0.831081" stroke="none"/>
</g>
<g opacity="1">
<path d="M1743.62 2079.72C1730.72 2080.38 1718.03 2082.78 1705.31 2084.94C1701.33 2085.61 1697.35 2086.22 1693.34 2086.78C1691.64 2087.02 1689.93 2087.35 1688.22 2087.53C1684.64 2087.91 1681.02 2088.06 1677.44 2088.31C1671.78 2088.73 1667.55 2093.65 1667.97 2099.31C1668.39 2104.97 1673.31 2109.2 1678.97 2108.78C1682.8 2108.48 1686.68 2108.31 1690.5 2107.88C1694.34 2107.44 1698.19 2106.76 1702 2106.09C1710.18 2104.65 1718.26 2102.71 1726.44 2101.28C1732.47 2100.22 1738.54 2099.49 1744.66 2099.16C1750.02 2098.87 1754.13 2094.27 1753.84 2088.91C1753.56 2083.54 1748.99 2079.43 1743.62 2079.72Z" fill="#636c73" fill-opacity="0.831081" stroke="none"/>
</g>
<g opacity="1">
<path d="M554.594 1854.5C548.964 1853.78 543.812 1857.78 543.094 1863.41C540.781 1881.68 539.461 1900.05 538.938 1918.47C538.254 1942.52 538.826 1966.57 538.719 1990.62C538.646 2007 538.312 2023.41 539.062 2039.78C539.285 2044.63 539.617 2049.45 540.062 2054.28C540.344 2057.34 540.558 2060.42 541.312 2063.41C542.643 2068.67 545.353 2073.4 547.281 2078.44C549.203 2083.46 554.826 2085.95 559.844 2084.03C564.862 2082.11 567.359 2076.49 565.438 2071.47C564.472 2068.95 563.349 2066.53 562.25 2064.06C561.459 2062.29 560.674 2060.48 560.188 2058.59C559.803 2057.1 559.743 2055.53 559.594 2054C559.447 2052.5 559.305 2051 559.188 2049.5C558.83 2044.96 558.589 2040.43 558.438 2035.88C557.921 2020.32 558.427 2004.77 558.594 1989.22C558.896 1961.01 558.469 1932.78 559.969 1904.59C560.656 1891.69 561.818 1878.82 563.469 1866C564.187 1860.37 560.224 1855.22 554.594 1854.5Z" fill="#4b7933" fill-opacity="0.675675" stroke="none"/>
</g>
<g opacity="1">
<path d="M792.75 1526C787.074 1525.98 782.459 1530.54 782.438 1536.22C782.329 1568.66 781.59 1601.13 782.25 1633.56C782.408 1641.33 782.699 1649.11 783.062 1656.88C783.57 1667.73 784.165 1678.56 784.188 1689.44C784.208 1699.26 783.701 1709.09 783.344 1718.91C782.747 1735.29 782.104 1751.68 781.531 1768.06C781.339 1773.58 781.063 1779.11 781.062 1784.62C781.062 1791.02 781.525 1797.42 781.281 1803.81C781.092 1808.78 780.497 1813.75 779.938 1818.69C778.675 1829.83 776.939 1840.93 776.656 1852.16C775.859 1883.84 777.936 1915.54 776.781 1947.22C775.729 1976.1 772.652 2004.98 773.781 2033.91C774.239 2045.63 776.802 2057.08 778.469 2068.66C779.233 2073.98 784.181 2077.67 789.5 2076.91C794.819 2076.14 798.483 2071.23 797.719 2065.91C796.155 2055.01 793.643 2044.18 793.219 2033.16C792.126 2004.73 795.262 1976.32 796.344 1947.94C797.553 1916.2 795.57 1884.44 796.469 1852.69C796.925 1836.57 800.609 1820.73 801.281 1804.62C801.559 1797.97 801.1 1791.31 801.125 1784.66C801.145 1779.37 801.453 1774.09 801.656 1768.81C802.288 1752.44 803.016 1736.06 803.656 1719.69C804.05 1709.61 804.587 1699.52 804.594 1689.44C804.606 1670.66 803.084 1651.92 802.719 1633.16C802.09 1600.88 802.833 1568.59 802.969 1536.31C802.99 1530.64 798.426 1526.02 792.75 1526Z" fill="#4b7933" fill-opacity="0.675675" stroke="none"/>
</g>
<g opacity="1">
<path d="M752.969 2089.81C750.436 2090.08 747.973 2090.97 745.812 2092.59C744.858 2093.31 743.936 2094.14 743.219 2095.09C742.422 2096.16 741.815 2097.22 741.406 2098.5C741.166 2099.25 741.175 2099.98 741.094 2100.72C740.054 2101.85 739.195 2103.16 738.781 2104.75C737.43 2109.95 740.549 2115.24 745.75 2116.59C746.871 2116.87 747.96 2117.55 748.969 2118.06C750.972 2119.08 752.994 2120.11 755.156 2120.75C757.179 2121.35 759.332 2121.66 761.438 2121.34C765.38 2120.75 768.839 2118.23 770.625 2114.69C771.366 2114.76 772.108 2114.87 772.844 2114.94C776.618 2115.3 780.38 2115.57 784.156 2115.91C789.811 2116.39 794.801 2112.19 795.281 2106.53C795.761 2100.88 791.561 2095.89 785.906 2095.41C782.174 2095.1 778.418 2094.89 774.688 2094.56C773.385 2094.45 772.111 2094.3 770.812 2094.16C770.312 2094.1 769.802 2094.09 769.312 2093.97C767.992 2093.65 766.715 2093 765.469 2092.47C763.883 2091.79 762.278 2091.12 760.625 2090.62C758.108 2089.87 755.501 2089.54 752.969 2089.81Z" fill="#4b7933" fill-opacity="0.675675" stroke="none"/>
</g>
<g opacity="1">
<path d="M783.156 1382.31C777.329 1382.19 771.519 1384.08 766.344 1386.72C764.892 1387.46 763.451 1388.27 762.062 1389.12C761.733 1389.33 762.084 1389.12 760.219 1390.31C757.328 1392.21 755.903 1395.32 755.781 1398.53C755.739 1398.88 755.629 1399.22 755.625 1399.56C755.621 1399.93 755.717 1400.29 755.75 1400.66C755.758 1400.7 755.773 1400.74 755.781 1400.78C755.833 1401.28 755.808 1401.8 755.938 1402.28C756.194 1403.24 756.627 1404.13 757.094 1405C757.429 1405.63 757.887 1406.2 758.344 1406.75C761.168 1410.13 766.399 1411.91 770.656 1412.47C772.143 1412.66 773.666 1412.69 775.156 1412.5C777.806 1412.17 780.454 1411.17 782.938 1410.25C784.895 1409.53 786.844 1408.73 788.719 1407.81C791.21 1406.59 793.664 1405.15 795.625 1403.16C799.721 1398.99 800.524 1392.85 796.938 1388.03C795.016 1385.45 791.989 1384.01 788.969 1383.16C787.049 1382.61 785.099 1382.35 783.156 1382.31Z" fill="#4b7933" fill-opacity="0.675675" stroke="none"/>
</g>
<path d="M2240.92 1626.08L2092.22 1621.66L2083.38 1861.35L1922.9 2102.86L2413.81 2102.81L2248.28 1863.28L2240.92 1626.08Z" fill="none" opacity="1" stroke="#779fab" stroke-linecap="butt" stroke-linejoin="round" stroke-opacity="0.675675" stroke-width="19.3543"/>
<path d="M1772.4 2080.11L1773.72 2080.11L1773.72 2080.95L1772.4 2080.95L1772.4 2080.11Z" fill="#ffffff" fill-rule="nonzero" opacity="1" stroke="#ffffff" stroke-linecap="butt" stroke-linejoin="round" stroke-opacity="0" stroke-width="19.3543"/>
<path d="M2150.55 1812.15L2150.55 1812.15L2150.47 1814.67L2150.47 1814.67L2150.55 1812.15Z" fill="#ffffff" fill-rule="nonzero" opacity="1" stroke="#ffffff" stroke-linecap="butt" stroke-linejoin="round" stroke-opacity="0" stroke-width="19.3543"/>
<path d="M2114.67 1745.59L2133.21 1746.18L2132.86 1757.08L2114.32 1756.49L2114.67 1745.59Z" fill="#ffffff" fill-rule="nonzero" opacity="1" stroke="#ffffff" stroke-linecap="butt" stroke-linejoin="round" stroke-opacity="0" stroke-width="19.3543"/>
<path d="M1967.52 2081.95C1968.79 2080.44 1969.48 2078.11 1971.33 2077.4C1979.26 2074.33 1987.68 2072.63 1996.02 2070.95C2007.75 2068.6 2020.6 2070.43 2032.42 2070.85" fill="#a5ceee" fill-rule="nonzero" opacity="1" stroke="#ffffff" stroke-linecap="butt" stroke-linejoin="round" stroke-opacity="0" stroke-width="19.3543"/>
<path d="M1946.33 2088.48C1951.52 2085.3 1956.58 2082.5 1961.16 2078.4C1964.06 2075.8 1966.01 2072.14 1969.22 2069.96C1974.82 2066.15 1981.7 2064.53 1987.8 2061.76C1997.18 2057.5 2005.26 2051 2015.14 2047.6C2025.67 2043.99 2036.66 2042.79 2047.52 2040.86C2061.67 2038.35 2075.31 2033.11 2089.72 2031.89C2110.97 2030.08 2131.62 2032.72 2152.82 2033.34C2193.26 2034.54 2233.41 2041.42 2273.34 2047.5C2288.54 2049.82 2303.86 2051.51 2319.07 2053.87C2327.83 2055.22 2336.5 2056.6 2345.22 2058.26C2347.3 2058.66 2349.49 2058.67 2351.45 2059.45C2356.78 2061.55 2362.14 2066.16 2367.25 2068.91C2370.84 2070.84 2374.19 2073.2 2377.82 2075.03C2381.15 2076.71 2385.57 2076.65 2388.15 2079.35C2390.62 2081.93 2390.98 2085.93 2392.76 2089.03" fill="#a5ceee" fill-rule="nonzero" opacity="1" stroke="#ffffff" stroke-linecap="butt" stroke-linejoin="round" stroke-opacity="0" stroke-width="19.3543"/>
</g>
</svg>
