<?xml version="1.0" encoding="UTF-8" standalone="no"?>
<!DOCTYPE svg PUBLIC "-//W3C//DTD SVG 1.1//EN" "http://www.w3.org/Graphics/SVG/1.1/DTD/svg11.dtd">
<!-- Created with Vectornator (http://vectornator.io/) -->
<svg height="100%" stroke-miterlimit="10" style="fill-rule:nonzero;clip-rule:evenodd;stroke-linecap:round;stroke-linejoin:round;" version="1.1" viewBox="0 0 368.55 184.275" width="100%" xml:space="preserve" xmlns="http://www.w3.org/2000/svg" xmlns:vectornator="http://vectornator.io" xmlns:xlink="http://www.w3.org/1999/xlink">
<defs>
<filter color-interpolation-filters="sRGB" filterUnits="userSpaceOnUse" height="62.6509" id="Filter" width="245.076" x="65.2299" y="45.7159">
<feDropShadow dx="-5.17605" dy="9.1513" flood-color="#000000" flood-opacity="0.333" in="SourceGraphic" result="Shadow" stdDeviation="3.15411"/>
</filter>
</defs>
<g id="Ebene-1" vectornator:layerName="Ebene 1">
<path d="M23.7534 68.2998C23.7534 38.2987 98.4299 13.9781 190.548 13.9781C282.666 13.9781 357.343 38.2987 357.343 68.2998C357.343 98.3009 282.666 122.622 190.548 122.622C159.211 122.622 129.892 119.807 104.845 114.912C94.5142 112.893 21.3542 171.128 12.6345 168.453C4.417 165.931 60.5408 102.532 54.0275 99.5164C34.9528 90.6845 23.7534 79.9181 23.7534 68.2998Z" fill="#f1f1f1" fill-rule="nonzero" opacity="1" stroke="#000000" stroke-linecap="butt" stroke-linejoin="round" stroke-width="3.95539"/>
<g fill="#000000" filter="url(#Filter)" stroke="none" vectornator:shadowAngle="2.08554" vectornator:shadowColor="#000000" vectornator:shadowOffset="10.5137" vectornator:shadowOpacity="0.333" vectornator:shadowRadius="6.30822">
<path d="M79.3409 45.7159L81.5618 45.7159L81.5618 52.4228L90.0034 52.4228L90.0034 45.7159L92.2243 45.7159L92.2243 61.9472L90.0034 61.9472L90.0034 54.3564L81.5618 54.3564L81.5618 61.9472L79.3409 61.9472L79.3409 45.7159Z"/>
<path d="M96.8871 58.7982C96.8871 59.3728 97.097 59.8258 97.5169 60.1573C97.9368 60.4887 98.434 60.6545 99.0085 60.6545C99.7083 60.6545 100.386 60.4924 101.042 60.1683C102.147 59.6306 102.699 58.7503 102.699 57.5275L102.699 55.9254C102.456 56.0801 102.143 56.209 101.76 56.3121C101.377 56.4152 101.001 56.4889 100.633 56.5331L99.4284 56.6878C98.7065 56.7835 98.1651 56.9346 97.8042 57.1408C97.1928 57.487 96.8871 58.0395 96.8871 58.7982ZM101.705 54.7763C102.161 54.7173 102.467 54.5258 102.622 54.2017C102.71 54.0249 102.754 53.7708 102.754 53.4393C102.754 52.7616 102.513 52.2699 102.031 51.9642C101.548 51.6585 100.857 51.5057 99.9588 51.5057C98.9202 51.5057 98.1835 51.7856 97.7489 52.3454C97.5058 52.6548 97.3475 53.1152 97.2738 53.7266L95.4175 53.7266C95.4544 52.2681 95.9276 51.2534 96.8374 50.6825C97.7471 50.1116 98.8023 49.8262 100.003 49.8262C101.395 49.8262 102.526 50.0914 103.395 50.6217C104.257 51.1521 104.688 51.9771 104.688 53.0968L104.688 59.9142C104.688 60.1204 104.73 60.2862 104.815 60.4114C104.9 60.5366 105.078 60.5992 105.351 60.5992C105.439 60.5992 105.539 60.5937 105.649 60.5827C105.76 60.5716 105.878 60.555 106.003 60.5329L106.003 62.0025C105.693 62.0909 105.458 62.1461 105.296 62.1682C105.134 62.1903 104.913 62.2014 104.633 62.2014C103.948 62.2014 103.45 61.9583 103.141 61.4721C102.979 61.2143 102.865 60.8497 102.798 60.3782C102.393 60.9086 101.811 61.369 101.053 61.7594C100.294 62.1498 99.4579 62.345 98.5445 62.345C97.4469 62.345 96.5501 62.0117 95.854 61.3451C95.1579 60.6784 94.8098 59.8442 94.8098 58.8424C94.8098 57.7448 95.1524 56.894 95.8374 56.29C96.5225 55.686 97.4211 55.314 98.5334 55.174L101.705 54.7763Z"/>
<path d="M108.003 45.7159L109.992 45.7159L109.992 61.9472L108.003 61.9472L108.003 45.7159Z"/>
<path d="M113.03 45.7159L115.019 45.7159L115.019 61.9472L113.03 61.9472L113.03 45.7159Z"/>
<path d="M122.698 60.6655C124.017 60.6655 124.921 60.1665 125.411 59.1683C125.901 58.1702 126.146 57.0598 126.146 55.837C126.146 54.7321 125.969 53.8334 125.615 53.141C125.055 52.0508 124.09 51.5057 122.72 51.5057C121.505 51.5057 120.621 51.9698 120.068 52.8979C119.516 53.826 119.24 54.9457 119.24 56.2569C119.24 57.5165 119.516 58.5662 120.068 59.4059C120.621 60.2457 121.497 60.6655 122.698 60.6655ZM122.775 49.771C124.3 49.771 125.589 50.2792 126.643 51.2958C127.696 52.3123 128.223 53.8076 128.223 55.7818C128.223 57.6896 127.759 59.2659 126.831 60.5108C125.902 61.7557 124.462 62.3782 122.51 62.3782C120.882 62.3782 119.59 61.8275 118.632 60.7263C117.674 59.6251 117.196 58.1463 117.196 56.29C117.196 54.3011 117.7 52.7174 118.709 51.5388C119.719 50.3602 121.074 49.771 122.775 49.771Z"/>
<path d="M131.007 64.2565C131.515 64.1681 131.873 63.8109 132.079 63.1848C132.189 62.8533 132.245 62.5328 132.245 62.2235C132.245 62.1719 132.243 62.1259 132.239 62.0854C132.236 62.0448 132.226 61.9988 132.212 61.9472L131.007 61.9472L131.007 59.5385L133.372 59.5385L133.372 61.7704C133.372 62.647 133.195 63.4168 132.841 64.0797C132.488 64.7427 131.876 65.1515 131.007 65.3062L131.007 64.2565Z"/>
<path d="M80.2027 84.2587C80.2616 84.9216 80.4274 85.4299 80.6999 85.7835C81.2008 86.4243 82.07 86.7448 83.3076 86.7448C84.0442 86.7448 84.6924 86.5846 85.2522 86.2641C85.8121 85.9437 86.092 85.4483 86.092 84.778C86.092 84.2697 85.8673 83.883 85.418 83.6178C85.1307 83.4558 84.5635 83.2679 83.7164 83.0543L82.1363 82.6565C81.1272 82.4061 80.3832 82.1262 79.9044 81.8168C79.0499 81.2791 78.6227 80.5351 78.6227 79.5849C78.6227 78.4652 79.026 77.5592 79.8326 76.8667C80.6392 76.1743 81.7238 75.8281 83.0866 75.8281C84.8692 75.8281 86.1546 76.3511 86.9428 77.3971C87.4363 78.0601 87.6757 78.7746 87.661 79.5407L85.7826 79.5407C85.7458 79.0913 85.5874 78.6825 85.3075 78.3142C84.8508 77.7912 84.0589 77.5297 82.9319 77.5297C82.1805 77.5297 81.6115 77.6733 81.2248 77.9606C80.838 78.2479 80.6447 78.6273 80.6447 79.0987C80.6447 79.6143 80.8988 80.0268 81.4071 80.3362C81.7017 80.5204 82.1363 80.6824 82.7109 80.8224L84.0258 81.1428C85.4548 81.489 86.4124 81.8242 86.8986 82.1483C87.672 82.6565 88.0587 83.4558 88.0587 84.546C88.0587 85.5993 87.6591 86.5091 86.8599 87.2751C86.0607 88.0412 84.8434 88.4243 83.2081 88.4243C81.4476 88.4243 80.2009 88.0246 79.4679 87.2254C78.735 86.4262 78.3428 85.4373 78.2912 84.2587L80.2027 84.2587Z"/>
<path d="M94.8982 75.795C96.2315 75.795 97.3162 76.1191 98.1522 76.7673C98.9883 77.4155 99.491 78.5315 99.6605 80.1152L97.7268 80.1152C97.609 79.386 97.3401 78.7801 96.9202 78.2976C96.5004 77.8151 95.8264 77.5739 94.8982 77.5739C93.6312 77.5739 92.7252 78.1926 92.1801 79.4302C91.8265 80.2331 91.6497 81.2238 91.6497 82.4024C91.6497 83.5884 91.9002 84.5865 92.4011 85.3968C92.902 86.207 93.6902 86.6122 94.7656 86.6122C95.5906 86.6122 96.2444 86.3599 96.7269 85.8553C97.2094 85.3507 97.5427 84.6601 97.7268 83.7836L99.6605 83.7836C99.4395 85.3526 98.887 86.4998 98.0031 87.2254C97.1191 87.951 95.9884 88.3138 94.6109 88.3138C93.064 88.3138 91.8302 87.7484 90.9094 86.6177C89.9887 85.487 89.5283 84.0745 89.5283 82.3803C89.5283 80.3031 90.0329 78.6862 91.042 77.5297C92.0512 76.3732 93.3366 75.795 94.8982 75.795Z"/>
<path d="M101.649 71.6846L103.638 71.6846L103.638 77.7396C104.11 77.143 104.533 76.7231 104.909 76.48C105.55 76.0601 106.349 75.8502 107.307 75.8502C109.023 75.8502 110.187 76.4505 110.798 77.6512C111.13 78.3068 111.295 79.2165 111.295 80.3804L111.295 87.9712L109.251 87.9712L109.251 80.513C109.251 79.6438 109.141 79.0066 108.92 78.6015C108.559 77.9532 107.881 77.6291 106.887 77.6291C106.062 77.6291 105.314 77.9127 104.644 78.4799C103.973 79.0471 103.638 80.1189 103.638 81.6953L103.638 87.9712L101.649 87.9712L101.649 71.6846Z"/>
<path d="M118.93 86.6895C120.249 86.6895 121.153 86.1905 121.643 85.1924C122.133 84.1942 122.378 83.0838 122.378 81.861C122.378 80.7561 122.201 79.8574 121.847 79.165C121.288 78.0748 120.323 77.5297 118.952 77.5297C117.737 77.5297 116.853 77.9938 116.301 78.9219C115.748 79.85 115.472 80.9697 115.472 82.2809C115.472 83.5405 115.748 84.5902 116.301 85.4299C116.853 86.2697 117.73 86.6895 118.93 86.6895ZM119.008 75.795C120.533 75.795 121.822 76.3032 122.875 77.3198C123.928 78.3363 124.455 79.8316 124.455 81.8058C124.455 83.7136 123.991 85.29 123.063 86.5348C122.135 87.7797 120.695 88.4022 118.743 88.4022C117.115 88.4022 115.822 87.8515 114.864 86.7503C113.907 85.6491 113.428 84.1703 113.428 82.314C113.428 80.3252 113.932 78.7414 114.942 77.5628C115.951 76.3843 117.306 75.795 119.008 75.795ZM119.87 72.0051L121.936 72.0051L121.936 74.3033L119.87 74.3033L119.87 72.0051ZM116.223 72.0051L118.29 72.0051L118.29 74.3033L116.223 74.3033L116.223 72.0051Z"/>
<path d="M126.82 76.1375L128.709 76.1375L128.709 77.817C129.269 77.1246 129.862 76.6273 130.488 76.3253C131.114 76.0233 131.81 75.8723 132.576 75.8723C134.256 75.8723 135.39 76.4579 135.979 77.6291C136.303 78.27 136.466 79.1871 136.466 80.3804L136.466 87.9712L134.444 87.9712L134.444 80.513C134.444 79.7911 134.337 79.2092 134.123 78.7672C133.77 78.0306 133.129 77.6623 132.201 77.6623C131.729 77.6623 131.342 77.7102 131.04 77.8059C130.495 77.968 130.016 78.2921 129.604 78.7783C129.272 79.1687 129.057 79.572 128.958 79.9882C128.858 80.4043 128.808 80.9992 128.808 81.7726L128.808 87.9712L126.82 87.9712L126.82 76.1375Z"/>
<path d="M139.825 90.2805C140.333 90.1921 140.69 89.8349 140.896 89.2088C141.007 88.8773 141.062 88.5569 141.062 88.2475C141.062 88.1959 141.06 88.1499 141.056 88.1094C141.053 88.0688 141.044 88.0228 141.029 87.9712L139.825 87.9712L139.825 85.5625L142.189 85.5625L142.189 87.7945C142.189 88.671 142.012 89.4408 141.659 90.1037C141.305 90.7667 140.694 91.1755 139.825 91.3302L139.825 90.2805Z"/>
<path d="M153.238 82.1925C153.238 83.4595 153.507 84.5202 154.045 85.3747C154.583 86.2291 155.444 86.6564 156.63 86.6564C157.551 86.6564 158.308 86.2604 158.901 85.4686C159.494 84.6767 159.791 83.5405 159.791 82.0599C159.791 80.5646 159.485 79.4578 158.873 78.7396C158.262 78.0214 157.507 77.6623 156.608 77.6623C155.607 77.6623 154.794 78.0453 154.172 78.8114C153.55 79.5775 153.238 80.7045 153.238 82.1925ZM156.233 75.9275C157.139 75.9275 157.897 76.1191 158.509 76.5021C158.862 76.7231 159.264 77.1098 159.713 77.6623L159.713 71.6846L161.625 71.6846L161.625 87.9712L159.835 87.9712L159.835 86.3249C159.371 87.0542 158.822 87.5808 158.188 87.9049C157.555 88.2291 156.829 88.3911 156.012 88.3911C154.693 88.3911 153.551 87.8368 152.586 86.7282C151.621 85.6196 151.139 84.1445 151.139 82.303C151.139 80.5793 151.579 79.0858 152.459 77.8225C153.34 76.5592 154.597 75.9275 156.233 75.9275Z"/>
<path d="M166.089 84.8222C166.089 85.3968 166.299 85.8498 166.718 86.1813C167.138 86.5127 167.635 86.6785 168.21 86.6785C168.91 86.6785 169.588 86.5164 170.243 86.1923C171.348 85.6546 171.9 84.7743 171.9 83.5515L171.9 81.9494C171.657 82.1041 171.344 82.233 170.961 82.3361C170.578 82.4392 170.203 82.5129 169.834 82.5571L168.63 82.7118C167.908 82.8076 167.367 82.9586 167.006 83.1648C166.394 83.511 166.089 84.0635 166.089 84.8222ZM170.906 80.8003C171.363 80.7413 171.668 80.5498 171.823 80.2257C171.912 80.0489 171.956 79.7948 171.956 79.4633C171.956 78.7856 171.715 78.2939 171.232 77.9882C170.75 77.6825 170.059 77.5297 169.16 77.5297C168.122 77.5297 167.385 77.8096 166.95 78.3694C166.707 78.6788 166.549 79.1392 166.475 79.7506L164.619 79.7506C164.656 78.2921 165.129 77.2774 166.039 76.7065C166.949 76.1356 168.004 75.8502 169.204 75.8502C170.597 75.8502 171.727 76.1154 172.597 76.6458C173.458 77.1761 173.889 78.0011 173.889 79.1208L173.889 85.9382C173.889 86.1444 173.932 86.3102 174.016 86.4354C174.101 86.5606 174.28 86.6232 174.552 86.6232C174.641 86.6232 174.74 86.6177 174.851 86.6067C174.961 86.5956 175.079 86.579 175.204 86.5569L175.204 88.0265C174.895 88.1149 174.659 88.1701 174.497 88.1922C174.335 88.2143 174.114 88.2254 173.834 88.2254C173.149 88.2254 172.652 87.9823 172.342 87.4961C172.18 87.2383 172.066 86.8737 172 86.4022C171.595 86.9326 171.013 87.393 170.254 87.7834C169.495 88.1738 168.659 88.369 167.746 88.369C166.648 88.369 165.752 88.0357 165.055 87.3691C164.359 86.7024 164.011 85.8682 164.011 84.8664C164.011 83.7688 164.354 82.918 165.039 82.314C165.724 81.71 166.623 81.338 167.735 81.198L170.906 80.8003Z"/>
<path d="M178.331 84.2587C178.39 84.9216 178.556 85.4299 178.828 85.7835C179.329 86.4243 180.198 86.7448 181.436 86.7448C182.173 86.7448 182.821 86.5846 183.381 86.2641C183.941 85.9437 184.22 85.4483 184.22 84.778C184.22 84.2697 183.996 83.883 183.546 83.6178C183.259 83.4558 182.692 83.2679 181.845 83.0543L180.265 82.6565C179.256 82.4061 178.512 82.1262 178.033 81.8168C177.178 81.2791 176.751 80.5351 176.751 79.5849C176.751 78.4652 177.154 77.5592 177.961 76.8667C178.768 76.1743 179.852 75.8281 181.215 75.8281C182.998 75.8281 184.283 76.3511 185.071 77.3971C185.565 78.0601 185.804 78.7746 185.789 79.5407L183.911 79.5407C183.874 79.0913 183.716 78.6825 183.436 78.3142C182.979 77.7912 182.187 77.5297 181.06 77.5297C180.309 77.5297 179.74 77.6733 179.353 77.9606C178.966 78.2479 178.773 78.6273 178.773 79.0987C178.773 79.6143 179.027 80.0268 179.536 80.3362C179.83 80.5204 180.265 80.6824 180.839 80.8224L182.154 81.1428C183.583 81.489 184.541 81.8242 185.027 82.1483C185.8 82.6565 186.187 83.4558 186.187 84.546C186.187 85.5993 185.788 86.5091 184.988 87.2751C184.189 88.0412 182.972 88.4243 181.337 88.4243C179.576 88.4243 178.329 88.0246 177.596 87.2254C176.863 86.4262 176.471 85.4373 176.42 84.2587L178.331 84.2587Z"/>
<path d="M189.646 84.2587C189.705 84.9216 189.87 85.4299 190.143 85.7835C190.644 86.4243 191.513 86.7448 192.75 86.7448C193.487 86.7448 194.135 86.5846 194.695 86.2641C195.255 85.9437 195.535 85.4483 195.535 84.778C195.535 84.2697 195.31 83.883 194.861 83.6178C194.574 83.4558 194.006 83.2679 193.159 83.0543L191.579 82.6565C190.57 82.4061 189.826 82.1262 189.347 81.8168C188.493 81.2791 188.066 80.5351 188.066 79.5849C188.066 78.4652 188.469 77.5592 189.275 76.8667C190.082 76.1743 191.167 75.8281 192.529 75.8281C194.312 75.8281 195.597 76.3511 196.386 77.3971C196.879 78.0601 197.119 78.7746 197.104 79.5407L195.225 79.5407C195.189 79.0913 195.03 78.6825 194.75 78.3142C194.294 77.7912 193.502 77.5297 192.375 77.5297C191.623 77.5297 191.054 77.6733 190.668 77.9606C190.281 78.2479 190.088 78.6273 190.088 79.0987C190.088 79.6143 190.342 80.0268 190.85 80.3362C191.145 80.5204 191.579 80.6824 192.154 80.8224L193.469 81.1428C194.898 81.489 195.855 81.8242 196.341 82.1483C197.115 82.6565 197.502 83.4558 197.502 84.546C197.502 85.5993 197.102 86.5091 196.303 87.2751C195.504 88.0412 194.286 88.4243 192.651 88.4243C190.89 88.4243 189.644 88.0246 188.911 87.2254C188.178 86.4262 187.786 85.4373 187.734 84.2587L189.646 84.2587Z"/>
<path d="M207.324 82.1925C207.324 83.4595 207.593 84.5202 208.131 85.3747C208.669 86.2291 209.531 86.6564 210.717 86.6564C211.637 86.6564 212.394 86.2604 212.987 85.4686C213.58 84.6767 213.877 83.5405 213.877 82.0599C213.877 80.5646 213.571 79.4578 212.96 78.7396C212.348 78.0214 211.593 77.6623 210.694 77.6623C209.693 77.6623 208.881 78.0453 208.258 78.8114C207.636 79.5775 207.324 80.7045 207.324 82.1925ZM210.319 75.9275C211.225 75.9275 211.984 76.1191 212.595 76.5021C212.948 76.7231 213.35 77.1098 213.799 77.6623L213.799 71.6846L215.711 71.6846L215.711 87.9712L213.921 87.9712L213.921 86.3249C213.457 87.0542 212.908 87.5808 212.274 87.9049C211.641 88.2291 210.915 88.3911 210.098 88.3911C208.779 88.3911 207.637 87.8368 206.673 86.7282C205.708 85.6196 205.225 84.1445 205.225 82.303C205.225 80.5793 205.665 79.0858 206.545 77.8225C207.426 76.5592 208.683 75.9275 210.319 75.9275Z"/>
<path d="M220.639 76.1375L220.639 83.9935C220.639 84.5975 220.735 85.0911 220.926 85.4741C221.28 86.1813 221.939 86.5348 222.904 86.5348C224.289 86.5348 225.232 85.9161 225.732 84.6786C226.005 84.0156 226.141 83.1059 226.141 81.9494L226.141 76.1375L228.13 76.1375L228.13 87.9712L226.252 87.9712L226.274 86.2255C226.016 86.6748 225.696 87.0542 225.313 87.3635C224.554 87.9823 223.633 88.2917 222.55 88.2917C220.863 88.2917 219.714 87.7282 219.103 86.6011C218.771 85.9971 218.606 85.1905 218.606 84.1813L218.606 76.1375L220.639 76.1375Z"/>
<path d="M238.782 82.1925C238.782 83.4595 239.051 84.5202 239.588 85.3747C240.126 86.2291 240.988 86.6564 242.174 86.6564C243.095 86.6564 243.851 86.2604 244.444 85.4686C245.037 84.6767 245.334 83.5405 245.334 82.0599C245.334 80.5646 245.028 79.4578 244.417 78.7396C243.805 78.0214 243.05 77.6623 242.152 77.6623C241.15 77.6623 240.338 78.0453 239.715 78.8114C239.093 79.5775 238.782 80.7045 238.782 82.1925ZM241.776 75.9275C242.682 75.9275 243.441 76.1191 244.052 76.5021C244.406 76.7231 244.807 77.1098 245.257 77.6623L245.257 71.6846L247.168 71.6846L247.168 87.9712L245.378 87.9712L245.378 86.3249C244.914 87.0542 244.365 87.5808 243.732 87.9049C243.098 88.2291 242.373 88.3911 241.555 88.3911C240.236 88.3911 239.095 87.8368 238.13 86.7282C237.165 85.6196 236.682 84.1445 236.682 82.303C236.682 80.5793 237.122 79.0858 238.003 77.8225C238.883 76.5592 240.141 75.9275 241.776 75.9275Z"/>
<path d="M251.632 84.8222C251.632 85.3968 251.842 85.8498 252.262 86.1813C252.682 86.5127 253.179 86.6785 253.753 86.6785C254.453 86.6785 255.131 86.5164 255.786 86.1923C256.891 85.6546 257.444 84.7743 257.444 83.5515L257.444 81.9494C257.201 82.1041 256.888 82.233 256.505 82.3361C256.122 82.4392 255.746 82.5129 255.378 82.5571L254.173 82.7118C253.451 82.8076 252.91 82.9586 252.549 83.1648C251.938 83.511 251.632 84.0635 251.632 84.8222ZM256.449 80.8003C256.906 80.7413 257.212 80.5498 257.367 80.2257C257.455 80.0489 257.499 79.7948 257.499 79.4633C257.499 78.7856 257.258 78.2939 256.775 77.9882C256.293 77.6825 255.602 77.5297 254.704 77.5297C253.665 77.5297 252.928 77.8096 252.494 78.3694C252.251 78.6788 252.092 79.1392 252.019 79.7506L250.162 79.7506C250.199 78.2921 250.672 77.2774 251.582 76.7065C252.492 76.1356 253.547 75.8502 254.748 75.8502C256.14 75.8502 257.271 76.1154 258.14 76.6458C259.002 77.1761 259.433 78.0011 259.433 79.1208L259.433 85.9382C259.433 86.1444 259.475 86.3102 259.56 86.4354C259.644 86.5606 259.823 86.6232 260.096 86.6232C260.184 86.6232 260.284 86.6177 260.394 86.6067C260.504 86.5956 260.622 86.579 260.748 86.5569L260.748 88.0265C260.438 88.1149 260.202 88.1701 260.04 88.1922C259.878 88.2143 259.657 88.2254 259.377 88.2254C258.692 88.2254 258.195 87.9823 257.886 87.4961C257.724 87.2383 257.61 86.8737 257.543 86.4022C257.138 86.9326 256.556 87.393 255.798 87.7834C255.039 88.1738 254.203 88.369 253.289 88.369C252.192 88.369 251.295 88.0357 250.599 87.3691C249.903 86.7024 249.555 85.8682 249.555 84.8664C249.555 83.7688 249.897 82.918 250.582 82.314C251.267 81.71 252.166 81.338 253.278 81.198L256.449 80.8003Z"/>
<path d="M268.825 71.6846L270.758 71.6846L270.758 77.5739C271.193 77.0067 271.712 76.5739 272.316 76.2756C272.92 75.9773 273.576 75.8281 274.283 75.8281C275.756 75.8281 276.951 76.3345 277.868 77.3474C278.785 78.3602 279.244 79.8537 279.244 81.8279C279.244 83.6989 278.791 85.2531 277.885 86.4906C276.979 87.7282 275.723 88.3469 274.117 88.3469C273.219 88.3469 272.46 88.1296 271.841 87.695C271.473 87.4372 271.079 87.0247 270.659 86.4575L270.659 87.9712L268.825 87.9712L268.825 71.6846ZM273.996 86.5901C275.071 86.5901 275.876 86.1628 276.41 85.3084C276.944 84.4539 277.211 83.3269 277.211 81.9273C277.211 80.6824 276.944 79.6511 276.41 78.8335C275.876 78.0159 275.09 77.607 274.051 77.607C273.145 77.607 272.351 77.9422 271.67 78.6125C270.988 79.2828 270.648 80.3878 270.648 81.9273C270.648 83.0396 270.788 83.9419 271.068 84.6344C271.591 85.9382 272.567 86.5901 273.996 86.5901Z"/>
<path d="M281.564 76.1927L283.586 76.1927L283.586 87.9712L281.564 87.9712L281.564 76.1927ZM281.564 71.7399L283.586 71.7399L283.586 73.9939L281.564 73.9939L281.564 71.7399Z"/>
<path d="M287.774 84.2587C287.833 84.9216 287.999 85.4299 288.271 85.7835C288.772 86.4243 289.641 86.7448 290.879 86.7448C291.616 86.7448 292.264 86.5846 292.824 86.2641C293.383 85.9437 293.663 85.4483 293.663 84.778C293.663 84.2697 293.439 83.883 292.989 83.6178C292.702 83.4558 292.135 83.2679 291.288 83.0543L289.708 82.6565C288.699 82.4061 287.955 82.1262 287.476 81.8168C286.621 81.2791 286.194 80.5351 286.194 79.5849C286.194 78.4652 286.597 77.5592 287.404 76.8667C288.211 76.1743 289.295 75.8281 290.658 75.8281C292.441 75.8281 293.726 76.3511 294.514 77.3971C295.008 78.0601 295.247 78.7746 295.232 79.5407L293.354 79.5407C293.317 79.0913 293.159 78.6825 292.879 78.3142C292.422 77.7912 291.63 77.5297 290.503 77.5297C289.752 77.5297 289.183 77.6733 288.796 77.9606C288.409 78.2479 288.216 78.6273 288.216 79.0987C288.216 79.6143 288.47 80.0268 288.978 80.3362C289.273 80.5204 289.708 80.6824 290.282 80.8224L291.597 81.1428C293.026 81.489 293.984 81.8242 294.47 82.1483C295.243 82.6565 295.63 83.4558 295.63 84.546C295.63 85.5993 295.23 86.5091 294.431 87.2751C293.632 88.0412 292.415 88.4243 290.779 88.4243C289.019 88.4243 287.772 88.0246 287.039 87.2254C286.306 86.4262 285.914 85.4373 285.863 84.2587L287.774 84.2587Z"/>
<path d="M298.304 72.8338L300.315 72.8338L300.315 76.1375L302.204 76.1375L302.204 77.7617L300.315 77.7617L300.315 85.4852C300.315 85.8977 300.455 86.1739 300.735 86.3139C300.89 86.3949 301.147 86.4354 301.508 86.4354C301.604 86.4354 301.707 86.4336 301.818 86.4299C301.928 86.4262 302.057 86.417 302.204 86.4022L302.204 87.9712C301.976 88.0375 301.738 88.0854 301.492 88.1149C301.245 88.1443 300.978 88.1591 300.691 88.1591C299.763 88.1591 299.133 87.9215 298.801 87.4464C298.47 86.9713 298.304 86.3544 298.304 85.5956L298.304 77.7617L296.702 77.7617L296.702 76.1375L298.304 76.1375L298.304 72.8338Z"/>
<path d="M305.353 71.7399L307.596 71.7399L307.596 77.0767L307.055 84.104L305.928 84.104L305.353 77.0767L305.353 71.7399ZM305.353 85.673L307.552 85.673L307.552 87.9712L305.353 87.9712L305.353 85.673Z"/>
</g>
</g>
</svg>
