<?xml version="1.0" encoding="UTF-8" standalone="no"?>
<!DOCTYPE svg PUBLIC "-//W3C//DTD SVG 1.1//EN" "http://www.w3.org/Graphics/SVG/1.1/DTD/svg11.dtd">
<!-- Created with Vectornator (http://vectornator.io/) -->
<svg height="100%" stroke-miterlimit="10" style="fill-rule:nonzero;clip-rule:evenodd;stroke-linecap:round;stroke-linejoin:round;" version="1.1" viewBox="0 0 368.55 184.275" width="100%" xml:space="preserve" xmlns="http://www.w3.org/2000/svg" xmlns:vectornator="http://vectornator.io" xmlns:xlink="http://www.w3.org/1999/xlink">
<defs>
<filter color-interpolation-filters="sRGB" filterUnits="userSpaceOnUse" height="86.1778" id="Filter" width="252.457" x="56.5421" y="34.4168">
<feDropShadow dx="-5.17605" dy="9.1513" flood-color="#000000" flood-opacity="0.333" in="SourceGraphic" result="Shadow" stdDeviation="3.15411"/>
</filter>
</defs>
<g id="Ebene-1" vectornator:layerName="Ebene 1">
<path d="M16.8275 68.4739C16.8275 34.7029 94.6849 7.32618 190.727 7.32618C286.769 7.32618 364.626 34.7029 364.626 68.4739C364.626 102.245 286.769 129.622 190.727 129.622C158.055 129.622 127.488 126.453 101.374 120.943C90.6024 118.67 14.3261 184.224 5.23503 181.212C-3.33254 178.373 55.182 107.008 48.3911 103.613C28.5039 93.6714 16.8275 81.5521 16.8275 68.4739Z" fill="#f1f1f1" fill-rule="nonzero" opacity="1" stroke="#000000" stroke-linecap="butt" stroke-linejoin="round" stroke-width="3.95539"/>
<g fill="#000000" filter="url(#Filter)" stroke="none" vectornator:shadowAngle="2.08554" vectornator:shadowColor="#000000" vectornator:shadowOffset="10.5137" vectornator:shadowOpacity="0.333" vectornator:shadowRadius="6.30822">
<path d="M71.5701 34.8588L73.791 34.8588L73.791 51.0901L71.5701 51.0901L71.5701 34.8588Z"/>
<path d="M81.6581 38.9138C82.9914 38.9138 84.0761 39.2379 84.9121 39.8862C85.7482 40.5344 86.2509 41.6504 86.4203 43.2341L84.4867 43.2341C84.3689 42.5048 84.1 41.899 83.6801 41.4165C83.2603 40.934 82.5863 40.6928 81.6581 40.6928C80.3911 40.6928 79.4851 41.3115 78.94 42.549C78.5864 43.3519 78.4096 44.3427 78.4096 45.5213C78.4096 46.7072 78.6601 47.7054 79.161 48.5156C79.6619 49.3259 80.4501 49.7311 81.5255 49.7311C82.3505 49.7311 83.0043 49.4788 83.4868 48.9742C83.9693 48.4696 84.3026 47.779 84.4867 46.9024L86.4203 46.9024C86.1994 48.4714 85.6469 49.6187 84.763 50.3443C83.879 51.0699 82.7483 51.4326 81.3708 51.4326C79.8239 51.4326 78.5901 50.8673 77.6693 49.7366C76.7486 48.6059 76.2882 47.1934 76.2882 45.4992C76.2882 43.4219 76.7928 41.805 77.8019 40.6486C78.8111 39.4921 80.0965 38.9138 81.6581 38.9138Z"/>
<path d="M88.4092 34.8035L90.3981 34.8035L90.3981 40.8585C90.8695 40.2618 91.2931 39.842 91.6687 39.5989C92.3096 39.179 93.1088 38.9691 94.0664 38.9691C95.7827 38.9691 96.9466 39.5694 97.558 40.7701C97.8895 41.4257 98.0552 42.3354 98.0552 43.4993L98.0552 51.0901L96.0111 51.0901L96.0111 43.6319C96.0111 42.7627 95.9006 42.1255 95.6796 41.7203C95.3187 41.0721 94.641 40.748 93.6466 40.748C92.8215 40.748 92.0739 41.0316 91.4036 41.5988C90.7332 42.166 90.3981 43.2378 90.3981 44.8141L90.3981 51.0901L88.4092 51.0901L88.4092 34.8035Z"/>
<path d="M107.127 34.8035L109.06 34.8035L109.06 40.6928C109.495 40.1256 110.014 39.6928 110.618 39.3945C111.222 39.0961 111.878 38.947 112.585 38.947C114.058 38.947 115.253 39.4534 116.17 40.4662C117.088 41.4791 117.546 42.9726 117.546 44.9467C117.546 46.8177 117.093 48.372 116.187 49.6095C115.281 50.847 114.025 51.4658 112.419 51.4658C111.521 51.4658 110.762 51.2485 110.143 50.8139C109.775 50.5561 109.381 50.1436 108.961 49.5764L108.961 51.0901L107.127 51.0901L107.127 34.8035ZM112.298 49.709C113.373 49.709 114.178 49.2817 114.712 48.4272C115.246 47.5728 115.513 46.4457 115.513 45.0462C115.513 43.8013 115.246 42.77 114.712 41.9524C114.178 41.1347 113.392 40.7259 112.353 40.7259C111.447 40.7259 110.653 41.0611 109.972 41.7314C109.29 42.4017 108.95 43.5066 108.95 45.0462C108.95 46.1585 109.09 47.0608 109.37 47.7532C109.893 49.057 110.869 49.709 112.298 49.709Z"/>
<path d="M119.866 39.3116L121.888 39.3116L121.888 51.0901L119.866 51.0901L119.866 39.3116ZM119.866 34.8588L121.888 34.8588L121.888 37.1128L119.866 37.1128L119.866 34.8588Z"/>
<path d="M124.894 39.2564L126.783 39.2564L126.783 40.9358C127.343 40.2434 127.936 39.7462 128.562 39.4442C129.188 39.1422 129.884 38.9912 130.651 38.9912C132.33 38.9912 133.464 39.5768 134.054 40.748C134.378 41.3889 134.54 42.3059 134.54 43.4993L134.54 51.0901L132.518 51.0901L132.518 43.6319C132.518 42.91 132.411 42.328 132.197 41.8861C131.844 41.1495 131.203 40.7812 130.275 40.7812C129.803 40.7812 129.417 40.829 129.115 40.9248C128.57 41.0868 128.091 41.411 127.678 41.8971C127.347 42.2875 127.131 42.6908 127.032 43.107C126.932 43.5232 126.883 44.118 126.883 44.8915L126.883 51.0901L124.894 51.0901L124.894 39.2564Z"/>
<path d="M150.263 49.2117C151.007 49.2117 151.618 49.1344 152.097 48.9797C152.952 48.6924 153.651 48.14 154.196 47.3223C154.631 46.6667 154.944 45.827 155.136 44.8031C155.246 44.1917 155.301 43.6245 155.301 43.1015C155.301 41.0905 154.902 39.5289 154.103 38.4166C153.303 37.3043 152.016 36.7482 150.241 36.7482L146.34 36.7482L146.34 49.2117L150.263 49.2117ZM144.131 34.8588L150.705 34.8588C152.937 34.8588 154.668 35.6506 155.898 37.2343C156.996 38.6634 157.544 40.4939 157.544 42.7258C157.544 44.4495 157.22 46.0075 156.572 47.3997C155.43 49.86 153.467 51.0901 150.683 51.0901L144.131 51.0901L144.131 34.8588Z"/>
<path d="M164.804 49.8084C166.122 49.8084 167.027 49.3093 167.516 48.3112C168.006 47.3131 168.251 46.2027 168.251 44.9799C168.251 43.8749 168.074 42.9763 167.721 42.2839C167.161 41.1937 166.196 40.6486 164.826 40.6486C163.61 40.6486 162.727 41.1126 162.174 42.0408C161.622 42.9689 161.345 44.0886 161.345 45.3997C161.345 46.6594 161.622 47.709 162.174 48.5488C162.727 49.3885 163.603 49.8084 164.804 49.8084ZM164.881 38.9138C166.406 38.9138 167.695 39.4221 168.748 40.4386C169.802 41.4552 170.328 42.9505 170.328 44.9246C170.328 46.8325 169.864 48.4088 168.936 49.6537C168.008 50.8986 166.568 51.521 164.616 51.521C162.988 51.521 161.695 50.9704 160.738 49.8692C159.78 48.7679 159.301 47.2892 159.301 45.4329C159.301 43.444 159.806 41.8603 160.815 40.6817C161.824 39.5031 163.18 38.9138 164.881 38.9138Z"/>
<path d="M172.649 34.8588L174.56 34.8588L174.56 44.2838L179.665 39.2564L182.206 39.2564L177.676 43.6871L182.46 51.0901L179.919 51.0901L176.229 45.1235L174.56 46.6483L174.56 51.0901L172.649 51.0901L172.649 34.8588Z"/>
<path d="M184.405 35.9526L186.416 35.9526L186.416 39.2564L188.306 39.2564L188.306 40.8806L186.416 40.8806L186.416 48.604C186.416 49.0165 186.556 49.2928 186.836 49.4327C186.991 49.5137 187.249 49.5543 187.609 49.5543C187.705 49.5543 187.808 49.5524 187.919 49.5487C188.029 49.5451 188.158 49.5358 188.306 49.5211L188.306 51.0901C188.077 51.1564 187.84 51.2043 187.593 51.2337C187.346 51.2632 187.079 51.2779 186.792 51.2779C185.864 51.2779 185.234 51.0404 184.902 50.5653C184.571 50.0902 184.405 49.4732 184.405 48.7145L184.405 40.8806L182.803 40.8806L182.803 39.2564L184.405 39.2564L184.405 35.9526Z"/>
<path d="M194.99 49.8084C196.309 49.8084 197.213 49.3093 197.703 48.3112C198.193 47.3131 198.438 46.2027 198.438 44.9799C198.438 43.8749 198.261 42.9763 197.907 42.2839C197.348 41.1937 196.383 40.6486 195.012 40.6486C193.797 40.6486 192.913 41.1126 192.361 42.0408C191.808 42.9689 191.532 44.0886 191.532 45.3997C191.532 46.6594 191.808 47.709 192.361 48.5488C192.913 49.3885 193.79 49.8084 194.99 49.8084ZM195.068 38.9138C196.592 38.9138 197.882 39.4221 198.935 40.4386C199.988 41.4552 200.515 42.9505 200.515 44.9246C200.515 46.8325 200.051 48.4088 199.123 49.6537C198.195 50.8986 196.755 51.521 194.803 51.521C193.175 51.521 191.882 50.9704 190.924 49.8692C189.967 48.7679 189.488 47.2892 189.488 45.4329C189.488 43.444 189.992 41.8603 191.002 40.6817C192.011 39.5031 193.366 38.9138 195.068 38.9138Z"/>
<path d="M202.935 39.2564L204.824 39.2564L204.824 41.3005C204.979 40.9027 205.358 40.4184 205.962 39.8475C206.566 39.2766 207.262 38.9912 208.051 38.9912C208.087 38.9912 208.15 38.9949 208.238 39.0022C208.327 39.0096 208.478 39.0243 208.691 39.0464L208.691 41.1458C208.574 41.1237 208.465 41.1089 208.365 41.1016C208.266 41.0942 208.157 41.0905 208.04 41.0905C207.038 41.0905 206.268 41.4128 205.73 42.0573C205.192 42.7019 204.924 43.444 204.924 44.2838L204.924 51.0901L202.935 51.0901L202.935 39.2564Z"/>
<path d="M223.807 34.4168C225.862 34.4168 227.457 34.9582 228.591 36.041C229.726 37.1238 230.355 38.354 230.481 39.7315L228.337 39.7315C228.094 38.6855 227.61 37.8568 226.884 37.2454C226.158 36.634 225.14 36.3283 223.829 36.3283C222.23 36.3283 220.94 36.89 219.956 38.0133C218.973 39.1367 218.481 40.8585 218.481 43.1788C218.481 45.0793 218.925 46.6207 219.813 47.803C220.7 48.9852 222.024 49.5764 223.785 49.5764C225.405 49.5764 226.639 48.9539 227.486 47.709C227.936 47.0534 228.271 46.1916 228.492 45.1235L230.635 45.1235C230.444 46.8325 229.81 48.2652 228.735 49.4217C227.446 50.8139 225.707 51.51 223.52 51.51C221.634 51.51 220.05 50.9391 218.768 49.7973C217.081 48.2873 216.238 45.9559 216.238 42.8032C216.238 40.4092 216.872 38.4461 218.139 36.9139C219.509 35.2492 221.398 34.4168 223.807 34.4168Z"/>
<path d="M234.569 47.9411C234.569 48.5156 234.779 48.9687 235.199 49.3001C235.618 49.6316 236.116 49.7973 236.69 49.7973C237.39 49.7973 238.068 49.6353 238.723 49.3112C239.828 48.7734 240.381 47.8932 240.381 46.6704L240.381 45.0683C240.138 45.223 239.825 45.3519 239.442 45.455C239.058 45.5581 238.683 45.6318 238.314 45.676L237.11 45.8307C236.388 45.9264 235.847 46.0774 235.486 46.2837C234.874 46.6299 234.569 47.1824 234.569 47.9411ZM239.386 43.9191C239.843 43.8602 240.149 43.6687 240.303 43.3446C240.392 43.1678 240.436 42.9137 240.436 42.5822C240.436 41.9045 240.195 41.4128 239.712 41.1071C239.23 40.8014 238.539 40.6486 237.64 40.6486C236.602 40.6486 235.865 40.9285 235.431 41.4883C235.188 41.7977 235.029 42.2581 234.956 42.8695L233.099 42.8695C233.136 41.411 233.609 40.3963 234.519 39.8254C235.429 39.2545 236.484 38.9691 237.685 38.9691C239.077 38.9691 240.208 39.2343 241.077 39.7646C241.939 40.295 242.37 41.12 242.37 42.2397L242.37 49.057C242.37 49.2633 242.412 49.429 242.497 49.5543C242.581 49.6795 242.76 49.7421 243.033 49.7421C243.121 49.7421 243.22 49.7366 243.331 49.7255C243.441 49.7145 243.559 49.6979 243.684 49.6758L243.684 51.1454C243.375 51.2337 243.139 51.289 242.977 51.3111C242.815 51.3332 242.594 51.3442 242.314 51.3442C241.629 51.3442 241.132 51.1012 240.823 50.615C240.661 50.3572 240.546 49.9925 240.48 49.5211C240.075 50.0515 239.493 50.5119 238.734 50.9023C237.976 51.2927 237.14 51.4879 236.226 51.4879C235.129 51.4879 234.232 51.1546 233.536 50.4879C232.84 49.8213 232.492 48.9871 232.492 47.9853C232.492 46.8877 232.834 46.0369 233.519 45.4329C234.204 44.8289 235.103 44.4569 236.215 44.3169L239.386 43.9191Z"/>
<path d="M245.684 39.2564L247.574 39.2564L247.574 41.3005C247.728 40.9027 248.108 40.4184 248.712 39.8475C249.316 39.2766 250.012 38.9912 250.8 38.9912C250.837 38.9912 250.9 38.9949 250.988 39.0022C251.076 39.0096 251.227 39.0243 251.441 39.0464L251.441 41.1458C251.323 41.1237 251.214 41.1089 251.115 41.1016C251.016 41.0942 250.907 41.0905 250.789 41.0905C249.787 41.0905 249.018 41.4128 248.48 42.0573C247.942 42.7019 247.673 43.444 247.673 44.2838L247.673 51.0901L245.684 51.0901L245.684 39.2564Z"/>
<path d="M254.424 45.3113C254.424 46.5783 254.693 47.6391 255.231 48.4935C255.769 49.348 256.63 49.7752 257.816 49.7752C258.737 49.7752 259.494 49.3793 260.087 48.5875C260.68 47.7956 260.977 46.6594 260.977 45.1788C260.977 43.6834 260.671 42.5767 260.059 41.8585C259.448 41.1403 258.693 40.7812 257.794 40.7812C256.793 40.7812 255.98 41.1642 255.358 41.9303C254.736 42.6964 254.424 43.8234 254.424 45.3113ZM257.419 39.0464C258.325 39.0464 259.083 39.2379 259.695 39.621C260.048 39.842 260.45 40.2287 260.899 40.7812L260.899 34.8035L262.811 34.8035L262.811 51.0901L261.021 51.0901L261.021 49.4438C260.557 50.173 260.008 50.6997 259.374 51.0238C258.741 51.3479 258.015 51.51 257.198 51.51C255.879 51.51 254.737 50.9557 253.772 49.8471C252.807 48.7385 252.325 47.2634 252.325 45.4218C252.325 43.6982 252.765 42.2047 253.645 40.9414C254.526 39.6781 255.783 39.0464 257.419 39.0464Z"/>
<path d="M267.275 47.9411C267.275 48.5156 267.485 48.9687 267.904 49.3001C268.324 49.6316 268.821 49.7973 269.396 49.7973C270.096 49.7973 270.774 49.6353 271.429 49.3112C272.534 48.7734 273.087 47.8932 273.087 46.6704L273.087 45.0683C272.843 45.223 272.53 45.3519 272.147 45.455C271.764 45.5581 271.389 45.6318 271.02 45.676L269.816 45.8307C269.094 45.9264 268.553 46.0774 268.192 46.2837C267.58 46.6299 267.275 47.1824 267.275 47.9411ZM272.092 43.9191C272.549 43.8602 272.854 43.6687 273.009 43.3446C273.098 43.1678 273.142 42.9137 273.142 42.5822C273.142 41.9045 272.901 41.4128 272.418 41.1071C271.936 40.8014 271.245 40.6486 270.346 40.6486C269.308 40.6486 268.571 40.9285 268.136 41.4883C267.893 41.7977 267.735 42.2581 267.661 42.8695L265.805 42.8695C265.842 41.411 266.315 40.3963 267.225 39.8254C268.135 39.2545 269.19 38.9691 270.39 38.9691C271.783 38.9691 272.913 39.2343 273.783 39.7646C274.644 40.295 275.075 41.12 275.075 42.2397L275.075 49.057C275.075 49.2633 275.118 49.429 275.202 49.5543C275.287 49.6795 275.466 49.7421 275.738 49.7421C275.827 49.7421 275.926 49.7366 276.037 49.7255C276.147 49.7145 276.265 49.6979 276.39 49.6758L276.39 51.1454C276.081 51.2337 275.845 51.289 275.683 51.3111C275.521 51.3332 275.3 51.3442 275.02 51.3442C274.335 51.3442 273.838 51.1012 273.528 50.615C273.366 50.3572 273.252 49.9925 273.186 49.5211C272.781 50.0515 272.199 50.5119 271.44 50.9023C270.681 51.2927 269.845 51.4879 268.932 51.4879C267.834 51.4879 266.938 51.1546 266.241 50.4879C265.545 49.8213 265.197 48.9871 265.197 47.9853C265.197 46.8877 265.54 46.0369 266.225 45.4329C266.91 44.8289 267.809 44.4569 268.921 44.3169L272.092 43.9191Z"/>
<path d="M278.335 39.2564L280.224 39.2564L280.224 40.9358C280.784 40.2434 281.377 39.7462 282.003 39.4442C282.629 39.1422 283.325 38.9912 284.092 38.9912C285.771 38.9912 286.905 39.5768 287.495 40.748C287.819 41.3889 287.981 42.3059 287.981 43.4993L287.981 51.0901L285.959 51.0901L285.959 43.6319C285.959 42.91 285.852 42.328 285.638 41.8861C285.285 41.1495 284.644 40.7812 283.716 40.7812C283.244 40.7812 282.858 40.829 282.556 40.9248C282.011 41.0868 281.532 41.411 281.119 41.8971C280.788 42.2875 280.572 42.6908 280.473 43.107C280.373 43.5232 280.324 44.118 280.324 44.8915L280.324 51.0901L278.335 51.0901L278.335 39.2564Z"/>
<path d="M295.616 49.8084C296.934 49.8084 297.839 49.3093 298.329 48.3112C298.818 47.3131 299.063 46.2027 299.063 44.9799C299.063 43.8749 298.887 42.9763 298.533 42.2839C297.973 41.1937 297.008 40.6486 295.638 40.6486C294.423 40.6486 293.539 41.1126 292.986 42.0408C292.434 42.9689 292.158 44.0886 292.158 45.3997C292.158 46.6594 292.434 47.709 292.986 48.5488C293.539 49.3885 294.415 49.8084 295.616 49.8084ZM295.693 38.9138C297.218 38.9138 298.507 39.4221 299.561 40.4386C300.614 41.4552 301.141 42.9505 301.141 44.9246C301.141 46.8325 300.676 48.4088 299.748 49.6537C298.82 50.8986 297.38 51.521 295.428 51.521C293.8 51.521 292.507 50.9704 291.55 49.8692C290.592 48.7679 290.113 47.2892 290.113 45.4329C290.113 43.444 290.618 41.8603 291.627 40.6817C292.636 39.5031 293.992 38.9138 295.693 38.9138Z"/>
<path d="M303.925 53.3994C304.433 53.311 304.791 52.9538 304.997 52.3276C305.107 51.9961 305.162 51.6757 305.162 51.3663C305.162 51.3148 305.161 51.2687 305.157 51.2282C305.153 51.1877 305.144 51.1417 305.129 51.0901L303.925 51.0901L303.925 48.6814L306.29 48.6814L306.29 50.9133C306.29 51.7899 306.113 52.5597 305.759 53.2226C305.406 53.8856 304.794 54.2944 303.925 54.4491L303.925 53.3994Z"/>
<path d="M71.305 63.4793C71.3344 62.6543 71.4781 62.0503 71.7359 61.6673C72.2 60.9896 73.0949 60.6507 74.4209 60.6507C74.5461 60.6507 74.675 60.6544 74.8076 60.6618C74.9402 60.6691 75.0912 60.6802 75.2606 60.6949L75.2606 62.507C75.0543 62.4923 74.9052 62.4831 74.8131 62.4794C74.721 62.4757 74.6345 62.4738 74.5534 62.4738C73.9494 62.4738 73.5885 62.6304 73.4706 62.9434C73.3528 63.2565 73.2938 64.0539 73.2938 65.3356L75.2606 65.3356L75.2606 66.9046L73.2717 66.9046L73.2717 77.1141L71.305 77.1141L71.305 66.9046L69.6586 66.9046L69.6586 65.3356L71.305 65.3356L71.305 63.4793Z"/>
<path d="M77.15 65.2804L79.0394 65.2804L79.0394 67.3245C79.1941 66.9267 79.5735 66.4424 80.1775 65.8715C80.7815 65.3006 81.4776 65.0152 82.2658 65.0152C82.3027 65.0152 82.3653 65.0189 82.4537 65.0262C82.5421 65.0336 82.6931 65.0483 82.9067 65.0704L82.9067 67.1698C82.7888 67.1477 82.6802 67.133 82.5807 67.1256C82.4813 67.1182 82.3726 67.1145 82.2548 67.1145C81.253 67.1145 80.4832 67.4368 79.9455 68.0813C79.4077 68.7259 79.1389 69.468 79.1389 70.3078L79.1389 77.1141L77.15 77.1141L77.15 65.2804Z"/>
<path d="M89.5583 65.0152C90.3981 65.0152 91.212 65.2122 92.0002 65.6063C92.7884 66.0004 93.3887 66.5105 93.8012 67.1366C94.199 67.7333 94.4642 68.4294 94.5968 69.2249C94.7147 69.77 94.7736 70.6392 94.7736 71.8326L86.0999 71.8326C86.1367 73.0333 86.4203 73.9964 86.9507 74.7219C87.4811 75.4475 88.3024 75.8103 89.4147 75.8103C90.4533 75.8103 91.282 75.4678 91.9008 74.7827C92.2544 74.3849 92.5048 73.9246 92.6521 73.4016L94.6078 73.4016C94.5563 73.8362 94.385 74.3205 94.0941 74.8545C93.8031 75.3886 93.4771 75.825 93.1162 76.1639C92.5122 76.7532 91.7645 77.1509 90.8732 77.3572C90.3944 77.4751 89.853 77.534 89.249 77.534C87.7757 77.534 86.5272 76.9981 85.5033 75.9263C84.4794 74.8545 83.9674 73.3537 83.9674 71.4237C83.9674 69.5233 84.483 67.9801 85.5143 66.7941C86.5456 65.6082 87.8936 65.0152 89.5583 65.0152ZM92.7295 70.2525C92.6484 69.3907 92.4606 68.7019 92.166 68.1863C91.6209 67.2287 90.7111 66.7499 89.4368 66.7499C88.5234 66.7499 87.7573 67.0795 87.1385 67.7388C86.5198 68.3981 86.192 69.236 86.1552 70.2525L92.7295 70.2525Z"/>
<path d="M99.2043 65.2804L99.2043 73.1364C99.2043 73.7404 99.3001 74.2339 99.4916 74.617C99.8452 75.3241 100.504 75.6777 101.469 75.6777C102.854 75.6777 103.797 75.059 104.298 73.8214C104.571 73.1585 104.707 72.2488 104.707 71.0923L104.707 65.2804L106.696 65.2804L106.696 77.1141L104.817 77.1141L104.839 75.3683C104.582 75.8177 104.261 76.197 103.878 76.5064C103.119 77.1252 102.199 77.4345 101.116 77.4345C99.429 77.4345 98.2799 76.871 97.6685 75.744C97.337 75.14 97.1713 74.3334 97.1713 73.3242L97.1713 65.2804L99.2043 65.2804Z"/>
<path d="M110.198 61.9766L112.209 61.9766L112.209 65.2804L114.099 65.2804L114.099 66.9046L112.209 66.9046L112.209 74.628C112.209 75.0405 112.349 75.3168 112.629 75.4567C112.784 75.5378 113.042 75.5783 113.403 75.5783C113.498 75.5783 113.602 75.5764 113.712 75.5727C113.823 75.5691 113.951 75.5599 114.099 75.5451L114.099 77.1141C113.87 77.1804 113.633 77.2283 113.386 77.2578C113.139 77.2872 112.872 77.302 112.585 77.302C111.657 77.302 111.027 77.0644 110.696 76.5893C110.364 76.1142 110.198 75.4972 110.198 74.7385L110.198 66.9046L108.596 66.9046L108.596 65.2804L110.198 65.2804L110.198 61.9766Z"/>
<path d="M122.375 65.2804L124.341 65.2804L124.341 66.9598C124.813 66.3779 125.24 65.9544 125.623 65.6892C126.279 65.2398 127.023 65.0152 127.855 65.0152C128.798 65.0152 129.557 65.2472 130.131 65.7113C130.455 65.9765 130.75 66.3669 131.015 66.8825C131.457 66.249 131.976 65.7794 132.573 65.4737C133.17 65.168 133.84 65.0152 134.584 65.0152C136.175 65.0152 137.258 65.5897 137.833 66.7389C138.142 67.3576 138.297 68.19 138.297 69.236L138.297 77.1141L136.23 77.1141L136.23 68.8935C136.23 68.1053 136.033 67.5639 135.639 67.2692C135.245 66.9746 134.765 66.8273 134.197 66.8273C133.417 66.8273 132.744 67.0888 132.181 67.6118C131.617 68.1348 131.336 69.0076 131.336 70.2304L131.336 77.1141L129.314 77.1141L129.314 69.3907C129.314 68.5878 129.218 68.0022 129.026 67.6339C128.724 67.0814 128.161 66.8052 127.336 66.8052C126.584 66.8052 125.901 67.0961 125.286 67.678C124.671 68.26 124.363 69.3133 124.363 70.8381L124.363 77.1141L122.375 77.1141L122.375 65.2804Z"/>
<path d="M141.225 65.3356L143.247 65.3356L143.247 77.1141L141.225 77.1141L141.225 65.3356ZM141.225 60.8828L143.247 60.8828L143.247 63.1368L141.225 63.1368L141.225 60.8828Z"/>
<path d="M150.815 64.9378C152.149 64.9378 153.233 65.2619 154.069 65.9102C154.905 66.5584 155.408 67.6744 155.578 69.2581L153.644 69.2581C153.526 68.5288 153.257 67.923 152.837 67.4405C152.418 66.958 151.744 66.7168 150.815 66.7168C149.548 66.7168 148.642 67.3355 148.097 68.573C147.744 69.376 147.567 70.3667 147.567 71.5453C147.567 72.7312 147.817 73.7294 148.318 74.5396C148.819 75.3499 149.607 75.7551 150.683 75.7551C151.508 75.7551 152.162 75.5028 152.644 74.9982C153.127 74.4936 153.46 73.803 153.644 72.9264L155.578 72.9264C155.357 74.4954 154.804 75.6427 153.92 76.3683C153.036 77.0939 151.906 77.4566 150.528 77.4566C148.981 77.4566 147.747 76.8913 146.827 75.7606C145.906 74.6299 145.445 73.2174 145.445 71.5232C145.445 69.4459 145.95 67.8291 146.959 66.6726C147.968 65.5161 149.254 64.9378 150.815 64.9378Z"/>
<path d="M157.567 60.8275L159.555 60.8275L159.555 66.8825C160.027 66.2858 160.45 65.866 160.826 65.6229C161.467 65.203 162.266 64.9931 163.224 64.9931C164.94 64.9931 166.104 65.5934 166.715 66.7941C167.047 67.4497 167.213 68.3594 167.213 69.5233L167.213 77.1141L165.168 77.1141L165.168 69.6559C165.168 68.7867 165.058 68.1495 164.837 67.7443C164.476 67.0961 163.798 66.772 162.804 66.772C161.979 66.772 161.231 67.0556 160.561 67.6228C159.891 68.19 159.555 69.2618 159.555 70.8381L159.555 77.1141L157.567 77.1141L157.567 60.8275Z"/>
<path d="M170.571 79.4234C171.08 79.335 171.437 78.9778 171.643 78.3516C171.754 78.0202 171.809 77.6997 171.809 77.3903C171.809 77.3388 171.807 77.2927 171.803 77.2522C171.8 77.2117 171.791 77.1657 171.776 77.1141L170.571 77.1141L170.571 74.7054L172.936 74.7054L172.936 76.9373C172.936 77.8139 172.759 78.5837 172.406 79.2466C172.052 79.9096 171.441 80.3184 170.571 80.4731L170.571 79.4234Z"/>
<path d="M189.223 75.2357C189.967 75.2357 190.578 75.1584 191.057 75.0037C191.911 74.7164 192.611 74.164 193.156 73.3463C193.591 72.6907 193.904 71.851 194.095 70.8271C194.206 70.2157 194.261 69.6485 194.261 69.1255C194.261 67.1145 193.861 65.5529 193.062 64.4406C192.263 63.3283 190.976 62.7722 189.201 62.7722L185.3 62.7722L185.3 75.2357L189.223 75.2357ZM183.09 60.8828L189.665 60.8828C191.897 60.8828 193.628 61.6746 194.858 63.2583C195.955 64.6874 196.504 66.5179 196.504 68.7498C196.504 70.4735 196.18 72.0315 195.532 73.4237C194.39 75.884 192.427 77.1141 189.643 77.1141L183.09 77.1141L183.09 60.8828Z"/>
<path d="M199.068 65.3356L201.09 65.3356L201.09 77.1141L199.068 77.1141L199.068 65.3356ZM199.068 60.8828L201.09 60.8828L201.09 63.1368L199.068 63.1368L199.068 60.8828Z"/>
<path d="M208.658 64.9378C209.992 64.9378 211.076 65.2619 211.912 65.9102C212.748 66.5584 213.251 67.6744 213.421 69.2581L211.487 69.2581C211.369 68.5288 211.1 67.923 210.68 67.4405C210.26 66.958 209.586 66.7168 208.658 66.7168C207.391 66.7168 206.485 67.3355 205.94 68.573C205.587 69.376 205.41 70.3667 205.41 71.5453C205.41 72.7312 205.66 73.7294 206.161 74.5396C206.662 75.3499 207.45 75.7551 208.526 75.7551C209.351 75.7551 210.004 75.5028 210.487 74.9982C210.969 74.4936 211.303 73.803 211.487 72.9264L213.421 72.9264C213.2 74.4954 212.647 75.6427 211.763 76.3683C210.879 77.0939 209.748 77.4566 208.371 77.4566C206.824 77.4566 205.59 76.8913 204.669 75.7606C203.749 74.6299 203.288 73.2174 203.288 71.5232C203.288 69.4459 203.793 67.8291 204.802 66.6726C205.811 65.5161 207.097 64.9378 208.658 64.9378Z"/>
<path d="M215.409 60.8275L217.398 60.8275L217.398 66.8825C217.87 66.2858 218.293 65.866 218.669 65.6229C219.31 65.203 220.109 64.9931 221.067 64.9931C222.783 64.9931 223.947 65.5934 224.558 66.7941C224.89 67.4497 225.055 68.3594 225.055 69.5233L225.055 77.1141L223.011 77.1141L223.011 69.6559C223.011 68.7867 222.901 68.1495 222.68 67.7443C222.319 67.0961 221.641 66.772 220.647 66.772C219.822 66.772 219.074 67.0556 218.404 67.6228C217.733 68.19 217.398 69.2618 217.398 70.8381L217.398 77.1141L215.409 77.1141L215.409 60.8275Z"/>
<path d="M233.398 75.5451L240.414 67.0593L233.917 67.0593L233.917 65.2804L243.088 65.2804L243.088 66.9046L236.116 75.3352L243.298 75.3352L243.298 77.1141L233.398 77.1141L233.398 75.5451Z"/>
<path d="M247.585 65.2804L247.585 73.1364C247.585 73.7404 247.681 74.2339 247.872 74.617C248.226 75.3241 248.885 75.6777 249.85 75.6777C251.235 75.6777 252.178 75.059 252.679 73.8214C252.951 73.1585 253.087 72.2488 253.087 71.0923L253.087 65.2804L255.076 65.2804L255.076 77.1141L253.198 77.1141L253.22 75.3683C252.962 75.8177 252.642 76.197 252.259 76.5064C251.5 77.1252 250.579 77.4345 249.496 77.4345C247.809 77.4345 246.66 76.871 246.049 75.744C245.717 75.14 245.552 74.3334 245.552 73.3242L245.552 65.2804L247.585 65.2804Z"/>
<path d="M71.2055 88.0006L73.2165 88.0006L73.2165 91.3044L75.1059 91.3044L75.1059 92.9286L73.2165 92.9286L73.2165 100.652C73.2165 101.065 73.3564 101.341 73.6364 101.481C73.791 101.562 74.0489 101.602 74.4098 101.602C74.5056 101.602 74.6087 101.6 74.7192 101.597C74.8297 101.593 74.9586 101.584 75.1059 101.569L75.1059 103.138C74.8776 103.204 74.64 103.252 74.3932 103.282C74.1465 103.311 73.8794 103.326 73.5922 103.326C72.664 103.326 72.0342 103.088 71.7027 102.613C71.3713 102.138 71.2055 101.521 71.2055 100.763L71.2055 92.9286L69.6034 92.9286L69.6034 91.3044L71.2055 91.3044L71.2055 88.0006Z"/>
<path d="M77.15 91.3044L79.0394 91.3044L79.0394 93.3485C79.1941 92.9507 79.5735 92.4664 80.1775 91.8955C80.7815 91.3246 81.4776 91.0392 82.2658 91.0392C82.3027 91.0392 82.3653 91.0429 82.4537 91.0502C82.5421 91.0576 82.6931 91.0723 82.9067 91.0944L82.9067 93.1938C82.7888 93.1717 82.6802 93.157 82.5807 93.1496C82.4813 93.1422 82.3726 93.1385 82.2548 93.1385C81.253 93.1385 80.4832 93.4608 79.9455 94.1053C79.4077 94.7499 79.1389 95.492 79.1389 96.3318L79.1389 103.138L77.15 103.138L77.15 91.3044Z"/>
<path d="M89.5583 91.0392C90.3981 91.0392 91.212 91.2362 92.0002 91.6303C92.7884 92.0244 93.3887 92.5345 93.8012 93.1606C94.199 93.7573 94.4642 94.4534 94.5968 95.2489C94.7147 95.794 94.7736 96.6633 94.7736 97.8566L86.0999 97.8566C86.1367 99.0573 86.4203 100.02 86.9507 100.746C87.4811 101.472 88.3024 101.834 89.4147 101.834C90.4533 101.834 91.282 101.492 91.9008 100.807C92.2544 100.409 92.5048 99.9486 92.6521 99.4256L94.6078 99.4256C94.5563 99.8602 94.385 100.344 94.0941 100.879C93.8031 101.413 93.4771 101.849 93.1162 102.188C92.5122 102.777 91.7645 103.175 90.8732 103.381C90.3944 103.499 89.853 103.558 89.249 103.558C87.7757 103.558 86.5272 103.022 85.5033 101.95C84.4794 100.879 83.9674 99.3777 83.9674 97.4478C83.9674 95.5473 84.483 94.0041 85.5143 92.8181C86.5456 91.6322 87.8936 91.0392 89.5583 91.0392ZM92.7295 96.2765C92.6484 95.4147 92.4606 94.7259 92.166 94.2103C91.6209 93.2527 90.7111 92.7739 89.4368 92.7739C88.5234 92.7739 87.7573 93.1036 87.1385 93.7628C86.5198 94.4221 86.192 95.26 86.1552 96.2765L92.7295 96.2765Z"/>
<path d="M97.7127 89.5033C97.7422 88.6783 97.8858 88.0743 98.1436 87.6913C98.6077 87.0136 99.5027 86.6747 100.829 86.6747C100.954 86.6747 101.083 86.6784 101.215 86.6858C101.348 86.6931 101.499 86.7042 101.668 86.7189L101.668 88.531C101.462 88.5163 101.313 88.5071 101.221 88.5034C101.129 88.4997 101.042 88.4979 100.961 88.4979C100.357 88.4979 99.9962 88.6544 99.8783 88.9674C99.7605 89.2805 99.7016 90.0779 99.7016 91.3596L101.668 91.3596L101.668 92.9286L99.6795 92.9286L99.6795 103.138L97.7127 103.138L97.7127 92.9286L96.0663 92.9286L96.0663 91.3596L97.7127 91.3596L97.7127 89.5033Z"/>
<path d="M103.602 89.5033C103.631 88.6783 103.775 88.0743 104.033 87.6913C104.497 87.0136 105.392 86.6747 106.718 86.6747C106.843 86.6747 106.972 86.6784 107.105 86.6858C107.237 86.6931 107.388 86.7042 107.558 86.7189L107.558 88.531C107.351 88.5163 107.202 88.5071 107.11 88.5034C107.018 88.4997 106.931 88.4979 106.85 88.4979C106.246 88.4979 105.885 88.6544 105.768 88.9674C105.65 89.2805 105.591 90.0779 105.591 91.3596L107.558 91.3596L107.558 92.9286L105.569 92.9286L105.569 103.138L103.602 103.138L103.602 92.9286L101.956 92.9286L101.956 91.3596L103.602 91.3596L103.602 89.5033Z"/>
<path d="M114.32 91.0392C115.159 91.0392 115.973 91.2362 116.762 91.6303C117.55 92.0244 118.15 92.5345 118.563 93.1606C118.96 93.7573 119.226 94.4534 119.358 95.2489C119.476 95.794 119.535 96.6633 119.535 97.8566L110.861 97.8566C110.898 99.0573 111.182 100.02 111.712 100.746C112.242 101.472 113.064 101.834 114.176 101.834C115.215 101.834 116.043 101.492 116.662 100.807C117.016 100.409 117.266 99.9486 117.414 99.4256L119.369 99.4256C119.318 99.8602 119.146 100.344 118.855 100.879C118.564 101.413 118.239 101.849 117.878 102.188C117.274 102.777 116.526 103.175 115.635 103.381C115.156 103.499 114.614 103.558 114.01 103.558C112.537 103.558 111.289 103.022 110.265 101.95C109.241 100.879 108.729 99.3777 108.729 97.4478C108.729 95.5473 109.244 94.0041 110.276 92.8181C111.307 91.6322 112.655 91.0392 114.32 91.0392ZM117.491 96.2765C117.41 95.4147 117.222 94.7259 116.927 94.2103C116.382 93.2527 115.473 92.7739 114.198 92.7739C113.285 92.7739 112.519 93.1036 111.9 93.7628C111.281 94.4221 110.953 95.26 110.917 96.2765L117.491 96.2765Z"/>
<path d="M121.977 91.3044L123.866 91.3044L123.866 92.9839C124.426 92.2914 125.019 91.7942 125.645 91.4922C126.271 91.1902 126.967 91.0392 127.734 91.0392C129.413 91.0392 130.547 91.6248 131.137 92.796C131.461 93.4369 131.623 94.354 131.623 95.5473L131.623 103.138L129.601 103.138L129.601 95.6799C129.601 94.958 129.494 94.3761 129.28 93.9341C128.927 93.1975 128.286 92.8292 127.358 92.8292C126.886 92.8292 126.5 92.877 126.198 92.9728C125.653 93.1349 125.174 93.459 124.761 93.9451C124.43 94.3355 124.214 94.7388 124.115 95.155C124.015 95.5712 123.966 96.166 123.966 96.9395L123.966 103.138L121.977 103.138L121.977 91.3044Z"/>
<path d="M135.722 86.9068L137.965 86.9068L137.965 92.2435L137.424 99.2709L136.297 99.2709L135.722 92.2435L135.722 86.9068ZM135.722 100.84L137.921 100.84L137.921 103.138L135.722 103.138L135.722 100.84Z"/>
</g>
</g>
</svg>
