<?xml version="1.0" encoding="UTF-8" standalone="no"?>
<!DOCTYPE svg PUBLIC "-//W3C//DTD SVG 1.1//EN" "http://www.w3.org/Graphics/SVG/1.1/DTD/svg11.dtd">
<!-- Created with Vectornator (http://vectornator.io/) -->
<svg height="100%" stroke-miterlimit="10" style="fill-rule:nonzero;clip-rule:evenodd;stroke-linecap:round;stroke-linejoin:round;" version="1.1" viewBox="0 0 483.785 271.973" width="100%" xml:space="preserve" xmlns="http://www.w3.org/2000/svg" xmlns:vectornator="http://vectornator.io" xmlns:xlink="http://www.w3.org/1999/xlink">
<defs>
<filter color-interpolation-filters="sRGB" filterUnits="userSpaceOnUse" height="116.401" id="Filter" width="331.26" x="84.9502" y="53.3895">
<feDropShadow dx="-5.17605" dy="9.1513" flood-color="#000000" flood-opacity="0.333" in="SourceGraphic" result="Shadow" stdDeviation="3.15411"/>
</filter>
</defs>
<g id="Ebene-1" vectornator:layerName="Ebene 1">
<path d="M29.1309 100.291C29.1309 50.5161 129.623 10.1653 253.586 10.1653C377.549 10.1653 478.041 50.5161 478.041 100.291C478.041 150.067 377.549 190.418 253.586 190.418C211.416 190.418 171.962 185.748 138.256 177.626C124.354 174.276 25.9023 270.896 14.1683 266.457C3.11001 262.273 78.6357 157.087 69.8707 152.083C44.2019 137.43 29.1309 119.568 29.1309 100.291Z" fill="#f1f1f1" fill-rule="nonzero" opacity="1" stroke="#000000" stroke-linecap="butt" stroke-linejoin="round" stroke-width="3.95539"/>
<g fill="#000000" filter="url(#Filter)" stroke="none" vectornator:shadowAngle="2.08554" vectornator:shadowColor="#000000" vectornator:shadowOffset="10.5137" vectornator:shadowOpacity="0.333" vectornator:shadowRadius="6.30822">
<path d="M100.111 53.4447L102.332 53.4447L102.332 69.6761L100.111 69.6761L100.111 53.4447Z"/>
<path d="M110.199 57.4998C111.532 57.4998 112.617 57.8239 113.453 58.4721C114.289 59.1203 114.792 60.2363 114.961 61.8201L113.028 61.8201C112.91 61.0908 112.641 60.4849 112.221 60.0024C111.801 59.52 111.127 59.2787 110.199 59.2787C108.932 59.2787 108.026 59.8975 107.481 61.135C107.127 61.9379 106.95 62.9287 106.95 64.1072C106.95 65.2932 107.201 66.2913 107.702 67.1016C108.203 67.9119 108.991 68.317 110.066 68.317C110.891 68.317 111.545 68.0647 112.028 67.5601C112.51 67.0556 112.843 66.365 113.028 65.4884L114.961 65.4884C114.74 67.0574 114.188 68.2047 113.304 68.9302C112.42 69.6558 111.289 70.0186 109.912 70.0186C108.365 70.0186 107.131 69.4532 106.21 68.3225C105.289 67.1918 104.829 65.7794 104.829 64.0851C104.829 62.0079 105.334 60.391 106.343 59.2345C107.352 58.078 108.637 57.4998 110.199 57.4998Z"/>
<path d="M116.95 53.3895L118.939 53.3895L118.939 59.4445C119.41 58.8478 119.834 58.4279 120.21 58.1848C120.85 57.765 121.65 57.555 122.607 57.555C124.324 57.555 125.487 58.1554 126.099 59.3561C126.43 60.0117 126.596 60.9214 126.596 62.0852L126.596 69.6761L124.552 69.6761L124.552 62.2178C124.552 61.3486 124.441 60.7114 124.22 60.3063C123.859 59.6581 123.182 59.334 122.187 59.334C121.362 59.334 120.615 59.6176 119.944 60.1848C119.274 60.752 118.939 61.8237 118.939 63.4001L118.939 69.6761L116.95 69.6761L116.95 53.3895Z"/>
<path d="M135.667 53.3895L137.601 53.3895L137.601 59.2787C138.036 58.7115 138.555 58.2788 139.159 57.9804C139.763 57.6821 140.419 57.5329 141.126 57.5329C142.599 57.5329 143.794 58.0394 144.711 59.0522C145.628 60.0651 146.087 61.5586 146.087 63.5327C146.087 65.4037 145.634 66.958 144.728 68.1955C143.822 69.433 142.566 70.0517 140.96 70.0517C140.061 70.0517 139.303 69.8344 138.684 69.3998C138.316 69.142 137.921 68.7295 137.502 68.1623L137.502 69.6761L135.667 69.6761L135.667 53.3895ZM140.838 68.2949C141.914 68.2949 142.719 67.8677 143.253 67.0132C143.787 66.1587 144.054 65.0317 144.054 63.6321C144.054 62.3872 143.787 61.356 143.253 60.5383C142.719 59.7207 141.932 59.3119 140.894 59.3119C139.988 59.3119 139.194 59.647 138.513 60.3174C137.831 60.9877 137.491 62.0926 137.491 63.6321C137.491 64.7444 137.631 65.6468 137.91 66.3392C138.433 67.643 139.409 68.2949 140.838 68.2949Z"/>
<path d="M148.462 57.8423L150.352 57.8423L150.352 59.8864C150.507 59.4887 150.886 59.0043 151.49 58.4335C152.094 57.8626 152.79 57.5771 153.578 57.5771C153.615 57.5771 153.678 57.5808 153.766 57.5882C153.855 57.5956 154.006 57.6103 154.219 57.6324L154.219 59.7317C154.101 59.7096 153.993 59.6949 153.893 59.6875C153.794 59.6802 153.685 59.6765 153.567 59.6765C152.565 59.6765 151.796 59.9988 151.258 60.6433C150.72 61.2878 150.451 62.03 150.451 62.8697L150.451 69.6761L148.462 69.6761L148.462 57.8423Z"/>
<path d="M157.468 66.527C157.468 67.1016 157.678 67.5546 158.097 67.8861C158.517 68.2176 159.015 68.3833 159.589 68.3833C160.289 68.3833 160.967 68.2213 161.622 67.8971C162.727 67.3594 163.28 66.4792 163.28 65.2564L163.28 63.6542C163.036 63.8089 162.723 63.9378 162.34 64.041C161.957 64.1441 161.582 64.2177 161.213 64.2619L160.009 64.4166C159.287 64.5124 158.746 64.6634 158.385 64.8696C157.773 65.2159 157.468 65.7683 157.468 66.527ZM162.285 62.5051C162.742 62.4462 163.048 62.2547 163.202 61.9305C163.291 61.7538 163.335 61.4996 163.335 61.1681C163.335 60.4905 163.094 59.9988 162.611 59.6931C162.129 59.3874 161.438 59.2345 160.539 59.2345C159.501 59.2345 158.764 59.5144 158.329 60.0743C158.086 60.3836 157.928 60.844 157.854 61.4554L155.998 61.4554C156.035 59.9969 156.508 58.9822 157.418 58.4114C158.328 57.8405 159.383 57.555 160.584 57.555C161.976 57.555 163.106 57.8202 163.976 58.3506C164.837 58.8809 165.268 59.706 165.268 60.8256L165.268 67.643C165.268 67.8493 165.311 68.015 165.395 68.1402C165.48 68.2655 165.659 68.3281 165.931 68.3281C166.02 68.3281 166.119 68.3225 166.23 68.3115C166.34 68.3004 166.458 68.2839 166.583 68.2618L166.583 69.7313C166.274 69.8197 166.038 69.875 165.876 69.8971C165.714 69.9192 165.493 69.9302 165.213 69.9302C164.528 69.9302 164.031 69.6871 163.722 69.201C163.559 68.9431 163.445 68.5785 163.379 68.1071C162.974 68.6374 162.392 69.0978 161.633 69.4882C160.874 69.8786 160.038 70.0738 159.125 70.0738C158.027 70.0738 157.131 69.7405 156.435 69.0739C155.738 68.4072 155.39 67.573 155.39 66.5712C155.39 65.4737 155.733 64.6229 156.418 64.0189C157.103 63.4148 158.002 63.0428 159.114 62.9029L162.285 62.5051Z"/>
<path d="M170.517 57.8423L170.517 65.6983C170.517 66.3024 170.613 66.7959 170.804 67.1789C171.158 67.8861 171.817 68.2397 172.782 68.2397C174.167 68.2397 175.11 67.6209 175.611 66.3834C175.883 65.7204 176.019 64.8107 176.019 63.6542L176.019 57.8423L178.008 57.8423L178.008 69.6761L176.13 69.6761L176.152 67.9303C175.894 68.3796 175.574 68.759 175.191 69.0684C174.432 69.6871 173.511 69.9965 172.428 69.9965C170.741 69.9965 169.592 69.433 168.981 68.306C168.649 67.7019 168.484 66.8953 168.484 65.8862L168.484 57.8423L170.517 57.8423Z"/>
<path d="M185.676 57.4998C187.01 57.4998 188.094 57.8239 188.93 58.4721C189.766 59.1203 190.269 60.2363 190.439 61.8201L188.505 61.8201C188.387 61.0908 188.118 60.4849 187.698 60.0024C187.279 59.52 186.605 59.2787 185.676 59.2787C184.409 59.2787 183.503 59.8975 182.958 61.135C182.605 61.9379 182.428 62.9287 182.428 64.1072C182.428 65.2932 182.678 66.2913 183.179 67.1016C183.68 67.9119 184.468 68.317 185.544 68.317C186.369 68.317 187.023 68.0647 187.505 67.5601C187.988 67.0556 188.321 66.365 188.505 65.4884L190.439 65.4884C190.218 67.0574 189.665 68.2047 188.781 68.9302C187.897 69.6558 186.767 70.0186 185.389 70.0186C183.842 70.0186 182.608 69.4532 181.688 68.3225C180.767 67.1918 180.306 65.7794 180.306 64.0851C180.306 62.0079 180.811 60.391 181.82 59.2345C182.829 58.078 184.115 57.4998 185.676 57.4998Z"/>
<path d="M192.427 53.3895L194.416 53.3895L194.416 59.4445C194.888 58.8478 195.311 58.4279 195.687 58.1848C196.328 57.765 197.127 57.555 198.085 57.555C199.801 57.555 200.965 58.1554 201.576 59.3561C201.908 60.0117 202.073 60.9214 202.073 62.0852L202.073 69.6761L200.029 69.6761L200.029 62.2178C200.029 61.3486 199.919 60.7114 199.698 60.3063C199.337 59.6581 198.659 59.334 197.665 59.334C196.84 59.334 196.092 59.6176 195.422 60.1848C194.752 60.752 194.416 61.8237 194.416 63.4001L194.416 69.6761L192.427 69.6761L192.427 53.3895Z"/>
<path d="M209.941 57.5771C210.78 57.5771 211.594 57.7742 212.382 58.1683C213.171 58.5624 213.771 59.0725 214.183 59.6986C214.581 60.2953 214.846 60.9914 214.979 61.7869C215.097 62.332 215.156 63.2012 215.156 64.3945L206.482 64.3945C206.519 65.5952 206.803 66.5583 207.333 67.2839C207.863 68.0095 208.685 68.3723 209.797 68.3723C210.836 68.3723 211.664 68.0297 212.283 67.3447C212.637 66.9469 212.887 66.4865 213.034 65.9635L214.99 65.9635C214.938 66.3981 214.767 66.8825 214.476 67.4165C214.185 67.9505 213.859 68.387 213.498 68.7258C212.894 69.3151 212.147 69.7129 211.255 69.9192C210.777 70.037 210.235 70.0959 209.631 70.0959C208.158 70.0959 206.909 69.5601 205.885 68.4883C204.862 67.4165 204.35 65.9156 204.35 63.9857C204.35 62.0852 204.865 60.542 205.897 59.3561C206.928 58.1701 208.276 57.5771 209.941 57.5771ZM213.112 62.8145C213.031 61.9526 212.843 61.2639 212.548 60.7483C212.003 59.7907 211.093 59.3119 209.819 59.3119C208.906 59.3119 208.14 59.6415 207.521 60.3008C206.902 60.9601 206.574 61.798 206.537 62.8145L213.112 62.8145Z"/>
<path d="M223.885 57.8423L225.774 57.8423L225.774 59.5218C226.334 58.8294 226.927 58.3322 227.553 58.0302C228.179 57.7281 228.875 57.5771 229.641 57.5771C231.321 57.5771 232.455 58.1627 233.045 59.334C233.369 59.9748 233.531 60.8919 233.531 62.0852L233.531 69.6761L231.509 69.6761L231.509 62.2178C231.509 61.4959 231.402 60.914 231.188 60.472C230.835 59.7354 230.194 59.3671 229.266 59.3671C228.794 59.3671 228.408 59.415 228.106 59.5108C227.56 59.6728 227.082 59.9969 226.669 60.4831C226.338 60.8735 226.122 61.2768 226.023 61.693C225.923 62.1092 225.874 62.704 225.874 63.4774L225.874 69.6761L223.885 69.6761L223.885 57.8423Z"/>
<path d="M237.995 66.527C237.995 67.1016 238.205 67.5546 238.624 67.8861C239.044 68.2176 239.542 68.3833 240.116 68.3833C240.816 68.3833 241.494 68.2213 242.149 67.8971C243.254 67.3594 243.807 66.4792 243.807 65.2564L243.807 63.6542C243.563 63.8089 243.25 63.9378 242.867 64.041C242.484 64.1441 242.109 64.2177 241.74 64.2619L240.536 64.4166C239.814 64.5124 239.273 64.6634 238.912 64.8696C238.3 65.2159 237.995 65.7683 237.995 66.527ZM242.812 62.5051C243.269 62.4462 243.574 62.2547 243.729 61.9305C243.818 61.7538 243.862 61.4996 243.862 61.1681C243.862 60.4905 243.621 59.9988 243.138 59.6931C242.656 59.3874 241.965 59.2345 241.066 59.2345C240.028 59.2345 239.291 59.5144 238.856 60.0743C238.613 60.3836 238.455 60.844 238.381 61.4554L236.525 61.4554C236.562 59.9969 237.035 58.9822 237.945 58.4114C238.855 57.8405 239.91 57.555 241.111 57.555C242.503 57.555 243.633 57.8202 244.503 58.3506C245.364 58.8809 245.795 59.706 245.795 60.8256L245.795 67.643C245.795 67.8493 245.838 68.015 245.922 68.1402C246.007 68.2655 246.186 68.3281 246.458 68.3281C246.547 68.3281 246.646 68.3225 246.757 68.3115C246.867 68.3004 246.985 68.2839 247.11 68.2618L247.11 69.7313C246.801 69.8197 246.565 69.875 246.403 69.8971C246.241 69.9192 246.02 69.9302 245.74 69.9302C245.055 69.9302 244.558 69.6871 244.248 69.201C244.086 68.9431 243.972 68.5785 243.906 68.1071C243.501 68.6374 242.919 69.0978 242.16 69.4882C241.401 69.8786 240.565 70.0738 239.652 70.0738C238.554 70.0738 237.658 69.7405 236.962 69.0739C236.265 68.4072 235.917 67.573 235.917 66.5712C235.917 65.4737 236.26 64.6229 236.945 64.0189C237.63 63.4148 238.529 63.0428 239.641 62.9029L242.812 62.5051ZM242.204 53.7099L244.271 53.7099L244.271 56.0081L242.204 56.0081L242.204 53.7099ZM238.558 53.7099L240.624 53.7099L240.624 56.0081L238.558 56.0081L238.558 53.7099Z"/>
<path d="M249.055 57.8423L251.022 57.8423L251.022 59.5218C251.493 58.9399 251.92 58.5163 252.303 58.2511C252.959 57.8018 253.703 57.5771 254.535 57.5771C255.478 57.5771 256.237 57.8092 256.812 58.2732C257.136 58.5384 257.43 58.9288 257.695 59.4445C258.137 58.811 258.657 58.3414 259.253 58.0357C259.85 57.73 260.52 57.5771 261.264 57.5771C262.855 57.5771 263.938 58.1517 264.513 59.3008C264.822 59.9196 264.977 60.752 264.977 61.798L264.977 69.6761L262.911 69.6761L262.911 61.4554C262.911 60.6672 262.714 60.1258 262.32 59.8312C261.925 59.5365 261.445 59.3892 260.878 59.3892C260.097 59.3892 259.425 59.6507 258.861 60.1737C258.298 60.6967 258.016 61.5696 258.016 62.7924L258.016 69.6761L255.994 69.6761L255.994 61.9526C255.994 61.1497 255.898 60.5641 255.707 60.1958C255.405 59.6433 254.841 59.3671 254.016 59.3671C253.265 59.3671 252.581 59.6581 251.966 60.24C251.351 60.8219 251.044 61.8753 251.044 63.4001L251.044 69.6761L249.055 69.6761L249.055 57.8423Z"/>
<path d="M267.96 53.4447L269.949 53.4447L269.949 69.6761L267.96 69.6761L267.96 53.4447Z"/>
<path d="M272.932 57.8976L274.954 57.8976L274.954 69.6761L272.932 69.6761L272.932 57.8976ZM272.932 53.4447L274.954 53.4447L274.954 55.6988L272.932 55.6988L272.932 53.4447Z"/>
<path d="M282.523 57.4998C283.856 57.4998 284.941 57.8239 285.777 58.4721C286.613 59.1203 287.116 60.2363 287.285 61.8201L285.352 61.8201C285.234 61.0908 284.965 60.4849 284.545 60.0024C284.125 59.52 283.451 59.2787 282.523 59.2787C281.256 59.2787 280.35 59.8975 279.805 61.135C279.451 61.9379 279.275 62.9287 279.275 64.1072C279.275 65.2932 279.525 66.2913 280.026 67.1016C280.527 67.9119 281.315 68.317 282.391 68.317C283.216 68.317 283.869 68.0647 284.352 67.5601C284.834 67.0556 285.168 66.365 285.352 65.4884L287.285 65.4884C287.064 67.0574 286.512 68.2047 285.628 68.9302C284.744 69.6558 283.613 70.0186 282.236 70.0186C280.689 70.0186 279.455 69.4532 278.534 68.3225C277.614 67.1918 277.153 65.7794 277.153 64.0851C277.153 62.0079 277.658 60.391 278.667 59.2345C279.676 58.078 280.961 57.4998 282.523 57.4998Z"/>
<path d="M289.274 53.3895L291.263 53.3895L291.263 59.4445C291.735 58.8478 292.158 58.4279 292.534 58.1848C293.175 57.765 293.974 57.555 294.931 57.555C296.648 57.555 297.812 58.1554 298.423 59.3561C298.754 60.0117 298.92 60.9214 298.92 62.0852L298.92 69.6761L296.876 69.6761L296.876 62.2178C296.876 61.3486 296.766 60.7114 296.545 60.3063C296.184 59.6581 295.506 59.334 294.512 59.334C293.687 59.334 292.939 59.6176 292.269 60.1848C291.598 60.752 291.263 61.8237 291.263 63.4001L291.263 69.6761L289.274 69.6761L289.274 53.3895Z"/>
<path d="M310.135 57.8423L310.135 65.6983C310.135 66.3024 310.231 66.7959 310.422 67.1789C310.776 67.8861 311.435 68.2397 312.4 68.2397C313.785 68.2397 314.728 67.6209 315.229 66.3834C315.501 65.7204 315.638 64.8107 315.638 63.6542L315.638 57.8423L317.627 57.8423L317.627 69.6761L315.748 69.6761L315.77 67.9303C315.513 68.3796 315.192 68.759 314.809 69.0684C314.05 69.6871 313.13 69.9965 312.047 69.9965C310.36 69.9965 309.211 69.433 308.599 68.306C308.268 67.7019 308.102 66.8953 308.102 65.8862L308.102 57.8423L310.135 57.8423Z"/>
<path d="M320.731 57.8423L322.621 57.8423L322.621 59.5218C323.181 58.8294 323.774 58.3322 324.4 58.0302C325.026 57.7281 325.722 57.5771 326.488 57.5771C328.168 57.5771 329.302 58.1627 329.891 59.334C330.215 59.9748 330.377 60.8919 330.377 62.0852L330.377 69.6761L328.355 69.6761L328.355 62.2178C328.355 61.4959 328.249 60.914 328.035 60.472C327.681 59.7354 327.041 59.3671 326.112 59.3671C325.641 59.3671 325.254 59.415 324.952 59.5108C324.407 59.6728 323.928 59.9969 323.516 60.4831C323.184 60.8735 322.969 61.2768 322.869 61.693C322.77 62.1092 322.72 62.704 322.72 63.4774L322.72 69.6761L320.731 69.6761L320.731 57.8423Z"/>
<path d="M333.162 53.3895L335.095 53.3895L335.095 59.2787C335.53 58.7115 336.049 58.2788 336.653 57.9804C337.257 57.6821 337.913 57.5329 338.62 57.5329C340.093 57.5329 341.289 58.0394 342.206 59.0522C343.123 60.0651 343.581 61.5586 343.581 63.5327C343.581 65.4037 343.128 66.958 342.222 68.1955C341.316 69.433 340.06 70.0517 338.454 70.0517C337.556 70.0517 336.797 69.8344 336.178 69.3998C335.81 69.142 335.416 68.7295 334.996 68.1623L334.996 69.6761L333.162 69.6761L333.162 53.3895ZM338.333 68.2949C339.408 68.2949 340.213 67.8677 340.747 67.0132C341.281 66.1587 341.548 65.0317 341.548 63.6321C341.548 62.3872 341.281 61.356 340.747 60.5383C340.213 59.7207 339.427 59.3119 338.388 59.3119C337.482 59.3119 336.688 59.647 336.007 60.3174C335.326 60.9877 334.985 62.0926 334.985 63.6321C334.985 64.7444 335.125 65.6468 335.405 66.3392C335.928 67.643 336.904 68.2949 338.333 68.2949Z"/>
<path d="M350.83 57.5771C351.669 57.5771 352.483 57.7742 353.272 58.1683C354.06 58.5624 354.66 59.0725 355.073 59.6986C355.47 60.2953 355.736 60.9914 355.868 61.7869C355.986 62.332 356.045 63.2012 356.045 64.3945L347.371 64.3945C347.408 65.5952 347.692 66.5583 348.222 67.2839C348.752 68.0095 349.574 68.3723 350.686 68.3723C351.725 68.3723 352.553 68.0297 353.172 67.3447C353.526 66.9469 353.776 66.4865 353.923 65.9635L355.879 65.9635C355.828 66.3981 355.656 66.8825 355.365 67.4165C355.074 67.9505 354.748 68.387 354.387 68.7258C353.783 69.3151 353.036 69.7129 352.144 69.9192C351.666 70.037 351.124 70.0959 350.52 70.0959C349.047 70.0959 347.798 69.5601 346.775 68.4883C345.751 67.4165 345.239 65.9156 345.239 63.9857C345.239 62.0852 345.754 60.542 346.786 59.3561C347.817 58.1701 349.165 57.5771 350.83 57.5771ZM354.001 62.8145C353.92 61.9526 353.732 61.2639 353.437 60.7483C352.892 59.7907 351.982 59.3119 350.708 59.3119C349.795 59.3119 349.029 59.6415 348.41 60.3008C347.791 60.9601 347.463 61.798 347.426 62.8145L354.001 62.8145Z"/>
<path d="M359.746 63.8973C359.746 65.1643 360.015 66.225 360.553 67.0795C361.091 67.934 361.953 68.3612 363.139 68.3612C364.059 68.3612 364.816 67.9653 365.409 67.1734C366.002 66.3816 366.299 65.2453 366.299 63.7647C366.299 62.2694 365.993 61.1626 365.382 60.4444C364.77 59.7262 364.015 59.3671 363.116 59.3671C362.115 59.3671 361.302 59.7502 360.68 60.5162C360.058 61.2823 359.746 62.4093 359.746 63.8973ZM362.741 57.6324C363.647 57.6324 364.405 57.8239 365.017 58.2069C365.37 58.4279 365.772 58.8147 366.221 59.3671L366.221 53.3895L368.133 53.3895L368.133 69.6761L366.343 69.6761L366.343 68.0297C365.879 68.759 365.33 69.2857 364.696 69.6098C364.063 69.9339 363.337 70.0959 362.52 70.0959C361.201 70.0959 360.059 69.5416 359.094 68.433C358.13 67.3244 357.647 65.8493 357.647 64.0078C357.647 62.2841 358.087 60.7906 358.967 59.5273C359.848 58.264 361.105 57.6324 362.741 57.6324Z"/>
<path d="M371.072 57.8976L373.094 57.8976L373.094 69.6761L371.072 69.6761L371.072 57.8976ZM371.072 53.4447L373.094 53.4447L373.094 55.6988L371.072 55.6988L371.072 53.4447Z"/>
<path d="M376.099 57.8423L377.989 57.8423L377.989 59.5218C378.549 58.8294 379.142 58.3322 379.768 58.0302C380.394 57.7281 381.09 57.5771 381.856 57.5771C383.535 57.5771 384.67 58.1627 385.259 59.334C385.583 59.9748 385.745 60.8919 385.745 62.0852L385.745 69.6761L383.723 69.6761L383.723 62.2178C383.723 61.4959 383.616 60.914 383.403 60.472C383.049 59.7354 382.408 59.3671 381.48 59.3671C381.009 59.3671 380.622 59.415 380.32 59.5108C379.775 59.6728 379.296 59.9969 378.884 60.4831C378.552 60.8735 378.337 61.2768 378.237 61.693C378.138 62.1092 378.088 62.704 378.088 63.4774L378.088 69.6761L376.099 69.6761L376.099 57.8423Z"/>
<path d="M392.861 57.6324C393.789 57.6324 394.599 57.8607 395.292 58.3174C395.668 58.5753 396.051 58.9509 396.441 59.4445L396.441 57.9528L398.275 57.9528L398.275 68.7148C398.275 70.2175 398.054 71.4034 397.612 72.2726C396.787 73.8785 395.229 74.6814 392.938 74.6814C391.664 74.6814 390.592 74.3959 389.723 73.8251C388.854 73.2542 388.368 72.361 388.265 71.1456L390.287 71.1456C390.382 71.676 390.574 72.0848 390.861 72.3721C391.31 72.8141 392.018 73.035 392.983 73.035C394.507 73.035 395.505 72.4973 395.977 71.4219C396.257 70.7884 396.386 69.6577 396.364 68.0297C395.966 68.6338 395.487 69.0831 394.927 69.3777C394.367 69.6724 393.627 69.8197 392.706 69.8197C391.425 69.8197 390.303 69.3649 389.342 68.4551C388.381 67.5454 387.9 66.0409 387.9 63.9415C387.9 61.96 388.384 60.4131 389.353 59.3008C390.322 58.1885 391.491 57.6324 392.861 57.6324ZM396.441 63.7095C396.441 62.2436 396.139 61.1571 395.535 60.4499C394.931 59.7428 394.161 59.3892 393.226 59.3892C391.826 59.3892 390.868 60.0448 390.353 61.356C390.08 62.0558 389.944 62.9729 389.944 64.1072C389.944 65.4405 390.215 66.4552 390.756 67.1513C391.298 67.8474 392.025 68.1955 392.938 68.1955C394.367 68.1955 395.373 67.5509 395.955 66.2619C396.279 65.5326 396.441 64.6818 396.441 63.7095Z"/>
<path d="M401.667 54.5386L403.678 54.5386L403.678 57.8423L405.568 57.8423L405.568 59.4666L403.678 59.4666L403.678 67.19C403.678 67.6025 403.818 67.8787 404.098 68.0187C404.253 68.0997 404.511 68.1402 404.872 68.1402C404.967 68.1402 405.07 68.1384 405.181 68.1347C405.291 68.131 405.42 68.1218 405.568 68.1071L405.568 69.6761C405.339 69.7424 405.102 69.7902 404.855 69.8197C404.608 69.8492 404.341 69.8639 404.054 69.8639C403.126 69.8639 402.496 69.6264 402.164 69.1512C401.833 68.6761 401.667 68.0592 401.667 67.3005L401.667 59.4666L400.065 59.4666L400.065 57.8423L401.667 57.8423L401.667 54.5386Z"/>
<path d="M105.845 93.8217C106.589 93.8217 107.201 93.7444 107.68 93.5897C108.534 93.3024 109.234 92.7499 109.779 91.9323C110.214 91.2767 110.527 90.4369 110.718 89.413C110.829 88.8017 110.884 88.2345 110.884 87.7115C110.884 85.7005 110.484 84.1389 109.685 83.0266C108.886 81.9143 107.599 81.3581 105.823 81.3581L101.923 81.3581L101.923 93.8217L105.845 93.8217ZM99.7132 79.4687L106.287 79.4687C108.519 79.4687 110.25 80.2606 111.481 81.8443C112.578 83.2733 113.127 85.1038 113.127 87.3358C113.127 89.0595 112.803 90.6174 112.155 92.0096C111.013 94.4699 109.05 95.7001 106.265 95.7001L99.7132 95.7001L99.7132 79.4687Z"/>
<path d="M120.618 83.6011C121.458 83.6011 122.272 83.7982 123.06 84.1923C123.848 84.5864 124.449 85.0965 124.861 85.7226C125.259 86.3193 125.524 87.0154 125.657 87.8109C125.775 88.356 125.834 89.2252 125.834 90.4185L117.16 90.4185C117.197 91.6192 117.48 92.5823 118.011 93.3079C118.541 94.0335 119.362 94.3963 120.475 94.3963C121.513 94.3963 122.342 94.0537 122.961 93.3687C123.314 92.9709 123.565 92.5105 123.712 91.9875L125.668 91.9875C125.616 92.4221 125.445 92.9065 125.154 93.4405C124.863 93.9746 124.537 94.411 124.176 94.7498C123.572 95.3391 122.825 95.7369 121.933 95.9432C121.454 96.061 120.913 96.1199 120.309 96.1199C118.836 96.1199 117.587 95.5841 116.563 94.5123C115.539 93.4405 115.027 91.9396 115.027 90.0097C115.027 88.1092 115.543 86.566 116.574 85.3801C117.606 84.1941 118.954 83.6011 120.618 83.6011ZM123.789 88.8385C123.708 87.9766 123.521 87.2879 123.226 86.7723C122.681 85.8147 121.771 85.3359 120.497 85.3359C119.583 85.3359 118.817 85.6655 118.199 86.3248C117.58 86.9841 117.252 87.822 117.215 88.8385L123.789 88.8385Z"/>
<path d="M128.275 83.9216L130.298 83.9216L130.298 95.7001L128.275 95.7001L128.275 83.9216ZM128.275 79.4687L130.298 79.4687L130.298 81.7228L128.275 81.7228L128.275 79.4687Z"/>
<path d="M133.303 83.8663L135.192 83.8663L135.192 85.5458C135.752 84.8534 136.345 84.3562 136.971 84.0542C137.597 83.7521 138.293 83.6011 139.06 83.6011C140.739 83.6011 141.873 84.1868 142.463 85.358C142.787 85.9988 142.949 86.9159 142.949 88.1092L142.949 95.7001L140.927 95.7001L140.927 88.2418C140.927 87.5199 140.82 86.938 140.606 86.496C140.253 85.7594 139.612 85.3911 138.684 85.3911C138.212 85.3911 137.826 85.439 137.524 85.5348C136.979 85.6968 136.5 86.0209 136.087 86.5071C135.756 86.8975 135.54 87.3008 135.441 87.717C135.341 88.1332 135.292 88.728 135.292 89.5014L135.292 95.7001L133.303 95.7001L133.303 83.8663Z"/>
<path d="M150.816 83.6011C151.656 83.6011 152.47 83.7982 153.258 84.1923C154.046 84.5864 154.646 85.0965 155.059 85.7226C155.457 86.3193 155.722 87.0154 155.854 87.8109C155.972 88.356 156.031 89.2252 156.031 90.4185L147.358 90.4185C147.394 91.6192 147.678 92.5823 148.208 93.3079C148.739 94.0335 149.56 94.3963 150.672 94.3963C151.711 94.3963 152.54 94.0537 153.158 93.3687C153.512 92.9709 153.762 92.5105 153.91 91.9875L155.865 91.9875C155.814 92.4221 155.643 92.9065 155.352 93.4405C155.061 93.9746 154.735 94.411 154.374 94.7498C153.77 95.3391 153.022 95.7369 152.131 95.9432C151.652 96.061 151.111 96.1199 150.507 96.1199C149.033 96.1199 147.785 95.5841 146.761 94.5123C145.737 93.4405 145.225 91.9396 145.225 90.0097C145.225 88.1092 145.741 86.566 146.772 85.3801C147.803 84.1941 149.151 83.6011 150.816 83.6011ZM153.987 88.8385C153.906 87.9766 153.718 87.2879 153.424 86.7723C152.879 85.8147 151.969 85.3359 150.694 85.3359C149.781 85.3359 149.015 85.6655 148.396 86.3248C147.777 86.9841 147.45 87.822 147.413 88.8385L153.987 88.8385Z"/>
<path d="M165.081 79.4687L167.301 79.4687L167.301 86.1756L175.743 86.1756L175.743 79.4687L177.964 79.4687L177.964 95.7001L175.743 95.7001L175.743 88.1092L167.301 88.1092L167.301 95.7001L165.081 95.7001L165.081 79.4687Z"/>
<path d="M181.102 83.9216L183.124 83.9216L183.124 95.7001L181.102 95.7001L181.102 83.9216ZM181.102 79.4687L183.124 79.4687L183.124 81.7228L181.102 81.7228L181.102 79.4687Z"/>
<path d="M186.185 79.4687L188.174 79.4687L188.174 95.7001L186.185 95.7001L186.185 79.4687Z"/>
<path d="M191.654 82.0653C191.683 81.2403 191.827 80.6363 192.085 80.2532C192.549 79.5755 193.444 79.2367 194.77 79.2367C194.895 79.2367 195.024 79.2404 195.157 79.2477C195.289 79.2551 195.44 79.2661 195.61 79.2809L195.61 81.093C195.403 81.0782 195.254 81.069 195.162 81.0653C195.07 81.0617 194.984 81.0598 194.903 81.0598C194.298 81.0598 193.938 81.2163 193.82 81.5294C193.702 81.8425 193.643 82.6399 193.643 83.9216L195.61 83.9216L195.61 85.4906L193.621 85.4906L193.621 95.7001L191.654 95.7001L191.654 85.4906L190.008 85.4906L190.008 83.9216L191.654 83.9216L191.654 82.0653Z"/>
<path d="M202.372 83.6011C203.212 83.6011 204.026 83.7982 204.814 84.1923C205.602 84.5864 206.202 85.0965 206.615 85.7226C207.012 86.3193 207.278 87.0154 207.41 87.8109C207.528 88.356 207.587 89.2252 207.587 90.4185L198.913 90.4185C198.95 91.6192 199.234 92.5823 199.764 93.3079C200.295 94.0335 201.116 94.3963 202.228 94.3963C203.267 94.3963 204.095 94.0537 204.714 93.3687C205.068 92.9709 205.318 92.5105 205.466 91.9875L207.421 91.9875C207.37 92.4221 207.198 92.9065 206.908 93.4405C206.617 93.9746 206.291 94.411 205.93 94.7498C205.326 95.3391 204.578 95.7369 203.687 95.9432C203.208 96.061 202.666 96.1199 202.062 96.1199C200.589 96.1199 199.341 95.5841 198.317 94.5123C197.293 93.4405 196.781 91.9396 196.781 90.0097C196.781 88.1092 197.297 86.566 198.328 85.3801C199.359 84.1941 200.707 83.6011 202.372 83.6011ZM205.543 88.8385C205.462 87.9766 205.274 87.2879 204.979 86.7723C204.434 85.8147 203.525 85.3359 202.25 85.3359C201.337 85.3359 200.571 85.6655 199.952 86.3248C199.333 86.9841 199.005 87.822 198.969 88.8385L205.543 88.8385Z"/>
<path d="M210.449 98.0094C210.957 97.921 211.314 97.5637 211.521 96.9376C211.631 96.6061 211.686 96.2857 211.686 95.9763C211.686 95.9247 211.684 95.8787 211.681 95.8382C211.677 95.7977 211.668 95.7516 211.653 95.7001L210.449 95.7001L210.449 93.2913L212.813 93.2913L212.813 95.5233C212.813 96.3999 212.637 97.1696 212.283 97.8326C211.929 98.4955 211.318 98.9044 210.449 99.0591L210.449 98.0094Z"/>
<path d="M100.608 115.945C100.608 117.212 100.877 118.273 101.415 119.128C101.952 119.982 102.814 120.409 104 120.409C104.921 120.409 105.678 120.013 106.271 119.221C106.864 118.43 107.16 117.293 107.16 115.813C107.16 114.317 106.855 113.211 106.243 112.492C105.632 111.774 104.877 111.415 103.978 111.415C102.976 111.415 102.164 111.798 101.542 112.564C100.919 113.33 100.608 114.457 100.608 115.945ZM103.602 109.68C104.509 109.68 105.267 109.872 105.879 110.255C106.232 110.476 106.634 110.863 107.083 111.415L107.083 105.437L108.995 105.437L108.995 121.724L107.205 121.724L107.205 120.078C106.74 120.807 106.192 121.334 105.558 121.658C104.925 121.982 104.199 122.144 103.382 122.144C102.063 122.144 100.921 121.59 99.9562 120.481C98.9913 119.372 98.5088 117.897 98.5088 116.056C98.5088 114.332 98.9489 112.839 99.8292 111.575C100.709 110.312 101.967 109.68 103.602 109.68Z"/>
<path d="M116.862 109.625C117.701 109.625 118.515 109.822 119.303 110.216C120.092 110.61 120.692 111.12 121.105 111.747C121.502 112.343 121.767 113.039 121.9 113.835C122.018 114.38 122.077 115.249 122.077 116.443L113.403 116.443C113.44 117.643 113.724 118.606 114.254 119.332C114.784 120.057 115.606 120.42 116.718 120.42C117.757 120.42 118.585 120.078 119.204 119.393C119.558 118.995 119.808 118.535 119.955 118.012L121.911 118.012C121.86 118.446 121.688 118.93 121.397 119.465C121.106 119.999 120.78 120.435 120.419 120.774C119.815 121.363 119.068 121.761 118.176 121.967C117.698 122.085 117.156 122.144 116.552 122.144C115.079 122.144 113.83 121.608 112.807 120.536C111.783 119.465 111.271 117.964 111.271 116.034C111.271 114.133 111.786 112.59 112.818 111.404C113.849 110.218 115.197 109.625 116.862 109.625ZM120.033 114.862C119.952 114.001 119.764 113.312 119.469 112.796C118.924 111.839 118.014 111.36 116.74 111.36C115.827 111.36 115.061 111.69 114.442 112.349C113.823 113.008 113.495 113.846 113.458 114.862L120.033 114.862Z"/>
<path d="M124.519 109.89L126.408 109.89L126.408 111.57C126.968 110.877 127.561 110.38 128.187 110.078C128.813 109.776 129.509 109.625 130.275 109.625C131.955 109.625 133.089 110.211 133.679 111.382C134.003 112.023 134.165 112.94 134.165 114.133L134.165 121.724L132.143 121.724L132.143 114.266C132.143 113.544 132.036 112.962 131.822 112.52C131.469 111.783 130.828 111.415 129.9 111.415C129.428 111.415 129.042 111.463 128.74 111.559C128.194 111.721 127.716 112.045 127.303 112.531C126.972 112.922 126.756 113.325 126.657 113.741C126.557 114.157 126.508 114.752 126.508 115.525L126.508 121.724L124.519 121.724L124.519 109.89Z"/>
<path d="M137.104 109.89L138.993 109.89L138.993 111.57C139.553 110.877 140.146 110.38 140.772 110.078C141.398 109.776 142.094 109.625 142.861 109.625C144.54 109.625 145.674 110.211 146.264 111.382C146.588 112.023 146.75 112.94 146.75 114.133L146.75 121.724L144.728 121.724L144.728 114.266C144.728 113.544 144.621 112.962 144.407 112.52C144.054 111.783 143.413 111.415 142.485 111.415C142.013 111.415 141.627 111.463 141.325 111.559C140.78 111.721 140.301 112.045 139.888 112.531C139.557 112.922 139.341 113.325 139.242 113.741C139.142 114.157 139.093 114.752 139.093 115.525L139.093 121.724L137.104 121.724L137.104 109.89Z"/>
<path d="M155.976 109.946L157.998 109.946L157.998 121.724L155.976 121.724L155.976 109.946ZM155.976 105.493L157.998 105.493L157.998 107.747L155.976 107.747L155.976 105.493Z"/>
<path d="M165.567 109.548C166.9 109.548 167.985 109.872 168.821 110.52C169.657 111.168 170.16 112.284 170.329 113.868L168.395 113.868C168.277 113.139 168.009 112.533 167.589 112.05C167.169 111.568 166.495 111.327 165.567 111.327C164.3 111.327 163.394 111.945 162.849 113.183C162.495 113.986 162.318 114.977 162.318 116.155C162.318 117.341 162.569 118.339 163.07 119.15C163.57 119.96 164.359 120.365 165.434 120.365C166.259 120.365 166.913 120.113 167.395 119.608C167.878 119.104 168.211 118.413 168.395 117.536L170.329 117.536C170.108 119.105 169.556 120.253 168.672 120.978C167.788 121.704 166.657 122.067 165.279 122.067C163.733 122.067 162.499 121.501 161.578 120.371C160.657 119.24 160.197 117.827 160.197 116.133C160.197 114.056 160.701 112.439 161.711 111.283C162.72 110.126 164.005 109.548 165.567 109.548Z"/>
<path d="M172.318 105.437L174.307 105.437L174.307 111.492C174.778 110.896 175.202 110.476 175.577 110.233C176.218 109.813 177.017 109.603 177.975 109.603C179.691 109.603 180.855 110.203 181.467 111.404C181.798 112.06 181.964 112.969 181.964 114.133L181.964 121.724L179.92 121.724L179.92 114.266C179.92 113.397 179.809 112.759 179.588 112.354C179.227 111.706 178.55 111.382 177.555 111.382C176.73 111.382 175.982 111.666 175.312 112.233C174.642 112.8 174.307 113.872 174.307 115.448L174.307 121.724L172.318 121.724L172.318 105.437Z"/>
<path d="M191.19 105.437L193.179 105.437L193.179 111.492C193.65 110.896 194.074 110.476 194.449 110.233C195.09 109.813 195.89 109.603 196.847 109.603C198.563 109.603 199.727 110.203 200.339 111.404C200.67 112.06 200.836 112.969 200.836 114.133L200.836 121.724L198.792 121.724L198.792 114.266C198.792 113.397 198.681 112.759 198.46 112.354C198.099 111.706 197.422 111.382 196.427 111.382C195.602 111.382 194.855 111.666 194.184 112.233C193.514 112.8 193.179 113.872 193.179 115.448L193.179 121.724L191.19 121.724L191.19 105.437Z"/>
<path d="M205.3 118.575C205.3 119.15 205.51 119.603 205.93 119.934C206.35 120.266 206.847 120.431 207.421 120.431C208.121 120.431 208.799 120.269 209.454 119.945C210.559 119.407 211.112 118.527 211.112 117.304L211.112 115.702C210.869 115.857 210.556 115.986 210.173 116.089C209.79 116.192 209.414 116.266 209.046 116.31L207.841 116.465C207.119 116.56 206.578 116.711 206.217 116.918C205.606 117.264 205.3 117.816 205.3 118.575ZM210.117 114.553C210.574 114.494 210.88 114.303 211.034 113.979C211.123 113.802 211.167 113.548 211.167 113.216C211.167 112.538 210.926 112.047 210.443 111.741C209.961 111.435 209.27 111.283 208.372 111.283C207.333 111.283 206.596 111.562 206.162 112.122C205.919 112.432 205.76 112.892 205.687 113.503L203.83 113.503C203.867 112.045 204.34 111.03 205.25 110.459C206.16 109.888 207.215 109.603 208.416 109.603C209.808 109.603 210.939 109.868 211.808 110.399C212.67 110.929 213.101 111.754 213.101 112.874L213.101 119.691C213.101 119.897 213.143 120.063 213.228 120.188C213.312 120.313 213.491 120.376 213.764 120.376C213.852 120.376 213.951 120.371 214.062 120.359C214.172 120.348 214.29 120.332 214.415 120.31L214.415 121.779C214.106 121.868 213.87 121.923 213.708 121.945C213.546 121.967 213.325 121.978 213.045 121.978C212.36 121.978 211.863 121.735 211.554 121.249C211.392 120.991 211.278 120.627 211.211 120.155C210.806 120.685 210.224 121.146 209.465 121.536C208.707 121.927 207.871 122.122 206.957 122.122C205.86 122.122 204.963 121.789 204.267 121.122C203.571 120.455 203.223 119.621 203.223 118.619C203.223 117.522 203.565 116.671 204.25 116.067C204.935 115.463 205.834 115.091 206.946 114.951L210.117 114.553Z"/>
<path d="M216.205 105.437L218.139 105.437L218.139 111.327C218.574 110.76 219.093 110.327 219.697 110.028C220.301 109.73 220.957 109.581 221.664 109.581C223.137 109.581 224.332 110.087 225.249 111.1C226.166 112.113 226.625 113.607 226.625 115.581C226.625 117.452 226.172 119.006 225.266 120.243C224.36 121.481 223.104 122.1 221.498 122.1C220.599 122.1 219.841 121.882 219.222 121.448C218.854 121.19 218.46 120.778 218.04 120.21L218.04 121.724L216.205 121.724L216.205 105.437ZM221.377 120.343C222.452 120.343 223.257 119.916 223.791 119.061C224.325 118.207 224.592 117.08 224.592 115.68C224.592 114.435 224.325 113.404 223.791 112.586C223.257 111.769 222.47 111.36 221.432 111.36C220.526 111.36 219.732 111.695 219.051 112.365C218.369 113.036 218.029 114.141 218.029 115.68C218.029 116.792 218.169 117.695 218.448 118.387C218.971 119.691 219.947 120.343 221.377 120.343Z"/>
<path d="M235.232 109.89L237.199 109.89L237.199 111.57C237.671 110.988 238.098 110.564 238.481 110.299C239.136 109.85 239.88 109.625 240.713 109.625C241.656 109.625 242.414 109.857 242.989 110.321C243.313 110.586 243.608 110.977 243.873 111.492C244.315 110.859 244.834 110.389 245.431 110.084C246.027 109.778 246.698 109.625 247.442 109.625C249.033 109.625 250.116 110.2 250.69 111.349C251 111.968 251.154 112.8 251.154 113.846L251.154 121.724L249.088 121.724L249.088 113.503C249.088 112.715 248.891 112.174 248.497 111.879C248.103 111.585 247.622 111.437 247.055 111.437C246.274 111.437 245.602 111.699 245.039 112.222C244.475 112.745 244.193 113.618 244.193 114.84L244.193 121.724L242.171 121.724L242.171 114.001C242.171 113.198 242.075 112.612 241.884 112.244C241.582 111.691 241.018 111.415 240.193 111.415C239.442 111.415 238.759 111.706 238.144 112.288C237.529 112.87 237.221 113.923 237.221 115.448L237.221 121.724L235.232 121.724L235.232 109.89Z"/>
<path d="M254.082 109.946L256.104 109.946L256.104 121.724L254.082 121.724L254.082 109.946ZM254.082 105.493L256.104 105.493L256.104 107.747L254.082 107.747L254.082 105.493Z"/>
<path d="M263.673 109.548C265.006 109.548 266.091 109.872 266.927 110.52C267.763 111.168 268.266 112.284 268.435 113.868L266.502 113.868C266.384 113.139 266.115 112.533 265.695 112.05C265.275 111.568 264.601 111.327 263.673 111.327C262.406 111.327 261.5 111.945 260.955 113.183C260.601 113.986 260.425 114.977 260.425 116.155C260.425 117.341 260.675 118.339 261.176 119.15C261.677 119.96 262.465 120.365 263.54 120.365C264.366 120.365 265.019 120.113 265.502 119.608C265.984 119.104 266.318 118.413 266.502 117.536L268.435 117.536C268.214 119.105 267.662 120.253 266.778 120.978C265.894 121.704 264.763 122.067 263.386 122.067C261.839 122.067 260.605 121.501 259.684 120.371C258.764 119.24 258.303 117.827 258.303 116.133C258.303 114.056 258.808 112.439 259.817 111.283C260.826 110.126 262.111 109.548 263.673 109.548Z"/>
<path d="M270.424 105.437L272.413 105.437L272.413 111.492C272.884 110.896 273.308 110.476 273.684 110.233C274.325 109.813 275.124 109.603 276.081 109.603C277.798 109.603 278.962 110.203 279.573 111.404C279.904 112.06 280.07 112.969 280.07 114.133L280.07 121.724L278.026 121.724L278.026 114.266C278.026 113.397 277.916 112.759 277.695 112.354C277.334 111.706 276.656 111.382 275.662 111.382C274.837 111.382 274.089 111.666 273.419 112.233C272.748 112.8 272.413 113.872 272.413 115.448L272.413 121.724L270.424 121.724L270.424 105.437Z"/>
<path d="M100.321 135.914L103.481 145.549L106.785 135.914L108.961 135.914L104.497 147.748L102.376 147.748L98.0116 135.914L100.321 135.914Z"/>
<path d="M115.591 135.649C116.431 135.649 117.245 135.846 118.033 136.24C118.821 136.634 119.421 137.144 119.834 137.771C120.232 138.367 120.497 139.063 120.629 139.859C120.747 140.404 120.806 141.273 120.806 142.467L112.133 142.467C112.169 143.667 112.453 144.63 112.983 145.356C113.514 146.081 114.335 146.444 115.447 146.444C116.486 146.444 117.315 146.102 117.933 145.417C118.287 145.019 118.537 144.559 118.685 144.036L120.64 144.036C120.589 144.47 120.418 144.954 120.127 145.489C119.836 146.023 119.51 146.459 119.149 146.798C118.545 147.387 117.797 147.785 116.906 147.991C116.427 148.109 115.886 148.168 115.282 148.168C113.808 148.168 112.56 147.632 111.536 146.56C110.512 145.489 110 143.988 110 142.058C110 140.157 110.516 138.614 111.547 137.428C112.578 136.242 113.926 135.649 115.591 135.649ZM118.762 140.886C118.681 140.025 118.493 139.336 118.199 138.82C117.653 137.863 116.744 137.384 115.469 137.384C114.556 137.384 113.79 137.714 113.171 138.373C112.552 139.032 112.225 139.87 112.188 140.886L118.762 140.886Z"/>
<path d="M123.303 135.914L125.193 135.914L125.193 137.958C125.347 137.561 125.727 137.076 126.331 136.505C126.935 135.935 127.631 135.649 128.419 135.649C128.456 135.649 128.519 135.653 128.607 135.66C128.695 135.668 128.846 135.682 129.06 135.704L129.06 137.804C128.942 137.782 128.833 137.767 128.734 137.76C128.635 137.752 128.526 137.749 128.408 137.749C127.406 137.749 126.637 138.071 126.099 138.715C125.561 139.36 125.292 140.102 125.292 140.942L125.292 147.748L123.303 147.748L123.303 135.914Z"/>
<path d="M131.966 144.036C132.025 144.698 132.191 145.207 132.463 145.56C132.964 146.201 133.833 146.522 135.071 146.522C135.807 146.522 136.456 146.361 137.015 146.041C137.575 145.721 137.855 145.225 137.855 144.555C137.855 144.047 137.631 143.66 137.181 143.395C136.894 143.233 136.327 143.045 135.48 142.831L133.9 142.433C132.89 142.183 132.146 141.903 131.668 141.594C130.813 141.056 130.386 140.312 130.386 139.362C130.386 138.242 130.789 137.336 131.596 136.644C132.402 135.951 133.487 135.605 134.85 135.605C136.632 135.605 137.918 136.128 138.706 137.174C139.2 137.837 139.439 138.551 139.424 139.318L137.546 139.318C137.509 138.868 137.351 138.459 137.071 138.091C136.614 137.568 135.822 137.307 134.695 137.307C133.944 137.307 133.375 137.45 132.988 137.737C132.601 138.025 132.408 138.404 132.408 138.876C132.408 139.391 132.662 139.804 133.17 140.113C133.465 140.297 133.9 140.459 134.474 140.599L135.789 140.92C137.218 141.266 138.176 141.601 138.662 141.925C139.435 142.433 139.822 143.233 139.822 144.323C139.822 145.376 139.422 146.286 138.623 147.052C137.824 147.818 136.607 148.201 134.971 148.201C133.211 148.201 131.964 147.801 131.231 147.002C130.498 146.203 130.106 145.214 130.054 144.036L131.966 144.036Z"/>
<path d="M147.026 135.649C147.866 135.649 148.68 135.846 149.468 136.24C150.256 136.634 150.856 137.144 151.269 137.771C151.667 138.367 151.932 139.063 152.065 139.859C152.182 140.404 152.241 141.273 152.241 142.467L143.568 142.467C143.604 143.667 143.888 144.63 144.418 145.356C144.949 146.081 145.77 146.444 146.882 146.444C147.921 146.444 148.75 146.102 149.369 145.417C149.722 145.019 149.973 144.559 150.12 144.036L152.076 144.036C152.024 144.47 151.853 144.954 151.562 145.489C151.271 146.023 150.945 146.459 150.584 146.798C149.98 147.387 149.232 147.785 148.341 147.991C147.862 148.109 147.321 148.168 146.717 148.168C145.243 148.168 143.995 147.632 142.971 146.56C141.947 145.489 141.435 143.988 141.435 142.058C141.435 140.157 141.951 138.614 142.982 137.428C144.013 136.242 145.361 135.649 147.026 135.649ZM150.197 140.886C150.116 140.025 149.928 139.336 149.634 138.82C149.089 137.863 148.179 137.384 146.905 137.384C145.991 137.384 145.225 137.714 144.606 138.373C143.988 139.032 143.66 139.87 143.623 140.886L150.197 140.886Z"/>
<path d="M154.683 131.461L156.672 131.461L156.672 137.516C157.144 136.92 157.567 136.5 157.943 136.257C158.584 135.837 159.383 135.627 160.34 135.627C162.057 135.627 163.221 136.227 163.832 137.428C164.163 138.084 164.329 138.993 164.329 140.157L164.329 147.748L162.285 147.748L162.285 140.29C162.285 139.421 162.175 138.783 161.954 138.378C161.593 137.73 160.915 137.406 159.921 137.406C159.096 137.406 158.348 137.69 157.678 138.257C157.007 138.824 156.672 139.896 156.672 141.472L156.672 147.748L154.683 147.748L154.683 131.461Z"/>
<path d="M172.196 135.649C173.036 135.649 173.85 135.846 174.638 136.24C175.426 136.634 176.027 137.144 176.439 137.771C176.837 138.367 177.102 139.063 177.235 139.859C177.353 140.404 177.412 141.273 177.412 142.467L168.738 142.467C168.775 143.667 169.058 144.63 169.589 145.356C170.119 146.081 170.94 146.444 172.053 146.444C173.091 146.444 173.92 146.102 174.539 145.417C174.892 145.019 175.143 144.559 175.29 144.036L177.246 144.036C177.194 144.47 177.023 144.954 176.732 145.489C176.441 146.023 176.115 146.459 175.754 146.798C175.15 147.387 174.402 147.785 173.511 147.991C173.032 148.109 172.491 148.168 171.887 148.168C170.414 148.168 169.165 147.632 168.141 146.56C167.117 145.489 166.605 143.988 166.605 142.058C166.605 140.157 167.121 138.614 168.152 137.428C169.184 136.242 170.532 135.649 172.196 135.649ZM175.367 140.886C175.286 140.025 175.099 139.336 174.804 138.82C174.259 137.863 173.349 137.384 172.075 137.384C171.161 137.384 170.395 137.714 169.776 138.373C169.158 139.032 168.83 139.87 168.793 140.886L175.367 140.886Z"/>
<path d="M179.853 135.914L181.743 135.914L181.743 137.594C182.303 136.901 182.896 136.404 183.522 136.102C184.148 135.8 184.844 135.649 185.61 135.649C187.29 135.649 188.424 136.235 189.013 137.406C189.337 138.047 189.499 138.964 189.499 140.157L189.499 147.748L187.477 147.748L187.477 140.29C187.477 139.568 187.371 138.986 187.157 138.544C186.803 137.807 186.163 137.439 185.234 137.439C184.763 137.439 184.376 137.487 184.074 137.583C183.529 137.745 183.05 138.069 182.638 138.555C182.306 138.946 182.091 139.349 181.991 139.765C181.892 140.181 181.842 140.776 181.842 141.549L181.842 147.748L179.853 147.748L179.853 135.914Z"/>
<path d="M192.836 132.611L194.847 132.611L194.847 135.914L196.737 135.914L196.737 137.539L194.847 137.539L194.847 145.262C194.847 145.675 194.987 145.951 195.267 146.091C195.422 146.172 195.68 146.212 196.041 146.212C196.136 146.212 196.239 146.21 196.35 146.207C196.46 146.203 196.589 146.194 196.737 146.179L196.737 147.748C196.508 147.814 196.271 147.862 196.024 147.892C195.777 147.921 195.51 147.936 195.223 147.936C194.295 147.936 193.665 147.698 193.334 147.223C193.002 146.748 192.836 146.131 192.836 145.372L192.836 137.539L191.234 137.539L191.234 135.914L192.836 135.914L192.836 132.611Z"/>
<path d="M198.781 131.517L200.77 131.517L200.77 147.748L198.781 147.748L198.781 131.517Z"/>
<path d="M203.753 135.97L205.775 135.97L205.775 147.748L203.753 147.748L203.753 135.97ZM203.753 131.517L205.775 131.517L205.775 133.771L203.753 133.771L203.753 131.517Z"/>
<path d="M213.344 135.572C214.677 135.572 215.762 135.896 216.598 136.544C217.434 137.192 217.937 138.308 218.106 139.892L216.172 139.892C216.054 139.163 215.786 138.557 215.366 138.074C214.946 137.592 214.272 137.351 213.344 137.351C212.077 137.351 211.171 137.969 210.626 139.207C210.272 140.01 210.095 141.001 210.095 142.179C210.095 143.365 210.346 144.363 210.847 145.174C211.347 145.984 212.136 146.389 213.211 146.389C214.036 146.389 214.69 146.137 215.172 145.632C215.655 145.128 215.988 144.437 216.172 143.56L218.106 143.56C217.885 145.129 217.333 146.277 216.449 147.002C215.565 147.728 214.434 148.091 213.056 148.091C211.51 148.091 210.276 147.525 209.355 146.395C208.434 145.264 207.974 143.851 207.974 142.157C207.974 140.08 208.478 138.463 209.488 137.307C210.497 136.15 211.782 135.572 213.344 135.572Z"/>
<path d="M220.095 131.461L222.084 131.461L222.084 137.516C222.555 136.92 222.979 136.5 223.354 136.257C223.995 135.837 224.794 135.627 225.752 135.627C227.468 135.627 228.632 136.227 229.244 137.428C229.575 138.084 229.741 138.993 229.741 140.157L229.741 147.748L227.697 147.748L227.697 140.29C227.697 139.421 227.586 138.783 227.365 138.378C227.004 137.73 226.327 137.406 225.332 137.406C224.507 137.406 223.759 137.69 223.089 138.257C222.419 138.824 222.084 139.896 222.084 141.472L222.084 147.748L220.095 147.748L220.095 131.461Z"/>
<path d="M243.895 135.649C244.735 135.649 245.549 135.846 246.337 136.24C247.125 136.634 247.725 137.144 248.138 137.771C248.536 138.367 248.801 139.063 248.933 139.859C249.051 140.404 249.11 141.273 249.11 142.467L240.437 142.467C240.473 143.667 240.757 144.63 241.287 145.356C241.818 146.081 242.639 146.444 243.751 146.444C244.79 146.444 245.619 146.102 246.237 145.417C246.591 145.019 246.841 144.559 246.989 144.036L248.944 144.036C248.893 144.47 248.722 144.954 248.431 145.489C248.14 146.023 247.814 146.459 247.453 146.798C246.849 147.387 246.101 147.785 245.21 147.991C244.731 148.109 244.19 148.168 243.586 148.168C242.112 148.168 240.864 147.632 239.84 146.56C238.816 145.489 238.304 143.988 238.304 142.058C238.304 140.157 238.82 138.614 239.851 137.428C240.882 136.242 242.23 135.649 243.895 135.649ZM247.066 140.886C246.985 140.025 246.797 139.336 246.503 138.82C245.957 137.863 245.048 137.384 243.773 137.384C242.86 137.384 242.094 137.714 241.475 138.373C240.856 139.032 240.529 139.87 240.492 140.886L247.066 140.886Z"/>
<path d="M251.552 135.97L253.574 135.97L253.574 147.748L251.552 147.748L251.552 135.97ZM251.552 131.517L253.574 131.517L253.574 133.771L251.552 133.771L251.552 131.517Z"/>
<path d="M256.579 135.914L258.469 135.914L258.469 137.594C259.029 136.901 259.622 136.404 260.248 136.102C260.874 135.8 261.57 135.649 262.336 135.649C264.016 135.649 265.15 136.235 265.739 137.406C266.063 138.047 266.225 138.964 266.225 140.157L266.225 147.748L264.203 147.748L264.203 140.29C264.203 139.568 264.097 138.986 263.883 138.544C263.529 137.807 262.889 137.439 261.96 137.439C261.489 137.439 261.102 137.487 260.8 137.583C260.255 137.745 259.776 138.069 259.364 138.555C259.032 138.946 258.817 139.349 258.717 139.765C258.618 140.181 258.568 140.776 258.568 141.549L258.568 147.748L256.579 147.748L256.579 135.914Z"/>
<path d="M273.341 135.704C274.269 135.704 275.08 135.933 275.772 136.389C276.148 136.647 276.531 137.023 276.921 137.516L276.921 136.025L278.755 136.025L278.755 146.787C278.755 148.289 278.534 149.475 278.092 150.345C277.267 151.95 275.709 152.753 273.419 152.753C272.144 152.753 271.072 152.468 270.203 151.897C269.334 151.326 268.848 150.433 268.745 149.218L270.767 149.218C270.862 149.748 271.054 150.157 271.341 150.444C271.791 150.886 272.498 151.107 273.463 151.107C274.988 151.107 275.986 150.569 276.457 149.494C276.737 148.86 276.866 147.73 276.844 146.102C276.446 146.706 275.967 147.155 275.407 147.45C274.848 147.744 274.107 147.892 273.186 147.892C271.905 147.892 270.783 147.437 269.822 146.527C268.861 145.617 268.38 144.113 268.38 142.014C268.38 140.032 268.864 138.485 269.833 137.373C270.802 136.261 271.971 135.704 273.341 135.704ZM276.921 141.781C276.921 140.316 276.619 139.229 276.015 138.522C275.411 137.815 274.641 137.461 273.706 137.461C272.306 137.461 271.349 138.117 270.833 139.428C270.56 140.128 270.424 141.045 270.424 142.179C270.424 143.513 270.695 144.527 271.236 145.223C271.778 145.919 272.505 146.267 273.419 146.267C274.848 146.267 275.853 145.623 276.435 144.334C276.759 143.605 276.921 142.754 276.921 141.781Z"/>
<path d="M286.678 135.649C287.517 135.649 288.331 135.846 289.12 136.24C289.908 136.634 290.508 137.144 290.921 137.771C291.318 138.367 291.584 139.063 291.716 139.859C291.834 140.404 291.893 141.273 291.893 142.467L283.219 142.467C283.256 143.667 283.54 144.63 284.07 145.356C284.6 146.081 285.422 146.444 286.534 146.444C287.573 146.444 288.401 146.102 289.02 145.417C289.374 145.019 289.624 144.559 289.771 144.036L291.727 144.036C291.676 144.47 291.504 144.954 291.213 145.489C290.922 146.023 290.596 146.459 290.236 146.798C289.631 147.387 288.884 147.785 287.993 147.991C287.514 148.109 286.972 148.168 286.368 148.168C284.895 148.168 283.646 147.632 282.623 146.56C281.599 145.489 281.087 143.988 281.087 142.058C281.087 140.157 281.602 138.614 282.634 137.428C283.665 136.242 285.013 135.649 286.678 135.649ZM289.849 140.886C289.768 140.025 289.58 139.336 289.285 138.82C288.74 137.863 287.83 137.384 286.556 137.384C285.643 137.384 284.877 137.714 284.258 138.373C283.639 139.032 283.311 139.87 283.274 140.886L289.849 140.886Z"/>
<path d="M295.517 144.036C295.576 144.698 295.742 145.207 296.014 145.56C296.515 146.201 297.384 146.522 298.622 146.522C299.359 146.522 300.007 146.361 300.567 146.041C301.126 145.721 301.406 145.225 301.406 144.555C301.406 144.047 301.182 143.66 300.732 143.395C300.445 143.233 299.878 143.045 299.031 142.831L297.451 142.433C296.442 142.183 295.698 141.903 295.219 141.594C294.364 141.056 293.937 140.312 293.937 139.362C293.937 138.242 294.34 137.336 295.147 136.644C295.953 135.951 297.038 135.605 298.401 135.605C300.184 135.605 301.469 136.128 302.257 137.174C302.751 137.837 302.99 138.551 302.975 139.318L301.097 139.318C301.06 138.868 300.902 138.459 300.622 138.091C300.165 137.568 299.373 137.307 298.246 137.307C297.495 137.307 296.926 137.45 296.539 137.737C296.152 138.025 295.959 138.404 295.959 138.876C295.959 139.391 296.213 139.804 296.721 140.113C297.016 140.297 297.451 140.459 298.025 140.599L299.34 140.92C300.769 141.266 301.727 141.601 302.213 141.925C302.986 142.433 303.373 143.233 303.373 144.323C303.373 145.376 302.973 146.286 302.174 147.052C301.375 147.818 300.158 148.201 298.522 148.201C296.762 148.201 295.515 147.801 294.782 147.002C294.049 146.203 293.657 145.214 293.606 144.036L295.517 144.036Z"/>
<path d="M310.213 135.572C311.546 135.572 312.631 135.896 313.467 136.544C314.303 137.192 314.805 138.308 314.975 139.892L313.041 139.892C312.923 139.163 312.654 138.557 312.235 138.074C311.815 137.592 311.141 137.351 310.213 137.351C308.946 137.351 308.04 137.969 307.494 139.207C307.141 140.01 306.964 141.001 306.964 142.179C306.964 143.365 307.215 144.363 307.715 145.174C308.216 145.984 309.005 146.389 310.08 146.389C310.905 146.389 311.559 146.137 312.041 145.632C312.524 145.128 312.857 144.437 313.041 143.56L314.975 143.56C314.754 145.129 314.201 146.277 313.317 147.002C312.433 147.728 311.303 148.091 309.925 148.091C308.378 148.091 307.145 147.525 306.224 146.395C305.303 145.264 304.843 143.851 304.843 142.157C304.843 140.08 305.347 138.463 306.356 137.307C307.366 136.15 308.651 135.572 310.213 135.572Z"/>
<path d="M316.964 131.461L318.953 131.461L318.953 137.516C319.424 136.92 319.848 136.5 320.223 136.257C320.864 135.837 321.663 135.627 322.621 135.627C324.337 135.627 325.501 136.227 326.112 137.428C326.444 138.084 326.61 138.993 326.61 140.157L326.61 147.748L324.566 147.748L324.566 140.29C324.566 139.421 324.455 138.783 324.234 138.378C323.873 137.73 323.195 137.406 322.201 137.406C321.376 137.406 320.628 137.69 319.958 138.257C319.288 138.824 318.953 139.896 318.953 141.472L318.953 147.748L316.964 147.748L316.964 131.461Z"/>
<path d="M329.604 131.517L331.593 131.517L331.593 147.748L329.604 147.748L329.604 131.517Z"/>
<path d="M339.272 146.466C340.591 146.466 341.495 145.967 341.985 144.969C342.475 143.971 342.719 142.861 342.719 141.638C342.719 140.533 342.543 139.634 342.189 138.942C341.629 137.852 340.664 137.307 339.294 137.307C338.079 137.307 337.195 137.771 336.642 138.699C336.09 139.627 335.814 140.747 335.814 142.058C335.814 143.317 336.09 144.367 336.642 145.207C337.195 146.046 338.071 146.466 339.272 146.466ZM339.349 135.572C340.874 135.572 342.163 136.08 343.217 137.097C344.27 138.113 344.797 139.608 344.797 141.583C344.797 143.49 344.333 145.067 343.405 146.312C342.476 147.557 341.036 148.179 339.084 148.179C337.456 148.179 336.164 147.628 335.206 146.527C334.248 145.426 333.77 143.947 333.77 142.091C333.77 140.102 334.274 138.518 335.283 137.34C336.292 136.161 337.648 135.572 339.349 135.572Z"/>
<path d="M348.344 144.036C348.402 144.698 348.568 145.207 348.841 145.56C349.342 146.201 350.211 146.522 351.448 146.522C352.185 146.522 352.833 146.361 353.393 146.041C353.953 145.721 354.233 145.225 354.233 144.555C354.233 144.047 354.008 143.66 353.559 143.395C353.272 143.233 352.704 143.045 351.857 142.831L350.277 142.433C349.268 142.183 348.524 141.903 348.045 141.594C347.191 141.056 346.764 140.312 346.764 139.362C346.764 138.242 347.167 137.336 347.973 136.644C348.78 135.951 349.865 135.605 351.227 135.605C353.01 135.605 354.295 136.128 355.084 137.174C355.577 137.837 355.817 138.551 355.802 139.318L353.923 139.318C353.887 138.868 353.728 138.459 353.448 138.091C352.992 137.568 352.2 137.307 351.073 137.307C350.321 137.307 349.752 137.45 349.366 137.737C348.979 138.025 348.786 138.404 348.786 138.876C348.786 139.391 349.04 139.804 349.548 140.113C349.843 140.297 350.277 140.459 350.852 140.599L352.167 140.92C353.596 141.266 354.553 141.601 355.039 141.925C355.813 142.433 356.2 143.233 356.2 144.323C356.2 145.376 355.8 146.286 355.001 147.052C354.201 147.818 352.984 148.201 351.349 148.201C349.588 148.201 348.342 147.801 347.609 147.002C346.876 146.203 346.484 145.214 346.432 144.036L348.344 144.036Z"/>
<path d="M359.658 144.036C359.717 144.698 359.883 145.207 360.155 145.56C360.656 146.201 361.525 146.522 362.763 146.522C363.499 146.522 364.148 146.361 364.707 146.041C365.267 145.721 365.547 145.225 365.547 144.555C365.547 144.047 365.323 143.66 364.873 143.395C364.586 143.233 364.019 143.045 363.172 142.831L361.592 142.433C360.582 142.183 359.838 141.903 359.36 141.594C358.505 141.056 358.078 140.312 358.078 139.362C358.078 138.242 358.481 137.336 359.288 136.644C360.094 135.951 361.179 135.605 362.542 135.605C364.324 135.605 365.61 136.128 366.398 137.174C366.892 137.837 367.131 138.551 367.116 139.318L365.238 139.318C365.201 138.868 365.043 138.459 364.763 138.091C364.306 137.568 363.514 137.307 362.387 137.307C361.636 137.307 361.067 137.45 360.68 137.737C360.293 138.025 360.1 138.404 360.1 138.876C360.1 139.391 360.354 139.804 360.862 140.113C361.157 140.297 361.592 140.459 362.166 140.599L363.481 140.92C364.91 141.266 365.868 141.601 366.354 141.925C367.127 142.433 367.514 143.233 367.514 144.323C367.514 145.376 367.114 146.286 366.315 147.052C365.516 147.818 364.299 148.201 362.663 148.201C360.903 148.201 359.656 147.801 358.923 147.002C358.19 146.203 357.798 145.214 357.746 144.036L359.658 144.036Z"/>
<path d="M374.718 135.649C375.558 135.649 376.372 135.846 377.16 136.24C377.948 136.634 378.549 137.144 378.961 137.771C379.359 138.367 379.624 139.063 379.757 139.859C379.874 140.404 379.933 141.273 379.933 142.467L371.26 142.467C371.297 143.667 371.58 144.63 372.111 145.356C372.641 146.081 373.462 146.444 374.574 146.444C375.613 146.444 376.442 146.102 377.061 145.417C377.414 145.019 377.665 144.559 377.812 144.036L379.768 144.036C379.716 144.47 379.545 144.954 379.254 145.489C378.963 146.023 378.637 146.459 378.276 146.798C377.672 147.387 376.924 147.785 376.033 147.991C375.554 148.109 375.013 148.168 374.409 148.168C372.936 148.168 371.687 147.632 370.663 146.56C369.639 145.489 369.127 143.988 369.127 142.058C369.127 140.157 369.643 138.614 370.674 137.428C371.705 136.242 373.053 135.649 374.718 135.649ZM377.889 140.886C377.808 140.025 377.62 139.336 377.326 138.82C376.781 137.863 375.871 137.384 374.597 137.384C373.683 137.384 372.917 137.714 372.298 138.373C371.68 139.032 371.352 139.87 371.315 140.886L377.889 140.886Z"/>
<path d="M382.375 135.914L384.265 135.914L384.265 137.594C384.825 136.901 385.417 136.404 386.044 136.102C386.67 135.8 387.366 135.649 388.132 135.649C389.811 135.649 390.946 136.235 391.535 137.406C391.859 138.047 392.021 138.964 392.021 140.157L392.021 147.748L389.999 147.748L389.999 140.29C389.999 139.568 389.892 138.986 389.679 138.544C389.325 137.807 388.684 137.439 387.756 137.439C387.285 137.439 386.898 137.487 386.596 137.583C386.051 137.745 385.572 138.069 385.16 138.555C384.828 138.946 384.613 139.349 384.513 139.765C384.414 140.181 384.364 140.776 384.364 141.549L384.364 147.748L382.375 147.748L382.375 135.914Z"/>
<path d="M403.656 147.748L403.656 145.317L405.965 145.317L405.965 147.748L403.656 147.748ZM396.121 145.317L398.419 145.317L398.419 147.748L396.121 147.748L396.121 145.317ZM411.203 147.748L411.203 145.317L413.501 145.317L413.501 147.748L411.203 147.748Z"/>
</g>
</g>
</svg>
