<?xml version="1.0" encoding="UTF-8" standalone="no"?>
<!DOCTYPE svg PUBLIC "-//W3C//DTD SVG 1.1//EN" "http://www.w3.org/Graphics/SVG/1.1/DTD/svg11.dtd">
<!-- Created with Vectornator (http://vectornator.io/) -->
<svg height="100%" stroke-miterlimit="10" style="fill-rule:nonzero;clip-rule:evenodd;stroke-linecap:round;stroke-linejoin:round;" version="1.1" viewBox="0 0 416.745 229.635" width="100%" xml:space="preserve" xmlns="http://www.w3.org/2000/svg" xmlns:vectornator="http://vectornator.io" xmlns:xlink="http://www.w3.org/1999/xlink">
<defs>
<filter color-interpolation-filters="sRGB" filterUnits="userSpaceOnUse" height="111.815" id="Filter" width="265.506" x="78.4551" y="32.7596">
<feDropShadow dx="-5.17605" dy="9.1513" flood-color="#000000" flood-opacity="0.333" in="SourceGraphic" result="Shadow" stdDeviation="3.15411"/>
</filter>
</defs>
<g id="Ebene-1" vectornator:layerName="Ebene 1">
<path d="M18.7205 81.7149C18.7205 39.7829 105.372 5.79025 212.261 5.79025C319.15 5.79025 405.801 39.7829 405.801 81.7149C405.801 123.647 319.15 157.64 212.261 157.64C175.899 157.64 141.879 153.706 112.816 146.864C100.828 144.042 15.9366 225.437 5.81878 221.697C-3.71644 218.173 61.4069 129.561 53.8491 125.346C31.7158 113.002 18.7205 97.9536 18.7205 81.7149Z" fill="#f1f1f1" fill-rule="nonzero" opacity="1" stroke="#000000" stroke-linecap="butt" stroke-linejoin="round" stroke-width="3.95539"/>
<g fill="#000000" filter="url(#Filter)" stroke="none" vectornator:shadowAngle="2.08554" vectornator:shadowColor="#000000" vectornator:shadowOffset="10.5137" vectornator:shadowOpacity="0.333" vectornator:shadowRadius="6.30822">
<path d="M93.6158 32.8148L95.8367 32.8148L95.8367 49.0462L93.6158 49.0462L93.6158 32.8148Z"/>
<path d="M99.1957 37.2124L101.085 37.2124L101.085 39.2566C101.24 38.8588 101.619 38.3745 102.223 37.8036C102.827 37.2327 103.523 36.9473 104.311 36.9473C104.348 36.9473 104.411 36.951 104.499 36.9583C104.588 36.9657 104.739 36.9804 104.952 37.0025L104.952 39.1019C104.834 39.0798 104.726 39.065 104.626 39.0577C104.527 39.0503 104.418 39.0466 104.3 39.0466C103.299 39.0466 102.529 39.3689 101.991 40.0134C101.453 40.658 101.185 41.4001 101.185 42.2399L101.185 49.0462L99.1957 49.0462L99.1957 37.2124Z"/>
<path d="M110.853 37.0025C111.781 37.0025 112.591 37.2309 113.283 37.6876C113.659 37.9454 114.042 38.3211 114.433 38.8146L114.433 37.3229L116.267 37.3229L116.267 48.0849C116.267 49.5876 116.046 50.7736 115.604 51.6428C114.779 53.2486 113.221 54.0515 110.93 54.0515C109.656 54.0515 108.584 53.7661 107.715 53.1952C106.845 52.6243 106.359 51.7312 106.256 50.5158L108.278 50.5158C108.374 51.0461 108.565 51.4549 108.853 51.7422C109.302 52.1842 110.009 52.4052 110.974 52.4052C112.499 52.4052 113.497 51.8674 113.969 50.792C114.248 50.1585 114.377 49.0278 114.355 47.3999C113.957 48.0039 113.479 48.4532 112.919 48.7479C112.359 49.0425 111.619 49.1898 110.698 49.1898C109.416 49.1898 108.295 48.735 107.333 47.8253C106.372 46.9155 105.892 45.411 105.892 43.3116C105.892 41.3301 106.376 39.7832 107.345 38.671C108.313 37.5587 109.483 37.0025 110.853 37.0025ZM114.433 43.0796C114.433 41.6137 114.131 40.5272 113.527 39.8201C112.923 39.1129 112.153 38.7593 111.217 38.7593C109.818 38.7593 108.86 39.4149 108.344 40.7261C108.072 41.4259 107.936 42.343 107.936 43.4774C107.936 44.8107 108.206 45.8253 108.748 46.5214C109.289 47.2176 110.017 47.5656 110.93 47.5656C112.359 47.5656 113.365 46.9211 113.946 45.632C114.271 44.9027 114.433 44.0519 114.433 43.0796Z"/>
<path d="M124.189 36.9473C125.029 36.9473 125.843 37.1443 126.631 37.5384C127.419 37.9325 128.02 38.4426 128.432 39.0687C128.83 39.6654 129.095 40.3615 129.228 41.157C129.345 41.7021 129.404 42.5713 129.404 43.7647L120.731 43.7647C120.768 44.9653 121.051 45.9285 121.581 46.654C122.112 47.3796 122.933 47.7424 124.045 47.7424C125.084 47.7424 125.913 47.3999 126.532 46.7148C126.885 46.317 127.136 45.8567 127.283 45.3337L129.239 45.3337C129.187 45.7683 129.016 46.2526 128.725 46.7866C128.434 47.3207 128.108 47.7571 127.747 48.096C127.143 48.6853 126.395 49.083 125.504 49.2893C125.025 49.4071 124.484 49.4661 123.88 49.4661C122.406 49.4661 121.158 48.9302 120.134 47.8584C119.11 46.7866 118.598 45.2858 118.598 43.3558C118.598 41.4554 119.114 39.9122 120.145 38.7262C121.176 37.5402 122.524 36.9473 124.189 36.9473ZM127.36 42.1846C127.279 41.3228 127.091 40.634 126.797 40.1184C126.252 39.1608 125.342 38.682 124.068 38.682C123.154 38.682 122.388 39.0116 121.769 39.6709C121.151 40.3302 120.823 41.1681 120.786 42.1846L127.36 42.1846Z"/>
<path d="M131.846 37.2124L133.736 37.2124L133.736 38.8919C134.295 38.1995 134.888 37.7023 135.515 37.4003C136.141 37.0983 136.837 36.9473 137.603 36.9473C139.282 36.9473 140.417 37.5329 141.006 38.7041C141.33 39.345 141.492 40.262 141.492 41.4554L141.492 49.0462L139.47 49.0462L139.47 41.588C139.47 40.8661 139.363 40.2841 139.15 39.8422C138.796 39.1056 138.155 38.7372 137.227 38.7372C136.756 38.7372 136.369 38.7851 136.067 38.8809C135.522 39.0429 135.043 39.3671 134.631 39.8532C134.299 40.2436 134.084 40.6469 133.984 41.0631C133.885 41.4793 133.835 42.0741 133.835 42.8476L133.835 49.0462L131.846 49.0462L131.846 37.2124Z"/>
<path d="M145.691 43.2674C145.691 44.5344 145.96 45.5952 146.498 46.4496C147.035 47.3041 147.897 47.7313 149.083 47.7313C150.004 47.7313 150.761 47.3354 151.354 46.5435C151.947 45.7517 152.243 44.6155 152.243 43.1349C152.243 41.6395 151.937 40.5328 151.326 39.8145C150.715 39.0963 149.96 38.7372 149.061 38.7372C148.059 38.7372 147.247 39.1203 146.625 39.8864C146.002 40.6525 145.691 41.7795 145.691 43.2674ZM148.685 37.0025C149.591 37.0025 150.35 37.194 150.961 37.5771C151.315 37.7981 151.716 38.1848 152.166 38.7372L152.166 32.7596L154.077 32.7596L154.077 49.0462L152.287 49.0462L152.287 47.3999C151.823 48.1291 151.275 48.6558 150.641 48.9799C150.008 49.304 149.282 49.4661 148.464 49.4661C147.146 49.4661 146.004 48.9118 145.039 47.8032C144.074 46.6946 143.592 45.2195 143.592 43.3779C143.592 41.6543 144.032 40.1608 144.912 38.8975C145.792 37.6342 147.05 37.0025 148.685 37.0025Z"/>
<path d="M157.934 37.2124L160.21 46.538L162.519 37.2124L164.751 37.2124L167.071 46.4828L169.491 37.2124L171.48 37.2124L168.044 49.0462L165.977 49.0462L163.569 39.8864L161.237 49.0462L159.171 49.0462L155.757 37.2124L157.934 37.2124Z"/>
<path d="M178.054 47.7645C179.373 47.7645 180.277 47.2654 180.767 46.2673C181.257 45.2692 181.502 44.1587 181.502 42.936C181.502 41.831 181.325 40.9324 180.971 40.2399C180.411 39.1498 179.446 38.6047 178.076 38.6047C176.861 38.6047 175.977 39.0687 175.425 39.9969C174.872 40.925 174.596 42.0447 174.596 43.3558C174.596 44.6155 174.872 45.6651 175.425 46.5049C175.977 47.3446 176.854 47.7645 178.054 47.7645ZM178.132 36.8699C179.656 36.8699 180.945 37.3782 181.999 38.3947C183.052 39.4113 183.579 40.9066 183.579 42.8807C183.579 44.7886 183.115 46.3649 182.187 47.6098C181.259 48.8547 179.818 49.4771 177.866 49.4771C176.238 49.4771 174.946 48.9265 173.988 47.8253C173.031 46.724 172.552 45.2453 172.552 43.389C172.552 41.4001 173.056 39.8164 174.065 38.6378C175.075 37.4592 176.43 36.8699 178.132 36.8699Z"/>
<path d="M192.23 32.7596L194.219 32.7596L194.219 38.8146C194.691 38.2179 195.114 37.7981 195.49 37.555C196.131 37.1351 196.93 36.9252 197.888 36.9252C199.604 36.9252 200.768 37.5255 201.379 38.7262C201.711 39.3818 201.876 40.2915 201.876 41.4554L201.876 49.0462L199.832 49.0462L199.832 41.588C199.832 40.7187 199.722 40.0816 199.501 39.6764C199.14 39.0282 198.462 38.7041 197.468 38.7041C196.643 38.7041 195.895 38.9877 195.225 39.5549C194.554 40.1221 194.219 41.1939 194.219 42.7702L194.219 49.0462L192.23 49.0462L192.23 32.7596Z"/>
<path d="M204.816 37.2677L206.838 37.2677L206.838 49.0462L204.816 49.0462L204.816 37.2677ZM204.816 32.8148L206.838 32.8148L206.838 35.0689L204.816 35.0689L204.816 32.8148Z"/>
<path d="M214.771 36.9473C215.611 36.9473 216.425 37.1443 217.213 37.5384C218.001 37.9325 218.601 38.4426 219.014 39.0687C219.412 39.6654 219.677 40.3615 219.809 41.157C219.927 41.7021 219.986 42.5713 219.986 43.7647L211.313 43.7647C211.349 44.9653 211.633 45.9285 212.163 46.654C212.694 47.3796 213.515 47.7424 214.627 47.7424C215.666 47.7424 216.495 47.3999 217.113 46.7148C217.467 46.317 217.717 45.8567 217.865 45.3337L219.82 45.3337C219.769 45.7683 219.598 46.2526 219.307 46.7866C219.016 47.3207 218.69 47.7571 218.329 48.096C217.725 48.6853 216.977 49.083 216.086 49.2893C215.607 49.4071 215.066 49.4661 214.462 49.4661C212.988 49.4661 211.74 48.9302 210.716 47.8584C209.692 46.7866 209.18 45.2858 209.18 43.3558C209.18 41.4554 209.696 39.9122 210.727 38.7262C211.758 37.5402 213.106 36.9473 214.771 36.9473ZM217.942 42.1846C217.861 41.3228 217.673 40.634 217.379 40.1184C216.833 39.1608 215.924 38.682 214.649 38.682C213.736 38.682 212.97 39.0116 212.351 39.6709C211.732 40.3302 211.405 41.1681 211.368 42.1846L217.942 42.1846Z"/>
<path d="M222.483 37.2124L224.373 37.2124L224.373 39.2566C224.527 38.8588 224.907 38.3745 225.511 37.8036C226.115 37.2327 226.811 36.9473 227.599 36.9473C227.636 36.9473 227.699 36.951 227.787 36.9583C227.875 36.9657 228.026 36.9804 228.24 37.0025L228.24 39.1019C228.122 39.0798 228.013 39.065 227.914 39.0577C227.815 39.0503 227.706 39.0466 227.588 39.0466C226.586 39.0466 225.816 39.3689 225.279 40.0134C224.741 40.658 224.472 41.4001 224.472 42.2399L224.472 49.0462L222.483 49.0462L222.483 37.2124Z"/>
<path d="M236.251 37.2677L238.273 37.2677L238.273 49.0462L236.251 49.0462L236.251 37.2677ZM236.251 32.8148L238.273 32.8148L238.273 35.0689L236.251 35.0689L236.251 32.8148Z"/>
<path d="M241.278 37.2124L243.245 37.2124L243.245 38.8919C243.716 38.31 244.144 37.8865 244.527 37.6213C245.182 37.1719 245.926 36.9473 246.759 36.9473C247.701 36.9473 248.46 37.1793 249.035 37.6434C249.359 37.9086 249.653 38.299 249.919 38.8146C250.361 38.1811 250.88 37.7115 251.477 37.4058C252.073 37.1001 252.744 36.9473 253.488 36.9473C255.079 36.9473 256.161 37.5218 256.736 38.671C257.045 39.2897 257.2 40.1221 257.2 41.1681L257.2 49.0462L255.134 49.0462L255.134 40.8256C255.134 40.0374 254.937 39.496 254.543 39.2013C254.149 38.9067 253.668 38.7593 253.101 38.7593C252.32 38.7593 251.648 39.0208 251.084 39.5438C250.521 40.0668 250.239 40.9397 250.239 42.1625L250.239 49.0462L248.217 49.0462L248.217 41.3228C248.217 40.5199 248.121 39.9342 247.93 39.5659C247.628 39.0135 247.064 38.7372 246.239 38.7372C245.488 38.7372 244.805 39.0282 244.19 39.6101C243.574 40.1921 243.267 41.2454 243.267 42.7702L243.267 49.0462L241.278 49.0462L241.278 37.2124Z"/>
<path d="M274.227 40.251C275.258 40.251 276.074 40.0447 276.674 39.6322C277.275 39.2197 277.575 38.4757 277.575 37.4003C277.575 36.2438 277.155 35.4556 276.315 35.0357C275.866 34.8148 275.266 34.7043 274.514 34.7043L269.144 34.7043L269.144 40.251L274.227 40.251ZM266.946 32.8148L274.459 32.8148C275.697 32.8148 276.717 32.9953 277.52 33.3563C279.044 34.0487 279.807 35.3267 279.807 37.1904C279.807 38.1627 279.606 38.9582 279.205 39.577C278.803 40.1957 278.242 40.693 277.52 41.0686C278.153 41.3265 278.63 41.6653 278.951 42.0852C279.271 42.505 279.45 43.1864 279.486 44.1293L279.564 46.306C279.586 46.9247 279.637 47.3851 279.718 47.6871C279.851 48.2028 280.087 48.5343 280.426 48.6816L280.426 49.0462L277.73 49.0462C277.656 48.9062 277.597 48.7258 277.553 48.5048C277.509 48.2838 277.472 47.8566 277.442 47.2231L277.31 44.516C277.258 43.4553 276.864 42.7444 276.127 42.3835C275.708 42.1846 275.048 42.0852 274.15 42.0852L269.144 42.0852L269.144 49.0462L266.946 49.0462L266.946 32.8148Z"/>
<path d="M284.282 45.8972C284.282 46.4717 284.492 46.9247 284.912 47.2562C285.331 47.5877 285.829 47.7534 286.403 47.7534C287.103 47.7534 287.781 47.5914 288.436 47.2673C289.541 46.7295 290.094 45.8493 290.094 44.6265L290.094 43.0244C289.851 43.179 289.538 43.308 289.155 43.4111C288.771 43.5142 288.396 43.5879 288.027 43.6321L286.823 43.7868C286.101 43.8825 285.56 44.0335 285.199 44.2398C284.587 44.586 284.282 45.1385 284.282 45.8972ZM289.099 41.8752C289.556 41.8163 289.862 41.6248 290.016 41.3007C290.105 41.1239 290.149 40.8698 290.149 40.5383C290.149 39.8606 289.908 39.3689 289.425 39.0632C288.943 38.7575 288.252 38.6047 287.353 38.6047C286.315 38.6047 285.578 38.8846 285.144 39.4444C284.901 39.7538 284.742 40.2142 284.669 40.8256L282.812 40.8256C282.849 39.3671 283.322 38.3524 284.232 37.7815C285.142 37.2106 286.197 36.9252 287.398 36.9252C288.79 36.9252 289.921 37.1904 290.79 37.7207C291.652 38.2511 292.083 39.0761 292.083 40.1957L292.083 47.0131C292.083 47.2194 292.125 47.3851 292.21 47.5104C292.294 47.6356 292.473 47.6982 292.746 47.6982C292.834 47.6982 292.933 47.6927 293.044 47.6816C293.154 47.6706 293.272 47.654 293.397 47.6319L293.397 49.1015C293.088 49.1898 292.852 49.2451 292.69 49.2672C292.528 49.2893 292.307 49.3003 292.027 49.3003C291.342 49.3003 290.845 49.0573 290.536 48.5711C290.374 48.3133 290.259 47.9486 290.193 47.4772C289.788 48.0076 289.206 48.468 288.447 48.8584C287.689 49.2488 286.853 49.444 285.939 49.444C284.842 49.444 283.945 49.1107 283.249 48.444C282.553 47.7774 282.205 46.9432 282.205 45.9414C282.205 44.8438 282.547 43.993 283.232 43.389C283.917 42.785 284.816 42.413 285.928 42.273L289.099 41.8752Z"/>
<path d="M297.331 37.2124L297.331 45.0685C297.331 45.6725 297.427 46.166 297.618 46.5491C297.972 47.2562 298.631 47.6098 299.596 47.6098C300.981 47.6098 301.924 46.991 302.425 45.7535C302.697 45.0906 302.834 44.1808 302.834 43.0244L302.834 37.2124L304.822 37.2124L304.822 49.0462L302.944 49.0462L302.966 47.3004C302.708 47.7498 302.388 48.1291 302.005 48.4385C301.246 49.0573 300.325 49.3666 299.242 49.3666C297.556 49.3666 296.407 48.8031 295.795 47.6761C295.464 47.0721 295.298 46.2655 295.298 45.2563L295.298 37.2124L297.331 37.2124Z"/>
<path d="M307.927 37.2124L309.894 37.2124L309.894 38.8919C310.365 38.31 310.793 37.8865 311.176 37.6213C311.831 37.1719 312.575 36.9473 313.408 36.9473C314.351 36.9473 315.109 37.1793 315.684 37.6434C316.008 37.9086 316.303 38.299 316.568 38.8146C317.01 38.1811 317.529 37.7115 318.126 37.4058C318.722 37.1001 319.393 36.9473 320.137 36.9473C321.728 36.9473 322.811 37.5218 323.385 38.671C323.695 39.2897 323.849 40.1221 323.849 41.1681L323.849 49.0462L321.783 49.0462L321.783 40.8256C321.783 40.0374 321.586 39.496 321.192 39.2013C320.798 38.9067 320.317 38.7593 319.75 38.7593C318.969 38.7593 318.297 39.0208 317.733 39.5438C317.17 40.0668 316.888 40.9397 316.888 42.1625L316.888 49.0462L314.866 49.0462L314.866 41.3228C314.866 40.5199 314.77 39.9342 314.579 39.5659C314.277 39.0135 313.713 38.7372 312.888 38.7372C312.137 38.7372 311.454 39.0282 310.839 39.6101C310.224 40.1921 309.916 41.2454 309.916 42.7702L309.916 49.0462L307.927 49.0462L307.927 37.2124Z"/>
<path d="M92.9087 58.8388L94.8975 58.8388L94.8975 75.0702L92.9087 75.0702L92.9087 58.8388Z"/>
<path d="M97.8808 63.2917L99.9028 63.2917L99.9028 75.0702L97.8808 75.0702L97.8808 63.2917ZM97.8808 58.8388L99.9028 58.8388L99.9028 61.0929L97.8808 61.0929L97.8808 58.8388Z"/>
<path d="M107.836 62.9713C108.676 62.9713 109.49 63.1683 110.278 63.5624C111.066 63.9565 111.667 64.4666 112.079 65.0927C112.477 65.6894 112.742 66.3855 112.875 67.181C112.993 67.7261 113.051 68.5953 113.051 69.7887L104.378 69.7887C104.415 70.9893 104.698 71.9525 105.229 72.678C105.759 73.4036 106.58 73.7664 107.693 73.7664C108.731 73.7664 109.56 73.4239 110.179 72.7388C110.532 72.341 110.783 71.8807 110.93 71.3577L112.886 71.3577C112.834 71.7923 112.663 72.2766 112.372 72.8106C112.081 73.3447 111.755 73.7811 111.394 74.12C110.79 74.7093 110.042 75.107 109.151 75.3133C108.672 75.4312 108.131 75.4901 107.527 75.4901C106.054 75.4901 104.805 74.9542 103.781 73.8824C102.757 72.8106 102.245 71.3098 102.245 69.3798C102.245 67.4794 102.761 65.9362 103.792 64.7502C104.823 63.5642 106.171 62.9713 107.836 62.9713ZM111.007 68.2086C110.926 67.3468 110.738 66.658 110.444 66.1424C109.899 65.1848 108.989 64.706 107.715 64.706C106.801 64.706 106.035 65.0356 105.416 65.6949C104.798 66.3542 104.47 67.1921 104.433 68.2086L111.007 68.2086Z"/>
<path d="M119.67 63.0265C120.598 63.0265 121.408 63.2549 122.101 63.7116C122.476 63.9694 122.86 64.3451 123.25 64.8386L123.25 63.3469L125.084 63.3469L125.084 74.1089C125.084 75.6116 124.863 76.7976 124.421 77.6668C123.596 79.2726 122.038 80.0755 119.747 80.0755C118.473 80.0755 117.401 79.7901 116.532 79.2192C115.663 78.6483 115.177 77.7552 115.073 76.5398L117.095 76.5398C117.191 77.0701 117.383 77.4789 117.67 77.7662C118.119 78.2082 118.827 78.4292 119.792 78.4292C121.316 78.4292 122.314 77.8915 122.786 76.816C123.066 76.1825 123.195 75.0518 123.173 73.4239C122.775 74.0279 122.296 74.4772 121.736 74.7719C121.176 75.0665 120.436 75.2138 119.515 75.2138C118.234 75.2138 117.112 74.759 116.151 73.8493C115.189 72.9395 114.709 71.435 114.709 69.3356C114.709 67.3541 115.193 65.8072 116.162 64.695C117.13 63.5827 118.3 63.0265 119.67 63.0265ZM123.25 69.1036C123.25 67.6377 122.948 66.5512 122.344 65.8441C121.74 65.1369 120.97 64.7833 120.035 64.7833C118.635 64.7833 117.677 65.4389 117.162 66.7501C116.889 67.4499 116.753 68.367 116.753 69.5014C116.753 70.8347 117.024 71.8493 117.565 72.5455C118.106 73.2416 118.834 73.5896 119.747 73.5896C121.176 73.5896 122.182 72.9451 122.764 71.656C123.088 70.9267 123.25 70.0759 123.25 69.1036Z"/>
<path d="M128.476 59.9327L130.487 59.9327L130.487 63.2365L132.377 63.2365L132.377 64.8607L130.487 64.8607L130.487 72.5841C130.487 72.9966 130.627 73.2729 130.907 73.4128C131.062 73.4938 131.32 73.5344 131.681 73.5344C131.776 73.5344 131.879 73.5325 131.99 73.5288C132.1 73.5252 132.229 73.5159 132.377 73.5012L132.377 75.0702C132.148 75.1365 131.911 75.1844 131.664 75.2138C131.417 75.2433 131.15 75.258 130.863 75.258C129.935 75.258 129.305 75.0205 128.973 74.5454C128.642 74.0703 128.476 73.4533 128.476 72.6946L128.476 64.8607L126.874 64.8607L126.874 63.2365L128.476 63.2365L128.476 59.9327Z"/>
<path d="M141.912 69.2914C141.912 70.5584 142.181 71.6192 142.719 72.4736C143.256 73.3281 144.118 73.7553 145.304 73.7553C146.225 73.7553 146.982 73.3594 147.575 72.5676C148.168 71.7757 148.464 70.6395 148.464 69.1589C148.464 67.6635 148.159 66.5568 147.547 65.8386C146.936 65.1204 146.181 64.7613 145.282 64.7613C144.28 64.7613 143.468 65.1443 142.846 65.9104C142.223 66.6765 141.912 67.8035 141.912 69.2914ZM144.906 63.0265C145.813 63.0265 146.571 63.218 147.183 63.6011C147.536 63.8221 147.938 64.2088 148.387 64.7613L148.387 58.7836L150.299 58.7836L150.299 75.0702L148.509 75.0702L148.509 73.4239C148.044 74.1531 147.496 74.6798 146.862 75.0039C146.229 75.328 145.503 75.4901 144.685 75.4901C143.367 75.4901 142.225 74.9358 141.26 73.8272C140.295 72.7186 139.813 71.2435 139.813 69.4019C139.813 67.6783 140.253 66.1848 141.133 64.9215C142.013 63.6582 143.271 63.0265 144.906 63.0265Z"/>
<path d="M158.166 62.9713C159.005 62.9713 159.819 63.1683 160.607 63.5624C161.396 63.9565 161.996 64.4666 162.408 65.0927C162.806 65.6894 163.071 66.3855 163.204 67.181C163.322 67.7261 163.381 68.5953 163.381 69.7887L154.707 69.7887C154.744 70.9893 155.028 71.9525 155.558 72.678C156.088 73.4036 156.91 73.7664 158.022 73.7664C159.061 73.7664 159.889 73.4239 160.508 72.7388C160.862 72.341 161.112 71.8807 161.259 71.3577L163.215 71.3577C163.164 71.7923 162.992 72.2766 162.701 72.8106C162.41 73.3447 162.084 73.7811 161.723 74.12C161.119 74.7093 160.372 75.107 159.48 75.3133C159.002 75.4312 158.46 75.4901 157.856 75.4901C156.383 75.4901 155.134 74.9542 154.11 73.8824C153.087 72.8106 152.575 71.3098 152.575 69.3798C152.575 67.4794 153.09 65.9362 154.122 64.7502C155.153 63.5642 156.501 62.9713 158.166 62.9713ZM161.337 68.2086C161.256 67.3468 161.068 66.658 160.773 66.1424C160.228 65.1848 159.318 64.706 158.044 64.706C157.131 64.706 156.365 65.0356 155.746 65.6949C155.127 66.3542 154.799 67.1921 154.762 68.2086L161.337 68.2086Z"/>
<path d="M165.878 63.2365L167.767 63.2365L167.767 65.2806C167.922 64.8828 168.301 64.3985 168.905 63.8276C169.509 63.2567 170.206 62.9713 170.994 62.9713C171.031 62.9713 171.093 62.975 171.182 62.9823C171.27 62.9897 171.421 63.0044 171.635 63.0265L171.635 65.1259C171.517 65.1038 171.408 65.089 171.309 65.0817C171.209 65.0743 171.101 65.0706 170.983 65.0706C169.981 65.0706 169.211 65.3929 168.673 66.0374C168.136 66.682 167.867 67.4241 167.867 68.2639L167.867 75.0702L165.878 75.0702L165.878 63.2365Z"/>
<path d="M186.75 58.3969C188.805 58.3969 190.4 58.9383 191.534 60.0211C192.669 61.1039 193.299 62.3341 193.424 63.7116L191.28 63.7116C191.037 62.6656 190.553 61.8369 189.827 61.2255C189.102 60.6141 188.083 60.3084 186.772 60.3084C185.174 60.3084 183.883 60.8701 182.899 61.9934C181.916 63.1168 181.424 64.8386 181.424 67.1589C181.424 69.0594 181.868 70.6008 182.756 71.7831C183.643 72.9653 184.967 73.5565 186.728 73.5565C188.348 73.5565 189.582 72.934 190.429 71.6891C190.879 71.0335 191.214 70.1717 191.435 69.1036L193.578 69.1036C193.387 70.8126 192.753 72.2453 191.678 73.4018C190.389 74.794 188.65 75.4901 186.463 75.4901C184.577 75.4901 182.993 74.9192 181.712 73.7774C180.025 72.2674 179.181 69.936 179.181 66.7833C179.181 64.3893 179.815 62.4262 181.082 60.894C182.452 59.2293 184.341 58.3969 186.75 58.3969Z"/>
<path d="M200.683 73.7885C202.002 73.7885 202.906 73.2894 203.396 72.2913C203.886 71.2932 204.13 70.1828 204.13 68.96C204.13 67.855 203.954 66.9564 203.6 66.264C203.04 65.1738 202.075 64.6287 200.705 64.6287C199.49 64.6287 198.606 65.0927 198.053 66.0209C197.501 66.949 197.225 68.0687 197.225 69.3798C197.225 70.6395 197.501 71.6891 198.053 72.5289C198.606 73.3686 199.482 73.7885 200.683 73.7885ZM200.76 62.8939C202.285 62.8939 203.574 63.4022 204.628 64.4187C205.681 65.4353 206.208 66.9306 206.208 68.9047C206.208 70.8126 205.744 72.3889 204.816 73.6338C203.887 74.8787 202.447 75.5011 200.495 75.5011C198.867 75.5011 197.575 74.9505 196.617 73.8493C195.659 72.748 195.181 71.2693 195.181 69.413C195.181 67.4241 195.685 65.8404 196.694 64.6618C197.704 63.4832 199.059 62.8939 200.76 62.8939Z"/>
<path d="M209.832 69.2914C209.832 70.5584 210.101 71.6192 210.639 72.4736C211.176 73.3281 212.038 73.7553 213.224 73.7553C214.145 73.7553 214.902 73.3594 215.495 72.5676C216.088 71.7757 216.384 70.6395 216.384 69.1589C216.384 67.6635 216.078 66.5568 215.467 65.8386C214.856 65.1204 214.101 64.7613 213.202 64.7613C212.2 64.7613 211.388 65.1443 210.766 65.9104C210.143 66.6765 209.832 67.8035 209.832 69.2914ZM212.826 63.0265C213.732 63.0265 214.491 63.218 215.102 63.6011C215.456 63.8221 215.857 64.2088 216.307 64.7613L216.307 58.7836L218.218 58.7836L218.218 75.0702L216.428 75.0702L216.428 73.4239C215.964 74.1531 215.415 74.6798 214.782 75.0039C214.148 75.328 213.423 75.4901 212.605 75.4901C211.287 75.4901 210.145 74.9358 209.18 73.8272C208.215 72.7186 207.733 71.2435 207.733 69.4019C207.733 67.6783 208.173 66.1848 209.053 64.9215C209.933 63.6582 211.191 63.0265 212.826 63.0265Z"/>
<path d="M226.085 62.9713C226.925 62.9713 227.739 63.1683 228.527 63.5624C229.315 63.9565 229.916 64.4666 230.328 65.0927C230.726 65.6894 230.991 66.3855 231.124 67.181C231.242 67.7261 231.301 68.5953 231.301 69.7887L222.627 69.7887C222.664 70.9893 222.947 71.9525 223.478 72.678C224.008 73.4036 224.829 73.7664 225.942 73.7664C226.98 73.7664 227.809 73.4239 228.428 72.7388C228.781 72.341 229.032 71.8807 229.179 71.3577L231.135 71.3577C231.083 71.7923 230.912 72.2766 230.621 72.8106C230.33 73.3447 230.004 73.7811 229.643 74.12C229.039 74.7093 228.292 75.107 227.4 75.3133C226.921 75.4312 226.38 75.4901 225.776 75.4901C224.303 75.4901 223.054 74.9542 222.03 73.8824C221.006 72.8106 220.494 71.3098 220.494 69.3798C220.494 67.4794 221.01 65.9362 222.041 64.7502C223.073 63.5642 224.421 62.9713 226.085 62.9713ZM229.256 68.2086C229.175 67.3468 228.988 66.658 228.693 66.1424C228.148 65.1848 227.238 64.706 225.964 64.706C225.05 64.706 224.284 65.0356 223.666 65.6949C223.047 66.3542 222.719 67.1921 222.682 68.2086L229.256 68.2086Z"/>
<path d="M240.527 61.4354C240.556 60.6104 240.7 60.0064 240.958 59.6233C241.422 58.9457 242.317 58.6068 243.643 58.6068C243.768 58.6068 243.897 58.6105 244.029 58.6179C244.162 58.6252 244.313 58.6363 244.482 58.651L244.482 60.4631C244.276 60.4484 244.127 60.4392 244.035 60.4355C243.943 60.4318 243.856 60.4299 243.775 60.4299C243.171 60.4299 242.81 60.5865 242.692 60.8995C242.575 61.2126 242.516 62.01 242.516 63.2917L244.482 63.2917L244.482 64.8607L242.494 64.8607L242.494 75.0702L240.527 75.0702L240.527 64.8607L238.88 64.8607L238.88 63.2917L240.527 63.2917L240.527 61.4354Z"/>
<path d="M248.305 63.2365L248.305 71.0925C248.305 71.6965 248.401 72.19 248.593 72.5731C248.946 73.2802 249.606 73.6338 250.571 73.6338C251.955 73.6338 252.898 73.015 253.399 71.7775C253.672 71.1146 253.808 70.2049 253.808 69.0484L253.808 63.2365L255.797 63.2365L255.797 75.0702L253.918 75.0702L253.941 73.3244C253.683 73.7738 253.362 74.1531 252.979 74.4625C252.221 75.0813 251.3 75.3906 250.217 75.3906C248.53 75.3906 247.381 74.8271 246.77 73.7001C246.438 73.0961 246.272 72.2895 246.272 71.2803L246.272 63.2365L248.305 63.2365ZM251.963 59.104L254.029 59.104L254.029 61.4023L251.963 61.4023L251.963 59.104ZM248.316 59.104L250.383 59.104L250.383 61.4023L248.316 61.4023L248.316 59.104Z"/>
<path d="M258.957 63.2365L260.846 63.2365L260.846 65.2806C261.001 64.8828 261.38 64.3985 261.984 63.8276C262.588 63.2567 263.285 62.9713 264.073 62.9713C264.11 62.9713 264.172 62.975 264.261 62.9823C264.349 62.9897 264.5 63.0044 264.714 63.0265L264.714 65.1259C264.596 65.1038 264.487 65.089 264.388 65.0817C264.288 65.0743 264.18 65.0706 264.062 65.0706C263.06 65.0706 262.29 65.3929 261.752 66.0374C261.215 66.682 260.946 67.4241 260.946 68.2639L260.946 75.0702L258.957 75.0702L258.957 63.2365Z"/>
<path d="M273.984 69.2914C273.984 70.5584 274.253 71.6192 274.79 72.4736C275.328 73.3281 276.19 73.7553 277.376 73.7553C278.297 73.7553 279.054 73.3594 279.647 72.5676C280.24 71.7757 280.536 70.6395 280.536 69.1589C280.536 67.6635 280.23 66.5568 279.619 65.8386C279.008 65.1204 278.253 64.7613 277.354 64.7613C276.352 64.7613 275.54 65.1443 274.918 65.9104C274.295 66.6765 273.984 67.8035 273.984 69.2914ZM276.978 63.0265C277.884 63.0265 278.643 63.218 279.254 63.6011C279.608 63.8221 280.009 64.2088 280.459 64.7613L280.459 58.7836L282.37 58.7836L282.37 75.0702L280.58 75.0702L280.58 73.4239C280.116 74.1531 279.567 74.6798 278.934 75.0039C278.3 75.328 277.575 75.4901 276.757 75.4901C275.439 75.4901 274.297 74.9358 273.332 73.8272C272.367 72.7186 271.885 71.2435 271.885 69.4019C271.885 67.6783 272.325 66.1848 273.205 64.9215C274.085 63.6582 275.343 63.0265 276.978 63.0265Z"/>
<path d="M285.309 63.2917L287.331 63.2917L287.331 75.0702L285.309 75.0702L285.309 63.2917ZM285.309 58.8388L287.331 58.8388L287.331 61.0929L285.309 61.0929L285.309 58.8388Z"/>
<path d="M295.265 62.9713C296.105 62.9713 296.918 63.1683 297.707 63.5624C298.495 63.9565 299.095 64.4666 299.508 65.0927C299.905 65.6894 300.171 66.3855 300.303 67.181C300.421 67.7261 300.48 68.5953 300.48 69.7887L291.806 69.7887C291.843 70.9893 292.127 71.9525 292.657 72.678C293.188 73.4036 294.009 73.7664 295.121 73.7664C296.16 73.7664 296.988 73.4239 297.607 72.7388C297.961 72.341 298.211 71.8807 298.359 71.3577L300.314 71.3577C300.263 71.7923 300.091 72.2766 299.8 72.8106C299.51 73.3447 299.184 73.7811 298.823 74.12C298.219 74.7093 297.471 75.107 296.58 75.3133C296.101 75.4312 295.559 75.4901 294.955 75.4901C293.482 75.4901 292.234 74.9542 291.21 73.8824C290.186 72.8106 289.674 71.3098 289.674 69.3798C289.674 67.4794 290.189 65.9362 291.221 64.7502C292.252 63.5642 293.6 62.9713 295.265 62.9713ZM298.436 68.2086C298.355 67.3468 298.167 66.658 297.872 66.1424C297.327 65.1848 296.418 64.706 295.143 64.706C294.23 64.706 293.464 65.0356 292.845 65.6949C292.226 66.3542 291.898 67.1921 291.862 68.2086L298.436 68.2086Z"/>
<path d="M320.888 58.8388L320.888 60.7725L315.419 60.7725L315.419 75.0702L313.187 75.0702L313.187 60.7725L307.717 60.7725L307.717 58.8388L320.888 58.8388Z"/>
<path d="M324.623 63.2365L324.623 71.0925C324.623 71.6965 324.718 72.19 324.91 72.5731C325.263 73.2802 325.923 73.6338 326.888 73.6338C328.273 73.6338 329.215 73.015 329.716 71.7775C329.989 71.1146 330.125 70.2049 330.125 69.0484L330.125 63.2365L332.114 63.2365L332.114 75.0702L330.236 75.0702L330.258 73.3244C330 73.7738 329.68 74.1531 329.296 74.4625C328.538 75.0813 327.617 75.3906 326.534 75.3906C324.847 75.3906 323.698 74.8271 323.087 73.7001C322.755 73.0961 322.59 72.2895 322.59 71.2803L322.59 63.2365L324.623 63.2365ZM328.28 59.104L330.346 59.104L330.346 61.4023L328.28 61.4023L328.28 59.104ZM324.634 59.104L326.7 59.104L326.7 61.4023L324.634 61.4023L324.634 59.104Z"/>
<path d="M335.274 63.2365L337.164 63.2365L337.164 65.2806C337.318 64.8828 337.698 64.3985 338.302 63.8276C338.906 63.2567 339.602 62.9713 340.39 62.9713C340.427 62.9713 340.489 62.975 340.578 62.9823C340.666 62.9897 340.817 63.0044 341.031 63.0265L341.031 65.1259C340.913 65.1038 340.804 65.089 340.705 65.0817C340.605 65.0743 340.497 65.0706 340.379 65.0706C339.377 65.0706 338.607 65.3929 338.07 66.0374C337.532 66.682 337.263 67.4241 337.263 68.2639L337.263 75.0702L335.274 75.0702L335.274 63.2365Z"/>
<path d="M93.8258 89.2605L96.9858 98.8954L100.29 89.2605L102.466 89.2605L98.0024 101.094L95.8809 101.094L91.5165 89.2605L93.8258 89.2605Z"/>
<path d="M109.096 88.9953C109.936 88.9953 110.75 89.1923 111.538 89.5864C112.326 89.9805 112.926 90.4906 113.339 91.1167C113.737 91.7134 114.002 92.4095 114.134 93.205C114.252 93.7501 114.311 94.6193 114.311 95.8127L105.637 95.8127C105.674 97.0134 105.958 97.9765 106.488 98.702C107.019 99.4276 107.84 99.7904 108.952 99.7904C109.991 99.7904 110.82 99.4479 111.438 98.7628C111.792 98.365 112.042 97.9047 112.19 97.3817L114.145 97.3817C114.094 97.8163 113.923 98.3006 113.632 98.8346C113.341 99.3687 113.015 99.8051 112.654 100.144C112.05 100.733 111.302 101.131 110.411 101.337C109.932 101.455 109.39 101.514 108.786 101.514C107.313 101.514 106.065 100.978 105.041 99.9064C104.017 98.8346 103.505 97.3338 103.505 95.4038C103.505 93.5034 104.021 91.9602 105.052 90.7742C106.083 89.5883 107.431 88.9953 109.096 88.9953ZM112.267 94.2326C112.186 93.3708 111.998 92.682 111.703 92.1664C111.158 91.2088 110.249 90.73 108.974 90.73C108.061 90.73 107.295 91.0596 106.676 91.7189C106.057 92.3782 105.729 93.2161 105.693 94.2326L112.267 94.2326Z"/>
<path d="M116.808 89.2605L118.698 89.2605L118.698 91.3046C118.852 90.9068 119.232 90.4225 119.836 89.8516C120.44 89.2807 121.136 88.9953 121.924 88.9953C121.961 88.9953 122.023 88.999 122.112 89.0063C122.2 89.0137 122.351 89.0284 122.565 89.0505L122.565 91.1499C122.447 91.1278 122.338 91.1131 122.239 91.1057C122.139 91.0983 122.031 91.0946 121.913 91.0946C120.911 91.0946 120.141 91.4169 119.604 92.0614C119.066 92.706 118.797 93.4481 118.797 94.2879L118.797 101.094L116.808 101.094L116.808 89.2605Z"/>
<path d="M125.471 97.3817C125.53 98.0446 125.695 98.5529 125.968 98.9065C126.469 99.5473 127.338 99.8677 128.576 99.8677C129.312 99.8677 129.961 99.7075 130.52 99.3871C131.08 99.0667 131.36 98.5713 131.36 97.901C131.36 97.3927 131.135 97.006 130.686 96.7408C130.399 96.5787 129.832 96.3909 128.984 96.1773L127.404 95.7795C126.395 95.5291 125.651 95.2492 125.172 94.9398C124.318 94.402 123.891 93.6581 123.891 92.7078C123.891 91.5882 124.294 90.6821 125.101 89.9897C125.907 89.2973 126.992 88.9511 128.355 88.9511C130.137 88.9511 131.423 89.4741 132.211 90.5201C132.704 91.183 132.944 91.8975 132.929 92.6636L131.051 92.6636C131.014 92.2143 130.855 91.8055 130.576 91.4372C130.119 90.9142 129.327 90.6527 128.2 90.6527C127.449 90.6527 126.88 90.7963 126.493 91.0836C126.106 91.3709 125.913 91.7502 125.913 92.2217C125.913 92.7373 126.167 93.1498 126.675 93.4592C126.97 93.6433 127.404 93.8054 127.979 93.9453L129.294 94.2658C130.723 94.612 131.681 94.9471 132.167 95.2713C132.94 95.7795 133.327 96.5787 133.327 97.6689C133.327 98.7223 132.927 99.632 132.128 100.398C131.329 101.164 130.112 101.547 128.476 101.547C126.716 101.547 125.469 101.148 124.736 100.348C124.003 99.5492 123.611 98.5602 123.559 97.3817L125.471 97.3817Z"/>
<path d="M136.001 85.9567L138.012 85.9567L138.012 89.2605L139.901 89.2605L139.901 90.8847L138.012 90.8847L138.012 98.6081C138.012 99.0206 138.152 99.2969 138.432 99.4368C138.586 99.5179 138.844 99.5584 139.205 99.5584C139.301 99.5584 139.404 99.5565 139.514 99.5528C139.625 99.5492 139.754 99.54 139.901 99.5252L139.901 101.094C139.673 101.161 139.435 101.208 139.188 101.238C138.942 101.267 138.675 101.282 138.387 101.282C137.459 101.282 136.829 101.044 136.498 100.569C136.167 100.094 136.001 99.4773 136.001 98.7186L136.001 90.8847L134.399 90.8847L134.399 89.2605L136.001 89.2605L136.001 85.9567Z"/>
<path d="M146.818 88.9953C147.658 88.9953 148.472 89.1923 149.26 89.5864C150.048 89.9805 150.648 90.4906 151.061 91.1167C151.459 91.7134 151.724 92.4095 151.856 93.205C151.974 93.7501 152.033 94.6193 152.033 95.8127L143.36 95.8127C143.396 97.0134 143.68 97.9765 144.21 98.702C144.741 99.4276 145.562 99.7904 146.674 99.7904C147.713 99.7904 148.542 99.4479 149.16 98.7628C149.514 98.365 149.764 97.9047 149.912 97.3817L151.868 97.3817C151.816 97.8163 151.645 98.3006 151.354 98.8346C151.063 99.3687 150.737 99.8051 150.376 100.144C149.772 100.733 149.024 101.131 148.133 101.337C147.654 101.455 147.113 101.514 146.509 101.514C145.035 101.514 143.787 100.978 142.763 99.9064C141.739 98.8346 141.227 97.3338 141.227 95.4038C141.227 93.5034 141.743 91.9602 142.774 90.7742C143.805 89.5883 145.153 88.9953 146.818 88.9953ZM149.989 94.2326C149.908 93.3708 149.72 92.682 149.426 92.1664C148.881 91.2088 147.971 90.73 146.696 90.73C145.783 90.73 145.017 91.0596 144.398 91.7189C143.779 92.3782 143.452 93.2161 143.415 94.2326L149.989 94.2326Z"/>
<path d="M159.038 88.9179C160.372 88.9179 161.456 89.242 162.292 89.8903C163.129 90.5385 163.631 91.6545 163.801 93.2382L161.867 93.2382C161.749 92.5089 161.48 91.9031 161.06 91.4206C160.641 90.9381 159.967 90.6969 159.038 90.6969C157.771 90.6969 156.865 91.3156 156.32 92.5531C155.967 93.356 155.79 94.3468 155.79 95.5254C155.79 96.7113 156.04 97.7095 156.541 98.5197C157.042 99.33 157.83 99.7352 158.906 99.7352C159.731 99.7352 160.385 99.4829 160.867 98.9783C161.35 98.4737 161.683 97.7831 161.867 96.9065L163.801 96.9065C163.58 98.4755 163.027 99.6228 162.143 100.348C161.259 101.074 160.129 101.437 158.751 101.437C157.204 101.437 155.97 100.871 155.05 99.7407C154.129 98.61 153.669 97.1975 153.669 95.5033C153.669 93.426 154.173 91.8092 155.182 90.6527C156.191 89.4962 157.477 88.9179 159.038 88.9179Z"/>
<path d="M165.745 84.8629L167.657 84.8629L167.657 94.2879L172.762 89.2605L175.303 89.2605L170.773 93.6912L175.557 101.094L173.016 101.094L169.325 95.1276L167.657 96.6524L167.657 101.094L165.745 101.094L165.745 84.8629Z"/>
<path d="M177.502 85.9567L179.513 85.9567L179.513 89.2605L181.402 89.2605L181.402 90.8847L179.513 90.8847L179.513 98.6081C179.513 99.0206 179.653 99.2969 179.933 99.4368C180.087 99.5179 180.345 99.5584 180.706 99.5584C180.802 99.5584 180.905 99.5565 181.015 99.5528C181.126 99.5492 181.255 99.54 181.402 99.5252L181.402 101.094C181.174 101.161 180.936 101.208 180.689 101.238C180.443 101.267 180.176 101.282 179.888 101.282C178.96 101.282 178.33 101.044 177.999 100.569C177.668 100.094 177.502 99.4773 177.502 98.7186L177.502 90.8847L175.9 90.8847L175.9 89.2605L177.502 89.2605L177.502 85.9567Z"/>
<path d="M183.866 98.6855L186.175 98.6855L186.175 101.094L183.866 101.094L183.866 98.6855Z"/>
<path d="M190.153 98.6855L192.462 98.6855L192.462 101.094L190.153 101.094L190.153 98.6855Z"/>
<path d="M202.573 84.8629L204.793 84.8629L204.793 91.5698L213.235 91.5698L213.235 84.8629L215.456 84.8629L215.456 101.094L213.235 101.094L213.235 93.5034L204.793 93.5034L204.793 101.094L202.573 101.094L202.573 84.8629Z"/>
<path d="M218.594 89.3157L220.616 89.3157L220.616 101.094L218.594 101.094L218.594 89.3157ZM218.594 84.8629L220.616 84.8629L220.616 87.1169L218.594 87.1169L218.594 84.8629Z"/>
<path d="M223.677 84.8629L225.665 84.8629L225.665 101.094L223.677 101.094L223.677 84.8629Z"/>
<path d="M229.146 87.4594C229.175 86.6344 229.319 86.0304 229.577 85.6474C230.041 84.9697 230.936 84.6308 232.262 84.6308C232.387 84.6308 232.516 84.6345 232.649 84.6419C232.781 84.6492 232.932 84.6603 233.102 84.675L233.102 86.4871C232.895 86.4724 232.746 86.4632 232.654 86.4595C232.562 86.4558 232.476 86.4539 232.394 86.4539C231.79 86.4539 231.43 86.6105 231.312 86.9235C231.194 87.2366 231.135 88.034 231.135 89.3157L233.102 89.3157L233.102 90.8847L231.113 90.8847L231.113 101.094L229.146 101.094L229.146 90.8847L227.5 90.8847L227.5 89.3157L229.146 89.3157L229.146 87.4594Z"/>
<path d="M241.223 89.2605L243.19 89.2605L243.19 90.9399C243.661 90.358 244.088 89.9345 244.471 89.6693C245.127 89.2199 245.871 88.9953 246.703 88.9953C247.646 88.9953 248.405 89.2273 248.979 89.6914C249.304 89.9566 249.598 90.347 249.863 90.8626C250.305 90.2291 250.825 89.7595 251.421 89.4538C252.018 89.1481 252.688 88.9953 253.432 88.9953C255.023 88.9953 256.106 89.5698 256.681 90.719C256.99 91.3377 257.145 92.1701 257.145 93.2161L257.145 101.094L255.079 101.094L255.079 92.8736C255.079 92.0854 254.882 91.544 254.487 91.2493C254.093 90.9547 253.613 90.8074 253.046 90.8074C252.265 90.8074 251.593 91.0689 251.029 91.5919C250.466 92.1148 250.184 92.9877 250.184 94.2105L250.184 101.094L248.162 101.094L248.162 93.3708C248.162 92.5679 248.066 91.9823 247.874 91.6139C247.572 91.0615 247.009 90.7853 246.184 90.7853C245.433 90.7853 244.749 91.0762 244.134 91.6581C243.519 92.2401 243.212 93.2934 243.212 94.8182L243.212 101.094L241.223 101.094L241.223 89.2605Z"/>
<path d="M260.073 89.3157L262.095 89.3157L262.095 101.094L260.073 101.094L260.073 89.3157ZM260.073 84.8629L262.095 84.8629L262.095 87.1169L260.073 87.1169L260.073 84.8629Z"/>
<path d="M265.156 89.2605L267.045 89.2605L267.045 91.3046C267.2 90.9068 267.579 90.4225 268.183 89.8516C268.787 89.2807 269.483 88.9953 270.271 88.9953C270.308 88.9953 270.371 88.999 270.459 89.0063C270.548 89.0137 270.699 89.0284 270.912 89.0505L270.912 91.1499C270.794 91.1278 270.686 91.1131 270.586 91.1057C270.487 91.0983 270.378 91.0946 270.26 91.0946C269.258 91.0946 268.489 91.4169 267.951 92.0614C267.413 92.706 267.144 93.4481 267.144 94.2879L267.144 101.094L265.156 101.094L265.156 89.2605Z"/>
<path d="M271.818 103.404C272.327 103.315 272.684 102.958 272.89 102.332C273.001 102 273.056 101.68 273.056 101.37C273.056 101.319 273.054 101.273 273.05 101.232C273.047 101.192 273.037 101.146 273.023 101.094L271.818 101.094L271.818 98.6855L274.183 98.6855L274.183 100.917C274.183 101.794 274.006 102.564 273.652 103.227C273.299 103.89 272.687 104.298 271.818 104.453L271.818 103.404Z"/>
<path d="M283.972 89.3157L285.994 89.3157L285.994 101.094L283.972 101.094L283.972 89.3157ZM283.972 84.8629L285.994 84.8629L285.994 87.1169L283.972 87.1169L283.972 84.8629Z"/>
<path d="M289 84.8076L290.989 84.8076L290.989 90.8626C291.46 90.2659 291.884 89.8461 292.259 89.603C292.9 89.1831 293.699 88.9732 294.657 88.9732C296.373 88.9732 297.537 89.5735 298.149 90.7742C298.48 91.4298 298.646 92.3395 298.646 93.5034L298.646 101.094L296.602 101.094L296.602 93.636C296.602 92.7668 296.491 92.1296 296.27 91.7244C295.909 91.0762 295.232 90.7521 294.237 90.7521C293.412 90.7521 292.665 91.0357 291.994 91.6029C291.324 92.1701 290.989 93.2419 290.989 94.8182L290.989 101.094L289 101.094L289 84.8076Z"/>
<path d="M301.585 89.2605L303.474 89.2605L303.474 90.9399C304.034 90.2475 304.627 89.7503 305.253 89.4483C305.879 89.1463 306.576 88.9953 307.342 88.9953C309.021 88.9953 310.155 89.5809 310.745 90.7521C311.069 91.393 311.231 92.3101 311.231 93.5034L311.231 101.094L309.209 101.094L309.209 93.636C309.209 92.9141 309.102 92.3322 308.888 91.8902C308.535 91.1536 307.894 90.7853 306.966 90.7853C306.494 90.7853 306.108 90.8331 305.806 90.9289C305.261 91.091 304.782 91.4151 304.369 91.9012C304.038 92.2916 303.822 92.6949 303.723 93.1111C303.624 93.5273 303.574 94.1221 303.574 94.8956L303.574 101.094L301.585 101.094L301.585 89.2605Z"/>
<path d="M319.573 99.5252L326.589 91.0394L320.092 91.0394L320.092 89.2605L329.263 89.2605L329.263 90.8847L322.291 99.3153L329.473 99.3153L329.473 101.094L319.573 101.094L319.573 99.5252Z"/>
<path d="M333.76 89.2605L333.76 97.1165C333.76 97.7205 333.856 98.214 334.048 98.5971C334.401 99.3042 335.061 99.6578 336.025 99.6578C337.41 99.6578 338.353 99.0391 338.854 97.8015C339.127 97.1386 339.263 96.2289 339.263 95.0724L339.263 89.2605L341.252 89.2605L341.252 101.094L339.373 101.094L339.395 99.3484C339.138 99.7978 338.817 100.177 338.434 100.487C337.675 101.105 336.755 101.415 335.672 101.415C333.985 101.415 332.836 100.851 332.225 99.7241C331.893 99.1201 331.727 98.3135 331.727 97.3043L331.727 89.2605L333.76 89.2605Z"/>
<path d="M93.3506 113.483C93.3801 112.658 93.5237 112.054 93.7816 111.671C94.2456 110.994 95.1406 110.655 96.4665 110.655C96.5917 110.655 96.7207 110.659 96.8532 110.666C96.9858 110.673 97.1368 110.684 97.3063 110.699L97.3063 112.511C97.1 112.496 96.9508 112.487 96.8588 112.483C96.7667 112.48 96.6801 112.478 96.5991 112.478C95.9951 112.478 95.6341 112.634 95.5163 112.948C95.3984 113.261 95.3395 114.058 95.3395 115.34L97.3063 115.34L97.3063 116.909L95.3174 116.909L95.3174 127.118L93.3506 127.118L93.3506 116.909L91.7043 116.909L91.7043 115.34L93.3506 115.34L93.3506 113.483ZM99.2178 113.141L99.2178 110.887L101.207 110.887L101.207 113.141L99.2178 113.141ZM99.2178 115.34L101.207 115.34L101.207 127.118L99.2178 127.118L99.2178 115.34Z"/>
<path d="M104.168 115.284L106.057 115.284L106.057 116.964C106.617 116.272 107.21 115.774 107.836 115.472C108.462 115.17 109.158 115.019 109.925 115.019C111.604 115.019 112.738 115.605 113.328 116.776C113.652 117.417 113.814 118.334 113.814 119.527L113.814 127.118L111.792 127.118L111.792 119.66C111.792 118.938 111.685 118.356 111.471 117.914C111.118 117.178 110.477 116.809 109.549 116.809C109.077 116.809 108.691 116.857 108.389 116.953C107.844 117.115 107.365 117.439 106.952 117.925C106.621 118.316 106.405 118.719 106.306 119.135C106.206 119.551 106.157 120.146 106.157 120.92L106.157 127.118L104.168 127.118L104.168 115.284Z"/>
<path d="M118.013 121.339C118.013 122.606 118.281 123.667 118.819 124.522C119.357 125.376 120.219 125.803 121.405 125.803C122.325 125.803 123.082 125.407 123.675 124.616C124.268 123.824 124.565 122.687 124.565 121.207C124.565 119.712 124.259 118.605 123.648 117.887C123.036 117.168 122.281 116.809 121.383 116.809C120.381 116.809 119.569 117.192 118.946 117.958C118.324 118.724 118.013 119.851 118.013 121.339ZM121.007 115.075C121.913 115.075 122.672 115.266 123.283 115.649C123.637 115.87 124.038 116.257 124.487 116.809L124.487 110.832L126.399 110.832L126.399 127.118L124.609 127.118L124.609 125.472C124.145 126.201 123.596 126.728 122.963 127.052C122.329 127.376 121.604 127.538 120.786 127.538C119.467 127.538 118.326 126.984 117.361 125.875C116.396 124.767 115.913 123.291 115.913 121.45C115.913 119.726 116.353 118.233 117.234 116.969C118.114 115.706 119.372 115.075 121.007 115.075Z"/>
<path d="M134.266 115.019C135.106 115.019 135.92 115.216 136.708 115.61C137.496 116.005 138.096 116.515 138.509 117.141C138.907 117.737 139.172 118.434 139.304 119.229C139.422 119.774 139.481 120.643 139.481 121.837L130.808 121.837C130.844 123.037 131.128 124 131.658 124.726C132.189 125.452 133.01 125.814 134.122 125.814C135.161 125.814 135.99 125.472 136.608 124.787C136.962 124.389 137.213 123.929 137.36 123.406L139.316 123.406C139.264 123.84 139.093 124.325 138.802 124.859C138.511 125.393 138.185 125.829 137.824 126.168C137.22 126.757 136.472 127.155 135.581 127.361C135.102 127.479 134.561 127.538 133.957 127.538C132.483 127.538 131.235 127.002 130.211 125.93C129.187 124.859 128.675 123.358 128.675 121.428C128.675 119.527 129.191 117.984 130.222 116.798C131.253 115.612 132.601 115.019 134.266 115.019ZM137.437 120.257C137.356 119.395 137.168 118.706 136.874 118.19C136.329 117.233 135.419 116.754 134.144 116.754C133.231 116.754 132.465 117.084 131.846 117.743C131.227 118.402 130.9 119.24 130.863 120.257L137.437 120.257Z"/>
<path d="M141.923 115.284L143.813 115.284L143.813 116.964C144.372 116.272 144.965 115.774 145.592 115.472C146.218 115.17 146.914 115.019 147.68 115.019C149.359 115.019 150.494 115.605 151.083 116.776C151.407 117.417 151.569 118.334 151.569 119.527L151.569 127.118L149.547 127.118L149.547 119.66C149.547 118.938 149.44 118.356 149.227 117.914C148.873 117.178 148.232 116.809 147.304 116.809C146.833 116.809 146.446 116.857 146.144 116.953C145.599 117.115 145.12 117.439 144.708 117.925C144.376 118.316 144.161 118.719 144.061 119.135C143.962 119.551 143.912 120.146 143.912 120.92L143.912 127.118L141.923 127.118L141.923 115.284Z"/>
<path d="M155.668 110.887L157.911 110.887L157.911 116.224L157.37 123.251L156.243 123.251L155.668 116.224L155.668 110.887ZM155.668 124.82L157.867 124.82L157.867 127.118L155.668 127.118L155.668 124.82Z"/>
</g>
</g>
</svg>
