<?xml version="1.0" encoding="UTF-8" standalone="no"?>
<!DOCTYPE svg PUBLIC "-//W3C//DTD SVG 1.1//EN" "http://www.w3.org/Graphics/SVG/1.1/DTD/svg11.dtd">
<!-- Created with Vectornator (http://vectornator.io/) -->
<svg height="100%" stroke-miterlimit="10" style="fill-rule:nonzero;clip-rule:evenodd;stroke-linecap:round;stroke-linejoin:round;" version="1.1" viewBox="0 0 3118.5 1644.3" width="100%" xml:space="preserve" xmlns="http://www.w3.org/2000/svg" xmlns:vectornator="http://vectornator.io" xmlns:xlink="http://www.w3.org/1999/xlink">
<defs>
<filter color-interpolation-filters="sRGB" filterUnits="userSpaceOnUse" height="1619.12" id="Filter" width="3095.7" x="18.6568" y="20.7391">
<feDropShadow dx="-5.17605" dy="9.1513" flood-color="#000000" flood-opacity="0.333" in="SourceGraphic" result="Shadow" stdDeviation="3.15411"/>
</filter>
<filter color-interpolation-filters="sRGB" filterUnits="userSpaceOnUse" height="427.737" id="Filter_2" width="1542.55" x="764.547" y="184.476">
<feDropShadow dx="-5.17605" dy="9.1513" flood-color="#000000" flood-opacity="0.333" in="SourceGraphic" result="Shadow" stdDeviation="3.15411"/>
</filter>
<filter color-interpolation-filters="sRGB" filterUnits="userSpaceOnUse" height="589.075" id="Filter_3" width="1703.89" x="683.904" y="105.071">
<feComponentTransfer in="SourceGraphic" result="Alpha">
<feFuncA slope="0.868217" type="linear"/>
</feComponentTransfer>
<feDropShadow dx="-5.17605" dy="9.1513" flood-color="#000000" flood-opacity="0.333" in="Alpha" result="Shadow" stdDeviation="3.15411"/>
<feGaussianBlur in="Shadow" result="Blur" stdDeviation="32.2674"/>
</filter>
<filter color-interpolation-filters="sRGB" filterUnits="userSpaceOnUse" height="590.519" id="Filter_4" width="379.825" x="335.691" y="107.997">
<feComponentTransfer in="SourceGraphic" result="Alpha">
<feFuncA slope="0.868217" type="linear"/>
</feComponentTransfer>
<feDropShadow dx="-5.17605" dy="9.1513" flood-color="#000000" flood-opacity="0.333" in="Alpha" result="Shadow" stdDeviation="3.15411"/>
<feGaussianBlur in="Shadow" result="Blur" stdDeviation="9.98062"/>
</filter>
<filter color-interpolation-filters="sRGB" filterUnits="userSpaceOnUse" height="581.314" id="Filter_5" width="370.619" x="2322.36" y="76.253">
<feComponentTransfer in="SourceGraphic" result="Alpha">
<feFuncA slope="0.868217" type="linear"/>
</feComponentTransfer>
<feDropShadow dx="-5.17605" dy="9.1513" flood-color="#000000" flood-opacity="0.333" in="Alpha" result="Shadow" stdDeviation="3.15411"/>
<feGaussianBlur in="Shadow" result="Blur" stdDeviation="8.13954"/>
</filter>
</defs>
<g id="Ebene-1" vectornator:layerName="Ebene 1">
<path d="M855.111 22.7168L2288.25 22.7168C2741.91 22.7168 3109.67 157.031 3109.67 322.717L3109.67 1320.85C3109.67 1486.53 2741.91 1620.85 2288.25 1620.85L855.111 1620.85C401.456 1620.85 33.6958 1486.53 33.6958 1320.85L33.6958 322.717C33.6958 157.031 401.456 22.7168 855.111 22.7168Z" fill="#000000" fill-rule="nonzero" filter="url(#Filter)" stroke="#000000" stroke-linecap="butt" stroke-linejoin="round" stroke-width="3.95539" vectornator:shadowAngle="2.08554" vectornator:shadowColor="#000000" vectornator:shadowOffset="10.5137" vectornator:shadowOpacity="0.333" vectornator:shadowRadius="6.30822"/>
<g fill="#cac34e" filter="url(#Filter_2)" stroke="none" vectornator:shadowAngle="2.08554" vectornator:shadowColor="#000000" vectornator:shadowOffset="10.5137" vectornator:shadowOpacity="0.333" vectornator:shadowRadius="6.30822">
<path d="M777.608 184.476L957.63 184.476C993.217 184.476 1021.9 194.508 1043.69 214.571C1065.48 234.634 1076.37 262.822 1076.37 299.135C1076.37 330.364 1066.66 357.554 1047.23 380.703C1027.81 403.853 997.938 415.428 957.63 415.428L831.805 415.428L831.805 584.556L777.608 584.556L777.608 184.476ZM1021.63 299.407C1021.63 269.994 1010.74 250.021 988.95 239.491C976.967 233.862 960.535 231.048 939.655 231.048L831.805 231.048L831.805 369.673L939.655 369.673C963.985 369.673 983.73 364.498 998.891 354.149C1014.05 343.8 1021.63 325.553 1021.63 299.407Z"/>
<path d="M1253.67 552.963C1286.17 552.963 1308.46 540.662 1320.53 516.06C1332.61 491.458 1338.65 464.087 1338.65 433.947C1338.65 406.712 1334.29 384.561 1325.57 367.494C1311.77 340.623 1287.99 327.187 1254.22 327.187C1224.26 327.187 1202.47 338.625 1188.85 361.503C1175.24 384.38 1168.43 411.978 1168.43 444.296C1168.43 475.344 1175.24 501.217 1188.85 521.916C1202.47 542.614 1224.08 552.963 1253.67 552.963ZM1255.58 284.428C1293.16 284.428 1324.94 296.956 1350.9 322.012C1376.86 347.068 1389.85 383.926 1389.85 432.585C1389.85 479.611 1378.41 518.466 1355.53 549.15C1332.65 579.835 1297.16 595.177 1249.04 595.177C1208.92 595.177 1177.05 581.605 1153.45 554.461C1129.84 527.317 1118.04 490.868 1118.04 445.113C1118.04 396.091 1130.48 357.054 1155.35 328.004C1180.23 298.953 1213.64 284.428 1255.58 284.428Z"/>
<path d="M1470.73 292.871L1526.84 522.733L1583.76 292.871L1638.77 292.871L1695.97 521.371L1755.61 292.871L1804.63 292.871L1719.93 584.556L1669 584.556L1609.63 358.779L1552.17 584.556L1501.24 584.556L1417.08 292.871L1470.73 292.871Z"/>
<path d="M1972.4 286.335C1993.1 286.335 2013.16 291.191 2032.59 300.905C2052.02 310.619 2066.81 323.192 2076.98 338.625C2086.79 353.332 2093.32 370.49 2096.59 390.099C2099.49 403.535 2100.95 424.96 2100.95 454.373L1887.15 454.373C1888.06 483.968 1895.05 507.708 1908.12 525.592C1921.2 543.477 1941.44 552.419 1968.86 552.419C1994.46 552.419 2014.89 543.976 2030.14 527.09C2038.85 517.286 2045.03 505.938 2048.66 493.047L2096.86 493.047C2095.59 503.759 2091.37 515.697 2084.2 528.861C2077.03 542.024 2068.99 552.782 2060.1 561.134C2045.21 575.659 2026.78 585.464 2004.81 590.547C1993.01 593.452 1979.66 594.905 1964.77 594.905C1928.46 594.905 1897.68 581.696 1872.45 555.278C1847.21 528.861 1834.59 491.867 1834.59 444.296C1834.59 397.453 1847.3 359.415 1872.72 330.183C1898.14 300.951 1931.37 286.335 1972.4 286.335ZM2050.56 415.428C2048.57 394.184 2043.94 377.208 2036.67 364.498C2023.24 340.895 2000.81 329.093 1969.4 329.093C1946.89 329.093 1928.01 337.218 1912.75 353.468C1897.5 369.718 1889.42 390.372 1888.52 415.428L2050.56 415.428Z"/>
<path d="M2162.5 292.871L2209.07 292.871L2209.07 343.255C2212.88 333.451 2222.23 321.513 2237.12 307.442C2252.01 293.37 2269.17 286.335 2288.6 286.335C2289.5 286.335 2291.05 286.425 2293.23 286.607C2295.4 286.788 2299.13 287.152 2304.39 287.696L2304.39 339.442C2301.49 338.898 2298.81 338.535 2296.36 338.353C2293.91 338.171 2291.23 338.081 2288.32 338.081C2263.63 338.081 2244.66 346.024 2231.4 361.911C2218.15 377.798 2211.52 396.091 2211.52 416.789L2211.52 584.556L2162.5 584.556L2162.5 292.871Z"/>
</g>
<g fill="#cac34e" filter="url(#Filter_3)" stroke="none" vectornator:blur="64.5349" vectornator:shadowAngle="2.08554" vectornator:shadowColor="#000000" vectornator:shadowOffset="10.5137" vectornator:shadowOpacity="0.333" vectornator:shadowRadius="6.30822">
<path d="M777.634 185.74L957.656 185.74C993.243 185.74 1021.93 195.771 1043.72 215.834C1065.51 235.897 1076.4 264.085 1076.4 300.398C1076.4 331.628 1066.69 358.817 1047.26 381.967C1027.83 405.116 997.963 416.691 957.656 416.691L831.831 416.691L831.831 585.819L777.634 585.819L777.634 185.74ZM1021.66 300.671C1021.66 271.257 1010.76 251.285 988.976 240.754C976.993 235.126 960.561 232.311 939.681 232.311L831.831 232.311L831.831 370.937L939.681 370.937C964.011 370.937 983.756 365.762 998.917 355.413C1014.08 345.063 1021.66 326.816 1021.66 300.671Z"/>
<path d="M1253.7 554.227C1286.2 554.227 1308.49 541.926 1320.56 517.324C1332.63 492.722 1338.67 465.351 1338.67 435.211C1338.67 407.976 1334.31 385.825 1325.6 368.758C1311.8 341.886 1288.01 328.45 1254.24 328.45C1224.28 328.45 1202.5 339.889 1188.88 362.766C1175.26 385.643 1168.45 413.241 1168.45 445.56C1168.45 476.608 1175.26 502.481 1188.88 523.179C1202.5 543.878 1224.1 554.227 1253.7 554.227ZM1255.6 285.692C1293.19 285.692 1324.96 298.22 1350.93 323.276C1376.89 348.332 1389.87 385.189 1389.87 433.849C1389.87 480.874 1378.43 519.729 1355.56 550.414C1332.68 581.098 1297.18 596.441 1249.07 596.441C1208.94 596.441 1177.08 582.869 1153.47 555.725C1129.87 528.581 1118.07 492.131 1118.07 446.377C1118.07 397.354 1130.51 358.318 1155.38 329.267C1180.26 300.217 1213.66 285.692 1255.6 285.692Z"/>
<path d="M1470.76 294.134L1526.86 523.996L1583.78 294.134L1638.8 294.134L1695.99 522.634L1755.64 294.134L1804.66 294.134L1719.96 585.819L1669.03 585.819L1609.66 360.043L1552.19 585.819L1501.26 585.819L1417.11 294.134L1470.76 294.134Z"/>
<path d="M1972.42 287.598C1993.12 287.598 2013.19 292.455 2032.61 302.169C2052.04 311.882 2066.84 324.456 2077.01 339.889C2086.81 354.596 2093.35 371.754 2096.62 391.363C2099.52 404.798 2100.97 426.223 2100.97 455.637L1887.18 455.637C1888.09 485.232 1895.08 508.972 1908.15 526.856C1921.22 544.74 1941.47 553.682 1968.88 553.682C1994.48 553.682 2014.91 545.239 2030.16 528.354C2038.88 518.549 2045.05 507.201 2048.68 494.31L2096.89 494.31C2095.62 505.023 2091.4 516.96 2084.22 530.124C2077.05 543.287 2069.02 554.045 2060.12 562.397C2045.23 576.922 2026.8 586.727 2004.83 591.811C1993.03 594.716 1979.69 596.168 1964.8 596.168C1928.49 596.168 1897.71 582.96 1872.47 556.542C1847.24 530.124 1834.62 493.13 1834.62 445.56C1834.62 398.716 1847.33 360.678 1872.75 331.446C1898.16 302.214 1931.39 287.598 1972.42 287.598ZM2050.59 416.691C2048.59 395.448 2043.96 378.472 2036.7 365.762C2023.26 342.158 2000.84 330.357 1969.43 330.357C1946.91 330.357 1928.03 338.482 1912.78 354.732C1897.53 370.982 1889.45 391.635 1888.54 416.691L2050.59 416.691Z"/>
<path d="M2162.52 294.134L2209.1 294.134L2209.1 344.519C2212.91 334.714 2222.26 322.776 2237.15 308.705C2252.04 294.634 2269.19 287.598 2288.62 287.598C2289.53 287.598 2291.07 287.689 2293.25 287.87C2295.43 288.052 2299.15 288.415 2304.42 288.96L2304.42 340.706C2301.51 340.161 2298.83 339.798 2296.38 339.617C2293.93 339.435 2291.25 339.344 2288.35 339.344C2263.66 339.344 2244.68 347.288 2231.43 363.175C2218.17 379.062 2211.55 397.354 2211.55 418.053L2211.55 585.819L2162.52 585.819L2162.52 294.134Z"/>
</g>
<path d="M587.483 146.914L387.67 445.332L531.68 412.746L465.075 642.562L673.889 335.569L504.678 363.01L587.483 146.914Z" fill="#fdee05" fill-rule="nonzero" filter="url(#Filter_4)" stroke="#e2d83c" stroke-linecap="butt" stroke-linejoin="round" stroke-width="27.932" vectornator:blur="19.9612" vectornator:shadowAngle="2.08554" vectornator:shadowColor="#000000" vectornator:shadowOffset="10.5137" vectornator:shadowOpacity="0.333" vectornator:shadowRadius="6.30822"/>
<path d="M2569.55 110.568L2369.74 408.986L2513.75 376.4L2447.14 606.216L2655.96 299.223L2486.75 326.663L2569.55 110.568Z" fill="#fdee05" fill-rule="nonzero" filter="url(#Filter_5)" stroke="#e2d83c" stroke-linecap="butt" stroke-linejoin="round" stroke-width="27.932" vectornator:blur="16.2791" vectornator:shadowAngle="2.08554" vectornator:shadowColor="#000000" vectornator:shadowOffset="10.5137" vectornator:shadowOpacity="0.333" vectornator:shadowRadius="6.30822"/>
</g>
</svg>
