<?xml version="1.0" encoding="UTF-8" standalone="no"?>
<!DOCTYPE svg PUBLIC "-//W3C//DTD SVG 1.1//EN" "http://www.w3.org/Graphics/SVG/1.1/DTD/svg11.dtd">
<!-- Created with Vectornator (http://vectornator.io/) -->
<svg height="100%" stroke-miterlimit="10" style="fill-rule:nonzero;clip-rule:evenodd;stroke-linecap:round;stroke-linejoin:round;" version="1.1" viewBox="0 0 538.65 283.5" width="100%" xml:space="preserve" xmlns="http://www.w3.org/2000/svg" xmlns:vectornator="http://vectornator.io" xmlns:xlink="http://www.w3.org/1999/xlink">
<defs>
<filter color-interpolation-filters="sRGB" filterUnits="userSpaceOnUse" height="176.165" id="Filter" width="144.303" x="33.8941" y="62.4562">
<feDropShadow dx="-13.7638" dy="8.47611" flood-color="#000000" flood-opacity="0.333" in="SourceGraphic" result="Shadow" stdDeviation="3.20205"/>
</filter>
<filter color-interpolation-filters="sRGB" filterUnits="userSpaceOnUse" height="169.838" id="Filter_2" width="84.1729" x="161.992" y="66.4093">
<feDropShadow dx="-13.7638" dy="8.47611" flood-color="#000000" flood-opacity="0.333" in="SourceGraphic" result="Shadow" stdDeviation="3.20205"/>
</filter>
<filter color-interpolation-filters="sRGB" filterUnits="userSpaceOnUse" height="31.626" id="Filter_3" width="111.582" x="135.149" y="96.3897">
<feDropShadow dx="-13.7638" dy="8.47611" flood-color="#000000" flood-opacity="0.333" in="SourceGraphic" result="Shadow" stdDeviation="3.20205"/>
</filter>
<filter color-interpolation-filters="sRGB" filterUnits="userSpaceOnUse" height="134.147" id="Filter_4" width="129.763" x="239.717" y="98.4923">
<feDropShadow dx="-13.7638" dy="8.47611" flood-color="#000000" flood-opacity="0.333" in="SourceGraphic" result="Shadow" stdDeviation="3.20205"/>
</filter>
<filter color-interpolation-filters="sRGB" filterUnits="userSpaceOnUse" height="123.039" id="Filter_5" width="72.0741" x="345.488" y="99.7837">
<feDropShadow dx="-13.7638" dy="8.47611" flood-color="#000000" flood-opacity="0.333" in="SourceGraphic" result="Shadow" stdDeviation="3.20205"/>
</filter>
<filter color-interpolation-filters="sRGB" filterUnits="userSpaceOnUse" height="167.088" id="Filter_6" width="86.5304" x="403.437" y="63.5809">
<feDropShadow dx="-13.7638" dy="8.47611" flood-color="#000000" flood-opacity="0.333" in="SourceGraphic" result="Shadow" stdDeviation="3.20205"/>
</filter>
<filter color-interpolation-filters="sRGB" filterUnits="userSpaceOnUse" height="31.0236" id="Filter_7" width="88.3895" x="381.214" y="95.2583">
<feDropShadow dx="-13.7638" dy="8.47611" flood-color="#000000" flood-opacity="0.333" in="SourceGraphic" result="Shadow" stdDeviation="3.20205"/>
</filter>
<filter color-interpolation-filters="sRGB" filterUnits="userSpaceOnUse" height="224.614" id="Filter_8" width="192.753" x="9.66925" y="38.2314">
<feComponentTransfer in="SourceGraphic" result="Alpha">
<feFuncA slope="0.72093" type="linear"/>
</feComponentTransfer>
<feDropShadow dx="-13.7638" dy="8.47611" flood-color="#000000" flood-opacity="0.333" in="Alpha" result="Shadow" stdDeviation="3.20205"/>
<feGaussianBlur in="Shadow" result="Blur" stdDeviation="9.68992"/>
</filter>
<filter color-interpolation-filters="sRGB" filterUnits="userSpaceOnUse" height="218.288" id="Filter_9" width="132.622" x="137.767" y="42.1845">
<feComponentTransfer in="SourceGraphic" result="Alpha">
<feFuncA slope="0.72093" type="linear"/>
</feComponentTransfer>
<feDropShadow dx="-13.7638" dy="8.47611" flood-color="#000000" flood-opacity="0.333" in="Alpha" result="Shadow" stdDeviation="3.20205"/>
<feGaussianBlur in="Shadow" result="Blur" stdDeviation="9.68992"/>
</filter>
<filter color-interpolation-filters="sRGB" filterUnits="userSpaceOnUse" height="80.0756" id="Filter_10" width="160.031" x="110.924" y="72.1649">
<feComponentTransfer in="SourceGraphic" result="Alpha">
<feFuncA slope="0.72093" type="linear"/>
</feComponentTransfer>
<feDropShadow dx="-13.7638" dy="8.47611" flood-color="#000000" flood-opacity="0.333" in="Alpha" result="Shadow" stdDeviation="3.20205"/>
<feGaussianBlur in="Shadow" result="Blur" stdDeviation="9.68992"/>
</filter>
<filter color-interpolation-filters="sRGB" filterUnits="userSpaceOnUse" height="182.596" id="Filter_11" width="178.213" x="215.493" y="74.2675">
<feComponentTransfer in="SourceGraphic" result="Alpha">
<feFuncA slope="0.72093" type="linear"/>
</feComponentTransfer>
<feDropShadow dx="-13.7638" dy="8.47611" flood-color="#000000" flood-opacity="0.333" in="Alpha" result="Shadow" stdDeviation="3.20205"/>
<feGaussianBlur in="Shadow" result="Blur" stdDeviation="9.68992"/>
</filter>
<filter color-interpolation-filters="sRGB" filterUnits="userSpaceOnUse" height="171.488" id="Filter_12" width="120.524" x="321.263" y="75.5589">
<feComponentTransfer in="SourceGraphic" result="Alpha">
<feFuncA slope="0.72093" type="linear"/>
</feComponentTransfer>
<feDropShadow dx="-13.7638" dy="8.47611" flood-color="#000000" flood-opacity="0.333" in="Alpha" result="Shadow" stdDeviation="3.20205"/>
<feGaussianBlur in="Shadow" result="Blur" stdDeviation="9.68992"/>
</filter>
<filter color-interpolation-filters="sRGB" filterUnits="userSpaceOnUse" height="215.538" id="Filter_13" width="134.98" x="379.212" y="39.3561">
<feComponentTransfer in="SourceGraphic" result="Alpha">
<feFuncA slope="0.72093" type="linear"/>
</feComponentTransfer>
<feDropShadow dx="-13.7638" dy="8.47611" flood-color="#000000" flood-opacity="0.333" in="Alpha" result="Shadow" stdDeviation="3.20205"/>
<feGaussianBlur in="Shadow" result="Blur" stdDeviation="9.68992"/>
</filter>
<filter color-interpolation-filters="sRGB" filterUnits="userSpaceOnUse" height="79.4732" id="Filter_14" width="136.839" x="356.989" y="71.0335">
<feComponentTransfer in="SourceGraphic" result="Alpha">
<feFuncA slope="0.72093" type="linear"/>
</feComponentTransfer>
<feDropShadow dx="-13.7638" dy="8.47611" flood-color="#000000" flood-opacity="0.333" in="Alpha" result="Shadow" stdDeviation="3.20205"/>
<feGaussianBlur in="Shadow" result="Blur" stdDeviation="9.68992"/>
</filter>
</defs>
<g id="Ebene-1" vectornator:layerName="Ebene 1">
<path d="M136.279 22.6689L409.051 22.6689C476.286 22.6689 530.791 77.1739 530.791 144.409L530.791 144.409C530.791 211.644 476.286 266.149 409.051 266.149L136.279 266.149C69.0439 266.149 14.5389 211.644 14.5389 144.409L14.5389 144.409C14.5389 77.1739 69.0439 22.6689 136.279 22.6689Z" fill="#494847" fill-rule="nonzero" opacity="1" stroke="#000000" stroke-linecap="butt" stroke-linejoin="round" stroke-width="10"/>
<g filter="url(#Filter)" vectornator:shadowAngle="2.58962" vectornator:shadowColor="#000000" vectornator:shadowOffset="16.1644" vectornator:shadowOpacity="0.333" vectornator:shadowRadius="6.40411">
<path d="M123.219 62.75C111.956 63.0452 100.513 65.4107 90.5 70.1875C79.8615 75.2627 70.5772 83.6757 67.2188 95.2812C66.4468 97.9487 66.0172 100.696 65.875 103.469C65.6675 107.515 66.0983 111.586 67 115.531C67.5931 118.126 68.4111 120.654 69.6875 123C76.2714 135.101 91.0394 137.268 103.5 137.75C105.639 137.833 107.797 137.869 109.938 137.875C112.652 137.882 115.348 137.828 118.062 137.781C121.297 137.726 124.547 137.68 127.781 137.656C131.875 137.626 135.977 137.662 140.062 137.938C148.857 138.531 160.162 140.085 164.938 148.594C166.063 150.598 166.715 152.786 167.156 155.031C167.691 157.755 167.749 160.579 167.625 163.344C167.474 166.719 166.988 170.092 166.344 173.406C165.52 177.643 164.398 181.743 162.406 185.594C154.039 201.768 135.017 209.98 117.625 211.344C99.8845 212.735 79.1182 207.179 70.0938 190.469C68.1168 186.808 66.9327 182.891 66.1875 178.812C65.6578 175.928 62.8842 174.001 60 174.531C57.1158 175.061 55.2203 177.835 55.75 180.719C56.7041 185.891 58.2718 190.86 60.7812 195.5C71.0212 214.435 92.8696 222.449 113.438 222.125C135.612 221.776 159.678 211.94 170.938 191.875C174.243 185.984 175.965 179.53 177.062 172.906C177.946 167.576 178.416 162.143 177.906 156.75C177.572 153.219 176.81 149.716 175.438 146.438C174.606 144.452 173.528 142.546 172.25 140.812C164.298 130.028 149.971 127.945 137.5 127.469C135.324 127.386 133.146 127.349 130.969 127.344C128.233 127.338 125.516 127.386 122.781 127.438C119.55 127.498 116.294 127.556 113.062 127.594C110.495 127.624 107.942 127.628 105.375 127.562C103.448 127.513 101.516 127.43 99.5938 127.281C91.125 126.625 80.4598 124.856 77.4688 115.562C76.6124 112.902 76.1647 110.068 76 107.281C75.8556 104.838 75.9775 102.369 76.4688 99.9688C78.4584 90.2475 86.2268 83.4035 94.8438 79.2812C106.546 73.6831 120.572 71.9543 133.406 73.1562C140.575 73.8276 147.786 75.4226 154.125 78.9375C156.554 80.2829 159.623 79.3974 160.969 76.9688C162.314 74.5401 161.429 71.5016 159 70.1562C151.438 65.9704 142.903 63.9292 134.344 63.125C130.682 62.7809 126.973 62.6516 123.219 62.75Z" fill="#dbd9d8" stroke="none"/>
</g>
<g filter="url(#Filter_2)" vectornator:shadowAngle="2.58962" vectornator:shadowColor="#000000" vectornator:shadowOffset="16.1644" vectornator:shadowOpacity="0.333" vectornator:shadowRadius="6.40411">
<path d="M199.781 66.75C197.038 66.3246 194.457 68.1939 194.031 70.9375C190.36 94.5718 186.627 118.189 184.875 142.062C183.769 157.136 183.156 172.5 185.125 187.531C185.806 192.726 186.803 197.94 188.594 202.875C189.771 206.119 191.297 209.254 193.406 212C194.759 213.761 196.382 215.34 198.219 216.594C199.38 217.386 200.623 218.063 201.938 218.562C211.22 222.092 221.181 217.127 228.719 211.875C230.175 210.86 231.609 209.79 233 208.688C234.928 207.159 236.797 205.584 238.625 203.938C240.67 202.096 242.639 200.186 244.594 198.25C246.676 196.186 246.689 192.801 244.625 190.719C242.561 188.636 239.208 188.623 237.125 190.688C235.291 192.508 233.418 194.33 231.5 196.062C229.839 197.563 228.159 199.013 226.406 200.406C225.188 201.375 223.932 202.296 222.656 203.188C221.543 203.965 220.418 204.712 219.25 205.406C214.896 207.994 208.183 211.213 203.562 207.438C202.635 206.68 201.857 205.77 201.188 204.781C200.039 203.086 199.173 201.199 198.469 199.281C197.351 196.236 196.63 193.033 196.062 189.844C195.181 184.892 194.715 179.864 194.469 174.844C193.863 162.506 194.456 150.115 195.438 137.812C197.187 115.887 200.608 94.2213 203.969 72.5C204.394 69.7564 202.525 67.1754 199.781 66.75Z" fill="#dbd9d8" stroke="none"/>
</g>
<g filter="url(#Filter_3)" vectornator:shadowAngle="2.58962" vectornator:shadowColor="#000000" vectornator:shadowOffset="16.1644" vectornator:shadowOpacity="0.333" vectornator:shadowRadius="6.40411">
<path d="M241.281 96.4062C236.837 96.5197 232.378 96.5163 227.938 96.7188C223.496 96.9212 219.058 97.2775 214.625 97.625C204.758 98.3986 194.932 99.5109 185.062 100.25C177.453 100.82 169.818 101.132 162.188 101.188C159.411 101.205 157.17 103.474 157.188 106.25C157.205 109.026 159.474 111.268 162.25 111.25C180.022 111.148 197.694 109.317 215.406 108.094C219.739 107.795 224.068 107.497 228.406 107.312C232.776 107.126 237.189 107.099 241.562 107C244.494 106.93 246.789 104.494 246.719 101.562C246.648 98.6309 244.213 96.3358 241.281 96.4062Z" fill="#dbd9d8" stroke="none"/>
</g>
<g filter="url(#Filter_4)" vectornator:shadowAngle="2.58962" vectornator:shadowColor="#000000" vectornator:shadowOffset="16.1644" vectornator:shadowOpacity="0.333" vectornator:shadowRadius="6.40411">
<path d="M303.875 98.8438C292.327 99.8175 283.191 109.272 277.188 118.781C270.82 128.867 266.674 140.373 264.188 152C262.07 161.901 261.095 172.213 262.125 182.312C263.174 192.595 266.453 203.545 274.594 210.469C276.439 212.038 278.526 213.345 280.75 214.312C282.389 215.025 284.104 215.533 285.875 215.781C294.922 217.051 302.651 211.405 308.219 204.875C314.118 197.956 318.392 189.711 321.906 181.375C322.14 180.82 322.334 180.246 322.562 179.688C322.581 179.78 322.575 179.876 322.594 179.969C324.145 187.736 326.161 195.599 329.781 202.688C331.24 205.543 333.009 208.284 335.25 210.594C336.802 212.193 338.58 213.591 340.594 214.562C341.832 215.16 343.148 215.591 344.5 215.844C354.043 217.63 362.335 210.214 368.156 203.656C370.102 201.462 369.882 198.102 367.688 196.156C365.493 194.211 362.133 194.4 360.188 196.594C359.412 197.47 358.635 198.355 357.812 199.188C357.107 199.901 356.381 200.59 355.625 201.25C353.198 203.37 349.082 206.496 345.625 205.188C344.776 204.866 344.008 204.328 343.344 203.719C342.341 202.799 341.521 201.701 340.781 200.562C339.792 199.041 338.953 197.439 338.219 195.781C336.947 192.912 335.948 189.923 335.094 186.906C332.449 177.57 331.046 167.86 330.094 158.219C330.037 157.649 330.022 157.071 329.969 156.5C331.084 151.763 332.025 146.988 332.625 142.188C333.193 137.644 333.531 133.044 333.188 128.469C332.982 125.73 332.541 122.939 331.438 120.406C330.728 118.779 329.744 117.303 328.406 116.125C328.198 115.941 327.994 115.727 327.75 115.594C327.118 115.248 326.433 114.994 325.781 114.688C325.589 114.597 325.107 114.544 324.906 114.531C325.107 114.363 325.354 114.266 325.531 114.062C327.355 111.97 327.155 108.793 325.062 106.969C322.446 104.689 319.63 102.654 316.469 101.188C314.102 100.089 311.559 99.3116 308.969 98.9688C307.224 98.7377 305.525 98.7046 303.875 98.8438ZM305.375 108.844C306.401 108.804 307.463 108.881 308.531 109.094C309.809 109.349 311.038 109.765 312.219 110.312C314.517 111.379 316.537 112.874 318.438 114.531C319.304 115.287 320.372 115.621 321.438 115.688C320.897 116.127 320.366 116.564 319.844 117.219C319.702 117.397 319.623 117.604 319.531 117.812C318.447 120.268 318.449 123.578 318.344 126.219C318.302 127.279 318.268 128.346 318.25 129.406C318.229 130.611 318.248 131.795 318.25 133C318.252 134.334 318.256 135.666 318.281 137C318.318 138.95 318.359 140.926 318.438 142.875C318.604 147.015 319.002 151.144 319.344 155.281C317.525 162.805 315.323 170.255 312.344 177.375C309.544 184.065 306.236 190.659 301.812 196.438C298.006 201.41 291.706 207.919 284.812 204.938C283.509 204.374 282.301 203.573 281.219 202.656C274.843 197.253 272.726 187.756 272.094 179.812C271.366 170.67 272.397 161.387 274.438 152.469C276.596 143.036 279.953 133.728 284.938 125.406C285.913 123.779 286.937 122.184 288.062 120.656C292.12 115.151 298.196 109.122 305.375 108.844Z" fill="#dbd9d8" stroke="none"/>
</g>
<g filter="url(#Filter_5)" vectornator:shadowAngle="2.58962" vectornator:shadowColor="#000000" vectornator:shadowOffset="16.1644" vectornator:shadowOpacity="0.333" vectornator:shadowRadius="6.40411">
<path d="M372.906 100.062C370.133 99.9268 367.761 102.071 367.625 104.844C367.332 110.901 368.241 116.779 369.656 122.656C371.319 129.561 373.591 136.399 374.281 143.5C374.376 144.477 374.404 145.456 374.469 146.438C373.868 148.839 373.338 151.237 372.906 153.594C372.293 156.937 371.829 160.276 371.469 163.656C371.061 167.483 370.798 171.34 370.688 175.188C370.476 182.533 370.631 190.065 371.969 197.312C372.483 200.1 373.219 203.729 375.875 205.312C377.143 206.068 378.538 206.373 380 206.062C385.033 204.993 385.387 198.303 385.688 194.219C385.745 193.432 385.773 192.632 385.812 191.844C385.873 190.63 385.939 189.433 385.969 188.219C386.004 186.807 386.024 185.381 386.031 183.969C386.041 181.908 386.001 179.842 385.969 177.781C385.931 175.374 385.89 172.969 385.812 170.562C385.582 163.372 385.189 156.181 384.75 149C387.899 136.528 393.915 122.434 406.312 116.875C408.514 115.888 410.817 115.268 413.188 114.844C416.074 114.324 417.989 111.574 417.469 108.688C416.949 105.801 414.198 103.886 411.312 104.406C408.092 104.99 404.958 105.874 401.969 107.219C392.63 111.42 386.066 119.007 381.406 127.844C379.473 120.441 377.304 113.081 377.688 105.344C377.823 102.571 375.679 100.198 372.906 100.062Z" fill="#dbd9d8" stroke="none"/>
</g>
<g filter="url(#Filter_6)" vectornator:shadowAngle="2.58962" vectornator:shadowColor="#000000" vectornator:shadowOffset="16.1644" vectornator:shadowOpacity="0.333" vectornator:shadowRadius="6.40411">
<path d="M441.25 63.875C439.298 64.0424 437.519 65.3637 436.875 67.3438C434.294 75.27 432.515 83.4352 431 91.625C429.237 101.155 427.894 110.762 426.938 120.406C425.842 131.454 425.276 142.523 425.406 153.625C425.514 162.811 426.193 172.076 428 181.094C429.127 186.715 430.72 192.324 433.219 197.5C434.721 200.611 436.582 203.558 438.906 206.125C440.597 207.992 442.523 209.646 444.688 210.938C457.018 218.293 471.497 211.767 482.188 204.531C484.137 203.211 486.039 201.809 487.906 200.375C490.231 198.588 490.662 195.262 488.875 192.938C487.088 190.613 483.731 190.181 481.406 191.969C479.709 193.276 478.023 194.546 476.25 195.75C474.998 196.6 473.708 197.415 472.406 198.188C466.316 201.799 457.431 205.889 450.5 202.094C449.382 201.482 448.348 200.703 447.438 199.812C446.065 198.471 444.916 196.897 443.938 195.25C442.188 192.306 440.96 189.082 439.969 185.812C438.551 181.135 437.64 176.31 437 171.469C435.767 162.141 435.511 152.679 435.719 143.281C435.947 132.943 436.769 122.637 438.031 112.375C439.007 104.443 440.225 96.5207 441.812 88.6875C443.059 82.536 444.496 76.4096 446.438 70.4375C447.297 67.7974 445.859 64.9841 443.219 64.125C442.559 63.9102 441.901 63.8192 441.25 63.875Z" fill="#dbd9d8" stroke="none"/>
</g>
<g filter="url(#Filter_7)" vectornator:shadowAngle="2.58962" vectornator:shadowColor="#000000" vectornator:shadowOffset="16.1644" vectornator:shadowOpacity="0.333" vectornator:shadowRadius="6.40411">
<path d="M407.844 95.5625C405.893 95.7377 404.136 97.0486 403.5 99.0312C402.651 101.675 404.106 104.495 406.75 105.344C414.765 107.922 423.319 108.851 431.688 109.375C442.834 110.073 454.612 110.025 465.531 107.438C468.383 106.755 470.152 103.883 469.469 101.031C468.786 98.1794 465.914 96.411 463.062 97.0938C454.778 99.0996 445.833 99.365 437.344 99.25C432.375 99.1826 427.403 98.945 422.469 98.3438C418.192 97.8226 413.955 97.0977 409.844 95.7812C409.183 95.5691 408.494 95.5041 407.844 95.5625Z" fill="#dbd9d8" stroke="none"/>
</g>
<g filter="url(#Filter_8)" vectornator:blur="19.3798" vectornator:shadowAngle="2.58962" vectornator:shadowColor="#000000" vectornator:shadowOffset="16.1644" vectornator:shadowOpacity="0.333" vectornator:shadowRadius="6.40411">
<path d="M123.219 62.75C111.956 63.0452 100.513 65.4107 90.5 70.1875C79.8615 75.2627 70.5772 83.6757 67.2188 95.2812C66.4468 97.9487 66.0172 100.696 65.875 103.469C65.6675 107.515 66.0983 111.586 67 115.531C67.5931 118.126 68.4111 120.654 69.6875 123C76.2714 135.101 91.0394 137.268 103.5 137.75C105.639 137.833 107.797 137.869 109.938 137.875C112.652 137.882 115.348 137.828 118.062 137.781C121.297 137.726 124.547 137.68 127.781 137.656C131.875 137.626 135.977 137.662 140.062 137.938C148.857 138.531 160.162 140.085 164.938 148.594C166.063 150.598 166.715 152.786 167.156 155.031C167.691 157.755 167.749 160.579 167.625 163.344C167.474 166.719 166.988 170.092 166.344 173.406C165.52 177.643 164.398 181.743 162.406 185.594C154.039 201.768 135.017 209.98 117.625 211.344C99.8845 212.735 79.1182 207.179 70.0938 190.469C68.1168 186.808 66.9327 182.891 66.1875 178.812C65.6578 175.928 62.8842 174.001 60 174.531C57.1158 175.061 55.2203 177.835 55.75 180.719C56.7041 185.891 58.2718 190.86 60.7812 195.5C71.0212 214.435 92.8696 222.449 113.438 222.125C135.612 221.776 159.678 211.94 170.938 191.875C174.243 185.984 175.965 179.53 177.062 172.906C177.946 167.576 178.416 162.143 177.906 156.75C177.572 153.219 176.81 149.716 175.438 146.438C174.606 144.452 173.528 142.546 172.25 140.812C164.298 130.028 149.971 127.945 137.5 127.469C135.324 127.386 133.146 127.349 130.969 127.344C128.233 127.338 125.516 127.386 122.781 127.438C119.55 127.498 116.294 127.556 113.062 127.594C110.495 127.624 107.942 127.628 105.375 127.562C103.448 127.513 101.516 127.43 99.5938 127.281C91.125 126.625 80.4598 124.856 77.4688 115.562C76.6124 112.902 76.1647 110.068 76 107.281C75.8556 104.838 75.9775 102.369 76.4688 99.9688C78.4584 90.2475 86.2268 83.4035 94.8438 79.2812C106.546 73.6831 120.572 71.9543 133.406 73.1562C140.575 73.8276 147.786 75.4226 154.125 78.9375C156.554 80.2829 159.623 79.3974 160.969 76.9688C162.314 74.5401 161.429 71.5016 159 70.1562C151.438 65.9704 142.903 63.9292 134.344 63.125C130.682 62.7809 126.973 62.6516 123.219 62.75Z" fill="#fefefe" stroke="none"/>
</g>
<g filter="url(#Filter_9)" vectornator:blur="19.3798" vectornator:shadowAngle="2.58962" vectornator:shadowColor="#000000" vectornator:shadowOffset="16.1644" vectornator:shadowOpacity="0.333" vectornator:shadowRadius="6.40411">
<path d="M199.781 66.75C197.038 66.3246 194.457 68.1939 194.031 70.9375C190.36 94.5718 186.627 118.189 184.875 142.062C183.769 157.136 183.156 172.5 185.125 187.531C185.806 192.726 186.803 197.94 188.594 202.875C189.771 206.119 191.297 209.254 193.406 212C194.759 213.761 196.382 215.34 198.219 216.594C199.38 217.386 200.623 218.063 201.938 218.562C211.22 222.092 221.181 217.127 228.719 211.875C230.175 210.86 231.609 209.79 233 208.688C234.928 207.159 236.797 205.584 238.625 203.938C240.67 202.096 242.639 200.186 244.594 198.25C246.676 196.186 246.689 192.801 244.625 190.719C242.561 188.636 239.208 188.623 237.125 190.688C235.291 192.508 233.418 194.33 231.5 196.062C229.839 197.563 228.159 199.013 226.406 200.406C225.188 201.375 223.932 202.296 222.656 203.188C221.543 203.965 220.418 204.712 219.25 205.406C214.896 207.994 208.183 211.213 203.562 207.438C202.635 206.68 201.857 205.77 201.188 204.781C200.039 203.086 199.173 201.199 198.469 199.281C197.351 196.236 196.63 193.033 196.062 189.844C195.181 184.892 194.715 179.864 194.469 174.844C193.863 162.506 194.456 150.115 195.438 137.812C197.187 115.887 200.608 94.2213 203.969 72.5C204.394 69.7564 202.525 67.1754 199.781 66.75Z" fill="#fefefe" stroke="none"/>
</g>
<g filter="url(#Filter_10)" vectornator:blur="19.3798" vectornator:shadowAngle="2.58962" vectornator:shadowColor="#000000" vectornator:shadowOffset="16.1644" vectornator:shadowOpacity="0.333" vectornator:shadowRadius="6.40411">
<path d="M241.281 96.4062C236.837 96.5197 232.378 96.5163 227.938 96.7188C223.496 96.9212 219.058 97.2775 214.625 97.625C204.758 98.3986 194.932 99.5109 185.062 100.25C177.453 100.82 169.818 101.132 162.188 101.188C159.411 101.205 157.17 103.474 157.188 106.25C157.205 109.026 159.474 111.268 162.25 111.25C180.022 111.148 197.694 109.317 215.406 108.094C219.739 107.795 224.068 107.497 228.406 107.312C232.776 107.126 237.189 107.099 241.562 107C244.494 106.93 246.789 104.494 246.719 101.562C246.648 98.6309 244.213 96.3358 241.281 96.4062Z" fill="#fefefe" stroke="none"/>
</g>
<g filter="url(#Filter_11)" vectornator:blur="19.3798" vectornator:shadowAngle="2.58962" vectornator:shadowColor="#000000" vectornator:shadowOffset="16.1644" vectornator:shadowOpacity="0.333" vectornator:shadowRadius="6.40411">
<path d="M303.875 98.8438C292.327 99.8175 283.191 109.272 277.188 118.781C270.82 128.867 266.674 140.373 264.188 152C262.07 161.901 261.095 172.213 262.125 182.312C263.174 192.595 266.453 203.545 274.594 210.469C276.439 212.038 278.526 213.345 280.75 214.312C282.389 215.025 284.104 215.533 285.875 215.781C294.922 217.051 302.651 211.405 308.219 204.875C314.118 197.956 318.392 189.711 321.906 181.375C322.14 180.82 322.334 180.246 322.562 179.688C322.581 179.78 322.575 179.876 322.594 179.969C324.145 187.736 326.161 195.599 329.781 202.688C331.24 205.543 333.009 208.284 335.25 210.594C336.802 212.193 338.58 213.591 340.594 214.562C341.832 215.16 343.148 215.591 344.5 215.844C354.043 217.63 362.335 210.214 368.156 203.656C370.102 201.462 369.882 198.102 367.688 196.156C365.493 194.211 362.133 194.4 360.188 196.594C359.412 197.47 358.635 198.355 357.812 199.188C357.107 199.901 356.381 200.59 355.625 201.25C353.198 203.37 349.082 206.496 345.625 205.188C344.776 204.866 344.008 204.328 343.344 203.719C342.341 202.799 341.521 201.701 340.781 200.562C339.792 199.041 338.953 197.439 338.219 195.781C336.947 192.912 335.948 189.923 335.094 186.906C332.449 177.57 331.046 167.86 330.094 158.219C330.037 157.649 330.022 157.071 329.969 156.5C331.084 151.763 332.025 146.988 332.625 142.188C333.193 137.644 333.531 133.044 333.188 128.469C332.982 125.73 332.541 122.939 331.438 120.406C330.728 118.779 329.744 117.303 328.406 116.125C328.198 115.941 327.994 115.727 327.75 115.594C327.118 115.248 326.433 114.994 325.781 114.688C325.589 114.597 325.107 114.544 324.906 114.531C325.107 114.363 325.354 114.266 325.531 114.062C327.355 111.97 327.155 108.793 325.062 106.969C322.446 104.689 319.63 102.654 316.469 101.188C314.102 100.089 311.559 99.3116 308.969 98.9688C307.224 98.7377 305.525 98.7046 303.875 98.8438ZM305.375 108.844C306.401 108.804 307.463 108.881 308.531 109.094C309.809 109.349 311.038 109.765 312.219 110.312C314.517 111.379 316.537 112.874 318.438 114.531C319.304 115.287 320.372 115.621 321.438 115.688C320.897 116.127 320.366 116.564 319.844 117.219C319.702 117.397 319.623 117.604 319.531 117.812C318.447 120.268 318.449 123.578 318.344 126.219C318.302 127.279 318.268 128.346 318.25 129.406C318.229 130.611 318.248 131.795 318.25 133C318.252 134.334 318.256 135.666 318.281 137C318.318 138.95 318.359 140.926 318.438 142.875C318.604 147.015 319.002 151.144 319.344 155.281C317.525 162.805 315.323 170.255 312.344 177.375C309.544 184.065 306.236 190.659 301.812 196.438C298.006 201.41 291.706 207.919 284.812 204.938C283.509 204.374 282.301 203.573 281.219 202.656C274.843 197.253 272.726 187.756 272.094 179.812C271.366 170.67 272.397 161.387 274.438 152.469C276.596 143.036 279.953 133.728 284.938 125.406C285.913 123.779 286.937 122.184 288.062 120.656C292.12 115.151 298.196 109.122 305.375 108.844Z" fill="#fefefe" stroke="none"/>
</g>
<g filter="url(#Filter_12)" vectornator:blur="19.3798" vectornator:shadowAngle="2.58962" vectornator:shadowColor="#000000" vectornator:shadowOffset="16.1644" vectornator:shadowOpacity="0.333" vectornator:shadowRadius="6.40411">
<path d="M372.906 100.062C370.133 99.9268 367.761 102.071 367.625 104.844C367.332 110.901 368.241 116.779 369.656 122.656C371.319 129.561 373.591 136.399 374.281 143.5C374.376 144.477 374.404 145.456 374.469 146.438C373.868 148.839 373.338 151.237 372.906 153.594C372.293 156.937 371.829 160.276 371.469 163.656C371.061 167.483 370.798 171.34 370.688 175.188C370.476 182.533 370.631 190.065 371.969 197.312C372.483 200.1 373.219 203.729 375.875 205.312C377.143 206.068 378.538 206.373 380 206.062C385.033 204.993 385.387 198.303 385.688 194.219C385.745 193.432 385.773 192.632 385.812 191.844C385.873 190.63 385.939 189.433 385.969 188.219C386.004 186.807 386.024 185.381 386.031 183.969C386.041 181.908 386.001 179.842 385.969 177.781C385.931 175.374 385.89 172.969 385.812 170.562C385.582 163.372 385.189 156.181 384.75 149C387.899 136.528 393.915 122.434 406.312 116.875C408.514 115.888 410.817 115.268 413.188 114.844C416.074 114.324 417.989 111.574 417.469 108.688C416.949 105.801 414.198 103.886 411.312 104.406C408.092 104.99 404.958 105.874 401.969 107.219C392.63 111.42 386.066 119.007 381.406 127.844C379.473 120.441 377.304 113.081 377.688 105.344C377.823 102.571 375.679 100.198 372.906 100.062Z" fill="#fefefe" stroke="none"/>
</g>
<g filter="url(#Filter_13)" vectornator:blur="19.3798" vectornator:shadowAngle="2.58962" vectornator:shadowColor="#000000" vectornator:shadowOffset="16.1644" vectornator:shadowOpacity="0.333" vectornator:shadowRadius="6.40411">
<path d="M441.25 63.875C439.298 64.0424 437.519 65.3637 436.875 67.3438C434.294 75.27 432.515 83.4352 431 91.625C429.237 101.155 427.894 110.762 426.938 120.406C425.842 131.454 425.276 142.523 425.406 153.625C425.514 162.811 426.193 172.076 428 181.094C429.127 186.715 430.72 192.324 433.219 197.5C434.721 200.611 436.582 203.558 438.906 206.125C440.597 207.992 442.523 209.646 444.688 210.938C457.018 218.293 471.497 211.767 482.188 204.531C484.137 203.211 486.039 201.809 487.906 200.375C490.231 198.588 490.662 195.262 488.875 192.938C487.088 190.613 483.731 190.181 481.406 191.969C479.709 193.276 478.023 194.546 476.25 195.75C474.998 196.6 473.708 197.415 472.406 198.188C466.316 201.799 457.431 205.889 450.5 202.094C449.382 201.482 448.348 200.703 447.438 199.812C446.065 198.471 444.916 196.897 443.938 195.25C442.188 192.306 440.96 189.082 439.969 185.812C438.551 181.135 437.64 176.31 437 171.469C435.767 162.141 435.511 152.679 435.719 143.281C435.947 132.943 436.769 122.637 438.031 112.375C439.007 104.443 440.225 96.5207 441.812 88.6875C443.059 82.536 444.496 76.4096 446.438 70.4375C447.297 67.7974 445.859 64.9841 443.219 64.125C442.559 63.9102 441.901 63.8192 441.25 63.875Z" fill="#fefefe" stroke="none"/>
</g>
<g filter="url(#Filter_14)" vectornator:blur="19.3798" vectornator:shadowAngle="2.58962" vectornator:shadowColor="#000000" vectornator:shadowOffset="16.1644" vectornator:shadowOpacity="0.333" vectornator:shadowRadius="6.40411">
<path d="M407.844 95.5625C405.893 95.7377 404.136 97.0486 403.5 99.0312C402.651 101.675 404.106 104.495 406.75 105.344C414.765 107.922 423.319 108.851 431.688 109.375C442.834 110.073 454.612 110.025 465.531 107.438C468.383 106.755 470.152 103.883 469.469 101.031C468.786 98.1794 465.914 96.411 463.062 97.0938C454.778 99.0996 445.833 99.365 437.344 99.25C432.375 99.1826 427.403 98.945 422.469 98.3438C418.192 97.8226 413.955 97.0977 409.844 95.7812C409.183 95.5691 408.494 95.5041 407.844 95.5625Z" fill="#fefefe" stroke="none"/>
</g>
</g>
</svg>
