<?xml version="1.0" encoding="UTF-8" standalone="no"?>
<!-- Created with Vectornator (http://vectornator.io/) -->

<svg
   height="1597.24"
   stroke-miterlimit="10"
   style="clip-rule:evenodd;fill-rule:nonzero;stroke-linecap:round;stroke-linejoin:round"
   version="1.1"
   viewBox="0 0 1177 1597.24"
   width="1177"
   xml:space="preserve"
   id="svg308"
   sodipodi:docname="Türschloss.svg"
   inkscape:version="1.2.2 (732a01da63, 2022-12-09)"
   xmlns:inkscape="http://www.inkscape.org/namespaces/inkscape"
   xmlns:sodipodi="http://sodipodi.sourceforge.net/DTD/sodipodi-0.dtd"
   xmlns="http://www.w3.org/2000/svg"
   xmlns:svg="http://www.w3.org/2000/svg"
   xmlns:vectornator="http://vectornator.io"><sodipodi:namedview
   id="namedview310"
   pagecolor="#ffffff"
   bordercolor="#000000"
   borderopacity="0.25"
   inkscape:showpageshadow="2"
   inkscape:pageopacity="0.0"
   inkscape:pagecheckerboard="false"
   inkscape:deskcolor="#d1d1d1"
   showgrid="false"
   inkscape:zoom="0.49646712"
   inkscape:cx="1196.4539"
   inkscape:cy="884.24788"
   inkscape:window-width="1920"
   inkscape:window-height="1017"
   inkscape:window-x="-8"
   inkscape:window-y="-8"
   inkscape:window-maximized="1"
   inkscape:current-layer="svg308" />
<defs
   id="defs196" />
<clipPath
   id="ArtboardFrame">
<rect
   height="2384.24"
   width="3370.8201"
   x="0"
   y="0"
   id="rect198" />
</clipPath>
<g
   clip-path="url(#ArtboardFrame)"
   id="Ebene-1"
   vectornator:layerName="Ebene 1"
   transform="translate(-808.98945,-679.0825)">
<path
   d="m 971.623,683.479 h 853.117 c 86.57,0 156.75,70.182 156.75,156.756 V 2113.88 c 0,86.57 -70.18,156.75 -156.75,156.75 H 971.623 c -86.574,0 -156.757,-70.18 -156.757,-156.75 V 840.235 c 0,-86.574 70.183,-156.756 156.757,-156.756 z"
   fill="#50493e"
   fill-rule="nonzero"
   opacity="1"
   stroke="#beb9b1"
   stroke-linecap="butt"
   stroke-linejoin="round"
   stroke-opacity="0.189846"
   stroke-width="10"
   id="path201" />
<path
   d="m 984.434,840.612 c 0,-49.323 42.006,-89.306 93.826,-89.306 51.82,0 93.83,39.983 93.83,89.306 0,49.322 -42.01,89.305 -93.83,89.305 -51.82,0 -93.826,-39.983 -93.826,-89.305 z"
   fill="#000000"
   fill-rule="nonzero"
   opacity="1"
   stroke="#beb9b1"
   stroke-linecap="butt"
   stroke-linejoin="round"
   stroke-opacity="0.189846"
   stroke-width="10"
   id="path203" />
<path
   d="m 1021.37,841.296 c 0,-32.695 26.27,-59.201 58.67,-59.201 32.41,0 58.68,26.506 58.68,59.201 0,32.696 -26.27,59.201 -58.68,59.201 -32.4,0 -58.67,-26.505 -58.67,-59.201 z"
   fill="#ff0202"
   fill-rule="nonzero"
   opacity="1"
   stroke="#beb9b1"
   stroke-linecap="butt"
   stroke-linejoin="round"
   stroke-opacity="0.189846"
   stroke-width="10"
   id="path205" />
<path
   d="m -430.892,-94.2728 c 0,-6.2432 4.049,-11.3042 9.043,-11.3042 4.995,0 9.044,5.061 9.044,11.3042 0,6.2434 -4.049,11.3046 -9.044,11.3046 -4.994,0 -9.043,-5.0612 -9.043,-11.3046 z"
   fill="#ff0202"
   fill-rule="nonzero"
   opacity="1"
   stroke="#beb9b1"
   stroke-linecap="butt"
   stroke-linejoin="round"
   stroke-opacity="0.189846"
   stroke-width="10"
   id="path207" />
<path
   d="m 972.788,1079.21 h 189.952 c 2.98,0 5.4,2.42 5.4,5.4 v 183.74 c 0,2.98 -2.42,5.4 -5.4,5.4 H 972.788 c -2.985,0 -5.405,-2.42 -5.405,-5.4 v -183.74 c 0,-2.98 2.42,-5.4 5.405,-5.4 z"
   fill="#918989"
   fill-rule="nonzero"
   opacity="1"
   stroke="#beb9b1"
   stroke-linecap="butt"
   stroke-linejoin="round"
   stroke-opacity="0.189846"
   stroke-width="10"
   id="path209" />
<path
   d="m 1311.48,1076.41 h 189.95 c 2.99,0 5.41,2.42 5.41,5.4 v 183.74 c 0,2.99 -2.42,5.41 -5.41,5.41 h -189.95 c -2.98,0 -5.4,-2.42 -5.4,-5.41 v -183.74 c 0,-2.98 2.42,-5.4 5.4,-5.4 z"
   fill="#918989"
   fill-rule="nonzero"
   opacity="1"
   stroke="#beb9b1"
   stroke-linecap="butt"
   stroke-linejoin="round"
   stroke-opacity="0.189846"
   stroke-width="10"
   id="path211" />
<path
   d="m 1624.12,1078.39 h 189.95 c 2.98,0 5.4,2.42 5.4,5.4 v 183.74 c 0,2.99 -2.42,5.41 -5.4,5.41 h -189.95 c -2.98,0 -5.4,-2.42 -5.4,-5.41 v -183.74 c 0,-2.98 2.42,-5.4 5.4,-5.4 z"
   fill="#918989"
   fill-rule="nonzero"
   opacity="1"
   stroke="#beb9b1"
   stroke-linecap="butt"
   stroke-linejoin="round"
   stroke-opacity="0.189846"
   stroke-width="10"
   id="path213" />
<path
   d="m 972.059,1369.28 h 189.951 c 2.98,0 5.4,2.42 5.4,5.4 v 183.74 c 0,2.99 -2.42,5.41 -5.4,5.41 H 972.059 c -2.985,0 -5.405,-2.42 -5.405,-5.41 v -183.74 c 0,-2.98 2.42,-5.4 5.405,-5.4 z"
   fill="#918989"
   fill-rule="nonzero"
   opacity="1"
   stroke="#beb9b1"
   stroke-linecap="butt"
   stroke-linejoin="round"
   stroke-opacity="0.189846"
   stroke-width="10"
   id="path215" />
<path
   d="m 1313.76,1374.64 h 189.95 c 2.98,0 5.4,2.42 5.4,5.41 v 183.74 c 0,2.98 -2.42,5.4 -5.4,5.4 h -189.95 c -2.99,0 -5.41,-2.42 -5.41,-5.4 v -183.74 c 0,-2.99 2.42,-5.41 5.41,-5.41 z"
   fill="#918989"
   fill-rule="nonzero"
   opacity="1"
   stroke="#beb9b1"
   stroke-linecap="butt"
   stroke-linejoin="round"
   stroke-opacity="0.189846"
   stroke-width="10"
   id="path217" />
<path
   d="m 1631.26,1372.57 h 189.95 c 2.99,0 5.41,2.42 5.41,5.41 v 183.74 c 0,2.98 -2.42,5.4 -5.41,5.4 h -189.95 c -2.98,0 -5.4,-2.42 -5.4,-5.4 v -183.74 c 0,-2.99 2.42,-5.41 5.4,-5.41 z"
   fill="#918989"
   fill-rule="nonzero"
   opacity="1"
   stroke="#beb9b1"
   stroke-linecap="butt"
   stroke-linejoin="round"
   stroke-opacity="0.189846"
   stroke-width="10"
   id="path219" />
<path
   d="m 970.602,1666.79 h 189.948 c 2.98,0 5.4,2.42 5.4,5.4 v 183.74 c 0,2.99 -2.42,5.41 -5.4,5.41 H 970.602 c -2.986,0 -5.406,-2.42 -5.406,-5.41 v -183.74 c 0,-2.98 2.42,-5.4 5.406,-5.4 z"
   fill="#918989"
   fill-rule="nonzero"
   opacity="1"
   stroke="#beb9b1"
   stroke-linecap="butt"
   stroke-linejoin="round"
   stroke-opacity="0.189846"
   stroke-width="10"
   id="path221" />
<path
   d="m 1315.3,1666.99 h 189.95 c 2.99,0 5.41,2.42 5.41,5.41 v 183.73 c 0,2.99 -2.42,5.41 -5.41,5.41 H 1315.3 c -2.98,0 -5.4,-2.42 -5.4,-5.41 V 1672.4 c 0,-2.99 2.42,-5.41 5.4,-5.41 z"
   fill="#918989"
   fill-rule="nonzero"
   opacity="1"
   stroke="#beb9b1"
   stroke-linecap="butt"
   stroke-linejoin="round"
   stroke-opacity="0.189846"
   stroke-width="10"
   id="path223" />
<path
   d="m 1635.72,1671.22 h 189.95 c 2.99,0 5.41,2.42 5.41,5.4 v 183.74 c 0,2.99 -2.42,5.41 -5.41,5.41 h -189.95 c -2.98,0 -5.4,-2.42 -5.4,-5.41 v -183.74 c 0,-2.98 2.42,-5.4 5.4,-5.4 z"
   fill="#918989"
   fill-rule="nonzero"
   opacity="1"
   stroke="#beb9b1"
   stroke-linecap="butt"
   stroke-linejoin="round"
   stroke-opacity="0.189846"
   stroke-width="10"
   id="path225" />
<path
   d="M 1317.06,1974.6 H 1507 c 2.99,0 5.41,2.42 5.41,5.4 v 183.74 c 0,2.99 -2.42,5.41 -5.41,5.41 h -189.94 c -2.99,0 -5.41,-2.42 -5.41,-5.41 V 1980 c 0,-2.98 2.42,-5.4 5.41,-5.4 z"
   fill="#918989"
   fill-rule="nonzero"
   opacity="1"
   stroke="#beb9b1"
   stroke-linecap="butt"
   stroke-linejoin="round"
   stroke-opacity="0.189846"
   stroke-width="10"
   id="path227" />
<path
   d="m 1640.5,1978.95 h 189.95 c 2.98,0 5.4,2.42 5.4,5.4 v 183.74 c 0,2.99 -2.42,5.41 -5.4,5.41 H 1640.5 c -2.98,0 -5.4,-2.42 -5.4,-5.41 v -183.74 c 0,-2.98 2.42,-5.4 5.4,-5.4 z"
   fill="#918989"
   fill-rule="nonzero"
   opacity="1"
   stroke="#beb9b1"
   stroke-linecap="butt"
   stroke-linejoin="round"
   stroke-opacity="0.189846"
   stroke-width="10"
   id="path229" />
<path
   d="m 2274.08,1256.24 -6.53,3.74"
   fill="none"
   opacity="1"
   stroke="#beb9b1"
   stroke-linecap="butt"
   stroke-linejoin="round"
   stroke-opacity="0.189846"
   stroke-width="10"
   id="path231" />
<g
   opacity="1"
   id="g235">
<path
   d="m 1077.84,1103.84 c -1.26,0.01 -2.51,0.42 -3.59,1.28 -2.47,1.98 -2.65,5.17 -3.69,7.91 -0.2,0.52 -0.6,0.94 -0.9,1.41 -0.31,0.48 -0.63,0.95 -0.94,1.44 -1.27,1.96 -2.53,3.94 -3.75,5.93 -2.45,3.99 -4.72,8.14 -7.47,11.94 -3.54,4.87 -7.92,9.1 -11.66,13.81 -3.93,4.95 -7.67,10.09 -11.4,15.19 -5.75,7.86 -11.27,15.91 -15.35,24.78 -1.16,2.52 -0.05,5.53 2.47,6.69 2.53,1.16 5.5,0.05 6.66,-2.47 4.06,-8.83 9.71,-16.84 15.47,-24.63 2.22,-3 4.49,-5.98 6.75,-8.96 1.48,-1.96 2.95,-3.9 4.53,-5.78 3.54,-4.24 7.46,-8.19 10.72,-12.66 1.9,-2.62 3.55,-5.43 5.25,-8.19 1.25,-2.04 2.54,-4.04 3.81,-6.06 -0.22,6.85 -0.93,13.69 -1.31,20.53 -0.21,3.64 -0.24,7.27 -0.13,10.91 0.2,6.31 0.83,12.6 1.19,18.9 0.2,3.55 0.27,7.1 0.34,10.66 0.15,6.86 0.22,13.7 0.38,20.56 0.09,3.87 0.34,7.75 0.25,11.63 -0.12,4.91 -0.66,9.79 -1.03,14.68 -0.26,3.43 -0.41,6.85 -0.5,10.28 -0.08,2.94 2.25,5.4 5.18,5.47 2.94,0.08 5.37,-2.25 5.44,-5.18 0.09,-3.26 0.23,-6.5 0.47,-9.75 0.38,-5.09 0.92,-10.15 1.03,-15.25 0.1,-4.5 -0.2,-8.98 -0.31,-13.47 -0.15,-6.4 -0.2,-12.79 -0.34,-19.19 -0.09,-3.68 -0.19,-7.39 -0.41,-11.06 -0.42,-7.08 -1.2,-14.13 -1.31,-21.22 -0.06,-4.06 0.18,-8.11 0.47,-12.16 0.35,-4.99 0.79,-9.96 0.96,-14.97 0.06,-1.69 0.08,-3.4 0.07,-5.09 -0.01,-1.28 -0.08,-2.56 0,-3.84 0.28,-4.63 0.76,-9.91 -3.69,-12.91 -1.12,-0.75 -2.39,-1.16 -3.66,-1.16 z"
   fill="#ff0202"
   stroke="none"
   id="path233" />
</g>
<g
   opacity="1"
   id="g239">
<path
   d="m 1399.91,1099.38 c -6.6,0.19 -13.05,2.02 -18.53,5.74 -3.59,2.44 -6.66,5.55 -9.26,9 -1.54,2.06 -2.9,4.27 -4.28,6.44 -3,4.72 -5.92,9.5 -8.25,14.6 -1.29,2.84 -2.44,5.78 -3.25,8.81 -0.35,1.32 -0.59,2.34 -0.68,3.75 -0.19,2.98 0.68,5.81 0.96,8.75 0.28,2.76 2.74,4.8 5.5,4.53 2.77,-0.27 4.78,-2.74 4.5,-5.5 -0.14,-1.46 -0.37,-2.9 -0.62,-4.34 -0.16,-0.92 -0.38,-1.89 -0.31,-2.82 0.08,-1.29 0.6,-2.59 1,-3.81 0.82,-2.49 1.86,-4.93 3.03,-7.28 2.13,-4.27 4.68,-8.3 7.25,-12.31 3.21,-5.02 6.77,-9.91 12.15,-12.75 5.66,-2.99 11.99,-3.02 18.19,-2.28 2.65,0.31 5.49,0.46 7.97,1.53 1.91,0.82 3.56,2.18 5.06,3.59 1.53,1.43 2.65,3.81 3.57,5.66 1.45,2.91 2.8,5.91 3.93,8.97 2.25,6.06 3.86,12.89 2.82,19.37 -0.54,3.34 -2.33,6.36 -3.57,9.47 -1.78,4.49 -3.51,8.99 -5.4,13.44 -2.45,5.75 -5.06,11.42 -7.75,17.06 -2.53,5.29 -5.17,10.6 -8.5,15.44 -2.29,3.32 -4.92,6.44 -7.5,9.53 -4.63,5.54 -9.43,10.93 -13.94,16.56 -1.53,1.92 -3.14,3.83 -4.53,5.85 -0.73,1.04 -1.39,2.14 -2.03,3.24 -1.16,0.59 -2.26,1.22 -3.35,1.94 -3.58,2.39 -8.67,5.21 -7.81,10.38 0.08,0.47 0.2,0.93 0.38,1.37 0.17,0.45 0.42,0.89 0.68,1.28 0.42,0.62 1.11,1.3 1.72,1.72 3.3,2.28 6.94,1.12 9.69,-1.37 1.09,-0.99 2.01,-2.14 2.97,-3.25 0.9,-1.06 1.75,-2.14 2.56,-3.25 2.7,-0.92 5.49,-1.45 8.34,-1.6 12.33,-0.64 24.7,-0.32 37,0.5 13.52,0.91 26.99,2.41 40.44,3.91 2.92,0.32 5.52,-1.77 5.85,-4.69 0.32,-2.91 -1.78,-5.55 -4.69,-5.87 -19.09,-2.11 -38.19,-4.22 -57.41,-4.66 -5.56,-0.13 -11.13,-0.12 -16.69,0.06 -1.43,0.05 -2.87,0.18 -4.31,0.25 1.7,-2.11 3.41,-4.18 5.16,-6.25 3.67,-4.34 7.37,-8.67 10.94,-13.09 2.14,-2.66 4.23,-5.32 6.09,-8.19 3.43,-5.29 6.21,-11 8.91,-16.69 3.37,-7.12 6.54,-14.31 9.5,-21.62 1.3,-3.21 2.45,-6.5 3.81,-9.69 1.25,-2.94 2.68,-5.78 3.31,-8.93 1.28,-6.35 0.53,-13.01 -1.09,-19.22 -1.49,-5.72 -3.83,-11.23 -6.47,-16.5 -1.39,-2.77 -2.93,-5.61 -5.06,-7.88 -2.8,-2.97 -6.4,-5.46 -10.29,-6.75 -2.94,-0.98 -6.05,-1.29 -9.12,-1.65 -2.87,-0.34 -5.7,-0.59 -8.59,-0.5 z"
   fill="#ff0202"
   stroke="none"
   id="path237" />
</g>
<g
   opacity="1"
   id="g243">
<path
   d="m 1703.5,1099.22 c -5.51,-0.14 -11.31,1.13 -16.34,2.34 -1.62,0.39 -3.23,0.74 -4.85,1.1 -6.22,1.36 -12.71,3.18 -16.84,8.4 -1.28,1.62 -2.1,3.41 -2.35,5.47 -0.2,1.72 0.08,3.44 -0.06,5.16 -0.21,2.77 1.89,5.19 4.66,5.4 2.77,0.22 5.16,-1.85 5.37,-4.62 0.09,-1.22 0.07,-2.44 0.03,-3.66 0,-0.28 -0.01,-0.58 0,-0.87 0.01,-0.09 0,-0.2 0,-0.28 0.01,-0.01 0,-0.02 0,-0.04 2.8,-3.4 7.24,-4.22 11.35,-5.12 1.69,-0.37 3.35,-0.75 5.03,-1.16 4.68,-1.12 9.58,-2.36 14.44,-2.03 2.11,0.15 4.45,0.58 6.06,2.07 1.29,1.18 2.19,2.81 3,4.34 0.92,1.72 1.74,3.51 2.69,5.22 0.79,1.43 1.66,2.7 2.69,3.97 0.54,0.67 1.22,1.36 1.43,2.21 -0.04,0.3 0.03,0.64 0,0.94 -0.07,0.78 -0.26,1.54 -0.5,2.28 -0.76,2.44 -2,4.73 -3.34,6.88 -2.02,3.23 -4.38,6.24 -6.94,9.06 -3.09,3.4 -6.32,6.3 -10.44,8.38 -2.33,1.17 -4.31,1.72 -6.84,2.37 -1.43,0.37 -2.98,0.68 -4.16,1.63 -0.99,0.79 -1.58,1.86 -1.87,3.09 -0.04,0.18 -0.07,0.35 -0.1,0.53 0,0 0.01,0.03 0,0.03 -0.05,0.03 0,0.16 0,0.25 0.01,0.19 -0.01,0.41 0,0.6 0.08,0.9 0.39,1.75 0.91,2.5 1.76,2.53 4.82,2.4 7.63,2.09 4.85,-0.54 9.41,-2.57 14.28,-2.91 3.33,-0.23 6.7,0.11 10,0.63 11.79,1.84 26.02,7.79 30.34,19.94 0.76,2.12 1.16,4.34 1.25,6.59 0.11,2.73 -0.18,5.48 -1.09,8.06 -2.44,6.88 -8.78,12 -13.88,16.91 -6.11,5.89 -12.01,12.17 -19.62,16.15 -6.22,3.27 -13.15,4.55 -20.1,4.97 -2.62,0.17 -5.39,0.58 -8,0.13 -1.67,-0.29 -3.32,-1.02 -4.81,-1.78 -2.64,-1.36 -5.11,-3.07 -7.62,-4.66 -2.48,-1.57 -5.75,-0.85 -7.32,1.63 -1.56,2.47 -0.82,5.77 1.66,7.34 4.84,3.06 9.65,6.41 15.31,7.72 4.15,0.96 8.49,0.44 12.69,0.12 8.71,-0.66 17.25,-2.67 24.87,-7.06 8.15,-4.69 14.52,-11.49 21.26,-17.91 4.23,-4.02 8.57,-8.01 11.84,-12.9 4.54,-6.78 6.13,-14.47 4.97,-22.53 -0.39,-2.68 -1.09,-5.29 -2.13,-7.78 -6.23,-15.03 -22.79,-22.83 -38.03,-25.16 -1.62,-0.25 -3.28,-0.48 -4.94,-0.63 0.9,-0.96 1.82,-1.89 2.66,-2.87 2.48,-2.88 4.8,-5.96 6.81,-9.19 2.9,-4.65 5.98,-10.75 5.35,-16.4 -0.21,-1.84 -0.8,-3.44 -1.75,-5.04 -0.88,-1.45 -2.17,-2.61 -3.04,-4.06 -2.34,-3.91 -3.91,-8.29 -6.96,-11.75 -3.91,-4.42 -9.15,-5.95 -14.66,-6.09 z"
   fill="#ff0202"
   stroke="none"
   id="path241" />
</g>
<g
   opacity="1"
   id="g247">
<path
   d="m 1017.22,1394.56 c -1.22,0.02 -2.42,0.46 -3.47,1.06 -0.67,0.39 -1.04,1.15 -1.47,1.79 -0.63,0.94 -0.73,2.33 -0.78,3.43 -0.08,1.95 0.15,3.91 -0.03,5.85 -0.18,1.97 0.85,3.75 2.44,4.72 0.14,1.13 0.25,2.27 0.4,3.4 0.38,2.87 0.66,5.74 0.85,8.63 0.49,7.71 0.24,15.44 -0.54,23.12 -0.05,0.57 -0.38,1.2 -0.56,1.72 -0.31,0.91 -0.62,1.83 -0.81,2.78 -0.58,2.87 -0.03,5.81 2.22,7.82 0.53,0.47 1.1,0.84 1.75,1.15 2.38,1.14 5.02,0.78 7.37,-0.19 0.99,-0.4 1.98,-0.98 3,-1.28 1.22,-0.35 2.66,-0.4 3.91,-0.53 3.24,-0.33 6.47,-0.37 9.72,-0.25 13.32,0.5 26.58,1.86 39.9,2.25 13.3,0.39 26.4,-0.27 39.44,-2.97 2.87,-0.59 4.72,-3.41 4.13,-6.28 -0.6,-2.87 -3.41,-4.72 -6.28,-4.12 -5,1.04 -10.01,1.83 -15.1,2.28 -19,1.67 -38.08,-0.38 -57.06,-1.32 -5.77,-0.28 -11.5,-0.38 -17.25,0.35 -1.61,0.2 -3.14,0.51 -4.66,0.97 0.31,-1.48 0.57,-2.95 0.69,-4.47 0.51,-6.18 0.65,-12.4 0.38,-18.59 -0.14,-3.1 -0.38,-6.2 -0.72,-9.29 -0.26,-2.3 -0.68,-4.57 -0.91,-6.87 -0.37,-3.75 0.11,-7.39 -1.47,-10.97 -0.32,-0.72 -0.71,-1.53 -1.25,-2.13 -0.35,-0.38 -0.66,-0.84 -1.12,-1.09 -0.85,-0.45 -1.76,-0.98 -2.72,-0.97 z"
   fill="#ff0202"
   stroke="none"
   id="path245" />
</g>
<g
   opacity="1"
   id="g251">
<path
   d="m 1065.16,1408.56 c -1.93,0.33 -3.59,1.79 -4.07,3.82 -1.21,5.14 -1.94,10.33 -2.15,15.62 -0.48,11.75 1.12,23.48 1.28,35.22 0.27,20.58 -2,41.11 -4.28,61.53 -0.32,2.91 1.77,5.52 4.68,5.84 2.92,0.33 5.53,-1.77 5.85,-4.68 2.29,-20.89 4.5,-41.84 4.03,-62.88 -0.13,-5.71 -0.51,-11.4 -0.91,-17.09 -0.45,-6.4 -0.88,-12.84 -0.5,-19.25 0.25,-4.07 0.85,-8.04 1.79,-12 0.63,-2.71 -1.02,-5.4 -3.72,-6.03 -0.68,-0.16 -1.36,-0.21 -2,-0.1 z"
   fill="#ff0202"
   stroke="none"
   id="path249" />
</g>
<g
   opacity="1"
   id="g255">
<path
   d="m 1360.16,1404.53 c -2.77,0.28 -4.79,2.77 -4.5,5.53 0.7,6.87 2.59,13.44 4.06,20.16 0.5,2.31 0.92,4.62 1.22,6.97 0.05,0.42 0.1,0.86 0.15,1.28 0.05,0.39 0.11,0.76 0.16,1.15 0,0.02 -0.03,-0.04 -0.03,-0.03 -0.28,1.8 -0.68,3.65 -0.72,5.47 -0.07,2.85 1,5.7 3.31,7.47 2.4,1.84 5.34,1.85 8.22,1.91 1.36,0.03 2.67,0.19 4.03,0.12 1.3,-0.06 2.61,-0.24 3.91,-0.06 4.97,0.68 9.93,1.93 14.72,3.41 5.97,1.84 11.85,4.26 17.12,7.65 4.7,3.03 9.14,7.02 11.31,12.28 1.45,3.5 1.39,6.65 1.07,10.35 -0.27,3.07 -0.64,6.24 -1.72,9.15 -0.64,1.71 -1.47,3.37 -2.53,4.85 -5.57,7.76 -16.23,9.34 -25,10.31 -1.75,0.19 -3.51,0.31 -5.25,0.56 -2.05,0.3 -4.08,0.81 -6.16,0.5 -6.83,-1 -12.72,-5.26 -18.12,-9.28 -2.36,-1.75 -5.66,-1.23 -7.41,1.13 -1.75,2.35 -1.26,5.65 1.09,7.4 6.56,4.86 13.58,9.57 21.75,11.07 1.44,0.26 2.89,0.42 4.35,0.4 2.23,-0.02 4.39,-0.54 6.59,-0.81 1.44,-0.18 2.88,-0.28 4.31,-0.44 11.76,-1.31 24.11,-3.99 31.72,-13.87 1.41,-1.83 2.61,-3.81 3.57,-5.91 1.16,-2.56 1.96,-5.23 2.43,-8 0.7,-4.06 1.14,-8.25 0.97,-12.37 -0.11,-2.63 -0.67,-5.16 -1.56,-7.63 -4.73,-13.08 -17.81,-20.7 -30.19,-25.25 -2.64,-0.97 -5.32,-1.84 -8.03,-2.59 -3.34,-0.93 -6.72,-1.71 -10.12,-2.35 -2.26,-0.42 -4.51,-0.81 -6.82,-0.75 -1.13,0.03 -2.27,0.16 -3.4,0.16 -0.81,0 -1.61,-0.11 -2.41,-0.13 -0.5,-0.01 -0.97,-0.02 -1.47,-0.03 0.14,-1.07 0.33,-2.15 0.44,-3.22 0.17,-1.74 -0.06,-3.42 -0.28,-5.15 -1.15,-9.09 -4.35,-17.78 -5.28,-26.91 -0.29,-2.76 -2.74,-4.78 -5.5,-4.5 z"
   fill="#ff0202"
   stroke="none"
   id="path253" />
</g>
<g
   opacity="1"
   id="g259">
<path
   d="m 1429.78,1397.88 c -0.69,-0.07 -1.39,-0.01 -2.09,0.21 -10.53,3.43 -21.3,4.63 -32.25,5.79 -2.21,0.23 -4.48,0.37 -6.66,0.81 -1.61,0.32 -3.14,0.91 -4.75,1.25 -0.89,0.19 -1.81,0.23 -2.72,0.28 -7.41,0.43 -14.64,-1.23 -21.75,-3.13 -2.68,-0.72 -5.43,0.88 -6.15,3.57 -0.72,2.68 0.88,5.43 3.56,6.15 8.14,2.19 16.39,3.94 24.87,3.57 1.4,-0.07 2.78,-0.15 4.16,-0.41 1.61,-0.31 3.17,-0.88 4.78,-1.19 1.85,-0.35 3.81,-0.39 5.69,-0.56 7.06,-0.65 14.15,-1.28 21.12,-2.6 4.54,-0.85 8.99,-1.99 13.38,-3.4 2.79,-0.9 4.31,-3.9 3.41,-6.69 -0.68,-2.09 -2.54,-3.47 -4.6,-3.65 z"
   fill="#ff0202"
   stroke="none"
   id="path257" />
</g>
<g
   opacity="1"
   id="g263">
<path
   d="m 1725.03,1400.56 c -1.54,0.17 -3.09,0.58 -4.56,1.06 -3.41,1.12 -6.65,2.74 -9.75,4.54 -5.41,3.13 -10.53,6.89 -15.16,11.09 -3.42,3.1 -6.66,6.51 -9.12,10.44 -4.17,6.64 -5.92,14.31 -8.69,21.56 -1.91,5 -4.1,9.91 -5.41,15.13 -1.12,4.49 -1.29,9.05 -1.12,13.62 -0.27,0.74 -0.55,1.47 -0.84,2.19 -0.9,2.18 -0.2,4.55 1.5,6 0.3,2.21 0.6,4.41 0.9,6.62 0.76,5.58 1.69,11.32 5.41,15.78 3.05,3.67 7.35,5.85 11.69,7.63 7.1,2.92 14.74,4.81 22.43,5.19 3.32,0.16 6.66,0.05 9.94,-0.47 5.51,-0.87 11.9,-3.09 16,-7.03 2.48,-2.39 3.72,-5.54 5.37,-8.47 1.71,-3.02 3.63,-5.88 5.26,-8.94 4.48,-8.44 7.35,-18.27 2.28,-27.09 -0.85,-1.47 -1.85,-2.91 -3.07,-4.1 -1.65,-1.62 -3.73,-2.81 -5.78,-3.84 -2.99,-1.51 -6.13,-2.74 -9.28,-3.88 -14.9,-5.38 -31.57,-2.94 -45.41,4.32 -1.66,0.87 -3.2,1.93 -4.78,2.93 1.22,-4.06 2.84,-8 4.35,-11.96 2.41,-6.36 3.89,-13.19 7.34,-19.1 2.32,-3.97 5.71,-7.27 9.16,-10.25 3.75,-3.24 7.77,-6.17 12.06,-8.65 2.49,-1.45 5.1,-2.79 7.84,-3.69 0.81,-0.27 1.69,-0.53 2.53,-0.63 2.27,-0.26 4.61,0.52 6.85,0.78 2.76,0.33 5.27,-1.65 5.59,-4.4 0.33,-2.76 -1.65,-5.27 -4.4,-5.6 -3.12,-0.36 -5.92,-1.12 -9.13,-0.78 z m -9.91,64.66 c 4.71,-0.11 9.4,0.56 13.88,2.16 2.69,0.95 5.37,1.97 7.94,3.21 1.29,0.63 2.71,1.28 3.78,2.25 0.52,0.48 0.96,1.21 1.31,1.82 3.32,5.72 -0.23,13 -3.06,18.12 -1.56,2.81 -3.35,5.49 -4.88,8.31 -0.9,1.68 -1.7,3.96 -3.09,5.32 -0.82,0.8 -1.89,1.36 -2.91,1.87 -1.46,0.74 -2.97,1.35 -4.56,1.75 -1.96,0.5 -3.95,0.83 -5.97,0.97 -2.67,0.19 -5.36,0.08 -8.03,-0.22 -4.89,-0.56 -9.71,-1.76 -14.31,-3.5 -2.01,-0.76 -4.04,-1.6 -5.91,-2.69 -1.35,-0.78 -2.62,-1.75 -3.56,-3.03 -1.32,-1.79 -1.85,-4.03 -2.25,-6.18 -0.4,-2.18 -0.65,-4.38 -0.97,-6.57 -0.38,-2.62 -0.78,-5.27 -1.06,-7.9 0.06,-0.18 0.12,-0.36 0.19,-0.53 0.23,-0.61 0.47,-1.51 0.9,-2 0.39,-0.45 0.76,-0.91 1.19,-1.32 0.97,-0.92 2.18,-1.69 3.28,-2.44 1.78,-1.2 3.63,-2.31 5.53,-3.31 6.88,-3.61 14.72,-5.92 22.56,-6.09 z"
   fill="#ff0202"
   stroke="none"
   id="path261" />
</g>
<g
   opacity="1"
   id="g267">
<path
   d="m 1109.53,1689.03 c -1.83,-0.23 -3.79,0.17 -5.59,1 -1.24,0.57 -2.37,1.33 -3.56,1.97 -0.22,0.12 -0.46,0.22 -0.69,0.31 -0.06,0.03 -0.26,0.06 -0.19,0.07 -3.43,0.38 -6.85,0.06 -10.28,-0.1 -26.1,-1.17 -52.2,-0.7 -78.19,2.1 -2.76,0.29 -4.76,2.77 -4.47,5.53 0.3,2.76 2.77,4.73 5.53,4.43 23.84,-2.55 47.84,-3.19 71.79,-2.15 2.68,0.11 5.37,0.25 8.06,0.4 3,0.18 6.01,0.31 9,-0.09 1.1,-0.15 2.12,-0.52 3.12,-0.97 -0.02,0.06 -0.04,0.13 -0.06,0.19 -0.92,3.02 -2.08,5.94 -3.47,8.78 -2.28,4.67 -4.96,9.11 -7.41,13.69 -2.3,4.3 -4.3,8.76 -6.15,13.28 -5,12.2 -8.66,24.85 -12.91,37.31 -2.16,6.34 -5.28,12.32 -7.18,18.75 -1.8,6.07 -2.7,12.35 -4,18.53 -0.66,3.12 -1.51,6.16 -2.41,9.22 -0.83,2.82 0.78,5.77 3.59,6.6 2.82,0.82 5.77,-0.82 6.6,-3.63 0.97,-3.32 1.88,-6.64 2.59,-10.03 1.16,-5.54 1.97,-11.13 3.47,-16.6 1.26,-4.59 3.22,-8.92 5.03,-13.31 1.09,-2.65 2.04,-5.33 2.94,-8.06 4.34,-13.19 8.28,-26.58 13.87,-39.31 1.86,-4.24 3.99,-8.3 6.22,-12.35 2.41,-4.37 4.84,-8.76 6.78,-13.37 0.55,-1.29 1.05,-2.61 1.5,-3.94 0.43,-1.25 0.76,-2.51 1.22,-3.75 1.43,-3.82 3.07,-8.11 0.13,-11.75 -1.34,-1.65 -3.05,-2.52 -4.88,-2.75 z"
   fill="#ff0202"
   stroke="none"
   id="path265" />
</g>
<g
   opacity="1"
   id="g271">
<path
   d="m 1130.03,1752.88 c -3.11,0.07 -6.23,0.16 -9.34,0.4 -6.71,0.53 -13.37,1.42 -20.1,1.63 -6.37,0.19 -12.75,-0.13 -19.12,-0.13 -5.22,0 -10.4,0.28 -15.59,0.78 -13.21,1.28 -26.3,3.78 -39.47,5.35 -2.76,0.32 -4.74,2.8 -4.41,5.56 0.33,2.76 2.84,4.73 5.59,4.41 13.09,-1.54 26.09,-3.98 39.22,-5.13 4.09,-0.36 8.18,-0.61 12.28,-0.63 7.68,-0.03 15.33,0.47 23,0.29 6.5,-0.16 12.97,-1.07 19.44,-1.57 2.92,-0.22 5.83,-0.31 8.75,-0.37 2.93,-0.07 5.26,-2.51 5.19,-5.44 -0.07,-2.93 -2.51,-5.22 -5.44,-5.15 z"
   fill="#ff0202"
   stroke="none"
   id="path269" />
</g>
<g
   opacity="1"
   id="g275">
<path
   d="m 1404.16,1681.62 c -10.09,0.41 -18.1,7.42 -24.94,14.13 -1.55,1.52 -3.33,2.79 -4.84,4.34 -1,1.02 -1.87,2.15 -2.63,3.35 -2.1,3.32 -3.12,7.28 -4.03,11.06 -0.99,4.09 -2.87,8.38 -1.63,12.62 1.13,3.85 4.38,6.82 7.57,9 1.52,1.05 3.11,2.1 4.78,2.91 2.27,1.11 4.69,1.89 7.09,2.66 1.52,0.48 3.06,0.9 4.59,1.34 -4.76,3.68 -9.3,7.63 -13.46,11.97 -3.56,3.71 -6.71,7.74 -9.66,11.94 -1.7,2.42 -3.32,4.93 -4.75,7.53 -1.83,3.34 -3.31,6.78 -3.13,10.65 0.17,3.59 1.47,7.06 2.57,10.44 4.36,13.49 13.7,24.6 27.06,29.91 4.97,1.98 10.28,3.09 15.63,3.37 10.4,0.56 20.86,-1.96 30.09,-6.72 3.75,-1.93 7.15,-4.27 10.53,-6.78 6.94,-5.15 13.32,-10.05 16.59,-18.34 6.75,-17.11 -3.57,-36.09 -16.97,-46.72 -2.56,-2.03 -5.32,-3.84 -8.24,-5.31 -6.54,-3.28 -13.68,-4.86 -20.85,-6.28 0.28,-0.17 0.56,-0.34 0.85,-0.5 0.52,-0.32 1.05,-0.65 1.62,-0.88 1.5,-0.6 3.1,-0.93 4.59,-1.56 1.8,-0.76 3.33,-1.7 4.72,-3.06 2.33,-2.29 3.87,-5.57 5.16,-8.5 0.79,-1.81 1.49,-3.66 2.12,-5.53 0.64,-1.88 1.2,-3.79 1.66,-5.72 1.33,-5.58 1.76,-10.8 -0.78,-16.1 -0.81,-1.69 0.01,0.01 -4.31,-5.18 -0.6,-0.43 -1.27,-0.7 -1.94,-0.85 -0.01,0 -0.02,0 -0.03,0 -2.92,-1.75 -3.68,-2.27 -5.63,-3.34 -5.93,-3.27 -12.49,-6.12 -19.4,-5.85 z m 0.4,10.04 c 1.81,-0.08 3.61,0.25 5.35,0.75 2.61,0.75 0.94,0.39 14.56,7.34 0.19,0.18 0.31,0.41 0.53,0.56 0.9,1.12 0.68,0.72 0.88,1.13 0.41,0.87 0.72,1.88 0.84,2.84 0.2,1.67 -0.19,3.45 -0.53,5.06 -0.6,2.84 -1.47,5.61 -2.5,8.32 -0.68,1.77 -1.43,3.52 -2.35,5.18 -0.32,0.6 -0.67,1.2 -1.06,1.75 -0.11,0.16 -0.22,0.29 -0.34,0.44 -0.05,0.06 -0.08,0.1 -0.13,0.16 -0.18,0.15 -0.36,0.31 -0.56,0.43 -0.22,0.14 -0.45,0.23 -0.69,0.32 -1.17,0.45 -2.41,0.76 -3.59,1.18 -3.36,1.21 -6.4,3.37 -9.41,5.26 -1.55,0.97 -3,2.11 -4.53,3.12 -3.47,-0.87 -6.92,-1.75 -10.34,-2.78 -3.07,-0.93 -6.3,-1.8 -9.07,-3.47 -2.07,-1.26 -4.63,-2.64 -5.81,-4.87 -0.23,-0.44 0.07,-1.34 0.19,-1.82 0.31,-1.24 0.73,-2.44 1.03,-3.68 0.67,-2.74 1.25,-5.51 2.31,-8.13 0.4,-0.98 0.84,-1.97 1.5,-2.81 1.32,-1.67 3.21,-2.91 4.75,-4.35 5.19,-4.83 11.31,-11.62 18.97,-11.93 z m -1,54.72 c 3.59,0.79 7.17,1.69 10.78,2.43 5.91,1.22 12.02,2.51 17.44,5.25 5.45,2.76 10.21,6.97 13.94,11.78 1.92,2.48 3.6,5.15 4.9,8 1.08,2.35 1.91,4.81 2.38,7.35 0.37,2.03 0.5,4.13 0.34,6.19 -0.13,1.66 -0.46,3.29 -1,4.87 -2.31,6.8 -7.95,10.65 -13.5,14.75 -4.38,3.24 -8.92,6.1 -14.03,8.09 -12.08,4.72 -26.43,4.92 -37.69,-2.12 -4.62,-2.9 -8.35,-6.86 -11.24,-11.47 -2.58,-4.09 -4.1,-8.68 -5.47,-13.28 -0.15,-0.48 -0.28,-0.98 -0.41,-1.47 -0.19,-0.73 -0.54,-2.45 -0.31,-3 0.1,-0.24 0.13,-0.56 0.22,-0.81 0.23,-0.66 0.5,-1.28 0.81,-1.91 1.76,-3.62 4.13,-6.98 6.5,-10.22 7.16,-9.77 16.41,-17.6 26.34,-24.43 z"
   fill="#ff0202"
   stroke="none"
   id="path273" />
</g>
<g
   opacity="1"
   id="g279">
<path
   d="m 1735.25,1678.81 c -9.35,-0.07 -18.9,0.89 -27.87,3.63 -5.16,1.57 -10.27,3.81 -14.47,7.25 -6.34,5.18 -9.56,12.85 -12.97,20.06 -3.11,6.57 -6.26,13.38 -7.06,20.69 -0.42,3.76 -0.1,7.73 1.84,11.06 4.6,7.89 15.57,9.59 23.81,10.03 1.67,0.09 3.33,0.11 5,0.13 6.19,0.06 12.56,0.15 18.56,-1.6 4.38,-1.27 8.34,-3.54 12,-6.22 1.65,-1.19 3.19,-2.49 4.82,-3.72 2.37,-1.78 4.68,-3.44 6.53,-5.81 1.5,-1.92 2.76,-4.11 3.87,-6.37 0.6,2.36 1.31,4.69 2.19,6.97 1.22,3.17 2.48,6.31 3.06,9.68 0.63,3.65 0.72,7.44 0.75,11.13 0.07,7.58 -0.53,15.17 -0.31,22.75 0.2,7.02 1.33,13.92 1.91,20.91 0.45,5.54 0.55,11.22 -0.85,16.65 -0.52,2.01 -1.21,3.98 -2.18,5.81 -0.71,1.33 -1.56,2.58 -2.57,3.69 -3.68,4.07 -9.19,5.54 -14.43,6.35 -3.15,0.48 -6.31,0.73 -9.47,1.03 -9.15,0.85 -18.53,1.34 -27.47,-1.19 -5.01,-1.42 -9.62,-3.8 -13.97,-6.63 -1.72,-1.12 -3.51,-2.27 -4.59,-4.06 -0.16,-0.25 -0.16,-1.69 -0.16,-2.22 0.01,-1.4 0.02,-2.78 -0.1,-4.19 -0.24,-2.92 -2.79,-5.11 -5.71,-4.87 -2.93,0.24 -5.09,2.83 -4.85,5.75 0.31,3.52 -0.35,6.89 1.28,10.22 1.77,3.62 5.02,6.13 8.32,8.28 5.8,3.78 12.06,6.75 18.81,8.41 9.65,2.36 19.63,1.98 29.44,1.06 11.41,-1.07 23.51,-2.22 31.37,-11.56 1.55,-1.85 2.85,-3.9 3.91,-6.07 1.37,-2.81 2.37,-5.82 3.03,-8.87 2.77,-12.93 -0.79,-25.86 -1.19,-38.81 -0.28,-9.32 0.63,-18.66 0.09,-27.97 -0.14,-2.46 -0.32,-4.95 -0.74,-7.38 -0.42,-2.39 -1.08,-4.71 -1.88,-7 -1.12,-3.19 -2.57,-6.27 -3.5,-9.53 -0.74,-2.57 -0.98,-5.22 -1.16,-7.87 -0.21,-3.13 -0.28,-6.27 -0.28,-9.41 0,-1.66 -0.08,-3.38 0.13,-5.03 0.13,-1.03 0.46,-2.03 0.72,-3.03 0.35,-1.38 0.54,-2.81 0.62,-4.22 0.25,-0.16 0.53,-0.26 0.75,-0.47 2.01,-1.92 2.1,-5.08 0.19,-7.09 -1.53,-1.6 -2.76,-3.5 -4.35,-5.04 -1.09,-1.06 -2.34,-1.96 -3.68,-2.68 -1.55,-0.84 -3.32,-1.36 -5.03,-1.72 -3.96,-0.84 -8.14,-0.88 -12.16,-0.91 z m 0.37,10.03 c 2.46,0.02 4.89,0.14 7.32,0.38 1.79,0.18 4.02,0.4 5.53,1.5 0.08,0.05 0.11,0.16 0.19,0.22 -0.08,0.16 -0.18,0.3 -0.25,0.47 -0.55,1.18 -0.71,2.59 -0.85,3.87 -0.19,1.79 -0.24,3.62 -0.5,5.41 -0.19,1.34 -0.6,2.67 -0.9,4 -0.67,2.87 -1.35,5.71 -2.19,8.53 -1.16,3.88 -2.55,7.74 -4.47,11.31 -0.64,1.2 -1.33,2.41 -2.16,3.5 -1.54,2.03 -3.9,3.35 -5.87,4.91 -3.75,2.96 -7.56,5.97 -12.22,7.34 -5.28,1.55 -11.27,1.3 -16.72,1.22 -4.54,-0.07 -9.2,-0.29 -13.56,-1.66 -1.83,-0.57 -3.8,-1.43 -5.09,-2.9 -1.86,-2.12 -0.92,-6.4 -0.35,-8.72 1.51,-6.14 4.44,-11.81 7.09,-17.5 1.94,-4.14 3.93,-8.47 7.13,-11.81 2.94,-3.07 6.95,-4.96 10.91,-6.32 6.29,-2.16 13,-3.13 19.62,-3.53 2.43,-0.14 4.89,-0.23 7.34,-0.22 z"
   fill="#ff0202"
   stroke="none"
   id="path277" />
</g>
<g
   opacity="1"
   id="g283">
<path
   d="m 1403.88,1994 c -3.01,-0.11 -6,0.12 -8.97,0.81 -5.95,1.39 -11.26,4.56 -16.6,7.41 -1.83,0.98 -3.68,1.89 -5.56,2.78 -2.65,1.26 -3.76,4.45 -2.5,7.09 0.11,0.24 0.3,0.39 0.44,0.6 -1.06,1.52 -2.07,3.07 -2.81,4.78 -1.41,3.2 -2.21,6.65 -3.38,9.94 -1.65,4.64 -3.47,9.21 -4.97,13.9 -0.72,2.28 -1.4,4.55 -1.94,6.88 -0.95,4.11 -1.4,8.39 -1.71,12.59 -0.51,6.88 -0.46,13.82 0.12,20.69 0.68,8.12 2.01,16.46 5.31,23.97 2.79,6.33 7.46,11.4 11.53,16.9 0.5,0.68 1.03,1.35 1.41,2.1 0.76,1.5 1.27,3.13 2.06,4.62 0.74,1.39 1.66,2.71 2.75,3.85 2.61,2.72 6.37,3.95 9.78,5.31 2.36,0.94 4.62,2.04 7.04,2.84 3.94,1.32 8.08,2.07 12.24,2.16 5.57,0.12 11.17,-0.87 16.5,-2.41 7.41,-2.14 13.73,-6.58 18.66,-12.47 3.95,-4.71 6.99,-10.12 9.88,-15.53 2.42,-4.54 4.7,-9.09 6.12,-14.06 1.96,-6.84 2.35,-13.98 2.94,-21.03 0.6,-7.16 0.8,-14.34 0.22,-21.5 -0.76,-9.24 -2.85,-18.31 -6.41,-26.88 -2.19,-5.27 -4.93,-10.25 -8,-15.06 -1.88,-2.96 -3.91,-5.8 -6.56,-8.12 -2.44,-2.15 -5.27,-3.83 -8.28,-5.04 -2.84,-1.13 -5.82,-1.85 -8.75,-2.68 -3.86,-1.1 -7.65,-2.37 -11.56,-3.22 -2.96,-0.65 -6,-1.11 -9,-1.22 z m -0.44,10.56 c 6.15,0.2 12.31,2.42 18.12,4.06 4.35,1.24 8.85,2.2 12.44,5.1 2.54,2.05 4.26,4.83 5.97,7.56 2.42,3.86 4.56,7.88 6.31,12.1 3.45,8.28 5.33,17.11 5.84,26.06 0.37,6.31 0.03,12.58 -0.5,18.87 -0.49,5.89 -0.78,11.88 -2.4,17.6 -1.21,4.26 -3.19,8.13 -5.25,12.03 -5.03,9.49 -10.69,19.23 -21.47,22.72 -6.04,1.95 -12.9,2.99 -19.19,1.78 -3.42,-0.66 -6.58,-2.01 -9.78,-3.35 -1.82,-0.76 -3.74,-1.34 -5.5,-2.25 -0.52,-0.27 -1.17,-0.6 -1.59,-1.03 -1.36,-1.38 -1.86,-3.37 -2.66,-5.09 -0.99,-2.13 -2.38,-3.99 -3.81,-5.84 -3.34,-4.33 -7.14,-8.48 -9.38,-13.54 -2.85,-6.46 -3.93,-13.72 -4.53,-20.72 -0.57,-6.71 -0.59,-13.5 -0.03,-20.21 0.28,-3.31 0.62,-6.7 1.38,-9.94 0.55,-2.36 1.25,-4.67 2.03,-6.97 1.57,-4.64 3.34,-9.21 4.94,-13.84 1.02,-2.97 1.69,-6.11 3.09,-8.94 0.74,-1.5 1.76,-2.87 2.78,-4.19 1.49,-1.93 3.18,-3.74 5.19,-5.15 0.44,-0.32 1.11,-0.82 1.62,-1 0.71,-0.26 1.74,-0.01 2.44,0.09 1.55,0.21 3.09,0.44 4.66,0.5 2.77,0.09 5.09,-2.07 5.18,-4.85 0.02,-0.4 -0.11,-0.77 -0.18,-1.15 1.42,-0.21 2.84,-0.45 4.28,-0.41 z"
   fill="#ff0202"
   stroke="none"
   id="path281" />
</g>
<g
   opacity="1"
   id="g287">
<path
   d="m 1782.44,2052.97 c -1.94,0.18 -4.28,1.58 -5.88,2.65 -3.07,2.08 -5.58,4.86 -7.78,7.82 -1.39,1.86 -2.7,3.76 -3.47,5.97 -1.15,3.31 -1.48,6.84 -2.15,10.28 -0.3,1.49 -0.64,2.99 -0.88,4.5 -0.23,1.46 -0.39,2.96 -0.56,4.43 -0.07,0.6 -0.16,1.19 -0.19,1.79 -0.05,1.03 0.01,2.06 0.03,3.09 0.02,1.01 0.01,2.03 0.1,3.03 0.8,9.84 7.56,17.29 16.37,21.03 2.78,1.18 5.76,1.79 8.78,1.82 2,0.01 4.01,-0.25 5.91,-0.88 10.51,-3.46 13.23,-15.48 13.75,-25.22 0.06,-1.22 0.09,-2.4 0.09,-3.62 0.01,-1.63 -0.03,-3.23 -0.09,-4.85 -0.21,-5.46 0.38,-10.65 -3,-15.4 -1.49,-2.09 -3.5,-3.66 -5.28,-5.47 -2.31,-2.36 -4.41,-4.91 -7.38,-6.47 -0.73,-0.39 -1.55,-0.71 -2.37,-0.85 -0.31,-0.81 -0.73,-1.6 -1.47,-2.24 -0.4,-0.35 -0.83,-0.65 -1.31,-0.88 -0.51,-0.24 -1.04,-0.44 -1.6,-0.53 -0.52,-0.09 -1.09,-0.05 -1.62,0 z m -2.13,12.53 c 0.62,1.77 2.09,3.2 4.07,3.53 0.41,0.26 1.69,0.11 2.12,0.03 0.52,-0.09 0.87,-0.41 1.31,-0.62 0.6,0.58 1.18,1.18 1.75,1.78 1.26,1.32 2.6,2.54 3.91,3.81 0.81,0.79 1.63,1.61 1.97,2.72 0.71,2.37 0.38,5.06 0.44,7.5 0.04,1.8 0.12,3.58 0.12,5.37 0,1.57 -0.04,3.13 -0.16,4.69 -0.08,1.04 -0.19,2.09 -0.34,3.13 -0.69,4.69 -2.28,11.23 -8.03,11.56 -1.11,0.06 -2.23,-0.05 -3.31,-0.28 -1.35,-0.29 -2.64,-0.85 -3.85,-1.5 -2.99,-1.61 -5.71,-3.83 -7.22,-6.94 -0.67,-1.39 -1.19,-3.02 -1.31,-4.56 -0.06,-0.81 -0.01,-1.63 -0.03,-2.44 -0.02,-0.78 -0.13,-1.56 -0.09,-2.34 0.04,-0.84 0.21,-1.67 0.31,-2.5 0.27,-2.3 0.69,-4.54 1.12,-6.82 0.49,-2.52 0.75,-5.12 1.35,-7.62 0.52,-2.17 1.78,-3.75 3.15,-5.5 0.83,-1.05 1.69,-2.05 2.66,-2.97 0.02,-0.01 0.05,-0.01 0.06,-0.03 z"
   fill="#ff0202"
   stroke="none"
   id="path285" />
</g>
<g
   opacity="1"
   id="g291">
<path
   d="m 1750.91,2070.84 c -3.36,0.1 -6.89,0.67 -10.19,1.32 -10.78,2.11 -21.23,6.44 -32.31,6.78 -4.81,0.14 -9.32,-1.04 -13.91,-2.35 -1.8,-0.51 -3.61,-0.91 -5.41,-1.43 -2.93,-0.86 -5.73,-2.17 -8.87,-2 -5.02,0.27 -8.96,3.29 -13.31,5.37 -2.51,1.2 -3.55,4.22 -2.35,6.72 1.2,2.5 4.19,3.57 6.69,2.37 3.11,-1.48 6,-3.7 9.41,-4.43 0.15,-0.04 0.69,0.11 0.9,0.15 0.78,0.17 1.54,0.43 2.28,0.69 1.72,0.6 3.44,1.09 5.19,1.56 3.46,0.95 6.89,2.07 10.41,2.79 3.03,0.61 6.12,0.9 9.22,0.84 13.75,-0.28 26.61,-5.95 40.15,-7.66 5.32,-0.67 10.82,0.39 16.1,1 2.91,0.34 5.54,-1.74 5.87,-4.65 0.34,-2.92 -1.77,-5.54 -4.69,-5.88 -5.05,-0.57 -10.09,-1.33 -15.18,-1.19 z"
   fill="#ff0202"
   stroke="none"
   id="path289" />
</g>
<g
   opacity="1"
   id="g295">
<path
   d="m 1666.72,2074.22 c -2.76,-0.29 -5.25,1.74 -5.53,4.5 -1.03,9.81 -0.42,19.66 -0.31,29.5 0.04,2.93 2.47,5.26 5.4,5.22 2.93,-0.05 5.26,-2.45 5.22,-5.38 -0.06,-3.27 -0.16,-6.51 -0.31,-9.78 -0.3,-6.2 -0.63,-12.37 0,-18.56 0.28,-2.76 -1.71,-5.22 -4.47,-5.5 z"
   fill="#ff0202"
   stroke="none"
   id="path293" />
</g>
<g
   opacity="1"
   id="g299">
<path
   d="m 1683.47,2076.19 c -2.74,-0.48 -5.37,1.36 -5.85,4.09 -1.29,7.31 -2.18,14.6 -2.28,22.03 -0.02,2.93 2.35,5.32 5.28,5.35 2.94,0.02 5.33,-2.32 5.35,-5.25 0.01,-6.84 0.4,-13.66 1.56,-20.41 0.48,-2.73 -1.33,-5.33 -4.06,-5.81 z"
   fill="#ff0202"
   stroke="none"
   id="path297" />
</g>
<g
   opacity="1"
   id="g303">
<path
   d="m 1699.94,2083.84 c -2.78,0 -5.03,2.26 -5.03,5.04 -0.02,3.85 -0.25,7.7 -0.29,11.56 0,2.93 2.38,5.31 5.32,5.31 2.93,0 5.31,-2.38 5.31,-5.31 -0.04,-3.86 -0.26,-7.71 -0.28,-11.56 0,-2.78 -2.26,-5.04 -5.03,-5.04 z"
   fill="#ff0202"
   stroke="none"
   id="path301" />
</g>
<path
   d="m 1297.13,788.483 h 511.94 c 2.98,0 5.4,2.42 5.4,5.405 v 173.919 c 0,2.985 -2.42,5.405 -5.4,5.405 h -511.94 c -2.98,0 -5.4,-2.42 -5.4,-5.405 V 793.888 c 0,-2.985 2.42,-5.405 5.4,-5.405 z"
   fill="#918989"
   fill-rule="nonzero"
   opacity="1"
   stroke="#000000"
   stroke-linecap="butt"
   stroke-linejoin="round"
   stroke-width="10"
   id="path305" />
</g>
</svg>
