<?xml version="1.0" encoding="UTF-8" standalone="no"?>
<!DOCTYPE svg PUBLIC "-//W3C//DTD SVG 1.1//EN" "http://www.w3.org/Graphics/SVG/1.1/DTD/svg11.dtd">
<!-- Created with Vectornator (http://vectornator.io/) -->
<svg height="100%" stroke-miterlimit="10" style="fill-rule:nonzero;clip-rule:evenodd;stroke-linecap:round;stroke-linejoin:round;" version="1.1" viewBox="0 0 3370.82 2384.24" width="100%" xml:space="preserve" xmlns="http://www.w3.org/2000/svg" xmlns:vectornator="http://vectornator.io" xmlns:xlink="http://www.w3.org/1999/xlink">
<defs/>
<clipPath id="ArtboardFrame">
<rect height="2384.24" width="3370.82" x="0" y="0"/>
</clipPath>
<g clip-path="url(#ArtboardFrame)" id="Ebene-1" vectornator:layerName="Ebene 1">
<path d="M971.623 683.479L1824.74 683.479C1911.31 683.479 1981.49 753.661 1981.49 840.235L1981.49 2113.88C1981.49 2200.45 1911.31 2270.63 1824.74 2270.63L971.623 2270.63C885.049 2270.63 814.866 2200.45 814.866 2113.88L814.866 840.235C814.866 753.661 885.049 683.479 971.623 683.479Z" fill="#50493e" fill-rule="nonzero" opacity="1" stroke="#beb9b1" stroke-linecap="butt" stroke-linejoin="round" stroke-opacity="0.189846" stroke-width="10"/>
<path d="M984.434 840.612C984.434 791.289 1026.44 751.306 1078.26 751.306C1130.08 751.306 1172.09 791.289 1172.09 840.612C1172.09 889.934 1130.08 929.917 1078.26 929.917C1026.44 929.917 984.434 889.934 984.434 840.612Z" fill="#000000" fill-rule="nonzero" opacity="1" stroke="#beb9b1" stroke-linecap="butt" stroke-linejoin="round" stroke-opacity="0.189846" stroke-width="10"/>
<path d="M1021.37 841.296C1021.37 808.601 1047.64 782.095 1080.04 782.095C1112.45 782.095 1138.72 808.601 1138.72 841.296C1138.72 873.992 1112.45 900.497 1080.04 900.497C1047.64 900.497 1021.37 873.992 1021.37 841.296Z" fill="#ff0202" fill-rule="nonzero" opacity="1" stroke="#beb9b1" stroke-linecap="butt" stroke-linejoin="round" stroke-opacity="0.189846" stroke-width="10"/>
<path d="M-430.892-94.2728C-430.892-100.516-426.843-105.577-421.849-105.577C-416.854-105.577-412.805-100.516-412.805-94.2728C-412.805-88.0294-416.854-82.9682-421.849-82.9682C-426.843-82.9682-430.892-88.0294-430.892-94.2728Z" fill="#ff0202" fill-rule="nonzero" opacity="1" stroke="#beb9b1" stroke-linecap="butt" stroke-linejoin="round" stroke-opacity="0.189846" stroke-width="10"/>
<path d="M972.788 1079.21L1162.74 1079.21C1165.72 1079.21 1168.14 1081.63 1168.14 1084.61L1168.14 1268.35C1168.14 1271.33 1165.72 1273.75 1162.74 1273.75L972.788 1273.75C969.803 1273.75 967.383 1271.33 967.383 1268.35L967.383 1084.61C967.383 1081.63 969.803 1079.21 972.788 1079.21Z" fill="#918989" fill-rule="nonzero" opacity="1" stroke="#beb9b1" stroke-linecap="butt" stroke-linejoin="round" stroke-opacity="0.189846" stroke-width="10"/>
<path d="M1311.48 1076.41L1501.43 1076.41C1504.42 1076.41 1506.84 1078.83 1506.84 1081.81L1506.84 1265.55C1506.84 1268.54 1504.42 1270.96 1501.43 1270.96L1311.48 1270.96C1308.5 1270.96 1306.08 1268.54 1306.08 1265.55L1306.08 1081.81C1306.08 1078.83 1308.5 1076.41 1311.48 1076.41Z" fill="#918989" fill-rule="nonzero" opacity="1" stroke="#beb9b1" stroke-linecap="butt" stroke-linejoin="round" stroke-opacity="0.189846" stroke-width="10"/>
<path d="M1624.12 1078.39L1814.07 1078.39C1817.05 1078.39 1819.47 1080.81 1819.47 1083.79L1819.47 1267.53C1819.47 1270.52 1817.05 1272.94 1814.07 1272.94L1624.12 1272.94C1621.14 1272.94 1618.72 1270.52 1618.72 1267.53L1618.72 1083.79C1618.72 1080.81 1621.14 1078.39 1624.12 1078.39Z" fill="#918989" fill-rule="nonzero" opacity="1" stroke="#beb9b1" stroke-linecap="butt" stroke-linejoin="round" stroke-opacity="0.189846" stroke-width="10"/>
<path d="M972.059 1369.28L1162.01 1369.28C1164.99 1369.28 1167.41 1371.7 1167.41 1374.68L1167.41 1558.42C1167.41 1561.41 1164.99 1563.83 1162.01 1563.83L972.059 1563.83C969.074 1563.83 966.654 1561.41 966.654 1558.42L966.654 1374.68C966.654 1371.7 969.074 1369.28 972.059 1369.28Z" fill="#918989" fill-rule="nonzero" opacity="1" stroke="#beb9b1" stroke-linecap="butt" stroke-linejoin="round" stroke-opacity="0.189846" stroke-width="10"/>
<path d="M1313.76 1374.64L1503.71 1374.64C1506.69 1374.64 1509.11 1377.06 1509.11 1380.05L1509.11 1563.79C1509.11 1566.77 1506.69 1569.19 1503.71 1569.19L1313.76 1569.19C1310.77 1569.19 1308.35 1566.77 1308.35 1563.79L1308.35 1380.05C1308.35 1377.06 1310.77 1374.64 1313.76 1374.64Z" fill="#918989" fill-rule="nonzero" opacity="1" stroke="#beb9b1" stroke-linecap="butt" stroke-linejoin="round" stroke-opacity="0.189846" stroke-width="10"/>
<path d="M1631.26 1372.57L1821.21 1372.57C1824.2 1372.57 1826.62 1374.99 1826.62 1377.98L1826.62 1561.72C1826.62 1564.7 1824.2 1567.12 1821.21 1567.12L1631.26 1567.12C1628.28 1567.12 1625.86 1564.7 1625.86 1561.72L1625.86 1377.98C1625.86 1374.99 1628.28 1372.57 1631.26 1372.57Z" fill="#918989" fill-rule="nonzero" opacity="1" stroke="#beb9b1" stroke-linecap="butt" stroke-linejoin="round" stroke-opacity="0.189846" stroke-width="10"/>
<path d="M970.602 1666.79L1160.55 1666.79C1163.53 1666.79 1165.95 1669.21 1165.95 1672.19L1165.95 1855.93C1165.95 1858.92 1163.53 1861.34 1160.55 1861.34L970.602 1861.34C967.616 1861.34 965.196 1858.92 965.196 1855.93L965.196 1672.19C965.196 1669.21 967.616 1666.79 970.602 1666.79Z" fill="#918989" fill-rule="nonzero" opacity="1" stroke="#beb9b1" stroke-linecap="butt" stroke-linejoin="round" stroke-opacity="0.189846" stroke-width="10"/>
<path d="M1315.3 1666.99L1505.25 1666.99C1508.24 1666.99 1510.66 1669.41 1510.66 1672.4L1510.66 1856.13C1510.66 1859.12 1508.24 1861.54 1505.25 1861.54L1315.3 1861.54C1312.32 1861.54 1309.9 1859.12 1309.9 1856.13L1309.9 1672.4C1309.9 1669.41 1312.32 1666.99 1315.3 1666.99Z" fill="#918989" fill-rule="nonzero" opacity="1" stroke="#beb9b1" stroke-linecap="butt" stroke-linejoin="round" stroke-opacity="0.189846" stroke-width="10"/>
<path d="M1635.72 1671.22L1825.67 1671.22C1828.66 1671.22 1831.08 1673.64 1831.08 1676.62L1831.08 1860.36C1831.08 1863.35 1828.66 1865.77 1825.67 1865.77L1635.72 1865.77C1632.74 1865.77 1630.32 1863.35 1630.32 1860.36L1630.32 1676.62C1630.32 1673.64 1632.74 1671.22 1635.72 1671.22Z" fill="#918989" fill-rule="nonzero" opacity="1" stroke="#beb9b1" stroke-linecap="butt" stroke-linejoin="round" stroke-opacity="0.189846" stroke-width="10"/>
<path d="M1317.06 1974.6L1507 1974.6C1509.99 1974.6 1512.41 1977.02 1512.41 1980L1512.41 2163.74C1512.41 2166.73 1509.99 2169.15 1507 2169.15L1317.06 2169.15C1314.07 2169.15 1311.65 2166.73 1311.65 2163.74L1311.65 1980C1311.65 1977.02 1314.07 1974.6 1317.06 1974.6Z" fill="#918989" fill-rule="nonzero" opacity="1" stroke="#beb9b1" stroke-linecap="butt" stroke-linejoin="round" stroke-opacity="0.189846" stroke-width="10"/>
<path d="M1640.5 1978.95L1830.45 1978.95C1833.43 1978.95 1835.85 1981.37 1835.85 1984.35L1835.85 2168.09C1835.85 2171.08 1833.43 2173.5 1830.45 2173.5L1640.5 2173.5C1637.52 2173.5 1635.1 2171.08 1635.1 2168.09L1635.1 1984.35C1635.1 1981.37 1637.52 1978.95 1640.5 1978.95Z" fill="#918989" fill-rule="nonzero" opacity="1" stroke="#beb9b1" stroke-linecap="butt" stroke-linejoin="round" stroke-opacity="0.189846" stroke-width="10"/>
<path d="M2274.08 1256.24L2267.55 1259.98" fill="none" opacity="1" stroke="#beb9b1" stroke-linecap="butt" stroke-linejoin="round" stroke-opacity="0.189846" stroke-width="10"/>
<g opacity="1">
<path d="M1077.84 1103.84C1076.58 1103.85 1075.33 1104.26 1074.25 1105.12C1071.78 1107.1 1071.6 1110.29 1070.56 1113.03C1070.36 1113.55 1069.96 1113.97 1069.66 1114.44C1069.35 1114.92 1069.03 1115.39 1068.72 1115.88C1067.45 1117.84 1066.19 1119.82 1064.97 1121.81C1062.52 1125.8 1060.25 1129.95 1057.5 1133.75C1053.96 1138.62 1049.58 1142.85 1045.84 1147.56C1041.91 1152.51 1038.17 1157.65 1034.44 1162.75C1028.69 1170.61 1023.17 1178.66 1019.09 1187.53C1017.93 1190.05 1019.04 1193.06 1021.56 1194.22C1024.09 1195.38 1027.06 1194.27 1028.22 1191.75C1032.28 1182.92 1037.93 1174.91 1043.69 1167.12C1045.91 1164.12 1048.18 1161.14 1050.44 1158.16C1051.92 1156.2 1053.39 1154.26 1054.97 1152.38C1058.51 1148.14 1062.43 1144.19 1065.69 1139.72C1067.59 1137.1 1069.24 1134.29 1070.94 1131.53C1072.19 1129.49 1073.48 1127.49 1074.75 1125.47C1074.53 1132.32 1073.82 1139.16 1073.44 1146C1073.23 1149.64 1073.2 1153.27 1073.31 1156.91C1073.51 1163.22 1074.14 1169.51 1074.5 1175.81C1074.7 1179.36 1074.77 1182.91 1074.84 1186.47C1074.99 1193.33 1075.06 1200.17 1075.22 1207.03C1075.31 1210.9 1075.56 1214.78 1075.47 1218.66C1075.35 1223.57 1074.81 1228.45 1074.44 1233.34C1074.18 1236.77 1074.03 1240.19 1073.94 1243.62C1073.86 1246.56 1076.19 1249.02 1079.12 1249.09C1082.06 1249.17 1084.49 1246.84 1084.56 1243.91C1084.65 1240.65 1084.79 1237.41 1085.03 1234.16C1085.41 1229.07 1085.95 1224.01 1086.06 1218.91C1086.16 1214.41 1085.86 1209.93 1085.75 1205.44C1085.6 1199.04 1085.55 1192.65 1085.41 1186.25C1085.32 1182.57 1085.22 1178.86 1085 1175.19C1084.58 1168.11 1083.8 1161.06 1083.69 1153.97C1083.63 1149.91 1083.87 1145.86 1084.16 1141.81C1084.51 1136.82 1084.95 1131.85 1085.12 1126.84C1085.18 1125.15 1085.2 1123.44 1085.19 1121.75C1085.18 1120.47 1085.11 1119.19 1085.19 1117.91C1085.47 1113.28 1085.95 1108 1081.5 1105C1080.38 1104.25 1079.11 1103.84 1077.84 1103.84Z" fill="#ff0202" stroke="none"/>
</g>
<g opacity="1">
<path d="M1399.91 1099.38C1393.31 1099.57 1386.86 1101.4 1381.38 1105.12C1377.79 1107.56 1374.72 1110.67 1372.12 1114.12C1370.58 1116.18 1369.22 1118.39 1367.84 1120.56C1364.84 1125.28 1361.92 1130.06 1359.59 1135.16C1358.3 1138 1357.15 1140.94 1356.34 1143.97C1355.99 1145.29 1355.75 1146.31 1355.66 1147.72C1355.47 1150.7 1356.34 1153.53 1356.62 1156.47C1356.9 1159.23 1359.36 1161.27 1362.12 1161C1364.89 1160.73 1366.9 1158.26 1366.62 1155.5C1366.48 1154.04 1366.25 1152.6 1366 1151.16C1365.84 1150.24 1365.62 1149.27 1365.69 1148.34C1365.77 1147.05 1366.29 1145.75 1366.69 1144.53C1367.51 1142.04 1368.55 1139.6 1369.72 1137.25C1371.85 1132.98 1374.4 1128.95 1376.97 1124.94C1380.18 1119.92 1383.74 1115.03 1389.12 1112.19C1394.78 1109.2 1401.11 1109.17 1407.31 1109.91C1409.96 1110.22 1412.8 1110.37 1415.28 1111.44C1417.19 1112.26 1418.84 1113.62 1420.34 1115.03C1421.87 1116.46 1422.99 1118.84 1423.91 1120.69C1425.36 1123.6 1426.71 1126.6 1427.84 1129.66C1430.09 1135.72 1431.7 1142.55 1430.66 1149.03C1430.12 1152.37 1428.33 1155.39 1427.09 1158.5C1425.31 1162.99 1423.58 1167.49 1421.69 1171.94C1419.24 1177.69 1416.63 1183.36 1413.94 1189C1411.41 1194.29 1408.77 1199.6 1405.44 1204.44C1403.15 1207.76 1400.52 1210.88 1397.94 1213.97C1393.31 1219.51 1388.51 1224.9 1384 1230.53C1382.47 1232.45 1380.86 1234.36 1379.47 1236.38C1378.74 1237.42 1378.08 1238.52 1377.44 1239.62C1376.28 1240.21 1375.18 1240.84 1374.09 1241.56C1370.51 1243.95 1365.42 1246.77 1366.28 1251.94C1366.36 1252.41 1366.48 1252.87 1366.66 1253.31C1366.83 1253.76 1367.08 1254.2 1367.34 1254.59C1367.76 1255.21 1368.45 1255.89 1369.06 1256.31C1372.36 1258.59 1376 1257.43 1378.75 1254.94C1379.84 1253.95 1380.76 1252.8 1381.72 1251.69C1382.62 1250.63 1383.47 1249.55 1384.28 1248.44C1386.98 1247.52 1389.77 1246.99 1392.62 1246.84C1404.95 1246.2 1417.32 1246.52 1429.62 1247.34C1443.14 1248.25 1456.61 1249.75 1470.06 1251.25C1472.98 1251.57 1475.58 1249.48 1475.91 1246.56C1476.23 1243.65 1474.13 1241.01 1471.22 1240.69C1452.13 1238.58 1433.03 1236.47 1413.81 1236.03C1408.25 1235.9 1402.68 1235.91 1397.12 1236.09C1395.69 1236.14 1394.25 1236.27 1392.81 1236.34C1394.51 1234.23 1396.22 1232.16 1397.97 1230.09C1401.64 1225.75 1405.34 1221.42 1408.91 1217C1411.05 1214.34 1413.14 1211.68 1415 1208.81C1418.43 1203.52 1421.21 1197.81 1423.91 1192.12C1427.28 1185 1430.45 1177.81 1433.41 1170.5C1434.71 1167.29 1435.86 1164 1437.22 1160.81C1438.47 1157.87 1439.9 1155.03 1440.53 1151.88C1441.81 1145.53 1441.06 1138.87 1439.44 1132.66C1437.95 1126.94 1435.61 1121.43 1432.97 1116.16C1431.58 1113.39 1430.04 1110.55 1427.91 1108.28C1425.11 1105.31 1421.51 1102.82 1417.62 1101.53C1414.68 1100.55 1411.57 1100.24 1408.5 1099.88C1405.63 1099.54 1402.8 1099.29 1399.91 1099.38Z" fill="#ff0202" stroke="none"/>
</g>
<g opacity="1">
<path d="M1703.5 1099.22C1697.99 1099.08 1692.19 1100.35 1687.16 1101.56C1685.54 1101.95 1683.93 1102.3 1682.31 1102.66C1676.09 1104.02 1669.6 1105.84 1665.47 1111.06C1664.19 1112.68 1663.37 1114.47 1663.12 1116.53C1662.92 1118.25 1663.2 1119.97 1663.06 1121.69C1662.85 1124.46 1664.95 1126.88 1667.72 1127.09C1670.49 1127.31 1672.88 1125.24 1673.09 1122.47C1673.18 1121.25 1673.16 1120.03 1673.12 1118.81C1673.12 1118.53 1673.11 1118.23 1673.12 1117.94C1673.13 1117.85 1673.12 1117.74 1673.12 1117.66C1673.13 1117.65 1673.12 1117.64 1673.12 1117.62C1675.92 1114.22 1680.36 1113.4 1684.47 1112.5C1686.16 1112.13 1687.82 1111.75 1689.5 1111.34C1694.18 1110.22 1699.08 1108.98 1703.94 1109.31C1706.05 1109.46 1708.39 1109.89 1710 1111.38C1711.29 1112.56 1712.19 1114.19 1713 1115.72C1713.92 1117.44 1714.74 1119.23 1715.69 1120.94C1716.48 1122.37 1717.35 1123.64 1718.38 1124.91C1718.92 1125.58 1719.6 1126.27 1719.81 1127.12C1719.77 1127.42 1719.84 1127.76 1719.81 1128.06C1719.74 1128.84 1719.55 1129.6 1719.31 1130.34C1718.55 1132.78 1717.31 1135.07 1715.97 1137.22C1713.95 1140.45 1711.59 1143.46 1709.03 1146.28C1705.94 1149.68 1702.71 1152.58 1698.59 1154.66C1696.26 1155.83 1694.28 1156.38 1691.75 1157.03C1690.32 1157.4 1688.77 1157.71 1687.59 1158.66C1686.6 1159.45 1686.01 1160.52 1685.72 1161.75C1685.68 1161.93 1685.65 1162.1 1685.62 1162.28C1685.62 1162.28 1685.63 1162.31 1685.62 1162.31C1685.57 1162.34 1685.62 1162.47 1685.62 1162.56C1685.63 1162.75 1685.61 1162.97 1685.62 1163.16C1685.7 1164.06 1686.01 1164.91 1686.53 1165.66C1688.29 1168.19 1691.35 1168.06 1694.16 1167.75C1699.01 1167.21 1703.57 1165.18 1708.44 1164.84C1711.77 1164.61 1715.14 1164.95 1718.44 1165.47C1730.23 1167.31 1744.46 1173.26 1748.78 1185.41C1749.54 1187.53 1749.94 1189.75 1750.03 1192C1750.14 1194.73 1749.85 1197.48 1748.94 1200.06C1746.5 1206.94 1740.16 1212.06 1735.06 1216.97C1728.95 1222.86 1723.05 1229.14 1715.44 1233.12C1709.22 1236.39 1702.29 1237.67 1695.34 1238.09C1692.72 1238.26 1689.95 1238.67 1687.34 1238.22C1685.67 1237.93 1684.02 1237.2 1682.53 1236.44C1679.89 1235.08 1677.42 1233.37 1674.91 1231.78C1672.43 1230.21 1669.16 1230.93 1667.59 1233.41C1666.03 1235.88 1666.77 1239.18 1669.25 1240.75C1674.09 1243.81 1678.9 1247.16 1684.56 1248.47C1688.71 1249.43 1693.05 1248.91 1697.25 1248.59C1705.96 1247.93 1714.5 1245.92 1722.12 1241.53C1730.27 1236.84 1736.64 1230.04 1743.38 1223.62C1747.61 1219.6 1751.95 1215.61 1755.22 1210.72C1759.76 1203.94 1761.35 1196.25 1760.19 1188.19C1759.8 1185.51 1759.1 1182.9 1758.06 1180.41C1751.83 1165.38 1735.27 1157.58 1720.03 1155.25C1718.41 1155 1716.75 1154.77 1715.09 1154.62C1715.99 1153.66 1716.91 1152.73 1717.75 1151.75C1720.23 1148.87 1722.55 1145.79 1724.56 1142.56C1727.46 1137.91 1730.54 1131.81 1729.91 1126.16C1729.7 1124.32 1729.11 1122.72 1728.16 1121.12C1727.28 1119.67 1725.99 1118.51 1725.12 1117.06C1722.78 1113.15 1721.21 1108.77 1718.16 1105.31C1714.25 1100.89 1709.01 1099.36 1703.5 1099.22Z" fill="#ff0202" stroke="none"/>
</g>
<g opacity="1">
<path d="M1017.22 1394.56C1016 1394.58 1014.8 1395.02 1013.75 1395.62C1013.08 1396.01 1012.71 1396.77 1012.28 1397.41C1011.65 1398.35 1011.55 1399.74 1011.5 1400.84C1011.42 1402.79 1011.65 1404.75 1011.47 1406.69C1011.29 1408.66 1012.32 1410.44 1013.91 1411.41C1014.05 1412.54 1014.16 1413.68 1014.31 1414.81C1014.69 1417.68 1014.97 1420.55 1015.16 1423.44C1015.65 1431.15 1015.4 1438.88 1014.62 1446.56C1014.57 1447.13 1014.24 1447.76 1014.06 1448.28C1013.75 1449.19 1013.44 1450.11 1013.25 1451.06C1012.67 1453.93 1013.22 1456.87 1015.47 1458.88C1016 1459.35 1016.57 1459.72 1017.22 1460.03C1019.6 1461.17 1022.24 1460.81 1024.59 1459.84C1025.58 1459.44 1026.57 1458.86 1027.59 1458.56C1028.81 1458.21 1030.25 1458.16 1031.5 1458.03C1034.74 1457.7 1037.97 1457.66 1041.22 1457.78C1054.54 1458.28 1067.8 1459.64 1081.12 1460.03C1094.42 1460.42 1107.52 1459.76 1120.56 1457.06C1123.43 1456.47 1125.28 1453.65 1124.69 1450.78C1124.09 1447.91 1121.28 1446.06 1118.41 1446.66C1113.41 1447.7 1108.4 1448.49 1103.31 1448.94C1084.31 1450.61 1065.23 1448.56 1046.25 1447.62C1040.48 1447.34 1034.75 1447.24 1029 1447.97C1027.39 1448.17 1025.86 1448.48 1024.34 1448.94C1024.65 1447.46 1024.91 1445.99 1025.03 1444.47C1025.54 1438.29 1025.68 1432.07 1025.41 1425.88C1025.27 1422.78 1025.03 1419.68 1024.69 1416.59C1024.43 1414.29 1024.01 1412.02 1023.78 1409.72C1023.41 1405.97 1023.89 1402.33 1022.31 1398.75C1021.99 1398.03 1021.6 1397.22 1021.06 1396.62C1020.71 1396.24 1020.4 1395.78 1019.94 1395.53C1019.09 1395.08 1018.18 1394.55 1017.22 1394.56Z" fill="#ff0202" stroke="none"/>
</g>
<g opacity="1">
<path d="M1065.16 1408.56C1063.23 1408.89 1061.57 1410.35 1061.09 1412.38C1059.88 1417.52 1059.15 1422.71 1058.94 1428C1058.46 1439.75 1060.06 1451.48 1060.22 1463.22C1060.49 1483.8 1058.22 1504.33 1055.94 1524.75C1055.62 1527.66 1057.71 1530.27 1060.62 1530.59C1063.54 1530.92 1066.15 1528.82 1066.47 1525.91C1068.76 1505.02 1070.97 1484.07 1070.5 1463.03C1070.37 1457.32 1069.99 1451.63 1069.59 1445.94C1069.14 1439.54 1068.71 1433.1 1069.09 1426.69C1069.34 1422.62 1069.94 1418.65 1070.88 1414.69C1071.51 1411.98 1069.86 1409.29 1067.16 1408.66C1066.48 1408.5 1065.8 1408.45 1065.16 1408.56Z" fill="#ff0202" stroke="none"/>
</g>
<g opacity="1">
<path d="M1360.16 1404.53C1357.39 1404.81 1355.37 1407.3 1355.66 1410.06C1356.36 1416.93 1358.25 1423.5 1359.72 1430.22C1360.22 1432.53 1360.64 1434.84 1360.94 1437.19C1360.99 1437.61 1361.04 1438.05 1361.09 1438.47C1361.14 1438.86 1361.2 1439.23 1361.25 1439.62C1361.25 1439.64 1361.22 1439.58 1361.22 1439.59C1360.94 1441.39 1360.54 1443.24 1360.5 1445.06C1360.43 1447.91 1361.5 1450.76 1363.81 1452.53C1366.21 1454.37 1369.15 1454.38 1372.03 1454.44C1373.39 1454.47 1374.7 1454.63 1376.06 1454.56C1377.36 1454.5 1378.67 1454.32 1379.97 1454.5C1384.94 1455.18 1389.9 1456.43 1394.69 1457.91C1400.66 1459.75 1406.54 1462.17 1411.81 1465.56C1416.51 1468.59 1420.95 1472.58 1423.12 1477.84C1424.57 1481.34 1424.51 1484.49 1424.19 1488.19C1423.92 1491.26 1423.55 1494.43 1422.47 1497.34C1421.83 1499.05 1421 1500.71 1419.94 1502.19C1414.37 1509.95 1403.71 1511.53 1394.94 1512.5C1393.19 1512.69 1391.43 1512.81 1389.69 1513.06C1387.64 1513.36 1385.61 1513.87 1383.53 1513.56C1376.7 1512.56 1370.81 1508.3 1365.41 1504.28C1363.05 1502.53 1359.75 1503.05 1358 1505.41C1356.25 1507.76 1356.74 1511.06 1359.09 1512.81C1365.65 1517.67 1372.67 1522.38 1380.84 1523.88C1382.28 1524.14 1383.73 1524.3 1385.19 1524.28C1387.42 1524.26 1389.58 1523.74 1391.78 1523.47C1393.22 1523.29 1394.66 1523.19 1396.09 1523.03C1407.85 1521.72 1420.2 1519.04 1427.81 1509.16C1429.22 1507.33 1430.42 1505.35 1431.38 1503.25C1432.54 1500.69 1433.34 1498.02 1433.81 1495.25C1434.51 1491.19 1434.95 1487 1434.78 1482.88C1434.67 1480.25 1434.11 1477.72 1433.22 1475.25C1428.49 1462.17 1415.41 1454.55 1403.03 1450C1400.39 1449.03 1397.71 1448.16 1395 1447.41C1391.66 1446.48 1388.28 1445.7 1384.88 1445.06C1382.62 1444.64 1380.37 1444.25 1378.06 1444.31C1376.93 1444.34 1375.79 1444.47 1374.66 1444.47C1373.85 1444.47 1373.05 1444.36 1372.25 1444.34C1371.75 1444.33 1371.28 1444.32 1370.78 1444.31C1370.92 1443.24 1371.11 1442.16 1371.22 1441.09C1371.39 1439.35 1371.16 1437.67 1370.94 1435.94C1369.79 1426.85 1366.59 1418.16 1365.66 1409.03C1365.37 1406.27 1362.92 1404.25 1360.16 1404.53Z" fill="#ff0202" stroke="none"/>
</g>
<g opacity="1">
<path d="M1429.78 1397.88C1429.09 1397.81 1428.39 1397.87 1427.69 1398.09C1417.16 1401.52 1406.39 1402.72 1395.44 1403.88C1393.23 1404.11 1390.96 1404.25 1388.78 1404.69C1387.17 1405.01 1385.64 1405.6 1384.03 1405.94C1383.14 1406.13 1382.22 1406.17 1381.31 1406.22C1373.9 1406.65 1366.67 1404.99 1359.56 1403.09C1356.88 1402.37 1354.13 1403.97 1353.41 1406.66C1352.69 1409.34 1354.29 1412.09 1356.97 1412.81C1365.11 1415 1373.36 1416.75 1381.84 1416.38C1383.24 1416.31 1384.62 1416.23 1386 1415.97C1387.61 1415.66 1389.17 1415.09 1390.78 1414.78C1392.63 1414.43 1394.59 1414.39 1396.47 1414.22C1403.53 1413.57 1410.62 1412.94 1417.59 1411.62C1422.13 1410.77 1426.58 1409.63 1430.97 1408.22C1433.76 1407.32 1435.28 1404.32 1434.38 1401.53C1433.7 1399.44 1431.84 1398.06 1429.78 1397.88Z" fill="#ff0202" stroke="none"/>
</g>
<g opacity="1">
<path d="M1725.03 1400.56C1723.49 1400.73 1721.94 1401.14 1720.47 1401.62C1717.06 1402.74 1713.82 1404.36 1710.72 1406.16C1705.31 1409.29 1700.19 1413.05 1695.56 1417.25C1692.14 1420.35 1688.9 1423.76 1686.44 1427.69C1682.27 1434.33 1680.52 1442 1677.75 1449.25C1675.84 1454.25 1673.65 1459.16 1672.34 1464.38C1671.22 1468.87 1671.05 1473.43 1671.22 1478C1670.95 1478.74 1670.67 1479.47 1670.38 1480.19C1669.48 1482.37 1670.18 1484.74 1671.88 1486.19C1672.18 1488.4 1672.48 1490.6 1672.78 1492.81C1673.54 1498.39 1674.47 1504.13 1678.19 1508.59C1681.24 1512.26 1685.54 1514.44 1689.88 1516.22C1696.98 1519.14 1704.62 1521.03 1712.31 1521.41C1715.63 1521.57 1718.97 1521.46 1722.25 1520.94C1727.76 1520.07 1734.15 1517.85 1738.25 1513.91C1740.73 1511.52 1741.97 1508.37 1743.62 1505.44C1745.33 1502.42 1747.25 1499.56 1748.88 1496.5C1753.36 1488.06 1756.23 1478.23 1751.16 1469.41C1750.31 1467.94 1749.31 1466.5 1748.09 1465.31C1746.44 1463.69 1744.36 1462.5 1742.31 1461.47C1739.32 1459.96 1736.18 1458.73 1733.03 1457.59C1718.13 1452.21 1701.46 1454.65 1687.62 1461.91C1685.96 1462.78 1684.42 1463.84 1682.84 1464.84C1684.06 1460.78 1685.68 1456.84 1687.19 1452.88C1689.6 1446.52 1691.08 1439.69 1694.53 1433.78C1696.85 1429.81 1700.24 1426.51 1703.69 1423.53C1707.44 1420.29 1711.46 1417.36 1715.75 1414.88C1718.24 1413.43 1720.85 1412.09 1723.59 1411.19C1724.4 1410.92 1725.28 1410.66 1726.12 1410.56C1728.39 1410.3 1730.73 1411.08 1732.97 1411.34C1735.73 1411.67 1738.24 1409.69 1738.56 1406.94C1738.89 1404.18 1736.91 1401.67 1734.16 1401.34C1731.04 1400.98 1728.24 1400.22 1725.03 1400.56ZM1715.12 1465.22C1719.83 1465.11 1724.52 1465.78 1729 1467.38C1731.69 1468.33 1734.37 1469.35 1736.94 1470.59C1738.23 1471.22 1739.65 1471.87 1740.72 1472.84C1741.24 1473.32 1741.68 1474.05 1742.03 1474.66C1745.35 1480.38 1741.8 1487.66 1738.97 1492.78C1737.41 1495.59 1735.62 1498.27 1734.09 1501.09C1733.19 1502.77 1732.39 1505.05 1731 1506.41C1730.18 1507.21 1729.11 1507.77 1728.09 1508.28C1726.63 1509.02 1725.12 1509.63 1723.53 1510.03C1721.57 1510.53 1719.58 1510.86 1717.56 1511C1714.89 1511.19 1712.2 1511.08 1709.53 1510.78C1704.64 1510.22 1699.82 1509.02 1695.22 1507.28C1693.21 1506.52 1691.18 1505.68 1689.31 1504.59C1687.96 1503.81 1686.69 1502.84 1685.75 1501.56C1684.43 1499.77 1683.9 1497.53 1683.5 1495.38C1683.1 1493.2 1682.85 1491 1682.53 1488.81C1682.15 1486.19 1681.75 1483.54 1681.47 1480.91C1681.53 1480.73 1681.59 1480.55 1681.66 1480.38C1681.89 1479.77 1682.13 1478.87 1682.56 1478.38C1682.95 1477.93 1683.32 1477.47 1683.75 1477.06C1684.72 1476.14 1685.93 1475.37 1687.03 1474.62C1688.81 1473.42 1690.66 1472.31 1692.56 1471.31C1699.44 1467.7 1707.28 1465.39 1715.12 1465.22Z" fill="#ff0202" stroke="none"/>
</g>
<g opacity="1">
<path d="M1109.53 1689.03C1107.7 1688.8 1105.74 1689.2 1103.94 1690.03C1102.7 1690.6 1101.57 1691.36 1100.38 1692C1100.16 1692.12 1099.92 1692.22 1099.69 1692.31C1099.63 1692.34 1099.43 1692.37 1099.5 1692.38C1096.07 1692.76 1092.65 1692.44 1089.22 1692.28C1063.12 1691.11 1037.02 1691.58 1011.03 1694.38C1008.27 1694.67 1006.27 1697.15 1006.56 1699.91C1006.86 1702.67 1009.33 1704.64 1012.09 1704.34C1035.93 1701.79 1059.93 1701.15 1083.88 1702.19C1086.56 1702.3 1089.25 1702.44 1091.94 1702.59C1094.94 1702.77 1097.95 1702.9 1100.94 1702.5C1102.04 1702.35 1103.06 1701.98 1104.06 1701.53C1104.04 1701.59 1104.02 1701.66 1104 1701.72C1103.08 1704.74 1101.92 1707.66 1100.53 1710.5C1098.25 1715.17 1095.57 1719.61 1093.12 1724.19C1090.82 1728.49 1088.82 1732.95 1086.97 1737.47C1081.97 1749.67 1078.31 1762.32 1074.06 1774.78C1071.9 1781.12 1068.78 1787.1 1066.88 1793.53C1065.08 1799.6 1064.18 1805.88 1062.88 1812.06C1062.22 1815.18 1061.37 1818.22 1060.47 1821.28C1059.64 1824.1 1061.25 1827.05 1064.06 1827.88C1066.88 1828.7 1069.83 1827.06 1070.66 1824.25C1071.63 1820.93 1072.54 1817.61 1073.25 1814.22C1074.41 1808.68 1075.22 1803.09 1076.72 1797.62C1077.98 1793.03 1079.94 1788.7 1081.75 1784.31C1082.84 1781.66 1083.79 1778.98 1084.69 1776.25C1089.03 1763.06 1092.97 1749.67 1098.56 1736.94C1100.42 1732.7 1102.55 1728.64 1104.78 1724.59C1107.19 1720.22 1109.62 1715.83 1111.56 1711.22C1112.11 1709.93 1112.61 1708.61 1113.06 1707.28C1113.49 1706.03 1113.82 1704.77 1114.28 1703.53C1115.71 1699.71 1117.35 1695.42 1114.41 1691.78C1113.07 1690.13 1111.36 1689.26 1109.53 1689.03Z" fill="#ff0202" stroke="none"/>
</g>
<g opacity="1">
<path d="M1130.03 1752.88C1126.92 1752.95 1123.8 1753.04 1120.69 1753.28C1113.98 1753.81 1107.32 1754.7 1100.59 1754.91C1094.22 1755.1 1087.84 1754.78 1081.47 1754.78C1076.25 1754.78 1071.07 1755.06 1065.88 1755.56C1052.67 1756.84 1039.58 1759.34 1026.41 1760.91C1023.65 1761.23 1021.67 1763.71 1022 1766.47C1022.33 1769.23 1024.84 1771.2 1027.59 1770.88C1040.68 1769.34 1053.68 1766.9 1066.81 1765.75C1070.9 1765.39 1074.99 1765.14 1079.09 1765.12C1086.77 1765.09 1094.42 1765.59 1102.09 1765.41C1108.59 1765.25 1115.06 1764.34 1121.53 1763.84C1124.45 1763.62 1127.36 1763.53 1130.28 1763.47C1133.21 1763.4 1135.54 1760.96 1135.47 1758.03C1135.4 1755.1 1132.96 1752.81 1130.03 1752.88Z" fill="#ff0202" stroke="none"/>
</g>
<g opacity="1">
<path d="M1404.16 1681.62C1394.07 1682.03 1386.06 1689.04 1379.22 1695.75C1377.67 1697.27 1375.89 1698.54 1374.38 1700.09C1373.38 1701.11 1372.51 1702.24 1371.75 1703.44C1369.65 1706.76 1368.63 1710.72 1367.72 1714.5C1366.73 1718.59 1364.85 1722.88 1366.09 1727.12C1367.22 1730.97 1370.47 1733.94 1373.66 1736.12C1375.18 1737.17 1376.77 1738.22 1378.44 1739.03C1380.71 1740.14 1383.13 1740.92 1385.53 1741.69C1387.05 1742.17 1388.59 1742.59 1390.12 1743.03C1385.36 1746.71 1380.82 1750.66 1376.66 1755C1373.1 1758.71 1369.95 1762.74 1367 1766.94C1365.3 1769.36 1363.68 1771.87 1362.25 1774.47C1360.42 1777.81 1358.94 1781.25 1359.12 1785.12C1359.29 1788.71 1360.59 1792.18 1361.69 1795.56C1366.05 1809.05 1375.39 1820.16 1388.75 1825.47C1393.72 1827.45 1399.03 1828.56 1404.38 1828.84C1414.78 1829.4 1425.24 1826.88 1434.47 1822.12C1438.22 1820.19 1441.62 1817.85 1445 1815.34C1451.94 1810.19 1458.32 1805.29 1461.59 1797C1468.34 1779.89 1458.02 1760.91 1444.62 1750.28C1442.06 1748.25 1439.3 1746.44 1436.38 1744.97C1429.84 1741.69 1422.7 1740.11 1415.53 1738.69C1415.81 1738.52 1416.09 1738.35 1416.38 1738.19C1416.9 1737.87 1417.43 1737.54 1418 1737.31C1419.5 1736.71 1421.1 1736.38 1422.59 1735.75C1424.39 1734.99 1425.92 1734.05 1427.31 1732.69C1429.64 1730.4 1431.18 1727.12 1432.47 1724.19C1433.26 1722.38 1433.96 1720.53 1434.59 1718.66C1435.23 1716.78 1435.79 1714.87 1436.25 1712.94C1437.58 1707.36 1438.01 1702.14 1435.47 1696.84C1434.66 1695.15 1435.48 1696.85 1431.16 1691.66C1430.56 1691.23 1429.89 1690.96 1429.22 1690.81C1429.21 1690.81 1429.2 1690.81 1429.19 1690.81C1426.27 1689.06 1425.51 1688.54 1423.56 1687.47C1417.63 1684.2 1411.07 1681.35 1404.16 1681.62ZM1404.56 1691.66C1406.37 1691.58 1408.17 1691.91 1409.91 1692.41C1412.52 1693.16 1410.85 1692.8 1424.47 1699.75C1424.66 1699.93 1424.78 1700.16 1425 1700.31C1425.9 1701.43 1425.68 1701.03 1425.88 1701.44C1426.29 1702.31 1426.6 1703.32 1426.72 1704.28C1426.92 1705.95 1426.53 1707.73 1426.19 1709.34C1425.59 1712.18 1424.72 1714.95 1423.69 1717.66C1423.01 1719.43 1422.26 1721.18 1421.34 1722.84C1421.02 1723.44 1420.67 1724.04 1420.28 1724.59C1420.17 1724.75 1420.06 1724.88 1419.94 1725.03C1419.89 1725.09 1419.86 1725.13 1419.81 1725.19C1419.63 1725.34 1419.45 1725.5 1419.25 1725.62C1419.03 1725.76 1418.8 1725.85 1418.56 1725.94C1417.39 1726.39 1416.15 1726.7 1414.97 1727.12C1411.61 1728.33 1408.57 1730.49 1405.56 1732.38C1404.01 1733.35 1402.56 1734.49 1401.03 1735.5C1397.56 1734.63 1394.11 1733.75 1390.69 1732.72C1387.62 1731.79 1384.39 1730.92 1381.62 1729.25C1379.55 1727.99 1376.99 1726.61 1375.81 1724.38C1375.58 1723.94 1375.88 1723.04 1376 1722.56C1376.31 1721.32 1376.73 1720.12 1377.03 1718.88C1377.7 1716.14 1378.28 1713.37 1379.34 1710.75C1379.74 1709.77 1380.18 1708.78 1380.84 1707.94C1382.16 1706.27 1384.05 1705.03 1385.59 1703.59C1390.78 1698.76 1396.9 1691.97 1404.56 1691.66ZM1403.56 1746.38C1407.15 1747.17 1410.73 1748.07 1414.34 1748.81C1420.25 1750.03 1426.36 1751.32 1431.78 1754.06C1437.23 1756.82 1441.99 1761.03 1445.72 1765.84C1447.64 1768.32 1449.32 1770.99 1450.62 1773.84C1451.7 1776.19 1452.53 1778.65 1453 1781.19C1453.37 1783.22 1453.5 1785.32 1453.34 1787.38C1453.21 1789.04 1452.88 1790.67 1452.34 1792.25C1450.03 1799.05 1444.39 1802.9 1438.84 1807C1434.46 1810.24 1429.92 1813.1 1424.81 1815.09C1412.73 1819.81 1398.38 1820.01 1387.12 1812.97C1382.5 1810.07 1378.77 1806.11 1375.88 1801.5C1373.3 1797.41 1371.78 1792.82 1370.41 1788.22C1370.26 1787.74 1370.13 1787.24 1370 1786.75C1369.81 1786.02 1369.46 1784.3 1369.69 1783.75C1369.79 1783.51 1369.82 1783.19 1369.91 1782.94C1370.14 1782.28 1370.41 1781.66 1370.72 1781.03C1372.48 1777.41 1374.85 1774.05 1377.22 1770.81C1384.38 1761.04 1393.63 1753.21 1403.56 1746.38Z" fill="#ff0202" stroke="none"/>
</g>
<g opacity="1">
<path d="M1735.25 1678.81C1725.9 1678.74 1716.35 1679.7 1707.38 1682.44C1702.22 1684.01 1697.11 1686.25 1692.91 1689.69C1686.57 1694.87 1683.35 1702.54 1679.94 1709.75C1676.83 1716.32 1673.68 1723.13 1672.88 1730.44C1672.46 1734.2 1672.78 1738.17 1674.72 1741.5C1679.32 1749.39 1690.29 1751.09 1698.53 1751.53C1700.2 1751.62 1701.86 1751.64 1703.53 1751.66C1709.72 1751.72 1716.09 1751.81 1722.09 1750.06C1726.47 1748.79 1730.43 1746.52 1734.09 1743.84C1735.74 1742.65 1737.28 1741.35 1738.91 1740.12C1741.28 1738.34 1743.59 1736.68 1745.44 1734.31C1746.94 1732.39 1748.2 1730.2 1749.31 1727.94C1749.91 1730.3 1750.62 1732.63 1751.5 1734.91C1752.72 1738.08 1753.98 1741.22 1754.56 1744.59C1755.19 1748.24 1755.28 1752.03 1755.31 1755.72C1755.38 1763.3 1754.78 1770.89 1755 1778.47C1755.2 1785.49 1756.33 1792.39 1756.91 1799.38C1757.36 1804.92 1757.46 1810.6 1756.06 1816.03C1755.54 1818.04 1754.85 1820.01 1753.88 1821.84C1753.17 1823.17 1752.32 1824.42 1751.31 1825.53C1747.63 1829.6 1742.12 1831.07 1736.88 1831.88C1733.73 1832.36 1730.57 1832.61 1727.41 1832.91C1718.26 1833.76 1708.88 1834.25 1699.94 1831.72C1694.93 1830.3 1690.32 1827.92 1685.97 1825.09C1684.25 1823.97 1682.46 1822.82 1681.38 1821.03C1681.22 1820.78 1681.22 1819.34 1681.22 1818.81C1681.23 1817.41 1681.24 1816.03 1681.12 1814.62C1680.88 1811.7 1678.33 1809.51 1675.41 1809.75C1672.48 1809.99 1670.32 1812.58 1670.56 1815.5C1670.87 1819.02 1670.21 1822.39 1671.84 1825.72C1673.61 1829.34 1676.86 1831.85 1680.16 1834C1685.96 1837.78 1692.22 1840.75 1698.97 1842.41C1708.62 1844.77 1718.6 1844.39 1728.41 1843.47C1739.82 1842.4 1751.92 1841.25 1759.78 1831.91C1761.33 1830.06 1762.63 1828.01 1763.69 1825.84C1765.06 1823.03 1766.06 1820.02 1766.72 1816.97C1769.49 1804.04 1765.93 1791.11 1765.53 1778.16C1765.25 1768.84 1766.16 1759.5 1765.62 1750.19C1765.48 1747.73 1765.3 1745.24 1764.88 1742.81C1764.46 1740.42 1763.8 1738.1 1763 1735.81C1761.88 1732.62 1760.43 1729.54 1759.5 1726.28C1758.76 1723.71 1758.52 1721.06 1758.34 1718.41C1758.13 1715.28 1758.06 1712.14 1758.06 1709C1758.06 1707.34 1757.98 1705.62 1758.19 1703.97C1758.32 1702.94 1758.65 1701.94 1758.91 1700.94C1759.26 1699.56 1759.45 1698.13 1759.53 1696.72C1759.78 1696.56 1760.06 1696.46 1760.28 1696.25C1762.29 1694.33 1762.38 1691.17 1760.47 1689.16C1758.94 1687.56 1757.71 1685.66 1756.12 1684.12C1755.03 1683.06 1753.78 1682.16 1752.44 1681.44C1750.89 1680.6 1749.12 1680.08 1747.41 1679.72C1743.45 1678.88 1739.27 1678.84 1735.25 1678.81ZM1735.62 1688.84C1738.08 1688.86 1740.51 1688.98 1742.94 1689.22C1744.73 1689.4 1746.96 1689.62 1748.47 1690.72C1748.55 1690.77 1748.58 1690.88 1748.66 1690.94C1748.58 1691.1 1748.48 1691.24 1748.41 1691.41C1747.86 1692.59 1747.7 1694 1747.56 1695.28C1747.37 1697.07 1747.32 1698.9 1747.06 1700.69C1746.87 1702.03 1746.46 1703.36 1746.16 1704.69C1745.49 1707.56 1744.81 1710.4 1743.97 1713.22C1742.81 1717.1 1741.42 1720.96 1739.5 1724.53C1738.86 1725.73 1738.17 1726.94 1737.34 1728.03C1735.8 1730.06 1733.44 1731.38 1731.47 1732.94C1727.72 1735.9 1723.91 1738.91 1719.25 1740.28C1713.97 1741.83 1707.98 1741.58 1702.53 1741.5C1697.99 1741.43 1693.33 1741.21 1688.97 1739.84C1687.14 1739.27 1685.17 1738.41 1683.88 1736.94C1682.02 1734.82 1682.96 1730.54 1683.53 1728.22C1685.04 1722.08 1687.97 1716.41 1690.62 1710.72C1692.56 1706.58 1694.55 1702.25 1697.75 1698.91C1700.69 1695.84 1704.7 1693.95 1708.66 1692.59C1714.95 1690.43 1721.66 1689.46 1728.28 1689.06C1730.71 1688.92 1733.17 1688.83 1735.62 1688.84Z" fill="#ff0202" stroke="none"/>
</g>
<g opacity="1">
<path d="M1403.88 1994C1400.87 1993.89 1397.88 1994.12 1394.91 1994.81C1388.96 1996.2 1383.65 1999.37 1378.31 2002.22C1376.48 2003.2 1374.63 2004.11 1372.75 2005C1370.1 2006.26 1368.99 2009.45 1370.25 2012.09C1370.36 2012.33 1370.55 2012.48 1370.69 2012.69C1369.63 2014.21 1368.62 2015.76 1367.88 2017.47C1366.47 2020.67 1365.67 2024.12 1364.5 2027.41C1362.85 2032.05 1361.03 2036.62 1359.53 2041.31C1358.81 2043.59 1358.13 2045.86 1357.59 2048.19C1356.64 2052.3 1356.19 2056.58 1355.88 2060.78C1355.37 2067.66 1355.42 2074.6 1356 2081.47C1356.68 2089.59 1358.01 2097.93 1361.31 2105.44C1364.1 2111.77 1368.77 2116.84 1372.84 2122.34C1373.34 2123.02 1373.87 2123.69 1374.25 2124.44C1375.01 2125.94 1375.52 2127.57 1376.31 2129.06C1377.05 2130.45 1377.97 2131.77 1379.06 2132.91C1381.67 2135.63 1385.43 2136.86 1388.84 2138.22C1391.2 2139.16 1393.46 2140.26 1395.88 2141.06C1399.82 2142.38 1403.96 2143.13 1408.12 2143.22C1413.69 2143.34 1419.29 2142.35 1424.62 2140.81C1432.03 2138.67 1438.35 2134.23 1443.28 2128.34C1447.23 2123.63 1450.27 2118.22 1453.16 2112.81C1455.58 2108.27 1457.86 2103.72 1459.28 2098.75C1461.24 2091.91 1461.63 2084.77 1462.22 2077.72C1462.82 2070.56 1463.02 2063.38 1462.44 2056.22C1461.68 2046.98 1459.59 2037.91 1456.03 2029.34C1453.84 2024.07 1451.1 2019.09 1448.03 2014.28C1446.15 2011.32 1444.12 2008.48 1441.47 2006.16C1439.03 2004.01 1436.2 2002.33 1433.19 2001.12C1430.35 1999.99 1427.37 1999.27 1424.44 1998.44C1420.58 1997.34 1416.79 1996.07 1412.88 1995.22C1409.92 1994.57 1406.88 1994.11 1403.88 1994ZM1403.44 2004.56C1409.59 2004.76 1415.75 2006.98 1421.56 2008.62C1425.91 2009.86 1430.41 2010.82 1434 2013.72C1436.54 2015.77 1438.26 2018.55 1439.97 2021.28C1442.39 2025.14 1444.53 2029.16 1446.28 2033.38C1449.73 2041.66 1451.61 2050.49 1452.12 2059.44C1452.49 2065.75 1452.15 2072.02 1451.62 2078.31C1451.13 2084.2 1450.84 2090.19 1449.22 2095.91C1448.01 2100.17 1446.03 2104.04 1443.97 2107.94C1438.94 2117.43 1433.28 2127.17 1422.5 2130.66C1416.46 2132.61 1409.6 2133.65 1403.31 2132.44C1399.89 2131.78 1396.73 2130.43 1393.53 2129.09C1391.71 2128.33 1389.79 2127.75 1388.03 2126.84C1387.51 2126.57 1386.86 2126.24 1386.44 2125.81C1385.08 2124.43 1384.58 2122.44 1383.78 2120.72C1382.79 2118.59 1381.4 2116.73 1379.97 2114.88C1376.63 2110.55 1372.83 2106.4 1370.59 2101.34C1367.74 2094.88 1366.66 2087.62 1366.06 2080.62C1365.49 2073.91 1365.47 2067.12 1366.03 2060.41C1366.31 2057.1 1366.65 2053.71 1367.41 2050.47C1367.96 2048.11 1368.66 2045.8 1369.44 2043.5C1371.01 2038.86 1372.78 2034.29 1374.38 2029.66C1375.4 2026.69 1376.07 2023.55 1377.47 2020.72C1378.21 2019.22 1379.23 2017.85 1380.25 2016.53C1381.74 2014.6 1383.43 2012.79 1385.44 2011.38C1385.88 2011.06 1386.55 2010.56 1387.06 2010.38C1387.77 2010.12 1388.8 2010.37 1389.5 2010.47C1391.05 2010.68 1392.59 2010.91 1394.16 2010.97C1396.93 2011.06 1399.25 2008.9 1399.34 2006.12C1399.36 2005.72 1399.23 2005.35 1399.16 2004.97C1400.58 2004.76 1402 2004.52 1403.44 2004.56Z" fill="#ff0202" stroke="none"/>
</g>
<g opacity="1">
<path d="M1782.44 2052.97C1780.5 2053.15 1778.16 2054.55 1776.56 2055.62C1773.49 2057.7 1770.98 2060.48 1768.78 2063.44C1767.39 2065.3 1766.08 2067.2 1765.31 2069.41C1764.16 2072.72 1763.83 2076.25 1763.16 2079.69C1762.86 2081.18 1762.52 2082.68 1762.28 2084.19C1762.05 2085.65 1761.89 2087.15 1761.72 2088.62C1761.65 2089.22 1761.56 2089.81 1761.53 2090.41C1761.48 2091.44 1761.54 2092.47 1761.56 2093.5C1761.58 2094.51 1761.57 2095.53 1761.66 2096.53C1762.46 2106.37 1769.22 2113.82 1778.03 2117.56C1780.81 2118.74 1783.79 2119.35 1786.81 2119.38C1788.81 2119.39 1790.82 2119.13 1792.72 2118.5C1803.23 2115.04 1805.95 2103.02 1806.47 2093.28C1806.53 2092.06 1806.56 2090.88 1806.56 2089.66C1806.57 2088.03 1806.53 2086.43 1806.47 2084.81C1806.26 2079.35 1806.85 2074.16 1803.47 2069.41C1801.98 2067.32 1799.97 2065.75 1798.19 2063.94C1795.88 2061.58 1793.78 2059.03 1790.81 2057.47C1790.08 2057.08 1789.26 2056.76 1788.44 2056.62C1788.13 2055.81 1787.71 2055.02 1786.97 2054.38C1786.57 2054.03 1786.14 2053.73 1785.66 2053.5C1785.15 2053.26 1784.62 2053.06 1784.06 2052.97C1783.54 2052.88 1782.97 2052.92 1782.44 2052.97ZM1780.31 2065.5C1780.93 2067.27 1782.4 2068.7 1784.38 2069.03C1784.79 2069.29 1786.07 2069.14 1786.5 2069.06C1787.02 2068.97 1787.37 2068.65 1787.81 2068.44C1788.41 2069.02 1788.99 2069.62 1789.56 2070.22C1790.82 2071.54 1792.16 2072.76 1793.47 2074.03C1794.28 2074.82 1795.1 2075.64 1795.44 2076.75C1796.15 2079.12 1795.82 2081.81 1795.88 2084.25C1795.92 2086.05 1796 2087.83 1796 2089.62C1796 2091.19 1795.96 2092.75 1795.84 2094.31C1795.76 2095.35 1795.65 2096.4 1795.5 2097.44C1794.81 2102.13 1793.22 2108.67 1787.47 2109C1786.36 2109.06 1785.24 2108.95 1784.16 2108.72C1782.81 2108.43 1781.52 2107.87 1780.31 2107.22C1777.32 2105.61 1774.6 2103.39 1773.09 2100.28C1772.42 2098.89 1771.9 2097.26 1771.78 2095.72C1771.72 2094.91 1771.77 2094.09 1771.75 2093.28C1771.73 2092.5 1771.62 2091.72 1771.66 2090.94C1771.7 2090.1 1771.87 2089.27 1771.97 2088.44C1772.24 2086.14 1772.66 2083.9 1773.09 2081.62C1773.58 2079.1 1773.84 2076.5 1774.44 2074C1774.96 2071.83 1776.22 2070.25 1777.59 2068.5C1778.42 2067.45 1779.28 2066.45 1780.25 2065.53C1780.27 2065.52 1780.3 2065.52 1780.31 2065.5Z" fill="#ff0202" stroke="none"/>
</g>
<g opacity="1">
<path d="M1750.91 2070.84C1747.55 2070.94 1744.02 2071.51 1740.72 2072.16C1729.94 2074.27 1719.49 2078.6 1708.41 2078.94C1703.6 2079.08 1699.09 2077.9 1694.5 2076.59C1692.7 2076.08 1690.89 2075.68 1689.09 2075.16C1686.16 2074.3 1683.36 2072.99 1680.22 2073.16C1675.2 2073.43 1671.26 2076.45 1666.91 2078.53C1664.4 2079.73 1663.36 2082.75 1664.56 2085.25C1665.76 2087.75 1668.75 2088.82 1671.25 2087.62C1674.36 2086.14 1677.25 2083.92 1680.66 2083.19C1680.81 2083.15 1681.35 2083.3 1681.56 2083.34C1682.34 2083.51 1683.1 2083.77 1683.84 2084.03C1685.56 2084.63 1687.28 2085.12 1689.03 2085.59C1692.49 2086.54 1695.92 2087.66 1699.44 2088.38C1702.47 2088.99 1705.56 2089.28 1708.66 2089.22C1722.41 2088.94 1735.27 2083.27 1748.81 2081.56C1754.13 2080.89 1759.63 2081.95 1764.91 2082.56C1767.82 2082.9 1770.45 2080.82 1770.78 2077.91C1771.12 2074.99 1769.01 2072.37 1766.09 2072.03C1761.04 2071.46 1756 2070.7 1750.91 2070.84Z" fill="#ff0202" stroke="none"/>
</g>
<g opacity="1">
<path d="M1666.72 2074.22C1663.96 2073.93 1661.47 2075.96 1661.19 2078.72C1660.16 2088.53 1660.77 2098.38 1660.88 2108.22C1660.92 2111.15 1663.35 2113.48 1666.28 2113.44C1669.21 2113.39 1671.54 2110.99 1671.5 2108.06C1671.44 2104.79 1671.34 2101.55 1671.19 2098.28C1670.89 2092.08 1670.56 2085.91 1671.19 2079.72C1671.47 2076.96 1669.48 2074.5 1666.72 2074.22Z" fill="#ff0202" stroke="none"/>
</g>
<g opacity="1">
<path d="M1683.47 2076.19C1680.73 2075.71 1678.1 2077.55 1677.62 2080.28C1676.33 2087.59 1675.44 2094.88 1675.34 2102.31C1675.32 2105.24 1677.69 2107.63 1680.62 2107.66C1683.56 2107.68 1685.95 2105.34 1685.97 2102.41C1685.98 2095.57 1686.37 2088.75 1687.53 2082C1688.01 2079.27 1686.2 2076.67 1683.47 2076.19Z" fill="#ff0202" stroke="none"/>
</g>
<g opacity="1">
<path d="M1699.94 2083.84C1697.16 2083.84 1694.91 2086.1 1694.91 2088.88C1694.89 2092.73 1694.66 2096.58 1694.62 2100.44C1694.62 2103.37 1697 2105.75 1699.94 2105.75C1702.87 2105.75 1705.25 2103.37 1705.25 2100.44C1705.21 2096.58 1704.99 2092.73 1704.97 2088.88C1704.97 2086.1 1702.71 2083.84 1699.94 2083.84Z" fill="#ff0202" stroke="none"/>
</g>
<path d="M1297.13 788.483L1809.07 788.483C1812.05 788.483 1814.47 790.903 1814.47 793.888L1814.47 967.807C1814.47 970.792 1812.05 973.212 1809.07 973.212L1297.13 973.212C1294.15 973.212 1291.73 970.792 1291.73 967.807L1291.73 793.888C1291.73 790.903 1294.15 788.483 1297.13 788.483Z" fill="#918989" fill-rule="nonzero" opacity="1" stroke="#000000" stroke-linecap="butt" stroke-linejoin="round" stroke-width="10"/>
</g>
</svg>
