<?xml version="1.0" encoding="UTF-8" standalone="no"?>
<!-- Created with Vectornator (http://vectornator.io/) -->

<svg
   height="1077.724"
   stroke-miterlimit="10"
   style="clip-rule:evenodd;fill-rule:nonzero;stroke-linecap:round;stroke-linejoin:round"
   version="1.1"
   viewBox="0 0 651.83801 1077.724"
   width="651.83801"
   xml:space="preserve"
   id="svg66"
   sodipodi:docname="Tür.svg"
   inkscape:version="1.2.2 (732a01da63, 2022-12-09)"
   xmlns:inkscape="http://www.inkscape.org/namespaces/inkscape"
   xmlns:sodipodi="http://sodipodi.sourceforge.net/DTD/sodipodi-0.dtd"
   xmlns="http://www.w3.org/2000/svg"
   xmlns:svg="http://www.w3.org/2000/svg"
   xmlns:vectornator="http://vectornator.io"><sodipodi:namedview
   id="namedview68"
   pagecolor="#ffffff"
   bordercolor="#000000"
   borderopacity="0.25"
   inkscape:showpageshadow="2"
   inkscape:pageopacity="0.0"
   inkscape:pagecheckerboard="0"
   inkscape:deskcolor="#d1d1d1"
   showgrid="false"
   inkscape:zoom="0.70710678"
   inkscape:cx="917.8246"
   inkscape:cy="683.06515"
   inkscape:window-width="1920"
   inkscape:window-height="1017"
   inkscape:window-x="-8"
   inkscape:window-y="-8"
   inkscape:window-maximized="1"
   inkscape:current-layer="svg66" />
<defs
   id="defs2" />
<clipPath
   id="ArtboardFrame">
<rect
   height="1683.99"
   width="2384.24"
   x="0"
   y="0"
   id="rect4" />
</clipPath>
<g
   clip-path="url(#ArtboardFrame)"
   id="Ebene-1"
   vectornator:layerName="Ebene 1"
   transform="translate(-1066.4016,-604.266)">
<path
   d="m 2237.94,1835.29 h 5.36 v 0 z"
   fill="#bca17b"
   fill-rule="nonzero"
   opacity="1"
   stroke="#bca17b"
   stroke-linecap="butt"
   stroke-linejoin="round"
   stroke-width="10"
   id="path7" />
<path
   d="m 1076.92,609.266 h 633.65 V 1674.63 h -633.65 z"
   fill="#7b7875"
   fill-rule="nonzero"
   opacity="1"
   stroke="#33312e"
   stroke-linecap="butt"
   stroke-linejoin="round"
   stroke-width="10"
   id="path9" />
<path
   d="m 2565.3,1462.25 h 1.74 v 1.74 h -1.74 z"
   fill="#8f8373"
   fill-rule="nonzero"
   opacity="1"
   stroke="#a8a094"
   stroke-linecap="butt"
   stroke-linejoin="round"
   stroke-width="10"
   id="path11" />
<g
   opacity="1"
   id="g15">
<path
   d="m 1296.78,607.531 c -0.69,0.012 -1.39,0.141 -2.06,0.438 -9.94,4.405 -18.65,10.824 -26.94,17.781 -3.84,3.227 -7.68,6.512 -11.4,9.875 -7.04,6.344 -13.78,12.972 -21.07,19.031 -5.46,4.539 -11.03,8.981 -16.37,13.656 -7.99,6.983 -15.74,14.207 -23.47,21.469 -11.93,11.208 -23.67,22.623 -35.19,34.25 -7.61,7.688 -15.1,15.503 -22.59,23.313 -16.12,16.808 -32.3,33.524 -47.66,51.031 -1.83,2.086 -1.62,5.262 0.47,7.094 2.09,1.831 5.26,1.618 7.09,-0.469 15.28,-17.389 31.37,-33.982 47.41,-50.656 18.73,-19.47 37.81,-38.537 57.56,-56.969 7.67,-7.151 15.38,-14.307 23.28,-21.187 5.29,-4.604 10.79,-8.938 16.19,-13.407 7.42,-6.134 14.29,-12.877 21.44,-19.312 3.64,-3.276 7.37,-6.451 11.12,-9.594 7.53,-6.305 15.38,-12.203 24.41,-16.187 2.68,-1.187 3.91,-4.319 2.72,-7 -0.89,-2.012 -2.87,-3.191 -4.94,-3.157 z"
   fill="#beb9b1"
   fill-opacity="0.189846"
   stroke="none"
   id="path13" />
</g>
<g
   opacity="1"
   id="g19">
<path
   d="m 1335.41,621.75 c -1.34,-0.226 -2.78,0.056 -3.97,0.906 -24.72,17.608 -48.49,36.536 -70.66,57.282 -10.22,9.563 -19.92,19.61 -29.59,29.718 -7.27,7.598 -14.55,15.183 -21.81,22.782 -26.65,27.851 -53.2,55.918 -77.79,85.624 -21.88,26.435 -42.39,53.93 -64.06,80.532 -1.75,2.152 -1.43,5.34 0.72,7.094 2.15,1.753 5.31,1.433 7.06,-0.719 21.67,-26.574 42.2,-54.05 64.1,-80.438 24.46,-29.484 50.95,-57.274 77.5,-84.875 7.29,-7.58 14.59,-15.166 21.87,-22.75 9.56,-9.952 19.13,-19.823 29.22,-29.25 21.84,-20.41 45.25,-39.055 69.59,-56.375 2.39,-1.7 2.95,-4.986 1.25,-7.375 -0.85,-1.194 -2.09,-1.93 -3.43,-2.156 z"
   fill="#beb9b1"
   fill-opacity="0.189846"
   stroke="none"
   id="path17" />
</g>
<g
   opacity="1"
   id="g23">
<path
   d="m 1715.62,1522.44 c -1.34,-0.2 -2.76,0.12 -3.93,1 -5.97,4.47 -11.87,9.04 -17.63,13.78 -9.97,8.2 -19.63,16.76 -29.31,25.31 -8.93,7.89 -17.87,15.78 -26.81,23.66 -15.1,13.29 -30.2,26.57 -45.28,39.87 -8.38,7.39 -16.94,14.61 -25.07,22.28 -9.74,9.21 -18.78,19.15 -28.21,28.66 -1.96,1.97 -1.94,5.17 0.03,7.12 1.97,1.96 5.17,1.94 7.12,-0.03 9.36,-9.42 18.32,-19.3 28,-28.4 3.96,-3.72 8.05,-7.26 12.13,-10.85 4.83,-4.24 9.68,-8.48 14.53,-12.72 14.83,-12.97 29.68,-25.94 44.53,-38.9 9.03,-7.88 18.06,-15.78 27.06,-23.69 9.26,-8.14 18.5,-16.3 28.03,-24.12 5.64,-4.64 11.41,-9.1 17.25,-13.47 2.35,-1.76 2.82,-5.09 1.06,-7.44 -0.87,-1.17 -2.15,-1.87 -3.5,-2.06 z"
   fill="#beb9b1"
   fill-opacity="0.189846"
   stroke="none"
   id="path21" />
</g>
<g
   opacity="1"
   id="g27">
<path
   d="m 1707.44,1424.03 c -1.35,-0.2 -2.76,0.1 -3.94,0.97 -1.35,1 -2.76,1.97 -4.06,3.03 -2.88,2.34 -5.55,4.93 -8.32,7.41 -3.97,3.56 -7.92,7.2 -11.84,10.84 -12.06,11.21 -23.98,22.54 -35.75,34.06 -32.3,31.63 -63.38,64.54 -93.59,98.16 -6.6,7.34 -13.02,14.83 -19.53,22.25 -5.91,6.73 -11.84,13.49 -18.13,19.87 -3.94,4 -8.06,7.81 -12.25,11.54 -6.2,5.53 -12.56,10.89 -18.47,16.75 -1.83,1.82 -3.61,3.66 -5.34,5.59 -1.17,1.3 -2.34,2.63 -3.31,4.09 -3.32,4.96 -4.75,10.86 -7.16,16.25 -1.13,2.54 0.03,5.5 2.56,6.63 2.54,1.13 5.5,0 6.63,-2.53 1.14,-2.57 2.11,-5.19 3.09,-7.82 0.89,-2.38 1.83,-4.81 3.25,-6.93 0.9,-1.34 2.01,-2.5 3.1,-3.69 1.62,-1.77 3.31,-3.51 5.03,-5.19 5.56,-5.45 11.52,-10.45 17.34,-15.62 4.35,-3.87 8.62,-7.83 12.72,-11.97 6.71,-6.79 13.05,-13.98 19.34,-21.16 4.15,-4.73 8.26,-9.51 12.44,-14.22 11.16,-12.59 22.61,-24.92 34.09,-37.22 21.37,-22.87 43.18,-45.36 65.57,-67.24 11.7,-11.45 23.59,-22.71 35.59,-33.85 4.22,-3.91 8.46,-7.79 12.75,-11.62 2.29,-2.05 4.49,-4.23 6.87,-6.16 1.19,-0.96 2.47,-1.78 3.69,-2.69 2.36,-1.74 2.87,-5.08 1.13,-7.44 -0.87,-1.17 -2.16,-1.89 -3.5,-2.09 z"
   fill="#beb9b1"
   fill-opacity="0.189846"
   stroke="none"
   id="path25" />
</g>
<path
   d="m 1160.97,682.994 h 456.96 v 914.856 h -456.96 z"
   fill="#7b7875"
   fill-rule="nonzero"
   opacity="1"
   stroke="#beb9b1"
   stroke-linecap="butt"
   stroke-linejoin="round"
   stroke-opacity="0.189846"
   stroke-width="10"
   id="path29" />
<path
   d="m 1200.68,725.024 h 379.44 v 837.256 h -379.44 z"
   fill="#7b7875"
   fill-rule="nonzero"
   opacity="1"
   stroke="#beb9b1"
   stroke-linecap="butt"
   stroke-linejoin="round"
   stroke-opacity="0.189846"
   stroke-width="10"
   id="path31" />
<g
   opacity="1"
   id="g35">
<path
   d="m 1121.97,1640.66 c -1.36,-0.11 -2.76,0.32 -3.88,1.28 -4.84,4.2 -9.55,8.53 -14.4,12.72 -2.11,1.8 -2.37,4.98 -0.57,7.09 1.81,2.11 4.99,2.34 7.1,0.53 4.88,-4.16 9.89,-8.14 14.78,-12.28 2.23,-1.91 2.5,-5.27 0.59,-7.5 -0.95,-1.11 -2.27,-1.74 -3.62,-1.84 z"
   fill="#beb9b1"
   fill-opacity="0.189846"
   stroke="none"
   id="path33" />
</g>
<g
   opacity="1"
   id="g39">
<path
   d="m 1195,1638.59 c -0.69,0.08 -1.36,0.27 -2,0.63 -7.49,4.19 -14.54,8.98 -21.34,14.22 -2.21,1.69 -2.63,4.86 -0.94,7.06 1.69,2.2 4.86,2.63 7.06,0.94 6.41,-4.89 13.28,-9.05 20.34,-12.91 2.57,-1.42 3.52,-4.65 2.1,-7.22 -1.07,-1.92 -3.16,-2.93 -5.22,-2.72 z"
   fill="#beb9b1"
   fill-opacity="0.189846"
   stroke="none"
   id="path37" />
</g>
<g
   opacity="1"
   id="g43">
<path
   d="m 1281.31,1645.88 c -1.35,-0.07 -2.73,0.38 -3.81,1.37 -3.8,3.51 -7.47,7.13 -11.28,10.63 -2.06,1.86 -2.21,5.03 -0.34,7.09 1.86,2.05 5.03,2.21 7.09,0.34 3.84,-3.46 7.8,-6.77 11.65,-10.22 2.17,-1.97 2.35,-5.33 0.38,-7.5 -0.99,-1.08 -2.33,-1.65 -3.69,-1.71 z"
   fill="#beb9b1"
   fill-opacity="0.189846"
   stroke="none"
   id="path41" />
</g>
<g
   opacity="1"
   id="g47">
<path
   d="m 1391.78,1638.56 c -1.36,-0.05 -2.73,0.41 -3.81,1.41 -4.49,4.2 -8.87,8.53 -13.38,12.72 -2.04,1.88 -2.16,5.08 -0.28,7.12 1.89,2.04 5.06,2.17 7.1,0.28 4.53,-4.15 9.2,-8.17 13.75,-12.31 2.15,-1.99 2.3,-5.34 0.31,-7.5 -1,-1.08 -2.33,-1.66 -3.69,-1.72 z"
   fill="#beb9b1"
   fill-opacity="0.189846"
   stroke="none"
   id="path45" />
</g>
<g
   opacity="1"
   id="g51">
<path
   d="m 1418.97,624.219 c -1.36,-0.077 -2.75,0.336 -3.85,1.312 -5.57,5.036 -10.19,10.579 -14.24,16.907 -1.51,2.334 -0.81,5.434 1.53,6.937 2.33,1.503 5.43,0.834 6.93,-1.5 3.54,-5.467 8,-10.11 12.88,-14.406 2.19,-1.953 2.36,-5.312 0.4,-7.5 -0.97,-1.094 -2.29,-1.673 -3.65,-1.75 z"
   fill="#beb9b1"
   fill-opacity="0.189846"
   stroke="none"
   id="path49" />
</g>
<g
   opacity="1"
   id="g55">
<path
   d="m 1487.47,626.281 c -1.36,0 -2.71,0.526 -3.75,1.563 -3.8,3.851 -7.47,7.818 -11.28,11.656 -1.97,1.963 -1.97,5.162 0,7.125 1.96,1.963 5.16,1.963 7.12,0 3.84,-3.81 7.81,-7.485 11.66,-11.281 2.07,-2.074 2.07,-5.427 0,-7.5 -1.04,-1.037 -2.39,-1.563 -3.75,-1.563 z"
   fill="#beb9b1"
   fill-opacity="0.189846"
   stroke="none"
   id="path53" />
</g>
<g
   opacity="1"
   id="g59">
<path
   d="m 1561.12,623.188 c -2.05,-0.264 -4.14,0.693 -5.24,2.593 -2.4,4.192 -4.65,8.475 -7.07,12.657 -1.4,2.398 -0.58,5.476 1.81,6.874 2.4,1.399 5.48,0.586 6.88,-1.812 2.45,-4.162 5.06,-8.223 7.53,-12.375 1.48,-2.533 0.63,-5.772 -1.91,-7.25 -0.63,-0.369 -1.31,-0.6 -2,-0.687 z"
   fill="#beb9b1"
   fill-opacity="0.189846"
   stroke="none"
   id="path57" />
</g>
<g
   opacity="1"
   id="g63">
<path
   d="m 1643.66,627.375 c -2.05,-0.327 -4.18,0.572 -5.35,2.437 -0.82,1.412 -0.41,0.673 -0.84,1.407 -0.69,1.185 -1.48,2.512 -1.35,2.281 -0.01,0.028 -0.01,0.065 -0.03,0.094 0.04,-0.057 -0.34,0.574 -0.28,0.468 -0.26,0.477 -0.51,0.965 -0.78,1.438 -0.27,0.475 -1.11,1.883 -0.84,1.406 0.53,-0.954 0.01,0.009 -0.85,1.406 -1.47,2.355 -0.76,5.467 1.6,6.938 2.35,1.471 5.46,0.729 6.94,-1.625 1.8,-2.708 1.57,-2.402 1.78,-2.719 0.1,-0.147 0.21,-0.291 0.31,-0.437 0.11,-0.168 0.23,-0.333 0.34,-0.5 -0.03,0.053 0.35,-0.533 0.28,-0.438 0.32,-0.444 0.64,-0.894 0.94,-1.343 0.31,-0.453 1.22,-1.793 0.91,-1.344 -0.63,0.898 -0.01,-0.027 0.87,-1.406 1.56,-2.487 0.8,-5.759 -1.69,-7.313 -0.62,-0.389 -1.28,-0.641 -1.96,-0.75 z"
   fill="#beb9b1"
   fill-opacity="0.189846"
   stroke="none"
   id="path61" />
</g>
</g>
</svg>
