<?xml version="1.0" encoding="UTF-8" standalone="no"?>
<!-- Created with Vectornator (http://vectornator.io/) -->

<svg
   height="1602.95"
   stroke-miterlimit="10"
   style="clip-rule:evenodd;fill-rule:nonzero;stroke-linecap:round;stroke-linejoin:round"
   version="1.1"
   viewBox="0 0 981.92 1602.95"
   width="981.91998"
   xml:space="preserve"
   id="svg166"
   sodipodi:docname="Tür Raum 2.svg"
   inkscape:version="1.2.2 (732a01da63, 2022-12-09)"
   xmlns:inkscape="http://www.inkscape.org/namespaces/inkscape"
   xmlns:sodipodi="http://sodipodi.sourceforge.net/DTD/sodipodi-0.dtd"
   xmlns="http://www.w3.org/2000/svg"
   xmlns:svg="http://www.w3.org/2000/svg"
   xmlns:vectornator="http://vectornator.io"><sodipodi:namedview
   id="namedview168"
   pagecolor="#ffffff"
   bordercolor="#000000"
   borderopacity="0.25"
   inkscape:showpageshadow="2"
   inkscape:pageopacity="0.0"
   inkscape:pagecheckerboard="0"
   inkscape:deskcolor="#d1d1d1"
   showgrid="false"
   inkscape:zoom="1.0681024"
   inkscape:cx="727.45837"
   inkscape:cy="1559.7756"
   inkscape:window-width="1920"
   inkscape:window-height="1017"
   inkscape:window-x="-8"
   inkscape:window-y="-8"
   inkscape:window-maximized="1"
   inkscape:current-layer="svg166" />
<defs
   id="defs68">
<filter
   color-interpolation-filters="sRGB"
   filterUnits="userSpaceOnUse"
   height="194.09801"
   id="Filter"
   width="498.423"
   x="-12.8196"
   y="663.716">
<feGaussianBlur
   in="SourceGraphic"
   result="Blur"
   stdDeviation="35.2713"
   id="feGaussianBlur2" />
</filter>
<filter
   color-interpolation-filters="sRGB"
   filterUnits="userSpaceOnUse"
   height="193.43201"
   id="Filter_2"
   width="320.36499"
   x="249.86099"
   y="654.90198">
<feGaussianBlur
   in="SourceGraphic"
   result="Blur"
   stdDeviation="35.2713"
   id="feGaussianBlur5" />
</filter>
<filter
   color-interpolation-filters="sRGB"
   filterUnits="userSpaceOnUse"
   height="197.052"
   id="Filter_3"
   width="348.57199"
   x="-51.604599"
   y="676.05701">
<feGaussianBlur
   in="SourceGraphic"
   result="Blur"
   stdDeviation="35.2713"
   id="feGaussianBlur8" />
</filter>
<filter
   color-interpolation-filters="sRGB"
   filterUnits="userSpaceOnUse"
   height="211.45599"
   id="Filter_4"
   width="501.94901"
   x="29.4914"
   y="570.28003">
<feGaussianBlur
   in="SourceGraphic"
   result="Blur"
   stdDeviation="35.2713"
   id="feGaussianBlur11" />
</filter>
<filter
   color-interpolation-filters="sRGB"
   filterUnits="userSpaceOnUse"
   height="193.537"
   id="Filter_5"
   width="369.728"
   x="-35.737999"
   y="579.09497">
<feGaussianBlur
   in="SourceGraphic"
   result="Blur"
   stdDeviation="35.2713"
   id="feGaussianBlur14" />
</filter>
<filter
   color-interpolation-filters="sRGB"
   filterUnits="userSpaceOnUse"
   height="195.19"
   id="Filter_6"
   width="584.80798"
   x="-14.5825"
   y="758.302">
<feGaussianBlur
   in="SourceGraphic"
   result="Blur"
   stdDeviation="35.2713"
   id="feGaussianBlur17" />
</filter>
<filter
   color-interpolation-filters="sRGB"
   filterUnits="userSpaceOnUse"
   height="198.73"
   id="Filter_7"
   width="367.965"
   x="207.55"
   y="751.86401">
<feGaussianBlur
   in="SourceGraphic"
   result="Blur"
   stdDeviation="35.2713"
   id="feGaussianBlur20" />
</filter>
<filter
   color-interpolation-filters="sRGB"
   filterUnits="userSpaceOnUse"
   height="223.40199"
   id="Filter_8"
   width="616.54102"
   x="-70.997101"
   y="1416.5">
<feGaussianBlur
   in="SourceGraphic"
   result="Blur"
   stdDeviation="35.2713"
   id="feGaussianBlur23" />
</filter>
<filter
   color-interpolation-filters="sRGB"
   filterUnits="userSpaceOnUse"
   height="193.144"
   id="Filter_9"
   width="600.67499"
   x="-41.026798"
   y="-13.2584">
<feGaussianBlur
   in="SourceGraphic"
   result="Blur"
   stdDeviation="35.2713"
   id="feGaussianBlur26" />
</filter>
<filter
   color-interpolation-filters="sRGB"
   filterUnits="userSpaceOnUse"
   height="200.48399"
   id="Filter_10"
   width="343.28299"
   x="-14.5825"
   y="48.445">
<feGaussianBlur
   in="SourceGraphic"
   result="Blur"
   stdDeviation="35.2713"
   id="feGaussianBlur29" />
</filter>
<filter
   color-interpolation-filters="sRGB"
   filterUnits="userSpaceOnUse"
   height="193.582"
   id="Filter_11"
   width="260.42499"
   x="-9.2936497"
   y="764.20502">
<feGaussianBlur
   in="SourceGraphic"
   result="Blur"
   stdDeviation="35.2713"
   id="feGaussianBlur32" />
</filter>
<filter
   color-interpolation-filters="sRGB"
   filterUnits="userSpaceOnUse"
   height="194.09801"
   id="Filter_12"
   width="498.423"
   x="476.129"
   y="663.716">
<feGaussianBlur
   in="SourceGraphic"
   result="Blur"
   stdDeviation="35.2713"
   id="feGaussianBlur35" />
</filter>
<filter
   color-interpolation-filters="sRGB"
   filterUnits="userSpaceOnUse"
   height="193.43201"
   id="Filter_13"
   width="320.36499"
   x="738.80902"
   y="654.90198">
<feGaussianBlur
   in="SourceGraphic"
   result="Blur"
   stdDeviation="35.2713"
   id="feGaussianBlur38" />
</filter>
<filter
   color-interpolation-filters="sRGB"
   filterUnits="userSpaceOnUse"
   height="197.052"
   id="Filter_14"
   width="348.57199"
   x="437.34399"
   y="676.05701">
<feGaussianBlur
   in="SourceGraphic"
   result="Blur"
   stdDeviation="35.2713"
   id="feGaussianBlur41" />
</filter>
<filter
   color-interpolation-filters="sRGB"
   filterUnits="userSpaceOnUse"
   height="211.45599"
   id="Filter_15"
   width="501.94901"
   x="518.44"
   y="570.28003">
<feGaussianBlur
   in="SourceGraphic"
   result="Blur"
   stdDeviation="35.2713"
   id="feGaussianBlur44" />
</filter>
<filter
   color-interpolation-filters="sRGB"
   filterUnits="userSpaceOnUse"
   height="193.537"
   id="Filter_16"
   width="369.728"
   x="453.20999"
   y="579.09497">
<feGaussianBlur
   in="SourceGraphic"
   result="Blur"
   stdDeviation="35.2713"
   id="feGaussianBlur47" />
</filter>
<filter
   color-interpolation-filters="sRGB"
   filterUnits="userSpaceOnUse"
   height="195.19"
   id="Filter_17"
   width="584.80798"
   x="474.366"
   y="758.302">
<feGaussianBlur
   in="SourceGraphic"
   result="Blur"
   stdDeviation="35.2713"
   id="feGaussianBlur50" />
</filter>
<filter
   color-interpolation-filters="sRGB"
   filterUnits="userSpaceOnUse"
   height="198.73"
   id="Filter_18"
   width="367.965"
   x="696.49799"
   y="751.86401">
<feGaussianBlur
   in="SourceGraphic"
   result="Blur"
   stdDeviation="35.2713"
   id="feGaussianBlur53" />
</filter>
<filter
   color-interpolation-filters="sRGB"
   filterUnits="userSpaceOnUse"
   height="223.40199"
   id="Filter_19"
   width="616.54102"
   x="417.95099"
   y="1416.5">
<feGaussianBlur
   in="SourceGraphic"
   result="Blur"
   stdDeviation="35.2713"
   id="feGaussianBlur56" />
</filter>
<filter
   color-interpolation-filters="sRGB"
   filterUnits="userSpaceOnUse"
   height="193.144"
   id="Filter_20"
   width="600.67499"
   x="447.92099"
   y="-13.2584">
<feGaussianBlur
   in="SourceGraphic"
   result="Blur"
   stdDeviation="35.2713"
   id="feGaussianBlur59" />
</filter>
<filter
   color-interpolation-filters="sRGB"
   filterUnits="userSpaceOnUse"
   height="200.48399"
   id="Filter_21"
   width="343.28299"
   x="474.366"
   y="48.445">
<feGaussianBlur
   in="SourceGraphic"
   result="Blur"
   stdDeviation="35.2713"
   id="feGaussianBlur62" />
</filter>
<filter
   color-interpolation-filters="sRGB"
   filterUnits="userSpaceOnUse"
   height="193.582"
   id="Filter_22"
   width="260.42499"
   x="479.655"
   y="764.20502">
<feGaussianBlur
   in="SourceGraphic"
   result="Blur"
   stdDeviation="35.2713"
   id="feGaussianBlur65" />
</filter>
</defs>
<clipPath
   id="ArtboardFrame">
<rect
   height="1615.95"
   width="997.91998"
   x="0"
   y="0"
   id="rect70" />
</clipPath>
<g
   clip-path="url(#ArtboardFrame)"
   id="Ebene-1"
   vectornator:layerName="Ebene 1"
   transform="translate(-17.017823,-5.8397371)">
<path
   d="M 23.6822,12.4638 H 499.495 V 1599 H 23.6822 Z"
   fill="#b6b6b6"
   fill-rule="nonzero"
   opacity="0.763566"
   stroke="#888888"
   stroke-linecap="butt"
   stroke-linejoin="round"
   stroke-width="11.0993"
   id="path73" />
<g
   filter="url(#Filter)"
   opacity="0.47093"
   vectornator:blur="70.5426"
   id="g77">
<path
   d="m 390.812,751.938 c -4.869,0.588 -9.731,1.228 -14.593,1.874 -5.518,0.734 -11.058,1.429 -16.625,1.626 -12.927,0.457 -25.856,-0.558 -38.782,-0.126 -4.23,0.142 -8.46,0.433 -12.687,0.657 -9.061,0.479 -18.119,0.886 -27.187,1.219 -24.153,0.884 -48.346,1.21 -72.5,0.218 -29.995,-1.231 -59.943,-3.855 -89.969,-4.281 -12.531,-0.178 -25.054,0.09 -37.5628,0.844 -3.076,0.184 -5.4034,2.83 -5.2187,5.906 0.1847,3.076 2.8302,5.434 5.9063,5.25 13.9742,-0.836 27.9412,-1.078 41.9372,-0.75 29.702,0.697 59.317,3.458 89,4.563 22.931,0.853 45.883,0.654 68.813,-0.126 9.132,-0.31 18.28,-0.697 27.406,-1.156 4.155,-0.209 8.31,-0.489 12.469,-0.625 12.933,-0.421 25.844,0.606 38.781,0.157 10.798,-0.376 21.538,-2.278 32.25,-3.563 3.231,-0.389 5.514,-3.3 5.125,-6.531 -0.389,-3.232 -3.331,-5.545 -6.563,-5.156 z"
   fill="#000000"
   stroke="none"
   id="path75" />
</g>
<g
   filter="url(#Filter_2)"
   opacity="0.47093"
   vectornator:blur="70.5426"
   id="g81">
<path
   d="m 477.188,743.156 c -0.754,-0.135 -1.551,-0.117 -2.344,0.063 -9.237,2.098 -18.523,4.687 -28.032,5.125 -3.583,0.165 -7.173,-0.057 -10.75,-0.282 -7.205,-0.453 -14.393,-1.338 -21.624,-1.312 -23.53,0.085 -47,1.795 -70.532,1.938 -3.081,0.017 -5.579,2.512 -5.562,5.593 0.017,3.082 2.543,5.58 5.625,5.563 23.503,-0.12 46.963,-1.703 70.469,-1.594 10.505,0.049 20.921,2.065 31.437,1.844 10.721,-0.226 21.195,-3.035 31.594,-5.375 3.174,-0.718 5.155,-3.857 4.437,-7.031 -0.538,-2.382 -2.458,-4.125 -4.718,-4.532 z"
   fill="#000000"
   stroke="none"
   id="path79" />
</g>
<g
   filter="url(#Filter_3)"
   opacity="0.47093"
   vectornator:blur="70.5426"
   id="g85">
<path
   d="m 202.406,764.25 c -7.556,0.654 -15.112,1.289 -22.687,1.688 -15.294,0.805 -30.619,0.998 -45.907,1.937 -8.574,0.527 -17.075,1.851 -25.562,3.125 -8.7268,1.31 -17.5274,2.575 -26.375,2.406 -13.0531,-0.249 -25.6085,-4.451 -38.3125,-7 -3.0211,-0.607 -5.9551,1.354 -6.5625,4.375 -0.6074,3.021 1.3539,5.987 4.375,6.594 12.0256,2.423 23.8639,6.198 36.1562,7.063 17.6938,1.244 35.0048,-3.283 52.5308,-4.719 4.296,-0.352 8.601,-0.486 12.907,-0.657 6.68,-0.264 13.381,-0.457 20.062,-0.687 9.625,-0.332 19.269,-0.714 28.875,-1.406 3.838,-0.277 7.666,-0.644 11.5,-0.969 3.243,-0.278 5.653,-3.132 5.375,-6.375 -0.278,-3.243 -3.132,-5.653 -6.375,-5.375 z"
   fill="#000000"
   stroke="none"
   id="path83" />
</g>
<g
   filter="url(#Filter_4)"
   opacity="0.47093"
   vectornator:blur="70.5426"
   id="g89">
<path
   d="m 436.812,658.469 c -5.693,0.529 -11.378,1.153 -17.062,1.781 -6.546,0.723 -13.106,1.44 -19.688,1.75 -24.607,1.16 -49.226,0.35 -73.843,0.969 -9.505,0.239 -18.987,0.83 -28.469,1.5 -8.793,0.621 -17.564,1.301 -26.344,2.093 -14.882,1.344 -29.701,3.136 -44.406,5.813 -18.704,3.405 -37.332,7.706 -56.312,9.313 -9.608,0.813 -19.255,0.175 -28.844,-0.563 -6.01,-0.462 -12.01,-0.913 -18.032,-1.187 -3.078,-0.142 -5.671,2.234 -5.812,5.312 -0.141,3.078 2.234,5.702 5.312,5.844 16.088,0.741 32.194,3.083 48.313,1.75 19.341,-1.6 38.306,-5.941 57.375,-9.344 14.378,-2.566 28.86,-4.27 43.406,-5.531 8.708,-0.755 17.436,-1.384 26.156,-1.969 9.311,-0.625 18.607,-1.196 27.938,-1.406 14.244,-0.321 28.473,-0.069 42.719,-0.125 10.466,-0.041 20.95,-0.234 31.406,-0.719 12.467,-0.578 24.859,-2.388 37.281,-3.531 3.241,-0.3 5.644,-3.165 5.344,-6.407 -0.3,-3.241 -3.196,-5.643 -6.438,-5.343 z"
   fill="#000000"
   stroke="none"
   id="path87" />
</g>
<g
   filter="url(#Filter_5)"
   opacity="0.47093"
   vectornator:blur="70.5426"
   id="g93">
<path
   d="m 59.0312,667.625 c -3.0574,-0.385 -5.8342,1.786 -6.2187,4.844 -0.3845,3.057 1.755,5.834 4.8125,6.219 14.8268,1.869 29.5766,4.706 44.531,5.374 14.909,0.667 29.795,-1.356 44.688,-1.687 31.063,-0.69 62.123,-0.915 93.187,-1.563 3.254,-0.07 5.852,-2.745 5.781,-6 -0.07,-3.254 -2.777,-5.851 -6.031,-5.781 -31.077,0.693 -62.146,0.994 -93.219,1.875 -6.631,0.188 -13.259,0.649 -19.874,1.125 -7.996,0.576 -16.011,1.152 -24.032,0.813 -14.6491,-0.619 -29.1014,-3.398 -43.6248,-5.219 z"
   fill="#000000"
   stroke="none"
   id="path91" />
</g>
<g
   filter="url(#Filter_6)"
   opacity="0.47093"
   vectornator:blur="70.5426"
   id="g97">
<path
   d="m 269.25,846.656 c -6.64,-0.014 -13.267,0.04 -19.906,0.219 -25.916,0.7 -51.762,3.004 -77.625,4.687 -30.584,1.991 -61.229,3.222 -91.844,1.157 -3.0745,-0.208 -5.7295,2.113 -5.9375,5.187 -0.2079,3.075 2.113,5.73 5.1875,5.938 28.89,1.958 57.81,1.052 86.687,-0.688 27.931,-1.683 55.831,-4.197 83.813,-4.875 29.575,-0.716 59.161,0.776 88.687,2.313 14.661,0.763 29.322,1.735 44,2.062 20.014,0.447 40.006,-0.516 60,-1.25 11.291,-0.414 22.578,-0.675 33.876,-0.75 3.254,-0.023 5.897,-2.682 5.874,-5.937 -0.022,-3.255 -2.682,-5.898 -5.937,-5.875 -11.416,0.083 -22.842,0.386 -34.25,0.812 -19.763,0.738 -39.53,1.71 -59.313,1.282 -7.501,-0.163 -15.006,-0.539 -22.5,-0.907 -10.361,-0.508 -20.701,-1.059 -31.062,-1.562 -19.894,-0.966 -39.83,-1.771 -59.75,-1.813 z"
   fill="#000000"
   stroke="none"
   id="path95" />
</g>
<g
   filter="url(#Filter_7)"
   opacity="0.47093"
   vectornator:blur="70.5426"
   id="g101">
<path
   d="m 480.969,840.062 c -5.289,0.429 -10.582,0.904 -15.875,1.282 -10.453,0.746 -20.909,1.239 -31.375,1.75 -15.949,0.778 -31.946,1.269 -47.875,2.406 -12.585,0.898 -25.081,2.566 -37.625,3.875 -5.308,0.554 -10.608,1.028 -15.938,1.313 -2.62,0.139 -5.281,0.291 -7.906,0.218 -7.35,-0.202 -14.656,-2.318 -21.906,-3.437 -3.046,-0.472 -5.904,1.611 -6.375,4.656 -0.472,3.045 1.642,5.904 4.687,6.375 7.756,1.204 15.399,3.367 23.281,3.594 2.924,0.084 5.862,-0.071 8.782,-0.219 5.519,-0.279 11.034,-0.754 16.531,-1.313 12.418,-1.26 24.79,-2.811 37.25,-3.624 15.853,-1.036 31.756,-1.448 47.625,-2.157 10.561,-0.471 21.141,-0.95 31.688,-1.687 5.33,-0.373 10.641,-0.858 15.968,-1.282 3.245,-0.26 5.667,-3.099 5.406,-6.343 -0.26,-3.245 -3.099,-5.667 -6.343,-5.407 z"
   fill="#000000"
   stroke="none"
   id="path99" />
</g>
<g
   filter="url(#Filter_8)"
   opacity="0.47093"
   vectornator:blur="70.5426"
   id="g105">
<path
   d="m 451.469,1504.69 c -25.899,0.03 -51.794,0.21 -77.688,0.75 -24.469,0.5 -48.932,1.45 -73.406,1.75 -14.457,0.17 -28.919,0.25 -43.375,0.5 -8.684,0.15 -17.35,0.47 -26.031,0.69 -7.986,0.19 -15.993,-0.66 -23.969,-0.04 -6.84,0.54 -13.65,1.31 -20.469,2.07 -12.919,1.43 -25.817,3.05 -38.687,4.87 -42.507,6.01 -84.6026,14.38 -126.1565,25.16 -2.983,0.77 -4.7732,3.8 -4,6.78 0.7732,2.98 3.7983,4.77 6.7813,4 17.4322,-4.52 34.9588,-8.66 52.5937,-12.31 29.0125,-6.01 58.2645,-10.78 87.6565,-14.5 14.037,-1.78 28.124,-3.37 42.219,-4.63 8.076,-0.72 16.219,0.24 24.312,0.06 8.652,-0.19 17.283,-0.5 25.938,-0.62 14.438,-0.21 28.873,-0.23 43.312,-0.38 24.51,-0.24 48.995,-1.19 73.5,-1.68 25.818,-0.52 51.646,-0.67 77.469,-0.69 3.255,0 5.909,-2.65 5.906,-5.91 -0.003,-3.25 -2.651,-5.88 -5.906,-5.87 z"
   fill="#000000"
   stroke="none"
   id="path103" />
</g>
<g
   filter="url(#Filter_9)"
   opacity="0.47093"
   vectornator:blur="70.5426"
   id="g109">
<path
   d="m 465,74.9375 c -36.173,3.516 -72.48,4.7341 -108.812,4 -9.065,-0.1831 -18.134,-0.4861 -27.188,-0.9687 -11.836,-0.6311 -23.671,-1.4423 -35.531,-1.2813 -9.249,0.1255 -18.506,0.6077 -27.75,0.9063 -18.434,0.5952 -36.875,1.1499 -55.313,1.5937 -52.395,1.2612 -104.773,1.4357 -157.156,-0.4375 -3.0796,-0.1106 -5.6706,2.2954 -5.7812,5.375 -0.1107,3.0796 2.2954,5.6707 5.375,5.7812 52.5992,1.8974 105.2282,1.7818 157.8442,0.6563 18.47,-0.3951 36.939,-0.922 55.406,-1.4687 9.173,-0.2717 18.354,-0.7438 27.531,-0.8438 11.243,-0.1225 22.469,0.6473 33.687,1.2812 9.539,0.539 19.074,0.8818 28.626,1.0938 36.787,0.8163 73.59,-0.4008 110.218,-3.9375 3.24,-0.3139 5.595,-3.1978 5.282,-6.4375 -0.314,-3.2397 -3.198,-5.6264 -6.438,-5.3125 z"
   fill="#000000"
   stroke="none"
   id="path107" />
</g>
<g
   filter="url(#Filter_10)"
   opacity="0.47093"
   vectornator:blur="70.5426"
   id="g113">
<path
   d="m 80.1562,136.969 c -3.0584,-0.377 -5.842,1.816 -6.2187,4.875 -0.3767,3.058 1.8165,5.842 4.875,6.218 32.2935,3.991 64.6665,7.26 97.1255,9.563 19.469,1.381 38.964,2.38 58.468,3.125 3.253,0.122 6.004,-2.435 6.125,-5.688 0.122,-3.252 -2.435,-5.972 -5.687,-6.093 -36.609,-1.338 -73.187,-3.533 -109.656,-7.031 -15.025,-1.442 -30.0514,-3.13 -45.0318,-4.969 z"
   fill="#000000"
   stroke="none"
   id="path111" />
</g>
<g
   filter="url(#Filter_11)"
   opacity="0.47093"
   vectornator:blur="70.5426"
   id="g117">
<path
   d="m 85.8125,852.781 c -3.0297,-0.563 -5.9682,1.439 -6.5313,4.469 -0.563,3.03 1.4391,5.937 4.4688,6.5 10.21,1.907 20.276,4.878 30.688,5.5 14.306,0.855 28.629,-0.9 42.906,-1.562 3.251,-0.157 5.75,-2.906 5.594,-6.157 -0.157,-3.251 -2.906,-5.781 -6.157,-5.625 -7.671,0.384 -15.336,1.026 -23,1.532 -6.992,0.461 -14.063,0.862 -21.062,0.312 -9.099,-0.715 -17.9577,-3.314 -26.9065,-4.969 z"
   fill="#000000"
   stroke="none"
   id="path115" />
</g>
<path
   d="M 512.63,12.4638 H 988.443 V 1599 H 512.63 Z"
   fill="#b6b6b6"
   fill-rule="nonzero"
   opacity="0.763566"
   stroke="#888888"
   stroke-linecap="butt"
   stroke-linejoin="round"
   stroke-width="11.0993"
   id="path119" />
<g
   filter="url(#Filter_12)"
   opacity="0.47093"
   vectornator:blur="70.5426"
   id="g123">
<path
   d="m 879.781,751.938 c -4.87,0.588 -9.731,1.228 -14.593,1.874 -5.518,0.734 -11.09,1.429 -16.657,1.626 -12.927,0.457 -25.855,-0.558 -38.781,-0.126 -4.231,0.142 -8.43,0.433 -12.656,0.657 -9.062,0.479 -18.151,0.886 -27.219,1.219 -24.152,0.884 -48.346,1.21 -72.5,0.218 -29.994,-1.231 -59.942,-3.855 -89.969,-4.281 -12.531,-0.178 -25.022,0.09 -37.531,0.844 -3.076,0.184 -5.435,2.83 -5.25,5.906 0.185,3.076 2.83,5.434 5.906,5.25 13.975,-0.836 27.942,-1.078 41.938,-0.75 29.702,0.697 59.316,3.458 89,4.563 22.93,0.853 45.883,0.654 68.812,-0.126 9.132,-0.31 18.281,-0.697 27.407,-1.156 4.155,-0.209 8.31,-0.489 12.468,-0.625 12.934,-0.421 25.876,0.606 38.813,0.157 10.798,-0.376 21.506,-2.278 32.219,-3.563 3.231,-0.389 5.545,-3.3 5.156,-6.531 -0.389,-3.232 -3.331,-5.545 -6.563,-5.156 z"
   fill="#000000"
   stroke="none"
   id="path121" />
</g>
<g
   filter="url(#Filter_13)"
   opacity="0.47093"
   vectornator:blur="70.5426"
   id="g127">
<path
   d="m 966.156,743.156 c -0.753,-0.135 -1.55,-0.117 -2.344,0.063 -9.236,2.098 -18.522,4.687 -28.031,5.125 -3.584,0.165 -7.205,-0.057 -10.781,-0.282 -7.206,-0.453 -14.363,-1.338 -21.594,-1.312 -23.53,0.085 -47.031,1.795 -70.562,1.938 -3.082,0.017 -5.549,2.512 -5.532,5.593 0.018,3.082 2.513,5.58 5.594,5.563 23.504,-0.12 46.995,-1.703 70.5,-1.594 10.506,0.049 20.922,2.065 31.438,1.844 10.721,-0.226 21.163,-3.035 31.562,-5.375 3.175,-0.718 5.155,-3.857 4.438,-7.031 -0.539,-2.382 -2.427,-4.125 -4.688,-4.532 z"
   fill="#000000"
   stroke="none"
   id="path125" />
</g>
<g
   filter="url(#Filter_14)"
   opacity="0.47093"
   vectornator:blur="70.5426"
   id="g131">
<path
   d="m 691.344,764.25 c -7.557,0.654 -15.112,1.289 -22.688,1.688 -15.294,0.805 -30.619,0.998 -45.906,1.937 -8.574,0.527 -17.044,1.851 -25.531,3.125 -8.727,1.31 -17.528,2.575 -26.375,2.406 -13.053,-0.249 -25.64,-4.451 -38.344,-7 -3.021,-0.607 -5.955,1.354 -6.562,4.375 -0.608,3.021 1.353,5.987 4.374,6.594 12.026,2.423 23.896,6.198 36.188,7.063 17.694,1.244 34.974,-3.283 52.5,-4.719 4.295,-0.352 8.632,-0.486 12.938,-0.657 6.679,-0.264 13.35,-0.457 20.031,-0.687 9.624,-0.332 19.269,-0.714 28.875,-1.406 3.838,-0.277 7.666,-0.644 11.5,-0.969 3.243,-0.278 5.653,-3.132 5.375,-6.375 -0.278,-3.243 -3.132,-5.653 -6.375,-5.375 z"
   fill="#000000"
   stroke="none"
   id="path129" />
</g>
<g
   filter="url(#Filter_15)"
   opacity="0.47093"
   vectornator:blur="70.5426"
   id="g135">
<path
   d="m 925.781,658.469 c -5.694,0.529 -11.379,1.153 -17.062,1.781 -6.546,0.723 -13.106,1.44 -19.688,1.75 -24.607,1.16 -49.257,0.35 -73.875,0.969 -9.505,0.239 -18.955,0.83 -28.437,1.5 -8.794,0.621 -17.596,1.301 -26.375,2.093 -14.882,1.344 -29.701,3.136 -44.406,5.813 -18.705,3.405 -37.301,7.706 -56.282,9.313 -9.607,0.813 -19.254,0.175 -28.844,-0.563 -6.009,-0.462 -12.009,-0.913 -18.031,-1.187 -3.078,-0.142 -5.702,2.234 -5.843,5.312 -0.142,3.078 2.234,5.702 5.312,5.844 16.088,0.741 32.194,3.083 48.312,1.75 19.342,-1.6 38.307,-5.941 57.376,-9.344 14.378,-2.566 28.859,-4.27 43.406,-5.531 8.708,-0.755 17.435,-1.384 26.156,-1.969 9.311,-0.625 18.606,-1.196 27.938,-1.406 14.244,-0.321 28.504,-0.069 42.75,-0.125 10.466,-0.041 20.918,-0.234 31.374,-0.719 12.468,-0.578 24.891,-2.388 37.313,-3.531 3.241,-0.3 5.612,-3.165 5.313,-6.407 -0.3,-3.241 -3.166,-5.643 -6.407,-5.343 z"
   fill="#000000"
   stroke="none"
   id="path133" />
</g>
<g
   filter="url(#Filter_16)"
   opacity="0.47093"
   vectornator:blur="70.5426"
   id="g139">
<path
   d="m 547.969,667.625 c -3.058,-0.385 -5.834,1.786 -6.219,4.844 -0.385,3.057 1.786,5.834 4.844,6.219 14.827,1.869 29.576,4.706 44.531,5.374 14.908,0.667 29.764,-1.356 44.656,-1.687 31.063,-0.69 62.155,-0.915 93.219,-1.563 3.254,-0.07 5.82,-2.745 5.75,-6 -0.07,-3.254 -2.746,-5.851 -6,-5.781 -31.077,0.693 -62.177,0.994 -93.25,1.875 -6.631,0.188 -13.228,0.649 -19.844,1.125 -7.995,0.576 -16.042,1.152 -24.062,0.813 -14.65,-0.619 -29.102,-3.398 -43.625,-5.219 z"
   fill="#000000"
   stroke="none"
   id="path137" />
</g>
<g
   filter="url(#Filter_17)"
   opacity="0.47093"
   vectornator:blur="70.5426"
   id="g143">
<path
   d="m 758.219,846.656 c -6.64,-0.014 -13.298,0.04 -19.938,0.219 -25.916,0.7 -51.762,3.004 -77.625,4.687 -30.584,1.991 -61.229,3.222 -91.844,1.157 -3.074,-0.208 -5.729,2.113 -5.937,5.187 -0.208,3.075 2.113,5.73 5.187,5.938 28.891,1.958 57.811,1.052 86.688,-0.688 27.93,-1.683 55.862,-4.197 83.844,-4.875 29.575,-0.716 59.13,0.776 88.656,2.313 14.66,0.763 29.322,1.735 44,2.062 20.014,0.447 40.037,-0.516 60.031,-1.25 11.291,-0.414 22.577,-0.675 33.875,-0.75 3.255,-0.023 5.867,-2.682 5.844,-5.937 -0.023,-3.255 -2.683,-5.898 -5.938,-5.875 -11.415,0.083 -22.81,0.386 -34.218,0.812 -19.763,0.738 -39.561,1.71 -59.344,1.282 -7.501,-0.163 -14.976,-0.539 -22.469,-0.907 -10.361,-0.508 -20.732,-1.059 -31.093,-1.562 -19.894,-0.966 -39.8,-1.771 -59.719,-1.813 z"
   fill="#000000"
   stroke="none"
   id="path141" />
</g>
<g
   filter="url(#Filter_18)"
   opacity="0.47093"
   vectornator:blur="70.5426"
   id="g147">
<path
   d="m 969.906,840.062 c -5.289,0.429 -10.551,0.904 -15.844,1.282 -10.452,0.746 -20.939,1.239 -31.406,1.75 -15.949,0.778 -31.914,1.269 -47.844,2.406 -12.585,0.898 -25.08,2.566 -37.624,3.875 -5.308,0.554 -10.64,1.028 -15.969,1.313 -2.62,0.139 -5.251,0.291 -7.875,0.218 -7.35,-0.202 -14.656,-2.318 -21.906,-3.437 -3.046,-0.472 -5.904,1.611 -6.376,4.656 -0.471,3.045 1.612,5.904 4.657,6.375 7.756,1.204 15.43,3.367 23.312,3.594 2.924,0.084 5.862,-0.071 8.781,-0.219 5.52,-0.279 11.003,-0.755 16.5,-1.313 12.419,-1.26 24.822,-2.811 37.282,-3.624 15.853,-1.036 31.755,-1.448 47.625,-2.157 10.561,-0.471 21.11,-0.95 31.656,-1.687 5.331,-0.373 10.673,-0.858 16,-1.282 3.244,-0.26 5.667,-3.099 5.406,-6.343 -0.26,-3.245 -3.13,-5.667 -6.375,-5.407 z"
   fill="#000000"
   stroke="none"
   id="path145" />
</g>
<g
   filter="url(#Filter_19)"
   opacity="0.47093"
   vectornator:blur="70.5426"
   id="g151">
<path
   d="m 940.406,1504.69 c -25.898,0.03 -51.794,0.21 -77.687,0.75 -24.47,0.5 -48.933,1.45 -73.407,1.75 -14.456,0.17 -28.887,0.25 -43.343,0.5 -8.684,0.15 -17.381,0.47 -26.063,0.69 -7.986,0.19 -15.961,-0.66 -23.937,-0.04 -6.84,0.54 -13.682,1.31 -20.5,2.07 -12.919,1.43 -25.818,3.05 -38.688,4.87 -42.506,6.01 -84.602,14.38 -126.156,25.16 -2.983,0.77 -4.773,3.8 -4,6.78 0.773,2.98 3.83,4.77 6.813,4 17.432,-4.52 34.927,-8.66 52.562,-12.31 29.013,-6.01 58.296,-10.78 87.688,-14.5 14.037,-1.78 28.092,-3.37 42.187,-4.63 8.077,-0.72 16.219,0.24 24.313,0.06 8.651,-0.19 17.283,-0.5 25.937,-0.62 14.438,-0.21 28.905,-0.23 43.344,-0.38 24.51,-0.24 48.995,-1.19 73.5,-1.68 25.818,-0.52 51.646,-0.67 77.469,-0.69 3.254,0 5.878,-2.65 5.874,-5.91 -0.003,-3.25 -2.651,-5.88 -5.906,-5.87 z"
   fill="#000000"
   stroke="none"
   id="path149" />
</g>
<g
   filter="url(#Filter_20)"
   opacity="0.47093"
   vectornator:blur="70.5426"
   id="g155">
<path
   d="m 953.969,74.9375 c -36.173,3.516 -72.511,4.7341 -108.844,4 -9.065,-0.1831 -18.103,-0.4861 -27.156,-0.9687 -11.836,-0.6311 -23.703,-1.4423 -35.563,-1.2813 -9.248,0.1255 -18.474,0.6077 -27.718,0.9063 -18.434,0.5952 -36.875,1.1499 -55.313,1.5937 -52.395,1.2612 -104.805,1.4357 -157.187,-0.4375 -3.08,-0.1106 -5.671,2.2954 -5.782,5.375 -0.11,3.0796 2.296,5.6707 5.375,5.7812 52.599,1.8974 105.229,1.7818 157.844,0.6563 18.47,-0.3951 36.94,-0.922 55.406,-1.4687 9.173,-0.2717 18.354,-0.7438 27.531,-0.8438 11.244,-0.1225 22.469,0.6473 33.688,1.2812 9.538,0.539 19.074,0.8818 28.625,1.0938 36.788,0.8163 73.591,-0.4008 110.219,-3.9375 3.239,-0.3139 5.595,-3.1978 5.281,-6.4375 -0.314,-3.2397 -3.167,-5.6264 -6.406,-5.3125 z"
   fill="#000000"
   stroke="none"
   id="path153" />
</g>
<g
   filter="url(#Filter_21)"
   opacity="0.47093"
   vectornator:blur="70.5426"
   id="g159">
<path
   d="m 569.125,136.969 c -3.058,-0.377 -5.842,1.816 -6.219,4.875 -0.376,3.058 1.786,5.842 4.844,6.218 32.293,3.991 64.697,7.26 97.156,9.563 19.47,1.381 38.934,2.38 58.438,3.125 3.252,0.122 6.003,-2.435 6.125,-5.688 0.121,-3.252 -2.404,-5.972 -5.657,-6.093 -36.608,-1.338 -73.218,-3.533 -109.687,-7.031 -15.024,-1.442 -30.02,-3.13 -45,-4.969 z"
   fill="#000000"
   stroke="none"
   id="path157" />
</g>
<g
   filter="url(#Filter_22)"
   opacity="0.47093"
   vectornator:blur="70.5426"
   id="g163">
<path
   d="m 574.75,852.781 c -3.03,-0.563 -5.937,1.439 -6.5,4.469 -0.563,3.03 1.439,5.937 4.469,6.5 10.21,1.907 20.276,4.878 30.687,5.5 14.307,0.855 28.598,-0.9 42.875,-1.562 3.251,-0.157 5.782,-2.906 5.625,-6.157 -0.156,-3.251 -2.936,-5.781 -6.187,-5.625 -7.672,0.384 -15.305,1.026 -22.969,1.532 -6.993,0.461 -14.094,0.862 -21.094,0.312 -9.099,-0.715 -17.957,-3.314 -26.906,-4.969 z"
   fill="#000000"
   stroke="none"
   id="path161" />
</g>
</g>
</svg>
