<?xml version="1.0" encoding="UTF-8" standalone="no"?>
<!DOCTYPE svg PUBLIC "-//W3C//DTD SVG 1.1//EN" "http://www.w3.org/Graphics/SVG/1.1/DTD/svg11.dtd">
<!-- Created with Vectornator (http://vectornator.io/) -->
<svg height="100%" stroke-miterlimit="10" style="fill-rule:nonzero;clip-rule:evenodd;stroke-linecap:round;stroke-linejoin:round;" version="1.1" viewBox="0 0 2384.24 1683.99" width="100%" xml:space="preserve" xmlns="http://www.w3.org/2000/svg" xmlns:vectornator="http://vectornator.io" xmlns:xlink="http://www.w3.org/1999/xlink">
<defs/>
<clipPath id="ArtboardFrame">
<rect height="1683.99" width="2384.24" x="0" y="0"/>
</clipPath>
<g clip-path="url(#ArtboardFrame)" id="Ebene-1" vectornator:layerName="Ebene 1">
<path d="M2237.94 1835.29L2243.3 1835.29L2243.3 1835.29L2237.94 1835.29L2237.94 1835.29Z" fill="#bca17b" fill-rule="nonzero" opacity="1" stroke="#bca17b" stroke-linecap="butt" stroke-linejoin="round" stroke-width="10"/>
<path d="M1076.92 609.266L1710.57 609.266L1710.57 1674.63L1076.92 1674.63L1076.92 609.266Z" fill="#7b7875" fill-rule="nonzero" opacity="1" stroke="#33312e" stroke-linecap="butt" stroke-linejoin="round" stroke-width="10"/>
<path d="M2565.3 1462.25L2567.04 1462.25L2567.04 1463.99L2565.3 1463.99L2565.3 1462.25Z" fill="#8f8373" fill-rule="nonzero" opacity="1" stroke="#a8a094" stroke-linecap="butt" stroke-linejoin="round" stroke-width="10"/>
<g opacity="1">
<path d="M1296.78 607.531C1296.09 607.543 1295.39 607.672 1294.72 607.969C1284.78 612.374 1276.07 618.793 1267.78 625.75C1263.94 628.977 1260.1 632.262 1256.38 635.625C1249.34 641.969 1242.6 648.597 1235.31 654.656C1229.85 659.195 1224.28 663.637 1218.94 668.312C1210.95 675.295 1203.2 682.519 1195.47 689.781C1183.54 700.989 1171.8 712.404 1160.28 724.031C1152.67 731.719 1145.18 739.534 1137.69 747.344C1121.57 764.152 1105.39 780.868 1090.03 798.375C1088.2 800.461 1088.41 803.637 1090.5 805.469C1092.59 807.3 1095.76 807.087 1097.59 805C1112.87 787.611 1128.96 771.018 1145 754.344C1163.73 734.874 1182.81 715.807 1202.56 697.375C1210.23 690.224 1217.94 683.068 1225.84 676.188C1231.13 671.584 1236.63 667.25 1242.03 662.781C1249.45 656.647 1256.32 649.904 1263.47 643.469C1267.11 640.193 1270.84 637.018 1274.59 633.875C1282.12 627.57 1289.97 621.672 1299 617.688C1301.68 616.501 1302.91 613.369 1301.72 610.688C1300.83 608.676 1298.85 607.497 1296.78 607.531Z" fill="#beb9b1" fill-opacity="0.189846" stroke="none"/>
</g>
<g opacity="1">
<path d="M1335.41 621.75C1334.07 621.524 1332.63 621.806 1331.44 622.656C1306.72 640.264 1282.95 659.192 1260.78 679.938C1250.56 689.501 1240.86 699.548 1231.19 709.656C1223.92 717.254 1216.64 724.839 1209.38 732.438C1182.73 760.289 1156.18 788.356 1131.59 818.062C1109.71 844.497 1089.2 871.992 1067.53 898.594C1065.78 900.746 1066.1 903.934 1068.25 905.688C1070.4 907.441 1073.56 907.121 1075.31 904.969C1096.98 878.395 1117.51 850.919 1139.41 824.531C1163.87 795.047 1190.36 767.257 1216.91 739.656C1224.2 732.076 1231.5 724.49 1238.78 716.906C1248.34 706.954 1257.91 697.083 1268 687.656C1289.84 667.246 1313.25 648.601 1337.59 631.281C1339.98 629.581 1340.54 626.295 1338.84 623.906C1337.99 622.712 1336.75 621.976 1335.41 621.75Z" fill="#beb9b1" fill-opacity="0.189846" stroke="none"/>
</g>
<g opacity="1">
<path d="M1715.62 1522.44C1714.28 1522.24 1712.86 1522.56 1711.69 1523.44C1705.72 1527.91 1699.82 1532.48 1694.06 1537.22C1684.09 1545.42 1674.43 1553.98 1664.75 1562.53C1655.82 1570.42 1646.88 1578.31 1637.94 1586.19C1622.84 1599.48 1607.74 1612.76 1592.66 1626.06C1584.28 1633.45 1575.72 1640.67 1567.59 1648.34C1557.85 1657.55 1548.81 1667.49 1539.38 1677C1537.42 1678.97 1537.44 1682.17 1539.41 1684.12C1541.38 1686.08 1544.58 1686.06 1546.53 1684.09C1555.89 1674.67 1564.85 1664.79 1574.53 1655.69C1578.49 1651.97 1582.58 1648.43 1586.66 1644.84C1591.49 1640.6 1596.34 1636.36 1601.19 1632.12C1616.02 1619.15 1630.87 1606.18 1645.72 1593.22C1654.75 1585.34 1663.78 1577.44 1672.78 1569.53C1682.04 1561.39 1691.28 1553.23 1700.81 1545.41C1706.45 1540.77 1712.22 1536.31 1718.06 1531.94C1720.41 1530.18 1720.88 1526.85 1719.12 1524.5C1718.25 1523.33 1716.97 1522.63 1715.62 1522.44Z" fill="#beb9b1" fill-opacity="0.189846" stroke="none"/>
</g>
<g opacity="1">
<path d="M1707.44 1424.03C1706.09 1423.83 1704.68 1424.13 1703.5 1425C1702.15 1426 1700.74 1426.97 1699.44 1428.03C1696.56 1430.37 1693.89 1432.96 1691.12 1435.44C1687.15 1439 1683.2 1442.64 1679.28 1446.28C1667.22 1457.49 1655.3 1468.82 1643.53 1480.34C1611.23 1511.97 1580.15 1544.88 1549.94 1578.5C1543.34 1585.84 1536.92 1593.33 1530.41 1600.75C1524.5 1607.48 1518.57 1614.24 1512.28 1620.62C1508.34 1624.62 1504.22 1628.43 1500.03 1632.16C1493.83 1637.69 1487.47 1643.05 1481.56 1648.91C1479.73 1650.73 1477.95 1652.57 1476.22 1654.5C1475.05 1655.8 1473.88 1657.13 1472.91 1658.59C1469.59 1663.55 1468.16 1669.45 1465.75 1674.84C1464.62 1677.38 1465.78 1680.34 1468.31 1681.47C1470.85 1682.6 1473.81 1681.47 1474.94 1678.94C1476.08 1676.37 1477.05 1673.75 1478.03 1671.12C1478.92 1668.74 1479.86 1666.31 1481.28 1664.19C1482.18 1662.85 1483.29 1661.69 1484.38 1660.5C1486 1658.73 1487.69 1656.99 1489.41 1655.31C1494.97 1649.86 1500.93 1644.86 1506.75 1639.69C1511.1 1635.82 1515.37 1631.86 1519.47 1627.72C1526.18 1620.93 1532.52 1613.74 1538.81 1606.56C1542.96 1601.83 1547.07 1597.05 1551.25 1592.34C1562.41 1579.75 1573.86 1567.42 1585.34 1555.12C1606.71 1532.25 1628.52 1509.76 1650.91 1487.88C1662.61 1476.43 1674.5 1465.17 1686.5 1454.03C1690.72 1450.12 1694.96 1446.24 1699.25 1442.41C1701.54 1440.36 1703.74 1438.18 1706.12 1436.25C1707.31 1435.29 1708.59 1434.47 1709.81 1433.56C1712.17 1431.82 1712.68 1428.48 1710.94 1426.12C1710.07 1424.95 1708.78 1424.23 1707.44 1424.03Z" fill="#beb9b1" fill-opacity="0.189846" stroke="none"/>
</g>
<path d="M1160.97 682.994L1617.93 682.994L1617.93 1597.85L1160.97 1597.85L1160.97 682.994Z" fill="#7b7875" fill-rule="nonzero" opacity="1" stroke="#beb9b1" stroke-linecap="butt" stroke-linejoin="round" stroke-opacity="0.189846" stroke-width="10"/>
<path d="M1200.68 725.024L1580.12 725.024L1580.12 1562.28L1200.68 1562.28L1200.68 725.024Z" fill="#7b7875" fill-rule="nonzero" opacity="1" stroke="#beb9b1" stroke-linecap="butt" stroke-linejoin="round" stroke-opacity="0.189846" stroke-width="10"/>
<g opacity="1">
<path d="M1121.97 1640.66C1120.61 1640.55 1119.21 1640.98 1118.09 1641.94C1113.25 1646.14 1108.54 1650.47 1103.69 1654.66C1101.58 1656.46 1101.32 1659.64 1103.12 1661.75C1104.93 1663.86 1108.11 1664.09 1110.22 1662.28C1115.1 1658.12 1120.11 1654.14 1125 1650C1127.23 1648.09 1127.5 1644.73 1125.59 1642.5C1124.64 1641.39 1123.32 1640.76 1121.97 1640.66Z" fill="#beb9b1" fill-opacity="0.189846" stroke="none"/>
</g>
<g opacity="1">
<path d="M1195 1638.59C1194.31 1638.67 1193.64 1638.86 1193 1639.22C1185.51 1643.41 1178.46 1648.2 1171.66 1653.44C1169.45 1655.13 1169.03 1658.3 1170.72 1660.5C1172.41 1662.7 1175.58 1663.13 1177.78 1661.44C1184.19 1656.55 1191.06 1652.39 1198.12 1648.53C1200.69 1647.11 1201.64 1643.88 1200.22 1641.31C1199.15 1639.39 1197.06 1638.38 1195 1638.59Z" fill="#beb9b1" fill-opacity="0.189846" stroke="none"/>
</g>
<g opacity="1">
<path d="M1281.31 1645.88C1279.96 1645.81 1278.58 1646.26 1277.5 1647.25C1273.7 1650.76 1270.03 1654.38 1266.22 1657.88C1264.16 1659.74 1264.01 1662.91 1265.88 1664.97C1267.74 1667.02 1270.91 1667.18 1272.97 1665.31C1276.81 1661.85 1280.77 1658.54 1284.62 1655.09C1286.79 1653.12 1286.97 1649.76 1285 1647.59C1284.01 1646.51 1282.67 1645.94 1281.31 1645.88Z" fill="#beb9b1" fill-opacity="0.189846" stroke="none"/>
</g>
<g opacity="1">
<path d="M1391.78 1638.56C1390.42 1638.51 1389.05 1638.97 1387.97 1639.97C1383.48 1644.17 1379.1 1648.5 1374.59 1652.69C1372.55 1654.57 1372.43 1657.77 1374.31 1659.81C1376.2 1661.85 1379.37 1661.98 1381.41 1660.09C1385.94 1655.94 1390.61 1651.92 1395.16 1647.78C1397.31 1645.79 1397.46 1642.44 1395.47 1640.28C1394.47 1639.2 1393.14 1638.62 1391.78 1638.56Z" fill="#beb9b1" fill-opacity="0.189846" stroke="none"/>
</g>
<g opacity="1">
<path d="M1418.97 624.219C1417.61 624.142 1416.22 624.555 1415.12 625.531C1409.55 630.567 1404.93 636.11 1400.88 642.438C1399.37 644.772 1400.07 647.872 1402.41 649.375C1404.74 650.878 1407.84 650.209 1409.34 647.875C1412.88 642.408 1417.34 637.765 1422.22 633.469C1424.41 631.516 1424.58 628.157 1422.62 625.969C1421.65 624.875 1420.33 624.296 1418.97 624.219Z" fill="#beb9b1" fill-opacity="0.189846" stroke="none"/>
</g>
<g opacity="1">
<path d="M1487.47 626.281C1486.11 626.281 1484.76 626.807 1483.72 627.844C1479.92 631.695 1476.25 635.662 1472.44 639.5C1470.47 641.463 1470.47 644.662 1472.44 646.625C1474.4 648.588 1477.6 648.588 1479.56 646.625C1483.4 642.815 1487.37 639.14 1491.22 635.344C1493.29 633.27 1493.29 629.917 1491.22 627.844C1490.18 626.807 1488.83 626.281 1487.47 626.281Z" fill="#beb9b1" fill-opacity="0.189846" stroke="none"/>
</g>
<g opacity="1">
<path d="M1561.12 623.188C1559.07 622.924 1556.98 623.881 1555.88 625.781C1553.48 629.973 1551.23 634.256 1548.81 638.438C1547.41 640.836 1548.23 643.914 1550.62 645.312C1553.02 646.711 1556.1 645.898 1557.5 643.5C1559.95 639.338 1562.56 635.277 1565.03 631.125C1566.51 628.592 1565.66 625.353 1563.12 623.875C1562.49 623.506 1561.81 623.275 1561.12 623.188Z" fill="#beb9b1" fill-opacity="0.189846" stroke="none"/>
</g>
<g opacity="1">
<path d="M1643.66 627.375C1641.61 627.048 1639.48 627.947 1638.31 629.812C1637.49 631.224 1637.9 630.485 1637.47 631.219C1636.78 632.404 1635.99 633.731 1636.12 633.5C1636.11 633.528 1636.11 633.565 1636.09 633.594C1636.13 633.537 1635.75 634.168 1635.81 634.062C1635.55 634.539 1635.3 635.027 1635.03 635.5C1634.76 635.975 1633.92 637.383 1634.19 636.906C1634.72 635.952 1634.2 636.915 1633.34 638.312C1631.87 640.667 1632.58 643.779 1634.94 645.25C1637.29 646.721 1640.4 645.979 1641.88 643.625C1643.68 640.917 1643.45 641.223 1643.66 640.906C1643.76 640.759 1643.87 640.615 1643.97 640.469C1644.08 640.301 1644.2 640.136 1644.31 639.969C1644.28 640.022 1644.66 639.436 1644.59 639.531C1644.91 639.087 1645.23 638.637 1645.53 638.188C1645.84 637.735 1646.75 636.395 1646.44 636.844C1645.81 637.742 1646.43 636.817 1647.31 635.438C1648.87 632.951 1648.11 629.679 1645.62 628.125C1645 627.736 1644.34 627.484 1643.66 627.375Z" fill="#beb9b1" fill-opacity="0.189846" stroke="none"/>
</g>
</g>
</svg>
